<svg id="Layer_1" data-name="Layer 1" xmlns="http://www.w3.org/2000/svg" viewBox="0 0 512 512"><defs><style>.cls-1,.cls-10,.cls-11,.cls-112,.cls-12,.cls-13,.cls-14,.cls-15,.cls-16,.cls-17,.cls-18,.cls-19,.cls-2,.cls-20,.cls-21,.cls-22,.cls-23,.cls-24,.cls-25,.cls-26,.cls-27,.cls-28,.cls-29,.cls-3,.cls-30,.cls-31,.cls-32,.cls-33,.cls-34,.cls-35,.cls-36,.cls-37,.cls-4,.cls-5,.cls-6,.cls-7,.cls-8,.cls-9{fill:#00eaff;}.cls-1,.cls-38,.cls-75{opacity:0.1;}.cls-2,.cls-39,.cls-76{opacity:0.11;}.cls-3,.cls-40,.cls-77{opacity:0.12;}.cls-4,.cls-41,.cls-78{opacity:0.13;}.cls-42,.cls-5,.cls-79{opacity:0.14;}.cls-43,.cls-6,.cls-80{opacity:0.16;}.cls-44,.cls-7,.cls-81{opacity:0.17;}.cls-45,.cls-8,.cls-82{opacity:0.18;}.cls-46,.cls-83,.cls-9{opacity:0.19;}.cls-10,.cls-47,.cls-84{opacity:0.2;}.cls-11,.cls-48,.cls-85{opacity:0.21;}.cls-12,.cls-49,.cls-86{opacity:0.22;}.cls-13,.cls-50,.cls-87{opacity:0.23;}.cls-14,.cls-51,.cls-88{opacity:0.24;}.cls-15,.cls-52,.cls-89{opacity:0.26;}.cls-16,.cls-53,.cls-90{opacity:0.27;}.cls-17,.cls-54,.cls-91{opacity:0.28;}.cls-18,.cls-55,.cls-92{opacity:0.29;}.cls-19,.cls-56,.cls-93{opacity:0.3;}.cls-20,.cls-57,.cls-94{opacity:0.31;}.cls-21,.cls-58,.cls-95{opacity:0.32;}.cls-22,.cls-59,.cls-96{opacity:0.33;}.cls-23,.cls-60,.cls-97{opacity:0.34;}.cls-24,.cls-61,.cls-98{opacity:0.36;}.cls-25,.cls-62,.cls-99{opacity:0.37;}.cls-100,.cls-26,.cls-63{opacity:0.38;}.cls-101,.cls-27,.cls-64{opacity:0.39;}.cls-102,.cls-28,.cls-65{opacity:0.4;}.cls-103,.cls-29,.cls-66{opacity:0.41;}.cls-104,.cls-30,.cls-67{opacity:0.42;}.cls-105,.cls-31,.cls-68{opacity:0.43;}.cls-106,.cls-32,.cls-69{opacity:0.44;}.cls-107,.cls-33,.cls-70{opacity:0.46;}.cls-108,.cls-34,.cls-71{opacity:0.47;}.cls-109,.cls-35,.cls-72{opacity:0.48;}.cls-110,.cls-36,.cls-73{opacity:0.49;}.cls-111,.cls-37,.cls-74{opacity:0.5;}.cls-149,.cls-38,.cls-39,.cls-40,.cls-41,.cls-42,.cls-43,.cls-44,.cls-45,.cls-46,.cls-47,.cls-48,.cls-49,.cls-50,.cls-51,.cls-52,.cls-53,.cls-54,.cls-55,.cls-56,.cls-57,.cls-58,.cls-59,.cls-60,.cls-61,.cls-62,.cls-63,.cls-64,.cls-65,.cls-66,.cls-67,.cls-68,.cls-69,.cls-70,.cls-71,.cls-72,.cls-73,.cls-74{fill:#008a35;}.cls-100,.cls-101,.cls-102,.cls-103,.cls-104,.cls-105,.cls-106,.cls-107,.cls-108,.cls-109,.cls-110,.cls-111,.cls-186,.cls-75,.cls-76,.cls-77,.cls-78,.cls-79,.cls-80,.cls-81,.cls-82,.cls-83,.cls-84,.cls-85,.cls-86,.cls-87,.cls-88,.cls-89,.cls-90,.cls-91,.cls-92,.cls-93,.cls-94,.cls-95,.cls-96,.cls-97,.cls-98,.cls-99{fill:#ff1c1c;}.cls-112,.cls-149,.cls-186{opacity:0;}.cls-113{fill:#04eaff;}.cls-113,.cls-150,.cls-187{opacity:0.03;}.cls-114{fill:#08ebff;}.cls-114,.cls-151,.cls-188{opacity:0.06;}.cls-115{fill:#0cebff;}.cls-115,.cls-152,.cls-189{opacity:0.08;}.cls-116{fill:#10ebff;}.cls-116,.cls-153,.cls-190{opacity:0.11;}.cls-117{fill:#14ecff;}.cls-117,.cls-154,.cls-191{opacity:0.14;}.cls-118{fill:#18ecff;}.cls-118,.cls-155,.cls-192{opacity:0.17;}.cls-119{fill:#1cecff;}.cls-119,.cls-156,.cls-193{opacity:0.19;}.cls-120{fill:#20edff;}.cls-120,.cls-157,.cls-194{opacity:0.22;}.cls-121{fill:#24edff;}.cls-121,.cls-158,.cls-195{opacity:0.25;}.cls-122{fill:#28edff;}.cls-122,.cls-159,.cls-196{opacity:0.28;}.cls-123{fill:#2ceeff;}.cls-123,.cls-160,.cls-197{opacity:0.31;}.cls-124{fill:#30eeff;}.cls-124,.cls-161,.cls-198{opacity:0.33;}.cls-125{fill:#34eeff;}.cls-125,.cls-162,.cls-199{opacity:0.36;}.cls-126{fill:#38efff;}.cls-126,.cls-163,.cls-200{opacity:0.39;}.cls-127{fill:#3cefff;}.cls-127,.cls-164,.cls-201{opacity:0.42;}.cls-128{fill:#40efff;}.cls-128,.cls-165,.cls-202{opacity:0.44;}.cls-129{fill:#44f0ff;}.cls-129,.cls-166,.cls-203{opacity:0.47;}.cls-130{fill:#48f0ff;}.cls-130,.cls-167,.cls-204{opacity:0.5;}.cls-131{fill:#4df0ff;}.cls-131,.cls-168,.cls-205{opacity:0.53;}.cls-132{fill:#51f1ff;}.cls-132,.cls-169,.cls-206{opacity:0.56;}.cls-133{fill:#55f1ff;}.cls-133,.cls-170,.cls-207{opacity:0.58;}.cls-134{fill:#59f1ff;}.cls-134,.cls-171,.cls-208{opacity:0.61;}.cls-135{fill:#5df2ff;}.cls-135,.cls-172,.cls-209{opacity:0.64;}.cls-136{fill:#61f2ff;}.cls-136,.cls-173,.cls-210{opacity:0.67;}.cls-137{fill:#65f2ff;}.cls-137,.cls-174,.cls-211{opacity:0.69;}.cls-138{fill:#69f3ff;}.cls-138,.cls-175,.cls-212{opacity:0.72;}.cls-139{fill:#6df3ff;}.cls-139,.cls-176,.cls-213{opacity:0.75;}.cls-140{fill:#71f3ff;}.cls-140,.cls-177,.cls-214{opacity:0.78;}.cls-141{fill:#75f4ff;}.cls-141,.cls-178,.cls-215{opacity:0.81;}.cls-142{fill:#79f4ff;}.cls-142,.cls-179,.cls-216{opacity:0.83;}.cls-143{fill:#7df4ff;}.cls-143,.cls-180,.cls-217{opacity:0.86;}.cls-144{fill:#81f5ff;}.cls-144,.cls-181,.cls-218{opacity:0.89;}.cls-145{fill:#85f5ff;}.cls-145,.cls-182,.cls-219{opacity:0.92;}.cls-146{fill:#89f5ff;}.cls-146,.cls-183,.cls-220{opacity:0.94;}.cls-147{fill:#8df6ff;}.cls-147,.cls-184,.cls-221{opacity:0.97;}.cls-148{fill:#91f6ff;}.cls-150{fill:#018d37;}.cls-151{fill:#019039;}.cls-152{fill:#02943b;}.cls-153{fill:#02973d;}.cls-154{fill:#039a3f;}.cls-155{fill:#039d41;}.cls-156{fill:#04a143;}.cls-157{fill:#04a445;}.cls-158{fill:#05a747;}.cls-159{fill:#05aa49;}.cls-160{fill:#06ae4b;}.cls-161{fill:#06b14d;}.cls-162{fill:#07b44f;}.cls-163{fill:#07b751;}.cls-164{fill:#08bb53;}.cls-165{fill:#08be55;}.cls-166{fill:#09c157;}.cls-167{fill:#09c459;}.cls-168{fill:#0ac85b;}.cls-169{fill:#0acb5d;}.cls-170{fill:#0bce5f;}.cls-171{fill:#0bd161;}.cls-172{fill:#0cd563;}.cls-173{fill:#0cd865;}.cls-174{fill:#0ddb67;}.cls-175{fill:#0dde69;}.cls-176{fill:#0ee26b;}.cls-177{fill:#0ee56d;}.cls-178{fill:#0fe86f;}.cls-179{fill:#0feb71;}.cls-180{fill:#10ef73;}.cls-181{fill:#10f275;}.cls-182{fill:#11f577;}.cls-183{fill:#11f879;}.cls-184{fill:#12fc7b;}.cls-185{fill:#12ff7d;}.cls-187{fill:#ff1f1f;}.cls-188{fill:#f22;}.cls-189{fill:#ff2525;}.cls-190{fill:#ff2828;}.cls-191{fill:#ff2b2b;}.cls-192{fill:#ff2e2e;}.cls-193{fill:#ff3131;}.cls-194{fill:#ff3434;}.cls-195{fill:#ff3737;}.cls-196{fill:#ff3a3a;}.cls-197{fill:#ff3d3d;}.cls-198{fill:#ff4040;}.cls-199{fill:#ff4343;}.cls-200{fill:#ff4646;}.cls-201{fill:#ff4949;}.cls-202{fill:#ff4c4c;}.cls-203{fill:#ff4f4f;}.cls-204{fill:#ff5252;}.cls-205{fill:#ff5454;}.cls-206{fill:#ff5757;}.cls-207{fill:#ff5a5a;}.cls-208{fill:#ff5d5d;}.cls-209{fill:#ff6060;}.cls-210{fill:#ff6363;}.cls-211{fill:#f66;}.cls-212{fill:#ff6969;}.cls-213{fill:#ff6c6c;}.cls-214{fill:#ff6f6f;}.cls-215{fill:#ff7272;}.cls-216{fill:#ff7575;}.cls-217{fill:#ff7878;}.cls-218{fill:#ff7b7b;}.cls-219{fill:#ff7e7e;}.cls-220{fill:#ff8181;}.cls-221{fill:#ff8484;}.cls-222{fill:#ff8787;}.cls-223{fill:#fff;}</style></defs><title>Line Icon 7</title><path class="cls-1" d="M256,337.12a22,22,0,0,0,22-22V118.52a22,22,0,1,0-44,0V315.1A22,22,0,0,0,256,337.12Z"/><path class="cls-1" d="M325.38,344.42a22,22,0,0,0-31,2.76,50,50,0,0,1-76.72,0,22,22,0,1,0-33.77,28.27,94,94,0,0,0,144.26,0A22,22,0,0,0,325.38,344.42Z"/><path class="cls-2" d="M256,336.82a21.73,21.73,0,0,0,21.72-21.72V118.52a21.72,21.72,0,0,0-43.44,0V315.1A21.73,21.73,0,0,0,256,336.82Z"/><path class="cls-2" d="M325.19,344.66a21.7,21.7,0,0,0-30.59,2.71,50.32,50.32,0,0,1-77.2,0,21.72,21.72,0,0,0-33.3,27.88,93.75,93.75,0,0,0,143.8,0A21.72,21.72,0,0,0,325.19,344.66Z"/><path class="cls-3" d="M256,336.51a21.42,21.42,0,0,0,21.41-21.41V118.52a21.41,21.41,0,0,0-42.82,0V315.1A21.42,21.42,0,0,0,256,336.51Z"/><path class="cls-3" d="M325,344.89a21.4,21.4,0,0,0-30.16,2.68,50.61,50.61,0,0,1-77.66,0,21.41,21.41,0,0,0-32.84,27.48,93.43,93.43,0,0,0,143.34,0A21.41,21.41,0,0,0,325,344.89Z"/><path class="cls-4" d="M256,336.21a21.11,21.11,0,0,0,21.1-21.11V118.52a21.1,21.1,0,1,0-42.2,0V315.1A21.11,21.11,0,0,0,256,336.21Z"/><path class="cls-4" d="M324.79,345.13a21.1,21.1,0,0,0-29.73,2.63,50.91,50.91,0,0,1-78.12,0,21.11,21.11,0,0,0-32.37,27.1,93.13,93.13,0,0,0,142.86,0A21.1,21.1,0,0,0,324.79,345.13Z"/><path class="cls-5" d="M256,335.9a20.8,20.8,0,0,0,20.8-20.8V118.52a20.8,20.8,0,0,0-41.6,0V315.1A20.8,20.8,0,0,0,256,335.9Z"/><path class="cls-5" d="M324.6,345.36a20.79,20.79,0,0,0-29.3,2.6,51.22,51.22,0,0,1-78.6,0,20.8,20.8,0,1,0-31.9,26.7,92.82,92.82,0,0,0,142.4,0A20.8,20.8,0,0,0,324.6,345.36Z"/><path class="cls-6" d="M256,335.59a20.49,20.49,0,0,0,20.49-20.49V118.52a20.49,20.49,0,0,0-41,0V315.1A20.49,20.49,0,0,0,256,335.59Z"/><path class="cls-6" d="M324.4,345.6a20.48,20.48,0,0,0-28.87,2.56,51.52,51.52,0,0,1-79.06,0A20.49,20.49,0,0,0,185,374.46a92.5,92.5,0,0,0,141.92,0A20.48,20.48,0,0,0,324.4,345.6Z"/><path class="cls-7" d="M256,335.29a20.19,20.19,0,0,0,20.19-20.19V118.52a20.19,20.19,0,0,0-40.38,0V315.1A20.19,20.19,0,0,0,256,335.29Z"/><path class="cls-7" d="M324.2,345.83a20.17,20.17,0,0,0-28.43,2.52,51.84,51.84,0,0,1-79.54,0,20.19,20.19,0,0,0-31,25.92,92.23,92.23,0,0,0,141.46,0A20.19,20.19,0,0,0,324.2,345.83Z"/><path class="cls-8" d="M256,335a19.88,19.88,0,0,0,19.88-19.88V118.52a19.88,19.88,0,1,0-39.76,0V315.1A19.88,19.88,0,0,0,256,335Z"/><path class="cls-8" d="M324,346.07a19.87,19.87,0,0,0-28,2.48,52.13,52.13,0,0,1-80,0,19.88,19.88,0,0,0-30.49,25.52,91.89,91.89,0,0,0,141,0A19.87,19.87,0,0,0,324,346.07Z"/><path class="cls-9" d="M256,334.68a19.58,19.58,0,0,0,19.57-19.58V118.52a19.57,19.57,0,1,0-39.14,0V315.1A19.58,19.58,0,0,0,256,334.68Z"/><path class="cls-9" d="M323.81,346.3a19.56,19.56,0,0,0-27.57,2.45,52.47,52.47,0,0,1-80.48,0,19.57,19.57,0,1,0-30,25.13,91.62,91.62,0,0,0,140.52,0A19.58,19.58,0,0,0,323.81,346.3Z"/><path class="cls-10" d="M256,334.37a19.27,19.27,0,0,0,19.27-19.27V118.52a19.27,19.27,0,1,0-38.54,0V315.1A19.27,19.27,0,0,0,256,334.37Z"/><path class="cls-10" d="M323.62,346.54a19.26,19.26,0,0,0-27.15,2.4,52.74,52.74,0,0,1-80.94,0A19.27,19.27,0,0,0,186,373.68a91.28,91.28,0,0,0,140,0A19.26,19.26,0,0,0,323.62,346.54Z"/><path class="cls-11" d="M256,334.06a19,19,0,0,0,19-19V118.52a19,19,0,1,0-37.92,0V315.1A19,19,0,0,0,256,334.06Z"/><path class="cls-11" d="M323.42,346.77a19,19,0,0,0-26.71,2.37,53.06,53.06,0,0,1-81.42,0,19,19,0,1,0-29.08,24.34,91,91,0,0,0,139.58,0A19,19,0,0,0,323.42,346.77Z"/><path class="cls-12" d="M256,333.76a18.67,18.67,0,0,0,18.66-18.66V118.52a18.66,18.66,0,0,0-37.32,0V315.1A18.67,18.67,0,0,0,256,333.76Z"/><path class="cls-12" d="M323.22,347a18.66,18.66,0,0,0-26.28,2.33,53.35,53.35,0,0,1-81.88,0,18.66,18.66,0,1,0-28.61,24,90.67,90.67,0,0,0,139.1,0A18.65,18.65,0,0,0,323.22,347Z"/><path class="cls-13" d="M256,333.45a18.35,18.35,0,0,0,18.35-18.35V118.52a18.35,18.35,0,0,0-36.7,0V315.1A18.35,18.35,0,0,0,256,333.45Z"/><path class="cls-13" d="M323,347.24a18.34,18.34,0,0,0-25.85,2.29,53.67,53.67,0,0,1-82.36,0,18.35,18.35,0,1,0-28.14,23.56,90.37,90.37,0,0,0,138.64,0A18.36,18.36,0,0,0,323,347.24Z"/><path class="cls-14" d="M256,333.15a18,18,0,0,0,18.05-18V118.52a18,18,0,0,0-36.1,0V315.1A18,18,0,0,0,256,333.15Z"/><path class="cls-14" d="M322.83,347.47a18,18,0,0,0-25.42,2.26,54,54,0,0,1-82.82,0,18,18,0,1,0-27.67,23.16,90.06,90.06,0,0,0,138.16,0A18,18,0,0,0,322.83,347.47Z"/><path class="cls-15" d="M256,332.84a17.74,17.74,0,0,0,17.74-17.74V118.52a17.74,17.74,0,0,0-35.48,0V315.1A17.74,17.74,0,0,0,256,332.84Z"/><path class="cls-15" d="M322.63,347.71a17.72,17.72,0,0,0-25,2.21,54.28,54.28,0,0,1-83.3,0,17.74,17.74,0,0,0-27.2,22.78,89.76,89.76,0,0,0,137.7,0A17.73,17.73,0,0,0,322.63,347.71Z"/><path class="cls-16" d="M256,332.53a17.43,17.43,0,0,0,17.43-17.43V118.52a17.43,17.43,0,0,0-34.86,0V315.1A17.43,17.43,0,0,0,256,332.53Z"/><path class="cls-16" d="M322.44,347.94a17.43,17.43,0,0,0-24.56,2.18,54.6,54.6,0,0,1-83.76,0,17.43,17.43,0,0,0-26.74,22.38,89.47,89.47,0,0,0,137.24,0A17.44,17.44,0,0,0,322.44,347.94Z"/><path class="cls-17" d="M256,332.23a17.13,17.13,0,0,0,17.13-17.13V118.52a17.13,17.13,0,1,0-34.26,0V315.1A17.13,17.13,0,0,0,256,332.23Z"/><path class="cls-17" d="M322.24,348.18a17.13,17.13,0,0,0-24.13,2.14,54.89,54.89,0,0,1-84.22,0,17.13,17.13,0,1,0-26.27,22,89.15,89.15,0,0,0,136.76,0A17.13,17.13,0,0,0,322.24,348.18Z"/><path class="cls-18" d="M256,331.92a16.82,16.82,0,0,0,16.82-16.82V118.52a16.82,16.82,0,1,0-33.64,0V315.1A16.82,16.82,0,0,0,256,331.92Z"/><path class="cls-18" d="M322.05,348.41a16.82,16.82,0,0,0-23.7,2.1,55.19,55.19,0,0,1-84.7,0,16.82,16.82,0,1,0-25.8,21.6,88.85,88.85,0,0,0,136.3,0A16.83,16.83,0,0,0,322.05,348.41Z"/><path class="cls-19" d="M256,331.62a16.52,16.52,0,0,0,16.52-16.52V118.52a16.52,16.52,0,1,0-33,0V315.1A16.52,16.52,0,0,0,256,331.62Z"/><path class="cls-19" d="M321.85,348.65a16.51,16.51,0,0,0-23.27,2.06,55.5,55.5,0,0,1-85.16,0,16.52,16.52,0,0,0-25.33,21.2,88.54,88.54,0,0,0,135.82,0A16.51,16.51,0,0,0,321.85,348.65Z"/><path class="cls-20" d="M256,331.31a16.21,16.21,0,0,0,16.21-16.21V118.52a16.21,16.21,0,1,0-32.42,0V315.1A16.21,16.21,0,0,0,256,331.31Z"/><path class="cls-20" d="M321.65,348.88a16.2,16.2,0,0,0-22.83,2,55.8,55.8,0,0,1-85.64,0,16.21,16.21,0,0,0-24.86,20.82,88.24,88.24,0,0,0,135.36,0A16.22,16.22,0,0,0,321.65,348.88Z"/><path class="cls-21" d="M256,331a15.91,15.91,0,0,0,15.9-15.91V118.52a15.9,15.9,0,1,0-31.8,0V315.1A15.91,15.91,0,0,0,256,331Z"/><path class="cls-21" d="M321.46,349.12a15.9,15.9,0,0,0-22.41,2,56.12,56.12,0,0,1-86.1,0,15.9,15.9,0,0,0-24.39,20.42,87.93,87.93,0,0,0,134.88,0A15.9,15.9,0,0,0,321.46,349.12Z"/><path class="cls-22" d="M256,330.7a15.61,15.61,0,0,0,15.6-15.6V118.52a15.6,15.6,0,0,0-31.2,0V315.1A15.61,15.61,0,0,0,256,330.7Z"/><path class="cls-22" d="M321.26,349.35a15.59,15.59,0,0,0-22,1.95,56.43,56.43,0,0,1-86.58,0,15.6,15.6,0,1,0-23.92,20,87.61,87.61,0,0,0,134.42,0A15.59,15.59,0,0,0,321.26,349.35Z"/><path class="cls-23" d="M256,330.39a15.28,15.28,0,0,0,15.29-15.29V118.52a15.29,15.29,0,0,0-30.58,0V315.1A15.28,15.28,0,0,0,256,330.39Z"/><path class="cls-23" d="M321.06,349.59a15.28,15.28,0,0,0-21.54,1.9,56.71,56.71,0,0,1-87,0A15.29,15.29,0,0,0,189,371.13a87.31,87.31,0,0,0,133.94,0A15.29,15.29,0,0,0,321.06,349.59Z"/><path class="cls-24" d="M256,330.09a15,15,0,0,0,15-15V118.52a15,15,0,0,0-30,0V315.1A15,15,0,0,0,256,330.09Z"/><path class="cls-24" d="M320.87,349.82a15,15,0,0,0-21.11,1.87,57,57,0,0,1-87.52,0,15,15,0,1,0-23,19.24,87,87,0,0,0,133.48,0A15,15,0,0,0,320.87,349.82Z"/><path class="cls-25" d="M256,329.78a14.68,14.68,0,0,0,14.68-14.68V118.52a14.68,14.68,0,0,0-29.36,0V315.1A14.68,14.68,0,0,0,256,329.78Z"/><path class="cls-25" d="M320.67,350.05A14.68,14.68,0,0,0,300,351.89a57.34,57.34,0,0,1-88,0,14.68,14.68,0,1,0-22.51,18.85,86.7,86.7,0,0,0,133,0A14.68,14.68,0,0,0,320.67,350.05Z"/><path class="cls-26" d="M256,329.48a14.38,14.38,0,0,0,14.38-14.38V118.52a14.38,14.38,0,1,0-28.76,0V315.1A14.38,14.38,0,0,0,256,329.48Z"/><path class="cls-26" d="M320.48,350.29a14.37,14.37,0,0,0-20.25,1.79,57.66,57.66,0,0,1-88.46,0,14.37,14.37,0,0,0-22,18.46,86.41,86.41,0,0,0,132.54,0A14.38,14.38,0,0,0,320.48,350.29Z"/><path class="cls-27" d="M256,329.17a14.07,14.07,0,0,0,14.07-14.07V118.52a14.07,14.07,0,1,0-28.14,0V315.1A14.07,14.07,0,0,0,256,329.17Z"/><path class="cls-27" d="M320.28,350.52a14.08,14.08,0,0,0-19.82,1.76,58,58,0,0,1-88.92,0A14.07,14.07,0,1,0,190,370.34a86.07,86.07,0,0,0,132.06,0A14.07,14.07,0,0,0,320.28,350.52Z"/><path class="cls-28" d="M256,328.86a13.76,13.76,0,0,0,13.76-13.76V118.52a13.76,13.76,0,1,0-27.52,0V315.1A13.76,13.76,0,0,0,256,328.86Z"/><path class="cls-28" d="M320.08,350.76a13.75,13.75,0,0,0-19.38,1.71,58.27,58.27,0,0,1-89.4,0,13.76,13.76,0,0,0-21.1,17.68,85.79,85.79,0,0,0,131.6,0A13.76,13.76,0,0,0,320.08,350.76Z"/><path class="cls-29" d="M256,328.56a13.46,13.46,0,0,0,13.46-13.46V118.52a13.46,13.46,0,1,0-26.92,0V315.1A13.46,13.46,0,0,0,256,328.56Z"/><path class="cls-29" d="M319.89,351a13.46,13.46,0,0,0-19,1.68,58.56,58.56,0,0,1-89.86,0A13.46,13.46,0,0,0,190.43,370a85.48,85.48,0,0,0,131.14,0A13.46,13.46,0,0,0,319.89,351Z"/><path class="cls-30" d="M256,328.25a13.15,13.15,0,0,0,13.15-13.15V118.52a13.15,13.15,0,1,0-26.3,0V315.1A13.15,13.15,0,0,0,256,328.25Z"/><path class="cls-30" d="M319.69,351.23a13.16,13.16,0,0,0-18.53,1.64,58.86,58.86,0,0,1-90.32,0,13.15,13.15,0,0,0-20.17,16.88,85.16,85.16,0,0,0,130.66,0A13.15,13.15,0,0,0,319.69,351.23Z"/><path class="cls-31" d="M256,328a12.86,12.86,0,0,0,12.85-12.85V118.52a12.85,12.85,0,0,0-25.7,0V315.1A12.86,12.86,0,0,0,256,328Z"/><path class="cls-31" d="M319.49,351.46a12.84,12.84,0,0,0-18.09,1.6,59.18,59.18,0,0,1-90.8,0,12.85,12.85,0,0,0-19.7,16.5,84.89,84.89,0,0,0,130.2,0A12.86,12.86,0,0,0,319.49,351.46Z"/><path class="cls-32" d="M256,327.64a12.53,12.53,0,0,0,12.54-12.54V118.52a12.54,12.54,0,0,0-25.08,0V315.1A12.53,12.53,0,0,0,256,327.64Z"/><path class="cls-32" d="M319.3,351.7a12.54,12.54,0,0,0-17.67,1.56,59.47,59.47,0,0,1-91.26,0,12.54,12.54,0,0,0-19.23,16.1,84.55,84.55,0,0,0,129.72,0A12.53,12.53,0,0,0,319.3,351.7Z"/><path class="cls-33" d="M256,327.34a12.23,12.23,0,0,0,12.23-12.24V118.52a12.23,12.23,0,1,0-24.46,0V315.1A12.23,12.23,0,0,0,256,327.34Z"/><path class="cls-33" d="M319.1,351.93a12.22,12.22,0,0,0-17.23,1.53,59.81,59.81,0,0,1-91.74,0,12.23,12.23,0,1,0-18.76,15.71,84.27,84.27,0,0,0,129.26,0A12.25,12.25,0,0,0,319.1,351.93Z"/><path class="cls-34" d="M256,327a11.93,11.93,0,0,0,11.93-11.93V118.52a11.93,11.93,0,0,0-23.86,0V315.1A11.93,11.93,0,0,0,256,327Z"/><path class="cls-34" d="M318.91,352.17a11.93,11.93,0,0,0-16.81,1.48,60.08,60.08,0,0,1-92.2,0A11.93,11.93,0,0,0,191.61,369a83.94,83.94,0,0,0,128.78,0A11.92,11.92,0,0,0,318.91,352.17Z"/><path class="cls-35" d="M256,326.72a11.62,11.62,0,0,0,11.62-11.62V118.52a11.62,11.62,0,0,0-23.24,0V315.1A11.62,11.62,0,0,0,256,326.72Z"/><path class="cls-35" d="M318.71,352.4a11.62,11.62,0,0,0-16.37,1.45,60.4,60.4,0,0,1-92.68,0,11.62,11.62,0,1,0-17.82,14.92,83.64,83.64,0,0,0,128.32,0A11.62,11.62,0,0,0,318.71,352.4Z"/><path class="cls-36" d="M256,326.42a11.32,11.32,0,0,0,11.32-11.32V118.52a11.32,11.32,0,1,0-22.64,0V315.1A11.32,11.32,0,0,0,256,326.42Z"/><path class="cls-36" d="M318.51,352.64a11.31,11.31,0,0,0-15.94,1.4,60.7,60.7,0,0,1-93.14,0,11.32,11.32,0,0,0-17.35,14.54,83.33,83.33,0,0,0,127.84,0A11.32,11.32,0,0,0,318.51,352.64Z"/><path class="cls-37" d="M256,326.11a11,11,0,0,0,11-11V118.52a11,11,0,1,0-22,0V315.1A11,11,0,0,0,256,326.11Z"/><path class="cls-37" d="M318.32,352.87a11,11,0,0,0-15.51,1.37,61,61,0,0,1-93.62,0,11,11,0,0,0-16.88,14.14,83,83,0,0,0,127.38,0A11,11,0,0,0,318.32,352.87Z"/><path class="cls-38" d="M479.21,473.09,270.13,298.21a22,22,0,0,0-28.26,0L32.79,473.09a22,22,0,1,0,28.26,33.78L256,343.81,451,506.87a22,22,0,0,0,28.26-33.78Z"/><path class="cls-39" d="M479,473.32,269.93,298.44a21.72,21.72,0,0,0-27.86,0L33,473.32a21.72,21.72,0,0,0,27.86,33.32L256,343.41,451.15,506.64A21.72,21.72,0,0,0,479,473.32Z"/><path class="cls-40" d="M478.82,473.55,269.74,298.68a21.42,21.42,0,0,0-27.48,0L33.18,473.55A21.41,21.41,0,0,0,60.65,506.4L256,343,451.35,506.4a21.41,21.41,0,0,0,27.47-32.85Z"/><path class="cls-41" d="M478.62,473.79,269.54,298.91a21.12,21.12,0,0,0-27.08,0L33.38,473.79a21.11,21.11,0,0,0,27.08,32.38L256,342.61,451.54,506.17a21.11,21.11,0,1,0,27.08-32.38Z"/><path class="cls-42" d="M478.43,474,269.34,299.15a20.79,20.79,0,0,0-26.68,0L33.57,474a20.8,20.8,0,1,0,26.69,31.91L256,342.22,451.74,505.93A20.8,20.8,0,1,0,478.43,474Z"/><path class="cls-43" d="M478.23,474.26,269.15,299.38a20.51,20.51,0,0,0-26.3,0L33.77,474.26a20.49,20.49,0,0,0,26.3,31.44L256,341.82,451.93,505.7a20.49,20.49,0,0,0,26.3-31.44Z"/><path class="cls-44" d="M478,474.49,269,299.62a20.18,20.18,0,0,0-25.9,0L34,474.49a20.19,20.19,0,1,0,25.9,31L256,341.42l196.13,164a20.19,20.19,0,1,0,25.9-31Z"/><path class="cls-45" d="M477.84,474.73,268.76,299.85a19.91,19.91,0,0,0-25.52,0L34.16,474.73a19.88,19.88,0,0,0,25.51,30.5L256,341,452.33,505.23a19.88,19.88,0,0,0,25.51-30.5Z"/><path class="cls-46" d="M477.64,475,268.56,300.09a19.58,19.58,0,0,0-25.12,0L34.36,475a19.58,19.58,0,1,0,25.12,30L256,340.62,452.52,505a19.58,19.58,0,1,0,25.12-30Z"/><path class="cls-47" d="M477.44,475.2,268.36,300.32a19.27,19.27,0,0,0-24.72,0L34.56,475.2a19.27,19.27,0,0,0,24.72,29.56L256,340.22,452.72,504.76a19.27,19.27,0,0,0,24.72-29.56Z"/><path class="cls-48" d="M477.25,475.43,268.17,300.55a19,19,0,0,0-24.34,0L34.75,475.43a19,19,0,1,0,24.33,29.09L256,339.82l196.92,164.7a19,19,0,1,0,24.33-29.09Z"/><path class="cls-49" d="M477.05,475.67,268,300.79a18.67,18.67,0,0,0-23.94,0L35,475.67a18.66,18.66,0,1,0,23.94,28.62L256,339.42,453.11,504.29a18.66,18.66,0,1,0,23.94-28.62Z"/><path class="cls-50" d="M476.86,475.9,267.77,301a18.34,18.34,0,0,0-23.54,0L35.14,475.9a18.35,18.35,0,0,0,23.55,28.16L256,339l197.31,165a18.35,18.35,0,0,0,23.55-28.16Z"/><path class="cls-51" d="M476.66,476.14,267.58,301.26a18,18,0,0,0-23.16,0L35.34,476.14A18,18,0,0,0,58.5,503.82L256,338.63,453.5,503.82a18,18,0,0,0,23.16-27.68Z"/><path class="cls-52" d="M476.46,476.37,267.38,301.49a17.74,17.74,0,0,0-22.76,0L35.54,476.37A17.74,17.74,0,0,0,58.3,503.59L256,338.23,453.7,503.59a17.74,17.74,0,0,0,22.76-27.22Z"/><path class="cls-53" d="M476.27,476.6,267.19,301.73a17.43,17.43,0,0,0-22.38,0L35.73,476.6A17.44,17.44,0,0,0,58.1,503.35L256,337.83,453.9,503.35a17.44,17.44,0,1,0,22.37-26.75Z"/><path class="cls-54" d="M476.07,476.84,267,302a17.13,17.13,0,0,0-22,0L35.93,476.84a17.13,17.13,0,0,0,22,26.28L256,337.43,454.09,503.12a17.13,17.13,0,0,0,22-26.28Z"/><path class="cls-55" d="M475.87,477.07,266.79,302.2a16.8,16.8,0,0,0-21.58,0L36.13,477.07a16.82,16.82,0,1,0,21.58,25.81L256,337,454.29,502.88a16.82,16.82,0,1,0,21.58-25.81Z"/><path class="cls-56" d="M475.68,477.31,266.6,302.43a16.53,16.53,0,0,0-21.2,0L36.32,477.31a16.52,16.52,0,1,0,21.2,25.34L256,336.63l198.48,166a16.52,16.52,0,0,0,21.2-25.34Z"/><path class="cls-57" d="M475.48,477.54,266.4,302.67a16.2,16.2,0,0,0-20.8,0L36.52,477.54a16.21,16.21,0,1,0,20.8,24.87L256,336.23,454.68,502.41a16.21,16.21,0,1,0,20.8-24.87Z"/><path class="cls-58" d="M475.29,477.78,266.2,302.9a15.89,15.89,0,0,0-20.4,0L36.71,477.78a15.91,15.91,0,0,0,20.41,24.4L256,335.84,454.88,502.18a15.91,15.91,0,0,0,20.41-24.4Z"/><path class="cls-59" d="M475.09,478,266,303.14a15.59,15.59,0,0,0-20,0L36.91,478a15.6,15.6,0,1,0,20,23.93L256,335.44l199.07,166.5a15.6,15.6,0,1,0,20-23.93Z"/><path class="cls-60" d="M474.89,478.25,265.81,303.37a15.29,15.29,0,0,0-19.62,0L37.11,478.25a15.29,15.29,0,1,0,19.62,23.46L256,335,455.27,501.71a15.29,15.29,0,1,0,19.62-23.46Z"/><path class="cls-61" d="M474.7,478.48,265.62,303.6a15,15,0,0,0-19.24,0L37.3,478.48a15,15,0,0,0,19.23,23L256,334.64,455.47,501.47a15,15,0,1,0,19.23-23Z"/><path class="cls-62" d="M474.5,478.72,265.42,303.84a14.68,14.68,0,0,0-18.84,0L37.5,478.72a14.68,14.68,0,0,0,18.84,22.52L256,334.24l199.66,167a14.68,14.68,0,1,0,18.84-22.52Z"/><path class="cls-63" d="M474.3,479,265.22,304.07a14.38,14.38,0,0,0-18.44,0L37.7,479A14.38,14.38,0,0,0,56.14,501L256,333.84,455.86,501A14.38,14.38,0,1,0,474.3,479Z"/><path class="cls-64" d="M474.11,479.19,265,304.31a14.08,14.08,0,0,0-18.06,0L37.89,479.19A14.07,14.07,0,0,0,56,500.77L256,333.44,456.05,500.77a14.07,14.07,0,0,0,18.06-21.58Z"/><path class="cls-65" d="M473.91,479.42,264.83,304.54a13.77,13.77,0,0,0-17.66,0L38.09,479.42a13.77,13.77,0,0,0,17.66,21.12L256,333l200.25,167.5a13.77,13.77,0,1,0,17.66-21.12Z"/><path class="cls-66" d="M473.72,479.65,264.63,304.78a13.45,13.45,0,0,0-17.26,0L38.28,479.65A13.46,13.46,0,0,0,55.55,500.3L256,332.65,456.45,500.3a13.46,13.46,0,1,0,17.27-20.65Z"/><path class="cls-67" d="M473.52,479.89,264.44,305a13.17,13.17,0,0,0-16.88,0L38.48,479.89a13.15,13.15,0,1,0,16.88,20.18L256,332.25,456.64,500.07a13.15,13.15,0,1,0,16.88-20.18Z"/><path class="cls-68" d="M473.32,480.12,264.24,305.25a12.84,12.84,0,0,0-16.48,0L38.68,480.12a12.85,12.85,0,1,0,16.48,19.71L256,331.85l200.84,168a12.85,12.85,0,1,0,16.48-19.71Z"/><path class="cls-69" d="M473.13,480.36,264.05,305.48a12.56,12.56,0,0,0-16.1,0L38.87,480.36A12.54,12.54,0,0,0,55,499.6L256,331.45,457,499.6a12.54,12.54,0,0,0,16.09-19.24Z"/><path class="cls-70" d="M472.93,480.59,263.85,305.72a12.24,12.24,0,0,0-15.7,0L39.07,480.59a12.24,12.24,0,1,0,15.7,18.77L256,331.05,457.23,499.36a12.24,12.24,0,1,0,15.7-18.77Z"/><path class="cls-71" d="M472.74,480.83,263.65,306a11.93,11.93,0,0,0-15.3,0L39.27,480.83a11.93,11.93,0,1,0,15.3,18.3L256,330.65,457.43,499.13a11.93,11.93,0,0,0,15.31-18.3Z"/><path class="cls-72" d="M472.54,481.06,263.46,306.19a11.63,11.63,0,0,0-14.92,0L39.46,481.06a11.62,11.62,0,1,0,14.92,17.83L256,330.25,457.62,498.89a11.62,11.62,0,1,0,14.92-17.83Z"/><path class="cls-73" d="M472.34,481.3,263.26,306.42a11.33,11.33,0,0,0-14.52,0L39.66,481.3a11.32,11.32,0,0,0,14.52,17.36L256,329.85,457.82,498.66a11.32,11.32,0,0,0,14.52-17.36Z"/><path class="cls-74" d="M472.15,481.53,263.06,306.65a11,11,0,0,0-14.12,0L39.85,481.53A11,11,0,0,0,54,498.42l202-169,202,169a11,11,0,0,0,14.13-16.89Z"/><path class="cls-75" d="M278,89.69V51.27L346.6,71ZM434.34,50.42,262.09.86A22,22,0,0,0,234,22v96.5a22,22,0,0,0,27.81,21.25L434,92.83a22,22,0,0,0,.3-42.41Z"/><path class="cls-76" d="M277.72,90.09V50.87l70,20.14ZM434.26,50.71,262,1.15A21.72,21.72,0,0,0,234.28,22v96.5A21.69,21.69,0,0,0,256,140.23a21.39,21.39,0,0,0,5.71-.76L434,92.53a21.72,21.72,0,0,0,.3-41.82Z"/><path class="cls-77" d="M277.41,90.49v-40L348.87,71ZM434.17,51,261.92,1.45A21.41,21.41,0,0,0,234.59,22v96.5A21.41,21.41,0,0,0,256,139.93a21.67,21.67,0,0,0,5.63-.75L433.88,92.23A21.41,21.41,0,0,0,434.17,51Z"/><path class="cls-78" d="M277.1,90.89V50.05L350,71Zm157-39.59L261.84,1.74A21.09,21.09,0,0,0,234.9,22v96.5a21.11,21.11,0,0,0,26.65,20.36L433.8,91.94a21.1,21.1,0,0,0,.29-40.64Z"/><path class="cls-79" d="M276.8,91.29V49.65L351.14,71ZM434,51.59,261.75,2A20.8,20.8,0,0,0,235.2,22v96.5a20.81,20.81,0,0,0,26.27,20.07L433.72,91.64a20.8,20.8,0,0,0,.28-40Z"/><path class="cls-80" d="M276.49,91.69V49.24L352.27,71Zm157.43-39.8L261.67,2.33A20.48,20.48,0,0,0,235.51,22v96.5a20.5,20.5,0,0,0,25.88,19.77L433.64,91.35a20.49,20.49,0,0,0,.28-39.46Z"/><path class="cls-81" d="M276.19,92.09V48.83l77.22,22.22ZM433.83,52.18,261.58,2.62A20.19,20.19,0,0,0,235.81,22v96.5A20.19,20.19,0,0,0,256,138.71a20.51,20.51,0,0,0,5.31-.71L433.56,91.05a20.19,20.19,0,0,0,.27-38.87Z"/><path class="cls-82" d="M275.88,92.49V48.43l78.66,22.63Zm157.87-40L261.5,2.91A19.89,19.89,0,0,0,236.12,22v96.5a19.88,19.88,0,0,0,25.11,19.18L433.48,90.76a19.88,19.88,0,0,0,.27-38.29Z"/><path class="cls-83" d="M275.57,92.89V48l80.1,23ZM433.66,52.77,261.41,3.21a19.56,19.56,0,0,0-25,18.81v96.5a19.6,19.6,0,0,0,24.72,18.89L433.39,90.46a19.57,19.57,0,0,0,.27-37.69Z"/><path class="cls-84" d="M275.27,93.29V47.61l81.54,23.46ZM433.58,53.06,261.33,3.5A19.28,19.28,0,0,0,236.73,22v96.5a19.27,19.27,0,0,0,24.34,18.59L433.31,90.17a19.27,19.27,0,0,0,.27-37.11Z"/><path class="cls-85" d="M275,93.69V47.21l83,23.87ZM433.49,53.36,261.24,3.8A18.95,18.95,0,0,0,237,22v96.5a19,19,0,0,0,19,19,19.33,19.33,0,0,0,5-.66L433.23,89.87a19,19,0,0,0,.26-36.51Z"/><path class="cls-86" d="M274.66,94.1V46.8l84.42,24.29ZM433.41,53.65,261.16,4.09A18.66,18.66,0,0,0,237.34,22v96.5a18.65,18.65,0,0,0,23.57,18L433.15,89.58a18.65,18.65,0,0,0,.26-35.93Z"/><path class="cls-87" d="M274.35,94.5V46.4l85.86,24.7Zm159-40.56L261.08,4.38A18.36,18.36,0,0,0,237.65,22v96.5a18.36,18.36,0,0,0,23.17,17.71L433.07,89.28a18.35,18.35,0,0,0,.25-35.34Z"/><path class="cls-88" d="M274.05,94.9V46l87.29,25.12ZM433.24,54.24,261,4.68A18,18,0,0,0,238,22v96.5a18,18,0,0,0,18.05,18,17.8,17.8,0,0,0,4.74-.63L433,89a18,18,0,0,0,.25-34.75Z"/><path class="cls-89" d="M273.74,95.3V45.58l88.74,25.53ZM433.15,54.53,260.91,5A17.75,17.75,0,0,0,238.26,22v96.5a17.72,17.72,0,0,0,22.4,17.11L432.91,88.69a17.74,17.74,0,0,0,.24-34.16Z"/><path class="cls-90" d="M273.43,95.7V45.18l90.18,25.94ZM433.07,54.83,260.82,5.27A17.42,17.42,0,0,0,238.57,22v96.5a17.44,17.44,0,0,0,22,16.82L432.83,88.4a17.43,17.43,0,0,0,.24-33.57Z"/><path class="cls-91" d="M273.13,96.1V44.77l91.62,26.36ZM433,55.12,260.74,5.56A17.14,17.14,0,0,0,238.87,22v96.5A17.13,17.13,0,0,0,256,135.65a16.83,16.83,0,0,0,4.5-.61L432.75,88.1a17.12,17.12,0,0,0,.23-33Z"/><path class="cls-92" d="M272.82,96.5V44.36l93.06,26.78ZM432.9,55.41,260.65,5.85A16.82,16.82,0,0,0,239.18,22v96.5A16.81,16.81,0,0,0,256,135.34a16.63,16.63,0,0,0,4.42-.59L432.67,87.81a16.82,16.82,0,0,0,.23-32.4Z"/><path class="cls-93" d="M272.52,96.9V44L367,71.15Zm160.3-41.19L260.57,6.15A16.51,16.51,0,0,0,239.48,22v96.5a16.49,16.49,0,0,0,20.86,15.93L432.59,87.51a16.51,16.51,0,0,0,.23-31.8Z"/><path class="cls-94" d="M272.21,97.3V43.55l95.94,27.6ZM432.73,56,260.48,6.44A16.21,16.21,0,0,0,239.79,22v96.5a16.21,16.21,0,0,0,20.47,15.64L432.51,87.22A16.21,16.21,0,0,0,432.73,56Z"/><path class="cls-95" d="M271.9,97.7V43.14l97.38,28ZM432.65,56.29,260.4,6.74A15.89,15.89,0,0,0,240.1,22v96.5a15.88,15.88,0,0,0,15.9,15.9,15.7,15.7,0,0,0,4.18-.56L432.43,86.92a15.91,15.91,0,0,0,.22-30.63Z"/><path class="cls-96" d="M271.6,98.1V42.74l98.82,28.43Zm161-41.51L260.31,7A15.6,15.6,0,0,0,240.4,22v96.5a15.59,15.59,0,0,0,19.7,15L432.35,86.63a15.6,15.6,0,0,0,.21-30Z"/><path class="cls-97" d="M271.29,98.5V42.33L371.55,71.18ZM432.48,56.88,260.23,7.32A15.29,15.29,0,0,0,240.71,22v96.5A15.28,15.28,0,0,0,260,133.27L432.27,86.33a15.29,15.29,0,0,0,.21-29.45Z"/><path class="cls-98" d="M271,98.9v-57L372.68,71.18Zm161.4-41.72L260.14,7.62A15,15,0,0,0,241,22v96.5A15,15,0,0,0,259.94,133L432.19,86a15,15,0,0,0,.2-28.86Z"/><path class="cls-99" d="M270.68,99.3V41.52L373.82,71.19ZM432.31,57.47,260.06,7.91A14.68,14.68,0,0,0,241.32,22v96.5a14.67,14.67,0,0,0,18.54,14.16L432.11,85.74a14.68,14.68,0,0,0,.2-28.27Z"/><path class="cls-100" d="M270.38,99.7V41.11L375,71.2ZM432.22,57.76,260,8.2A14.38,14.38,0,0,0,241.62,22v96.5a14.4,14.4,0,0,0,18.16,13.87L432,85.45a14.38,14.38,0,0,0,.19-27.69Z"/><path class="cls-101" d="M270.07,100.1V40.71l106,30.5Zm162.07-42L259.89,8.5a14.07,14.07,0,0,0-18,13.52v96.5a14.05,14.05,0,0,0,17.77,13.57L432,85.15a14.07,14.07,0,0,0,.19-27.09Z"/><path class="cls-102" d="M269.76,100.5V40.3L377.22,71.22ZM432.05,58.35,259.8,8.79A13.75,13.75,0,0,0,242.24,22v96.5A13.76,13.76,0,0,0,256,132.28a14,14,0,0,0,3.62-.48L431.87,84.86a13.77,13.77,0,0,0,.18-26.51Z"/><path class="cls-103" d="M269.46,100.9v-61L378.35,71.22ZM432,58.65,259.72,9.09A13.45,13.45,0,0,0,242.54,22v96.5a13.44,13.44,0,0,0,17,13L431.78,84.56A13.45,13.45,0,0,0,432,58.65Z"/><path class="cls-104" d="M269.15,101.3V39.49L379.49,71.23ZM431.88,58.94,259.64,9.38A13.15,13.15,0,0,0,242.85,22v96.5a13.16,13.16,0,0,0,16.61,12.69L431.7,84.27a13.15,13.15,0,0,0,.18-25.33Z"/><path class="cls-105" d="M268.85,101.7V39.08L380.62,71.24Zm163-42.47L259.55,9.67A12.86,12.86,0,0,0,243.15,22v96.5A12.83,12.83,0,0,0,256,131.36a12.62,12.62,0,0,0,3.38-.45L431.62,84a12.85,12.85,0,0,0,.18-24.74Z"/><path class="cls-106" d="M268.54,102.1V38.67L381.76,71.25ZM431.71,59.53,259.47,10a12.54,12.54,0,0,0-16,12v96.5A12.55,12.55,0,0,0,256,131.06a12.85,12.85,0,0,0,3.3-.44L431.54,83.68a12.54,12.54,0,0,0,.17-24.15Z"/><path class="cls-107" d="M268.23,102.5V38.27l114.66,33Zm163.4-42.68L259.38,10.26A12.23,12.23,0,0,0,243.77,22v96.5A12.22,12.22,0,0,0,256,130.75a12.05,12.05,0,0,0,3.21-.43L431.46,83.38a12.23,12.23,0,0,0,.17-23.56Z"/><path class="cls-108" d="M267.93,102.9v-65L384,71.26ZM431.55,60.12,259.3,10.56A11.92,11.92,0,0,0,244.07,22v96.5A11.92,11.92,0,0,0,259.13,130L431.38,83.09a11.93,11.93,0,0,0,.17-23Z"/><path class="cls-109" d="M267.62,103.3V37.46L385.16,71.27ZM431.46,60.41,259.21,10.85A11.61,11.61,0,0,0,244.38,22v96.5A11.63,11.63,0,0,0,256,130.14a11.32,11.32,0,0,0,3.05-.41L431.3,82.79a11.62,11.62,0,0,0,.16-22.38Z"/><path class="cls-110" d="M267.32,103.7V37.05l119,34.23Zm164.06-43L259.13,11.14A11.32,11.32,0,0,0,244.68,22v96.5A11.33,11.33,0,0,0,256,129.84a11.61,11.61,0,0,0,3-.4L431.22,82.5a11.32,11.32,0,0,0,.16-21.8Z"/><path class="cls-111" d="M267,104.11V36.64L387.43,71.29ZM431.29,61,259,11.44A11,11,0,0,0,245,22v96.5a11,11,0,0,0,13.9,10.62L431.14,82.2a11,11,0,0,0,.15-21.2Z"/><path class="cls-112" d="M256,326.11a11,11,0,0,0,11-11V118.52a11,11,0,1,0-22,0V315.1A11,11,0,0,0,256,326.11Z"/><path class="cls-112" d="M318.32,352.87a11,11,0,0,0-15.51,1.37,61,61,0,0,1-93.62,0,11,11,0,0,0-16.88,14.14,83,83,0,0,0,127.38,0A11,11,0,0,0,318.32,352.87Z"/><path class="cls-113" d="M256,326a10.86,10.86,0,0,0,10.86-10.86V118.52a10.86,10.86,0,0,0-21.72,0V315.1A10.86,10.86,0,0,0,256,326Z"/><path class="cls-113" d="M318.22,353a10.86,10.86,0,0,0-15.3,1.35,61.16,61.16,0,0,1-93.84,0,10.86,10.86,0,0,0-16.65,13.94,82.86,82.86,0,0,0,127.14,0A10.85,10.85,0,0,0,318.22,353Z"/><path class="cls-114" d="M256,325.81a10.72,10.72,0,0,0,10.71-10.71V118.52a10.71,10.71,0,1,0-21.41,0V315.1A10.71,10.71,0,0,0,256,325.81Z"/><path class="cls-114" d="M318.12,353.1A10.71,10.71,0,0,0,303,354.44a61.33,61.33,0,0,1-94.08,0,10.7,10.7,0,1,0-16.41,13.74,82.72,82.72,0,0,0,126.9,0A10.7,10.7,0,0,0,318.12,353.1Z"/><path class="cls-115" d="M256,325.65a10.55,10.55,0,0,0,10.55-10.55V118.52a10.55,10.55,0,0,0-21.1,0V315.1A10.55,10.55,0,0,0,256,325.65Z"/><path class="cls-115" d="M318,353.22a10.55,10.55,0,0,0-14.86,1.32,61.48,61.48,0,0,1-94.32,0,10.55,10.55,0,1,0-16.18,13.55,82.59,82.59,0,0,0,126.68,0A10.56,10.56,0,0,0,318,353.22Z"/><path class="cls-116" d="M256,325.5a10.4,10.4,0,0,0,10.4-10.4V118.52a10.4,10.4,0,1,0-20.8,0V315.1A10.4,10.4,0,0,0,256,325.5Z"/><path class="cls-116" d="M317.92,353.34a10.39,10.39,0,0,0-14.64,1.29,61.62,61.62,0,0,1-94.56,0A10.4,10.4,0,0,0,192.78,368a82.42,82.42,0,0,0,126.44,0A10.39,10.39,0,0,0,317.92,353.34Z"/><path class="cls-117" d="M256,325.35a10.25,10.25,0,0,0,10.25-10.25V118.52a10.25,10.25,0,1,0-20.5,0V315.1A10.25,10.25,0,0,0,256,325.35Z"/><path class="cls-117" d="M317.83,353.46a10.24,10.24,0,0,0-14.44,1.27,61.77,61.77,0,0,1-94.78,0,10.25,10.25,0,0,0-15.71,13.16,82.27,82.27,0,0,0,126.2,0A10.25,10.25,0,0,0,317.83,353.46Z"/><path class="cls-118" d="M256,325.19a10.09,10.09,0,0,0,10.09-10.09V118.52a10.09,10.09,0,1,0-20.18,0V315.1A10.09,10.09,0,0,0,256,325.19Z"/><path class="cls-118" d="M317.73,353.57a10.1,10.1,0,0,0-14.22,1.26,61.92,61.92,0,0,1-95,0,10.09,10.09,0,0,0-15.48,13,82.12,82.12,0,0,0,126,0A10.11,10.11,0,0,0,317.73,353.57Z"/><path class="cls-119" d="M256,325a9.94,9.94,0,0,0,9.94-9.94V118.52a9.94,9.94,0,0,0-19.88,0V315.1A9.94,9.94,0,0,0,256,325Z"/><path class="cls-119" d="M317.63,353.69a9.93,9.93,0,0,0-14,1.24,62.09,62.09,0,0,1-95.26,0,9.94,9.94,0,1,0-15.24,12.76,82,82,0,0,0,125.74,0A9.94,9.94,0,0,0,317.63,353.69Z"/><path class="cls-120" d="M256,324.89a9.79,9.79,0,0,0,9.79-9.79V118.52a9.79,9.79,0,0,0-19.58,0V315.1A9.79,9.79,0,0,0,256,324.89Z"/><path class="cls-120" d="M317.53,353.81A9.78,9.78,0,0,0,303.74,355a62.23,62.23,0,0,1-95.48,0,9.79,9.79,0,0,0-15,12.56,81.79,81.79,0,0,0,125.5,0A9.77,9.77,0,0,0,317.53,353.81Z"/><path class="cls-121" d="M256,324.74a9.64,9.64,0,0,0,9.63-9.64V118.52a9.63,9.63,0,1,0-19.26,0V315.1A9.64,9.64,0,0,0,256,324.74Z"/><path class="cls-121" d="M317.43,353.92a9.64,9.64,0,0,0-13.57,1.21,62.4,62.4,0,0,1-95.72,0,9.63,9.63,0,1,0-14.77,12.37,81.66,81.66,0,0,0,125.26,0A9.64,9.64,0,0,0,317.43,353.92Z"/><path class="cls-122" d="M256,324.58a9.47,9.47,0,0,0,9.48-9.48V118.52a9.48,9.48,0,0,0-19,0V315.1A9.47,9.47,0,0,0,256,324.58Z"/><path class="cls-122" d="M317.33,354A9.48,9.48,0,0,0,304,355.22a62.53,62.53,0,0,1-96,0,9.48,9.48,0,0,0-14.54,12.18,81.51,81.51,0,0,0,125,0A9.48,9.48,0,0,0,317.33,354Z"/><path class="cls-123" d="M256,324.43a9.33,9.33,0,0,0,9.33-9.33V118.52a9.33,9.33,0,1,0-18.66,0V315.1A9.33,9.33,0,0,0,256,324.43Z"/><path class="cls-123" d="M317.24,354.16a9.32,9.32,0,0,0-13.14,1.16,62.7,62.7,0,0,1-96.2,0,9.33,9.33,0,0,0-14.3,12,81.35,81.35,0,0,0,124.8,0A9.32,9.32,0,0,0,317.24,354.16Z"/><path class="cls-124" d="M256,324.28a9.18,9.18,0,0,0,9.18-9.18V118.52a9.18,9.18,0,0,0-18.36,0V315.1A9.18,9.18,0,0,0,256,324.28Z"/><path class="cls-124" d="M317.14,354.28a9.18,9.18,0,0,0-12.93,1.14,62.85,62.85,0,0,1-96.42,0,9.18,9.18,0,0,0-14.07,11.78,81.2,81.2,0,0,0,124.56,0A9.18,9.18,0,0,0,317.14,354.28Z"/><path class="cls-125" d="M256,324.12a9,9,0,0,0,9-9V118.52a9,9,0,1,0-18,0V315.1A9,9,0,0,0,256,324.12Z"/><path class="cls-125" d="M317,354.39a9,9,0,0,0-12.71,1.13,63,63,0,0,1-96.66,0,9,9,0,1,0-13.83,11.58,81,81,0,0,0,124.32,0A9,9,0,0,0,317,354.39Z"/><path class="cls-126" d="M256,324a8.87,8.87,0,0,0,8.87-8.87V118.52a8.87,8.87,0,0,0-17.74,0V315.1A8.87,8.87,0,0,0,256,324Z"/><path class="cls-126" d="M316.94,354.51a8.86,8.86,0,0,0-12.49,1.11,63.16,63.16,0,0,1-96.9,0A8.87,8.87,0,1,0,194,367a80.88,80.88,0,0,0,124.1,0A8.87,8.87,0,0,0,316.94,354.51Z"/><path class="cls-127" d="M256,323.82a8.72,8.72,0,0,0,8.72-8.72V118.52a8.72,8.72,0,0,0-17.44,0V315.1A8.72,8.72,0,0,0,256,323.82Z"/><path class="cls-127" d="M316.84,354.63a8.71,8.71,0,0,0-12.27,1.08,63.31,63.31,0,0,1-97.14,0,8.72,8.72,0,0,0-13.36,11.2,80.73,80.73,0,0,0,123.86,0A8.72,8.72,0,0,0,316.84,354.63Z"/><path class="cls-128" d="M256,323.67a8.57,8.57,0,0,0,8.56-8.57V118.52a8.56,8.56,0,1,0-17.12,0V315.1A8.57,8.57,0,0,0,256,323.67Z"/><path class="cls-128" d="M316.75,354.75a8.57,8.57,0,0,0-12.07,1.06,63.46,63.46,0,0,1-97.36,0,8.56,8.56,0,0,0-13.13,11,80.58,80.58,0,0,0,123.62,0A8.56,8.56,0,0,0,316.75,354.75Z"/><path class="cls-129" d="M256,323.51a8.4,8.4,0,0,0,8.41-8.41V118.52a8.41,8.41,0,0,0-16.82,0V315.1A8.4,8.4,0,0,0,256,323.51Z"/><path class="cls-129" d="M316.65,354.86a8.42,8.42,0,0,0-11.85,1.05,63.61,63.61,0,0,1-97.6,0,8.41,8.41,0,0,0-12.9,10.8,80.44,80.44,0,0,0,123.4,0A8.42,8.42,0,0,0,316.65,354.86Z"/><path class="cls-130" d="M256,323.36a8.26,8.26,0,0,0,8.26-8.26V118.52a8.26,8.26,0,1,0-16.52,0V315.1A8.26,8.26,0,0,0,256,323.36Z"/><path class="cls-130" d="M316.55,355a8.26,8.26,0,0,0-11.63,1,63.77,63.77,0,0,1-97.84,0,8.26,8.26,0,0,0-12.66,10.6,80.27,80.27,0,0,0,123.16,0A8.25,8.25,0,0,0,316.55,355Z"/><path class="cls-131" d="M256,323.21a8.11,8.11,0,0,0,8.11-8.11V118.52a8.11,8.11,0,0,0-16.22,0V315.1A8.11,8.11,0,0,0,256,323.21Z"/><path class="cls-131" d="M316.45,355.1a8.1,8.1,0,0,0-11.42,1,63.92,63.92,0,0,1-98.06,0,8.1,8.1,0,0,0-12.43,10.4,80.12,80.12,0,0,0,122.92,0A8.1,8.1,0,0,0,316.45,355.1Z"/><path class="cls-132" d="M256,323.05A8,8,0,0,0,264,315.1V118.52a8,8,0,1,0-15.9,0V315.1A8,8,0,0,0,256,323.05Z"/><path class="cls-132" d="M316.35,355.21a8,8,0,0,0-11.2,1,64.07,64.07,0,0,1-98.3,0,8,8,0,1,0-12.19,10.21,80,80,0,0,0,122.68,0A8,8,0,0,0,316.35,355.21Z"/><path class="cls-133" d="M256,322.9a7.8,7.8,0,0,0,7.8-7.8V118.52a7.8,7.8,0,0,0-15.6,0V315.1A7.8,7.8,0,0,0,256,322.9Z"/><path class="cls-133" d="M316.25,355.33a7.79,7.79,0,0,0-11,1,64.22,64.22,0,0,1-98.54,0,7.8,7.8,0,0,0-12,10,79.83,79.83,0,0,0,122.46,0A7.8,7.8,0,0,0,316.25,355.33Z"/><path class="cls-134" d="M256,322.75a7.65,7.65,0,0,0,7.65-7.65V118.52a7.65,7.65,0,1,0-15.3,0V315.1A7.65,7.65,0,0,0,256,322.75Z"/><path class="cls-134" d="M316.16,355.45a7.64,7.64,0,0,0-10.77.95,64.39,64.39,0,0,1-98.78,0,7.65,7.65,0,0,0-11.72,9.82,79.68,79.68,0,0,0,122.22,0A7.65,7.65,0,0,0,316.16,355.45Z"/><path class="cls-135" d="M256,322.59a7.49,7.49,0,0,0,7.49-7.49V118.52a7.49,7.49,0,0,0-15,0V315.1A7.49,7.49,0,0,0,256,322.59Z"/><path class="cls-135" d="M316.06,355.57a7.49,7.49,0,0,0-10.56.93,64.53,64.53,0,0,1-99,0A7.49,7.49,0,0,0,195,366.12a79.51,79.51,0,0,0,122,0A7.49,7.49,0,0,0,316.06,355.57Z"/><path class="cls-136" d="M256,322.44a7.33,7.33,0,0,0,7.34-7.34V118.52a7.34,7.34,0,1,0-14.68,0V315.1A7.33,7.33,0,0,0,256,322.44Z"/><path class="cls-136" d="M316,355.68a7.33,7.33,0,0,0-10.34.92,64.68,64.68,0,0,1-99.24,0A7.34,7.34,0,1,0,195.12,366a79.36,79.36,0,0,0,121.76,0A7.34,7.34,0,0,0,316,355.68Z"/><path class="cls-137" d="M256,322.29a7.19,7.19,0,0,0,7.19-7.19V118.52a7.19,7.19,0,0,0-14.38,0V315.1A7.19,7.19,0,0,0,256,322.29Z"/><path class="cls-137" d="M315.86,355.8a7.18,7.18,0,0,0-10.12.9,64.85,64.85,0,0,1-99.48,0,7.18,7.18,0,0,0-11,9.22,79.2,79.2,0,0,0,121.52,0A7.17,7.17,0,0,0,315.86,355.8Z"/><path class="cls-138" d="M256,322.14a7,7,0,0,0,7-7V118.52a7,7,0,1,0-14.06,0V315.1A7,7,0,0,0,256,322.14Z"/><path class="cls-138" d="M315.76,355.92a7,7,0,0,0-9.9.88,65,65,0,0,1-99.72,0,7,7,0,1,0-10.78,9,79.06,79.06,0,0,0,121.28,0A7,7,0,0,0,315.76,355.92Z"/><path class="cls-139" d="M256,322a6.88,6.88,0,0,0,6.88-6.88V118.52a6.88,6.88,0,1,0-13.76,0V315.1A6.88,6.88,0,0,0,256,322Z"/><path class="cls-139" d="M315.66,356a6.87,6.87,0,0,0-9.69.85,65.13,65.13,0,0,1-99.94,0,6.88,6.88,0,0,0-10.55,8.84,78.9,78.9,0,0,0,121,0A6.87,6.87,0,0,0,315.66,356Z"/><path class="cls-140" d="M256,321.83a6.73,6.73,0,0,0,6.73-6.73V118.52a6.73,6.73,0,0,0-13.46,0V315.1A6.73,6.73,0,0,0,256,321.83Z"/><path class="cls-140" d="M315.57,356.15a6.73,6.73,0,0,0-9.48.84,65.29,65.29,0,0,1-100.18,0,6.73,6.73,0,0,0-10.32,8.64,78.75,78.75,0,0,0,120.82,0A6.74,6.74,0,0,0,315.57,356.15Z"/><path class="cls-141" d="M256,321.68a6.59,6.59,0,0,0,6.58-6.58V118.52a6.58,6.58,0,1,0-13.16,0V315.1A6.59,6.59,0,0,0,256,321.68Z"/><path class="cls-141" d="M315.47,356.27a6.57,6.57,0,0,0-9.26.82,65.46,65.46,0,0,1-100.42,0,6.57,6.57,0,1,0-10.08,8.44,78.6,78.6,0,0,0,120.58,0A6.58,6.58,0,0,0,315.47,356.27Z"/><path class="cls-142" d="M256,321.52a6.41,6.41,0,0,0,6.42-6.42V118.52a6.42,6.42,0,0,0-12.84,0V315.1A6.41,6.41,0,0,0,256,321.52Z"/><path class="cls-142" d="M315.37,356.39a6.41,6.41,0,0,0-9.05.8,65.59,65.59,0,0,1-100.64,0,6.42,6.42,0,0,0-9.85,8.24,78.43,78.43,0,0,0,120.34,0A6.41,6.41,0,0,0,315.37,356.39Z"/><path class="cls-143" d="M256,321.37a6.27,6.27,0,0,0,6.27-6.27V118.52a6.27,6.27,0,1,0-12.54,0V315.1A6.27,6.27,0,0,0,256,321.37Z"/><path class="cls-143" d="M315.27,356.5a6.27,6.27,0,0,0-8.83.79,65.76,65.76,0,0,1-100.88,0,6.26,6.26,0,1,0-9.61,8,78.27,78.27,0,0,0,120.1,0A6.26,6.26,0,0,0,315.27,356.5Z"/><path class="cls-144" d="M256,321.22a6.12,6.12,0,0,0,6.12-6.12V118.52a6.12,6.12,0,0,0-12.24,0V315.1A6.12,6.12,0,0,0,256,321.22Z"/><path class="cls-144" d="M315.17,356.62a6.1,6.1,0,0,0-8.61.77,65.92,65.92,0,0,1-101.12,0,6.12,6.12,0,1,0-9.38,7.85,78.14,78.14,0,0,0,119.88,0A6.11,6.11,0,0,0,315.17,356.62Z"/><path class="cls-145" d="M256,321.07a6,6,0,0,0,6-6V118.52a6,6,0,1,0-11.92,0V315.1A6,6,0,0,0,256,321.07Z"/><path class="cls-145" d="M315.07,356.74a5.94,5.94,0,0,0-8.39.74,66.07,66.07,0,0,1-101.36,0,6,6,0,0,0-9.14,7.66,78,78,0,0,0,119.64,0A6,6,0,0,0,315.07,356.74Z"/><path class="cls-146" d="M256,320.91a5.81,5.81,0,0,0,5.81-5.81V118.52a5.81,5.81,0,1,0-11.62,0V315.1A5.81,5.81,0,0,0,256,320.91Z"/><path class="cls-146" d="M315,356.86a5.81,5.81,0,0,0-8.19.72,66.2,66.2,0,0,1-101.58,0A5.81,5.81,0,0,0,196.3,365a77.82,77.82,0,0,0,119.4,0A5.8,5.8,0,0,0,315,356.86Z"/><path class="cls-147" d="M256,320.76a5.65,5.65,0,0,0,5.66-5.66V118.52a5.66,5.66,0,0,0-11.32,0V315.1A5.65,5.65,0,0,0,256,320.76Z"/><path class="cls-147" d="M314.88,357a5.66,5.66,0,0,0-8,.71,66.37,66.37,0,0,1-101.82,0,5.66,5.66,0,0,0-8.68,7.26,77.68,77.68,0,0,0,119.18,0A5.66,5.66,0,0,0,314.88,357Z"/><path class="cls-148" d="M256,320.61a5.51,5.51,0,0,0,5.51-5.51V118.52a5.51,5.51,0,1,0-11,0V315.1A5.51,5.51,0,0,0,256,320.61Z"/><path class="cls-148" d="M314.78,357.09a5.49,5.49,0,0,0-7.75.69,66.54,66.54,0,0,1-102.06,0,5.5,5.5,0,1,0-8.44,7.06,77.53,77.53,0,0,0,118.94,0A5.5,5.5,0,0,0,314.78,357.09Z"/><path class="cls-149" d="M472.15,481.53,263.06,306.65a11,11,0,0,0-14.12,0L39.85,481.53A11,11,0,0,0,54,498.42l202-169,202,169a11,11,0,0,0,14.13-16.89Z"/><path class="cls-150" d="M472.05,481.65,263,306.77a10.87,10.87,0,0,0-13.94,0L40,481.65a10.86,10.86,0,0,0,13.93,16.66L256,329.26,458.12,498.31a10.86,10.86,0,0,0,13.93-16.66Z"/><path class="cls-151" d="M472,481.77,262.87,306.89a10.72,10.72,0,0,0-13.74,0L40.05,481.77a10.71,10.71,0,1,0,13.74,16.42L256,329.06,458.21,498.19A10.71,10.71,0,0,0,472,481.77Z"/><path class="cls-152" d="M471.85,481.88,262.77,307a10.55,10.55,0,0,0-13.54,0L40.15,481.88a10.55,10.55,0,1,0,13.54,16.19L256,328.86,458.31,498.07a10.55,10.55,0,1,0,13.54-16.19Z"/><path class="cls-153" d="M471.75,482,262.67,307.12a10.39,10.39,0,0,0-13.34,0L40.25,482a10.4,10.4,0,0,0,13.34,16L256,328.66,458.41,498a10.4,10.4,0,1,0,13.34-16Z"/><path class="cls-154" d="M471.66,482.12,262.57,307.24a10.24,10.24,0,0,0-13.14,0L40.34,482.12a10.25,10.25,0,0,0,13.15,15.72L256,328.46,458.51,497.84a10.25,10.25,0,0,0,13.15-15.72Z"/><path class="cls-155" d="M471.56,482.24,262.48,307.36a10.09,10.09,0,0,0-13,0L40.44,482.24a10.09,10.09,0,0,0,13,15.48L256,328.26,458.61,497.72a10.09,10.09,0,0,0,12.95-15.48Z"/><path class="cls-156" d="M471.46,482.35,262.38,307.48a9.94,9.94,0,0,0-12.76,0L40.54,482.35A9.94,9.94,0,1,0,53.3,497.6L256,328.06,458.7,497.6a9.94,9.94,0,1,0,12.76-15.25Z"/><path class="cls-157" d="M471.36,482.47,262.28,307.59a9.79,9.79,0,0,0-12.56,0L40.64,482.47a9.79,9.79,0,0,0,12.56,15L256,327.86,458.8,497.49a9.79,9.79,0,1,0,12.56-15Z"/><path class="cls-158" d="M471.26,482.59,262.18,307.71a9.64,9.64,0,0,0-12.36,0L40.74,482.59A9.63,9.63,0,0,0,53.1,497.37L256,327.66,458.9,497.37a9.63,9.63,0,0,0,12.36-14.78Z"/><path class="cls-159" d="M471.17,482.71,262.08,307.83a9.46,9.46,0,0,0-12.16,0L40.83,482.71A9.48,9.48,0,0,0,53,497.25L256,327.46,459,497.25a9.48,9.48,0,0,0,12.17-14.54Z"/><path class="cls-160" d="M471.07,482.82,262,308a9.34,9.34,0,0,0-12,0L40.93,482.82a9.33,9.33,0,1,0,12,14.31L256,327.26,459.1,497.13a9.22,9.22,0,0,0,6,2.18,9.33,9.33,0,0,0,6-16.49Z"/><path class="cls-161" d="M471,482.94,261.89,308.06a9.18,9.18,0,0,0-11.78,0L41,482.94A9.18,9.18,0,1,0,52.81,497L256,327.06,459.19,497A9.18,9.18,0,0,0,471,482.94Z"/><path class="cls-162" d="M470.87,483.06,261.79,308.18a9,9,0,0,0-11.58,0L41.13,483.06A9,9,0,0,0,52.71,496.9L256,326.86l203.29,170a9,9,0,0,0,11.58-13.84Z"/><path class="cls-163" d="M470.77,483.18,261.69,308.3a8.86,8.86,0,0,0-11.38,0L41.23,483.18a8.87,8.87,0,0,0,11.38,13.6L256,326.66,459.39,496.78a8.87,8.87,0,0,0,11.38-13.6Z"/><path class="cls-164" d="M470.67,483.29,261.59,308.42a8.7,8.7,0,0,0-11.18,0L41.33,483.29a8.71,8.71,0,1,0,11.18,13.37L256,326.47,459.49,496.66a8.71,8.71,0,1,0,11.18-13.37Z"/><path class="cls-165" d="M470.58,483.41,261.49,308.53a8.55,8.55,0,0,0-11,0L41.42,483.41a8.57,8.57,0,0,0,11,13.14L256,326.27,459.59,496.55a8.57,8.57,0,0,0,11-13.14Z"/><path class="cls-166" d="M470.48,483.53,261.4,308.65a8.43,8.43,0,0,0-10.8,0L41.52,483.53a8.41,8.41,0,0,0,10.79,12.9L256,326.07,459.69,496.43a8.41,8.41,0,0,0,10.79-12.9Z"/><path class="cls-167" d="M470.38,483.64,261.3,308.77a8.25,8.25,0,0,0-10.6,0L41.62,483.64a8.26,8.26,0,1,0,10.6,12.67L256,325.87,459.78,496.31a8.26,8.26,0,1,0,10.6-12.67Z"/><path class="cls-168" d="M470.28,483.76,261.2,308.89a8.1,8.1,0,0,0-10.4,0L41.72,483.76a8.1,8.1,0,1,0,10.4,12.43L256,325.67,459.88,496.19a8,8,0,0,0,5.2,1.89,8.1,8.1,0,0,0,5.2-14.32Z"/><path class="cls-169" d="M470.18,483.88,261.1,309a8,8,0,0,0-10.2,0L41.82,483.88A8,8,0,1,0,52,496.08L256,325.47,460,496.08a8,8,0,1,0,10.2-12.2Z"/><path class="cls-170" d="M470.09,484,261,309.12a7.79,7.79,0,0,0-10,0L41.91,484a7.8,7.8,0,0,0,10,12L256,325.27,460.08,496a7.8,7.8,0,0,0,10-12Z"/><path class="cls-171" d="M470,484.11,260.91,309.24a7.65,7.65,0,0,0-9.82,0L42,484.11a7.65,7.65,0,1,0,9.81,11.73L256,325.07,460.18,495.84A7.65,7.65,0,1,0,470,484.11Z"/><path class="cls-172" d="M469.89,484.23,260.81,309.35a7.52,7.52,0,0,0-9.62,0L42.11,484.23a7.49,7.49,0,1,0,9.62,11.49L256,324.87,460.27,495.72a7.49,7.49,0,1,0,9.62-11.49Z"/><path class="cls-173" d="M469.79,484.35,260.71,309.47a7.34,7.34,0,0,0-9.42,0L42.21,484.35a7.34,7.34,0,0,0,9.42,11.26L256,324.67,460.37,495.61a7.34,7.34,0,1,0,9.42-11.26Z"/><path class="cls-174" d="M469.69,484.47,260.61,309.59a7.19,7.19,0,0,0-9.22,0L42.31,484.47a7.18,7.18,0,1,0,9.22,11L256,324.47l204.47,171a7.18,7.18,0,1,0,9.22-11Z"/><path class="cls-175" d="M469.6,484.58,260.51,309.71a7,7,0,0,0-9,0L42.4,484.58a7,7,0,0,0,9,10.79L256,324.27l204.57,171.1a7,7,0,0,0,9-10.79Z"/><path class="cls-176" d="M469.5,484.7,260.42,309.82a6.91,6.91,0,0,0-8.84,0L42.5,484.7a6.88,6.88,0,0,0,8.83,10.56L256,324.07,460.67,495.26a6.88,6.88,0,0,0,8.83-10.56Z"/><path class="cls-177" d="M469.4,484.82,260.32,309.94a6.74,6.74,0,0,0-8.64,0L42.6,484.82a6.73,6.73,0,1,0,8.64,10.32L256,323.87,460.76,495.14a6.73,6.73,0,1,0,8.64-10.32Z"/><path class="cls-178" d="M469.3,484.94,260.22,310.06a6.58,6.58,0,0,0-8.44,0L42.7,484.94A6.57,6.57,0,1,0,51.14,495L256,323.67,460.86,495a6.57,6.57,0,1,0,8.44-10.08Z"/><path class="cls-179" d="M469.2,485.05,260.12,310.18a6.41,6.41,0,0,0-8.24,0L42.8,485.05A6.42,6.42,0,1,0,51,494.9L256,323.47,461,494.9a6.42,6.42,0,1,0,8.24-9.85Z"/><path class="cls-180" d="M469.1,485.17,260,310.29a6.28,6.28,0,0,0-8,0L42.9,485.17a6.27,6.27,0,1,0,8,9.62L256,323.28,461.06,494.79a6.27,6.27,0,1,0,8-9.62Z"/><path class="cls-181" d="M469,485.29,259.92,310.41a6.1,6.1,0,0,0-7.84,0L43,485.29a6.12,6.12,0,0,0,7.85,9.38L256,323.08,461.16,494.67a6.12,6.12,0,0,0,7.85-9.38Z"/><path class="cls-182" d="M468.91,485.41,259.83,310.53a6,6,0,0,0-7.66,0L43.09,485.41a6,6,0,0,0,7.65,9.14L256,322.88,461.26,494.55a6,6,0,0,0,7.65-9.14Z"/><path class="cls-183" d="M468.81,485.52,259.73,310.65a5.8,5.8,0,0,0-7.46,0L43.19,485.52a5.81,5.81,0,1,0,7.46,8.91L256,322.68,461.35,494.43a5.81,5.81,0,1,0,7.46-8.91Z"/><path class="cls-184" d="M468.71,485.64,259.63,310.76a5.68,5.68,0,0,0-7.26,0L43.29,485.64a5.66,5.66,0,1,0,7.26,8.68L256,322.48,461.45,494.32a5.66,5.66,0,0,0,7.26-8.68Z"/><path class="cls-185" d="M468.61,485.76,259.53,310.88a5.5,5.5,0,0,0-7.06,0L43.39,485.76a5.5,5.5,0,0,0,7.06,8.44L256,322.28,461.55,494.2a5.5,5.5,0,0,0,7.06-8.44Z"/><path class="cls-186" d="M267,104.11V36.64L387.43,71.29ZM431.29,61,259,11.44A11,11,0,0,0,245,22v96.5a11,11,0,0,0,13.9,10.62L431.14,82.2a11,11,0,0,0,.15-21.2Z"/><path class="cls-187" d="M266.86,104.31V36.44L388,71.29ZM431.25,61.14,259,11.58A10.86,10.86,0,0,0,245.14,22v96.5A10.88,10.88,0,0,0,256,129.38a11.11,11.11,0,0,0,2.85-.38L431.1,82.05a10.86,10.86,0,0,0,.15-20.91Z"/><path class="cls-188" d="M266.71,104.51V36.24L388.56,71.3Zm164.5-43.22L259,11.73A10.7,10.7,0,0,0,245.3,22v96.5a10.72,10.72,0,0,0,13.51,10.33L431.06,81.91a10.71,10.71,0,0,0,.15-20.62Z"/><path class="cls-189" d="M266.55,104.71V36L389.13,71.3ZM431.16,61.44,258.92,11.88A10.55,10.55,0,0,0,245.45,22v96.5a10.55,10.55,0,0,0,13.32,10.18L431,81.76a10.55,10.55,0,0,0,.14-20.32Z"/><path class="cls-190" d="M266.4,104.91V35.83L389.69,71.3ZM431.12,61.58,258.87,12A10.39,10.39,0,0,0,245.6,22v96.5a10.41,10.41,0,0,0,10.4,10.4,10.2,10.2,0,0,0,2.73-.37L431,81.61a10.4,10.4,0,0,0,.14-20Z"/><path class="cls-191" d="M266.25,105.11V35.63l124,35.68ZM431.08,61.73,258.83,12.17A10.25,10.25,0,0,0,245.75,22v96.5A10.26,10.26,0,0,0,256,128.77a9.86,9.86,0,0,0,2.69-.37L430.94,81.46a10.25,10.25,0,0,0,.14-19.73Z"/><path class="cls-192" d="M266.09,105.31V35.42L390.83,71.31ZM431,61.88,258.79,12.32A10.09,10.09,0,0,0,245.91,22v96.5A10.08,10.08,0,0,0,256,128.61a10.37,10.37,0,0,0,2.65-.35L430.9,81.32A10.09,10.09,0,0,0,431,61.88Z"/><path class="cls-193" d="M265.94,105.51V35.22L391.4,71.32ZM431,62,258.75,12.47A9.94,9.94,0,0,0,246.06,22v96.5a9.94,9.94,0,0,0,9.94,9.94,10.12,10.12,0,0,0,2.61-.35L430.86,81.17A9.94,9.94,0,0,0,431,62Z"/><path class="cls-194" d="M265.79,105.71V35L392,71.32ZM431,62.17,258.7,12.61A9.79,9.79,0,0,0,246.21,22v96.5A9.77,9.77,0,0,0,258.57,128L430.82,81A9.79,9.79,0,0,0,431,62.17Z"/><path class="cls-195" d="M265.63,105.91V34.81l126.9,36.51ZM430.91,62.32,258.66,12.76A9.62,9.62,0,0,0,246.37,22v96.5a9.63,9.63,0,0,0,9.63,9.63,9.46,9.46,0,0,0,2.53-.34L430.78,80.87a9.63,9.63,0,0,0,.13-18.55Z"/><path class="cls-196" d="M265.48,106.11V34.61L393.1,71.33ZM430.87,62.47,258.62,12.91A9.47,9.47,0,0,0,246.52,22v96.5A9.48,9.48,0,0,0,256,128a9.63,9.63,0,0,0,2.49-.33L430.74,80.73a9.48,9.48,0,0,0,.13-18.26Z"/><path class="cls-197" d="M265.33,106.31V34.41L393.66,71.33Zm165.5-43.7L258.58,13.05a9.34,9.34,0,0,0-11.91,9v96.5a9.32,9.32,0,0,0,11.78,9L430.7,80.58a9.33,9.33,0,0,0,.13-18Z"/><path class="cls-198" d="M265.18,106.51V34.2L394.23,71.34Zm165.6-43.75L258.54,13.2A9.18,9.18,0,0,0,246.82,22v96.5a9.17,9.17,0,0,0,9.18,9.17,9,9,0,0,0,2.41-.32L430.66,80.43a9.18,9.18,0,0,0,.12-17.67Z"/><path class="cls-199" d="M265,106.71V34L394.8,71.34Zm165.72-43.8L258.49,13.35A9,9,0,0,0,247,22v96.5a9,9,0,0,0,9,9,8.73,8.73,0,0,0,2.37-.32L430.62,80.28a9,9,0,0,0,.12-17.37Z"/><path class="cls-200" d="M264.87,106.91V33.8L395.36,71.34ZM430.7,63.05,258.45,13.5A8.86,8.86,0,0,0,247.13,22v96.5a8.87,8.87,0,0,0,8.87,8.87,9.27,9.27,0,0,0,2.33-.31L430.58,80.14a8.87,8.87,0,0,0,.12-17.09Z"/><path class="cls-201" d="M264.72,107.11V33.6L395.93,71.35ZM430.66,63.2,258.41,13.64A8.72,8.72,0,0,0,247.28,22v96.5a8.72,8.72,0,0,0,8.72,8.72,8.9,8.9,0,0,0,2.29-.31L430.54,80a8.72,8.72,0,0,0,.12-16.79Z"/><path class="cls-202" d="M264.56,107.31V33.39l131.94,38Zm166.06-44L258.37,13.79A8.56,8.56,0,0,0,247.44,22v96.5a8.56,8.56,0,0,0,8.56,8.56,8.64,8.64,0,0,0,2.25-.3L430.5,79.84a8.56,8.56,0,0,0,.12-16.49Z"/><path class="cls-203" d="M264.41,107.51V33.19L397.07,71.36Zm166.16-44L258.32,13.94A8.4,8.4,0,0,0,247.59,22v96.5a8.4,8.4,0,0,0,10.62,8.11L430.46,79.69a8.4,8.4,0,0,0,.11-16.19Z"/><path class="cls-204" d="M264.26,107.71V33L397.63,71.36ZM430.53,63.64,258.28,14.08A8.26,8.26,0,0,0,247.74,22v96.5a8.27,8.27,0,0,0,8.26,8.26,8.4,8.4,0,0,0,2.17-.29L430.42,79.55a8.26,8.26,0,0,0,.11-15.91Z"/><path class="cls-205" d="M264.11,107.91V32.78L398.2,71.36ZM430.49,63.79,258.24,14.23A8.1,8.1,0,0,0,247.89,22v96.5a8.13,8.13,0,0,0,10.24,7.82L430.38,79.4a8.11,8.11,0,0,0,.11-15.61Z"/><path class="cls-206" d="M264,108.11V32.58L398.77,71.37Zm166.5-44.17L258.2,14.38A8,8,0,0,0,248.05,22v96.5a7.94,7.94,0,0,0,7.95,8,7.85,7.85,0,0,0,2.09-.28L430.34,79.25a8,8,0,0,0,.11-15.31Z"/><path class="cls-207" d="M263.8,108.31V32.38l135.53,39ZM430.4,64.08,258.16,14.52a7.81,7.81,0,0,0-10,7.5v96.5a7.79,7.79,0,0,0,7.8,7.8,7.51,7.51,0,0,0,2.05-.28L430.3,79.1a7.8,7.8,0,0,0,.1-15Z"/><path class="cls-208" d="M263.65,108.51V32.17L399.9,71.38ZM430.36,64.23,258.11,14.67A7.65,7.65,0,0,0,248.35,22v96.5A7.65,7.65,0,0,0,258,125.9L430.26,79a7.65,7.65,0,0,0,.1-14.73Z"/><path class="cls-209" d="M263.49,108.71V32l137,39.41ZM430.32,64.38,258.07,14.82a7.48,7.48,0,0,0-9.56,7.2v96.5A7.49,7.49,0,0,0,256,126a7.78,7.78,0,0,0,2-.26L430.22,78.81a7.49,7.49,0,0,0,.1-14.43Z"/><path class="cls-210" d="M263.34,108.91V31.77L401,71.38ZM430.28,64.52,258,15A7.34,7.34,0,0,0,248.66,22v96.5a7.33,7.33,0,0,0,9.27,7.08L430.18,78.66a7.34,7.34,0,0,0,.1-14.14Z"/><path class="cls-211" d="M263.19,109.11V31.56L401.6,71.39Zm167-44.44L258,15.11A7.2,7.2,0,0,0,248.81,22v96.5a7.17,7.17,0,0,0,9.08,6.93L430.14,78.51a7.18,7.18,0,0,0,.09-13.84Z"/><path class="cls-212" d="M263,109.31V31.36l139.14,40ZM430.19,64.82,257.94,15.26A7,7,0,0,0,249,22v96.5a7,7,0,0,0,7,7,7.28,7.28,0,0,0,1.85-.24L430.1,78.37a7,7,0,0,0,.09-13.55Z"/><path class="cls-213" d="M262.88,109.51V31.16L402.74,71.4ZM430.15,65,257.9,15.41A6.87,6.87,0,0,0,249.12,22v96.5A6.87,6.87,0,0,0,256,125.4a7,7,0,0,0,1.81-.24L430.06,78.22A6.89,6.89,0,0,0,430.15,65Z"/><path class="cls-214" d="M262.73,109.71V31L403.3,71.4Zm167.38-44.6L257.86,15.55A6.73,6.73,0,0,0,249.27,22v96.5a6.72,6.72,0,0,0,6.73,6.73,6.68,6.68,0,0,0,1.77-.24L430,78.07a6.73,6.73,0,0,0,.09-13Z"/><path class="cls-215" d="M262.58,109.91V30.75L403.87,71.4ZM430.07,65.26,257.82,15.7a6.58,6.58,0,0,0-8.4,6.32v96.5a6.56,6.56,0,0,0,6.58,6.57,6.38,6.38,0,0,0,1.73-.23L430,77.92a6.58,6.58,0,0,0,.09-12.66Z"/><path class="cls-216" d="M262.42,110.11V30.55l142,40.86ZM430,65.41,257.78,15.85a6.42,6.42,0,0,0-8.2,6.17v96.5a6.42,6.42,0,0,0,6.42,6.42,6.54,6.54,0,0,0,1.69-.22L429.94,77.78A6.42,6.42,0,0,0,430,65.41Z"/><path class="cls-217" d="M262.27,110.31v-80L405,71.41ZM430,65.55,257.73,16a6.27,6.27,0,0,0-8,6v96.5a6.27,6.27,0,0,0,6.27,6.27,6.19,6.19,0,0,0,1.65-.22L429.9,77.63A6.27,6.27,0,0,0,430,65.55Z"/><path class="cls-218" d="M262.12,110.51V30.14L405.57,71.42ZM429.94,65.7,257.69,16.14A6.12,6.12,0,0,0,249.88,22v96.5a6.12,6.12,0,0,0,6.12,6.12,6.31,6.31,0,0,0,1.61-.22L429.86,77.48a6.12,6.12,0,0,0,.08-11.78Z"/><path class="cls-219" d="M262,110.71V29.94L406.14,71.42ZM429.9,65.85,257.65,16.29A5.95,5.95,0,0,0,250,22v96.5a5.95,5.95,0,0,0,6,6,6.05,6.05,0,0,0,1.57-.21L429.82,77.33a6,6,0,0,0,.08-11.48Z"/><path class="cls-220" d="M261.81,110.91V29.74l144.9,41.68ZM429.85,66,257.61,16.43A5.82,5.82,0,0,0,250.19,22v96.5a5.8,5.8,0,0,0,5.81,5.81,6.12,6.12,0,0,0,1.53-.2L429.77,77.18A5.81,5.81,0,0,0,429.85,66Z"/><path class="cls-221" d="M261.66,111.11V29.53l145.61,41.9Zm168.15-45L257.56,16.58A5.67,5.67,0,0,0,250.34,22v96.5a5.65,5.65,0,0,0,5.66,5.66,5.81,5.81,0,0,0,1.49-.2L429.73,77a5.66,5.66,0,0,0,.08-10.9Z"/><path class="cls-222" d="M261.51,111.31v-82l146.33,42.1Zm168.26-45L257.52,16.73a5.51,5.51,0,0,0-7,5.29v96.5a5.52,5.52,0,0,0,7,5.31L429.69,76.89a5.5,5.5,0,0,0,.08-10.6Z"/><path class="cls-223" d="M256,317.85a2.75,2.75,0,0,1-2.75-2.75V22a2.75,2.75,0,1,1,5.5,0V315.1A2.75,2.75,0,0,1,256,317.85Z"/><path class="cls-223" d="M465.08,492.73a2.73,2.73,0,0,1-1.76-.64L256,318.69,48.68,492.09a2.75,2.75,0,0,1-3.53-4.22L254.24,313a2.75,2.75,0,0,1,3.52,0L466.85,487.87a2.74,2.74,0,0,1,.34,3.87A2.7,2.7,0,0,1,465.08,492.73Z"/><path class="cls-223" d="M256,389.88a74.65,74.65,0,0,1-57.36-26.8,2.76,2.76,0,0,1,4.23-3.54,69.24,69.24,0,0,0,106.26,0,2.76,2.76,0,0,1,4.23,3.54A74.65,74.65,0,0,1,256,389.88Z"/><path class="cls-223" d="M256,121.27a2.74,2.74,0,0,1-2.75-2.75V22a2.75,2.75,0,0,1,3.51-2.65L429,68.93a2.75,2.75,0,0,1,0,5.3L256.73,121.17A2.67,2.67,0,0,1,256,121.27Zm2.75-95.6v89.25L418,71.51Z"/></svg>