<svg id="Layer_1" data-name="Layer 1" xmlns="http://www.w3.org/2000/svg" viewBox="0 0 512 512"><defs><style>.cls-1,.cls-10,.cls-11,.cls-12,.cls-2,.cls-3,.cls-37,.cls-4,.cls-5,.cls-6,.cls-7,.cls-8,.cls-9{fill:#00aeff;}.cls-1,.cls-13,.cls-25{opacity:0.1;}.cls-14,.cls-2,.cls-26{opacity:0.14;}.cls-15,.cls-27,.cls-3{opacity:0.17;}.cls-16,.cls-28,.cls-4{opacity:0.21;}.cls-17,.cls-29,.cls-5{opacity:0.25;}.cls-18,.cls-30,.cls-6{opacity:0.28;}.cls-19,.cls-31,.cls-7{opacity:0.32;}.cls-20,.cls-32,.cls-8{opacity:0.35;}.cls-21,.cls-33,.cls-9{opacity:0.39;}.cls-10,.cls-22,.cls-34{opacity:0.43;}.cls-11,.cls-23,.cls-35{opacity:0.46;}.cls-12,.cls-24,.cls-36{opacity:0.5;}.cls-13,.cls-14,.cls-15,.cls-16,.cls-17,.cls-18,.cls-19,.cls-20,.cls-21,.cls-22,.cls-23,.cls-24,.cls-49{fill:#f90;}.cls-25,.cls-26,.cls-27,.cls-28,.cls-29,.cls-30,.cls-31,.cls-32,.cls-33,.cls-34,.cls-35,.cls-36,.cls-61{fill:#00eaff;}.cls-37,.cls-49,.cls-61{opacity:0;}.cls-38{fill:#04b2ff;}.cls-38,.cls-50,.cls-62{opacity:0.09;}.cls-39{fill:#07b6ff;}.cls-39,.cls-51,.cls-63{opacity:0.18;}.cls-40{fill:#0bbaff;}.cls-40,.cls-52,.cls-64{opacity:0.27;}.cls-41{fill:#0fbeff;}.cls-41,.cls-53,.cls-65{opacity:0.36;}.cls-42{fill:#13c2ff;}.cls-42,.cls-54,.cls-66{opacity:0.45;}.cls-43{fill:#16c7ff;}.cls-43,.cls-55,.cls-67{opacity:0.55;}.cls-44{fill:#1acbff;}.cls-44,.cls-56,.cls-68{opacity:0.64;}.cls-45{fill:#1ecfff;}.cls-45,.cls-57,.cls-69{opacity:0.73;}.cls-46{fill:#22d3ff;}.cls-46,.cls-58,.cls-70{opacity:0.82;}.cls-47{fill:#25d7ff;}.cls-47,.cls-59,.cls-71{opacity:0.91;}.cls-48{fill:#29dbff;}.cls-50{fill:#ff9e00;}.cls-51{fill:#ffa400;}.cls-52{fill:#ffa900;}.cls-53{fill:#ffaf00;}.cls-54{fill:#ffb400;}.cls-55{fill:#ffba00;}.cls-56{fill:#ffbf00;}.cls-57{fill:#ffc500;}.cls-58{fill:#ffca00;}.cls-59{fill:#ffd000;}.cls-60{fill:#ffd500;}.cls-62{fill:#0debff;}.cls-63{fill:#1aecff;}.cls-64{fill:#28edff;}.cls-65{fill:#35eeff;}.cls-66{fill:#42efff;}.cls-67{fill:#4ff1ff;}.cls-68{fill:#5cf2ff;}.cls-69{fill:#69f3ff;}.cls-70{fill:#77f4ff;}.cls-71{fill:#84f5ff;}.cls-72{fill:#91f6ff;}.cls-73{fill:#fff;}</style></defs><title>Line Icon 33</title><path class="cls-1" d="M336.26,194.89a22,22,0,0,1-7.54-42.72c9.31-3.4,15.38-7.48,18.3-10.3a48.54,48.54,0,0,0-10.13-.67,22,22,0,1,1-1.27-44c13.94-.46,33.18,1.71,45.89,14a38.06,38.06,0,0,1,11.57,28c0,23.14-18,43-49.29,54.36A21.89,21.89,0,0,1,336.26,194.89Z"/><path class="cls-1" d="M336.59,243.88a22,22,0,0,1-9.66-41.82,61,61,0,0,0,9.33-5.59h0a22,22,0,0,1-6.63-43c9.29-2.95,17.83-4.14,25.43-3.59a37.3,37.3,0,0,1,19.69,6.84c5.17,3.78,13.83,12.61,13.83,29.22,0,11.16-3.86,21.81-11.08,31.32s-17.82,17.86-31.27,24.41A21.84,21.84,0,0,1,336.59,243.88Z"/><path class="cls-1" d="M291.71,457.9a23.84,23.84,0,0,1-2.65-.16,22,22,0,0,1-19.24-24.42c.15-1.23,3.75-30.65,20-68.84,14.69-34.52-3.88-83-4.07-83.49a22,22,0,0,1,40.9-16.33c1.06,2.65,25.67,65.46,3.69,117.08-13.62,32-16.77,56.56-16.8,56.8A22.06,22.06,0,0,1,291.71,457.9Z"/><path class="cls-1" d="M188.66,142.65a22,22,0,0,0-30.45-6.49c-9,5.82-38.17,33.66-36.94,147.34a22,22,0,0,0,22,21.78h.24A22,22,0,0,0,165.31,283c-.93-85.92,16.61-108.86,18.57-111.14A22,22,0,0,0,188.66,142.65Z"/><path class="cls-2" d="M335.65,98.18c13.75-.42,32.71,1.67,45.16,13.77a37.08,37.08,0,0,1,11.27,27.24c0,23-18.09,42.16-48,53.16a22.81,22.81,0,0,1-7.32,1.4,21.74,21.74,0,0,1-3-.13,20.23,20.23,0,0,1-5-1.18,20.76,20.76,0,0,1-12.3-12.38,20.45,20.45,0,0,1,2.39-18.67,23.9,23.9,0,0,1,11.23-8.76c9-3.38,15-7.46,17.91-10.43a36.09,36.09,0,0,0-6.82-1.2c-.7-.07-1.45-.13-2.24-.17s-1.86-.16-2.79-.29a24.56,24.56,0,0,1-19.19-15,19.11,19.11,0,0,1-1.13-4.84,20.44,20.44,0,0,1,19.79-22.52Z"/><path class="cls-2" d="M329.92,154.4c8.92-2.83,17.27-4,24.74-3.55a36.4,36.4,0,0,1,19.49,6.66c5.08,3.72,13.42,12.29,13.42,28.41,0,11.26-4,21.84-11.26,31.17s-17.42,17.24-30.22,23.5a22.27,22.27,0,0,1-5.76,1.91,20.66,20.66,0,0,1-3.5.35,20.42,20.42,0,0,1-4.21-.37,20.9,20.9,0,0,1-14.94-11.42,16.91,16.91,0,0,1-1.51-8.5c.36-5.6,3.77-11.68,7-17.12a6.08,6.08,0,0,1,.74-1.08,18.6,18.6,0,0,1,4.15-3.86,56.11,56.11,0,0,0,8-5.05h0a21,21,0,0,1-19.22-12.9,18.67,18.67,0,0,1-.68-1.86A21,21,0,0,1,329.92,154.4Z"/><path class="cls-2" d="M291.71,456.9a21.72,21.72,0,0,1-2.53-.15,21,21,0,0,1-18.37-23.31c.15-1.23,3.74-30.51,19.94-68.56,14.88-34.95-3.86-83.77-4.06-84.26a21,21,0,0,1,39-15.59c1.06,2.63,25.51,65.08,3.7,116.31-13.68,32.14-16.84,56.84-16.87,57.08A21.09,21.09,0,0,1,291.71,456.9Z"/><path class="cls-2" d="M143.29,304.28a21,21,0,0,1-21-20.79C121,170.06,150.09,142.62,158.75,137c9.27-6,22.76-1.7,28.78,7.58a20,20,0,0,1-4.31,26.55c-1.8,2.09-19.86,24.77-18.91,111.91a21,21,0,0,1-20.79,21.24Z"/><path class="cls-3" d="M335.68,99.18c13.56-.41,32.23,1.64,44.43,13.49a36.07,36.07,0,0,1,11,26.52c0,22.82-18.21,41.37-46.64,51.95a23.89,23.89,0,0,1-7.11,1.48,22,22,0,0,1-2.93,0,19.19,19.19,0,0,1-4.86-1,19.6,19.6,0,0,1-12.1-11.87,19.06,19.06,0,0,1,2.81-18.21,26.55,26.55,0,0,1,11.27-8.4c8.72-3.38,14.64-7.45,17.52-10.56a26.52,26.52,0,0,0-6-1.72c-.64-.13-1.31-.26-2-.37s-1.75-.31-2.64-.47c-8-1.46-15.79-6.89-19.46-14a16.14,16.14,0,0,1-1.47-4.43,18.95,18.95,0,0,1,18.2-22.4Z"/><path class="cls-3" d="M330.22,155.35a67.53,67.53,0,0,1,24-3.51,35.67,35.67,0,0,1,19.29,6.47c5,3.66,13,12,13,27.61,0,11.36-4.19,21.86-11.44,31-7,8.93-17,16.63-29.16,22.59a23,23,0,0,1-5.53,1.9,19.24,19.24,0,0,1-3.37.39,19.93,19.93,0,0,1-18.49-11.2,14.14,14.14,0,0,1-.85-9.12c1.11-5.24,5.94-11.73,8.7-18a4.22,4.22,0,0,1,.62-1.24,22.27,22.27,0,0,0,2.18-3.3,32.62,32.62,0,0,0,6.71-4.51h0a20,20,0,0,1-18.17-12.37c-.24-.57-.45-1.17-.64-1.77A20,20,0,0,1,330.22,155.35Z"/><path class="cls-3" d="M291.71,455.9a19.61,19.61,0,0,1-2.41-.15,20,20,0,0,1-17.49-22.19c.14-1.22,3.72-30.36,19.86-68.29,15.06-35.38-3.85-84.53-4.05-85A20,20,0,0,1,324.8,265.4c1.05,2.62,25.36,64.69,3.71,115.55-13.75,32.29-16.91,57.11-16.95,57.35A20,20,0,0,1,291.71,455.9Z"/><path class="cls-3" d="M143.29,303.28a20,20,0,0,1-20-19.8c-1.22-113.17,27.67-140.22,36-145.64s21.68.32,27.1,8.67a18,18,0,0,1-3.83,23.86c-1.65,1.9-20.22,24.31-19.26,112.68a20,20,0,0,1-19.8,20.23Z"/><path class="cls-4" d="M335.71,100.18c13.37-.43,31.75,1.6,43.71,13.21a35.1,35.1,0,0,1,10.66,25.8c0,22.66-18.34,40.58-45.32,50.74a24.69,24.69,0,0,1-6.9,1.55,22.48,22.48,0,0,1-2.84.06,18.47,18.47,0,0,1-16.64-12.17,17.8,17.8,0,0,1,3.23-17.76,30.07,30.07,0,0,1,11.32-8.05c8.41-3.39,14.25-7.43,17.11-10.69a18.68,18.68,0,0,0-5.06-2.23c-.58-.2-1.19-.39-1.84-.56-.82-.22-1.65-.47-2.5-.66-7.44-1.7-15.38-6.63-19.73-12.95a13.62,13.62,0,0,1-1.81-4,17.57,17.57,0,0,1,1.28-12.7A17.76,17.76,0,0,1,335.71,100.18Z"/><path class="cls-4" d="M330.52,156.31a66.89,66.89,0,0,1,23.36-3.48c7.22.37,13.74,2.37,19.09,6.29,4.91,3.6,12.59,11.67,12.59,26.8,0,11.46-4.35,21.89-11.61,30.86-6.93,8.65-16.63,16-28.11,21.69a22.71,22.71,0,0,1-5.3,1.88,18.83,18.83,0,0,1-21.06-10.17,12.5,12.5,0,0,1-.19-9.74c1.76-4.86,8-11.83,10.37-18.9a4.94,4.94,0,0,1,.51-1.41c1-1.45,1.05-2.72.21-2.74a22.37,22.37,0,0,0,5.4-4h0a19,19,0,0,1-17.13-11.84c-.22-.55-.42-1.11-.59-1.68A19,19,0,0,1,330.52,156.31Z"/><path class="cls-4" d="M291.71,454.9a19.68,19.68,0,0,1-2.29-.14,19,19,0,0,1-16.62-21.09c.15-1.21,3.7-30.21,19.79-68,15.24-35.8-3.84-85.28-4-85.78a19,19,0,0,1,35.33-14.11c1,2.6,25.2,64.3,3.71,114.79-13.81,32.44-17,57.37-17,57.62A19,19,0,0,1,291.71,454.9Z"/><path class="cls-4" d="M143.29,302.28a19,19,0,0,1-19-18.81c-1.22-112.91,27.53-139.58,35.57-144.79,7.41-4.82,20.61,2.34,25.42,9.76a15.94,15.94,0,0,1-3.35,21.17c-1.49,1.71-20.57,23.86-19.6,113.45a19,19,0,0,1-18.81,19.22Z"/><path class="cls-5" d="M335.74,101.18c13.17-.42,31.28,1.56,43,12.92a34.17,34.17,0,0,1,10.35,25.09c0,22.5-18.47,39.73-44,49.53a26.36,26.36,0,0,1-6.68,1.63,25.76,25.76,0,0,1-2.75.15,17,17,0,0,1-4.61-.63A17.38,17.38,0,0,1,319.33,179a16.59,16.59,0,0,1,3.64-17.3A34.94,34.94,0,0,1,334.33,154c8.11-3.38,13.88-7.41,16.72-10.81-.76-1-2.22-1.74-4.19-2.75-.52-.27-1.06-.52-1.64-.76-.76-.3-1.54-.62-2.35-.85-6.91-1.93-14.95-6.35-20-11.91a11.79,11.79,0,0,1-2.14-3.61A16.21,16.21,0,0,1,321,111,16.61,16.61,0,0,1,335.74,101.18Z"/><path class="cls-5" d="M330.82,157.26a66.27,66.27,0,0,1,22.66-3.44c7.11.31,13.58,2.22,18.9,6.11,4.83,3.54,12.18,11.36,12.18,26,0,11.56-4.53,21.9-11.78,30.71-6.86,8.34-16.25,15.41-27.07,20.78a23.71,23.71,0,0,1-5.06,1.87,18,18,0,0,1-6.84.32,17.85,17.85,0,0,1-13.43-9.85,11.52,11.52,0,0,1,.47-10.37c2.32-4.48,10.06-11.95,12-19.8.24-.91.22-1.36.4-1.56.77-1.35.14-2.54-1.76-2.19a14.06,14.06,0,0,0,4.09-3.42h0a18,18,0,0,1-16.08-11.3c-.2-.52-.39-1.05-.55-1.59A18,18,0,0,1,330.82,157.26Z"/><path class="cls-5" d="M291.71,453.9a17.67,17.67,0,0,1-2.17-.13,18,18,0,0,1-15.74-20c.14-1.21,3.68-30.07,19.71-67.74,15.42-36.23-3.83-86-4-86.54A18,18,0,1,1,323,266.15c1,2.58,25.05,63.91,3.72,114-13.88,32.59-17.06,57.64-17.09,57.89A18,18,0,0,1,291.71,453.9Z"/><path class="cls-5" d="M143.29,301.28a18,18,0,0,1-18-17.82c-1.23-112.65,27.38-138.93,35.1-143.94,6.49-4.22,19.53,4.35,23.75,10.85a13.92,13.92,0,0,1-2.87,18.48c-1.34,1.52-20.94,23.41-19.95,114.22a18,18,0,0,1-17.82,18.21Z"/><path class="cls-6" d="M335.77,102.19c13-.41,30.8,1.51,42.25,12.63a33.15,33.15,0,0,1,10.05,24.37c0,22.34-18.6,38.93-42.67,48.32a28.35,28.35,0,0,1-6.46,1.7c-.9.13-1.79.21-2.67.25a16.28,16.28,0,0,1-16-10.78,15.52,15.52,0,0,1,4.06-16.84,42.48,42.48,0,0,1,11.4-7.35c7.82-3.38,13.5-7.4,16.32-11-.47-1.12-1.67-2-3.31-3.26a12,12,0,0,0-1.44-.95,12.64,12.64,0,0,0-2.2-1c-6.37-2.16-14.49-6.1-20.28-10.89a10.33,10.33,0,0,1-2.48-3.2,14.94,14.94,0,0,1-.74-12A15.49,15.49,0,0,1,335.77,102.19Z"/><path class="cls-6" d="M331.12,158.22a65.67,65.67,0,0,1,22-3.41c7,.25,13.42,2.06,18.7,5.93,4.74,3.47,11.77,11,11.77,25.18,0,11.66-4.7,21.92-12,30.56-6.76,8.05-15.86,14.79-26,19.87a25.44,25.44,0,0,1-4.83,1.85,16,16,0,0,1-3,.52,16.76,16.76,0,0,1-16.52-9.41,11,11,0,0,1,1.12-11c2.83-4.13,12.06-12.06,13.73-20.69.21-1.06.13-1.55.28-1.72.53-1.25-.77-2.36-3.73-1.63a8.17,8.17,0,0,0,2.78-2.88h0a17,17,0,0,1-15-10.76c-.19-.5-.36-1-.51-1.52A17,17,0,0,1,331.12,158.22Z"/><path class="cls-6" d="M291.71,452.9a17.74,17.74,0,0,1-2-.12,17,17,0,0,1-14.87-18.87c.14-1.2,3.67-29.93,19.64-67.47,15.61-36.65-3.82-86.8-4-87.3A17,17,0,1,1,322,266.52c1,2.57,24.9,63.52,3.73,113.25-13.94,32.75-17.13,57.92-17.16,58.17A17,17,0,0,1,291.71,452.9Z"/><path class="cls-6" d="M143.29,300.28a17,17,0,0,1-17-16.83c-1.22-112.4,27.23-138.28,34.65-143.09,5.56-3.62,18.45,6.37,22.06,11.94a11.89,11.89,0,0,1-2.39,15.79c-1.18,1.33-21.29,23-20.29,115a17,17,0,0,1-16.83,17.2Z"/><path class="cls-7" d="M335.79,103.19c12.8-.4,30.33,1.47,41.53,12.35a32.18,32.18,0,0,1,9.75,23.65c0,22.18-18.73,38.13-41.35,47.11a31.21,31.21,0,0,1-6.25,1.78c-.87.15-1.73.26-2.57.33a14.84,14.84,0,0,1-4.37-.25,15.36,15.36,0,0,1-11.32-9.82A14.57,14.57,0,0,1,325.69,162a55.21,55.21,0,0,1,11.45-7c7.51-3.37,13.12-7.38,15.92-11.07-.19-1.28-1.12-2.41-2.43-3.78a10.32,10.32,0,0,0-1.25-1.15,9.1,9.1,0,0,0-2.05-1.22,151.24,151.24,0,0,1-20.55-9.86,9.4,9.4,0,0,1-2.82-2.8,13.82,13.82,0,0,1-1.75-11.66A14.52,14.52,0,0,1,335.79,103.19Z"/><path class="cls-7" d="M331.42,159.17a65.37,65.37,0,0,1,21.28-3.37c6.86.19,13.26,1.91,18.49,5.74,4.67,3.42,11.37,10.74,11.37,24.38,0,11.77-4.86,21.94-12.14,30.41a80.81,80.81,0,0,1-25,19,27.08,27.08,0,0,1-4.6,1.84,16.25,16.25,0,0,1-2.81.56,15.3,15.3,0,0,1-3.45,0,15.78,15.78,0,0,1-12.42-8.8A10.65,10.65,0,0,1,324,217.26c3.29-3.82,14-12.17,15.4-21.58.18-1.22,0-1.73.18-1.88.28-1.15-1.69-2.18-5.71-1.08a4.37,4.37,0,0,0,1.47-2.34h0a16,16,0,0,1-14-10.22c-.18-.47-.33-.94-.47-1.43A16,16,0,0,1,331.42,159.17Z"/><path class="cls-7" d="M291.71,451.9a18,18,0,0,1-1.93-.11,16,16,0,0,1-14-17.76c.15-1.2,3.65-29.79,19.57-67.19,15.79-37.09-3.81-87.57-4-88.07a16,16,0,1,1,29.75-11.88c1,2.55,24.75,63.13,3.73,112.49-14,32.89-17.2,58.19-17.23,58.44A16,16,0,0,1,291.71,451.9Z"/><path class="cls-7" d="M143.29,299.28a16,16,0,0,1-16-15.84C126.06,171.3,154.37,145.8,161.47,141.2c4.64-3,17.38,8.39,20.39,13a9.88,9.88,0,0,1-1.91,13.1c-1,1.14-21.66,22.51-20.64,115.76a16,16,0,0,1-15.84,16.19Z"/><path class="cls-8" d="M335.82,104.19c12.61-.39,29.86,1.43,40.81,12.07a31.21,31.21,0,0,1,9.44,22.93c0,22-18.85,37.34-40,45.9a34.62,34.62,0,0,1-6,1.85c-.84.18-1.68.32-2.49.43a13.76,13.76,0,0,1-4.25-.07,14.42,14.42,0,0,1-11.12-9.3,13.7,13.7,0,0,1,4.9-15.94,80,80,0,0,1,11.49-6.64c7.22-3.36,12.75-7.38,15.52-11.21a7,7,0,0,0-1.55-4.3,8.53,8.53,0,0,0-1-1.33,7.16,7.16,0,0,0-1.9-1.41c-5.31-2.56-13.53-5.69-20.83-8.83a9.13,9.13,0,0,1-3.16-2.39,12.9,12.9,0,0,1-2.76-11.32A13.65,13.65,0,0,1,335.82,104.19Z"/><path class="cls-8" d="M331.73,160.12a65.65,65.65,0,0,1,20.58-3.34c6.74.14,13.09,1.76,18.29,5.57,4.58,3.36,11,10.42,11,23.57,0,11.87-5,22-12.31,30.26a80.52,80.52,0,0,1-23.91,18,28.59,28.59,0,0,1-4.37,1.82,14.83,14.83,0,0,1-2.68.61,14.58,14.58,0,0,1-3.3.05,14.8,14.8,0,0,1-11.91-8.28,10.52,10.52,0,0,1,2.44-12.23c3.73-3.54,16-12.28,17.08-22.47.14-1.38-.05-1.92.06-2,0-1-2.59-2-7.68-.52a3.27,3.27,0,0,0,.16-1.8h0a15,15,0,0,1-12.93-9.69c-.16-.44-.31-.89-.43-1.34A15,15,0,0,1,331.73,160.12Z"/><path class="cls-8" d="M291.71,450.91a13.87,13.87,0,0,1-1.81-.12,15,15,0,0,1-13.12-16.65c.14-1.19,3.63-29.64,19.49-66.91,16-37.51-3.8-88.32-4-88.83a15,15,0,1,1,27.89-11.14c1,2.54,24.6,62.75,3.74,111.73-14.06,33-17.27,58.45-17.3,58.7A15,15,0,0,1,291.71,450.91Z"/><path class="cls-8" d="M143.29,298.28a15,15,0,0,1-15-14.86C127.06,171.55,155.23,146.44,162,142c3.7-2.41,16.3,10.4,18.7,14.11a7.86,7.86,0,0,1-1.43,10.42c-.86,1-22,22.06-21,116.53a15,15,0,0,1-14.86,15.18Z"/><path class="cls-9" d="M335.85,105.19c12.42-.38,29.38,1.39,40.08,11.79a30.21,30.21,0,0,1,9.14,22.21c0,21.86-19,36.56-38.7,44.7a42.05,42.05,0,0,1-5.82,1.92c-.82.2-1.62.37-2.4.52a13.35,13.35,0,0,1-4.13.12,13.5,13.5,0,0,1-10.93-8.79,12.9,12.9,0,0,1,5.32-15.48c3.56-2.14,7.51-4.35,11.53-6.3,6.92-3.35,12.37-7.36,15.13-11.33a7.39,7.39,0,0,0-.67-4.82,8.09,8.09,0,0,0-.85-1.53,5.79,5.79,0,0,0-1.75-1.59c-4.79-2.74-13-5.53-21.1-7.81a9,9,0,0,1-3.5-2,12.18,12.18,0,0,1-3.78-11A12.89,12.89,0,0,1,335.85,105.19Z"/><path class="cls-9" d="M332,161.08a64.85,64.85,0,0,1,19.89-3.31c6.62.08,12.93,1.61,18.09,5.39,4.5,3.29,10.55,10.11,10.55,22.76,0,12-5.19,22-12.49,30.11a80.28,80.28,0,0,1-22.86,17.15,36.22,36.22,0,0,1-4.13,1.8,13.64,13.64,0,0,1-2.55.65A13.84,13.84,0,0,1,324,228a10.5,10.5,0,0,1,3.1-12.85c4.17-3.3,17.95-12.38,18.75-23.36a19.57,19.57,0,0,0-.05-2.2c-.2-.94-3.5-1.81-9.65,0-.28-.08-.68-.53-1.15-1.25h0a13.92,13.92,0,0,1-11.88-9.15c-.15-.41-.28-.83-.39-1.25A14,14,0,0,1,332,161.08Z"/><path class="cls-9" d="M291.7,449.91a13.8,13.8,0,0,1-1.68-.11,14,14,0,0,1-12.25-15.54c.14-1.18,3.61-29.5,19.43-66.64,16.15-37.94-3.8-89.08-4-89.59a14,14,0,1,1,26-10.4c1,2.52,24.45,62.36,3.75,111-14.12,33.19-17.34,58.72-17.37,59A14,14,0,0,1,291.7,449.91Z"/><path class="cls-9" d="M143.29,297.28a14,14,0,0,1-14-13.87c-1.21-111.61,26.81-136.33,33.28-140.53,2.78-1.81,15.22,12.42,17,15.2a5.85,5.85,0,0,1-1,7.73c-.71.76-22.37,21.6-21.33,117.3a14,14,0,0,1-13.87,14.17Z"/><path class="cls-10" d="M335.88,106.19c12.23-.37,28.9,1.36,39.35,11.5a29.26,29.26,0,0,1,8.84,21.5c0,21.71-19.1,35.78-37.38,43.49a52.14,52.14,0,0,1-5.61,2c-.78.23-1.56.43-2.31.61a12.37,12.37,0,0,1-4,.3A12.64,12.64,0,0,1,324,177.31a12.2,12.2,0,0,1,5.74-15c3.68-1.9,7.66-4,11.58-5.94,6.62-3.34,12-7.35,14.72-11.47a8.38,8.38,0,0,0,.21-5.33,7.38,7.38,0,0,0-.65-1.72,4.91,4.91,0,0,0-1.6-1.78c-4.28-2.91-12.57-5.4-21.37-6.78a9.28,9.28,0,0,1-3.84-1.57A11.63,11.63,0,0,1,324,117.07,12.18,12.18,0,0,1,335.88,106.19Z"/><path class="cls-10" d="M332.33,162a64.71,64.71,0,0,1,19.2-3.27c6.49,0,12.77,1.45,17.89,5.21,4.42,3.23,10.14,9.79,10.14,21.95s-5.34,22-12.67,30a79.82,79.82,0,0,1-21.8,16.24c-1.34.69-2.65,1.28-3.91,1.78a12.37,12.37,0,0,1-2.4.7,13.11,13.11,0,0,1-3,.19,12.9,12.9,0,0,1-10.92-7.24,10.61,10.61,0,0,1,3.76-13.47c4.64-3.09,19.91-12.47,20.44-24.26a10.09,10.09,0,0,0-.17-2.35c-.44-.84-4.28-1.16-11.62.58a3.23,3.23,0,0,1-2.46-.71h0A13,13,0,0,1,324,178.72a11.89,11.89,0,0,1-.35-1.16A13,13,0,0,1,332.33,162Z"/><path class="cls-10" d="M291.7,448.91a11.89,11.89,0,0,1-1.56-.1,13,13,0,0,1-11.37-14.43c.14-1.18,3.59-29.35,19.35-66.37,16.33-38.36-3.79-89.84-4-90.35A13,13,0,1,1,318.3,268c1,2.51,24.3,62,3.76,110.2-14.19,33.35-17.42,59-17.45,59.25A13,13,0,0,1,291.7,448.91Z"/><path class="cls-10" d="M143.29,296.28a13,13,0,0,1-13-12.88C129.07,172,156.94,147.72,163.11,143.72c1.85-1.21,14.14,14.44,15.34,16.29a3.82,3.82,0,0,1-.47,5c-.55.57-22.73,21.15-21.67,118.07a13,13,0,0,1-12.88,13.16Z"/><path class="cls-11" d="M335.91,107.19c12-.35,28.43,1.32,38.62,11.22a28.28,28.28,0,0,1,8.54,20.78c0,21.55-19.2,35-36.06,42.28-1.85.8-3.67,1.49-5.39,2.07-.76.26-1.5.49-2.22.71a11.55,11.55,0,0,1-3.89.48A11.78,11.78,0,0,1,325,177a11.57,11.57,0,0,1,6.16-14.57c3.81-1.67,7.81-3.58,11.62-5.59,6.33-3.31,11.61-7.33,14.33-11.59a10.07,10.07,0,0,0,1.08-5.85,7.34,7.34,0,0,0-.45-1.92,4.62,4.62,0,0,0-1.45-2c-3.78-3.06-12.11-5.28-21.65-5.76a9.74,9.74,0,0,1-4.17-1.16,11.27,11.27,0,0,1-5.8-10.28A11.56,11.56,0,0,1,335.91,107.19Z"/><path class="cls-11" d="M332.63,163a64.24,64.24,0,0,1,18.51-3.24c6.37,0,12.6,1.3,17.69,5,4.33,3.18,9.73,9.49,9.73,21.15,0,12.17-5.5,22.07-12.84,29.81A80.26,80.26,0,0,1,345,231.06c-1.26.66-2.49,1.25-3.67,1.77a11.11,11.11,0,0,1-2.27.73,11.9,11.9,0,0,1-13.25-6.44,10.78,10.78,0,0,1,4.42-14.1c5.1-2.9,21.85-12.55,22.11-25.15a7.36,7.36,0,0,0-.28-2.51c-.68-.74-5.27-1.29-13.59,1.14a6.33,6.33,0,0,1-3.77-.17h0a12,12,0,0,1-9.78-8.09c-.12-.35-.22-.71-.31-1.07A12,12,0,0,1,332.63,163Z"/><path class="cls-11" d="M291.7,447.91a11.84,11.84,0,0,1-1.44-.09,12,12,0,0,1-10.5-13.32c.14-1.18,3.58-29.21,19.28-66.1,16.51-38.78-3.77-90.6-4-91.12a12,12,0,1,1,22.31-8.91c1,2.49,24.14,61.59,3.77,109.44-14.25,33.5-17.49,59.26-17.52,59.52A12,12,0,0,1,291.7,447.91Z"/><path class="cls-11" d="M143.29,295.27a12,12,0,0,1-12-11.88c-1.21-111.1,26.52-135,32.37-138.83.93-.6,13.07,16.45,13.67,17.38a1.85,1.85,0,0,1,0,2.35c-.39.38-23.08,20.7-22,118.84a12,12,0,0,1-11.88,12.14Z"/><path class="cls-12" d="M336.26,183.88a11,11,0,0,1-3.77-21.36c13.32-4.86,27.56-13.54,27.56-23.33a5.26,5.26,0,0,0-1.56-4.27c-3.3-3.2-11.67-5-21.92-4.72a11,11,0,0,1-.63-22c11.84-.34,27.95,1.28,37.9,10.94a27.31,27.31,0,0,1,8.23,20.06c0,25-26.35,38.3-42.05,44A10.79,10.79,0,0,1,336.26,183.88Z"/><path class="cls-12" d="M336.58,232.87A11,11,0,0,1,331.75,212c5.58-2.72,23.78-12.63,23.78-26a6.06,6.06,0,0,0-.39-2.67c-.92-.64-6.23-1.27-15.56,1.69a11,11,0,0,1-6.65-21,64.22,64.22,0,0,1,17.82-3.2c6.25-.1,12.44,1.14,17.48,4.84,4.26,3.11,9.33,9.17,9.33,20.34,0,12.28-5.67,22.09-13,29.66s-16.39,12.89-23.14,16.17A11,11,0,0,1,336.58,232.87Z"/><path class="cls-12" d="M291.7,446.91a12,12,0,0,1-1.32-.08,11,11,0,0,1-9.62-12.22c.14-1.16,3.55-29.06,19.2-65.81,16.69-39.22-3.76-91.36-4-91.89a11,11,0,0,1,20.45-8.17c1,2.48,24,61.2,3.78,108.68-14.32,33.64-17.57,59.53-17.59,59.79A11,11,0,0,1,291.7,446.91Z"/><path class="cls-12" d="M143.29,294.27a11,11,0,0,1-11-10.89c-1.2-110.84,26.38-134.39,31.92-138l12,18.47a3.46,3.46,0,0,0,.48-.34c-.24.19-23.45,20.25-22.37,119.62a11,11,0,0,1-10.89,11.12Z"/><path class="cls-13" d="M336.26,294.85h-120a22,22,0,0,1,0-44h97.93V44h-122V237.9a22,22,0,1,1-44,0V22a22,22,0,0,1,22-22H336.26a22,22,0,0,1,22,22V272.83A22,22,0,0,1,336.26,294.85Z"/><path class="cls-13" d="M297.34,213.57a22,22,0,0,1-15.57-6.45l-88.24-88.25a22,22,0,0,1,31.14-31.14L312.91,176a22,22,0,0,1-15.57,37.59Z"/><path class="cls-13" d="M209.1,213.57A22,22,0,0,1,193.53,176l88.24-88.25a22,22,0,1,1,31.14,31.14l-88.24,88.25A22,22,0,0,1,209.1,213.57Z"/><path class="cls-14" d="M336.26,293.85h-120a21,21,0,0,1,0-42h98.93V43h-124V237.9a21,21,0,1,1-42,0V22a21,21,0,0,1,21-21H336.26a21,21,0,0,1,21,21V272.83A21,21,0,0,1,336.26,293.85Z"/><path class="cls-14" d="M297.34,212.57a20.92,20.92,0,0,1-14.86-6.16l-88.24-88.25A21,21,0,0,1,224,88.44l88.24,88.25a21,21,0,0,1-14.86,35.88Z"/><path class="cls-14" d="M209.1,212.57a21,21,0,0,1-14.86-35.88l88.24-88.25a21,21,0,1,1,29.72,29.72L224,206.41A20.92,20.92,0,0,1,209.1,212.57Z"/><path class="cls-15" d="M336.26,292.85h-120a20,20,0,0,1,0-40h99.94V42h-126V237.9a20,20,0,1,1-40,0V22a20,20,0,0,1,20-20H336.26a20,20,0,0,1,20,20V272.83A20,20,0,0,1,336.26,292.85Z"/><path class="cls-15" d="M297.34,211.57a19.94,19.94,0,0,1-14.15-5.87L195,117.46a20,20,0,0,1,28.3-28.31l88.25,88.24a20,20,0,0,1-14.16,34.18Z"/><path class="cls-15" d="M209.1,211.57A20,20,0,0,1,195,177.39l88.24-88.24a20,20,0,1,1,28.31,28.31L223.25,205.7A19.94,19.94,0,0,1,209.1,211.57Z"/><path class="cls-16" d="M336.26,291.85h-120a19,19,0,0,1,0-38H317.24V41h-128V237.9a19,19,0,1,1-38,0V22a19,19,0,0,1,19-19H336.26a19,19,0,0,1,19,19V272.83A19,19,0,0,1,336.26,291.85Z"/><path class="cls-16" d="M297.34,210.57A19,19,0,0,1,283.89,205l-88.24-88.25a19,19,0,0,1,26.9-26.9l88.24,88.25a19,19,0,0,1-13.45,32.47Z"/><path class="cls-16" d="M209.1,210.57a19,19,0,0,1-13.45-32.47l88.24-88.25a19,19,0,1,1,26.9,26.9L222.55,205A19,19,0,0,1,209.1,210.57Z"/><path class="cls-17" d="M336.26,290.85h-120a18,18,0,0,1,0-36H318.24V40h-130V237.9a18,18,0,0,1-36,0V22a18,18,0,0,1,18-18H336.26a18,18,0,0,1,18,18V272.83A18,18,0,0,1,336.26,290.85Z"/><path class="cls-17" d="M297.34,209.57a18,18,0,0,1-12.74-5.28L196.36,116a18,18,0,0,1,25.48-25.48l88.24,88.25a18,18,0,0,1-12.74,30.76Z"/><path class="cls-17" d="M209.1,209.57a18,18,0,0,1-12.74-30.76L284.6,90.56A18,18,0,1,1,310.08,116l-88.24,88.25A18,18,0,0,1,209.1,209.57Z"/><path class="cls-18" d="M336.26,289.84h-120a17,17,0,1,1,0-34H319.24V39h-132V237.9a17,17,0,0,1-34,0V22a17,17,0,0,1,17-17H336.26a17,17,0,0,1,17,17V272.83A17,17,0,0,1,336.26,289.84Z"/><path class="cls-18" d="M297.34,208.57a17,17,0,0,1-12-5l-88.24-88.25a17,17,0,0,1,24.06-24.06l88.24,88.25a17,17,0,0,1-12,29Z"/><path class="cls-18" d="M209.1,208.57a17,17,0,0,1-12-29l88.24-88.25a17,17,0,1,1,24.06,24.06l-88.24,88.25A17,17,0,0,1,209.1,208.57Z"/><path class="cls-19" d="M336.26,288.84h-120a16,16,0,1,1,0-32H320.24V38h-134V237.9a16,16,0,0,1-32,0V22a16,16,0,0,1,16-16H336.26a16,16,0,0,1,16,16V272.83A16,16,0,0,1,336.26,288.84Z"/><path class="cls-19" d="M297.34,207.56A15.93,15.93,0,0,1,286,202.87l-88.24-88.25A16,16,0,0,1,220.42,92l88.24,88.24a16,16,0,0,1-11.32,27.34Z"/><path class="cls-19" d="M209.1,207.56a16,16,0,0,1-11.32-27.34L286,92a16,16,0,1,1,22.64,22.64l-88.24,88.25A15.93,15.93,0,0,1,209.1,207.56Z"/><path class="cls-20" d="M336.26,287.84h-120a15,15,0,1,1,0-30H321.24V37h-136V237.9a15,15,0,0,1-30,0V22a15,15,0,0,1,15-15H336.26a15,15,0,0,1,15,15V272.83A15,15,0,0,1,336.26,287.84Z"/><path class="cls-20" d="M297.34,206.56a14.92,14.92,0,0,1-10.61-4.4l-88.25-88.24a15,15,0,0,1,21.24-21.23L308,180.93a15,15,0,0,1-10.62,25.63Z"/><path class="cls-20" d="M209.1,206.56a15,15,0,0,1-10.62-25.63l88.25-88.24A15,15,0,1,1,308,113.92l-88.24,88.24A15,15,0,0,1,209.1,206.56Z"/><path class="cls-21" d="M336.26,286.84h-120a14,14,0,1,1,0-28H322.24V36h-138V237.9a14,14,0,1,1-28,0V22a14,14,0,0,1,14-14H336.26a14,14,0,0,1,14,14V272.83A14,14,0,0,1,336.26,286.84Z"/><path class="cls-21" d="M297.34,205.56a14,14,0,0,1-9.91-4.1l-88.24-88.25A14,14,0,0,1,219,93.39l88.24,88.25a14,14,0,0,1-9.91,23.92Z"/><path class="cls-21" d="M209.1,205.56a14,14,0,0,1-9.91-23.92l88.24-88.25a14,14,0,1,1,19.82,19.82L219,201.46A14,14,0,0,1,209.1,205.56Z"/><path class="cls-22" d="M336.26,285.84h-120a13,13,0,0,1,0-26H323.24V35h-140V237.9a13,13,0,1,1-26,0V22a13,13,0,0,1,13-13H336.26a13,13,0,0,1,13,13V272.83A13,13,0,0,1,336.26,285.84Z"/><path class="cls-22" d="M297.34,204.56a13,13,0,0,1-9.2-3.81L199.9,112.5a13,13,0,0,1,18.4-18.4l88.24,88.25a13,13,0,0,1-9.2,22.21Z"/><path class="cls-22" d="M209.1,204.56a13,13,0,0,1-9.2-22.21L288.14,94.1a13,13,0,1,1,18.4,18.4L218.3,200.75A13,13,0,0,1,209.1,204.56Z"/><path class="cls-23" d="M336.26,284.84h-120a12,12,0,0,1,0-24H324.24V34h-142V237.9a12,12,0,1,1-24,0V22a12,12,0,0,1,12-12H336.26a12,12,0,0,1,12,12V272.83A12,12,0,0,1,336.26,284.84Z"/><path class="cls-23" d="M297.34,203.56a12,12,0,0,1-8.49-3.52l-88.24-88.25a12,12,0,0,1,17-17l88.24,88.25a12,12,0,0,1-8.49,20.5Z"/><path class="cls-23" d="M209.1,203.56a12,12,0,0,1-8.49-20.5l88.24-88.25a12,12,0,1,1,17,17L217.59,200A12,12,0,0,1,209.1,203.56Z"/><path class="cls-24" d="M336.26,283.84h-120a11,11,0,0,1,0-22H325.24V33h-144V237.9a11,11,0,1,1-22,0V22a11,11,0,0,1,11-11H336.26a11,11,0,0,1,11,11V272.83A11,11,0,0,1,336.26,283.84Z"/><path class="cls-24" d="M297.34,202.56a11,11,0,0,1-7.78-3.23l-88.25-88.24a11,11,0,0,1,15.57-15.57l88.25,88.24a11,11,0,0,1-7.79,18.8Z"/><path class="cls-24" d="M209.1,202.56a11,11,0,0,1-7.79-18.8l88.25-88.24a11,11,0,1,1,15.57,15.57l-88.25,88.24A11,11,0,0,1,209.1,202.56Z"/><path class="cls-25" d="M171.29,468H282.84v-10H171.29Zm133.57,44H149.27a22,22,0,0,1-22-22V435.9a22,22,0,0,1,22-22H304.86a22,22,0,0,1,22,22V490A22,22,0,0,1,304.86,512Z"/><path class="cls-26" d="M170.29,469H283.84v-12H170.29Zm134.57,42H149.27a21,21,0,0,1-21-21V435.9a21,21,0,0,1,21-21H304.86a21,21,0,0,1,21,21V490A21,21,0,0,1,304.86,511Z"/><path class="cls-27" d="M169.29,470H284.84v-14H169.29Zm135.57,40H149.27a20,20,0,0,1-20-20V435.9a20,20,0,0,1,20-20H304.86a20,20,0,0,1,20,20V490A20,20,0,0,1,304.86,510Z"/><path class="cls-28" d="M168.28,471H285.84v-16H168.28Zm136.58,38H149.27a19,19,0,0,1-19-19V435.9a19,19,0,0,1,19-19H304.86a19,19,0,0,1,19,19V490A19,19,0,0,1,304.86,509Z"/><path class="cls-29" d="M167.28,472H286.84v-18H167.28Zm137.58,36H149.27a18,18,0,0,1-18-18V435.9a18,18,0,0,1,18-18H304.86a18,18,0,0,1,18,18V490A18,18,0,0,1,304.86,508Z"/><path class="cls-30" d="M166.28,473H287.84v-20H166.28Zm138.58,34H149.27a17,17,0,0,1-17-17V435.9a17,17,0,0,1,17-17H304.86a17,17,0,0,1,17,17V490A17,17,0,0,1,304.86,507Z"/><path class="cls-31" d="M165.28,474H288.84v-22H165.28Zm139.58,32H149.27a16,16,0,0,1-16-16V435.9a16,16,0,0,1,16-16H304.86a16,16,0,0,1,16,16V490A16,16,0,0,1,304.86,506Z"/><path class="cls-32" d="M164.28,475H289.84v-24H164.28Zm140.58,30H149.27a15,15,0,0,1-15-15V435.9a15,15,0,0,1,15-15H304.86a15,15,0,0,1,15,15V490A15,15,0,0,1,304.86,505Z"/><path class="cls-33" d="M163.28,476H290.84v-26H163.28Zm141.58,28H149.27a14,14,0,0,1-14-14V435.9a14,14,0,0,1,14-14H304.86a14,14,0,0,1,14,14V490A14,14,0,0,1,304.86,504Z"/><path class="cls-34" d="M162.28,477H291.84V448.92H162.28Zm142.58,26H149.27a13,13,0,0,1-13-13V435.9a13,13,0,0,1,13-13H304.86a13,13,0,0,1,13,13V490A13,13,0,0,1,304.86,503Z"/><path class="cls-35" d="M161.28,478H292.85V447.91H161.28Zm143.58,24H149.27a12,12,0,0,1-12-12V435.9a12,12,0,0,1,12-12H304.86a12,12,0,0,1,12,12V490A12,12,0,0,1,304.86,502Z"/><path class="cls-36" d="M160.28,479H293.85V446.91H160.28Zm144.58,22H149.27a11,11,0,0,1-11-11V435.9a11,11,0,0,1,11-11H304.86a11,11,0,0,1,11,11V490A11,11,0,0,1,304.86,501Z"/><path class="cls-1" d="M288.22,184c-8.05-21-24.86-26.21-37.12-22.09-15.47,5.19-42,20.55-66.49,37.6s-47.05,35.8-54.55,47.75c-11.38,18.12-14.46,92.53-7.28,119.05,2.77,10.25,6.61,17.7,10,24.27,5.52,10.71,10.29,20,10.44,45.47a22,22,0,0,0,22,21.89h.14a22,22,0,0,0,21.89-22.15c-.22-36-8.59-52.31-15.32-65.38-2.84-5.51-5.08-9.86-6.64-15.6-5.23-19.34-1.35-72.42,2.66-85,8-10.44,49-41,78.15-57.24-3.08,7.76-12.55,21.38-41.62,33.88a22,22,0,0,0-9.65,32.41c5.92,8.92,5.69,41.41,1.14,51.7a22,22,0,0,0,26.16,35.19c8.84-5.36,14.79-15.36,18.2-30.58,3.06-13.73,4.69-37.18.3-57.55C294.14,247.09,296.43,205.45,288.22,184Z"/><path class="cls-2" d="M130.9,247.77c-10.49,16.71-14,83.78-8.22,113.52q.54,2.82,1.2,5.19a102.63,102.63,0,0,0,7,18c1,2.15,2.09,4.17,3.09,6.13,5.45,10.63,10.13,20.08,10.28,45.39a20.11,20.11,0,0,0,7.24,15.4l.05,0a20.29,20.29,0,0,0,14.72,4.45h.13c11.07-1.12,19.86-11.33,19.58-23.16a160.57,160.57,0,0,0-3.28-29.69,130.47,130.47,0,0,0-5.5-19.11c-2.28-6.18-4.74-11.39-7-16.27-2.57-5.49-4.72-9.93-6.07-15.68-3.3-14-2.34-41.91-.32-61.36,1.09-9.86,2.84-18.3,4.79-22.72,3.76-4.59,13.13-12.58,24.84-21.47,16.24-12.29,36.81-26.2,53.34-35.28a22.08,22.08,0,0,1-1.53,3.74,46.28,46.28,0,0,1-8.79,11.9c-5.87,5.84-14.81,12.46-28.62,18.85a24.45,24.45,0,0,0-12.67,13.66,22.17,22.17,0,0,0,1,17.55,32.36,32.36,0,0,1,2.29,9.15c.43,3,.82,6.35,1.16,9.79,1.17,11.73.19,25.64-2.28,32.32a24.63,24.63,0,0,0-4,27.9,21.26,21.26,0,0,0,3.07,4.56,20.05,20.05,0,0,0,14,6.89,19.78,19.78,0,0,0,10.78-2.41,26.4,26.4,0,0,0,5.09-3.62c6.13-5.61,10.46-14.33,13.18-26.47,3.08-13.78,4.66-37.23.23-57.43q1.84-1.29,3.59-2.61c50-30,52-69.88,44.11-90.6-5.69-14.87-15.95-21.71-25.77-22.53a26.53,26.53,0,0,0-10.89,1.35c-15.45,5.35-41.45,20.47-65.5,37.21C160.7,217.36,138.3,236,130.9,247.77Z"/><path class="cls-3" d="M131.75,248.31c-10.28,16.37-14,83.66-8,113.19.38,1.87.79,3.6,1.23,5.17a104.13,104.13,0,0,0,7,17.94c1,2.13,2.08,4.15,3.08,6.12,5.37,10.53,10,20.18,10.12,45.29a18.6,18.6,0,0,0,7.62,15l0,0a18.48,18.48,0,0,0,14.35,2.89l.11,0c10-2.22,17.76-12.66,17.28-24.17a154.21,154.21,0,0,0-4-29.42,170.58,170.58,0,0,0-5.7-19c-2.16-6-4.43-11.31-6.56-16.34-2.32-5.48-4.34-10-5.52-15.76-3.07-15.14-1.73-43.12.35-61.17,1.21-9.23,3.38-17.4,5.94-22.05,4.1-4.72,13.42-12.59,24.9-21.26,16.43-12.35,37-26.14,53.3-35a13,13,0,0,1-.95,3.17,42.65,42.65,0,0,1-7.78,12.17c-5.34,5.95-13.8,13-27.52,19.76a27.58,27.58,0,0,0-12.92,13.38,23.26,23.26,0,0,0-.76,16.62,49.77,49.77,0,0,1,1.43,8.93c.31,3,.72,6.36,1.19,9.74,1.56,11.22.79,25-1.42,32.17a28.11,28.11,0,0,0-4,28,21.88,21.88,0,0,0,2.52,4.61A18.08,18.08,0,0,0,220,364.36a22.62,22.62,0,0,0,5.17-3.42c6.15-5.4,10.47-14,13.18-26.18,3.09-13.84,4.63-37.29.16-57.31,1.07-.93,2.1-1.86,3.1-2.79,50.39-29.77,52.58-69.42,44.72-90-5.59-14.6-15.79-21.35-25.53-21.83a27.81,27.81,0,0,0-10.68,1.57c-15.44,5.5-40.93,20.39-64.51,36.81C161.31,218.17,139,236.71,131.75,248.31Z"/><path class="cls-4" d="M132.6,248.84c-10.07,16-13.9,83.56-7.78,112.87q.59,2.79,1.27,5.15a103.91,103.91,0,0,0,7.1,17.85c1,2.11,2.07,4.12,3.06,6.1,5.3,10.45,9.81,20.29,10,45.2a17.21,17.21,0,0,0,8,14.52l0,0a16.68,16.68,0,0,0,14,1.34l.1,0c9-3.34,15.65-14,15-25.18a146.24,146.24,0,0,0-4.75-29.16c-1.87-7.11-3.88-13.06-5.9-18.84s-4.13-11.23-6.11-16.42c-2.07-5.45-3.95-10.08-4.95-15.84-2.84-16.28-1.14-44.32,1-61,1.33-8.61,3.91-16.51,7.09-21.38,4.44-4.87,13.71-12.61,25-21.06,16.62-12.41,37.13-26.09,53.26-34.72a7.82,7.82,0,0,1-.36,2.6,39.46,39.46,0,0,1-6.77,12.44C236,229.4,228,236.8,214.35,244a31.8,31.8,0,0,0-13.17,13.08,26,26,0,0,0-2.53,15.7c.26,1.84.36,4.95.59,8.72a83.49,83.49,0,0,0,1.2,9.68c1.94,10.71,1.41,24.27-.55,32-5.57,8.13-6.94,19.5-3.9,28.16a23.68,23.68,0,0,0,2,4.65,15.87,15.87,0,0,0,10.53,8.49,16.32,16.32,0,0,0,10.47-.87,20.57,20.57,0,0,0,5.25-3.22c6.15-5.21,10.46-13.75,13.17-25.89,3.11-13.9,4.6-37.34.09-57.19.9-1,1.78-2,2.61-3,50.81-29.5,53.11-69,45.32-89.32-5.48-14.34-15.61-21-25.28-21.14a29.64,29.64,0,0,0-10.47,1.78c-15.42,5.66-40.4,20.31-63.52,36.42C161.92,219,139.77,237.43,132.6,248.84Z"/><path class="cls-5" d="M133.45,249.37c-9.87,15.71-13.84,83.45-7.55,112.56.39,1.84.83,3.55,1.29,5.12a105.9,105.9,0,0,0,7.17,17.76c1,2.09,2.06,4.1,3.06,6.08,5.21,10.36,9.64,20.41,9.79,45.12a16,16,0,0,0,8.38,14.07l0,0a14.91,14.91,0,0,0,13.59-.21l.08,0c8.09-4.54,13.55-15.35,12.67-26.2a138.61,138.61,0,0,0-5.49-28.89c-2-6.95-4.07-12.79-6.09-18.71-1.94-5.71-3.84-11.14-5.65-16.5s-3.55-10.16-4.39-15.91c-2.57-17.44-.55-45.53,1.66-60.76,1.45-8,4.46-15.62,8.25-20.72,4.78-5,14-12.62,25-20.85,16.81-12.47,37.29-26,53.23-34.44a4.26,4.26,0,0,1,.21,2,36.43,36.43,0,0,1-5.75,12.7c-4.33,6.13-11.82,13.92-25.34,21.59A37.84,37.84,0,0,0,204.22,256a31.62,31.62,0,0,0-4.3,14.79c-.11,1.78-.33,4.81-.26,8.49a48.59,48.59,0,0,0,1.23,9.63,85.3,85.3,0,0,1,.31,31.85c-4.87,8.53-6.11,19.88-3.84,28.29a32.26,32.26,0,0,0,1.43,4.71A13.85,13.85,0,0,0,207.6,363a14.9,14.9,0,0,0,10.32-.09,18.53,18.53,0,0,0,5.32-3c6.16-5,10.46-13.45,13.18-25.59,3.12-14,4.56-37.41,0-57.08.74-1.06,1.45-2.12,2.12-3.17,51.23-29.23,53.65-68.48,45.93-88.67-5.39-14.08-15.45-20.68-25-20.45a31.56,31.56,0,0,0-10.26,2c-15.41,5.82-39.88,20.23-62.53,36C162.54,219.8,140.5,238.14,133.45,249.37Z"/><path class="cls-6" d="M134.3,249.9c-9.66,15.38-13.79,83.34-7.33,112.24.41,1.82.85,3.53,1.33,5.11a107,107,0,0,0,7.23,17.67c1,2.07,2.06,4.06,3.05,6.05,5.14,10.27,9.49,20.52,9.63,45A15,15,0,0,0,157,449.62l.06,0a13.44,13.44,0,0,0,13.21-1.76l.07-.05c7.14-5.81,11.42-16.68,10.36-27.21A132.27,132.27,0,0,0,174.44,392c-2.16-6.8-4.29-12.53-6.28-18.58-1.84-5.55-3.57-11.05-5.21-16.58s-3.13-10.24-3.83-16c-2.27-18.61,0-46.74,2.33-60.57a48.47,48.47,0,0,1,9.39-20.05c5.13-5.14,14.29-12.63,25.09-20.64,17-12.53,37.45-26,53.19-34.16a2.76,2.76,0,0,1,.8,1.47,34.16,34.16,0,0,1-4.74,13c-3.84,6.21-10.83,14.39-24.25,22.5a47.07,47.07,0,0,0-13.68,12.51c-3.31,4.62-4.88,9.73-6.06,13.86a34.73,34.73,0,0,0-1.11,8.28,34.08,34.08,0,0,0,1.25,9.57c2.67,9.69,2.63,22.9,1.18,31.7a50.44,50.44,0,0,0-3.78,28.42c.36,1.95.52,3.58.88,4.75a12.18,12.18,0,0,0,7.09,10.07,13.78,13.78,0,0,0,10.17.68,16.86,16.86,0,0,0,5.4-2.82c6.16-4.82,10.46-13.16,13.17-25.3,3.13-14,4.53-37.46-.06-57q.87-1.69,1.62-3.36c51.66-29,54.2-68,46.54-88-5.28-13.8-15.27-20.34-24.79-19.74a33.54,33.54,0,0,0-10.05,2.21c-15.39,6-39.36,20.15-61.53,35.62C163.15,220.61,141.24,238.85,134.3,249.9Z"/><path class="cls-7" d="M135.14,250.44c-9.45,15-13.73,83.23-7.1,111.91q.63,2.72,1.36,5.09A109.29,109.29,0,0,0,136.7,385c1,2.05,2.05,4,3,6,5.06,10.19,9.33,20.63,9.47,44.95a14,14,0,0,0,9.13,13.17l.06,0a12.24,12.24,0,0,0,12.83-3.31l.06-.06c6.14-7.17,9.29-18,8.06-28.22a127.45,127.45,0,0,0-7-28.35c-2.31-6.64-4.5-12.26-6.48-18.45-1.73-5.39-3.29-10.95-4.76-16.66a102.65,102.65,0,0,1-3.26-16.06c-1.95-19.77.64-47.94,3-60.36a47.4,47.4,0,0,1,10.54-19.39c5.47-5.28,14.58-12.64,25.15-20.43C213.76,225.31,234.19,212,249.72,204a3,3,0,0,1,1.38.91,31.72,31.72,0,0,1-3.72,13.23c-3.36,6.28-9.85,14.85-23.16,23.42a62,62,0,0,0-13.93,12.21c-3.58,4.31-5.78,9.11-7.83,12.94a21,21,0,0,0-2,8.06,25.55,25.55,0,0,0,1.27,9.52c3,9.18,3.23,22.22,2,31.54a68.55,68.55,0,0,0-3.72,28.55c.21,2,.18,3.66.34,4.8-.71,3.64,1.09,8.15,5.36,10.87a12.85,12.85,0,0,0,10,1.45,15.59,15.59,0,0,0,5.48-2.61c6.15-4.64,10.45-12.88,13.16-25,3.15-14.08,4.5-37.52-.13-56.84.41-1.2.79-2.38,1.13-3.55,52.08-28.68,54.73-67.54,47.15-87.38-5.19-13.54-15.1-20-24.55-19.05a37.26,37.26,0,0,0-9.84,2.43c-15.38,6.13-38.83,20.07-60.54,35.22C163.76,221.43,142,239.56,135.14,250.44Z"/><path class="cls-8" d="M136,251c-9.24,14.71-13.67,83.12-6.88,111.59.43,1.8.9,3.49,1.39,5.07a111.72,111.72,0,0,0,7.37,17.49c1,2,2,4,3,6,5,10.1,9.17,20.75,9.31,44.86a13.23,13.23,0,0,0,9.51,12.73l.06,0a11.4,11.4,0,0,0,12.45-4.87.18.18,0,0,0,.05-.07A46.06,46.06,0,0,0,178,414.57a122.7,122.7,0,0,0-7.69-28.09c-2.46-6.47-4.72-12-6.68-18.31-1.63-5.23-3-10.85-4.3-16.74a114.26,114.26,0,0,1-2.71-16.13c-1.59-20.94,1.24-49.15,3.66-60.16,1.81-6.12,6.07-12.94,11.69-18.73a299.23,299.23,0,0,1,25.21-20.22c17.38-12.65,37.78-25.87,53.12-33.6a5.88,5.88,0,0,1,2,.34,29.92,29.92,0,0,1-2.72,13.5c-2.88,6.34-8.87,15.29-22,24.33a91.68,91.68,0,0,0-14.19,11.93c-3.84,4-6.71,8.45-9.59,12a15.49,15.49,0,0,0-2.81,7.85,20.59,20.59,0,0,0,1.29,9.45c3.33,8.68,3.84,21.54,2.91,31.39a106.24,106.24,0,0,0-3.67,28.69c0,2.08-.15,3.73-.2,4.85-1.53,3.56-.39,8.47,3.64,11.65a12.07,12.07,0,0,0,9.87,2.22,14.1,14.1,0,0,0,5.55-2.4c6.16-4.45,10.45-12.59,13.17-24.73,3.15-14.13,4.46-37.58-.21-56.72.25-1.26.47-2.51.64-3.73,52.5-28.42,55.27-67.08,47.75-86.74-5.08-13.28-14.92-19.73-24.3-18.36a41.41,41.41,0,0,0-9.63,2.65c-15.36,6.28-38.31,20-59.55,34.82C164.37,222.24,142.71,240.28,136,251Z"/><path class="cls-9" d="M136.84,251.5c-9,14.38-13.62,83-6.65,111.28q.66,2.67,1.42,5a112.79,112.79,0,0,0,7.44,17.4c1,2,2,4,3,6,4.91,10,9,20.86,9.15,44.78a12.55,12.55,0,0,0,9.89,12.28h.06a10.88,10.88,0,0,0,12.07-6.42.25.25,0,0,0,0-.07,58.79,58.79,0,0,0,3.44-30.25c-2-11.87-5.3-20.24-8.42-27.82a191.51,191.51,0,0,1-6.88-18.17,152.64,152.64,0,0,1-3.85-16.82,130.39,130.39,0,0,1-2.14-16.22c-1.2-22.1,1.83-50.35,4.32-59.95,1.92-5.5,6.61-12.05,12.84-18.06,6.16-5.56,15.16-12.67,25.27-20,17.58-12.71,37.94-25.81,53.08-33.32a13.41,13.41,0,0,1,2.54-.22,28.36,28.36,0,0,1-1.7,13.76c-2.42,6.4-7.9,15.73-21,25.24a178.15,178.15,0,0,0-14.44,11.64c-4.09,3.69-7.63,7.77-11.36,11.1a12.86,12.86,0,0,0-3.66,7.62,17,17,0,0,0,1.32,9.4c3.63,8.19,4.45,20.86,3.77,31.24a225.62,225.62,0,0,0-3.61,28.81,27.88,27.88,0,0,1-.75,4.9c-2.35,3.48-1.86,8.8,1.92,12.45a11.6,11.6,0,0,0,9.72,3,13.24,13.24,0,0,0,5.63-2.2c6.15-4.26,10.45-12.3,13.16-24.43,3.17-14.2,4.43-37.64-.28-56.61.09-1.33.14-2.64.15-3.92,52.92-28.15,55.81-66.61,48.36-86.09-5-13-14.76-19.44-24.06-17.67a47.16,47.16,0,0,0-9.43,2.87c-15.34,6.44-37.78,19.9-58.55,34.42C165,223.06,143.44,241,136.84,251.5Z"/><path class="cls-10" d="M137.69,252c-8.83,14-13.57,82.91-6.43,111,.45,1.77.94,3.44,1.45,5a115.54,115.54,0,0,0,7.51,17.31c1,2,2,4,3,6,4.83,9.93,8.86,21,9,44.69a12,12,0,0,0,10.25,11.84h.06a10.7,10.7,0,0,0,11.71-8,.31.31,0,0,1,0-.08c2.59-11.4,2.87-22,1.14-31.26-2.23-11.85-5.83-20.06-9.16-27.55a136.18,136.18,0,0,1-7.08-18,123.79,123.79,0,0,1-3.39-16.9,150.18,150.18,0,0,1-1.58-16.29c-.79-23.27,2.42-51.56,5-59.76,2-4.87,7.15-11.14,14-17.39,6.5-5.69,15.45-12.68,25.33-19.81,17.77-12.78,38.1-25.76,53-33a29.16,29.16,0,0,1,3.12-.79,27.21,27.21,0,0,1-.68,14c-2,6.46-6.94,16.16-19.87,26.16-4.42,3.41-9.41,7.21-14.7,11.34-4.33,3.4-8.54,7.07-13.12,10.18a11.68,11.68,0,0,0-4.51,7.41,14.52,14.52,0,0,0,1.34,9.34c3.93,7.7,5.06,20.17,4.64,31.08-1.33,10.53-2.55,21.88-3.55,28.94a20.07,20.07,0,0,1-1.29,4.95,10,10,0,0,0,.19,13.25,11.19,11.19,0,0,0,9.57,3.76,12.2,12.2,0,0,0,5.7-2c6.15-4.08,10.45-12,13.16-24.14,3.19-14.26,4.39-37.7-.35-56.49-.08-1.4-.19-2.77-.35-4.11,53.35-27.87,56.35-66.14,49-85.45-4.88-12.75-14.59-19.15-23.81-17a56.39,56.39,0,0,0-9.22,3.09c-15.33,6.59-37.25,19.82-57.56,34C165.59,223.87,144.18,241.7,137.69,252Z"/><path class="cls-11" d="M138.54,252.56c-8.62,13.72-13.52,82.8-6.21,110.64.46,1.76,1,3.42,1.48,5a117.45,117.45,0,0,0,7.58,17.22c1,2,2,3.94,3,5.95,4.76,9.84,8.7,21.08,8.84,44.6a11.44,11.44,0,0,0,10.63,11.4h.06a10.75,10.75,0,0,0,11.33-9.52s0-.07,0-.1c1.26-12.74.71-23.36-1.17-32.26-2.5-11.84-6.34-19.88-9.89-27.29-2.88-6-5.38-11.18-7.28-17.91a105.75,105.75,0,0,1-2.94-17c-.54-5.19-.94-10.65-1-16.36-.34-24.43,3-52.77,5.65-59.56,2.16-4.25,7.69-10.25,15.14-16.73,6.84-5.83,15.74-12.69,25.39-19.6,18-12.84,38.26-25.7,53-32.77,1.31-.52,2.54-1,3.7-1.34a26.53,26.53,0,0,1,.33,14.3c-1.55,6.51-6,16.56-18.78,27.06-4.25,3.49-9.25,7.19-14.95,11.06a164.22,164.22,0,0,1-14.89,9.25,11.1,11.1,0,0,0-5.35,7.19,12.5,12.5,0,0,0,1.36,9.29c4.21,7.22,5.66,19.49,5.5,30.92-.62,10.93-1.93,22.25-3.49,29.08a16.63,16.63,0,0,1-1.84,5,10.37,10.37,0,0,0-1.53,14,11,11,0,0,0,9.42,4.54,11.52,11.52,0,0,0,5.78-1.8c6.14-3.9,10.44-11.72,13.15-23.85,3.2-14.31,4.36-37.75-.42-56.37-.24-1.46-.52-2.9-.84-4.3,53.77-27.6,56.89-65.67,49.58-84.8-4.78-12.48-14.43-18.88-23.57-16.28a69.91,69.91,0,0,0-9,3.31c-15.31,6.75-36.73,19.73-56.57,33.63C166.2,224.68,144.91,242.41,138.54,252.56Z"/><path class="cls-12" d="M277.93,187.91c-4.67-12.22-14.28-18.63-23.32-15.59-15.28,5.13-41,20.34-64.37,36.76s-44.59,34-50.86,44c-8.4,13.38-13.45,82.69-6,110.31,2.46,9.13,5.87,15.73,9.15,22.11,5.91,11.47,11.49,22.31,11.66,50.45a11,11,0,0,0,11,10.94h.06a11,11,0,0,0,11-11.07c-.2-33.42-7.59-47.75-14.1-60.4-3-5.85-5.62-10.91-7.48-17.78-6.56-24.23-.71-84.73,3.37-92.85,4.3-6.85,21.73-21.24,41.74-35.46S242.38,201.09,257,195a26.06,26.06,0,0,1,1.34,14.57c-1.77,10.38-10.56,30.31-49.53,47.08A11,11,0,0,0,204,272.8c10.21,15.37,6.45,58.07.56,65a11,11,0,0,0,11.86,18.55c6.14-3.72,10.45-11.43,13.16-23.57,3.48-15.56,4.49-41.77-1.83-60.74C281.94,244.73,285.17,206.85,277.93,187.91Z"/><path class="cls-37" d="M336.26,183.88a11,11,0,0,1-3.77-21.36c13.32-4.86,27.56-13.54,27.56-23.33a5.26,5.26,0,0,0-1.56-4.27c-3.3-3.2-11.67-5-21.92-4.72a11,11,0,0,1-.63-22c11.84-.34,27.95,1.28,37.9,10.94a27.31,27.31,0,0,1,8.23,20.06c0,25-26.35,38.3-42.05,44A10.79,10.79,0,0,1,336.26,183.88Z"/><path class="cls-37" d="M336.58,232.87A11,11,0,0,1,331.75,212c5.58-2.72,23.78-12.63,23.78-26a6.06,6.06,0,0,0-.39-2.67c-.92-.64-6.23-1.27-15.56,1.69a11,11,0,0,1-6.65-21c10.53-3.33,25.22-5.76,35.3,1.64,4.26,3.11,9.33,9.17,9.33,20.34,0,24.55-22.66,39.26-36.16,45.83A11,11,0,0,1,336.58,232.87Z"/><path class="cls-37" d="M291.7,446.91a12,12,0,0,1-1.32-.08,11,11,0,0,1-9.62-12.22c.14-1.16,3.55-29.06,19.2-65.81,16.69-39.22-3.76-91.36-4-91.89a11,11,0,0,1,20.45-8.17c1,2.48,24,61.2,3.78,108.68-14.32,33.64-17.57,59.53-17.59,59.79A11,11,0,0,1,291.7,446.91Z"/><path class="cls-37" d="M143.29,294.27a11,11,0,0,1-11-10.89c-1.2-110.84,26.38-134.39,31.92-138l12,18.47a3.46,3.46,0,0,0,.48-.34c-.24.19-23.45,20.25-22.37,119.62a11,11,0,0,1-10.89,11.12Z"/><path class="cls-38" d="M336.26,183.38a10.51,10.51,0,0,1-3.6-20.39c12.77-4.66,27.89-13.45,27.89-23.8a5.75,5.75,0,0,0-1.71-4.62c-3.41-3.32-11.88-5.31-22.28-4.87a10.51,10.51,0,1,1-.61-21c11.74-.33,27.72,1.26,37.54,10.8a26.76,26.76,0,0,1,8.08,19.7c0,24.74-26.4,38-41.72,43.54A10.29,10.29,0,0,1,336.26,183.38Z"/><path class="cls-38" d="M336.58,232.37a10.51,10.51,0,0,1-4.61-20c5.81-2.83,24.07-12.83,24.07-26.49,0-2.28-.54-3-.6-3.06-1.14-.81-6.67-1.36-16,1.6a10.51,10.51,0,1,1-6.35-20c10.42-3.29,24.94-5.71,34.86,1.56,4.16,3.05,9.12,9,9.12,19.94,0,24.28-22.48,38.86-35.88,45.38A10.42,10.42,0,0,1,336.58,232.37Z"/><path class="cls-38" d="M291.7,446.41a10.93,10.93,0,0,1-1.26-.08,10.51,10.51,0,0,1-9.19-11.66c.14-1.16,3.55-29,19.17-65.68,16.77-39.4-3.76-91.74-4-92.26a10.51,10.51,0,1,1,19.52-7.8c1,2.47,23.92,61,3.79,108.29-14.35,33.72-17.6,59.67-17.63,59.93A10.49,10.49,0,0,1,291.7,446.41Z"/><path class="cls-38" d="M143.29,293.77a10.51,10.51,0,0,1-10.51-10.39c-1.2-110.79,26.37-134.11,31.69-137.56.23-.15,11.44,16.71,11.59,16.94s.25.45.3.38c-.27.22-23.64,20.29-22.56,120a10.49,10.49,0,0,1-10.39,10.62Z"/><path class="cls-39" d="M336.26,182.87a10,10,0,0,1-3.43-19.41c12.23-4.46,28.22-13.36,28.22-24.27a6.25,6.25,0,0,0-1.87-5c-3.5-3.42-12.07-5.44-22.64-5a10,10,0,1,1-.57-20c11.63-.33,27.47,1.24,37.17,10.66a26.27,26.27,0,0,1,7.93,19.34c0,24.51-26.44,37.63-41.39,43.07A9.8,9.8,0,0,1,336.26,182.87Z"/><path class="cls-39" d="M336.58,231.86a10,10,0,0,1-4.39-19c6-2.94,24.35-13,24.35-26.94,0-2.56-.68-3.36-.8-3.46-1.36-1-7.11-1.44-16.46,1.53a10,10,0,0,1-6-19.09c10.31-3.26,24.66-5.66,34.41,1.49,4.07,3,8.92,8.78,8.92,19.53,0,24-22.31,38.46-35.6,44.93A10,10,0,0,1,336.58,231.86Z"/><path class="cls-39" d="M291.7,445.91c-.39,0-.79,0-1.2-.07a10,10,0,0,1-8.75-11.11c.14-1.16,3.54-28.92,19.13-65.54,16.85-39.59-3.75-92.12-4-92.65a10,10,0,1,1,18.59-7.43c1,2.47,23.84,60.82,3.79,107.92-14.38,33.79-17.64,59.8-17.67,60.06A10,10,0,0,1,291.7,445.91Z"/><path class="cls-39" d="M143.29,293.27a10,10,0,0,1-10-9.9c-1.2-110.73,26.36-133.82,31.46-137.13.46-.3,10.89,14.94,11.2,15.41s.31,1,.12,1.09-23.85,20.35-22.76,120.42a10,10,0,0,1-9.9,10.11Z"/><path class="cls-40" d="M336.26,182.37A9.51,9.51,0,0,1,333,163.93c11.68-4.26,28.55-13.28,28.55-24.74a6.74,6.74,0,0,0-2-5.34c-3.61-3.52-12.27-5.56-23-5.15a9.51,9.51,0,1,1-.55-19c11.53-.32,27.24,1.22,36.81,10.52a25.74,25.74,0,0,1,7.78,19c0,24.28-26.49,37.3-41.06,42.6A9.26,9.26,0,0,1,336.26,182.37Z"/><path class="cls-40" d="M336.58,231.36a9.5,9.5,0,0,1-4.17-18.05c6.26-3.06,24.63-13.23,24.63-27.39,0-2.85-.82-3.72-1-3.85-1.6-1.15-7.56-1.53-16.93,1.44a9.51,9.51,0,0,1-5.73-18.14c10.2-3.22,24.38-5.6,34,1.42,4,2.91,8.7,8.59,8.7,19.13,0,23.74-22.12,38.06-35.31,44.48A9.41,9.41,0,0,1,336.58,231.36Z"/><path class="cls-40" d="M291.7,445.41a11.07,11.07,0,0,1-1.14-.07,9.49,9.49,0,0,1-8.31-10.55c.13-1.16,3.53-28.85,19.09-65.41,16.93-39.77-3.75-92.5-4-93A9.51,9.51,0,0,1,315,269.3c1,2.45,23.77,60.62,3.8,107.53-14.42,33.87-17.67,59.94-17.7,60.2A9.51,9.51,0,0,1,291.7,445.41Z"/><path class="cls-40" d="M143.29,292.77a9.52,9.52,0,0,1-9.51-9.4c-1.2-110.69,26.35-133.55,31.23-136.71.7-.45,10.35,13.18,10.8,13.88s.39,1.53-.06,1.8-24,20.4-22.95,120.82a9.49,9.49,0,0,1-9.4,9.61Z"/><path class="cls-41" d="M336.26,181.87a9,9,0,0,1-3.09-17.47c11.14-4.06,28.88-13.19,28.88-25.21a7.28,7.28,0,0,0-2.17-5.7c-3.72-3.62-12.47-5.69-23.37-5.29a9,9,0,0,1-.51-18c11.42-.31,27,1.2,36.44,10.37a25.25,25.25,0,0,1,7.63,18.63c0,24.05-26.54,37-40.73,42.13A8.79,8.79,0,0,1,336.26,181.87Z"/><path class="cls-41" d="M336.58,230.86a9,9,0,0,1-3.95-17.1c6.49-3.17,24.91-13.43,24.91-27.84,0-3.13-1-4.07-1.19-4.25-1.82-1.31-8-1.61-17.38,1.36a9,9,0,0,1-5.43-17.18c10.09-3.19,24.1-5.56,33.51,1.35,3.88,2.83,8.5,8.39,8.5,18.72,0,23.46-21.95,37.66-35,44A9,9,0,0,1,336.58,230.86Z"/><path class="cls-41" d="M291.7,444.91a7.94,7.94,0,0,1-1.08-.07,9,9,0,0,1-7.88-10c.14-1.16,3.53-28.78,19.06-65.27,17-40-3.74-92.88-3.95-93.41a9,9,0,1,1,16.73-6.69c1,2.45,23.69,60.43,3.8,107.16-14.45,33.94-17.71,60.07-17.74,60.33A9,9,0,0,1,291.7,444.91Z"/><path class="cls-41" d="M143.29,292.27a9,9,0,0,1-9-8.91c-1.2-110.63,26.34-133.26,31-136.28.92-.6,9.79,11.41,10.4,12.34a1.86,1.86,0,0,1-.25,2.53c-.4.31-24.23,20.44-23.14,121.22a9,9,0,0,1-8.91,9.1Z"/><path class="cls-42" d="M336.26,181.37a8.51,8.51,0,0,1-2.92-16.5c10.59-3.86,29.21-13.11,29.21-25.68a7.79,7.79,0,0,0-2.32-6.06c-3.82-3.72-12.66-5.8-23.73-5.43a8.51,8.51,0,0,1-.49-17c11.32-.31,26.77,1.18,36.08,10.23a24.7,24.7,0,0,1,7.47,18.27c0,23.82-26.58,36.64-40.39,41.66A8.28,8.28,0,0,1,336.26,181.37Z"/><path class="cls-42" d="M336.58,230.36a8.5,8.5,0,0,1-3.73-16.15c6.71-3.28,25.19-13.64,25.19-28.29,0-3.42-1.09-4.43-1.39-4.64-2-1.48-8.44-1.7-17.83,1.27a8.51,8.51,0,1,1-5.13-16.22c10-3.16,23.82-5.51,33.07,1.27,3.78,2.77,8.29,8.2,8.29,18.32,0,23.19-21.77,37.26-34.75,43.58A8.4,8.4,0,0,1,336.58,230.36Z"/><path class="cls-42" d="M291.7,444.41a8.85,8.85,0,0,1-1-.06,8.5,8.5,0,0,1-7.44-9.44c.14-1.16,3.52-28.71,19-65.13,17.1-40.16-3.74-93.26-3.95-93.79a8.51,8.51,0,1,1,15.8-6.32c1,2.44,23.62,60.23,3.81,106.77-14.48,34-17.75,60.21-17.78,60.47A8.5,8.5,0,0,1,291.7,444.41Z"/><path class="cls-42" d="M143.29,291.77a8.51,8.51,0,0,1-8.51-8.42c-1.2-110.57,26.33-133,30.78-135.85,1.16-.76,9.25,9.65,10,10.81a2.36,2.36,0,0,1-.42,3.24c-.44.35-24.44,20.49-23.34,121.62a8.49,8.49,0,0,1-8.42,8.6Z"/><path class="cls-43" d="M336.26,180.87a8,8,0,0,1-2.74-15.53c10-3.66,29.53-13,29.53-26.15a8.32,8.32,0,0,0-2.47-6.42c-3.93-3.82-12.86-5.92-24.1-5.57a8,8,0,1,1-.45-16c11.22-.3,26.52,1.16,35.71,10.09a24.21,24.21,0,0,1,7.32,17.91c0,23.58-26.63,36.3-40.07,41.19A8,8,0,0,1,336.26,180.87Z"/><path class="cls-43" d="M336.58,229.86a8,8,0,0,1-3.51-15.21c6.94-3.38,25.47-13.83,25.47-28.73,0-3.71-1.23-4.78-1.58-5-2.27-1.65-8.88-1.78-18.29,1.2a8,8,0,1,1-4.83-15.27c9.87-3.12,23.55-5.46,32.62,1.19,3.69,2.71,8.09,8,8.09,17.92,0,22.92-21.6,36.86-34.47,43.13A8,8,0,0,1,336.58,229.86Z"/><path class="cls-43" d="M291.7,443.91a7.85,7.85,0,0,1-1-.06,8,8,0,0,1-7-8.89c.13-1.15,3.5-28.63,19-65,17.18-40.34-3.73-93.64-3.94-94.17a8,8,0,1,1,14.87-5.94c1,2.43,23.54,60,3.81,106.38-14.52,34.1-17.79,60.35-17.82,60.61A8,8,0,0,1,291.7,443.91Z"/><path class="cls-43" d="M143.29,291.27a8,8,0,0,1-8-7.92c-1.21-110.52,26.31-132.69,30.54-135.43,1.39-.91,8.7,7.88,9.6,9.28a2.89,2.89,0,0,1-.6,4c-.48.37-24.63,20.54-23.53,122a8,8,0,0,1-7.92,8.09Z"/><path class="cls-44" d="M336.26,180.37a7.51,7.51,0,0,1-2.57-14.56c9.49-3.46,29.86-12.94,29.86-26.62a8.8,8.8,0,0,0-2.62-6.78c-4-3.92-13.06-6-24.46-5.71a7.51,7.51,0,1,1-.43-15c11.12-.29,26.29,1.14,35.35,10a23.68,23.68,0,0,1,7.17,17.55c0,23.35-26.68,36-39.74,40.72A7.4,7.4,0,0,1,336.26,180.37Z"/><path class="cls-44" d="M336.58,229.36a7.51,7.51,0,0,1-3.29-14.26c7.17-3.49,25.75-14,25.75-29.18,0-4-1.37-5.13-1.78-5.44-2.5-1.81-9.32-1.86-18.74,1.12A7.51,7.51,0,0,1,334,167.28c9.76-3.08,23.27-5.4,32.17,1.13,3.6,2.63,7.89,7.81,7.89,17.51,0,22.65-21.42,36.47-34.19,42.69A7.55,7.55,0,0,1,336.58,229.36Z"/><path class="cls-44" d="M291.7,443.41c-.3,0-.6,0-.9-.05a7.51,7.51,0,0,1-6.57-8.34c.14-1.15,3.5-28.56,18.95-64.85,17.26-40.53-3.73-94-3.94-94.56A7.51,7.51,0,0,1,313.18,270c1,2.43,23.47,59.85,3.81,106-14.54,34.17-17.81,60.48-17.84,60.74A7.52,7.52,0,0,1,291.7,443.41Z"/><path class="cls-44" d="M143.29,290.77a7.5,7.5,0,0,1-7.5-7.43c-1.21-110.46,26.3-132.4,30.32-135,1.62-1.06,8.15,6.12,9.2,7.75a3.39,3.39,0,0,1-.79,4.67c-.52.41-24.83,20.59-23.72,122.42a7.49,7.49,0,0,1-7.43,7.59Z"/><path class="cls-45" d="M336.26,179.87a7,7,0,0,1-2.4-13.59c8.95-3.27,30.19-12.85,30.19-27.09a9.33,9.33,0,0,0-2.77-7.14c-4.15-4-13.26-6.13-24.82-5.85a7,7,0,1,1-.4-14c11-.29,26.05,1.13,35,9.81a23.15,23.15,0,0,1,7,17.19c0,23.12-26.72,35.64-39.41,40.25A6.94,6.94,0,0,1,336.26,179.87Z"/><path class="cls-45" d="M336.58,228.86a7,7,0,0,1-3.07-13.31c7.39-3.6,26-14.23,26-29.63,0-4.28-1.51-5.49-2-5.83-2.73-2-9.77-2-19.2,1a7,7,0,0,1-4.23-13.36c9.65-3,23-5.35,31.73,1.05,3.5,2.57,7.68,7.62,7.68,17.11,0,22.38-21.25,36.07-33.91,42.24A7,7,0,0,1,336.58,228.86Z"/><path class="cls-45" d="M291.7,442.91a7.89,7.89,0,0,1-.84-.05,7,7,0,0,1-6.13-7.78c.14-1.15,3.49-28.49,18.91-64.72,17.34-40.71-3.72-94.39-3.94-94.93a7,7,0,1,1,13-5.2c1,2.41,23.39,59.65,3.81,105.62-14.57,34.25-17.85,60.62-17.88,60.88A7,7,0,0,1,291.7,442.91Z"/><path class="cls-45" d="M143.29,290.27a7,7,0,0,1-7-6.93c-1.2-110.41,26.29-132.13,30.09-134.58,1.85-1.21,7.6,4.35,8.8,6.22a3.93,3.93,0,0,1-1,5.39c-.57.43-25,20.63-23.92,122.82a7,7,0,0,1-6.93,7.08Z"/><path class="cls-46" d="M336.26,179.37A6.51,6.51,0,0,1,334,166.75c8.41-3.07,30.52-12.76,30.52-27.56a9.85,9.85,0,0,0-2.92-7.5c-4.25-4.13-13.46-6.23-25.19-6a6.51,6.51,0,0,1-.37-13c10.91-.3,25.81,1.11,34.63,9.67a22.65,22.65,0,0,1,6.86,16.83c0,22.89-26.77,35.3-39.08,39.78A6.43,6.43,0,0,1,336.26,179.37Z"/><path class="cls-46" d="M336.58,228.36A6.51,6.51,0,0,1,333.73,216c7.62-3.71,26.31-14.43,26.31-30.08,0-4.56-1.65-5.84-2.17-6.23-2.95-2.15-10.21-2-19.65.95a6.5,6.5,0,1,1-3.93-12.4c9.54-3,22.72-5.31,31.28,1,3.42,2.5,7.48,7.43,7.48,16.71,0,22.1-21.07,35.67-33.63,41.79A6.57,6.57,0,0,1,336.58,228.36Z"/><path class="cls-46" d="M291.7,442.41a6.81,6.81,0,0,1-.78-.05,6.48,6.48,0,0,1-5.69-7.22c.13-1.14,3.48-28.42,18.87-64.58,17.42-40.9-3.72-94.78-3.93-95.32a6.51,6.51,0,0,1,12.09-4.83c1,2.41,23.31,59.46,3.81,105.25-14.6,34.32-17.89,60.75-17.92,61A6.5,6.5,0,0,1,291.7,442.41Z"/><path class="cls-46" d="M143.29,289.77a6.5,6.5,0,0,1-6.5-6.44c-1.2-110.35,26.29-131.84,29.86-134.15,2.09-1.36,7,2.59,8.41,4.68a4.46,4.46,0,0,1-1.15,6.11c-.6.47-25.23,20.69-24.11,123.22a6.5,6.5,0,0,1-6.44,6.58Z"/><path class="cls-47" d="M336.26,178.87a6,6,0,0,1-2.06-11.65c7.86-2.87,30.85-12.68,30.85-28a10.37,10.37,0,0,0-3.07-7.86c-4.36-4.23-13.66-6.31-25.55-6.13a6.07,6.07,0,0,1-6.18-5.84,6,6,0,0,1,5.83-6.17c10.81-.3,25.58,1.09,34.27,9.53a22.15,22.15,0,0,1,6.71,16.47c0,22.66-26.82,35-38.75,39.31A5.92,5.92,0,0,1,336.26,178.87Z"/><path class="cls-47" d="M336.58,227.86a6,6,0,0,1-2.64-11.41c7.86-3.82,26.6-14.63,26.6-30.53,0-4.85-1.79-6.19-2.37-6.62-3.17-2.32-10.65-2.12-20.1.87a6,6,0,0,1-3.63-11.45c9.43-3,22.44-5.26,30.84.9,3.32,2.43,7.27,7.23,7.27,16.3,0,21.83-20.89,35.27-33.35,41.34A6,6,0,0,1,336.58,227.86Z"/><path class="cls-47" d="M291.7,441.91c-.24,0-.48,0-.72,0a6,6,0,0,1-5.25-6.67c.13-1.14,3.47-28.35,18.83-64.44,17.5-41.1-3.71-95.16-3.93-95.7a6,6,0,1,1,11.16-4.46c1,2.4,23.24,59.26,3.82,104.86-14.64,34.4-17.92,60.89-17.95,61.15A6,6,0,0,1,291.7,441.91Z"/><path class="cls-47" d="M143.29,289.27a6,6,0,0,1-6-5.94c-1.2-110.3,26.28-131.56,29.63-133.73,2.32-1.51,6.51.83,8,3.15a5,5,0,0,1-1.33,6.82c-.64.5-25.42,20.74-24.3,123.63a6,6,0,0,1-5.94,6.07Z"/><path class="cls-48" d="M336.26,178.37a5.51,5.51,0,0,1-1.89-10.68c7.32-2.67,31.18-12.59,31.18-28.5a10.87,10.87,0,0,0-3.22-8.22c-4.47-4.33-13.87-6.7-25.92-6.27a5.64,5.64,0,0,1-5.66-5.35,5.51,5.51,0,0,1,5.35-5.66c10.7-.27,25.34,1.07,33.9,9.39a21.62,21.62,0,0,1,6.56,16.11c0,22.43-26.87,34.64-38.42,38.84A5.42,5.42,0,0,1,336.26,178.37Z"/><path class="cls-48" d="M336.58,227.36a5.51,5.51,0,0,1-2.42-10.46c8.08-3.93,26.88-14.83,26.88-31,0-5.13-1.93-6.55-2.56-7-3.41-2.49-11.1-2.2-20.56.79a5.51,5.51,0,0,1-3.33-10.5c9.32-2.94,22.17-5.2,30.39.83,3.23,2.36,7.07,7,7.07,15.9,0,21.56-20.72,34.87-33.07,40.89A5.57,5.57,0,0,1,336.58,227.36Z"/><path class="cls-48" d="M291.7,441.41c-.22,0-.44,0-.66,0a5.51,5.51,0,0,1-4.82-6.11c.14-1.14,3.47-28.28,18.8-64.31,17.58-41.28-3.71-95.54-3.92-96.08a5.51,5.51,0,0,1,10.23-4.09c.95,2.4,23.16,59.07,3.82,104.48-14.67,34.48-18,61-18,61.29A5.51,5.51,0,0,1,291.7,441.41Z"/><path class="cls-48" d="M143.29,288.77a5.51,5.51,0,0,1-5.5-5.45c-1.2-110.24,26.27-131.27,29.41-133.3a5.5,5.5,0,0,1,6.1,9.16c-.69.53-25.63,20.78-24.5,124a5.51,5.51,0,0,1-5.45,5.57Z"/><path class="cls-49" d="M336.26,283.84h-120a11,11,0,0,1,0-22H325.24V33h-144V237.9a11,11,0,1,1-22,0V22a11,11,0,0,1,11-11H336.26a11,11,0,0,1,11,11V272.83A11,11,0,0,1,336.26,283.84Z"/><path class="cls-49" d="M297.34,202.56a11,11,0,0,1-7.78-3.23l-88.25-88.24a11,11,0,0,1,15.57-15.57l88.25,88.24a11,11,0,0,1-7.79,18.8Z"/><path class="cls-49" d="M209.1,202.56a11,11,0,0,1-7.79-18.8l88.25-88.24a11,11,0,1,1,15.57,15.57l-88.25,88.24A11,11,0,0,1,209.1,202.56Z"/><path class="cls-50" d="M336.26,283.34h-120a10.51,10.51,0,0,1,0-21H325.75V32.53h-145V237.9a10.51,10.51,0,1,1-21,0V22a10.52,10.52,0,0,1,10.51-10.51H336.26A10.52,10.52,0,0,1,346.77,22V272.83A10.52,10.52,0,0,1,336.26,283.34Z"/><path class="cls-50" d="M297.34,202.06a10.48,10.48,0,0,1-7.43-3.08l-88.24-88.25a10.51,10.51,0,0,1,14.86-14.86l88.24,88.25a10.51,10.51,0,0,1-7.43,17.94Z"/><path class="cls-50" d="M209.1,202.06a10.51,10.51,0,0,1-7.43-17.94l88.24-88.25a10.51,10.51,0,1,1,14.86,14.86L216.53,199A10.48,10.48,0,0,1,209.1,202.06Z"/><path class="cls-51" d="M336.26,282.84h-120a10,10,0,0,1,0-20h110V32h-146V237.9a10,10,0,1,1-20,0V22a10,10,0,0,1,10-10H336.26a10,10,0,0,1,10,10V272.83A10,10,0,0,1,336.26,282.84Z"/><path class="cls-51" d="M297.34,201.56a10,10,0,0,1-7.08-2.93L202,110.38a10,10,0,0,1,14.16-14.16l88.24,88.25a10,10,0,0,1-7.08,17.09Z"/><path class="cls-51" d="M209.1,201.56A10,10,0,0,1,202,184.47l88.24-88.25a10,10,0,1,1,14.16,14.16l-88.24,88.25A10,10,0,0,1,209.1,201.56Z"/><path class="cls-52" d="M336.26,282.34h-120a9.51,9.51,0,0,1,0-19H326.75V31.53h-147V237.9a9.51,9.51,0,1,1-19,0V22a9.51,9.51,0,0,1,9.51-9.51H336.26a9.5,9.5,0,0,1,9.5,9.51V272.83A9.5,9.5,0,0,1,336.26,282.34Z"/><path class="cls-52" d="M297.34,201.06a9.47,9.47,0,0,1-6.72-2.79L202.38,110a9.5,9.5,0,0,1,13.44-13.44l88.24,88.24a9.52,9.52,0,0,1-6.72,16.24Z"/><path class="cls-52" d="M209.1,201.06a9.52,9.52,0,0,1-6.72-16.24l88.24-88.24A9.5,9.5,0,1,1,304.06,110l-88.24,88.25A9.46,9.46,0,0,1,209.1,201.06Z"/><path class="cls-53" d="M336.26,281.84h-120a9,9,0,0,1,0-18h111V31h-148V237.9a9,9,0,1,1-18,0V22a9,9,0,0,1,9-9H336.26a9,9,0,0,1,9,9V272.83A9,9,0,0,1,336.26,281.84Z"/><path class="cls-53" d="M297.34,200.56a9,9,0,0,1-6.37-2.64l-88.24-88.25a9,9,0,0,1,12.74-12.74l88.24,88.25a9,9,0,0,1-6.37,15.38Z"/><path class="cls-53" d="M209.1,200.56a9,9,0,0,1-6.37-15.38L291,96.93a9,9,0,1,1,12.74,12.74l-88.24,88.25A9,9,0,0,1,209.1,200.56Z"/><path class="cls-54" d="M336.26,281.34h-120a8.51,8.51,0,0,1,0-17H327.75V30.53h-149V237.9a8.51,8.51,0,1,1-17,0V22a8.51,8.51,0,0,1,8.51-8.51H336.26a8.5,8.5,0,0,1,8.5,8.51V272.83A8.5,8.5,0,0,1,336.26,281.34Z"/><path class="cls-54" d="M297.34,200.06a8.43,8.43,0,0,1-6-2.5l-88.25-88.24a8.51,8.51,0,0,1,12-12l88.24,88.24a8.52,8.52,0,0,1-6,14.53Z"/><path class="cls-54" d="M209.1,200.06a8.52,8.52,0,0,1-6-14.53l88.25-88.24a8.51,8.51,0,1,1,12,12l-88.24,88.24A8.47,8.47,0,0,1,209.1,200.06Z"/><path class="cls-55" d="M336.26,280.84h-120a8,8,0,0,1,0-16h112V30h-150V237.9a8,8,0,1,1-16,0V22a8,8,0,0,1,8-8H336.26a8,8,0,0,1,8,8V272.83A8,8,0,0,1,336.26,280.84Z"/><path class="cls-55" d="M297.34,199.56a8,8,0,0,1-5.66-2.35L203.44,109a8,8,0,0,1,11.32-11.32L303,185.89a8,8,0,0,1-5.66,13.67Z"/><path class="cls-55" d="M209.1,199.56a8,8,0,0,1-5.66-13.67l88.24-88.25A8,8,0,1,1,303,109l-88.24,88.25A8,8,0,0,1,209.1,199.56Z"/><path class="cls-56" d="M336.26,280.34h-120a7.51,7.51,0,0,1,0-15H328.75V29.53h-151V237.9a7.51,7.51,0,1,1-15,0V22a7.51,7.51,0,0,1,7.51-7.51H336.26a7.5,7.5,0,0,1,7.5,7.51V272.83A7.5,7.5,0,0,1,336.26,280.34Z"/><path class="cls-56" d="M297.34,199.06a7.52,7.52,0,0,1-5.31-2.2l-88.24-88.25A7.51,7.51,0,0,1,214.41,98l88.24,88.25a7.51,7.51,0,0,1-5.31,12.82Z"/><path class="cls-56" d="M209.1,199.06a7.51,7.51,0,0,1-5.31-12.82L292,98a7.51,7.51,0,0,1,10.62,10.62l-88.24,88.25A7.52,7.52,0,0,1,209.1,199.06Z"/><path class="cls-57" d="M336.26,279.83h-120a7,7,0,1,1,0-14h113V29h-152V237.9a7,7,0,0,1-14,0V22a7,7,0,0,1,7-7H336.26a7,7,0,0,1,7,7V272.83A7,7,0,0,1,336.26,279.83Z"/><path class="cls-57" d="M297.34,198.56a7,7,0,0,1-4.95-2.06l-88.24-88.24a7,7,0,0,1,9.9-9.91l88.25,88.24a7,7,0,0,1-5,12Z"/><path class="cls-57" d="M209.1,198.56a7,7,0,0,1-4.95-12l88.24-88.24a7,7,0,1,1,9.91,9.91L214.05,196.5A7,7,0,0,1,209.1,198.56Z"/><path class="cls-58" d="M336.26,279.33h-120a6.51,6.51,0,1,1,0-13H329.75V28.53h-153V237.9a6.51,6.51,0,0,1-13,0V22a6.51,6.51,0,0,1,6.51-6.5H336.26a6.5,6.5,0,0,1,6.5,6.5V272.83A6.5,6.5,0,0,1,336.26,279.33Z"/><path class="cls-58" d="M297.34,198.05a6.49,6.49,0,0,1-4.6-1.9L204.5,107.9a6.51,6.51,0,0,1,9.2-9.2L301.94,187a6.5,6.5,0,0,1-4.6,11.1Z"/><path class="cls-58" d="M209.1,198.05a6.5,6.5,0,0,1-4.6-11.1L292.74,98.7a6.51,6.51,0,1,1,9.2,9.2L213.7,196.15A6.49,6.49,0,0,1,209.1,198.05Z"/><path class="cls-59" d="M336.26,278.83h-120a6,6,0,1,1,0-12h114V28h-154V237.9a6,6,0,0,1-12,0V22a6,6,0,0,1,6-6H336.26a6,6,0,0,1,6,6V272.83A6,6,0,0,1,336.26,278.83Z"/><path class="cls-59" d="M297.34,197.55a5.93,5.93,0,0,1-4.24-1.76l-88.25-88.24a6,6,0,0,1,8.5-8.5l88.24,88.25a6,6,0,0,1-4.25,10.25Z"/><path class="cls-59" d="M209.1,197.55a6,6,0,0,1-4.25-10.25L293.1,99.05a6,6,0,1,1,8.49,8.5l-88.24,88.24A6,6,0,0,1,209.1,197.55Z"/><path class="cls-60" d="M336.26,278.33h-120a5.51,5.51,0,1,1,0-11H330.75V27.53h-155V237.9a5.51,5.51,0,0,1-11,0V22a5.5,5.5,0,0,1,5.5-5.5H336.26a5.5,5.5,0,0,1,5.5,5.5V272.83A5.5,5.5,0,0,1,336.26,278.33Z"/><path class="cls-60" d="M297.34,197.05a5.45,5.45,0,0,1-3.89-1.61l-88.24-88.25A5.5,5.5,0,0,1,213,99.41l88.24,88.25a5.5,5.5,0,0,1-3.89,9.39Z"/><path class="cls-60" d="M209.1,197.05a5.5,5.5,0,0,1-3.89-9.39l88.24-88.25a5.5,5.5,0,1,1,7.78,7.78L213,195.44A5.45,5.45,0,0,1,209.1,197.05Z"/><path class="cls-61" d="M160.28,479H293.85V446.91H160.28Zm144.58,22H149.27a11,11,0,0,1-11-11V435.9a11,11,0,0,1,11-11H304.86a11,11,0,0,1,11,11V490A11,11,0,0,1,304.86,501Z"/><path class="cls-62" d="M159.78,479.47H294.35V446.41H159.78Zm145.08,21H149.27A10.51,10.51,0,0,1,138.76,490V435.9a10.51,10.51,0,0,1,10.51-10.51H304.86a10.52,10.52,0,0,1,10.51,10.51V490A10.52,10.52,0,0,1,304.86,500.49Z"/><path class="cls-63" d="M159.28,480H294.85V445.91H159.28Zm145.58,20H149.27a10,10,0,0,1-10-10V435.9a10,10,0,0,1,10-10H304.86a10,10,0,0,1,10,10V490A10,10,0,0,1,304.86,500Z"/><path class="cls-64" d="M158.78,480.47H295.35V445.41H158.78Zm146.08,19H149.27a9.51,9.51,0,0,1-9.51-9.51V435.9a9.51,9.51,0,0,1,9.51-9.51H304.86a9.51,9.51,0,0,1,9.51,9.51V490A9.51,9.51,0,0,1,304.86,499.49Z"/><path class="cls-65" d="M158.27,481H295.85V444.91H158.27Zm146.59,18H149.27a9,9,0,0,1-9-9V435.9a9,9,0,0,1,9-9H304.86a9,9,0,0,1,9,9V490A9,9,0,0,1,304.86,499Z"/><path class="cls-66" d="M157.77,481.47H296.35V444.41H157.77Zm147.09,17H149.27a8.51,8.51,0,0,1-8.51-8.51V435.9a8.51,8.51,0,0,1,8.51-8.51H304.86a8.51,8.51,0,0,1,8.51,8.51V490A8.51,8.51,0,0,1,304.86,498.49Z"/><path class="cls-67" d="M157.27,482H296.85V443.91H157.27Zm147.59,16H149.27a8,8,0,0,1-8-8V435.9a8,8,0,0,1,8-8H304.86a8,8,0,0,1,8,8V490A8,8,0,0,1,304.86,498Z"/><path class="cls-68" d="M156.77,482.47H297.35V443.41H156.77Zm148.09,15H149.27a7.51,7.51,0,0,1-7.51-7.51V435.9a7.5,7.5,0,0,1,7.51-7.5H304.86a7.5,7.5,0,0,1,7.5,7.5V490A7.5,7.5,0,0,1,304.86,497.49Z"/><path class="cls-69" d="M156.27,483H297.85V442.91H156.27Zm148.59,14H149.27a7,7,0,0,1-7-7V435.9a7,7,0,0,1,7-7H304.86a7,7,0,0,1,7,7V490A7,7,0,0,1,304.86,497Z"/><path class="cls-70" d="M155.77,483.47H298.35V442.41H155.77Zm149.09,13H149.27a6.5,6.5,0,0,1-6.51-6.5V435.9a6.5,6.5,0,0,1,6.51-6.5H304.86a6.5,6.5,0,0,1,6.5,6.5V490A6.5,6.5,0,0,1,304.86,496.48Z"/><path class="cls-71" d="M155.27,484H298.85V441.91H155.27Zm149.59,12H149.27a6,6,0,0,1-6-6V435.9a6,6,0,0,1,6-6H304.86a6,6,0,0,1,6,6V490A6,6,0,0,1,304.86,496Z"/><path class="cls-72" d="M154.77,484.47H299.35V441.41H154.77Zm150.09,11H149.27a5.5,5.5,0,0,1-5.51-5.5V435.9a5.5,5.5,0,0,1,5.51-5.5H304.86a5.5,5.5,0,0,1,5.5,5.5V490A5.5,5.5,0,0,1,304.86,495.48Z"/><path class="cls-37" d="M165.23,446.91a11,11,0,0,1-11-10.94c-.17-28.14-5.75-39-11.66-50.45-3.28-6.38-6.69-13-9.15-22.11-2.74-10.1-3.8-25.78-3.63-42.26.29-28.58,4.27-59.56,9.6-68,5.6-8.91,23.07-23.92,43.43-38.72C208,196,237.7,178,254.61,172.32c9-3,18.65,3.37,23.32,15.59,7.24,18.94,4,56.82-50.18,84.15,6.32,19,5.31,45.18,1.83,60.74-2.71,12.14-7,19.85-13.16,23.57a11,11,0,0,1-11.86-18.55c3.18-3.75,5.73-17.89,5.81-32.54.07-12.51-1.67-25.4-6.37-32.48a11,11,0,0,1,4.83-16.2c39-16.77,47.76-36.7,49.53-47.08A26.06,26.06,0,0,0,257,195c-13.79,5.79-34.65,18.58-53.76,31.94-21.44,15-40.68,30.67-45.23,37.92-2.84,5.66-6.54,36.77-6.31,63.3.11,11.54,1,22.21,2.94,29.55,1.86,6.87,4.47,11.93,7.48,17.78,6.51,12.65,13.9,27,14.1,60.4a11,11,0,0,1-11,11.07Z"/><path class="cls-38" d="M139.81,253.36c5.55-8.83,22.91-23.74,43.15-38.47l1.53-1.11C209.13,196,237.66,178.7,254.25,173a14.89,14.89,0,0,1,6.43-.76c6.79.68,13.22,6.53,16.78,15.85,7.2,18.83,3.92,56.53-50.34,83.73,6.39,18.73,5.51,45,2,60.87-2.21,9.87-5.47,16.78-9.9,20.91a15.9,15.9,0,0,1-3.39,2.4,9.9,9.9,0,0,1-4.16,1.13,10.32,10.32,0,0,1-7.29-2.67,10,10,0,0,1-2.24-3,12.21,12.21,0,0,1-.35-10,11.93,11.93,0,0,1,3.71-4.93c1.35-1.85,2.58-5.62,3.5-10.5a120.28,120.28,0,0,0,1.81-22.08,90.47,90.47,0,0,0-2.41-21.27c-.43-1.62-.85-3.21-1.26-4.69a43.35,43.35,0,0,0-1.44-4.38,17.36,17.36,0,0,0-.85-1.84,10.84,10.84,0,0,1-.47-8.77,12.08,12.08,0,0,1,6.4-6.77c29.92-13.36,41.34-28.54,45.7-39.22a33.79,33.79,0,0,0,2.33-8.73,29.54,29.54,0,0,0-.1-8.06,16.53,16.53,0,0,0-2-5.59c-13.85,5.83-34.66,18.61-53.72,31.93-21.22,14.84-40.28,30.37-45.09,37.72a19.13,19.13,0,0,0-1.49,4.31c-2.57,10.3-5.24,35.91-5.12,58.51.07,11.4.86,22,2.73,29.47a71.74,71.74,0,0,0,5.18,13.86c.62,1.3,1.27,2.61,1.94,3.95,2.32,4.67,4.78,9.46,7,15.22,4,10.27,7.27,23.58,7.57,44.85a11.47,11.47,0,0,1-9.24,11.5l-.65.08h-.06a10.08,10.08,0,0,1-7.29-2.23l0,0a10.1,10.1,0,0,1-3.69-7.76c-.17-28.15-5.76-39.11-11.64-50.54-.25-.48-.5-1-.74-1.44a100.47,100.47,0,0,1-8.45-20.71c-2.73-10.07-3.78-25.8-3.6-42.32C130.6,292.53,134.54,261.75,139.81,253.36Z"/><path class="cls-39" d="M140.23,253.63c5.51-8.76,22.75-23.58,42.88-38.23l1.52-1.1c24.4-17.62,52.64-34.78,69.26-40.63a16.07,16.07,0,0,1,6.35-.9c6.74.43,13.19,6.16,16.76,15.5,7.15,18.71,3.82,56.25-50.51,83.3,6.47,18.5,5.71,44.9,2.11,61-2.22,9.93-5.51,16.82-10,20.82a13.27,13.27,0,0,1-3.45,2.23,8.94,8.94,0,0,1-4.09.77,9.29,9.29,0,0,1-8.16-6.23,13.87,13.87,0,0,1,0-10,13.14,13.14,0,0,1,3.45-5.05c1.27-2,2.42-5.79,3.26-10.56a119.52,119.52,0,0,0,1.55-22.07,83.7,83.7,0,0,0-2.8-21.17c-.47-1.59-.87-3.19-1.2-4.68s-.66-3.07-1-4.29c-.17-.62-.36-1.2-.56-1.75a11,11,0,0,1,.44-8.3,13.36,13.36,0,0,1,6.59-6.56c30-13.89,40.67-29.57,44.56-40.07a32.92,32.92,0,0,0,2-8.76,29.71,29.71,0,0,0-.49-7.95,12.59,12.59,0,0,0-2.43-4.79c-13.9,5.89-34.66,18.64-53.67,31.94-21,14.69-39.88,30.05-45,37.52a17.54,17.54,0,0,0-1.61,4.23c-2.63,9.73-5.34,35.29-5.3,58.1,0,11.27.75,21.83,2.52,29.39a72,72,0,0,0,4.89,13.88c.6,1.32,1.22,2.63,1.87,4,2.28,4.75,4.73,9.51,7,15.18,4.09,10.22,7.61,23.29,8.08,44.55a12.19,12.19,0,0,1-8.24,11.94,5.08,5.08,0,0,1-.59.15l-.05,0a9.19,9.19,0,0,1-7.1-1.53l0,0a9.31,9.31,0,0,1-3.87-7.54c-.17-28.15-5.76-39.23-11.63-50.63l-.74-1.44a100.41,100.41,0,0,1-8.48-20.74c-2.72-10-3.75-25.82-3.57-42.38C131.12,292.49,135,261.92,140.23,253.63Z"/><path class="cls-40" d="M140.66,253.89c5.45-8.69,22.59-23.4,42.6-38l1.52-1.09c24.14-17.46,52.11-34.48,68.75-40.48a17.35,17.35,0,0,1,6.28-1c6.68.16,13.14,5.8,16.72,15.15,7.11,18.59,3.73,56-50.68,82.87,6.55,18.27,5.93,44.76,2.26,61.15-2.23,10-5.55,16.87-10.05,20.74a11.39,11.39,0,0,1-3.51,2.05,7.85,7.85,0,0,1-4,.4,8.52,8.52,0,0,1-5.46-3.65,9.66,9.66,0,0,1-1.33-3.07,16.21,16.21,0,0,1,.37-10,14.74,14.74,0,0,1,3.19-5.17,36.76,36.76,0,0,0,3-10.62,119.25,119.25,0,0,0,1.29-22.06c-.24-7.65-1.24-15.13-3.19-21.06a31.81,31.81,0,0,1-1.14-4.68c-.27-1.6-.41-3.05-.53-4.2a15.79,15.79,0,0,0-.27-1.65,11.79,11.79,0,0,1,1.35-7.85,15.23,15.23,0,0,1,6.79-6.34c30.09-14.35,40-30.61,43.41-40.93a30.6,30.6,0,0,0,1.61-8.78,28.36,28.36,0,0,0-.88-7.84,9.75,9.75,0,0,0-2.83-4c-13.95,5.94-34.65,18.67-53.63,31.94-20.77,14.54-39.47,29.74-44.8,37.32a16.92,16.92,0,0,0-1.73,4.15c-2.68,9.18-5.44,34.68-5.48,57.7,0,11.14.64,21.64,2.31,29.3a71.8,71.8,0,0,0,4.6,13.91c.58,1.33,1.18,2.65,1.8,4,2.24,4.83,4.67,9.58,6.94,15.14,4.21,10.18,8,23,8.6,44.26.15,5.55-3.07,10.49-7.24,12.39l-.52.22h-.05a8.25,8.25,0,0,1-6.92-.83h0a8.63,8.63,0,0,1-4.05-7.31c-.17-28.16-5.77-39.35-11.62-50.73l-.74-1.44a100.14,100.14,0,0,1-8.5-20.77c-2.72-10-3.74-25.84-3.54-42.44C131.65,292.45,135.51,262.09,140.66,253.89Z"/><path class="cls-41" d="M141.08,254.16c5.41-8.62,22.43-23.23,42.33-37.74l1.51-1.09c23.9-17.28,51.59-34.18,68.25-40.31a18.78,18.78,0,0,1,6.21-1.19c6.62-.11,13.1,5.43,16.68,14.79,7.07,18.49,3.64,55.69-50.84,82.45,6.62,18,6.13,44.62,2.4,61.29C225.38,342.41,222,349.28,217.5,353a10.09,10.09,0,0,1-3.58,1.89,7.15,7.15,0,0,1-4,0,7.49,7.49,0,0,1-4.54-4.14,11.83,11.83,0,0,1-.87-3.09,19.51,19.51,0,0,1,.73-10,17.33,17.33,0,0,1,2.94-5.3A41.68,41.68,0,0,0,211,321.77a119.46,119.46,0,0,0,1-22c-.34-7.72-1.47-15.19-3.58-21a20.22,20.22,0,0,1-1.08-4.66,24.44,24.44,0,0,1-.08-4.12c0-.55,0-1.07,0-1.56a13.55,13.55,0,0,1,2.26-7.38,17.72,17.72,0,0,1,7-6.14c30.17-14.85,39.33-31.64,42.27-41.78a29.92,29.92,0,0,0,1.24-8.8,26.92,26.92,0,0,0-1.26-7.73,8.2,8.2,0,0,0-3.24-3.18c-14,6-34.65,18.69-53.58,31.94-20.55,14.39-39.07,29.43-44.66,37.12a16,16,0,0,0-1.85,4.07c-2.73,8.61-5.54,34.06-5.66,57.29,0,11,.53,21.44,2.1,29.22A72.72,72.72,0,0,0,156.21,367c.56,1.33,1.13,2.66,1.73,4,2.2,4.91,4.6,9.63,6.91,15.09,4.29,10.15,8.3,22.74,9.11,44a15,15,0,0,1-6.24,12.84l-.46.28,0,0a7.47,7.47,0,0,1-6.73-.13l0,0a8,8,0,0,1-4.24-7.07c-.17-28.17-5.77-39.48-11.6-50.82l-.75-1.44a100.42,100.42,0,0,1-8.53-20.81c-2.7-10-3.72-25.86-3.51-42.49C132.18,292.42,136,262.25,141.08,254.16Z"/><path class="cls-42" d="M141.5,254.43c5.37-8.55,22.27-23.07,42.07-37.5l1.49-1.08c23.65-17.11,51.07-33.88,67.75-40.16a21.14,21.14,0,0,1,6.14-1.33c6.56-.38,13.06,5.07,16.64,14.44,7,18.37,3.55,55.4-51,82,6.69,17.81,6.33,44.49,2.55,61.43-2.26,10.11-5.64,17-10.2,20.57a8.78,8.78,0,0,1-3.64,1.71,6.59,6.59,0,0,1-3.91-.33,5.66,5.66,0,0,1-3.63-4.63,10.21,10.21,0,0,1-.41-3.11,24.69,24.69,0,0,1,1.09-9.94,20.91,20.91,0,0,1,2.68-5.42,47.3,47.3,0,0,0,2.53-10.73,119.27,119.27,0,0,0,.77-22c-.45-7.79-1.71-15.24-4-20.86a14.79,14.79,0,0,1-1-4.65,13.91,13.91,0,0,1,.38-4c.13-.51.22-1,.31-1.46a16.93,16.93,0,0,1,3.17-6.92,21.2,21.2,0,0,1,7.19-5.93c30.24-15.38,38.64-32.68,41.13-42.63a29.09,29.09,0,0,0,.87-8.83,25.29,25.29,0,0,0-1.64-7.62,7.72,7.72,0,0,0-3.65-2.38c-14.05,6-34.65,18.72-53.53,31.95-20.33,14.23-38.67,29.11-44.52,36.91a16.13,16.13,0,0,0-2,4c-2.77,8.05-5.64,33.45-5.84,56.89-.08,10.87.43,21.25,1.89,29.14a73.1,73.1,0,0,0,4,14c.53,1.35,1.09,2.68,1.66,4,2.16,5,4.54,9.7,6.87,15.05,4.4,10.12,8.69,22.47,9.63,43.68a17.61,17.61,0,0,1-5.24,13.29,4.47,4.47,0,0,1-.4.34l0,0a6.76,6.76,0,0,1-6.54.56h0a7.48,7.48,0,0,1-4.42-6.85c-.17-28.17-5.78-39.6-11.59-50.91l-.75-1.44c-3.09-6-6.26-12.34-8.56-20.84-2.69-10-3.7-25.88-3.48-42.55C132.7,292.38,136.48,262.42,141.5,254.43Z"/><path class="cls-43" d="M141.93,254.69c5.32-8.48,22.11-22.89,41.79-37.24l1.48-1.09c23.41-16.94,50.54-33.57,67.25-40a23.63,23.63,0,0,1,6.07-1.48c6.51-.66,13,4.7,16.61,14.09,7,18.25,3.44,55.11-51.17,81.59,6.77,17.57,6.54,44.35,2.69,61.57q-3.41,15.25-10.27,20.49a8,8,0,0,1-3.71,1.53,6.08,6.08,0,0,1-3.84-.69,5,5,0,0,1-2.72-5.12,18,18,0,0,1,.06-3.13,33.47,33.47,0,0,1,1.44-9.92,26.81,26.81,0,0,1,2.42-5.54A54.33,54.33,0,0,0,212.32,319a119.57,119.57,0,0,0,.51-22c-.55-7.87-2-15.29-4.35-20.75a11.53,11.53,0,0,1-1-4.65,9.4,9.4,0,0,1,.84-3.94c.22-.47.41-.93.59-1.37a23.87,23.87,0,0,1,4.09-6.45,26.22,26.22,0,0,1,7.38-5.72c30.32-15.91,37.94-33.73,40-43.49a29,29,0,0,0,.51-8.85,23.9,23.9,0,0,0-2-7.51,8.54,8.54,0,0,0-4.05-1.58c-14.1,6.1-34.66,18.75-53.49,32-20.11,14.09-38.27,28.8-44.38,36.72a16.29,16.29,0,0,0-2.09,3.91c-2.81,7.49-5.74,32.83-6,56.47-.1,10.75.34,21.07,1.69,29.06a74.2,74.2,0,0,0,3.73,14q.76,2,1.59,4c2.11,5.07,4.48,9.75,6.83,15,4.52,10.08,9.05,22.19,10.15,43.4a21.46,21.46,0,0,1-4.24,13.73,4.23,4.23,0,0,1-.34.4l0,0a6.19,6.19,0,0,1-6.35,1.27h0a7,7,0,0,1-4.6-6.62c-.17-28.18-5.78-39.73-11.58-51l-.74-1.45c-3.11-6.05-6.29-12.36-8.59-20.87-2.69-9.93-3.69-25.89-3.46-42.61C133.23,292.34,137,262.59,141.93,254.69Z"/><path class="cls-44" d="M142.35,255c5.28-8.41,22-22.73,41.52-37l1.48-1.08c23.15-16.77,50-33.27,66.74-39.84a27.75,27.75,0,0,1,6-1.62c6.45-.94,13,4.34,16.57,13.74,6.93,18.14,3.35,54.83-51.34,81.16,6.85,17.34,6.75,44.22,2.84,61.71-2.29,10.22-5.73,17.05-10.34,20.4a7.14,7.14,0,0,1-3.77,1.36,5.73,5.73,0,0,1-3.79-1.06,4.66,4.66,0,0,1-1.8-5.6c0-.51.35-1.48.52-3.14a52.29,52.29,0,0,1,1.8-9.91,37.93,37.93,0,0,1,2.16-5.66A62.82,62.82,0,0,0,213,317.57a120.37,120.37,0,0,0,.25-22c-.66-7.94-2.19-15.34-4.74-20.65a9.51,9.51,0,0,1-.92-4.64,7.39,7.39,0,0,1,1.29-3.85c.32-.43.6-.86.88-1.27a39.23,39.23,0,0,1,5-6,35.06,35.06,0,0,1,7.58-5.52c30.39-16.44,37.23-34.77,38.84-44.34a28.39,28.39,0,0,0,.15-8.87,21.47,21.47,0,0,0-2.42-7.4,10.48,10.48,0,0,0-4.45-.77C240.3,198.4,219.8,211,201,224.2c-19.88,13.93-37.86,28.48-44.23,36.52a17,17,0,0,0-2.21,3.82c-2.85,6.93-5.84,32.23-6.21,56.07-.14,10.62.24,20.88,1.48,29a75.49,75.49,0,0,0,3.44,14c.48,1.37,1,2.71,1.52,4,2.07,5.15,4.43,9.8,6.8,14.95,4.62,10,9.34,21.92,10.66,43.11A27.59,27.59,0,0,1,169,439.88a4.34,4.34,0,0,1-.28.46l0,0a5.81,5.81,0,0,1-6.17,2h0a6.64,6.64,0,0,1-4.78-6.39c-.17-28.19-5.79-39.86-11.56-51.1l-.75-1.45c-3.12-6.07-6.32-12.38-8.62-20.9-2.68-9.9-3.66-25.91-3.42-42.67C133.76,292.3,137.45,262.76,142.35,255Z"/><path class="cls-45" d="M142.77,255.22c5.24-8.34,21.8-22.55,41.25-36.75l1.47-1.07c22.91-16.6,49.49-33,66.24-39.68a32.49,32.49,0,0,1,5.93-1.77c6.39-1.22,12.93,4,16.53,13.39,6.89,18,3.26,54.54-51.5,80.73,6.92,17.11,6.95,44.08,3,61.86-2.3,10.27-5.77,17.08-10.41,20.31a6.65,6.65,0,0,1-3.84,1.19A5.55,5.55,0,0,1,207.7,352a4.62,4.62,0,0,1-.89-6.1,20.68,20.68,0,0,0,1-3.15c.45-2.34,1-5.69,2.16-9.89.52-1.94,1.18-3.89,1.9-5.79a72.19,72.19,0,0,0,1.81-10.9,119,119,0,0,0,0-22c-.76-8-2.42-15.39-5.12-20.54a8.07,8.07,0,0,1-.86-4.64,6.34,6.34,0,0,1,1.74-3.76l1.18-1.18c1.73-1.73,3.67-3.67,5.9-5.52a51.83,51.83,0,0,1,7.77-5.31c30.46-17,36.53-35.82,37.71-45.19a28.45,28.45,0,0,0-.22-8.89,19.64,19.64,0,0,0-2.8-7.3,15,15,0,0,0-4.86,0c-14.2,6.2-34.65,18.81-53.4,31.95C181,237.6,163.22,252,156.59,260.13a18.35,18.35,0,0,0-2.33,3.75c-2.88,6.37-5.94,31.61-6.39,55.66a197.74,197.74,0,0,0,1.27,28.9,76.78,76.78,0,0,0,3.15,14c.46,1.38.94,2.73,1.45,4,2,5.24,4.38,9.86,6.76,14.91,4.76,10,9.69,21.65,11.19,42.82a37.67,37.67,0,0,1-2.25,14.63,3.85,3.85,0,0,1-.22.52l0,0a5.54,5.54,0,0,1-6,2.67h0a6.3,6.3,0,0,1-5-6.17c-.17-28.19-5.79-40-11.55-51.18l-.75-1.46c-3.13-6.08-6.34-12.4-8.65-20.93-2.67-9.87-3.64-25.93-3.39-42.72C134.28,292.26,137.94,262.92,142.77,255.22Z"/><path class="cls-46" d="M143.2,255.49c5.19-8.27,21.63-22.38,41-36.51l1.46-1.07c22.66-16.43,49-32.67,65.74-39.52a41,41,0,0,1,5.86-1.91c6.33-1.5,12.89,3.61,16.49,13,6.85,17.9,3.17,54.26-51.66,80.3,7,16.88,7.16,43.95,3.12,62-2.31,10.33-5.82,17.11-10.48,20.22a6.18,6.18,0,0,1-3.9,1,5.4,5.4,0,0,1-3.66-1.79,5,5,0,0,1,0-6.59,9.6,9.6,0,0,0,1.44-3.17c.65-2.23,1.42-5.54,2.52-9.87.49-1.94,1.06-3.93,1.65-5.91a85.46,85.46,0,0,0,1.56-11,120.07,120.07,0,0,0-.28-22c-.87-8.08-2.66-15.42-5.51-20.43a7,7,0,0,1-.8-4.63,5.77,5.77,0,0,1,2.19-3.67c.51-.36,1-.73,1.47-1.08,2.17-1.61,4.42-3.37,6.82-5.07,2.6-1.84,5.3-3.57,8-5.09,30.49-17.58,35.8-36.87,36.57-46a28.94,28.94,0,0,0-.59-8.91,17.77,17.77,0,0,0-3.18-7.19,23.42,23.42,0,0,0-5.27.84c-14.25,6.25-34.65,18.83-53.35,32-19.44,13.64-37.06,27.86-44,36.12a19.25,19.25,0,0,0-2.44,3.66c-2.92,5.82-6.05,31-6.58,55.26a217.26,217.26,0,0,0,1.05,28.81,81,81,0,0,0,2.87,14.07c.43,1.4.9,2.75,1.38,4.06a160.37,160.37,0,0,0,6.73,14.86c4.86,10,10,21.37,11.7,42.53a55.12,55.12,0,0,1-1.25,15.07,4,4,0,0,1-.16.59l0,.05a5.42,5.42,0,0,1-5.79,3.37h0a6,6,0,0,1-5.14-5.93c-.17-28.2-5.8-40.1-11.54-51.28l-.75-1.46c-3.14-6.1-6.37-12.42-8.67-21-2.67-9.84-3.63-25.95-3.37-42.78C134.81,292.23,138.43,263.09,143.2,255.49Z"/><path class="cls-47" d="M143.62,255.76c5.15-8.2,21.47-22.22,40.7-36.27l1.46-1.06c22.41-16.26,48.43-32.37,65.23-39.37a53.62,53.62,0,0,1,5.78-2.05c6.28-1.8,12.86,3.24,16.47,12.69,6.8,17.79,3.07,54-51.83,79.87,7.07,16.65,7.36,43.81,3.27,62.14-2.33,10.39-5.87,17.15-10.57,20.14a5.77,5.77,0,0,1-4,.84,5.41,5.41,0,0,1-3.6-2.16,5.18,5.18,0,0,1,.94-7.07,8.5,8.5,0,0,0,1.9-3.19,76.9,76.9,0,0,0,2.88-9.86c.46-1.94.93-4,1.39-6a101,101,0,0,0,1.32-11,121.44,121.44,0,0,0-.54-22c-1-8.15-2.92-15.46-5.89-20.33a6.11,6.11,0,0,1-.75-4.62,5.56,5.56,0,0,1,2.64-3.58l1.76-1c2.61-1.48,5.18-3.05,7.73-4.6,2.79-1.69,5.54-3.34,8.16-4.89,30.56-18.1,35.06-37.91,35.42-46.9a29.56,29.56,0,0,0-.95-8.93,16,16,0,0,0-3.57-7.08,43,43,0,0,0-5.66,1.64C239,197.4,218.7,210,200,223.05c-19.21,13.48-36.64,27.54-43.79,35.91a22.62,22.62,0,0,0-2.57,3.59c-2.95,5.26-6.15,30.38-6.76,54.85a232.74,232.74,0,0,0,.84,28.73,82.05,82.05,0,0,0,2.58,14.09c.41,1.42.85,2.77,1.31,4.07a127.78,127.78,0,0,0,6.69,14.83c5,9.91,10.38,21.09,12.22,42.23a90.22,90.22,0,0,1-.25,15.52,4.63,4.63,0,0,1-.1.65v.06a5.41,5.41,0,0,1-5.61,4.06h0a5.73,5.73,0,0,1-5.33-5.7c-.17-28.21-5.8-40.23-11.52-51.38l-.76-1.46c-3.14-6.11-6.39-12.44-8.7-21-2.66-9.8-3.61-26-3.34-42.83C135.33,292.19,138.91,263.26,143.62,255.76Z"/><path class="cls-48" d="M165.23,441.41a5.51,5.51,0,0,1-5.51-5.47c-.17-29.47-6.32-41.4-12.27-52.94-3.15-6.13-6.42-12.46-8.73-21-2.64-9.77-3.58-26-3.3-42.89.44-26.93,4-55.66,8.63-63.06,5.23-8.33,22.13-22.75,41.87-37.07,24.86-18,54.22-36,70.44-41.41,6.22-2.08,12.81,2.87,16.43,12.34,6.76,17.67,3,53.68-52,79.44,7.15,16.42,7.57,43.67,3.42,62.28-2.34,10.45-5.92,17.2-10.64,20.06a5.51,5.51,0,0,1-5.71-9.42c1.16-.7,3.63-4.23,5.6-13.05A103.94,103.94,0,0,0,215.67,312c.82-16-1.3-33.52-7.08-42.22a5.51,5.51,0,0,1,2.41-8.11c48.24-20.75,53.36-47.1,53.32-57.46,0-9-3.49-14.61-5.27-15.93-14.25,5-37.91,19.36-59.34,34.4-21.91,15.38-41.5,31.52-46.34,39.22-3,4.72-6.25,29.77-6.94,54.45-.47,16.48.22,32.79,2.92,42.77,2,7.43,4.87,13,7.89,18.86,6.24,12.1,13.31,25.81,13.49,57.91a5.51,5.51,0,0,1-5.47,5.54Z"/><path class="cls-73" d="M336.26,275.58h-120a2.75,2.75,0,0,1,0-5.5H333.5V24.77H172.94V237.9a2.75,2.75,0,1,1-5.5,0V22a2.75,2.75,0,0,1,2.75-2.75H336.26A2.75,2.75,0,0,1,339,22V272.83A2.75,2.75,0,0,1,336.26,275.58Z"/><path class="cls-73" d="M297.34,194.3a2.72,2.72,0,0,1-1.94-.81l-88.25-88.24a2.75,2.75,0,0,1,3.9-3.89l88.24,88.24a2.76,2.76,0,0,1-2,4.7Z"/><path class="cls-73" d="M209.1,194.3a2.76,2.76,0,0,1-1.95-4.7l88.25-88.24a2.75,2.75,0,1,1,3.89,3.89l-88.24,88.24A2.76,2.76,0,0,1,209.1,194.3Z"/><path class="cls-73" d="M165.23,438.66a2.75,2.75,0,0,1-2.75-2.74c-.18-30.12-6.48-42.35-12.57-54.18-3.1-6-6.29-12.21-8.53-20.48-7.21-26.61-1.71-93.09,5-103.77C158,239,228.47,189.81,257.24,180.16c4.61-1.56,10,2.83,13,10.7,6.51,17,2.43,52.14-53.1,77.12,8,15.36,8.68,43.85,4.4,63-2.17,9.69-5.32,15.85-9.38,18.31a2.75,2.75,0,1,1-2.85-4.71c2.57-1.55,5.13-7.08,6.86-14.79,4.24-19,3.12-48.93-5.27-61.57a2.77,2.77,0,0,1-.35-2.31,2.8,2.8,0,0,1,1.56-1.74c54.41-23.4,58.91-55.86,53-71.36-2.23-5.83-5.28-7.71-6.09-7.45-27.37,9.19-97,57.58-108,75-5.23,8.33-11.43,73.25-4.35,99.41,2.09,7.71,5,13.39,8.11,19.4,6.39,12.4,13,25.23,13.18,56.67a2.75,2.75,0,0,1-2.74,2.77Z"/><path class="cls-73" d="M304.86,492.73H149.27a2.75,2.75,0,0,1-2.76-2.75V435.9a2.75,2.75,0,0,1,2.76-2.75H304.86a2.75,2.75,0,0,1,2.75,2.75V490A2.75,2.75,0,0,1,304.86,492.73ZM152,487.23H302.1V438.66H152Z"/><path class="cls-73" d="M336.26,175.61a2.75,2.75,0,0,1-.95-5.34c9.92-3.61,33-13.87,33-31.08A13.45,13.45,0,0,0,364.24,129c-7.08-6.88-21.86-7.24-27.9-7a2.84,2.84,0,0,1-2.84-2.68,2.76,2.76,0,0,1,2.67-2.83c8.39-.24,23.62.57,31.91,8.61a19,19,0,0,1,5.73,14.14c0,20.69-25.6,32.25-36.61,36.26A2.86,2.86,0,0,1,336.26,175.61Z"/><path class="cls-73" d="M336.57,224.61a2.75,2.75,0,0,1-1.2-5.23c8.55-4.16,28.42-15.76,28.42-33.46,0-4.4-1.21-7.41-3.69-9.24-4.18-3.06-12.57-2.92-23,.38a2.75,2.75,0,1,1-1.65-5.24c8.71-2.76,20.63-4.92,27.93.42,3.94,2.89,5.94,7.49,5.94,13.68,0,20.06-19.75,32.68-31.52,38.41A2.75,2.75,0,0,1,336.57,224.61Z"/><path class="cls-73" d="M291.7,438.66l-.33,0a2.74,2.74,0,0,1-2.41-3.05c.13-1.12,3.41-27.88,18.6-63.55,18-42.27-3.68-97.63-3.91-98.18a2.76,2.76,0,0,1,5.12-2c.94,2.35,22.74,58,3.85,102.38-14.85,34.89-18.17,61.77-18.2,62A2.75,2.75,0,0,1,291.7,438.66Z"/><path class="cls-73" d="M143.29,286a2.76,2.76,0,0,1-2.75-2.72c-1.2-110.65,27-130.2,28.15-131a2.75,2.75,0,0,1,3,4.6c-.41.29-26.83,20-25.67,126.31a2.77,2.77,0,0,1-2.72,2.79Z"/></svg>