<svg id="Layer_1" data-name="Layer 1" xmlns="http://www.w3.org/2000/svg" viewBox="0 0 512 512"><defs><style>.cls-1,.cls-10,.cls-11,.cls-12,.cls-13,.cls-14,.cls-15,.cls-16,.cls-17,.cls-18,.cls-19,.cls-2,.cls-20,.cls-21,.cls-22,.cls-23,.cls-24,.cls-25,.cls-26,.cls-27,.cls-28,.cls-29,.cls-3,.cls-30,.cls-31,.cls-32,.cls-33,.cls-34,.cls-35,.cls-36,.cls-37,.cls-4,.cls-5,.cls-6,.cls-7,.cls-75,.cls-8,.cls-9{fill:#00aeff;}.cls-1,.cls-38{opacity:0.1;}.cls-2,.cls-39{opacity:0.11;}.cls-3,.cls-40{opacity:0.12;}.cls-4,.cls-41{opacity:0.13;}.cls-42,.cls-5{opacity:0.14;}.cls-43,.cls-6{opacity:0.16;}.cls-44,.cls-7{opacity:0.17;}.cls-45,.cls-8{opacity:0.18;}.cls-46,.cls-9{opacity:0.19;}.cls-10,.cls-47{opacity:0.2;}.cls-11,.cls-48{opacity:0.21;}.cls-12,.cls-49{opacity:0.22;}.cls-13,.cls-50{opacity:0.23;}.cls-14,.cls-51{opacity:0.24;}.cls-15,.cls-52{opacity:0.26;}.cls-16,.cls-53{opacity:0.27;}.cls-17,.cls-54{opacity:0.28;}.cls-18,.cls-55{opacity:0.29;}.cls-19,.cls-56{opacity:0.3;}.cls-20,.cls-57{opacity:0.31;}.cls-21,.cls-58{opacity:0.32;}.cls-22,.cls-59{opacity:0.33;}.cls-23,.cls-60{opacity:0.34;}.cls-24,.cls-61{opacity:0.36;}.cls-25,.cls-62{opacity:0.37;}.cls-26,.cls-63{opacity:0.38;}.cls-27,.cls-64{opacity:0.39;}.cls-28,.cls-65{opacity:0.4;}.cls-29,.cls-66{opacity:0.41;}.cls-30,.cls-67{opacity:0.42;}.cls-31,.cls-68{opacity:0.43;}.cls-32,.cls-69{opacity:0.44;}.cls-33,.cls-70{opacity:0.46;}.cls-34,.cls-71{opacity:0.47;}.cls-35,.cls-72{opacity:0.48;}.cls-36,.cls-73{opacity:0.49;}.cls-37,.cls-74{opacity:0.5;}.cls-112,.cls-38,.cls-39,.cls-40,.cls-41,.cls-42,.cls-43,.cls-44,.cls-45,.cls-46,.cls-47,.cls-48,.cls-49,.cls-50,.cls-51,.cls-52,.cls-53,.cls-54,.cls-55,.cls-56,.cls-57,.cls-58,.cls-59,.cls-60,.cls-61,.cls-62,.cls-63,.cls-64,.cls-65,.cls-66,.cls-67,.cls-68,.cls-69,.cls-70,.cls-71,.cls-72,.cls-73,.cls-74{fill:#008a35;}.cls-112,.cls-75{opacity:0;}.cls-76{fill:#01afff;}.cls-113,.cls-76{opacity:0.03;}.cls-77{fill:#02b1ff;}.cls-114,.cls-77{opacity:0.06;}.cls-78{fill:#03b2ff;}.cls-115,.cls-78{opacity:0.08;}.cls-79{fill:#05b3ff;}.cls-116,.cls-79{opacity:0.11;}.cls-80{fill:#06b4ff;}.cls-117,.cls-80{opacity:0.14;}.cls-81{fill:#07b6ff;}.cls-118,.cls-81{opacity:0.17;}.cls-82{fill:#08b7ff;}.cls-119,.cls-82{opacity:0.19;}.cls-83{fill:#09b8ff;}.cls-120,.cls-83{opacity:0.22;}.cls-84{fill:#0ab9ff;}.cls-121,.cls-84{opacity:0.25;}.cls-85{fill:#0bbbff;}.cls-122,.cls-85{opacity:0.28;}.cls-86{fill:#0dbcff;}.cls-123,.cls-86{opacity:0.31;}.cls-87{fill:#0ebdff;}.cls-124,.cls-87{opacity:0.33;}.cls-88{fill:#0fbeff;}.cls-125,.cls-88{opacity:0.36;}.cls-89{fill:#10c0ff;}.cls-126,.cls-89{opacity:0.39;}.cls-90{fill:#11c1ff;}.cls-127,.cls-90{opacity:0.42;}.cls-91{fill:#12c2ff;}.cls-128,.cls-91{opacity:0.44;}.cls-92{fill:#13c3ff;}.cls-129,.cls-92{opacity:0.47;}.cls-93{fill:#14c5ff;}.cls-130,.cls-93{opacity:0.5;}.cls-94{fill:#16c6ff;}.cls-131,.cls-94{opacity:0.53;}.cls-95{fill:#17c7ff;}.cls-132,.cls-95{opacity:0.56;}.cls-96{fill:#18c8ff;}.cls-133,.cls-96{opacity:0.58;}.cls-97{fill:#19caff;}.cls-134,.cls-97{opacity:0.61;}.cls-98{fill:#1acbff;}.cls-135,.cls-98{opacity:0.64;}.cls-99{fill:#1bccff;}.cls-136,.cls-99{opacity:0.67;}.cls-100{fill:#1ccdff;}.cls-100,.cls-137{opacity:0.69;}.cls-101{fill:#1ecfff;}.cls-101,.cls-138{opacity:0.72;}.cls-102{fill:#1fd0ff;}.cls-102,.cls-139{opacity:0.75;}.cls-103{fill:#20d1ff;}.cls-103,.cls-140{opacity:0.78;}.cls-104{fill:#21d2ff;}.cls-104,.cls-141{opacity:0.81;}.cls-105{fill:#22d4ff;}.cls-105,.cls-142{opacity:0.83;}.cls-106{fill:#23d5ff;}.cls-106,.cls-143{opacity:0.86;}.cls-107{fill:#24d6ff;}.cls-107,.cls-144{opacity:0.89;}.cls-108{fill:#26d7ff;}.cls-108,.cls-145{opacity:0.92;}.cls-109{fill:#27d9ff;}.cls-109,.cls-146{opacity:0.94;}.cls-110{fill:#28daff;}.cls-110,.cls-147{opacity:0.97;}.cls-111{fill:#29dbff;}.cls-113{fill:#018d37;}.cls-114{fill:#019039;}.cls-115{fill:#02943b;}.cls-116{fill:#02973d;}.cls-117{fill:#039a3f;}.cls-118{fill:#039d41;}.cls-119{fill:#04a143;}.cls-120{fill:#04a445;}.cls-121{fill:#05a747;}.cls-122{fill:#05aa49;}.cls-123{fill:#06ae4b;}.cls-124{fill:#06b14d;}.cls-125{fill:#07b44f;}.cls-126{fill:#07b751;}.cls-127{fill:#08bb53;}.cls-128{fill:#08be55;}.cls-129{fill:#09c157;}.cls-130{fill:#09c459;}.cls-131{fill:#0ac85b;}.cls-132{fill:#0acb5d;}.cls-133{fill:#0bce5f;}.cls-134{fill:#0bd161;}.cls-135{fill:#0cd563;}.cls-136{fill:#0cd865;}.cls-137{fill:#0ddb67;}.cls-138{fill:#0dde69;}.cls-139{fill:#0ee26b;}.cls-140{fill:#0ee56d;}.cls-141{fill:#0fe86f;}.cls-142{fill:#0feb71;}.cls-143{fill:#10ef73;}.cls-144{fill:#10f275;}.cls-145{fill:#11f577;}.cls-146{fill:#11f879;}.cls-147{fill:#12fc7b;}.cls-148{fill:#12ff7d;}.cls-149{fill:#fff;}</style></defs><title>Line Icon 29</title><path class="cls-1" d="M256,224.35A31.65,31.65,0,1,0,287.65,256,31.69,31.69,0,0,0,256,224.35Zm0,107.34A75.69,75.69,0,1,1,331.69,256,75.77,75.77,0,0,1,256,331.69Z"/><path class="cls-1" d="M473.46,275.26h-1.82V236.74h1.82ZM490,198.2H455.12a22,22,0,0,0-22,22v71.54a22,22,0,0,0,22,22H490a22,22,0,0,0,22-22V220.23A22,22,0,0,0,490,198.2Z"/><path class="cls-1" d="M40.36,275.26H38.54V236.74h1.82ZM56.88,198.2H22a22,22,0,0,0-22,22v71.54a22,22,0,0,0,22,22H56.88a22,22,0,0,0,22-22V220.23A22,22,0,0,0,56.88,198.2Z"/><path class="cls-1" d="M256,416.84a22,22,0,0,1-22-22V117.18a22,22,0,1,1,44,0V394.82A22,22,0,0,1,256,416.84Z"/><path class="cls-2" d="M256,224a32,32,0,1,0,32,32A32,32,0,0,0,256,224Zm0,107.35A75.39,75.39,0,1,1,331.39,256,75.48,75.48,0,0,1,256,331.39Z"/><path class="cls-2" d="M471.49,275.41V236.59h2.13v38.82ZM490,313.49H455.12a21.72,21.72,0,0,1-21.71-21.72V220.23a21.71,21.71,0,0,1,21.71-21.72H490a21.71,21.71,0,0,1,21.71,21.72v71.54A21.72,21.72,0,0,1,490,313.49Z"/><path class="cls-2" d="M38.38,275.41V236.59h2.13v38.82Zm18.5,38.08H22A21.72,21.72,0,0,1,.31,291.77V220.23A21.71,21.71,0,0,1,22,198.51H56.88a21.71,21.71,0,0,1,21.71,21.72v71.54A21.72,21.72,0,0,1,56.88,313.49Z"/><path class="cls-2" d="M256,416.54a21.73,21.73,0,0,1-21.72-21.72V117.18a21.72,21.72,0,0,1,43.44,0V394.82A21.73,21.73,0,0,1,256,416.54Z"/><path class="cls-3" d="M256,223.74A32.26,32.26,0,1,0,288.26,256,32.29,32.29,0,0,0,256,223.74Zm0,107.34A75.08,75.08,0,1,1,331.08,256,75.16,75.16,0,0,1,256,331.08Z"/><path class="cls-3" d="M471.33,275.56V236.44h2.44v39.12ZM490,313.18H455.12a21.42,21.42,0,0,1-21.41-21.41V220.23a21.41,21.41,0,0,1,21.41-21.41H490a21.41,21.41,0,0,1,21.41,21.41v71.54A21.42,21.42,0,0,1,490,313.18Z"/><path class="cls-3" d="M38.23,275.56V236.44h2.44v39.12Zm18.65,37.62H22A21.42,21.42,0,0,1,.61,291.77V220.23A21.41,21.41,0,0,1,22,198.82H56.88a21.41,21.41,0,0,1,21.41,21.41v71.54A21.42,21.42,0,0,1,56.88,313.18Z"/><path class="cls-3" d="M256,416.23a21.41,21.41,0,0,1-21.41-21.41V117.18a21.41,21.41,0,0,1,42.82,0V394.82A21.41,21.41,0,0,1,256,416.23Z"/><path class="cls-4" d="M256,223.43A32.57,32.57,0,1,0,288.57,256,32.61,32.61,0,0,0,256,223.43Zm0,107.35A74.78,74.78,0,1,1,330.78,256,74.87,74.87,0,0,1,256,330.78Z"/><path class="cls-4" d="M471.18,275.71V236.28h2.74v39.43ZM490,312.88H455.12A21.11,21.11,0,0,1,434,291.77V220.23a21.11,21.11,0,0,1,21.1-21.11H490a21.11,21.11,0,0,1,21.1,21.11v71.54A21.11,21.11,0,0,1,490,312.88Z"/><path class="cls-4" d="M38.08,275.71V236.28h2.74v39.43Zm18.8,37.17H22A21.11,21.11,0,0,1,.92,291.77V220.23A21.11,21.11,0,0,1,22,199.12H56.88A21.11,21.11,0,0,1,78,220.23v71.54A21.11,21.11,0,0,1,56.88,312.88Z"/><path class="cls-4" d="M256,415.93a21.11,21.11,0,0,1-21.1-21.11V117.18a21.1,21.1,0,1,1,42.2,0V394.82A21.11,21.11,0,0,1,256,415.93Z"/><path class="cls-5" d="M256,223.13A32.87,32.87,0,1,0,288.87,256,32.9,32.9,0,0,0,256,223.13Zm0,107.34A74.47,74.47,0,1,1,330.47,256,74.56,74.56,0,0,1,256,330.47Z"/><path class="cls-5" d="M471,275.87V236.13h3v39.74Zm19,36.7H455.12a20.79,20.79,0,0,1-20.79-20.8V220.23a20.79,20.79,0,0,1,20.79-20.8H490a20.8,20.8,0,0,1,20.8,20.8v71.54A20.8,20.8,0,0,1,490,312.57Z"/><path class="cls-5" d="M37.93,275.87V236.13h3v39.74Zm19,36.7H22a20.8,20.8,0,0,1-20.8-20.8V220.23A20.8,20.8,0,0,1,22,199.43H56.88a20.79,20.79,0,0,1,20.79,20.8v71.54A20.79,20.79,0,0,1,56.88,312.57Z"/><path class="cls-5" d="M256,415.62a20.8,20.8,0,0,1-20.8-20.8V117.18a20.8,20.8,0,1,1,41.6,0V394.82A20.8,20.8,0,0,1,256,415.62Z"/><path class="cls-6" d="M256,222.82A33.18,33.18,0,1,0,289.18,256,33.22,33.22,0,0,0,256,222.82Zm0,107.34A74.16,74.16,0,1,1,330.16,256,74.25,74.25,0,0,1,256,330.16Z"/><path class="cls-6" d="M470.87,276V236h3.36v40ZM490,312.26H455.12a20.49,20.49,0,0,1-20.49-20.49V220.23a20.5,20.5,0,0,1,20.49-20.5H490a20.49,20.49,0,0,1,20.49,20.5v71.54A20.49,20.49,0,0,1,490,312.26Z"/><path class="cls-6" d="M37.77,276V236h3.36v40Zm19.11,36.24H22A20.49,20.49,0,0,1,1.53,291.77V220.23A20.49,20.49,0,0,1,22,199.73H56.88a20.5,20.5,0,0,1,20.49,20.5v71.54A20.49,20.49,0,0,1,56.88,312.26Z"/><path class="cls-6" d="M256,415.31a20.49,20.49,0,0,1-20.49-20.49V117.18a20.49,20.49,0,0,1,41,0V394.82A20.49,20.49,0,0,1,256,415.31Z"/><path class="cls-7" d="M256,222.51A33.49,33.49,0,1,0,289.49,256,33.54,33.54,0,0,0,256,222.51Zm0,107.35A73.86,73.86,0,1,1,329.86,256,73.94,73.94,0,0,1,256,329.86Z"/><path class="cls-7" d="M470.72,276.17V235.82h3.66v40.35ZM490,312H455.12a20.19,20.19,0,0,1-20.18-20.19V220.23A20.19,20.19,0,0,1,455.12,200H490a20.18,20.18,0,0,1,20.18,20.19v71.54A20.18,20.18,0,0,1,490,312Z"/><path class="cls-7" d="M37.62,276.17V235.82h3.66v40.35ZM56.88,312H22A20.18,20.18,0,0,1,1.84,291.77V220.23A20.18,20.18,0,0,1,22,200H56.88a20.19,20.19,0,0,1,20.18,20.19v71.54A20.19,20.19,0,0,1,56.88,312Z"/><path class="cls-7" d="M256,415a20.19,20.19,0,0,1-20.19-20.19V117.18a20.19,20.19,0,0,1,40.38,0V394.82A20.19,20.19,0,0,1,256,415Z"/><path class="cls-8" d="M256,222.21A33.79,33.79,0,1,0,289.79,256,33.83,33.83,0,0,0,256,222.21Zm0,107.34A73.55,73.55,0,1,1,329.55,256,73.63,73.63,0,0,1,256,329.55Z"/><path class="cls-8" d="M470.57,276.33V235.67h4v40.66ZM490,311.65H455.12a19.88,19.88,0,0,1-19.88-19.88V220.23a19.88,19.88,0,0,1,19.88-19.88H490a19.88,19.88,0,0,1,19.88,19.88v71.54A19.88,19.88,0,0,1,490,311.65Z"/><path class="cls-8" d="M37.47,276.33V235.67h4v40.66Zm19.41,35.32H22A19.88,19.88,0,0,1,2.14,291.77V220.23A19.88,19.88,0,0,1,22,200.35H56.88a19.88,19.88,0,0,1,19.88,19.88v71.54A19.88,19.88,0,0,1,56.88,311.65Z"/><path class="cls-8" d="M256,414.7a19.88,19.88,0,0,1-19.88-19.88V117.18a19.88,19.88,0,0,1,39.76,0V394.82A19.88,19.88,0,0,1,256,414.7Z"/><path class="cls-9" d="M256,221.9A34.1,34.1,0,1,0,290.1,256,34.14,34.14,0,0,0,256,221.9Zm0,107.35A73.25,73.25,0,1,1,329.25,256,73.33,73.33,0,0,1,256,329.25Z"/><path class="cls-9" d="M470.42,276.48v-41h4.27v41ZM490,311.35H455.12a19.58,19.58,0,0,1-19.57-19.58V220.23a19.58,19.58,0,0,1,19.57-19.58H490a19.58,19.58,0,0,1,19.57,19.58v71.54A19.58,19.58,0,0,1,490,311.35Z"/><path class="cls-9" d="M37.31,276.48v-41h4.27v41Zm19.57,34.87H22A19.58,19.58,0,0,1,2.45,291.77V220.23A19.58,19.58,0,0,1,22,200.65H56.88a19.58,19.58,0,0,1,19.57,19.58v71.54A19.58,19.58,0,0,1,56.88,311.35Z"/><path class="cls-9" d="M256,414.4a19.58,19.58,0,0,1-19.57-19.58V117.18a19.57,19.57,0,1,1,39.14,0V394.82A19.58,19.58,0,0,1,256,414.4Z"/><path class="cls-10" d="M256,221.6A34.4,34.4,0,1,0,290.4,256,34.44,34.44,0,0,0,256,221.6Zm0,107.34A72.94,72.94,0,1,1,328.94,256,73,73,0,0,1,256,328.94Z"/><path class="cls-10" d="M470.26,276.63V235.37h4.58v41.26ZM490,311H455.12a19.27,19.27,0,0,1-19.27-19.27V220.23A19.27,19.27,0,0,1,455.12,201H490a19.27,19.27,0,0,1,19.27,19.27v71.54A19.27,19.27,0,0,1,490,311Z"/><path class="cls-10" d="M37.16,276.63V235.37h4.58v41.26ZM56.88,311H22A19.27,19.27,0,0,1,2.75,291.77V220.23A19.27,19.27,0,0,1,22,201H56.88a19.27,19.27,0,0,1,19.27,19.27v71.54A19.27,19.27,0,0,1,56.88,311Z"/><path class="cls-10" d="M256,414.09a19.27,19.27,0,0,1-19.27-19.27V117.18a19.27,19.27,0,1,1,38.54,0V394.82A19.27,19.27,0,0,1,256,414.09Z"/><path class="cls-11" d="M256,221.29A34.71,34.71,0,1,0,290.71,256,34.75,34.75,0,0,0,256,221.29Zm0,107.34A72.63,72.63,0,1,1,328.63,256,72.71,72.71,0,0,1,256,328.63Z"/><path class="cls-11" d="M470.11,276.78V235.21H475v41.57Zm19.87,34H455.12a19,19,0,0,1-19-19V220.23a19,19,0,0,1,19-19H490a19,19,0,0,1,19,19v71.54A19,19,0,0,1,490,310.73Z"/><path class="cls-11" d="M37,276.78V235.21h4.88v41.57Zm19.87,34H22a19,19,0,0,1-19-19V220.23a19,19,0,0,1,19-19H56.88a19,19,0,0,1,19,19v71.54A19,19,0,0,1,56.88,310.73Z"/><path class="cls-11" d="M256,413.79a19,19,0,0,1-19-19V117.18a19,19,0,1,1,37.92,0V394.82A19,19,0,0,1,256,413.79Z"/><path class="cls-12" d="M256,221a35,35,0,1,0,35,35A35,35,0,0,0,256,221Zm0,107.34A72.33,72.33,0,1,1,328.33,256,72.42,72.42,0,0,1,256,328.33Z"/><path class="cls-12" d="M470,276.94V235.06h5.18v41.88Zm20,33.49H455.12a18.66,18.66,0,0,1-18.65-18.66V220.23a18.65,18.65,0,0,1,18.65-18.66H490a18.66,18.66,0,0,1,18.66,18.66v71.54A18.67,18.67,0,0,1,490,310.43Z"/><path class="cls-12" d="M36.86,276.94V235.06H42v41.88Zm20,33.49H22A18.67,18.67,0,0,1,3.36,291.77V220.23A18.66,18.66,0,0,1,22,201.57H56.88a18.65,18.65,0,0,1,18.65,18.66v71.54A18.66,18.66,0,0,1,56.88,310.43Z"/><path class="cls-12" d="M256,413.48a18.66,18.66,0,0,1-18.66-18.66V117.18a18.66,18.66,0,0,1,37.32,0V394.82A18.66,18.66,0,0,1,256,413.48Z"/><path class="cls-13" d="M256,220.68A35.32,35.32,0,1,0,291.32,256,35.36,35.36,0,0,0,256,220.68ZM256,328a72,72,0,1,1,72-72A72.1,72.1,0,0,1,256,328Z"/><path class="cls-13" d="M469.8,277.09V234.91h5.5v42.18Zm20.18,33H455.12a18.35,18.35,0,0,1-18.35-18.35V220.23a18.36,18.36,0,0,1,18.35-18.36H490a18.36,18.36,0,0,1,18.35,18.36v71.54A18.35,18.35,0,0,1,490,310.12Z"/><path class="cls-13" d="M36.7,277.09V234.91h5.5v42.18Zm20.18,33H22A18.35,18.35,0,0,1,3.67,291.77V220.23A18.36,18.36,0,0,1,22,201.87H56.88a18.36,18.36,0,0,1,18.35,18.36v71.54A18.35,18.35,0,0,1,56.88,310.12Z"/><path class="cls-13" d="M256,413.17a18.35,18.35,0,0,1-18.35-18.35V117.18a18.35,18.35,0,0,1,36.7,0V394.82A18.35,18.35,0,0,1,256,413.17Z"/><path class="cls-14" d="M256,220.37A35.63,35.63,0,1,0,291.63,256,35.68,35.68,0,0,0,256,220.37Zm0,107.35A71.72,71.72,0,1,1,327.72,256,71.81,71.81,0,0,1,256,327.72Z"/><path class="cls-14" d="M469.65,277.24V234.75h5.8v42.49ZM490,309.82H455.12a18,18,0,0,1-18-18.05V220.23a18,18,0,0,1,18-18H490a18,18,0,0,1,18,18v71.54A18,18,0,0,1,490,309.82Z"/><path class="cls-14" d="M36.55,277.24V234.75h5.8v42.49Zm20.33,32.58H22A18,18,0,0,1,4,291.77V220.23a18,18,0,0,1,18-18H56.88a18,18,0,0,1,18,18v71.54A18,18,0,0,1,56.88,309.82Z"/><path class="cls-14" d="M256,412.87A18,18,0,0,1,238,394.82V117.18a18,18,0,1,1,36.1,0V394.82A18,18,0,0,1,256,412.87Z"/><path class="cls-15" d="M256,220.07A35.93,35.93,0,1,0,291.93,256,36,36,0,0,0,256,220.07Zm0,107.34A71.41,71.41,0,1,1,327.41,256,71.49,71.49,0,0,1,256,327.41Z"/><path class="cls-15" d="M469.5,277.4V234.6h6.1v42.8ZM490,309.51H455.12a17.74,17.74,0,0,1-17.74-17.74V220.23a17.74,17.74,0,0,1,17.74-17.74H490a17.74,17.74,0,0,1,17.74,17.74v71.54A17.74,17.74,0,0,1,490,309.51Z"/><path class="cls-15" d="M36.4,277.4V234.6h6.1v42.8Zm20.48,32.11H22A17.74,17.74,0,0,1,4.28,291.77V220.23A17.74,17.74,0,0,1,22,202.49H56.88a17.74,17.74,0,0,1,17.74,17.74v71.54A17.74,17.74,0,0,1,56.88,309.51Z"/><path class="cls-15" d="M256,412.56a17.74,17.74,0,0,1-17.74-17.74V117.18a17.74,17.74,0,0,1,35.48,0V394.82A17.74,17.74,0,0,1,256,412.56Z"/><path class="cls-16" d="M256,219.76A36.24,36.24,0,1,0,292.24,256,36.28,36.28,0,0,0,256,219.76Zm0,107.35A71.11,71.11,0,1,1,327.11,256,71.19,71.19,0,0,1,256,327.11Z"/><path class="cls-16" d="M469.35,277.55v-43.1h6.41v43.1ZM490,309.21H455.12a17.44,17.44,0,0,1-17.43-17.44V220.23a17.44,17.44,0,0,1,17.43-17.44H490a17.43,17.43,0,0,1,17.43,17.44v71.54A17.43,17.43,0,0,1,490,309.21Z"/><path class="cls-16" d="M36.24,277.55v-43.1h6.41v43.1Zm20.64,31.66H22A17.43,17.43,0,0,1,4.59,291.77V220.23A17.43,17.43,0,0,1,22,202.79H56.88a17.44,17.44,0,0,1,17.43,17.44v71.54A17.44,17.44,0,0,1,56.88,309.21Z"/><path class="cls-16" d="M256,412.26a17.43,17.43,0,0,1-17.43-17.44V117.18a17.43,17.43,0,1,1,34.86,0V394.82A17.43,17.43,0,0,1,256,412.26Z"/><path class="cls-17" d="M256,219.46A36.54,36.54,0,1,0,292.54,256,36.58,36.58,0,0,0,256,219.46Zm0,107.34A70.8,70.8,0,1,1,326.8,256,70.88,70.88,0,0,1,256,326.8Z"/><path class="cls-17" d="M469.19,277.7V234.3h6.72v43.4ZM490,308.9H455.12A17.13,17.13,0,0,1,438,291.77V220.23a17.13,17.13,0,0,1,17.12-17.13H490a17.13,17.13,0,0,1,17.13,17.13v71.54A17.13,17.13,0,0,1,490,308.9Z"/><path class="cls-17" d="M36.09,277.7V234.3h6.72v43.4Zm20.79,31.2H22A17.13,17.13,0,0,1,4.89,291.77V220.23A17.13,17.13,0,0,1,22,203.1H56.88A17.13,17.13,0,0,1,74,220.23v71.54A17.13,17.13,0,0,1,56.88,308.9Z"/><path class="cls-17" d="M256,412a17.13,17.13,0,0,1-17.13-17.13V117.18a17.13,17.13,0,1,1,34.26,0V394.82A17.13,17.13,0,0,1,256,412Z"/><path class="cls-18" d="M256,219.15A36.85,36.85,0,1,0,292.85,256,36.89,36.89,0,0,0,256,219.15Zm0,107.34A70.49,70.49,0,1,1,326.49,256,70.57,70.57,0,0,1,256,326.49Z"/><path class="cls-18" d="M469,277.86V234.14h7v43.72ZM490,308.59H455.12a16.82,16.82,0,0,1-16.82-16.82V220.23a16.83,16.83,0,0,1,16.82-16.83H490a16.83,16.83,0,0,1,16.82,16.83v71.54A16.82,16.82,0,0,1,490,308.59Z"/><path class="cls-18" d="M35.94,277.86V234.14h7v43.72Zm20.94,30.73H22A16.82,16.82,0,0,1,5.2,291.77V220.23A16.83,16.83,0,0,1,22,203.4H56.88A16.83,16.83,0,0,1,73.7,220.23v71.54A16.82,16.82,0,0,1,56.88,308.59Z"/><path class="cls-18" d="M256,411.64a16.82,16.82,0,0,1-16.82-16.82V117.18a16.82,16.82,0,1,1,33.64,0V394.82A16.82,16.82,0,0,1,256,411.64Z"/><path class="cls-19" d="M256,218.84A37.16,37.16,0,1,0,293.16,256,37.2,37.2,0,0,0,256,218.84Zm0,107.35A70.19,70.19,0,1,1,326.19,256,70.27,70.27,0,0,1,256,326.19Z"/><path class="cls-19" d="M468.89,278V234h7.33v44ZM490,308.29H455.12a16.52,16.52,0,0,1-16.51-16.52V220.23a16.51,16.51,0,0,1,16.51-16.52H490a16.51,16.51,0,0,1,16.51,16.52v71.54A16.52,16.52,0,0,1,490,308.29Z"/><path class="cls-19" d="M35.79,278V234h7.32v44Zm21.09,30.28H22A16.52,16.52,0,0,1,5.51,291.77V220.23A16.51,16.51,0,0,1,22,203.71H56.88a16.51,16.51,0,0,1,16.51,16.52v71.54A16.52,16.52,0,0,1,56.88,308.29Z"/><path class="cls-19" d="M256,411.34a16.52,16.52,0,0,1-16.52-16.52V117.18a16.52,16.52,0,1,1,33,0V394.82A16.52,16.52,0,0,1,256,411.34Z"/><path class="cls-20" d="M256,218.54A37.46,37.46,0,1,0,293.46,256,37.5,37.5,0,0,0,256,218.54Zm0,107.34A69.88,69.88,0,1,1,325.88,256,70,70,0,0,1,256,325.88Z"/><path class="cls-20" d="M468.73,278.16V233.84h7.64v44.32ZM490,308H455.12a16.21,16.21,0,0,1-16.21-16.21V220.23A16.21,16.21,0,0,1,455.12,204H490a16.21,16.21,0,0,1,16.21,16.21v71.54A16.21,16.21,0,0,1,490,308Z"/><path class="cls-20" d="M35.63,278.16V233.84h7.64v44.32ZM56.88,308H22A16.21,16.21,0,0,1,5.81,291.77V220.23A16.21,16.21,0,0,1,22,204H56.88a16.21,16.21,0,0,1,16.21,16.21v71.54A16.21,16.21,0,0,1,56.88,308Z"/><path class="cls-20" d="M256,411a16.21,16.21,0,0,1-16.21-16.21V117.18a16.21,16.21,0,1,1,32.42,0V394.82A16.21,16.21,0,0,1,256,411Z"/><path class="cls-21" d="M256,218.23A37.77,37.77,0,1,0,293.77,256,37.81,37.81,0,0,0,256,218.23Zm0,107.35A69.58,69.58,0,1,1,325.58,256,69.67,69.67,0,0,1,256,325.58Z"/><path class="cls-21" d="M468.58,278.31V233.68h7.94v44.63ZM490,307.68H455.12a15.91,15.91,0,0,1-15.9-15.91V220.23a15.9,15.9,0,0,1,15.9-15.91H490a15.9,15.9,0,0,1,15.9,15.91v71.54A15.91,15.91,0,0,1,490,307.68Z"/><path class="cls-21" d="M35.48,278.31V233.68h7.94v44.63Zm21.4,29.37H22a15.91,15.91,0,0,1-15.9-15.91V220.23A15.9,15.9,0,0,1,22,204.32H56.88a15.9,15.9,0,0,1,15.9,15.91v71.54A15.91,15.91,0,0,1,56.88,307.68Z"/><path class="cls-21" d="M256,410.73a15.9,15.9,0,0,1-15.9-15.91V117.18a15.9,15.9,0,1,1,31.8,0V394.82A15.9,15.9,0,0,1,256,410.73Z"/><path class="cls-22" d="M256,217.93A38.07,38.07,0,1,0,294.07,256,38.12,38.12,0,0,0,256,217.93Zm0,107.34A69.27,69.27,0,1,1,325.27,256,69.34,69.34,0,0,1,256,325.27Z"/><path class="cls-22" d="M468.43,278.47V233.53h8.24v44.94ZM490,307.37H455.12a15.6,15.6,0,0,1-15.6-15.6V220.23a15.6,15.6,0,0,1,15.6-15.6H490a15.6,15.6,0,0,1,15.6,15.6v71.54A15.6,15.6,0,0,1,490,307.37Z"/><path class="cls-22" d="M35.33,278.47V233.53h8.24v44.94Zm21.55,28.9H22a15.6,15.6,0,0,1-15.6-15.6V220.23A15.6,15.6,0,0,1,22,204.63H56.88a15.6,15.6,0,0,1,15.6,15.6v71.54A15.6,15.6,0,0,1,56.88,307.37Z"/><path class="cls-22" d="M256,410.42a15.6,15.6,0,0,1-15.6-15.6V117.18a15.6,15.6,0,0,1,31.2,0V394.82A15.6,15.6,0,0,1,256,410.42Z"/><path class="cls-23" d="M256,217.62A38.38,38.38,0,1,0,294.38,256,38.43,38.43,0,0,0,256,217.62ZM256,325a69,69,0,1,1,69-69A69,69,0,0,1,256,325Z"/><path class="cls-23" d="M468.28,278.62V233.38h8.55v45.24ZM490,307.06H455.12a15.29,15.29,0,0,1-15.29-15.29V220.23a15.3,15.3,0,0,1,15.29-15.3H490a15.3,15.3,0,0,1,15.29,15.3v71.54A15.29,15.29,0,0,1,490,307.06Z"/><path class="cls-23" d="M35.17,278.62V233.38h8.55v45.24Zm21.71,28.44H22A15.29,15.29,0,0,1,6.73,291.77V220.23A15.3,15.3,0,0,1,22,204.93H56.88a15.3,15.3,0,0,1,15.29,15.3v71.54A15.29,15.29,0,0,1,56.88,307.06Z"/><path class="cls-23" d="M256,410.12a15.29,15.29,0,0,1-15.29-15.3V117.18a15.29,15.29,0,1,1,30.58,0V394.82A15.29,15.29,0,0,1,256,410.12Z"/><path class="cls-24" d="M256,217.31A38.69,38.69,0,1,0,294.69,256,38.74,38.74,0,0,0,256,217.31Zm0,107.35A68.66,68.66,0,1,1,324.66,256,68.74,68.74,0,0,1,256,324.66Z"/><path class="cls-24" d="M468.12,278.77V233.22H477v45.55Zm21.86,28H455.12a15,15,0,0,1-15-15V220.23a15,15,0,0,1,15-15H490a15,15,0,0,1,15,15v71.54A15,15,0,0,1,490,306.76Z"/><path class="cls-24" d="M35,278.77V233.22h8.86v45.55Zm21.86,28H22a15,15,0,0,1-15-15V220.23a15,15,0,0,1,15-15H56.88a15,15,0,0,1,15,15v71.54A15,15,0,0,1,56.88,306.76Z"/><path class="cls-24" d="M256,409.81a15,15,0,0,1-15-15V117.18a15,15,0,0,1,30,0V394.82A15,15,0,0,1,256,409.81Z"/><path class="cls-25" d="M256,217a39,39,0,1,0,39,39A39,39,0,0,0,256,217Zm0,107.34A68.35,68.35,0,1,1,324.35,256,68.43,68.43,0,0,1,256,324.35Z"/><path class="cls-25" d="M468,278.93V233.07h9.16v45.86Zm22,27.52H455.12a14.68,14.68,0,0,1-14.68-14.68V220.23a14.69,14.69,0,0,1,14.68-14.69H490a14.69,14.69,0,0,1,14.68,14.69v71.54A14.68,14.68,0,0,1,490,306.45Z"/><path class="cls-25" d="M34.87,278.93V233.07H44v45.86Zm22,27.52H22A14.68,14.68,0,0,1,7.34,291.77V220.23A14.69,14.69,0,0,1,22,205.54H56.88a14.69,14.69,0,0,1,14.68,14.69v71.54A14.68,14.68,0,0,1,56.88,306.45Z"/><path class="cls-25" d="M256,409.5a14.68,14.68,0,0,1-14.68-14.68V117.18a14.68,14.68,0,0,1,29.36,0V394.82A14.68,14.68,0,0,1,256,409.5Z"/><path class="cls-26" d="M256,216.7A39.3,39.3,0,1,0,295.3,256,39.34,39.34,0,0,0,256,216.7Zm0,107.35A68.05,68.05,0,1,1,324.05,256,68.13,68.13,0,0,1,256,324.05Z"/><path class="cls-26" d="M467.82,279.08V232.92h9.47v46.16ZM490,306.15H455.12a14.38,14.38,0,0,1-14.37-14.38V220.23a14.38,14.38,0,0,1,14.37-14.38H490a14.37,14.37,0,0,1,14.37,14.38v71.54A14.37,14.37,0,0,1,490,306.15Z"/><path class="cls-26" d="M34.71,279.08V232.92h9.47v46.16Zm22.17,27.07H22A14.37,14.37,0,0,1,7.65,291.77V220.23A14.37,14.37,0,0,1,22,205.85H56.88a14.38,14.38,0,0,1,14.37,14.38v71.54A14.38,14.38,0,0,1,56.88,306.15Z"/><path class="cls-26" d="M256,409.2a14.38,14.38,0,0,1-14.38-14.38V117.18a14.38,14.38,0,1,1,28.76,0V394.82A14.38,14.38,0,0,1,256,409.2Z"/><path class="cls-27" d="M256,216.4A39.6,39.6,0,1,0,295.6,256,39.64,39.64,0,0,0,256,216.4Zm0,107.34A67.74,67.74,0,1,1,323.74,256,67.82,67.82,0,0,1,256,323.74Z"/><path class="cls-27" d="M467.66,279.23V232.77h9.78v46.46ZM490,305.84H455.12a14.07,14.07,0,0,1-14.07-14.07V220.23a14.07,14.07,0,0,1,14.07-14.07H490a14.07,14.07,0,0,1,14.07,14.07v71.54A14.07,14.07,0,0,1,490,305.84Z"/><path class="cls-27" d="M34.56,279.23V232.77h9.78v46.46Zm22.32,26.61H22A14.07,14.07,0,0,1,8,291.77V220.23A14.07,14.07,0,0,1,22,206.16H56.88A14.07,14.07,0,0,1,71,220.23v71.54A14.07,14.07,0,0,1,56.88,305.84Z"/><path class="cls-27" d="M256,408.89a14.07,14.07,0,0,1-14.07-14.07V117.18a14.07,14.07,0,1,1,28.14,0V394.82A14.07,14.07,0,0,1,256,408.89Z"/><path class="cls-28" d="M256,216.09A39.91,39.91,0,1,0,295.91,256,40,40,0,0,0,256,216.09Zm0,107.35A67.44,67.44,0,1,1,323.44,256,67.52,67.52,0,0,1,256,323.44Z"/><path class="cls-28" d="M467.51,279.38V232.61h10.08v46.77ZM490,305.54H455.12a13.77,13.77,0,0,1-13.76-13.77V220.23a13.77,13.77,0,0,1,13.76-13.77H490a13.77,13.77,0,0,1,13.76,13.77v71.54A13.77,13.77,0,0,1,490,305.54Z"/><path class="cls-28" d="M34.41,279.38V232.61H44.49v46.77Zm22.47,26.16H22A13.77,13.77,0,0,1,8.26,291.77V220.23A13.77,13.77,0,0,1,22,206.46H56.88a13.77,13.77,0,0,1,13.76,13.77v71.54A13.77,13.77,0,0,1,56.88,305.54Z"/><path class="cls-28" d="M256,408.59a13.77,13.77,0,0,1-13.76-13.77V117.18a13.76,13.76,0,1,1,27.52,0V394.82A13.77,13.77,0,0,1,256,408.59Z"/><path class="cls-29" d="M256,215.79A40.21,40.21,0,1,0,296.21,256,40.26,40.26,0,0,0,256,215.79Zm0,107.34A67.13,67.13,0,1,1,323.13,256,67.2,67.2,0,0,1,256,323.13Z"/><path class="cls-29" d="M467.36,279.54V232.46h10.38v47.08ZM490,305.23H455.12a13.46,13.46,0,0,1-13.45-13.46V220.23a13.45,13.45,0,0,1,13.45-13.46H490a13.46,13.46,0,0,1,13.46,13.46v71.54A13.46,13.46,0,0,1,490,305.23Z"/><path class="cls-29" d="M34.26,279.54V232.46H44.64v47.08Zm22.62,25.69H22A13.46,13.46,0,0,1,8.56,291.77V220.23A13.46,13.46,0,0,1,22,206.77H56.88a13.45,13.45,0,0,1,13.45,13.46v71.54A13.46,13.46,0,0,1,56.88,305.23Z"/><path class="cls-29" d="M256,408.28a13.46,13.46,0,0,1-13.46-13.46V117.18a13.46,13.46,0,1,1,26.92,0V394.82A13.46,13.46,0,0,1,256,408.28Z"/><path class="cls-30" d="M256,215.48A40.52,40.52,0,1,0,296.52,256,40.57,40.57,0,0,0,256,215.48Zm0,107.34A66.82,66.82,0,1,1,322.82,256,66.89,66.89,0,0,1,256,322.82Z"/><path class="cls-30" d="M467.2,279.69V232.31h10.7v47.38ZM490,304.92H455.12A13.15,13.15,0,0,1,442,291.77V220.23a13.16,13.16,0,0,1,13.15-13.16H490a13.16,13.16,0,0,1,13.15,13.16v71.54A13.15,13.15,0,0,1,490,304.92Z"/><path class="cls-30" d="M34.1,279.69V232.31H44.8v47.38Zm22.78,25.23H22A13.15,13.15,0,0,1,8.87,291.77V220.23A13.16,13.16,0,0,1,22,207.07H56.88A13.16,13.16,0,0,1,70,220.23v71.54A13.15,13.15,0,0,1,56.88,304.92Z"/><path class="cls-30" d="M256,408a13.15,13.15,0,0,1-13.15-13.15V117.18a13.15,13.15,0,1,1,26.3,0V394.82A13.15,13.15,0,0,1,256,408Z"/><path class="cls-31" d="M256,215.17A40.83,40.83,0,1,0,296.83,256,40.88,40.88,0,0,0,256,215.17Zm0,107.35A66.52,66.52,0,1,1,322.52,256,66.59,66.59,0,0,1,256,322.52Z"/><path class="cls-31" d="M467.05,279.84V232.15h11v47.69ZM490,304.62H455.12a12.84,12.84,0,0,1-12.84-12.85V220.23a12.84,12.84,0,0,1,12.84-12.85H490a12.84,12.84,0,0,1,12.84,12.85v71.54A12.84,12.84,0,0,1,490,304.62Z"/><path class="cls-31" d="M34,279.84V232.15H45v47.69Zm22.93,24.78H22A12.84,12.84,0,0,1,9.18,291.77V220.23A12.84,12.84,0,0,1,22,207.38H56.88a12.84,12.84,0,0,1,12.84,12.85v71.54A12.84,12.84,0,0,1,56.88,304.62Z"/><path class="cls-31" d="M256,407.67a12.85,12.85,0,0,1-12.85-12.85V117.18a12.85,12.85,0,0,1,25.7,0V394.82A12.85,12.85,0,0,1,256,407.67Z"/><path class="cls-32" d="M256,214.87A41.13,41.13,0,1,0,297.13,256,41.18,41.18,0,0,0,256,214.87Zm0,107.34A66.21,66.21,0,1,1,322.21,256,66.28,66.28,0,0,1,256,322.21Z"/><path class="cls-32" d="M466.9,280V232h11.3v48ZM490,304.31H455.12a12.54,12.54,0,0,1-12.54-12.54V220.23a12.54,12.54,0,0,1,12.54-12.54H490a12.54,12.54,0,0,1,12.54,12.54v71.54A12.54,12.54,0,0,1,490,304.31Z"/><path class="cls-32" d="M33.8,280V232H45.1v48Zm23.08,24.31H22A12.54,12.54,0,0,1,9.48,291.77V220.23A12.54,12.54,0,0,1,22,207.69H56.88a12.54,12.54,0,0,1,12.54,12.54v71.54A12.54,12.54,0,0,1,56.88,304.31Z"/><path class="cls-32" d="M256,407.36a12.53,12.53,0,0,1-12.54-12.54V117.18a12.54,12.54,0,0,1,25.08,0V394.82A12.53,12.53,0,0,1,256,407.36Z"/><path class="cls-33" d="M256,214.56A41.44,41.44,0,1,0,297.44,256,41.49,41.49,0,0,0,256,214.56Zm0,107.35A65.91,65.91,0,1,1,321.91,256,66,66,0,0,1,256,321.91Z"/><path class="cls-33" d="M466.75,280.15v-48.3h11.61v48.3ZM490,304H455.12a12.24,12.24,0,0,1-12.23-12.24V220.23A12.24,12.24,0,0,1,455.12,208H490a12.24,12.24,0,0,1,12.23,12.24v71.54A12.24,12.24,0,0,1,490,304Z"/><path class="cls-33" d="M33.64,280.15v-48.3H45.25v48.3ZM56.88,304H22A12.24,12.24,0,0,1,9.79,291.77V220.23A12.24,12.24,0,0,1,22,208H56.88a12.24,12.24,0,0,1,12.23,12.24v71.54A12.24,12.24,0,0,1,56.88,304Z"/><path class="cls-33" d="M256,407.06a12.23,12.23,0,0,1-12.23-12.24V117.18a12.23,12.23,0,1,1,24.46,0V394.82A12.23,12.23,0,0,1,256,407.06Z"/><path class="cls-34" d="M256,214.26A41.74,41.74,0,1,0,297.74,256,41.78,41.78,0,0,0,256,214.26Zm0,107.34A65.6,65.6,0,1,1,321.6,256,65.68,65.68,0,0,1,256,321.6Z"/><path class="cls-34" d="M466.59,280.3V231.7h11.92v48.6ZM490,303.7H455.12a11.93,11.93,0,0,1-11.92-11.93V220.23a11.93,11.93,0,0,1,11.92-11.93H490a11.93,11.93,0,0,1,11.93,11.93v71.54A11.93,11.93,0,0,1,490,303.7Z"/><path class="cls-34" d="M33.49,280.3V231.7H45.41v48.6Zm23.39,23.4H22a11.93,11.93,0,0,1-11.93-11.93V220.23A11.93,11.93,0,0,1,22,208.3H56.88A11.93,11.93,0,0,1,68.8,220.23v71.54A11.93,11.93,0,0,1,56.88,303.7Z"/><path class="cls-34" d="M256,406.75a11.93,11.93,0,0,1-11.93-11.93V117.18a11.93,11.93,0,0,1,23.86,0V394.82A11.93,11.93,0,0,1,256,406.75Z"/><path class="cls-35" d="M256,214A42.05,42.05,0,1,0,298.05,256,42.1,42.1,0,0,0,256,214Zm0,107.34A65.29,65.29,0,1,1,321.29,256,65.37,65.37,0,0,1,256,321.29Z"/><path class="cls-35" d="M466.44,280.46V231.54h12.22v48.92ZM490,303.39H455.12a11.62,11.62,0,0,1-11.62-11.62V220.23a11.63,11.63,0,0,1,11.62-11.63H490a11.63,11.63,0,0,1,11.62,11.63v71.54A11.62,11.62,0,0,1,490,303.39Z"/><path class="cls-35" d="M33.34,280.46V231.54H45.56v48.92Zm23.54,22.93H22A11.62,11.62,0,0,1,10.4,291.77V220.23A11.63,11.63,0,0,1,22,208.6H56.88A11.63,11.63,0,0,1,68.5,220.23v71.54A11.62,11.62,0,0,1,56.88,303.39Z"/><path class="cls-35" d="M256,406.44a11.62,11.62,0,0,1-11.62-11.62V117.18a11.62,11.62,0,1,1,23.24,0V394.82A11.62,11.62,0,0,1,256,406.44Z"/><path class="cls-36" d="M256,213.64A42.36,42.36,0,1,0,298.36,256,42.41,42.41,0,0,0,256,213.64ZM256,321a65,65,0,1,1,65-65A65.06,65.06,0,0,1,256,321Z"/><path class="cls-36" d="M466.29,280.61V231.39h12.52v49.22ZM490,303.09H455.12a11.31,11.31,0,0,1-11.31-11.32V220.23a11.31,11.31,0,0,1,11.31-11.32H490a11.32,11.32,0,0,1,11.32,11.32v71.54A11.32,11.32,0,0,1,490,303.09Z"/><path class="cls-36" d="M33.19,280.61V231.39H45.71v49.22Zm23.69,22.48H22A11.32,11.32,0,0,1,10.7,291.77V220.23A11.32,11.32,0,0,1,22,208.91H56.88a11.31,11.31,0,0,1,11.31,11.32v71.54A11.31,11.31,0,0,1,56.88,303.09Z"/><path class="cls-36" d="M256,406.14a11.32,11.32,0,0,1-11.32-11.32V117.18a11.32,11.32,0,1,1,22.64,0V394.82A11.32,11.32,0,0,1,256,406.14Z"/><path class="cls-37" d="M256,213.34A42.66,42.66,0,1,0,298.66,256,42.71,42.71,0,0,0,256,213.34Zm0,107.34A64.68,64.68,0,1,1,320.68,256,64.75,64.75,0,0,1,256,320.68Z"/><path class="cls-37" d="M466.13,280.76H479V231.24H466.13Zm23.85,22H455.12a11,11,0,0,1-11-11V220.23a11,11,0,0,1,11-11H490a11,11,0,0,1,11,11v71.54A11,11,0,0,1,490,302.78Z"/><path class="cls-37" d="M33,280.76H45.87V231.24H33Zm23.85,22H22a11,11,0,0,1-11-11V220.23a11,11,0,0,1,11-11H56.88a11,11,0,0,1,11,11v71.54A11,11,0,0,1,56.88,302.78Z"/><path class="cls-37" d="M256,405.83a11,11,0,0,1-11-11V117.18a11,11,0,0,1,22,0V394.82A11,11,0,0,1,256,405.83Z"/><path class="cls-38" d="M490,416.84H22a22,22,0,0,1-22-22V294.22a22,22,0,0,1,44,0V372.8H468v-81a22,22,0,1,1,44,0V394.82A22,22,0,0,1,490,416.84Z"/><path class="cls-38" d="M490,242.25a22,22,0,0,1-22-22v-81H44v81a22,22,0,1,1-44,0v-103a22,22,0,0,1,22-22H490a22,22,0,0,1,22,22v103A22,22,0,0,1,490,242.25Z"/><path class="cls-39" d="M490,416.54H22A21.72,21.72,0,0,1,.31,394.82V294.22a21.72,21.72,0,1,1,43.43,0v78.89H468.26V291.77a21.72,21.72,0,0,1,43.43,0V394.82A21.72,21.72,0,0,1,490,416.54Z"/><path class="cls-39" d="M490,241.94a21.72,21.72,0,0,1-21.72-21.71V138.89H43.74v81.34a21.72,21.72,0,0,1-43.43,0v-103A21.72,21.72,0,0,1,22,95.46H490a21.72,21.72,0,0,1,21.71,21.72v103A21.71,21.71,0,0,1,490,241.94Z"/><path class="cls-40" d="M490,416.23H22A21.41,21.41,0,0,1,.61,394.82V294.22a21.41,21.41,0,1,1,42.82,0v79.19H468.57V291.77a21.41,21.41,0,1,1,42.82,0V394.82A21.41,21.41,0,0,1,490,416.23Z"/><path class="cls-40" d="M490,241.64a21.42,21.42,0,0,1-21.41-21.41V138.59H43.43v81.64a21.41,21.41,0,0,1-42.82,0v-103A21.41,21.41,0,0,1,22,95.77H490a21.41,21.41,0,0,1,21.41,21.41v103A21.42,21.42,0,0,1,490,241.64Z"/><path class="cls-41" d="M490,415.93H22A21.11,21.11,0,0,1,.92,394.82V294.22a21.11,21.11,0,0,1,42.21,0v79.5H468.87v-82a21.11,21.11,0,0,1,42.21,0V394.82A21.11,21.11,0,0,1,490,415.93Z"/><path class="cls-41" d="M490,241.33a21.11,21.11,0,0,1-21.11-21.1V138.28H43.13v81.95a21.11,21.11,0,0,1-42.21,0v-103A21.11,21.11,0,0,1,22,96.07H490a21.11,21.11,0,0,1,21.1,21.11v103A21.1,21.1,0,0,1,490,241.33Z"/><path class="cls-42" d="M490,415.62H22a20.8,20.8,0,0,1-20.8-20.8V294.22a20.8,20.8,0,0,1,41.6,0V374H469.18V291.77a20.8,20.8,0,1,1,41.6,0V394.82A20.8,20.8,0,0,1,490,415.62Z"/><path class="cls-42" d="M490,241a20.79,20.79,0,0,1-20.8-20.79V138H42.82v82.25a20.8,20.8,0,0,1-41.6,0v-103A20.8,20.8,0,0,1,22,96.38H490a20.8,20.8,0,0,1,20.8,20.8v103A20.8,20.8,0,0,1,490,241Z"/><path class="cls-43" d="M490,415.31H22A20.49,20.49,0,0,1,1.53,394.82V294.22a20.49,20.49,0,0,1,41,0v80.11h427V291.77a20.49,20.49,0,0,1,41,0V394.82A20.49,20.49,0,0,1,490,415.31Z"/><path class="cls-43" d="M490,240.72a20.49,20.49,0,0,1-20.49-20.49V137.67h-427v82.56a20.49,20.49,0,1,1-41,0v-103A20.49,20.49,0,0,1,22,96.69H490a20.49,20.49,0,0,1,20.49,20.49v103A20.49,20.49,0,0,1,490,240.72Z"/><path class="cls-44" d="M490,415H22A20.18,20.18,0,0,1,1.84,394.82V294.22a20.19,20.19,0,1,1,40.37,0v80.42H469.79V291.77a20.19,20.19,0,0,1,40.37,0V394.82A20.18,20.18,0,0,1,490,415Z"/><path class="cls-44" d="M490,240.41a20.19,20.19,0,0,1-20.19-20.18V137.36H42.21v82.87a20.19,20.19,0,0,1-40.37,0v-103A20.18,20.18,0,0,1,22,97H490a20.18,20.18,0,0,1,20.18,20.19v103A20.18,20.18,0,0,1,490,240.41Z"/><path class="cls-45" d="M490,414.7H22A19.88,19.88,0,0,1,2.14,394.82V294.22a19.88,19.88,0,1,1,39.76,0v80.72H470.1V291.77a19.88,19.88,0,0,1,39.76,0V394.82A19.88,19.88,0,0,1,490,414.7Z"/><path class="cls-45" d="M490,240.11a19.89,19.89,0,0,1-19.88-19.88V137.06H41.9v83.17a19.88,19.88,0,1,1-39.76,0v-103A19.88,19.88,0,0,1,22,97.3H490a19.88,19.88,0,0,1,19.88,19.88v103A19.89,19.89,0,0,1,490,240.11Z"/><path class="cls-46" d="M490,414.4H22A19.58,19.58,0,0,1,2.45,394.82V294.22a19.58,19.58,0,0,1,39.15,0v81H470.4V291.77a19.58,19.58,0,0,1,39.15,0V394.82A19.58,19.58,0,0,1,490,414.4Z"/><path class="cls-46" d="M490,239.8a19.58,19.58,0,0,1-19.58-19.57V136.75H41.6v83.48a19.58,19.58,0,0,1-39.15,0v-103A19.58,19.58,0,0,1,22,97.6H490a19.58,19.58,0,0,1,19.57,19.58v103A19.57,19.57,0,0,1,490,239.8Z"/><path class="cls-47" d="M490,414.09H22A19.27,19.27,0,0,1,2.75,394.82V294.22a19.27,19.27,0,0,1,38.54,0v81.33H470.71V291.77a19.27,19.27,0,1,1,38.54,0V394.82A19.27,19.27,0,0,1,490,414.09Z"/><path class="cls-47" d="M490,239.49a19.26,19.26,0,0,1-19.27-19.26V136.45H41.29v83.78a19.27,19.27,0,0,1-38.54,0v-103A19.27,19.27,0,0,1,22,97.91H490a19.27,19.27,0,0,1,19.27,19.27v103A19.26,19.26,0,0,1,490,239.49Z"/><path class="cls-48" d="M490,413.79H22a19,19,0,0,1-19-19V294.22a19,19,0,0,1,37.92,0v81.64H471V291.77a19,19,0,1,1,37.92,0V394.82A19,19,0,0,1,490,413.79Z"/><path class="cls-48" d="M490,239.19a19,19,0,0,1-19-19V136.14H41v84.09a19,19,0,0,1-37.92,0v-103a19,19,0,0,1,19-19H490a19,19,0,0,1,19,19v103A19,19,0,0,1,490,239.19Z"/><path class="cls-49" d="M490,413.48H22A18.66,18.66,0,0,1,3.36,394.82V294.22a18.66,18.66,0,1,1,37.32,0v81.95H471.32v-84.4a18.66,18.66,0,1,1,37.32,0V394.82A18.66,18.66,0,0,1,490,413.48Z"/><path class="cls-49" d="M490,238.88a18.66,18.66,0,0,1-18.66-18.65v-84.4H40.68v84.4a18.66,18.66,0,0,1-37.32,0v-103A18.66,18.66,0,0,1,22,98.52H490a18.66,18.66,0,0,1,18.66,18.66v103A18.66,18.66,0,0,1,490,238.88Z"/><path class="cls-50" d="M490,413.17H22A18.35,18.35,0,0,1,3.67,394.82V294.22a18.35,18.35,0,0,1,36.7,0v82.25H471.63v-84.7a18.35,18.35,0,1,1,36.7,0V394.82A18.35,18.35,0,0,1,490,413.17Z"/><path class="cls-50" d="M490,238.58a18.35,18.35,0,0,1-18.35-18.35v-84.7H40.37v84.7a18.35,18.35,0,1,1-36.7,0v-103A18.35,18.35,0,0,1,22,98.83H490a18.35,18.35,0,0,1,18.35,18.35v103A18.36,18.36,0,0,1,490,238.58Z"/><path class="cls-51" d="M490,412.87H22A18,18,0,0,1,4,394.82V294.22a18,18,0,0,1,36.09,0v82.56H471.93v-85a18,18,0,0,1,36.09,0V394.82A18,18,0,0,1,490,412.87Z"/><path class="cls-51" d="M490,238.27a18,18,0,0,1-18.05-18v-85H40.07v85a18,18,0,0,1-36.09,0v-103A18,18,0,0,1,22,99.13H490a18,18,0,0,1,18,18.05v103A18,18,0,0,1,490,238.27Z"/><path class="cls-52" d="M490,412.56H22A17.74,17.74,0,0,1,4.28,394.82V294.22a17.74,17.74,0,0,1,35.48,0v82.86H472.24V291.77a17.74,17.74,0,0,1,35.48,0V394.82A17.74,17.74,0,0,1,490,412.56Z"/><path class="cls-52" d="M490,238a17.74,17.74,0,0,1-17.74-17.74V134.92H39.76v85.31a17.74,17.74,0,1,1-35.48,0v-103A17.74,17.74,0,0,1,22,99.44H490a17.74,17.74,0,0,1,17.74,17.74v103A17.74,17.74,0,0,1,490,238Z"/><path class="cls-53" d="M490,412.26H22A17.43,17.43,0,0,1,4.59,394.82V294.22a17.44,17.44,0,0,1,34.87,0v83.17H472.54V291.77a17.44,17.44,0,0,1,34.87,0V394.82A17.43,17.43,0,0,1,490,412.26Z"/><path class="cls-53" d="M490,237.66a17.44,17.44,0,0,1-17.44-17.43V134.61H39.46v85.62a17.44,17.44,0,0,1-34.87,0v-103A17.43,17.43,0,0,1,22,99.74H490a17.43,17.43,0,0,1,17.43,17.44v103A17.43,17.43,0,0,1,490,237.66Z"/><path class="cls-54" d="M490,412H22A17.13,17.13,0,0,1,4.89,394.82V294.22a17.13,17.13,0,1,1,34.26,0v83.47h433.7V291.77a17.13,17.13,0,0,1,34.26,0V394.82A17.13,17.13,0,0,1,490,412Z"/><path class="cls-54" d="M490,237.35a17.13,17.13,0,0,1-17.13-17.12V134.31H39.15v85.92a17.13,17.13,0,0,1-34.26,0v-103A17.13,17.13,0,0,1,22,100.05H490a17.13,17.13,0,0,1,17.13,17.13v103A17.13,17.13,0,0,1,490,237.35Z"/><path class="cls-55" d="M490,411.64H22A16.82,16.82,0,0,1,5.2,394.82V294.22a16.82,16.82,0,1,1,33.64,0V378H473.16V291.77a16.82,16.82,0,0,1,33.64,0V394.82A16.82,16.82,0,0,1,490,411.64Z"/><path class="cls-55" d="M490,237.05a16.82,16.82,0,0,1-16.82-16.82V134H38.84v86.23a16.82,16.82,0,1,1-33.64,0v-103A16.82,16.82,0,0,1,22,100.36H490a16.82,16.82,0,0,1,16.82,16.82v103A16.82,16.82,0,0,1,490,237.05Z"/><path class="cls-56" d="M490,411.34H22A16.52,16.52,0,0,1,5.51,394.82V294.22a16.52,16.52,0,1,1,33,0v84.09H473.46V291.77a16.52,16.52,0,0,1,33,0V394.82A16.52,16.52,0,0,1,490,411.34Z"/><path class="cls-56" d="M490,236.74a16.52,16.52,0,0,1-16.52-16.51V133.69H38.54v86.54a16.52,16.52,0,0,1-33,0v-103A16.52,16.52,0,0,1,22,100.66H490a16.52,16.52,0,0,1,16.51,16.52v103A16.51,16.51,0,0,1,490,236.74Z"/><path class="cls-57" d="M490,411H22A16.21,16.21,0,0,1,5.81,394.82V294.22a16.21,16.21,0,0,1,32.42,0v84.39H473.77V291.77a16.21,16.21,0,1,1,32.42,0V394.82A16.21,16.21,0,0,1,490,411Z"/><path class="cls-57" d="M490,236.44a16.21,16.21,0,0,1-16.21-16.21V133.39H38.23v86.84a16.21,16.21,0,0,1-32.42,0v-103A16.21,16.21,0,0,1,22,101H490a16.21,16.21,0,0,1,16.21,16.21v103A16.21,16.21,0,0,1,490,236.44Z"/><path class="cls-58" d="M490,410.73H22a15.9,15.9,0,0,1-15.9-15.91V294.22a15.91,15.91,0,0,1,31.81,0v84.7H474.07V291.77a15.91,15.91,0,0,1,31.81,0V394.82A15.9,15.9,0,0,1,490,410.73Z"/><path class="cls-58" d="M490,236.13a15.91,15.91,0,0,1-15.91-15.9V133.08H37.93v87.15a15.91,15.91,0,0,1-31.81,0v-103A15.9,15.9,0,0,1,22,101.27H490a15.9,15.9,0,0,1,15.9,15.91v103A15.9,15.9,0,0,1,490,236.13Z"/><path class="cls-59" d="M490,410.42H22a15.6,15.6,0,0,1-15.6-15.6V294.22a15.6,15.6,0,0,1,31.2,0v85H474.38V291.77a15.6,15.6,0,1,1,31.2,0V394.82A15.6,15.6,0,0,1,490,410.42Z"/><path class="cls-59" d="M490,235.82a15.59,15.59,0,0,1-15.6-15.59V132.78H37.62v87.45a15.6,15.6,0,0,1-31.2,0v-103A15.6,15.6,0,0,1,22,101.58H490a15.6,15.6,0,0,1,15.6,15.6v103A15.6,15.6,0,0,1,490,235.82Z"/><path class="cls-60" d="M490,410.12H22a15.3,15.3,0,0,1-15.29-15.3V294.22a15.29,15.29,0,0,1,30.58,0v85.31H474.69V291.77a15.29,15.29,0,1,1,30.58,0V394.82A15.3,15.3,0,0,1,490,410.12Z"/><path class="cls-60" d="M490,235.52a15.29,15.29,0,0,1-15.29-15.29V132.47H37.31v87.76a15.29,15.29,0,1,1-30.58,0v-103A15.3,15.3,0,0,1,22,101.88H490a15.3,15.3,0,0,1,15.29,15.3v103A15.3,15.3,0,0,1,490,235.52Z"/><path class="cls-61" d="M490,409.81H22a15,15,0,0,1-15-15V294.22a15,15,0,0,1,30,0v85.62H475V291.77a15,15,0,0,1,30,0V394.82A15,15,0,0,1,490,409.81Z"/><path class="cls-61" d="M490,235.21a15,15,0,0,1-15-15V132.16H37v88.07a15,15,0,0,1-30,0v-103a15,15,0,0,1,15-15H490a15,15,0,0,1,15,15v103A15,15,0,0,1,490,235.21Z"/><path class="cls-62" d="M490,409.5H22A14.68,14.68,0,0,1,7.34,394.82V294.22a14.68,14.68,0,0,1,29.36,0v85.92H475.3V291.77a14.68,14.68,0,0,1,29.36,0V394.82A14.68,14.68,0,0,1,490,409.5Z"/><path class="cls-62" d="M490,234.91a14.68,14.68,0,0,1-14.68-14.68V131.86H36.7v88.37a14.68,14.68,0,1,1-29.36,0v-103A14.68,14.68,0,0,1,22,102.5H490a14.68,14.68,0,0,1,14.68,14.68v103A14.68,14.68,0,0,1,490,234.91Z"/><path class="cls-63" d="M490,409.2H22A14.37,14.37,0,0,1,7.65,394.82V294.22a14.38,14.38,0,0,1,28.75,0v86.23H475.6V291.77a14.38,14.38,0,0,1,28.75,0V394.82A14.37,14.37,0,0,1,490,409.2Z"/><path class="cls-63" d="M490,234.6a14.38,14.38,0,0,1-14.38-14.37V131.55H36.4v88.68a14.38,14.38,0,0,1-28.75,0v-103A14.37,14.37,0,0,1,22,102.8H490a14.37,14.37,0,0,1,14.37,14.38v103A14.37,14.37,0,0,1,490,234.6Z"/><path class="cls-64" d="M490,408.89H22A14.07,14.07,0,0,1,8,394.82V294.22a14.07,14.07,0,1,1,28.14,0v86.53H475.91v-89a14.07,14.07,0,0,1,28.14,0V394.82A14.07,14.07,0,0,1,490,408.89Z"/><path class="cls-64" d="M490,234.3a14.07,14.07,0,0,1-14.07-14.07v-89H36.09v89a14.07,14.07,0,1,1-28.14,0v-103A14.07,14.07,0,0,1,22,103.11H490a14.07,14.07,0,0,1,14.07,14.07v103A14.07,14.07,0,0,1,490,234.3Z"/><path class="cls-65" d="M490,408.59H22A13.77,13.77,0,0,1,8.26,394.82V294.22a13.76,13.76,0,0,1,27.52,0v86.84H476.22V291.77a13.76,13.76,0,0,1,27.52,0V394.82A13.77,13.77,0,0,1,490,408.59Z"/><path class="cls-65" d="M490,234a13.76,13.76,0,0,1-13.76-13.76V130.94H35.78v89.29a13.76,13.76,0,1,1-27.52,0v-103A13.77,13.77,0,0,1,22,103.41H490a13.77,13.77,0,0,1,13.76,13.77v103A13.76,13.76,0,0,1,490,234Z"/><path class="cls-66" d="M490,408.28H22A13.46,13.46,0,0,1,8.56,394.82V294.22a13.46,13.46,0,0,1,26.92,0v87.14h441V291.77a13.46,13.46,0,1,1,26.92,0V394.82A13.46,13.46,0,0,1,490,408.28Z"/><path class="cls-66" d="M490,233.68a13.46,13.46,0,0,1-13.46-13.45V130.64h-441v89.59a13.46,13.46,0,0,1-26.92,0v-103A13.46,13.46,0,0,1,22,103.72H490a13.46,13.46,0,0,1,13.46,13.46v103A13.46,13.46,0,0,1,490,233.68Z"/><path class="cls-67" d="M490,408H22A13.15,13.15,0,0,1,8.87,394.82V294.22a13.15,13.15,0,1,1,26.3,0v87.45H476.83v-89.9a13.15,13.15,0,1,1,26.3,0V394.82A13.15,13.15,0,0,1,490,408Z"/><path class="cls-67" d="M490,233.38a13.15,13.15,0,0,1-13.15-13.15v-89.9H35.17v89.9a13.15,13.15,0,1,1-26.3,0v-103A13.15,13.15,0,0,1,22,104H490a13.15,13.15,0,0,1,13.15,13.15v103A13.15,13.15,0,0,1,490,233.38Z"/><path class="cls-68" d="M490,407.67H22A12.84,12.84,0,0,1,9.18,394.82V294.22a12.85,12.85,0,1,1,25.69,0V382H477.13V291.77a12.85,12.85,0,0,1,25.69,0V394.82A12.84,12.84,0,0,1,490,407.67Z"/><path class="cls-68" d="M490,233.07a12.84,12.84,0,0,1-12.85-12.84V130H34.87v90.21a12.85,12.85,0,0,1-25.69,0v-103A12.84,12.84,0,0,1,22,104.33H490a12.84,12.84,0,0,1,12.84,12.85v103A12.84,12.84,0,0,1,490,233.07Z"/><path class="cls-69" d="M490,407.36H22A12.54,12.54,0,0,1,9.48,394.82V294.22a12.54,12.54,0,0,1,25.08,0v88.06H477.44V291.77a12.54,12.54,0,1,1,25.08,0V394.82A12.54,12.54,0,0,1,490,407.36Z"/><path class="cls-69" d="M490,232.77a12.54,12.54,0,0,1-12.54-12.54V129.72H34.56v90.51a12.54,12.54,0,1,1-25.08,0v-103A12.54,12.54,0,0,1,22,104.64H490a12.54,12.54,0,0,1,12.54,12.54v103A12.55,12.55,0,0,1,490,232.77Z"/><path class="cls-70" d="M490,407.06H22A12.24,12.24,0,0,1,9.79,394.82V294.22a12.24,12.24,0,0,1,24.47,0v88.37H477.74V291.77a12.24,12.24,0,0,1,24.47,0V394.82A12.24,12.24,0,0,1,490,407.06Z"/><path class="cls-70" d="M490,232.46a12.24,12.24,0,0,1-12.24-12.23V129.41H34.26v90.82a12.24,12.24,0,0,1-24.47,0v-103A12.24,12.24,0,0,1,22,104.94H490a12.24,12.24,0,0,1,12.23,12.24v103A12.24,12.24,0,0,1,490,232.46Z"/><path class="cls-71" d="M490,406.75H22a11.93,11.93,0,0,1-11.93-11.93V294.22a11.93,11.93,0,0,1,23.86,0v88.67h444.1V291.77a11.93,11.93,0,0,1,23.86,0V394.82A11.93,11.93,0,0,1,490,406.75Z"/><path class="cls-71" d="M490,232.15a11.93,11.93,0,0,1-11.93-11.92V129.11H34v91.12a11.93,11.93,0,0,1-23.86,0v-103A11.93,11.93,0,0,1,22,105.25H490a11.93,11.93,0,0,1,11.93,11.93v103A11.93,11.93,0,0,1,490,232.15Z"/><path class="cls-72" d="M490,406.44H22A11.62,11.62,0,0,1,10.4,394.82V294.22a11.62,11.62,0,0,1,23.24,0v89H478.36V291.77a11.62,11.62,0,0,1,23.24,0V394.82A11.62,11.62,0,0,1,490,406.44Z"/><path class="cls-72" d="M490,231.85a11.62,11.62,0,0,1-11.62-11.62V128.8H33.64v91.43a11.62,11.62,0,1,1-23.24,0v-103A11.63,11.63,0,0,1,22,105.55H490a11.63,11.63,0,0,1,11.62,11.63v103A11.62,11.62,0,0,1,490,231.85Z"/><path class="cls-73" d="M490,406.14H22A11.32,11.32,0,0,1,10.7,394.82V294.22a11.32,11.32,0,1,1,22.64,0v89.29H478.66V291.77a11.32,11.32,0,0,1,22.64,0V394.82A11.32,11.32,0,0,1,490,406.14Z"/><path class="cls-73" d="M490,231.54a11.31,11.31,0,0,1-11.32-11.31V128.49H33.34v91.74a11.32,11.32,0,0,1-22.64,0v-103A11.32,11.32,0,0,1,22,105.86H490a11.32,11.32,0,0,1,11.32,11.32v103A11.31,11.31,0,0,1,490,231.54Z"/><path class="cls-74" d="M490,405.83H22a11,11,0,0,1-11-11V294.22a11,11,0,0,1,22,0v89.59H479v-92a11,11,0,0,1,22,0V394.82A11,11,0,0,1,490,405.83Z"/><path class="cls-74" d="M490,231.24a11,11,0,0,1-11-11v-92H33v92a11,11,0,1,1-22,0v-103a11,11,0,0,1,11-11H490a11,11,0,0,1,11,11v103A11,11,0,0,1,490,231.24Z"/><path class="cls-75" d="M256,213.34A42.66,42.66,0,1,0,298.66,256,42.71,42.71,0,0,0,256,213.34Zm0,107.34A64.68,64.68,0,1,1,320.68,256,64.75,64.75,0,0,1,256,320.68Z"/><path class="cls-75" d="M466.13,280.76H479V231.24H466.13Zm23.85,22H455.12a11,11,0,0,1-11-11V220.23a11,11,0,0,1,11-11H490a11,11,0,0,1,11,11v71.54A11,11,0,0,1,490,302.78Z"/><path class="cls-75" d="M33,280.76H45.87V231.24H33Zm23.85,22H22a11,11,0,0,1-11-11V220.23a11,11,0,0,1,11-11H56.88a11,11,0,0,1,11,11v71.54A11,11,0,0,1,56.88,302.78Z"/><path class="cls-75" d="M256,405.83a11,11,0,0,1-11-11V117.18a11,11,0,0,1,22,0V394.82A11,11,0,0,1,256,405.83Z"/><path class="cls-76" d="M256,213.19A42.81,42.81,0,1,0,298.81,256,42.85,42.85,0,0,0,256,213.19Zm0,107.34A64.53,64.53,0,1,1,320.53,256,64.61,64.61,0,0,1,256,320.53Z"/><path class="cls-76" d="M466,280.91h13.14V231.08H466Zm24,21.72H455.12a10.86,10.86,0,0,1-10.85-10.86V220.23a10.86,10.86,0,0,1,10.85-10.86H490a10.86,10.86,0,0,1,10.86,10.86v71.54A10.86,10.86,0,0,1,490,302.63Z"/><path class="cls-76" d="M32.88,280.91H46V231.08H32.88Zm24,21.72H22a10.86,10.86,0,0,1-10.86-10.86V220.23A10.86,10.86,0,0,1,22,209.37H56.88a10.86,10.86,0,0,1,10.85,10.86v71.54A10.86,10.86,0,0,1,56.88,302.63Z"/><path class="cls-76" d="M256,405.68a10.86,10.86,0,0,1-10.86-10.86V117.18a10.86,10.86,0,0,1,21.72,0V394.82A10.86,10.86,0,0,1,256,405.68Z"/><path class="cls-77" d="M256,213a43,43,0,1,0,43,43A43,43,0,0,0,256,213Zm0,107.35A64.38,64.38,0,1,1,320.38,256,64.45,64.45,0,0,1,256,320.38Z"/><path class="cls-77" d="M465.83,281.07h13.44V230.93H465.83ZM490,302.48H455.12a10.71,10.71,0,0,1-10.7-10.71V220.23a10.7,10.7,0,0,1,10.7-10.71H490a10.7,10.7,0,0,1,10.7,10.71v71.54A10.71,10.71,0,0,1,490,302.48Z"/><path class="cls-77" d="M32.73,281.07H46.17V230.93H32.73Zm24.15,21.41H22a10.71,10.71,0,0,1-10.7-10.71V220.23A10.7,10.7,0,0,1,22,209.52H56.88a10.7,10.7,0,0,1,10.7,10.71v71.54A10.71,10.71,0,0,1,56.88,302.48Z"/><path class="cls-77" d="M256,405.53a10.71,10.71,0,0,1-10.7-10.71V117.18a10.7,10.7,0,1,1,21.4,0V394.82A10.71,10.71,0,0,1,256,405.53Z"/><path class="cls-78" d="M256,212.88A43.12,43.12,0,1,0,299.12,256,43.17,43.17,0,0,0,256,212.88Zm0,107.34A64.22,64.22,0,1,1,320.22,256,64.29,64.29,0,0,1,256,320.22Z"/><path class="cls-78" d="M465.68,281.22h13.75V230.78H465.68Zm24.3,21.1H455.12a10.55,10.55,0,0,1-10.55-10.55V220.23a10.56,10.56,0,0,1,10.55-10.56H490a10.55,10.55,0,0,1,10.55,10.56v71.54A10.55,10.55,0,0,1,490,302.32Z"/><path class="cls-78" d="M32.57,281.22H46.32V230.78H32.57Zm24.31,21.1H22a10.55,10.55,0,0,1-10.55-10.55V220.23A10.55,10.55,0,0,1,22,209.67H56.88a10.56,10.56,0,0,1,10.55,10.56v71.54A10.55,10.55,0,0,1,56.88,302.32Z"/><path class="cls-78" d="M256,405.37a10.55,10.55,0,0,1-10.55-10.55V117.18a10.55,10.55,0,1,1,21.1,0V394.82A10.55,10.55,0,0,1,256,405.37Z"/><path class="cls-79" d="M256,212.73A43.27,43.27,0,1,0,299.27,256,43.32,43.32,0,0,0,256,212.73Zm0,107.34A64.07,64.07,0,1,1,320.07,256,64.14,64.14,0,0,1,256,320.07Z"/><path class="cls-79" d="M465.52,281.37h14.06V230.63H465.52ZM490,302.17H455.12a10.4,10.4,0,0,1-10.4-10.4V220.23a10.4,10.4,0,0,1,10.4-10.4H490a10.4,10.4,0,0,1,10.4,10.4v71.54A10.4,10.4,0,0,1,490,302.17Z"/><path class="cls-79" d="M32.42,281.37H46.48V230.63H32.42Zm24.46,20.8H22a10.4,10.4,0,0,1-10.4-10.4V220.23A10.4,10.4,0,0,1,22,209.83H56.88a10.4,10.4,0,0,1,10.4,10.4v71.54A10.4,10.4,0,0,1,56.88,302.17Z"/><path class="cls-79" d="M256,405.22a10.4,10.4,0,0,1-10.4-10.4V117.18a10.4,10.4,0,1,1,20.8,0V394.82A10.4,10.4,0,0,1,256,405.22Z"/><path class="cls-80" d="M256,212.57A43.43,43.43,0,1,0,299.43,256,43.48,43.48,0,0,0,256,212.57Zm0,107.35A63.92,63.92,0,1,1,319.92,256,64,64,0,0,1,256,319.92Z"/><path class="cls-80" d="M465.37,281.53h14.36V230.47H465.37ZM490,302H455.12a10.25,10.25,0,0,1-10.24-10.25V220.23A10.25,10.25,0,0,1,455.12,210H490a10.24,10.24,0,0,1,10.24,10.25v71.54A10.24,10.24,0,0,1,490,302Z"/><path class="cls-80" d="M32.27,281.53H46.63V230.47H32.27ZM56.88,302H22a10.24,10.24,0,0,1-10.24-10.25V220.23A10.24,10.24,0,0,1,22,210H56.88a10.25,10.25,0,0,1,10.24,10.25v71.54A10.25,10.25,0,0,1,56.88,302Z"/><path class="cls-80" d="M256,405.07a10.25,10.25,0,0,1-10.25-10.25V117.18a10.25,10.25,0,0,1,20.5,0V394.82A10.25,10.25,0,0,1,256,405.07Z"/><path class="cls-81" d="M256,212.42A43.58,43.58,0,1,0,299.58,256,43.63,43.63,0,0,0,256,212.42Zm0,107.35A63.77,63.77,0,1,1,319.77,256,63.85,63.85,0,0,1,256,319.77Z"/><path class="cls-81" d="M465.22,281.68h14.67V230.32H465.22ZM490,301.86H455.12A10.09,10.09,0,0,1,445,291.77V220.23a10.1,10.1,0,0,1,10.09-10.1H490a10.1,10.1,0,0,1,10.09,10.1v71.54A10.09,10.09,0,0,1,490,301.86Z"/><path class="cls-81" d="M32.11,281.68H46.78V230.32H32.11Zm24.77,20.18H22a10.09,10.09,0,0,1-10.09-10.09V220.23A10.1,10.1,0,0,1,22,210.13H56.88A10.1,10.1,0,0,1,67,220.23v71.54A10.09,10.09,0,0,1,56.88,301.86Z"/><path class="cls-81" d="M256,404.92a10.1,10.1,0,0,1-10.09-10.1V117.18a10.09,10.09,0,1,1,20.18,0V394.82A10.1,10.1,0,0,1,256,404.92Z"/><path class="cls-82" d="M256,212.27A43.73,43.73,0,1,0,299.73,256,43.78,43.78,0,0,0,256,212.27Zm0,107.34A63.61,63.61,0,1,1,319.61,256,63.68,63.68,0,0,1,256,319.61Z"/><path class="cls-82" d="M465.06,281.83h15V230.17h-15ZM490,301.71H455.12a9.94,9.94,0,0,1-9.94-9.94V220.23a9.94,9.94,0,0,1,9.94-9.94H490a9.94,9.94,0,0,1,9.94,9.94v71.54A9.94,9.94,0,0,1,490,301.71Z"/><path class="cls-82" d="M32,281.83h15V230.17H32Zm24.92,19.88H22a9.94,9.94,0,0,1-9.94-9.94V220.23A9.94,9.94,0,0,1,22,210.29H56.88a9.94,9.94,0,0,1,9.94,9.94v71.54A9.94,9.94,0,0,1,56.88,301.71Z"/><path class="cls-82" d="M256,404.76a9.94,9.94,0,0,1-9.94-9.94V117.18a9.94,9.94,0,1,1,19.88,0V394.82A9.94,9.94,0,0,1,256,404.76Z"/><path class="cls-83" d="M256,212.12A43.88,43.88,0,1,0,299.88,256,43.92,43.92,0,0,0,256,212.12Zm0,107.34A63.46,63.46,0,1,1,319.46,256,63.53,63.53,0,0,1,256,319.46Z"/><path class="cls-83" d="M464.91,282h15.28V230H464.91ZM490,301.56H455.12a9.78,9.78,0,0,1-9.78-9.79V220.23a9.78,9.78,0,0,1,9.78-9.79H490a9.79,9.79,0,0,1,9.79,9.79v71.54A9.79,9.79,0,0,1,490,301.56Z"/><path class="cls-83" d="M31.81,282H47.09V230H31.81Zm25.07,19.58H22a9.79,9.79,0,0,1-9.79-9.79V220.23A9.79,9.79,0,0,1,22,210.44H56.88a9.78,9.78,0,0,1,9.78,9.79v71.54A9.78,9.78,0,0,1,56.88,301.56Z"/><path class="cls-83" d="M256,404.61a9.79,9.79,0,0,1-9.79-9.79V117.18a9.79,9.79,0,0,1,19.58,0V394.82A9.79,9.79,0,0,1,256,404.61Z"/><path class="cls-84" d="M256,212a44,44,0,1,0,44,44A44.09,44.09,0,0,0,256,212Zm0,107.35A63.31,63.31,0,1,1,319.31,256,63.38,63.38,0,0,1,256,319.31Z"/><path class="cls-84" d="M464.76,282.14h15.58V229.86H464.76ZM490,301.41H455.12a9.64,9.64,0,0,1-9.63-9.64V220.23a9.64,9.64,0,0,1,9.63-9.64H490a9.64,9.64,0,0,1,9.63,9.64v71.54A9.64,9.64,0,0,1,490,301.41Z"/><path class="cls-84" d="M31.66,282.14H47.24V229.86H31.66Zm25.22,19.27H22a9.64,9.64,0,0,1-9.63-9.64V220.23A9.64,9.64,0,0,1,22,210.59H56.88a9.64,9.64,0,0,1,9.63,9.64v71.54A9.64,9.64,0,0,1,56.88,301.41Z"/><path class="cls-84" d="M256,404.46a9.64,9.64,0,0,1-9.63-9.64V117.18a9.63,9.63,0,1,1,19.26,0V394.82A9.64,9.64,0,0,1,256,404.46Z"/><path class="cls-85" d="M256,211.81A44.19,44.19,0,1,0,300.19,256,44.24,44.24,0,0,0,256,211.81Zm0,107.34A63.15,63.15,0,1,1,319.15,256,63.22,63.22,0,0,1,256,319.15Z"/><path class="cls-85" d="M464.6,282.29h15.9V229.71H464.6Zm25.38,19H455.12a9.48,9.48,0,0,1-9.48-9.48V220.23a9.49,9.49,0,0,1,9.48-9.49H490a9.48,9.48,0,0,1,9.48,9.49v71.54A9.47,9.47,0,0,1,490,301.25Z"/><path class="cls-85" d="M31.5,282.29H47.4V229.71H31.5Zm25.38,19H22a9.47,9.47,0,0,1-9.48-9.48V220.23A9.48,9.48,0,0,1,22,210.74H56.88a9.49,9.49,0,0,1,9.48,9.49v71.54A9.48,9.48,0,0,1,56.88,301.25Z"/><path class="cls-85" d="M256,404.3a9.47,9.47,0,0,1-9.48-9.48V117.18a9.48,9.48,0,0,1,19,0V394.82A9.47,9.47,0,0,1,256,404.3Z"/><path class="cls-86" d="M256,211.66A44.34,44.34,0,1,0,300.34,256,44.39,44.39,0,0,0,256,211.66ZM256,319a63,63,0,1,1,63-63A63.07,63.07,0,0,1,256,319Z"/><path class="cls-86" d="M464.45,282.44h16.2V229.55h-16.2ZM490,301.1H455.12a9.33,9.33,0,0,1-9.33-9.33V220.23a9.33,9.33,0,0,1,9.33-9.33H490a9.33,9.33,0,0,1,9.33,9.33v71.54A9.33,9.33,0,0,1,490,301.1Z"/><path class="cls-86" d="M31.35,282.44h16.2V229.55H31.35ZM56.88,301.1H22a9.33,9.33,0,0,1-9.33-9.33V220.23A9.33,9.33,0,0,1,22,210.9H56.88a9.33,9.33,0,0,1,9.33,9.33v71.54A9.33,9.33,0,0,1,56.88,301.1Z"/><path class="cls-86" d="M256,404.15a9.33,9.33,0,0,1-9.33-9.33V117.18a9.33,9.33,0,1,1,18.66,0V394.82A9.33,9.33,0,0,1,256,404.15Z"/><path class="cls-87" d="M256,211.5A44.5,44.5,0,1,0,300.5,256,44.55,44.55,0,0,0,256,211.5Zm0,107.35A62.85,62.85,0,1,1,318.85,256,62.93,62.93,0,0,1,256,318.85Z"/><path class="cls-87" d="M464.3,282.6h16.5V229.4H464.3ZM490,301H455.12a9.18,9.18,0,0,1-9.17-9.18V220.23a9.18,9.18,0,0,1,9.17-9.18H490a9.17,9.17,0,0,1,9.17,9.18v71.54A9.17,9.17,0,0,1,490,301Z"/><path class="cls-87" d="M31.2,282.6H47.7V229.4H31.2ZM56.88,301H22a9.17,9.17,0,0,1-9.17-9.18V220.23A9.17,9.17,0,0,1,22,211.05H56.88a9.18,9.18,0,0,1,9.17,9.18v71.54A9.18,9.18,0,0,1,56.88,301Z"/><path class="cls-87" d="M256,404a9.18,9.18,0,0,1-9.18-9.18V117.18a9.18,9.18,0,0,1,18.36,0V394.82A9.18,9.18,0,0,1,256,404Z"/><path class="cls-88" d="M256,211.35A44.65,44.65,0,1,0,300.65,256,44.7,44.7,0,0,0,256,211.35Zm0,107.34A62.69,62.69,0,1,1,318.69,256,62.76,62.76,0,0,1,256,318.69Z"/><path class="cls-88" d="M464.15,282.75H481v-53.5H464.15Zm25.83,18H455.12a9,9,0,0,1-9-9V220.23a9,9,0,0,1,9-9H490a9,9,0,0,1,9,9v71.54A9,9,0,0,1,490,300.79Z"/><path class="cls-88" d="M31,282.75H47.85v-53.5H31Zm25.84,18H22a9,9,0,0,1-9-9V220.23a9,9,0,0,1,9-9H56.88a9,9,0,0,1,9,9v71.54A9,9,0,0,1,56.88,300.79Z"/><path class="cls-88" d="M256,403.85a9,9,0,0,1-9-9V117.18a9,9,0,1,1,18,0V394.82A9,9,0,0,1,256,403.85Z"/><path class="cls-89" d="M256,211.2A44.8,44.8,0,1,0,300.8,256,44.85,44.85,0,0,0,256,211.2Zm0,107.34A62.54,62.54,0,1,1,318.54,256,62.6,62.6,0,0,1,256,318.54Z"/><path class="cls-89" d="M464,282.9h17.12V229.1H464Zm26,17.74H455.12a8.87,8.87,0,0,1-8.87-8.87V220.23a8.87,8.87,0,0,1,8.87-8.87H490a8.87,8.87,0,0,1,8.87,8.87v71.54A8.87,8.87,0,0,1,490,300.64Z"/><path class="cls-89" d="M30.89,282.9H48V229.1H30.89Zm26,17.74H22a8.87,8.87,0,0,1-8.87-8.87V220.23A8.87,8.87,0,0,1,22,211.36H56.88a8.87,8.87,0,0,1,8.87,8.87v71.54A8.87,8.87,0,0,1,56.88,300.64Z"/><path class="cls-89" d="M256,403.69a8.87,8.87,0,0,1-8.87-8.87V117.18a8.87,8.87,0,0,1,17.74,0V394.82A8.87,8.87,0,0,1,256,403.69Z"/><path class="cls-90" d="M256,211a45,45,0,1,0,45,45A45,45,0,0,0,256,211Zm0,107.35A62.39,62.39,0,1,1,318.39,256,62.46,62.46,0,0,1,256,318.39Z"/><path class="cls-90" d="M463.84,283.05h17.42V228.94H463.84ZM490,300.49H455.12a8.71,8.71,0,0,1-8.71-8.72V220.23a8.71,8.71,0,0,1,8.71-8.72H490a8.72,8.72,0,0,1,8.72,8.72v71.54A8.72,8.72,0,0,1,490,300.49Z"/><path class="cls-90" d="M30.74,283.05H48.16V228.94H30.74Zm26.14,17.44H22a8.72,8.72,0,0,1-8.72-8.72V220.23A8.72,8.72,0,0,1,22,211.51H56.88a8.71,8.71,0,0,1,8.71,8.72v71.54A8.71,8.71,0,0,1,56.88,300.49Z"/><path class="cls-90" d="M256,403.54a8.72,8.72,0,0,1-8.72-8.72V117.18a8.72,8.72,0,0,1,17.44,0V394.82A8.72,8.72,0,0,1,256,403.54Z"/><path class="cls-91" d="M256,210.89A45.11,45.11,0,1,0,301.11,256,45.17,45.17,0,0,0,256,210.89Zm0,107.35A62.24,62.24,0,1,1,318.24,256,62.31,62.31,0,0,1,256,318.24Z"/><path class="cls-91" d="M463.69,283.21h17.72V228.79H463.69ZM490,300.34H455.12a8.57,8.57,0,0,1-8.56-8.57V220.23a8.57,8.57,0,0,1,8.56-8.57H490a8.57,8.57,0,0,1,8.56,8.57v71.54A8.57,8.57,0,0,1,490,300.34Z"/><path class="cls-91" d="M30.59,283.21H48.31V228.79H30.59Zm26.29,17.13H22a8.57,8.57,0,0,1-8.56-8.57V220.23A8.57,8.57,0,0,1,22,211.66H56.88a8.57,8.57,0,0,1,8.56,8.57v71.54A8.57,8.57,0,0,1,56.88,300.34Z"/><path class="cls-91" d="M256,403.39a8.57,8.57,0,0,1-8.56-8.57V117.18a8.56,8.56,0,1,1,17.12,0V394.82A8.57,8.57,0,0,1,256,403.39Z"/><path class="cls-92" d="M256,210.74A45.26,45.26,0,1,0,301.26,256,45.31,45.31,0,0,0,256,210.74Zm0,107.34A62.08,62.08,0,1,1,318.08,256,62.15,62.15,0,0,1,256,318.08Z"/><path class="cls-92" d="M463.53,283.36h18V228.64h-18ZM490,300.18H455.12a8.41,8.41,0,0,1-8.41-8.41V220.23a8.42,8.42,0,0,1,8.41-8.42H490a8.42,8.42,0,0,1,8.41,8.42v71.54A8.41,8.41,0,0,1,490,300.18Z"/><path class="cls-92" d="M30.43,283.36h18V228.64h-18Zm26.45,16.82H22a8.41,8.41,0,0,1-8.41-8.41V220.23A8.42,8.42,0,0,1,22,211.81H56.88a8.42,8.42,0,0,1,8.41,8.42v71.54A8.41,8.41,0,0,1,56.88,300.18Z"/><path class="cls-92" d="M256,403.23a8.4,8.4,0,0,1-8.41-8.41V117.18a8.41,8.41,0,0,1,16.82,0V394.82A8.4,8.4,0,0,1,256,403.23Z"/><path class="cls-93" d="M256,210.59A45.41,45.41,0,1,0,301.41,256,45.46,45.46,0,0,0,256,210.59Zm0,107.34A61.93,61.93,0,1,1,317.93,256,62,62,0,0,1,256,317.93Z"/><path class="cls-93" d="M463.38,283.51h18.34v-55H463.38ZM490,300H455.12a8.25,8.25,0,0,1-8.25-8.26V220.23a8.25,8.25,0,0,1,8.25-8.26H490a8.26,8.26,0,0,1,8.26,8.26v71.54A8.26,8.26,0,0,1,490,300Z"/><path class="cls-93" d="M30.28,283.51H48.62v-55H30.28ZM56.88,300H22a8.26,8.26,0,0,1-8.26-8.26V220.23A8.26,8.26,0,0,1,22,212H56.88a8.25,8.25,0,0,1,8.25,8.26v71.54A8.25,8.25,0,0,1,56.88,300Z"/><path class="cls-93" d="M256,403.08a8.26,8.26,0,0,1-8.26-8.26V117.18a8.26,8.26,0,1,1,16.52,0V394.82A8.26,8.26,0,0,1,256,403.08Z"/><path class="cls-94" d="M256,210.43A45.57,45.57,0,1,0,301.57,256,45.62,45.62,0,0,0,256,210.43Zm0,107.35A61.78,61.78,0,1,1,317.78,256,61.86,61.86,0,0,1,256,317.78Z"/><path class="cls-94" d="M463.23,283.67h18.64V228.33H463.23ZM490,299.88H455.12a8.11,8.11,0,0,1-8.1-8.11V220.23a8.11,8.11,0,0,1,8.1-8.11H490a8.1,8.1,0,0,1,8.1,8.11v71.54A8.1,8.1,0,0,1,490,299.88Z"/><path class="cls-94" d="M30.13,283.67H48.77V228.33H30.13Zm26.75,16.21H22a8.1,8.1,0,0,1-8.1-8.11V220.23a8.1,8.1,0,0,1,8.1-8.11H56.88a8.11,8.11,0,0,1,8.1,8.11v71.54A8.11,8.11,0,0,1,56.88,299.88Z"/><path class="cls-94" d="M256,402.93a8.11,8.11,0,0,1-8.11-8.11V117.18a8.11,8.11,0,0,1,16.22,0V394.82A8.11,8.11,0,0,1,256,402.93Z"/><path class="cls-95" d="M256,210.28A45.72,45.72,0,1,0,301.72,256,45.77,45.77,0,0,0,256,210.28Zm0,107.34A61.62,61.62,0,1,1,317.62,256,61.69,61.69,0,0,1,256,317.62Z"/><path class="cls-95" d="M463.08,283.82H482V228.18H463.08Zm26.9,15.9H455.12a8,8,0,0,1-7.95-8V220.23a8,8,0,0,1,7.95-8H490a8,8,0,0,1,7.95,8v71.54A8,8,0,0,1,490,299.72Z"/><path class="cls-95" d="M30,283.82h19V228.18H30Zm26.91,15.9H22a8,8,0,0,1-7.95-8V220.23a8,8,0,0,1,8-8H56.88a8,8,0,0,1,7.95,8v71.54A8,8,0,0,1,56.88,299.72Z"/><path class="cls-95" d="M256,402.77a8,8,0,0,1-7.95-7.95V117.18a7.95,7.95,0,0,1,15.9,0V394.82A8,8,0,0,1,256,402.77Z"/><path class="cls-96" d="M256,210.13A45.87,45.87,0,1,0,301.87,256,45.93,45.93,0,0,0,256,210.13Zm0,107.34A61.47,61.47,0,1,1,317.47,256,61.54,61.54,0,0,1,256,317.47Z"/><path class="cls-96" d="M462.92,284h19.26V228H462.92ZM490,299.57H455.12a7.8,7.8,0,0,1-7.8-7.8V220.23a7.8,7.8,0,0,1,7.8-7.8H490a7.8,7.8,0,0,1,7.8,7.8v71.54A7.8,7.8,0,0,1,490,299.57Z"/><path class="cls-96" d="M29.82,284H49.08V228H29.82Zm27.06,15.6H22a7.8,7.8,0,0,1-7.8-7.8V220.23a7.8,7.8,0,0,1,7.8-7.8H56.88a7.8,7.8,0,0,1,7.8,7.8v71.54A7.8,7.8,0,0,1,56.88,299.57Z"/><path class="cls-96" d="M256,402.62a7.8,7.8,0,0,1-7.8-7.8V117.18a7.8,7.8,0,1,1,15.6,0V394.82A7.8,7.8,0,0,1,256,402.62Z"/><path class="cls-97" d="M256,210a46,46,0,1,0,46,46A46.08,46.08,0,0,0,256,210Zm0,107.35A61.32,61.32,0,1,1,317.32,256,61.39,61.39,0,0,1,256,317.32Z"/><path class="cls-97" d="M462.77,284.13h19.56V227.87H462.77ZM490,299.42H455.12a7.65,7.65,0,0,1-7.64-7.65V220.23a7.64,7.64,0,0,1,7.64-7.65H490a7.64,7.64,0,0,1,7.64,7.65v71.54A7.65,7.65,0,0,1,490,299.42Z"/><path class="cls-97" d="M29.67,284.13H49.23V227.87H29.67Zm27.21,15.29H22a7.65,7.65,0,0,1-7.64-7.65V220.23A7.64,7.64,0,0,1,22,212.58H56.88a7.64,7.64,0,0,1,7.64,7.65v71.54A7.65,7.65,0,0,1,56.88,299.42Z"/><path class="cls-97" d="M256,402.47a7.65,7.65,0,0,1-7.65-7.65V117.18a7.65,7.65,0,1,1,15.3,0V394.82A7.65,7.65,0,0,1,256,402.47Z"/><path class="cls-98" d="M256,209.82A46.18,46.18,0,1,0,302.18,256,46.24,46.24,0,0,0,256,209.82Zm0,107.35A61.17,61.17,0,1,1,317.17,256,61.24,61.24,0,0,1,256,317.17Z"/><path class="cls-98" d="M462.62,284.28h19.87V227.72H462.62Zm27.36,15H455.12a7.49,7.49,0,0,1-7.49-7.5V220.23a7.49,7.49,0,0,1,7.49-7.5H490a7.49,7.49,0,0,1,7.49,7.5v71.54A7.49,7.49,0,0,1,490,299.27Z"/><path class="cls-98" d="M29.51,284.28H49.38V227.72H29.51Zm27.37,15H22a7.49,7.49,0,0,1-7.49-7.5V220.23a7.49,7.49,0,0,1,7.49-7.5H56.88a7.49,7.49,0,0,1,7.49,7.5v71.54A7.49,7.49,0,0,1,56.88,299.27Z"/><path class="cls-98" d="M256,402.32a7.49,7.49,0,0,1-7.49-7.5V117.18a7.49,7.49,0,1,1,15,0V394.82A7.49,7.49,0,0,1,256,402.32Z"/><path class="cls-99" d="M256,209.67A46.33,46.33,0,1,0,302.33,256,46.38,46.38,0,0,0,256,209.67ZM256,317a61,61,0,1,1,61-61A61.08,61.08,0,0,1,256,317Z"/><path class="cls-99" d="M462.46,284.43h20.18V227.57H462.46ZM490,299.11H455.12a7.34,7.34,0,0,1-7.34-7.34V220.23a7.34,7.34,0,0,1,7.34-7.34H490a7.34,7.34,0,0,1,7.34,7.34v71.54A7.34,7.34,0,0,1,490,299.11Z"/><path class="cls-99" d="M29.36,284.43H49.54V227.57H29.36Zm27.52,14.68H22a7.34,7.34,0,0,1-7.34-7.34V220.23A7.34,7.34,0,0,1,22,212.89H56.88a7.34,7.34,0,0,1,7.34,7.34v71.54A7.34,7.34,0,0,1,56.88,299.11Z"/><path class="cls-99" d="M256,402.16a7.33,7.33,0,0,1-7.34-7.34V117.18a7.34,7.34,0,1,1,14.68,0V394.82A7.33,7.33,0,0,1,256,402.16Z"/><path class="cls-100" d="M256,209.52A46.48,46.48,0,1,0,302.48,256,46.53,46.53,0,0,0,256,209.52Zm0,107.34A60.86,60.86,0,1,1,316.86,256,60.93,60.93,0,0,1,256,316.86Z"/><path class="cls-100" d="M462.31,284.58h20.48V227.41H462.31ZM490,299H455.12a7.18,7.18,0,0,1-7.18-7.19V220.23a7.18,7.18,0,0,1,7.18-7.19H490a7.19,7.19,0,0,1,7.19,7.19v71.54A7.19,7.19,0,0,1,490,299Z"/><path class="cls-100" d="M29.21,284.58H49.69V227.41H29.21ZM56.88,299H22a7.19,7.19,0,0,1-7.19-7.19V220.23A7.19,7.19,0,0,1,22,213H56.88a7.18,7.18,0,0,1,7.18,7.19v71.54A7.18,7.18,0,0,1,56.88,299Z"/><path class="cls-100" d="M256,402a7.19,7.19,0,0,1-7.19-7.19V117.18a7.19,7.19,0,0,1,14.38,0V394.82A7.19,7.19,0,0,1,256,402Z"/><path class="cls-101" d="M256,209.36A46.64,46.64,0,1,0,302.64,256,46.69,46.69,0,0,0,256,209.36Zm0,107.35A60.71,60.71,0,1,1,316.71,256,60.79,60.79,0,0,1,256,316.71Z"/><path class="cls-101" d="M462.16,284.74h20.78V227.26H462.16ZM490,298.81H455.12a7,7,0,0,1-7-7V220.23a7,7,0,0,1,7-7H490a7,7,0,0,1,7,7v71.54A7,7,0,0,1,490,298.81Z"/><path class="cls-101" d="M29.06,284.74H49.84V227.26H29.06Zm27.82,14.07H22a7,7,0,0,1-7-7V220.23a7,7,0,0,1,7-7H56.88a7,7,0,0,1,7,7v71.54A7,7,0,0,1,56.88,298.81Z"/><path class="cls-101" d="M256,401.86a7,7,0,0,1-7-7V117.18a7,7,0,1,1,14.06,0V394.82A7,7,0,0,1,256,401.86Z"/><path class="cls-102" d="M256,209.21A46.79,46.79,0,1,0,302.79,256,46.84,46.84,0,0,0,256,209.21Zm0,107.34A60.55,60.55,0,1,1,316.55,256,60.62,60.62,0,0,1,256,316.55Z"/><path class="cls-102" d="M462,284.89H483.1V227.11H462Zm28,13.76H455.12a6.88,6.88,0,0,1-6.88-6.88V220.23a6.89,6.89,0,0,1,6.88-6.89H490a6.89,6.89,0,0,1,6.88,6.89v71.54A6.88,6.88,0,0,1,490,298.65Z"/><path class="cls-102" d="M28.9,284.89H50V227.11H28.9Zm28,13.76H22a6.88,6.88,0,0,1-6.88-6.88V220.23A6.89,6.89,0,0,1,22,213.34H56.88a6.89,6.89,0,0,1,6.88,6.89v71.54A6.88,6.88,0,0,1,56.88,298.65Z"/><path class="cls-102" d="M256,401.7a6.88,6.88,0,0,1-6.88-6.88V117.18a6.88,6.88,0,1,1,13.76,0V394.82A6.88,6.88,0,0,1,256,401.7Z"/><path class="cls-103" d="M256,209.06A46.94,46.94,0,1,0,302.94,256,47,47,0,0,0,256,209.06Zm0,107.34A60.4,60.4,0,1,1,316.4,256,60.47,60.47,0,0,1,256,316.4Z"/><path class="cls-103" d="M461.85,285h21.4V227h-21.4ZM490,298.5H455.12a6.73,6.73,0,0,1-6.73-6.73V220.23a6.73,6.73,0,0,1,6.73-6.73H490a6.73,6.73,0,0,1,6.73,6.73v71.54A6.73,6.73,0,0,1,490,298.5Z"/><path class="cls-103" d="M28.75,285h21.4V227H28.75ZM56.88,298.5H22a6.73,6.73,0,0,1-6.73-6.73V220.23A6.73,6.73,0,0,1,22,213.5H56.88a6.73,6.73,0,0,1,6.73,6.73v71.54A6.73,6.73,0,0,1,56.88,298.5Z"/><path class="cls-103" d="M256,401.55a6.73,6.73,0,0,1-6.73-6.73V117.18a6.73,6.73,0,0,1,13.46,0V394.82A6.73,6.73,0,0,1,256,401.55Z"/><path class="cls-104" d="M256,208.9A47.1,47.1,0,1,0,303.1,256,47.15,47.15,0,0,0,256,208.9Zm0,107.35A60.25,60.25,0,1,1,316.25,256,60.32,60.32,0,0,1,256,316.25Z"/><path class="cls-104" d="M461.7,285.2h21.7V226.8H461.7ZM490,298.35H455.12a6.58,6.58,0,0,1-6.57-6.58V220.23a6.57,6.57,0,0,1,6.57-6.58H490a6.57,6.57,0,0,1,6.57,6.58v71.54A6.58,6.58,0,0,1,490,298.35Z"/><path class="cls-104" d="M28.6,285.2H50.3V226.8H28.6Zm28.28,13.15H22a6.58,6.58,0,0,1-6.57-6.58V220.23A6.57,6.57,0,0,1,22,213.65H56.88a6.57,6.57,0,0,1,6.57,6.58v71.54A6.58,6.58,0,0,1,56.88,298.35Z"/><path class="cls-104" d="M256,401.4a6.59,6.59,0,0,1-6.58-6.58V117.18a6.58,6.58,0,1,1,13.16,0V394.82A6.59,6.59,0,0,1,256,401.4Z"/><path class="cls-105" d="M256,208.75A47.25,47.25,0,1,0,303.25,256,47.31,47.31,0,0,0,256,208.75Zm0,107.34A60.09,60.09,0,1,1,316.09,256,60.15,60.15,0,0,1,256,316.09Z"/><path class="cls-105" d="M461.55,285.35h22v-58.7h-22ZM490,298.19H455.12a6.41,6.41,0,0,1-6.42-6.42V220.23a6.42,6.42,0,0,1,6.42-6.43H490a6.42,6.42,0,0,1,6.42,6.43v71.54A6.41,6.41,0,0,1,490,298.19Z"/><path class="cls-105" d="M28.44,285.35h22v-58.7h-22Zm28.44,12.84H22a6.41,6.41,0,0,1-6.42-6.42V220.23A6.42,6.42,0,0,1,22,213.8H56.88a6.42,6.42,0,0,1,6.42,6.43v71.54A6.41,6.41,0,0,1,56.88,298.19Z"/><path class="cls-105" d="M256,401.25a6.42,6.42,0,0,1-6.42-6.43V117.18a6.42,6.42,0,1,1,12.84,0V394.82A6.42,6.42,0,0,1,256,401.25Z"/><path class="cls-106" d="M256,208.6A47.4,47.4,0,1,0,303.4,256,47.45,47.45,0,0,0,256,208.6Zm0,107.34A59.94,59.94,0,1,1,315.94,256,60,60,0,0,1,256,315.94Z"/><path class="cls-106" d="M461.39,285.5h22.32v-59H461.39ZM490,298H455.12a6.27,6.27,0,0,1-6.27-6.27V220.23a6.27,6.27,0,0,1,6.27-6.27H490a6.27,6.27,0,0,1,6.27,6.27v71.54A6.27,6.27,0,0,1,490,298Z"/><path class="cls-106" d="M28.29,285.5H50.61v-59H28.29ZM56.88,298H22a6.27,6.27,0,0,1-6.27-6.27V220.23A6.27,6.27,0,0,1,22,214H56.88a6.27,6.27,0,0,1,6.27,6.27v71.54A6.27,6.27,0,0,1,56.88,298Z"/><path class="cls-106" d="M256,401.09a6.27,6.27,0,0,1-6.27-6.27V117.18a6.27,6.27,0,1,1,12.54,0V394.82A6.27,6.27,0,0,1,256,401.09Z"/><path class="cls-107" d="M256,208.45A47.55,47.55,0,1,0,303.55,256,47.6,47.6,0,0,0,256,208.45Zm0,107.34A59.79,59.79,0,1,1,315.79,256,59.86,59.86,0,0,1,256,315.79Z"/><path class="cls-107" d="M461.24,285.65h22.62V226.34H461.24ZM490,297.89H455.12a6.11,6.11,0,0,1-6.11-6.12V220.23a6.11,6.11,0,0,1,6.11-6.12H490a6.12,6.12,0,0,1,6.12,6.12v71.54A6.12,6.12,0,0,1,490,297.89Z"/><path class="cls-107" d="M28.14,285.65H50.76V226.34H28.14Zm28.74,12.24H22a6.12,6.12,0,0,1-6.12-6.12V220.23A6.12,6.12,0,0,1,22,214.11H56.88A6.11,6.11,0,0,1,63,220.23v71.54A6.11,6.11,0,0,1,56.88,297.89Z"/><path class="cls-107" d="M256,400.94a6.12,6.12,0,0,1-6.12-6.12V117.18a6.12,6.12,0,0,1,12.24,0V394.82A6.12,6.12,0,0,1,256,400.94Z"/><path class="cls-108" d="M256,208.29A47.71,47.71,0,1,0,303.71,256,47.76,47.76,0,0,0,256,208.29Zm0,107.35A59.64,59.64,0,1,1,315.64,256,59.71,59.71,0,0,1,256,315.64Z"/><path class="cls-108" d="M461.09,285.81H484V226.19H461.09ZM490,297.74H455.12a6,6,0,0,1-6-6V220.23a6,6,0,0,1,6-6H490a6,6,0,0,1,6,6v71.54A6,6,0,0,1,490,297.74Z"/><path class="cls-108" d="M28,285.81H50.91V226.19H28Zm28.89,11.93H22a6,6,0,0,1-6-6V220.23a6,6,0,0,1,6-6H56.88a6,6,0,0,1,6,6v71.54A6,6,0,0,1,56.88,297.74Z"/><path class="cls-108" d="M256,400.79a6,6,0,0,1-6-6V117.18a6,6,0,1,1,11.92,0V394.82A6,6,0,0,1,256,400.79Z"/><path class="cls-109" d="M256,208.14A47.86,47.86,0,1,0,303.86,256,47.91,47.91,0,0,0,256,208.14Zm0,107.34A59.48,59.48,0,1,1,315.48,256,59.54,59.54,0,0,1,256,315.48Z"/><path class="cls-109" d="M460.93,286h23.24V226H460.93ZM490,297.58H455.12a5.81,5.81,0,0,1-5.81-5.81V220.23a5.82,5.82,0,0,1,5.81-5.82H490a5.82,5.82,0,0,1,5.81,5.82v71.54A5.81,5.81,0,0,1,490,297.58Z"/><path class="cls-109" d="M27.83,286H51.07V226H27.83Zm29.05,11.62H22a5.81,5.81,0,0,1-5.81-5.81V220.23A5.82,5.82,0,0,1,22,214.41H56.88a5.82,5.82,0,0,1,5.81,5.82v71.54A5.81,5.81,0,0,1,56.88,297.58Z"/><path class="cls-109" d="M256,400.63a5.81,5.81,0,0,1-5.81-5.81V117.18a5.81,5.81,0,1,1,11.62,0V394.82A5.81,5.81,0,0,1,256,400.63Z"/><path class="cls-110" d="M256,208a48,48,0,1,0,48,48A48.07,48.07,0,0,0,256,208Zm0,107.34A59.33,59.33,0,1,1,315.33,256,59.4,59.4,0,0,1,256,315.33Z"/><path class="cls-110" d="M460.78,286.11h23.54V225.88H460.78ZM490,297.43H455.12a5.65,5.65,0,0,1-5.65-5.66V220.23a5.65,5.65,0,0,1,5.65-5.66H490a5.65,5.65,0,0,1,5.66,5.66v71.54A5.65,5.65,0,0,1,490,297.43Z"/><path class="cls-110" d="M27.68,286.11H51.22V225.88H27.68Zm29.2,11.32H22a5.65,5.65,0,0,1-5.66-5.66V220.23A5.65,5.65,0,0,1,22,214.57H56.88a5.65,5.65,0,0,1,5.65,5.66v71.54A5.65,5.65,0,0,1,56.88,297.43Z"/><path class="cls-110" d="M256,400.48a5.65,5.65,0,0,1-5.66-5.66V117.18a5.66,5.66,0,0,1,11.32,0V394.82A5.65,5.65,0,0,1,256,400.48Z"/><path class="cls-111" d="M256,207.83A48.17,48.17,0,1,0,304.17,256,48.23,48.23,0,0,0,256,207.83Zm0,107.35A59.18,59.18,0,1,1,315.18,256,59.25,59.25,0,0,1,256,315.18Z"/><path class="cls-111" d="M460.63,286.27h23.84V225.73H460.63Zm29.35,11H455.12a5.51,5.51,0,0,1-5.5-5.51V220.23a5.51,5.51,0,0,1,5.5-5.51H490a5.51,5.51,0,0,1,5.5,5.51v71.54A5.51,5.51,0,0,1,490,297.28Z"/><path class="cls-111" d="M27.53,286.27H51.37V225.73H27.53Zm29.35,11H22a5.51,5.51,0,0,1-5.5-5.51V220.23a5.51,5.51,0,0,1,5.5-5.51H56.88a5.51,5.51,0,0,1,5.5,5.51v71.54A5.51,5.51,0,0,1,56.88,297.28Z"/><path class="cls-111" d="M256,400.33a5.51,5.51,0,0,1-5.51-5.51V117.18a5.51,5.51,0,1,1,11,0V394.82A5.51,5.51,0,0,1,256,400.33Z"/><path class="cls-112" d="M490,405.83H22a11,11,0,0,1-11-11V294.22a11,11,0,0,1,22,0v89.59H479v-92a11,11,0,0,1,22,0V394.82A11,11,0,0,1,490,405.83Z"/><path class="cls-112" d="M490,231.24a11,11,0,0,1-11-11v-92H33v92a11,11,0,1,1-22,0v-103a11,11,0,0,1,11-11H490a11,11,0,0,1,11,11v103A11,11,0,0,1,490,231.24Z"/><path class="cls-113" d="M490,405.68H22a10.86,10.86,0,0,1-10.86-10.86V294.22a10.86,10.86,0,0,1,21.72,0V384H479.12V291.77a10.86,10.86,0,1,1,21.72,0V394.82A10.86,10.86,0,0,1,490,405.68Z"/><path class="cls-113" d="M490,231.08a10.86,10.86,0,0,1-10.86-10.85V128H32.88v92.19a10.86,10.86,0,0,1-21.72,0v-103A10.86,10.86,0,0,1,22,106.32H490a10.86,10.86,0,0,1,10.86,10.86v103A10.86,10.86,0,0,1,490,231.08Z"/><path class="cls-114" d="M490,405.53H22a10.71,10.71,0,0,1-10.7-10.71V294.22a10.71,10.71,0,0,1,21.41,0v89.9H479.27V291.77a10.71,10.71,0,0,1,21.41,0V394.82A10.71,10.71,0,0,1,490,405.53Z"/><path class="cls-114" d="M490,230.93a10.71,10.71,0,0,1-10.71-10.7V127.88H32.73v92.35a10.71,10.71,0,0,1-21.41,0v-103A10.71,10.71,0,0,1,22,106.47H490a10.71,10.71,0,0,1,10.7,10.71v103A10.7,10.7,0,0,1,490,230.93Z"/><path class="cls-115" d="M490,405.37H22a10.55,10.55,0,0,1-10.55-10.55V294.22a10.55,10.55,0,0,1,21.1,0v90H479.43v-92.5a10.55,10.55,0,1,1,21.1,0V394.82A10.55,10.55,0,0,1,490,405.37Z"/><path class="cls-115" d="M490,230.78a10.55,10.55,0,0,1-10.55-10.55v-92.5H32.57v92.5a10.55,10.55,0,1,1-21.1,0v-103A10.55,10.55,0,0,1,22,106.63H490a10.55,10.55,0,0,1,10.55,10.55v103A10.55,10.55,0,0,1,490,230.78Z"/><path class="cls-116" d="M490,405.22H22a10.4,10.4,0,0,1-10.4-10.4V294.22a10.4,10.4,0,1,1,20.8,0v90.2H479.58V291.77a10.4,10.4,0,1,1,20.8,0V394.82A10.4,10.4,0,0,1,490,405.22Z"/><path class="cls-116" d="M490,230.63a10.4,10.4,0,0,1-10.4-10.4V127.58H32.42v92.65a10.4,10.4,0,1,1-20.8,0v-103A10.4,10.4,0,0,1,22,106.78H490a10.4,10.4,0,0,1,10.4,10.4v103A10.4,10.4,0,0,1,490,230.63Z"/><path class="cls-117" d="M490,405.07H22a10.24,10.24,0,0,1-10.24-10.25V294.22a10.25,10.25,0,1,1,20.49,0v90.36H479.73V291.77a10.25,10.25,0,0,1,20.49,0V394.82A10.24,10.24,0,0,1,490,405.07Z"/><path class="cls-117" d="M490,230.47a10.25,10.25,0,0,1-10.25-10.24V127.42H32.27v92.81a10.25,10.25,0,0,1-20.49,0v-103A10.24,10.24,0,0,1,22,106.93H490a10.24,10.24,0,0,1,10.24,10.25v103A10.24,10.24,0,0,1,490,230.47Z"/><path class="cls-118" d="M490,404.92H22a10.1,10.1,0,0,1-10.09-10.1V294.22a10.09,10.09,0,1,1,20.18,0v90.51H479.89v-93a10.09,10.09,0,1,1,20.18,0V394.82A10.1,10.1,0,0,1,490,404.92Z"/><path class="cls-118" d="M490,230.32a10.09,10.09,0,0,1-10.09-10.09v-93H32.11v93a10.09,10.09,0,0,1-20.18,0v-103A10.1,10.1,0,0,1,22,107.08H490a10.1,10.1,0,0,1,10.09,10.1v103A10.09,10.09,0,0,1,490,230.32Z"/><path class="cls-119" d="M490,404.76H22a9.94,9.94,0,0,1-9.94-9.94V294.22a9.94,9.94,0,1,1,19.88,0v90.66H480V291.77a9.94,9.94,0,0,1,19.88,0V394.82A9.94,9.94,0,0,1,490,404.76Z"/><path class="cls-119" d="M490,230.17a9.94,9.94,0,0,1-9.94-9.94V127.12H32v93.11a9.94,9.94,0,0,1-19.88,0v-103A9.94,9.94,0,0,1,22,107.24H490a9.94,9.94,0,0,1,9.94,9.94v103A9.94,9.94,0,0,1,490,230.17Z"/><path class="cls-120" d="M490,404.61H22a9.79,9.79,0,0,1-9.79-9.79V294.22a9.79,9.79,0,0,1,19.58,0V385H480.19V291.77a9.79,9.79,0,1,1,19.58,0V394.82A9.79,9.79,0,0,1,490,404.61Z"/><path class="cls-120" d="M490,230a9.78,9.78,0,0,1-9.79-9.78V127H31.81v93.27a9.79,9.79,0,0,1-19.58,0v-103A9.79,9.79,0,0,1,22,107.39H490a9.79,9.79,0,0,1,9.79,9.79v103A9.79,9.79,0,0,1,490,230Z"/><path class="cls-121" d="M490,404.46H22a9.64,9.64,0,0,1-9.63-9.64V294.22a9.64,9.64,0,0,1,19.27,0v91H480.34V291.77a9.64,9.64,0,0,1,19.27,0V394.82A9.64,9.64,0,0,1,490,404.46Z"/><path class="cls-121" d="M490,229.86a9.64,9.64,0,0,1-9.64-9.63V126.81H31.66v93.42a9.64,9.64,0,0,1-19.27,0v-103A9.64,9.64,0,0,1,22,107.54H490a9.64,9.64,0,0,1,9.63,9.64v103A9.63,9.63,0,0,1,490,229.86Z"/><path class="cls-122" d="M490,404.3H22a9.47,9.47,0,0,1-9.48-9.48V294.22a9.48,9.48,0,0,1,19,0v91.12h449V291.77a9.48,9.48,0,1,1,19,0V394.82A9.47,9.47,0,0,1,490,404.3Z"/><path class="cls-122" d="M490,229.71a9.48,9.48,0,0,1-9.48-9.48V126.66H31.5v93.57a9.48,9.48,0,1,1-19,0v-103A9.47,9.47,0,0,1,22,107.7H490a9.47,9.47,0,0,1,9.48,9.48v103A9.48,9.48,0,0,1,490,229.71Z"/><path class="cls-123" d="M490,404.15H22a9.33,9.33,0,0,1-9.33-9.33V294.22a9.33,9.33,0,0,1,18.66,0v91.27h449.3V291.77a9.33,9.33,0,1,1,18.66,0V394.82A9.33,9.33,0,0,1,490,404.15Z"/><path class="cls-123" d="M490,229.55a9.33,9.33,0,0,1-9.33-9.32V126.51H31.35v93.72a9.33,9.33,0,0,1-18.66,0v-103A9.33,9.33,0,0,1,22,107.85H490a9.33,9.33,0,0,1,9.33,9.33v103A9.33,9.33,0,0,1,490,229.55Z"/><path class="cls-124" d="M490,404H22a9.17,9.17,0,0,1-9.17-9.18V294.22a9.18,9.18,0,1,1,18.35,0v91.43H480.8V291.77a9.18,9.18,0,0,1,18.35,0V394.82A9.17,9.17,0,0,1,490,404Z"/><path class="cls-124" d="M490,229.4a9.18,9.18,0,0,1-9.18-9.17V126.35H31.2v93.88a9.18,9.18,0,0,1-18.35,0v-103A9.17,9.17,0,0,1,22,108H490a9.17,9.17,0,0,1,9.17,9.18v103A9.17,9.17,0,0,1,490,229.4Z"/><path class="cls-125" d="M490,403.85H22a9,9,0,0,1-9-9V294.22a9,9,0,0,1,18,0V385.8H481v-94a9,9,0,1,1,18,0V394.82A9,9,0,0,1,490,403.85Z"/><path class="cls-125" d="M490,229.25a9,9,0,0,1-9-9v-94H31v94a9,9,0,1,1-18,0v-103a9,9,0,0,1,9-9H490a9,9,0,0,1,9,9v103A9,9,0,0,1,490,229.25Z"/><path class="cls-126" d="M490,403.69H22a8.87,8.87,0,0,1-8.87-8.87V294.22a8.87,8.87,0,0,1,17.74,0V386H481.11V291.77a8.87,8.87,0,0,1,17.74,0V394.82A8.87,8.87,0,0,1,490,403.69Z"/><path class="cls-126" d="M490,229.1a8.87,8.87,0,0,1-8.87-8.87V126.05H30.89v94.18a8.87,8.87,0,0,1-17.74,0v-103A8.87,8.87,0,0,1,22,108.31H490a8.87,8.87,0,0,1,8.87,8.87v103A8.87,8.87,0,0,1,490,229.1Z"/><path class="cls-127" d="M490,403.54H22a8.72,8.72,0,0,1-8.72-8.72V294.22a8.72,8.72,0,0,1,17.44,0v91.89H481.26V291.77a8.72,8.72,0,1,1,17.44,0V394.82A8.72,8.72,0,0,1,490,403.54Z"/><path class="cls-127" d="M490,228.94a8.71,8.71,0,0,1-8.72-8.71V125.89H30.74v94.34a8.72,8.72,0,0,1-17.44,0v-103A8.72,8.72,0,0,1,22,108.46H490a8.72,8.72,0,0,1,8.72,8.72v103A8.72,8.72,0,0,1,490,228.94Z"/><path class="cls-128" d="M490,403.39H22a8.57,8.57,0,0,1-8.56-8.57V294.22a8.57,8.57,0,0,1,17.13,0v92H481.41V291.77a8.57,8.57,0,0,1,17.13,0V394.82A8.57,8.57,0,0,1,490,403.39Z"/><path class="cls-128" d="M490,228.79a8.57,8.57,0,0,1-8.57-8.56V125.74H30.59v94.49a8.57,8.57,0,0,1-17.13,0v-103A8.57,8.57,0,0,1,22,108.61H490a8.57,8.57,0,0,1,8.56,8.57v103A8.56,8.56,0,0,1,490,228.79Z"/><path class="cls-129" d="M490,403.23H22a8.41,8.41,0,0,1-8.41-8.41V294.22a8.41,8.41,0,1,1,16.82,0v92.19H481.57V291.77a8.41,8.41,0,1,1,16.82,0V394.82A8.41,8.41,0,0,1,490,403.23Z"/><path class="cls-129" d="M490,228.64a8.41,8.41,0,0,1-8.41-8.41V125.59H30.43v94.64a8.41,8.41,0,0,1-16.82,0v-103A8.41,8.41,0,0,1,22,108.77H490a8.41,8.41,0,0,1,8.41,8.41v103A8.42,8.42,0,0,1,490,228.64Z"/><path class="cls-130" d="M490,403.08H22a8.26,8.26,0,0,1-8.26-8.26V294.22a8.26,8.26,0,0,1,16.52,0v92.34H481.72V291.77a8.26,8.26,0,0,1,16.52,0V394.82A8.26,8.26,0,0,1,490,403.08Z"/><path class="cls-130" d="M490,228.48a8.25,8.25,0,0,1-8.26-8.25V125.44H30.28v94.79a8.26,8.26,0,0,1-16.52,0v-103A8.26,8.26,0,0,1,22,108.92H490a8.26,8.26,0,0,1,8.26,8.26v103A8.25,8.25,0,0,1,490,228.48Z"/><path class="cls-131" d="M490,402.93H22a8.1,8.1,0,0,1-8.1-8.11V294.22a8.11,8.11,0,0,1,16.21,0v92.5H481.87v-95a8.11,8.11,0,0,1,16.21,0V394.82A8.1,8.1,0,0,1,490,402.93Z"/><path class="cls-131" d="M490,228.33a8.11,8.11,0,0,1-8.11-8.1V125.28H30.13v94.95a8.11,8.11,0,0,1-16.21,0v-103a8.1,8.1,0,0,1,8.1-8.11H490a8.1,8.1,0,0,1,8.1,8.11v103A8.1,8.1,0,0,1,490,228.33Z"/><path class="cls-132" d="M490,402.77H22a8,8,0,0,1-7.95-7.95V294.22a7.95,7.95,0,1,1,15.9,0v92.65H482v-95.1a8,8,0,1,1,15.9,0V394.82A8,8,0,0,1,490,402.77Z"/><path class="cls-132" d="M490,228.18a8,8,0,0,1-8-8v-95.1H30v95.1a8,8,0,0,1-15.9,0v-103a8,8,0,0,1,8-8H490a8,8,0,0,1,7.95,8v103A8,8,0,0,1,490,228.18Z"/><path class="cls-133" d="M490,402.62H22a7.8,7.8,0,0,1-7.8-7.8V294.22a7.8,7.8,0,0,1,15.6,0V387H482.18V291.77a7.8,7.8,0,1,1,15.6,0V394.82A7.8,7.8,0,0,1,490,402.62Z"/><path class="cls-133" d="M490,228a7.8,7.8,0,0,1-7.8-7.8V125H29.82v95.25a7.8,7.8,0,1,1-15.6,0v-103a7.8,7.8,0,0,1,7.8-7.8H490a7.8,7.8,0,0,1,7.8,7.8v103A7.8,7.8,0,0,1,490,228Z"/><path class="cls-134" d="M490,402.47H22a7.64,7.64,0,0,1-7.64-7.65V294.22a7.65,7.65,0,1,1,15.29,0v93H482.33V291.77a7.65,7.65,0,0,1,15.29,0V394.82A7.64,7.64,0,0,1,490,402.47Z"/><path class="cls-134" d="M490,227.87a7.64,7.64,0,0,1-7.65-7.64V124.82H29.67v95.41a7.65,7.65,0,0,1-15.29,0v-103A7.64,7.64,0,0,1,22,109.53H490a7.64,7.64,0,0,1,7.64,7.65v103A7.64,7.64,0,0,1,490,227.87Z"/><path class="cls-135" d="M490,402.32H22a7.49,7.49,0,0,1-7.49-7.5V294.22a7.49,7.49,0,0,1,15,0v93.11h453V291.77a7.49,7.49,0,0,1,15,0V394.82A7.49,7.49,0,0,1,490,402.32Z"/><path class="cls-135" d="M490,227.72a7.49,7.49,0,0,1-7.49-7.49V124.67h-453v95.56a7.49,7.49,0,0,1-15,0v-103a7.49,7.49,0,0,1,7.49-7.5H490a7.49,7.49,0,0,1,7.49,7.5v103A7.49,7.49,0,0,1,490,227.72Z"/><path class="cls-136" d="M490,402.16H22a7.34,7.34,0,0,1-7.34-7.34V294.22a7.34,7.34,0,0,1,14.68,0v93.26H482.64V291.77a7.34,7.34,0,1,1,14.68,0V394.82A7.34,7.34,0,0,1,490,402.16Z"/><path class="cls-136" d="M490,227.57a7.34,7.34,0,0,1-7.34-7.34V124.52H29.36v95.71a7.34,7.34,0,0,1-14.68,0v-103A7.34,7.34,0,0,1,22,109.84H490a7.34,7.34,0,0,1,7.34,7.34v103A7.34,7.34,0,0,1,490,227.57Z"/><path class="cls-137" d="M490,402H22a7.19,7.19,0,0,1-7.19-7.19V294.22a7.19,7.19,0,1,1,14.38,0v93.41H482.79V291.77a7.19,7.19,0,0,1,14.38,0V394.82A7.19,7.19,0,0,1,490,402Z"/><path class="cls-137" d="M490,227.41a7.19,7.19,0,0,1-7.19-7.18V124.37H29.21v95.86a7.19,7.19,0,0,1-14.38,0v-103A7.19,7.19,0,0,1,22,110H490a7.19,7.19,0,0,1,7.19,7.19v103A7.19,7.19,0,0,1,490,227.41Z"/><path class="cls-138" d="M490,401.86H22a7,7,0,0,1-7-7V294.22a7,7,0,0,1,14.07,0v93.57H482.94v-96a7,7,0,0,1,14.07,0V394.82A7,7,0,0,1,490,401.86Z"/><path class="cls-138" d="M490,227.26a7,7,0,0,1-7-7v-96H29.06v96a7,7,0,0,1-14.07,0v-103a7,7,0,0,1,7-7H490a7,7,0,0,1,7,7v103A7,7,0,0,1,490,227.26Z"/><path class="cls-139" d="M490,401.7H22a6.88,6.88,0,0,1-6.88-6.88V294.22a6.88,6.88,0,1,1,13.76,0v93.72H483.1V291.77a6.88,6.88,0,0,1,13.76,0V394.82A6.88,6.88,0,0,1,490,401.7Z"/><path class="cls-139" d="M490,227.11a6.88,6.88,0,0,1-6.88-6.88V124.06H28.9v96.17a6.88,6.88,0,1,1-13.76,0v-103A6.88,6.88,0,0,1,22,110.3H490a6.88,6.88,0,0,1,6.88,6.88v103A6.88,6.88,0,0,1,490,227.11Z"/><path class="cls-140" d="M490,401.55H22a6.73,6.73,0,0,1-6.73-6.73V294.22a6.73,6.73,0,0,1,13.46,0v93.87h454.5V291.77a6.73,6.73,0,1,1,13.46,0V394.82A6.73,6.73,0,0,1,490,401.55Z"/><path class="cls-140" d="M490,227a6.72,6.72,0,0,1-6.73-6.72V123.91H28.75v96.32a6.73,6.73,0,0,1-13.46,0v-103A6.73,6.73,0,0,1,22,110.45H490a6.73,6.73,0,0,1,6.73,6.73v103A6.72,6.72,0,0,1,490,227Z"/><path class="cls-141" d="M490,401.4H22a6.58,6.58,0,0,1-6.57-6.58V294.22a6.58,6.58,0,1,1,13.15,0v94H483.4V291.77a6.58,6.58,0,0,1,13.15,0V394.82A6.58,6.58,0,0,1,490,401.4Z"/><path class="cls-141" d="M490,226.8a6.57,6.57,0,0,1-6.58-6.57V123.75H28.6v96.48a6.58,6.58,0,0,1-13.15,0v-103A6.58,6.58,0,0,1,22,110.6H490a6.58,6.58,0,0,1,6.57,6.58v103A6.57,6.57,0,0,1,490,226.8Z"/><path class="cls-142" d="M490,401.25H22a6.42,6.42,0,0,1-6.42-6.43V294.22a6.42,6.42,0,0,1,12.84,0V388.4H483.56V291.77a6.42,6.42,0,1,1,12.84,0V394.82A6.42,6.42,0,0,1,490,401.25Z"/><path class="cls-142" d="M490,226.65a6.42,6.42,0,0,1-6.42-6.42V123.6H28.44v96.63a6.42,6.42,0,1,1-12.84,0v-103A6.42,6.42,0,0,1,22,110.75H490a6.42,6.42,0,0,1,6.42,6.43v103A6.42,6.42,0,0,1,490,226.65Z"/><path class="cls-143" d="M490,401.09H22a6.27,6.27,0,0,1-6.27-6.27V294.22a6.27,6.27,0,0,1,12.54,0v94.33H483.71V291.77a6.27,6.27,0,1,1,12.54,0V394.82A6.27,6.27,0,0,1,490,401.09Z"/><path class="cls-143" d="M490,226.5a6.27,6.27,0,0,1-6.27-6.27V123.45H28.29v96.78a6.27,6.27,0,1,1-12.54,0v-103A6.27,6.27,0,0,1,22,110.91H490a6.27,6.27,0,0,1,6.27,6.27v103A6.27,6.27,0,0,1,490,226.5Z"/><path class="cls-144" d="M490,400.94H22a6.12,6.12,0,0,1-6.12-6.12V294.22a6.12,6.12,0,0,1,12.24,0v94.49H483.86V291.77a6.12,6.12,0,0,1,12.24,0V394.82A6.12,6.12,0,0,1,490,400.94Z"/><path class="cls-144" d="M490,226.34a6.12,6.12,0,0,1-6.12-6.11V123.29H28.14v96.94a6.12,6.12,0,0,1-12.24,0v-103A6.12,6.12,0,0,1,22,111.06H490a6.12,6.12,0,0,1,6.12,6.12v103A6.12,6.12,0,0,1,490,226.34Z"/><path class="cls-145" d="M490,400.79H22a6,6,0,0,1-6-6V294.22a6,6,0,0,1,11.93,0v94.64H484V291.77a6,6,0,0,1,11.93,0V394.82A6,6,0,0,1,490,400.79Z"/><path class="cls-145" d="M490,226.19a6,6,0,0,1-6-6V123.14H28v97.09a6,6,0,0,1-11.93,0v-103a6,6,0,0,1,6-6H490a6,6,0,0,1,6,6v103A6,6,0,0,1,490,226.19Z"/><path class="cls-146" d="M490,400.63H22a5.81,5.81,0,0,1-5.81-5.81V294.22a5.81,5.81,0,0,1,11.62,0V389H484.17V291.77a5.81,5.81,0,0,1,11.62,0V394.82A5.81,5.81,0,0,1,490,400.63Z"/><path class="cls-146" d="M490,226a5.81,5.81,0,0,1-5.81-5.81V123H27.83v97.24a5.81,5.81,0,0,1-11.62,0v-103A5.81,5.81,0,0,1,22,111.37H490a5.81,5.81,0,0,1,5.81,5.81v103A5.81,5.81,0,0,1,490,226Z"/><path class="cls-147" d="M490,400.48H22a5.65,5.65,0,0,1-5.66-5.66V294.22a5.66,5.66,0,1,1,11.32,0v94.94H484.32V291.77a5.66,5.66,0,1,1,11.32,0V394.82A5.65,5.65,0,0,1,490,400.48Z"/><path class="cls-147" d="M490,225.88a5.65,5.65,0,0,1-5.66-5.65V122.84H27.68v97.39a5.66,5.66,0,0,1-11.32,0v-103A5.65,5.65,0,0,1,22,111.52H490a5.65,5.65,0,0,1,5.66,5.66v103A5.65,5.65,0,0,1,490,225.88Z"/><path class="cls-148" d="M490,400.33H22a5.51,5.51,0,0,1-5.5-5.51V294.22a5.51,5.51,0,0,1,11,0v95.1H484.47V291.77a5.51,5.51,0,0,1,11,0V394.82A5.51,5.51,0,0,1,490,400.33Z"/><path class="cls-148" d="M490,225.73a5.51,5.51,0,0,1-5.51-5.5V122.68H27.53v97.55a5.51,5.51,0,0,1-11,0v-103a5.51,5.51,0,0,1,5.5-5.51H490a5.51,5.51,0,0,1,5.5,5.51v103A5.5,5.5,0,0,1,490,225.73Z"/><path class="cls-149" d="M490,397.58H22a2.76,2.76,0,0,1-2.75-2.76V117.18A2.76,2.76,0,0,1,22,114.42H490a2.76,2.76,0,0,1,2.75,2.76V394.82A2.76,2.76,0,0,1,490,397.58ZM24.77,392.07H487.23V119.93H24.77Z"/><path class="cls-149" d="M256,397.58a2.76,2.76,0,0,1-2.75-2.76V117.18a2.75,2.75,0,1,1,5.5,0V394.82A2.76,2.76,0,0,1,256,397.58Z"/><path class="cls-149" d="M256,312.42A56.42,56.42,0,1,1,312.42,256,56.48,56.48,0,0,1,256,312.42Zm0-107.34A50.92,50.92,0,1,0,306.92,256,51,51,0,0,0,256,205.08Z"/><path class="cls-149" d="M490,294.52H455.12a2.75,2.75,0,0,1-2.75-2.75V220.23a2.75,2.75,0,0,1,2.75-2.76H490a2.75,2.75,0,0,1,2.75,2.76v71.54A2.75,2.75,0,0,1,490,294.52Zm-32.1-5.5h29.35V223H457.88Z"/><path class="cls-149" d="M56.88,294.52H22a2.75,2.75,0,0,1-2.75-2.75V220.23A2.75,2.75,0,0,1,22,217.47H56.88a2.75,2.75,0,0,1,2.75,2.76v71.54A2.75,2.75,0,0,1,56.88,294.52ZM24.77,289H54.12V223H24.77Z"/></svg>