<svg id="Capa_1" enable-background="new 0 0 510.84 510.84" height="512" viewBox="0 0 510.84 510.84" width="512" xmlns="http://www.w3.org/2000/svg"><g><path d="m263.92 229.014 37.933-27.56c3.688 1.557 7.302 3.293 10.816 5.221 3.631 1.994 8.19.663 10.183-2.968s.664-8.19-2.968-10.183c-19.645-10.778-41.936-16.475-64.464-16.475-74.004 0-134.211 60.207-134.211 134.211s60.207 134.211 134.211 134.211 134.211-60.207 134.211-134.211c0-36.89-15.431-72.546-42.335-97.824-3.021-2.837-7.766-2.689-10.602.33s-2.688 7.765.33 10.602c3.574 3.358 6.904 6.895 9.996 10.585l-15.072 45.139-25.652 6.948-42.378-30.789v-27.237zm20.443-33.394-27.944 20.302-28.457-20.675c8.818-2.087 18.01-3.197 27.457-3.197 9.785 0 19.514 1.217 28.944 3.57zm-74.088 5.316 38.645 28.077v25.786l-44.378 32.242-25.652-6.948-15.047-45.065c12.379-14.845 28.291-26.641 46.432-34.092zm-10.841 170.788-47.857-1.974c-8.042-14.222-13.245-30.248-14.84-47.309l37.852-27.972 25.578 6.928 16.313 50.205zm-62.998-67.712c1.181-19.586 7.109-37.911 16.652-53.837l11.122 33.312zm25.534 81.18 35.064 1.446 9.31 33.259c-17.424-7.903-32.62-19.88-44.374-34.705zm61.708 40.982-12.595-44.994 17.299-20.419h54.077l17.299 20.419-12.595 44.994c-10.111 2.796-20.754 4.298-31.742 4.298s-21.632-1.501-31.743-4.298zm86.994-124.777 25.578-6.928 37.852 27.972c-1.594 17.061-6.798 33.087-14.84 47.309l-47.857 1.974-17.047-20.122zm-6.176 118.499 9.31-33.259 35.064-1.446c-11.754 14.826-26.95 26.803-44.374 34.705zm53.299-169.849c9.77 16.245 15.473 34.621 16.614 53.969l-27.779-20.529zm-77.31 95.714h-50.131l-15.491-47.677 40.557-29.466 40.557 29.466z"/><path d="m464.523 65.068h-31.894v-19.552c0-12.841-10.447-23.288-23.288-23.288s-23.288 10.447-23.288 23.288v19.552h-30.384v-19.552c0-12.841-10.447-23.288-23.289-23.288s-23.288 10.447-23.288 23.288v19.552h-30.384v-19.552c0-12.841-10.447-23.288-23.288-23.288s-23.288 10.447-23.288 23.288v19.552h-30.384v-19.552c0-12.841-10.447-23.288-23.289-23.288s-23.288 10.447-23.288 23.288v19.552h-30.384v-19.552c0-12.841-10.447-23.288-23.288-23.288s-23.289 10.447-23.289 23.288v19.552h-31.894c-25.539 0-46.316 20.778-46.316 46.317v230.424c0 4.142 3.358 7.5 7.5 7.5s7.5-3.358 7.5-7.5v-192.18h408.902c4.142 0 7.5-3.358 7.5-7.5s-3.358-7.5-7.5-7.5h-408.902v-23.244c0-17.268 14.048-31.316 31.316-31.316h31.894v4.359c0 12.841 10.447 23.288 23.288 23.288s23.288-10.447 23.288-23.288v-4.359h30.384v4.359c0 12.841 10.447 23.288 23.288 23.288s23.289-10.447 23.289-23.288v-4.359h30.384v4.359c0 12.841 10.447 23.288 23.288 23.288s23.288-10.447 23.288-23.288v-4.359h30.384v4.359c0 12.841 10.447 23.288 23.288 23.288 12.841 0 23.288-10.447 23.288-23.288v-4.359h30.384v4.359c0 12.841 10.447 23.288 23.288 23.288s23.288-10.447 23.288-23.288v-4.359h31.894c17.268 0 31.316 14.048 31.316 31.316v23.244h-39.976c-4.142 0-7.5 3.358-7.5 7.5s3.358 7.5 7.5 7.5h39.976v292.667c0 17.268-14.048 31.316-31.316 31.316h-418.205c-17.268 0-31.316-14.049-31.316-31.317v-68.524c0-4.142-3.358-7.5-7.5-7.5s-7.5 3.358-7.5 7.5v68.524c0 25.539 20.777 46.316 46.316 46.316h418.207c25.539 0 46.316-20.777 46.316-46.316v-330.91c.001-25.539-20.777-46.317-46.316-46.317zm-354.736 19.36c0 4.57-3.718 8.288-8.288 8.288s-8.288-3.718-8.288-8.288v-38.912c0-4.57 3.718-8.288 8.288-8.288s8.288 3.718 8.288 8.288zm76.961 0c0 4.57-3.718 8.288-8.289 8.288-4.57 0-8.288-3.718-8.288-8.288v-38.912c0-4.57 3.718-8.288 8.288-8.288s8.289 3.718 8.289 8.288zm76.96 0c0 4.57-3.718 8.288-8.288 8.288s-8.288-3.718-8.288-8.288v-38.912c0-4.57 3.718-8.288 8.288-8.288s8.288 3.718 8.288 8.288zm76.961 0c0 4.57-3.718 8.288-8.289 8.288-4.57 0-8.288-3.718-8.288-8.288v-38.912c0-4.57 3.718-8.288 8.289-8.288 4.57 0 8.288 3.718 8.288 8.288zm76.96 0c0 4.57-3.718 8.288-8.288 8.288s-8.288-3.718-8.288-8.288v-38.912c0-4.57 3.718-8.288 8.288-8.288s8.288 3.718 8.288 8.288z"/></g></svg>