<svg id="Capa_1" enable-background="new 0 0 512.077 512.077" height="512" viewBox="0 0 512.077 512.077" width="512" xmlns="http://www.w3.org/2000/svg"><g><path d="m361.885 162.89c0-4.142-3.357-7.5-7.5-7.5s-7.5 3.358-7.5 7.5v15.271c0 4.142 3.357 7.5 7.5 7.5s7.5-3.358 7.5-7.5z"/><path d="m361.885 206.179c0-4.142-3.357-7.5-7.5-7.5s-7.5 3.358-7.5 7.5v15.271c0 4.142 3.357 7.5 7.5 7.5s7.5-3.358 7.5-7.5z"/><path d="m361.885 249.468c0-4.142-3.357-7.5-7.5-7.5s-7.5 3.358-7.5 7.5v15.271c0 4.142 3.357 7.5 7.5 7.5s7.5-3.358 7.5-7.5z"/><path d="m361.885 292.757c0-4.142-3.357-7.5-7.5-7.5s-7.5 3.358-7.5 7.5v15.271c0 4.142 3.357 7.5 7.5 7.5s7.5-3.358 7.5-7.5z"/><path d="m354.385 328.546c-4.143 0-7.5 3.358-7.5 7.5v15.271c0 4.142 3.357 7.5 7.5 7.5s7.5-3.358 7.5-7.5v-15.271c0-4.142-3.358-7.5-7.5-7.5z"/><path d="m440.736 174.126h-51.713c-4.143 0-7.5 3.358-7.5 7.5s3.357 7.5 7.5 7.5h51.713c4.143 0 7.5-3.358 7.5-7.5s-3.357-7.5-7.5-7.5z"/><path d="m440.736 209.414h-51.713c-4.143 0-7.5 3.358-7.5 7.5s3.357 7.5 7.5 7.5h51.713c4.143 0 7.5-3.358 7.5-7.5s-3.357-7.5-7.5-7.5z"/><path d="m440.736 244.701h-51.713c-4.143 0-7.5 3.358-7.5 7.5s3.357 7.5 7.5 7.5h51.713c4.143 0 7.5-3.358 7.5-7.5s-3.357-7.5-7.5-7.5z"/><path d="m440.736 279.987h-51.713c-4.143 0-7.5 3.358-7.5 7.5s3.357 7.5 7.5 7.5h51.713c4.143 0 7.5-3.358 7.5-7.5s-3.357-7.5-7.5-7.5z"/><path d="m7.5 316.676c4.142 0 7.5-3.358 7.5-7.5v-13.654c18.234-3.537 31.702-19.675 31.702-38.483s-13.468-34.947-31.702-38.484v-58.539c17.445-3.118 31.239-16.912 34.357-34.356h297.528v9.211c0 4.142 3.357 7.5 7.5 7.5s7.5-3.358 7.5-7.5v-9.211h37.014c4.143 0 7.5-3.358 7.5-7.5s-3.357-7.5-7.5-7.5h-356.38c-4.142 0-7.5 3.358-7.5 7.5 0 15.174-12.345 27.519-27.519 27.519-4.142 0-7.5 3.358-7.5 7.5v67.778c0 6.093 4.594 11.29 10.685 12.087 11.982 1.57 21.018 11.886 21.018 23.995s-9.036 22.425-21.019 23.995c-6.091.799-10.684 5.995-10.684 12.087v16.055c0 4.142 3.358 7.5 7.5 7.5z"/><path d="m501.831 233.178c5.938-.996 10.246-6.053 10.246-12.025v-67.975c0-4.142-3.357-7.5-7.5-7.5-15.174 0-27.519-12.345-27.519-27.519 0-4.142-3.357-7.5-7.5-7.5h-38.697c-4.143 0-7.5 3.358-7.5 7.5s3.357 7.5 7.5 7.5h31.859c3.118 17.445 16.911 31.239 34.356 34.356v58.817c-17.756 4.045-30.41 19.759-30.41 38.205s12.654 34.159 30.41 38.205v56.817c-17.445 3.118-31.238 16.912-34.356 34.356h-100.835v-7.083c0-4.142-3.357-7.5-7.5-7.5s-7.5 3.358-7.5 7.5v7.083h-297.528c-3.118-17.442-16.912-31.236-34.357-34.354v-10.922c0-4.142-3.358-7.5-7.5-7.5s-7.5 3.358-7.5 7.5v17.76c0 4.142 3.358 7.5 7.5 7.5 15.174 0 27.519 12.345 27.519 27.519 0 4.142 3.358 7.5 7.5 7.5h427.04c4.143 0 7.5-3.358 7.5-7.5 0-15.174 12.345-27.519 27.519-27.519 4.143 0 7.5-3.358 7.5-7.5v-65.975c0-5.973-4.31-11.03-10.247-12.025-11.683-1.958-20.163-11.993-20.163-23.86s8.479-21.903 20.163-23.861z"/><path d="m196.138 247.695c-.257 4.134 2.886 7.694 7.021 7.95 4.142.27 7.694-2.886 7.95-7.021.145-2.326.215-4.479.215-6.583v-28.366c0-5.648-3.297-10.862-8.4-13.285l-47.689-22.634c-10.241-4.86-21.987-4.86-32.227 0l-47.689 22.634c-5.103 2.422-8.4 7.637-8.4 13.285v28.366c0 40.304 22.359 76.608 58.352 94.746 4.337 2.186 9.094 3.278 13.852 3.278 4.757 0 9.516-1.093 13.852-3.278 22.843-11.511 40.761-30.9 50.454-54.597 1.568-3.834-.269-8.213-4.103-9.781-3.835-1.567-8.213.269-9.781 4.103-8.266 20.208-23.501 36.761-42.921 46.668v-132.769c.737.261 1.466.557 2.182.896l47.521 22.555v28.18c-.004 1.791-.064 3.64-.189 5.653zm-64.518 75.487c-30.668-15.64-49.703-46.686-49.703-81.141v-28.18l47.521-22.555c.716-.34 1.444-.636 2.182-.896z"/></g></svg>