<svg id="Capa_1" enable-background="new 0 0 511.49 511.49" height="512" viewBox="0 0 511.49 511.49" width="512" xmlns="http://www.w3.org/2000/svg"><path d="m493.26 447.336h-15.162l-78.221-367.989c-.86-4.051-4.844-6.638-8.896-5.776-4.052.861-6.638 4.844-5.776 8.896l7.176 33.757h-122.11l20.841-98.045c.392-1.841 2.042-3.178 3.924-3.178h72.581c1.882 0 3.531 1.336 3.923 3.177l6.925 32.577c.86 4.052 4.844 6.639 8.896 5.776 4.052-.861 6.638-4.844 5.776-8.896l-6.925-32.576c-1.854-8.725-9.675-15.058-18.595-15.058h-72.581c-8.919 0-16.739 6.332-18.596 15.058l-28.599 134.545c-19.304-6.793-40.049-10.503-61.647-10.503-34.582 0-68.35 9.56-97.654 27.646-3.524 2.176-4.618 6.796-2.442 10.321 2.175 3.525 6.796 4.618 10.321 2.443 8.742-5.396 17.922-9.951 27.415-13.663l57.655 41.888v39.499l-65.043 47.257-39.188-10.615-22.699-67.983c5.289-6.371 11.052-12.396 17.286-17.995 3.082-2.768 3.336-7.51.568-10.591-2.767-3.08-7.509-3.337-10.592-.568-39.288 35.292-61.821 85.793-61.821 138.555 0 102.668 83.526 186.195 186.193 186.195.263 0 .524-.009.787-.01.071.002.141.01.213.01h306.067c10.053 0 18.23-8.178 18.23-18.23v-27.693c0-10.053-8.178-18.231-18.23-18.231zm-240.988 35.881 15.285-54.604 56.789-2.342c-18.296 24.964-43.179 44.81-72.074 56.946zm-111.836 7.053-18.787-67.115 26.372-31.13h79.115l26.372 31.13-18.544 66.245c-15.464 4.604-31.831 7.089-48.771 7.089-15.842.001-31.186-2.172-45.757-6.219zm-124.747-149.697 57.266-42.318 39.115 10.595 24.05 74.017-26.12 30.833-72.119-2.975c-12.137-20.991-19.937-44.786-22.192-70.152zm318.747 70.269-69.28 2.858-26.12-30.833 24.05-74.017 39.115-10.595 54.668 40.399c-2.026 26.134-9.949 50.639-22.433 72.188zm-137.948-203.104 55.639-40.424c26.616 11.15 49.835 28.839 67.647 51.045l-21.876 65.519-39.188 10.615-62.222-45.208zm230.161 69.7h-60.507c-6.912-25.968-19.304-49.722-35.866-69.941h81.506zm-69.338 42.891-44.73-33.055 17.99-53.879c16.135 25.261 25.825 55.017 26.74 86.934zm12.173-27.891h60.353l10.781 50.72h-69.092c.562-5.881.861-11.837.861-17.863.001-11.208-.996-22.189-2.903-32.857zm-102.402-161.215h128.487l13.024 61.273h-92.033c-15.737-15.451-34.193-28.137-54.583-37.259zm-80.889 22.878c16.958 0 33.343 2.491 48.822 7.104l-46.027 33.44-47.594-34.579c14.517-3.927 29.569-5.965 44.799-5.965zm1.385 107.253 60.812 44.183-23.229 71.489h-75.168l-23.229-71.489zm-125.002 25.92-47.538 35.13c.559-32.931 10.65-64.786 28.605-91.831zm-14.62 138.879 59.644 2.46 15.643 55.884c-30.274-12.012-56.327-32.427-75.287-58.344zm448.534 67.106c0 1.781-1.449 3.23-3.23 3.23h-233.874c19.507-8.372 37.303-19.983 52.715-34.154h94.808c4.143 0 7.5-3.358 7.5-7.5s-3.357-7.5-7.5-7.5h-80.209c21.608-24.845 36.752-55.451 42.783-89.178h74.324l18.956 89.178h-23.892c-4.143 0-7.5 3.358-7.5 7.5s3.357 7.5 7.5 7.5h54.389c1.781 0 3.23 1.449 3.23 3.23z"/></svg>