<svg id="Capa_1" enable-background="new 0 0 501.47 501.47" height="512" viewBox="0 0 501.47 501.47" width="512" xmlns="http://www.w3.org/2000/svg"><g><path d="m491.945 362.172-9.525-8.474c11.541-20.313 17.646-43.377 17.563-67.381-.258-74.594-61.784-135.281-137.151-135.281h-112.84c-4.143 0-7.5 3.358-7.5 7.5v27.013l-31.339-30.9c-2.362-2.33-5.49-3.613-8.809-3.613h-122.372c-4.143 0-7.5 3.358-7.5 7.5s3.357 7.5 7.5 7.5h121.365l35.123 34.63c3.559 3.508 8.835 4.529 13.445 2.6 4.608-1.928 7.587-6.403 7.587-11.399v-25.831h105.34c67.125 0 121.922 53.981 122.151 120.333.112 32.341-12.396 62.766-35.22 85.669-22.826 22.905-53.204 35.519-85.54 35.519-35.343 0-68.804-15.423-91.865-42.385l-58.457-66.654c-41.214-46.992-100.698-73.943-163.202-73.943h-34.065c-.9 0-1.634-.733-1.634-1.634v-55.271c0-.901.733-1.634 1.634-1.634h31.375c4.143 0 7.5-3.358 7.5-7.5s-3.357-7.5-7.5-7.5h-31.375c-9.172 0-16.634 7.462-16.634 16.634v55.271c0 9.172 7.462 16.634 16.634 16.634h34.065c58.185 0 113.56 25.089 151.925 68.833l58.396 66.583c25.854 30.228 63.47 47.564 103.203 47.564 29.336 0 57.238-9.241 80.403-26.34l9.507 8.458c5.253 4.673 11.897 7.194 18.869 7.194.563 0 1.129-.016 1.695-.049 7.585-.443 14.543-3.813 19.593-9.489 10.425-11.718 9.373-29.732-2.345-40.157zm-8.862 30.187c-2.387 2.683-5.675 4.275-9.26 4.485-3.583.208-7.037-.99-9.72-3.377l-7.789-6.929c1.378-1.275 2.74-2.574 4.074-3.912 5.06-5.077 9.661-10.488 13.799-16.175l7.787 6.928c5.539 4.927 6.036 13.441 1.109 18.98z"/><path d="m222.315 112.626c4.143 0 7.5-3.358 7.5-7.5v-18.712c0-4.142-3.357-7.5-7.5-7.5s-7.5 3.358-7.5 7.5v18.712c0 4.142 3.358 7.5 7.5 7.5z"/><path d="m250.729 120.807c1.919 0 3.839-.732 5.304-2.197l13.231-13.231c2.929-2.929 2.929-7.678 0-10.606-2.93-2.929-7.678-2.929-10.607 0l-13.231 13.231c-2.929 2.929-2.929 7.678 0 10.606 1.465 1.464 3.385 2.197 5.303 2.197z"/><path d="m188.599 118.61c1.465 1.464 3.385 2.197 5.304 2.197s3.839-.732 5.304-2.197c2.929-2.929 2.929-7.678 0-10.606l-13.231-13.231c-2.93-2.929-7.678-2.929-10.607 0s-2.929 7.678 0 10.606z"/><path d="m364.224 362.617c-20.003 0-38.881-7.732-53.156-21.773-2.95-2.903-7.7-2.866-10.605.088-2.905 2.953-2.865 7.702.088 10.606 17.098 16.817 39.711 26.079 63.674 26.079 50.079 0 90.821-40.742 90.821-90.821 0-25.458-10.791-49.91-29.607-67.087-3.059-2.792-7.803-2.577-10.596.482s-2.576 7.803.482 10.596c15.71 14.342 24.721 34.756 24.721 56.009-.001 41.808-34.015 75.821-75.822 75.821z"/><path d="m395.545 201.525c-10.023-3.683-20.562-5.55-31.321-5.55-50.078 0-90.82 40.742-90.82 90.821 0 12.453 2.488 24.538 7.395 35.92 1.223 2.836 3.987 4.533 6.892 4.533.99 0 1.998-.198 2.965-.615 3.804-1.64 5.559-6.053 3.919-9.856-4.094-9.496-6.17-19.583-6.17-29.981 0-41.808 34.013-75.821 75.82-75.821 8.989 0 17.787 1.558 26.147 4.63 3.89 1.428 8.198-.566 9.627-4.454 1.428-3.888-.566-8.198-4.454-9.627z"/></g></svg>