<svg id="Capa_1" enable-background="new 0 0 512.138 512.138" height="512" viewBox="0 0 512.138 512.138" width="512" xmlns="http://www.w3.org/2000/svg"><path d="m475.314 383.133c4.142 0 7.5-3.358 7.5-7.5v-361.44c0-7.826-6.367-14.193-14.193-14.193h-425.104c-7.827 0-14.193 6.367-14.193 14.193v483.751c0 7.826 6.367 14.193 14.193 14.193h425.104c7.826 0 14.193-6.367 14.193-14.193v-90.349c0-4.142-3.358-7.5-7.5-7.5s-7.5 3.358-7.5 7.5v45.844c-23.005 1.387-41.321 20.411-41.578 43.698h-32.72v-90.577c0-7.282-5.924-13.207-13.207-13.207h-75.174c-3.194-24.236-23.973-43.007-49.067-43.007s-45.872 18.771-49.067 43.007h-75.174c-7.282 0-13.207 5.924-13.207 13.207v90.578h-32.72c-.257-23.287-18.574-42.311-41.578-43.698v-188.871h153.894c3.694 28.642 28.219 50.85 57.851 50.85s54.157-22.207 57.851-50.85h153.894v111.064c.002 4.142 3.36 7.5 7.502 7.5zm-7.5-339.474c-14.727-1.348-26.328-13.645-26.578-28.659h26.578zm-255.095-28.659h86.699v36.892h-86.699zm-141.817 0c-.251 15.014-11.852 27.311-26.578 28.659v-28.659zm228.516 482.138h-86.699v-36.892h86.699zm168.396-28.659v28.659h-26.578c.25-15.014 11.851-27.31 26.578-28.659zm-211.745-103.132c16.805 0 30.835 12.078 33.884 28.007h-67.769c3.05-15.93 17.08-28.007 33.885-28.007zm-122.447 43.007h244.895v88.784h-64.098v-42.502c0-5.177-4.212-9.39-9.39-9.39h-97.92c-5.177 0-9.39 4.212-9.39 9.39v42.502h-64.098v-88.784zm-62.72 88.784h-26.578v-28.659c14.727 1.349 26.327 13.645 26.578 28.659zm243.014-247.569c-1.845-14.252-8.886-27.401-19.977-36.875-3.149-2.689-7.884-2.318-10.574.832s-2.317 7.884.832 10.574c9.674 8.262 15.222 20.279 15.222 32.968 0 23.903-19.447 43.35-43.35 43.35s-43.35-19.447-43.35-43.35 19.447-43.35 43.35-43.35c.833 0 1.733.033 2.835.104 4.134.27 7.7-2.869 7.967-7.002s-2.868-7.7-7.002-7.967c-1.43-.092-2.638-.135-3.8-.135-29.632 0-54.157 22.207-57.851 50.85h-153.894v-190.869c23.004-1.387 41.321-20.411 41.578-43.699h32.72v23.372c0 4.142 3.358 7.5 7.5 7.5s7.5-3.358 7.5-7.5v-23.372h64.098v42.502c0 5.177 4.212 9.39 9.39 9.39h97.92c5.177 0 9.39-4.212 9.39-9.39v-42.502h64.098v88.784h-244.896v-33.45c0-4.142-3.358-7.5-7.5-7.5s-7.5 3.358-7.5 7.5v35.243c0 7.282 5.925 13.207 13.207 13.207h75.174c3.194 24.236 23.973 43.007 49.067 43.007s45.872-18.771 49.067-43.007h75.174c7.282 0 13.207-5.924 13.207-13.207v-90.577h32.72c.257 23.288 18.574 42.312 41.578 43.699v190.87zm-23.963-130.785c-3.05 15.929-17.079 28.007-33.884 28.007s-30.835-12.078-33.884-28.007z"/></svg>