<svg id="Capa_1" enable-background="new 0 0 513.039 513.039" height="512" viewBox="0 0 513.039 513.039" width="512" xmlns="http://www.w3.org/2000/svg"><path d="m488.985 179.395-2.728-4.73c-2.709-4.699-7.343-7.84-12.711-8.618-5.366-.778-10.701.92-14.633 4.657l-27.677 26.306c-2.458 2.336-5.681 3.624-9.071 3.624h-21.903c-3.065 0-6.053-1.078-8.411-3.036l-53.697-44.576c-15.934-13.227-37.99-15.392-56.192-5.513l-123.547 67.053c-17.493 9.494-36.155 16.741-55.469 21.541l-8.368 2.08c-4.02.999-6.469 5.068-5.47 9.087s5.07 6.469 9.087 5.47l8.368-2.08c20.545-5.106 40.397-12.815 59.006-22.915l123.547-67.053c12.779-6.938 28.268-5.417 39.457 3.871l22.399 18.594c-58.426 13.739-106.984 54.9-129.9 110.851l-205.422-3.572c2.283-10.92 10.583-19.814 21.764-22.593l29.597-7.356c4.02-.999 6.469-5.067 5.47-9.087-1-4.021-5.07-6.469-9.088-5.47l-29.597 7.355c-19.899 4.95-33.797 22.725-33.796 43.23 0 24.267 19.511 44.05 43.668 44.52l2.374 17.751c.983 7.349 7.316 12.891 14.73 12.891h11.843c7.415 0 13.748-5.542 14.73-12.892l2.371-17.729h26.852l2.371 17.728c.983 7.35 7.315 12.892 14.73 12.892h11.843c7.415 0 13.748-5.542 14.73-12.892l2.371-17.729h26.853l2.371 17.729c.983 7.349 7.316 12.891 14.73 12.891h11.843c7.415 0 13.748-5.542 14.73-12.892l2.371-17.729h128.052l2.371 17.727c.981 7.351 7.313 12.893 14.729 12.893h11.844c7.416 0 13.748-5.542 14.729-12.892l2.371-17.729h15.001l2.371 17.727c.981 7.351 7.313 12.893 14.729 12.893h11.844c7.416 0 13.748-5.542 14.729-12.892l2.371-17.729h16.276c6.839 0 12.999-4.32 15.33-10.75 18.089-49.911 13.25-104.916-13.273-150.907zm-472.599 126.059 219.192 3.811c27.824.492 55.638 6.262 81.435 16.792h-272.47c-13.175 0-24.359-8.67-28.157-20.603zm56.108 51.223h-11.6l-2.089-15.62h15.778zm72.898 0h-11.6l-2.089-15.62h15.778zm72.897 0h-11.6l-2.089-15.62h15.778zm174.097 0h-11.6l-2.089-15.62h15.777zm61.046 0h-11.6l-2.089-15.62h15.777zm33.499-30.62h-97.171c11.075-6.211 22.84-11.103 35.141-14.586 3.985-1.128 6.301-5.274 5.172-9.26-1.128-3.985-5.272-6.3-9.26-5.173-18.972 5.373-36.786 13.799-52.947 25.045l-4.181 2.909c-.45.314-.84.678-1.199 1.064h-11.709c-.585-.633-1.284-1.179-2.097-1.593l-8.025-4.083c-22.504-11.45-46.913-19.294-71.902-23.226 10.17-16.522 22.992-31.096 38.221-43.404 3.221-2.604 3.722-7.326 1.118-10.547-2.604-3.222-7.326-3.722-10.548-1.119-18.343 14.826-33.475 32.679-45.035 53.089-5.064-.447-10.139-.74-15.216-.861 23.505-52.231 71.683-89.484 128.51-98.846l10.93 9.073c-17.612 3.663-34.546 9.836-50.498 18.445-3.646 1.967-5.006 6.517-3.039 10.162 1.356 2.513 3.939 3.939 6.607 3.939 1.202 0 2.423-.29 3.555-.901 18.57-10.021 38.58-16.471 59.474-19.17l10.697-1.382h18.64c7.254 0 14.146-2.752 19.405-7.751l27.677-26.307c.79-.75 1.684-.75 2.148-.684.464.067 1.322.321 1.867 1.266l2.728 4.73c18.25 31.646 25.296 67.948 20.66 103.437h-27.55c-5.036 0-10.191.226-15.323.671-4.127.358-7.182 3.994-6.823 8.12.339 3.906 3.614 6.852 7.463 6.852.218 0 .437-.009.657-.029 4.702-.408 9.422-.615 14.026-.615h24.865c-1.514 6.693-3.44 13.331-5.81 19.871-.188.518-.681.864-1.228.864z"/></svg>