<svg id="Capa_1" enable-background="new 0 0 510.982 510.982" height="512" viewBox="0 0 510.982 510.982" width="512" xmlns="http://www.w3.org/2000/svg"><g><path d="m140.726 287.752c-4.143 0-7.5 3.358-7.5 7.5v39.165h-16.019c-8.243 0-14.95-6.707-14.95-14.95v-289.517c0-8.244 6.707-14.95 14.95-14.95h152.243c4.143 0 7.5-3.358 7.5-7.5s-3.357-7.5-7.5-7.5h-152.243c-16.515 0-29.95 13.436-29.95 29.95v207.441l-32.163 43.009c-13.652 18.256-21.907 39.91-23.872 62.621s2.447 45.461 12.761 65.791l29.456 58.063v36.608c0 4.142 3.357 7.5 7.5 7.5s7.5-3.358 7.5-7.5v-38.401c0-1.179-.278-2.342-.812-3.393l-30.267-59.664c-9.047-17.833-12.917-37.789-11.193-57.711s8.965-38.917 20.939-54.931l20.151-26.947v57.029c0 16.515 13.436 29.95 29.95 29.95h16.019v8.868c0 4.142 3.357 7.5 7.5 7.5s7.5-3.358 7.5-7.5v-63.032c0-4.141-3.358-7.499-7.5-7.499z"/><path d="m472.543 65.194c-5.338-5.634-12.553-8.737-20.314-8.737-7.763 0-14.978 3.103-20.316 8.738-5.338 5.634-8.048 13.006-7.629 20.756l3.5 64.838c.701 12.988 11.438 23.161 24.445 23.161s23.744-10.173 24.445-23.161l3.5-64.838c.418-7.751-2.292-15.122-7.631-20.757zm-7.347 19.949-3.5 64.838c-.271 5.03-4.43 8.97-9.467 8.97s-9.195-3.94-9.467-8.97l-3.5-64.838c-.194-3.596 1.062-7.016 3.539-9.63 2.478-2.615 5.826-4.055 9.428-4.055s6.949 1.44 9.426 4.054 3.735 6.034 3.541 9.631z"/><path d="m452.229 185.37c-12.873 0-23.346 10.473-23.346 23.345s10.473 23.345 23.346 23.345c12.872 0 23.345-10.473 23.345-23.345s-10.473-23.345-23.345-23.345zm0 31.69c-4.602 0-8.346-3.744-8.346-8.345s3.744-8.345 8.346-8.345 8.345 3.744 8.345 8.345-3.744 8.345-8.345 8.345z"/><path d="m351.289 261.214c-4.143 0-7.5 3.358-7.5 7.5v50.752c0 8.244-6.707 14.95-14.95 14.95h-115.529c-2.526-4.244-5.291-8.362-8.315-12.316l-2.865-3.747v-82.687c0-18.997-15.455-34.452-34.452-34.452-18.996 0-34.451 15.455-34.451 34.452v27.623c0 4.142 3.357 7.5 7.5 7.5s7.5-3.358 7.5-7.5v-27.623c0-10.726 8.726-19.452 19.451-19.452s19.452 8.726 19.452 19.452v85.225c0 1.646.542 3.248 1.542 4.556l4.407 5.765c12.961 16.948 20.832 37.138 22.764 58.385.847 9.322.532 18.65-.906 27.789-.022.104-.037.209-.055.315-1.856 11.581-5.511 22.857-10.903 33.429l-2.92 5.725c-.538 1.056-.818 2.223-.818 3.408v43.22c0 4.142 3.357 7.5 7.5 7.5s7.5-3.358 7.5-7.5v-41.417l2.102-4.12c5.111-10.023 8.83-20.607 11.146-31.481h13.031c14.449 0 26.204-11.755 26.204-26.204 0-.562-.024-1.118-.059-1.672-.01-.156-.023-.31-.036-.465-.035-.437-.082-.87-.138-1.301-.016-.125-.03-.25-.048-.374-.079-.539-.174-1.072-.285-1.6-.022-.103-.048-.205-.071-.308-.098-.438-.207-.871-.326-1.3-.038-.136-.076-.271-.115-.406-.149-.503-.309-1.002-.487-1.492-.004-.011-.007-.022-.011-.032-.188-.515-.395-1.021-.614-1.521-.045-.103-.092-.204-.139-.307-.076-.167-.148-.336-.227-.501 14.179-.98 25.418-12.822 25.418-27.246 0-4.432-1.069-8.616-2.952-12.319h41.205c16.515 0 29.95-13.436 29.95-29.95v-50.752c0-4.143-3.357-7.501-7.5-7.501zm-109.77 150.25h-10.75c.676-7.418.704-14.913.071-22.409h10.679c6.178 0 11.204 5.026 11.204 11.205 0 6.178-5.026 11.204-11.204 11.204zm34.067-49.728c0 6.793-5.526 12.319-12.319 12.319h-21.748-12.843c-1.739-8.471-4.32-16.723-7.714-24.639h42.305c6.793.001 12.319 5.527 12.319 12.32z"/><path d="m328.839 0h-27.426c-4.143 0-7.5 3.358-7.5 7.5s3.357 7.5 7.5 7.5h27.426c8.243 0 14.95 6.707 14.95 14.95v206.801c0 4.142 3.357 7.5 7.5 7.5s7.5-3.358 7.5-7.5v-206.801c0-16.514-13.435-29.95-29.95-29.95z"/></g></svg>