<svg id="Capa_1" enable-background="new 0 0 510.982 510.982" height="512" viewBox="0 0 510.982 510.982" width="512" xmlns="http://www.w3.org/2000/svg"><g><path d="m40.739 412.003c-1.875-3.694-6.388-5.17-10.082-3.295-3.693 1.874-5.169 6.388-3.295 10.082l24.396 48.086v36.607c0 4.142 3.357 7.5 7.5 7.5s7.5-3.358 7.5-7.5v-38.401c0-1.179-.278-2.342-.812-3.393z"/><path d="m165.447 260.741c0 4.142 3.357 7.5 7.5 7.5s7.5-3.358 7.5-7.5v-25.075c0-18.997-15.455-34.452-34.452-34.452-18.996 0-34.451 15.455-34.451 34.452v98.75h-16.019c-8.243 0-14.95-6.707-14.95-14.95v-289.516c0-8.244 6.707-14.95 14.95-14.95h23.519c4.143 0 7.5-3.358 7.5-7.5s-3.357-7.5-7.5-7.5h-23.519c-16.515 0-29.95 13.436-29.95 29.95v207.441l-32.164 43.009c-22.976 30.723-30.19 71.027-19.299 107.813.966 3.261 3.952 5.373 7.188 5.373.705 0 1.422-.1 2.132-.311 3.972-1.176 6.238-5.349 5.062-9.321-9.554-32.268-3.226-67.622 16.928-94.571l20.151-26.947v57.029c0 16.515 13.436 29.95 29.95 29.95h16.019v8.868c0 4.142 3.357 7.5 7.5 7.5s7.5-3.358 7.5-7.5v-122.616c0-10.726 8.726-19.452 19.451-19.452s19.452 8.726 19.452 19.452v25.074z"/><path d="m474.659 125.701 22.621-22.621c6.093-6.093 6.093-16.007 0-22.1l-9.72-9.719c-2.951-2.952-6.875-4.578-11.05-4.578s-8.099 1.625-11.051 4.577l-22.621 22.622-22.893-22.892c-2.951-2.952-6.875-4.578-11.05-4.578s-8.099 1.626-11.05 4.577l-9.72 9.72c-6.093 6.093-6.093 16.007 0 22.1l22.893 22.892-22.893 22.893c-6.093 6.093-6.093 16.007 0 22.1l9.719 9.72c3.047 3.047 7.049 4.57 11.051 4.57s8.004-1.523 11.051-4.57l22.892-22.893 22.621 22.622c6.094 6.094 16.008 6.093 22.102 0l9.719-9.72c6.093-6.093 6.093-16.007 0-22.1zm12.013 34.115-9.719 9.72c-.244.244-.643.244-.887 0l-27.925-27.925c-1.407-1.407-3.314-2.197-5.304-2.197s-3.896.79-5.304 2.197l-28.195 28.196c-.245.245-.644.245-.887 0l-9.719-9.72c-.245-.245-.245-.642 0-.887l28.195-28.196c2.929-2.929 2.929-7.678 0-10.606l-28.195-28.195c-.245-.245-.245-.642 0-.887l9.72-9.721c.046-.045.184-.183.442-.183s.396.138.442.184l28.196 28.196c2.93 2.929 7.678 2.929 10.607 0l27.925-27.925c.045-.045.184-.184.443-.184s.396.138.442.184l9.72 9.72c.245.245.245.642 0 .887l-27.924 27.924c-2.929 2.929-2.929 7.678 0 10.606l27.924 27.925c.248.245.248.642.003.887z"/><path d="m307.157 0h-156.152c-4.143 0-7.5 3.358-7.5 7.5s3.357 7.5 7.5 7.5h156.151c8.243 0 14.95 6.707 14.95 14.95v289.516c0 8.244-6.707 14.95-14.95 14.95h-115.53c-2.526-4.244-5.291-8.362-8.315-12.316l-2.865-3.747v-25.649c0-4.142-3.357-7.5-7.5-7.5s-7.5 3.358-7.5 7.5v28.188c0 1.646.542 3.248 1.542 4.556l4.407 5.765c12.961 16.948 20.832 37.138 22.764 58.386s-2.171 42.525-11.863 61.532l-2.92 5.725c-.538 1.056-.818 2.223-.818 3.408v43.22c0 4.142 3.357 7.5 7.5 7.5s7.5-3.358 7.5-7.5v-41.417l2.102-4.12c5.111-10.023 8.83-20.607 11.146-31.481h13.031c14.449 0 26.204-11.755 26.204-26.204 0-4.036-.918-7.86-2.555-11.278 14.179-.98 25.418-12.822 25.418-27.246 0-4.431-1.067-8.615-2.947-12.319h41.2c16.515 0 29.95-13.436 29.95-29.95v-289.519c0-16.514-13.436-29.95-29.95-29.95zm-87.321 411.464h-10.75c.676-7.418.704-14.913.071-22.409h10.679c6.178 0 11.204 5.026 11.204 11.205 0 6.178-5.026 11.204-11.204 11.204zm34.068-49.728c0 6.793-5.526 12.319-12.319 12.319h-34.591c-1.739-8.471-4.32-16.723-7.714-24.639h42.305c6.792.001 12.319 5.527 12.319 12.32z"/></g></svg>