<svg id="Capa_1" enable-background="new 0 0 513.268 513.268" height="512" viewBox="0 0 513.268 513.268" width="512" xmlns="http://www.w3.org/2000/svg"><g><path d="m474.187 200.186-16.863-51.072c-1.299-3.934-5.542-6.071-9.473-4.77-3.933 1.298-6.069 5.54-4.77 9.473l15.821 47.917h-70.393l-.937-47.171c-.115-5.779 1.117-11.603 3.561-16.84l27.31-58.522 14.615 44.263c1.041 3.153 3.972 5.15 7.12 5.15.779 0 1.573-.123 2.353-.38 3.933-1.298 6.069-5.54 4.77-9.473l-15.472-46.861c-3.699-11.203-11.442-20.478-21.806-26.116l-77.751-42.306c-4.182-2.275-8.908-3.478-13.669-3.478h-49.903c-4.142 0-7.5 3.358-7.5 7.5s3.358 7.5 7.5 7.5h48.683l-13.146 18.427c-30.36 14.025-64.843 14.025-95.203 0l-13.148-18.427h40.851c4.142 0 7.5-3.358 7.5-7.5s-3.358-7.5-7.5-7.5h-42.071c-4.761 0-9.487 1.203-13.67 3.478l-77.75 42.306c-10.364 5.638-18.108 14.913-21.806 26.115l-42.359 128.287c-1.264 3.828-.609 8.063 1.752 11.331 2.362 3.267 6.179 5.217 10.21 5.217h74.418l-3.772 189.815c-.083 4.141 3.208 7.565 7.35 7.647.051.001.101.001.152.001 4.073 0 7.414-3.26 7.496-7.351l5.008-251.986c.16-8.058-1.557-16.178-4.965-23.482l-31.96-68.482c1.717-1.5 3.603-2.825 5.644-3.936l70.889-38.572 41.408 58.04c7.92 11.102 20.285 17.469 33.923 17.469s26.003-6.367 33.923-17.469l41.408-58.04 70.889 38.572c2.325 1.265 4.449 2.806 6.348 4.57l-31.663 67.849c-3.408 7.304-5.125 15.424-4.965 23.482l6.824 343.408h-244.529l1.181-59.459c.082-4.141-3.208-7.565-7.35-7.647-4.128-.07-7.565 3.208-7.647 7.35l-1.233 62.085c-.067 3.364 1.193 6.541 3.549 8.944s5.507 3.727 8.873 3.727h249.785c3.366 0 6.517-1.324 8.873-3.727 2.356-2.404 3.616-5.58 3.549-8.943l-5.641-283.864h73.418c4.031 0 7.848-1.95 10.21-5.217 2.36-3.268 3.015-7.504 1.751-11.332zm-347.49-45.624-.937 47.171h-71.394l40.874-123.787 27.896 59.776c2.444 5.238 3.675 11.061 3.561 16.84zm151.649-84.847c-5.069 7.106-12.983 11.181-21.712 11.181s-16.643-4.075-21.712-11.181l-10.662-14.944c10.629 2.79 21.501 4.194 32.374 4.194 10.872 0 21.742-1.399 32.37-4.188z"/><path d="m229.729 137.783-1.152-.454c-17.335-6.833-36.428-6.833-53.763 0l-1.151.454c-9.128 3.598-13.794 14.014-10.402 23.22 5.829 15.823 16.87 29.53 31.089 38.595 2.231 1.423 4.788 2.134 7.345 2.134s5.114-.711 7.345-2.133c14.219-9.066 25.26-22.773 31.089-38.596 3.393-9.206-1.273-19.623-10.4-23.22zm-3.674 18.034c-4.604 12.496-13.236 23.355-24.359 30.668-11.123-7.312-19.756-18.172-24.359-30.668-.596-1.617.224-3.447 1.827-4.079l1.152-.454c6.895-2.718 14.136-4.076 21.38-4.076 7.243 0 14.487 1.359 21.38 4.076l1.152.454c1.604.632 2.424 2.462 1.827 4.079z"/><path d="m354.244 166.981c0-13.869-11.284-25.152-25.153-25.152s-25.152 11.283-25.152 25.152 11.283 25.153 25.152 25.153 25.153-11.283 25.153-25.153zm-35.305 0c0-5.598 4.554-10.152 10.152-10.152s10.153 4.554 10.153 10.152-4.555 10.153-10.153 10.153-10.152-4.554-10.152-10.153z"/><path d="m290.817 293.854c0-18.849-15.334-34.184-34.183-34.184s-34.183 15.334-34.183 34.184c0 10.133 4.445 19.234 11.473 25.497-12.806 7.725-21.39 21.77-21.39 37.785 0 24.317 19.783 44.1 44.1 44.1s44.1-19.783 44.1-44.1c0-16.018-8.591-30.057-21.402-37.78 7.034-6.262 11.485-15.364 11.485-25.502zm-34.183-19.184c10.578 0 19.183 8.606 19.183 19.184s-8.605 19.183-19.183 19.183-19.183-8.605-19.183-19.183 8.605-19.184 19.183-19.184zm0 111.567c-16.046 0-29.1-13.054-29.1-29.1 0-16.045 13.054-29.1 29.1-29.1s29.1 13.054 29.1 29.1-13.054 29.1-29.1 29.1z"/></g></svg>