<svg id="Capa_1" enable-background="new 0 0 513.269 513.269" height="512" viewBox="0 0 513.269 513.269" width="512" xmlns="http://www.w3.org/2000/svg"><g><path d="m451.849 373.556-27.476-270.294c-1.416-13.932-7.576-26.648-17.476-36.329 9.114-4.723 15.359-14.239 15.359-25.192v-13.38c0-15.638-12.722-28.361-28.361-28.361h-17.568c-4.142 0-7.5 3.358-7.5 7.5s3.358 7.5 7.5 7.5h17.568c7.368 0 13.361 5.994 13.361 13.361v13.379c0 7.367-5.994 13.361-13.361 13.361h-274.522c-7.367 0-13.361-5.994-13.361-13.361v-13.379c0-7.367 5.994-13.361 13.361-13.361h224.991c4.142 0 7.5-3.358 7.5-7.5s-3.358-7.5-7.5-7.5h-224.991c-15.638 0-28.361 12.723-28.361 28.361v13.379c0 10.953 6.246 20.47 15.359 25.192-9.9 9.681-16.06 22.397-17.476 36.33l-18.295 179.982c-.419 4.121 2.582 7.801 6.703 8.22.258.026.514.039.768.039 3.801 0 7.06-2.879 7.452-6.742l18.296-179.982c1.189-11.694 6.841-22.248 15.915-29.719l6.024-4.959h261.755l6.024 4.959c9.074 7.471 14.726 18.025 15.915 29.718l27.476 270.294c.293 2.886-.616 5.662-2.562 7.814-1.945 2.153-4.614 3.338-7.515 3.338h-135.1c-5.037 0-9.247-3.613-10.011-8.592l-16.87-109.934c-.629-4.095-4.092-7.068-8.235-7.068s-7.606 2.973-8.235 7.068l-16.87 109.933c-.764 4.979-4.974 8.592-10.011 8.592h-135.1c-2.901 0-5.57-1.186-7.515-3.338s-2.854-4.928-2.562-7.814l5.944-58.477c.419-4.121-2.582-7.801-6.703-8.22-4.123-.427-7.801 2.582-8.22 6.703l-5.944 58.477c-.717 7.057 1.599 14.124 6.354 19.387 3.751 4.152 8.773 6.899 14.208 7.878v104.948c0 4.142 3.358 7.5 7.5 7.5s7.5-3.358 7.5-7.5v-104.542h116.934v104.544c0 4.142 3.358 7.5 7.5 7.5s7.5-3.358 7.5-7.5v-105.656c9.031-2.745 15.934-10.398 17.439-20.204l10.279-66.984 10.279 66.984c1.56 10.167 8.918 18.025 18.439 20.492v105.368c0 4.142 3.358 7.5 7.5 7.5s7.5-3.358 7.5-7.5v-104.544h116.934v32.541c0 4.142 3.358 7.5 7.5 7.5s7.5-3.358 7.5-7.5v-33.143c5.049-1.122 9.688-3.784 13.208-7.68 4.757-5.264 7.073-12.33 6.356-19.387z"/><path d="m424.787 458.228c-4.142 0-7.5 3.358-7.5 7.5v40.041c0 4.142 3.358 7.5 7.5 7.5s7.5-3.358 7.5-7.5v-40.041c0-4.143-3.358-7.5-7.5-7.5z"/><path d="m150.319 361.88c2.44 1.555 5.237 2.333 8.034 2.333s5.594-.778 8.035-2.334c16.893-10.771 30.01-27.055 36.936-45.854 3.807-10.332-1.431-22.022-11.675-26.062l-1.391-.548c-20.575-8.111-43.236-8.11-63.809 0l-1.393.549c-10.244 4.039-15.481 15.729-11.674 26.061 6.927 18.8 20.044 35.084 36.937 45.855zm-19.762-57.96 1.393-.549c8.514-3.356 17.458-5.034 26.404-5.034s17.891 1.678 26.405 5.035l1.391.548c2.72 1.072 4.111 4.177 3.1 6.92-5.798 15.739-16.781 29.374-30.866 38.392-14.144-9.018-25.126-22.652-30.925-38.392-1.012-2.743.378-5.848 3.098-6.92z"/><path d="m323.695 331.465c0 18.637 15.162 33.798 33.798 33.798s33.798-15.162 33.798-33.798c0-11.313-5.591-21.338-14.152-27.474 4.356-4.747 7.027-11.062 7.027-17.998 0-14.708-11.965-26.673-26.673-26.673s-26.673 11.965-26.673 26.673c0 6.941 2.67 13.266 7.031 18.015-8.557 6.136-14.156 16.147-14.156 27.457zm33.799 18.799c-10.365 0-18.798-8.433-18.798-18.798s8.433-18.798 18.798-18.798 18.798 8.433 18.798 18.798-8.433 18.798-18.798 18.798zm0-75.943c6.437 0 11.673 5.236 11.673 11.673s-5.236 11.673-11.673 11.673-11.673-5.237-11.673-11.673 5.236-11.673 11.673-11.673z"/></g></svg>