<svg id="Capa_1" enable-background="new 0 0 511.828 511.828" height="512" viewBox="0 0 511.828 511.828" width="512" xmlns="http://www.w3.org/2000/svg"><g><path d="m480.298 91.538h-35.128c-4.143 0-7.5 3.358-7.5 7.5s3.357 7.5 7.5 7.5h35.128c9.114 0 16.529 7.415 16.529 16.529v265.694c0 9.114-7.415 16.529-16.529 16.529h-448.769c-9.114 0-16.529-7.415-16.529-16.529v-27.485h257.799c7.811 0 14.165-6.354 14.165-14.165v-23.959c0-7.811-6.354-14.165-14.165-14.165h-257.799v-26.928h257.799c7.811 0 14.165-6.354 14.165-14.165v-23.959c0-7.811-6.354-14.165-14.165-14.165h-257.799v-26.928h257.799c7.811 0 14.165-6.354 14.165-14.165v-23.959c0-7.811-6.354-14.165-14.165-14.165h-194.675c-4.142 0-7.5 3.358-7.5 7.5s3.358 7.5 7.5 7.5h193.841v22.289h-256.965v-22.289h31.161c4.142 0 7.5-3.358 7.5-7.5s-3.358-7.5-7.5-7.5h-31.161v-27.486c0-9.114 7.415-16.529 16.529-16.529h381.679c4.143 0 7.5-3.358 7.5-7.5s-3.357-7.5-7.5-7.5h-381.679c-17.385 0-31.529 14.143-31.529 31.529v265.694c0 17.385 14.144 31.529 31.529 31.529h448.77c17.386 0 31.529-14.144 31.529-31.529v-265.694c0-17.386-14.144-31.529-31.53-31.529zm-208.334 232.449v22.289h-256.964v-22.289zm0-79.218v22.289h-256.964v-22.289z"/><path d="m407.667 196.085c11.31-.834 22.519 1.47 32.412 6.668 7.158 3.762 15.987 1.527 20.535-5.202l8.534-12.632c2.503-3.706 3.337-8.325 2.286-12.673-1.046-4.327-3.878-8.036-7.771-10.175-15.665-8.606-33.452-13.155-51.438-13.155-58.998 0-106.997 47.999-106.997 106.998 0 17.401 4.3 34.697 12.435 50.019 1.941 3.657 6.482 5.05 10.141 3.107 3.659-1.942 5.05-6.482 3.107-10.141-6.988-13.163-10.683-28.027-10.683-42.984 0-50.728 41.27-91.998 91.997-91.998 15.469 0 30.758 3.908 44.215 11.301.215.118.354.303.413.552.045.186.059.467-.135.753l-8.534 12.632c-.254.378-.747.52-1.129.321-12.378-6.504-26.379-9.394-40.493-8.349-19.054 1.407-36.628 9.845-49.485 23.762-12.843 13.9-19.892 32.082-19.849 51.197.094 41.259 33.737 74.827 74.997 74.827 15.908 0 29.425-4.854 40.103-14.365.02-.017.049-.043.076-.067.019-.017.038-.033.057-.05.337-.302.887-.43 1.284-.097l11.709 9.821c.265.222.328.498.334.689.009.264-.082.487-.265.662-.599.57-1.205 1.129-1.818 1.675-13.76 12.254-31.561 18.731-51.479 18.731-23.714 0-46.248-9.038-63.451-25.447-2.997-2.86-7.744-2.748-10.604.25-2.859 2.997-2.747 7.745.25 10.604 20.006 19.084 46.217 29.594 73.805 29.594 23.655 0 44.906-7.791 61.456-22.53.736-.656 1.464-1.327 2.187-2.014 3.265-3.111 5.056-7.485 4.912-12-.144-4.529-2.217-8.796-5.687-11.707l-11.708-9.821c-6.113-5.129-14.907-4.961-20.909.395-.021.019-.04.035-.055.048-7.918 7.052-18.077 10.628-30.196 10.628-33.008 0-59.923-26.854-59.997-59.861-.072-31.848 23.761-57.627 55.438-59.966z"/></g></svg>