<svg id="Capa_1" enable-background="new 0 0 511.87 511.87" height="512" viewBox="0 0 511.87 511.87" width="512" xmlns="http://www.w3.org/2000/svg"><g><path d="m469.3 200.031c-2.294-3.45-6.948-4.386-10.398-2.092-3.449 2.293-4.386 6.949-2.092 10.398 18.493 27.81 28.269 60.232 28.269 93.762v153.172c0 22.938-18.661 41.6-41.6 41.6h-1.193v-161.22c0-53.423-43.463-96.886-96.886-96.886h-178.93c-53.423 0-96.886 43.463-96.886 96.886v73.692c0 4.142 3.357 7.5 7.5 7.5s7.5-3.358 7.5-7.5v-73.692c0-45.152 36.733-81.886 81.886-81.886h178.93c45.152 0 81.886 36.734 81.886 81.886v161.219h-342.702v-55.564c0-4.142-3.357-7.5-7.5-7.5s-7.5 3.358-7.5 7.5v55.564h-1.193c-22.938 0-41.6-18.662-41.6-41.6v-153.171c0-69.66 42.247-131.595 106.156-157.3v52.694h-.487c-4.143 0-7.5 3.358-7.5 7.5s3.357 7.5 7.5 7.5h72.538c4.143 0 7.5-3.358 7.5-7.5 0-3.908-2.99-7.115-6.808-7.465v-64.99h100.488v65.165c-3.305.783-5.767 3.746-5.767 7.291 0 4.142 3.357 7.5 7.5 7.5h72.538c4.143 0 7.5-3.358 7.5-7.5s-3.357-7.5-7.5-7.5h-1.528v-52.676c21.987 8.887 42.113 22.431 58.669 39.602 1.473 1.527 3.435 2.294 5.4 2.294 1.873 0 3.75-.698 5.205-2.101 2.981-2.875 3.068-7.623.193-10.604-19.417-20.138-43.343-35.717-69.468-45.285v-22.505c.002-58.57-47.646-106.219-106.214-106.219h-33.541c-43.399 0-82.022 25.973-98.397 66.169-1.563 3.836.279 8.212 4.116 9.775 3.833 1.562 8.213-.28 9.774-4.116 10.086-24.757 29.999-43.229 54.204-51.7-11.247 11.724-18.17 27.623-18.17 45.115v132.249h-42.743v-91.275c0-1.621.046-3.29.136-4.96.223-4.136-2.949-7.669-7.086-7.893-4.111-.221-7.67 2.949-7.893 7.086-.104 1.938-.157 3.878-.157 5.767v22.51c-72.693 26.546-121.157 95.532-121.157 173.372v153.172c0 31.209 25.391 56.6 56.6 56.6h375.088c31.209 0 56.6-25.391 56.6-56.6v-153.172c-.001-36.495-10.644-71.789-30.78-102.068zm-163.128-135.083c-11.976-14.45-30.046-23.675-50.237-23.675-20.196 0-38.266 9.23-50.237 23.688.154-27.574 22.627-49.961 50.237-49.961 27.606 0 50.076 22.38 50.237 49.948zm-100.481 52.59v-11.021c0-27.705 22.539-50.244 50.244-50.244s50.244 22.539 50.244 50.244v11.021zm158.231-11.321v91.275h-42.743v-132.248c0-17.448-6.886-33.315-18.082-45.031 35.399 12.546 60.825 46.359 60.825 86.004z"/><path d="m271.11 316.905h-30.35c-6.938 0-12.583 5.645-12.583 12.583v29.157h-29.156c-6.938 0-12.583 5.645-12.583 12.583v30.349c0 6.938 5.645 12.583 12.583 12.583h29.156v29.157c0 6.938 5.645 12.583 12.583 12.583h30.35c6.938 0 12.583-5.645 12.583-12.583v-29.157h29.156c6.938 0 12.583-5.645 12.583-12.583v-30.349c0-6.938-5.645-12.583-12.583-12.583h-29.156v-29.157c0-6.939-5.645-12.583-12.583-12.583zm39.322 56.74v25.515h-34.239c-4.143 0-7.5 3.358-7.5 7.5v34.24h-25.516v-34.24c0-4.142-3.357-7.5-7.5-7.5h-34.239v-25.515h34.239c4.143 0 7.5-3.358 7.5-7.5v-34.24h25.516v34.24c0 4.142 3.357 7.5 7.5 7.5z"/></g></svg>