<svg id="Capa_1" enable-background="new 0 0 512.013 512.013" height="512" viewBox="0 0 512.013 512.013" width="512" xmlns="http://www.w3.org/2000/svg"><g><path d="m366.377 265.602c10.382-8.867 16.336-21.784 16.336-35.438v-62.044c0-16.881-9.158-32.477-23.901-40.701l-4.518-2.521 12.035-20.592c9.609-16.444 9.688-36.124.208-52.644s-26.51-26.382-45.556-26.382h-6.771v-8.806c0-9.084-7.39-16.475-16.474-16.475h-34.976c-4.143 0-7.5 3.358-7.5 7.5s3.357 7.5 7.5 7.5h34.975c.812 0 1.474.662 1.474 1.475v22.383c0 .813-.661 1.475-1.474 1.475h-83.457c-.812 0-1.474-.662-1.474-1.475v-22.382c0-.813.661-1.475 1.474-1.475h16.52c4.143 0 7.5-3.358 7.5-7.5s-3.357-7.5-7.5-7.5h-16.52c-9.084 0-16.474 7.391-16.474 16.475v22.383c0 9.084 7.39 16.475 16.474 16.475h1.999v36.902l-63.075 35.185c-14.743 8.224-23.901 23.819-23.901 40.701v62.044c0 13.654 5.954 26.57 16.336 35.437l12.064 10.306v26.699l-17.836 14.492c-6.714 5.455-10.564 13.545-10.564 22.196v22.068c0 6.583 2.296 13.015 6.465 18.11l1.275 1.559c-4.958 5.269-7.74 12.217-7.74 19.571v22.057c0 6.583 2.296 13.015 6.465 18.11l1.276 1.56c-4.958 5.269-7.741 12.218-7.741 19.572v22.369c0 6.386 2.228 12.625 6.271 17.568 5.291 6.467 13.116 10.175 21.472 10.175h197.926c8.355 0 16.181-3.708 21.472-10.175 4.044-4.943 6.271-11.182 6.271-17.568v-22.369c0-7.355-2.782-14.303-7.741-19.572l1.276-1.561c4.169-5.095 6.465-11.527 6.465-18.11v-22.057c0-7.354-2.782-14.302-7.74-19.571l1.275-1.559c4.169-5.095 6.465-11.527 6.465-18.11v-22.068c0-8.65-3.851-16.741-10.564-22.196l-17.836-14.492v-26.699zm-52.24-225.321h6.844c13.606 0 25.773 7.046 32.546 18.848s6.717 25.861-.149 37.609l-12.187 20.852-45.454-25.356v-36.902h1.999c8.603 0 15.675-6.632 16.401-15.051zm53.576 443.989c0 2.933-1.023 5.799-2.881 8.07-2.43 2.97-6.024 4.673-9.862 4.673h-197.926c-3.838 0-7.433-1.704-9.862-4.673-1.857-2.271-2.881-5.137-2.881-8.07v-22.369c0-4.116 1.832-7.963 5.027-10.558l.784-.637h211.788l.785.637c3.195 2.594 5.027 6.441 5.027 10.557v22.37zm-23.366-170.434 18.342 14.903c3.192 2.594 5.023 6.441 5.023 10.554v22.068c0 3.13-1.092 6.188-3.074 8.611l-3.63 4.437h-136.072c-4.143 0-7.5 3.358-7.5 7.5s3.357 7.5 7.5 7.5h136.967l.776.629c3.198 2.595 5.033 6.444 5.033 10.562v22.057c0 3.13-1.092 6.188-3.074 8.611l-3.63 4.437h-210.003l-3.63-4.437c-1.982-2.423-3.074-5.482-3.074-8.612v-22.057c0-4.118 1.835-7.968 5.033-10.562l.777-.63h42.863c4.143 0 7.5-3.358 7.5-7.5s-3.357-7.5-7.5-7.5h-41.968l-3.63-4.437c-1.982-2.423-3.074-5.481-3.074-8.612v-22.068c0-4.113 1.831-7.96 5.023-10.554l18.342-14.903c3.2-2.6 5.035-6.456 5.035-10.579v-27.982c0-3.993-1.741-7.771-4.777-10.364l-12.545-10.716c-7.04-6.013-11.078-14.772-11.078-24.031v-54.541h151.868c4.143 0 7.5-3.358 7.5-7.5s-3.357-7.5-7.5-7.5h-150.948c2.063-8.424 7.526-15.771 15.287-20.101l66.922-37.331c2.375-1.325 3.847-3.831 3.847-6.55v-41.306h49.459v41.306c0 2.719 1.472 5.225 3.847 6.55l66.922 37.331c7.761 4.33 13.224 11.677 15.287 20.101h-38.659c-4.143 0-7.5 3.358-7.5 7.5s3.357 7.5 7.5 7.5h39.58v54.544c0 9.259-4.038 18.019-11.078 24.032l-12.545 10.716c-3.036 2.593-4.777 6.371-4.777 10.364v27.982c-.002 4.122 1.833 7.978 5.033 10.578z"/><path d="m292.565 253.173h-27.638v-40.766c0-4.394-3.135-8.17-7.454-8.979-4.314-.805-8.606 1.578-10.196 5.674l-29.105 74.999c-1.292 3.331-.858 7.078 1.159 10.025 2.019 2.947 5.355 4.707 8.927 4.707h20.735l-4.895 41.579c-.513 4.359 2.155 8.474 6.344 9.784.901.282 1.818.417 2.724.417 3.303 0 6.446-1.8 8.064-4.838l40.883-76.696c1.804-3.384 1.701-7.368-.272-10.656s-5.442-5.25-9.276-5.25zm-29.93 58.081 2.241-19.044c.251-2.127-.42-4.26-1.844-5.86-1.423-1.601-3.463-2.517-5.604-2.517h-23.062l15.562-40.099v16.939c0 4.142 3.357 7.5 7.5 7.5h28.171z"/></g></svg>