<svg id="Capa_1" enable-background="new 0 0 512.478 512.478" height="512" viewBox="0 0 512.478 512.478" width="512" xmlns="http://www.w3.org/2000/svg"><g><path d="m488.543.21h-9.277c-10.331 0-19.153 6.58-22.498 15.769h-21.138c-4.142 0-7.5 3.358-7.5 7.5s3.358 7.5 7.5 7.5h19.702v23.386h-398.186v-23.387h346.522c4.142 0 7.5-3.358 7.5-7.5s-3.358-7.5-7.5-7.5h-347.958c-3.346-9.188-12.168-15.768-22.499-15.768h-9.277c-13.197 0-23.934 10.737-23.934 23.934v37.055c0 13.197 10.737 23.934 23.934 23.934h9.277c10.331 0 19.153-6.58 22.498-15.769h21.729v326.111c0 6.132 3.26 11.913 8.508 15.087l5.529 3.344v31.135c0 4.142 3.358 7.5 7.5 7.5s7.5-3.358 7.5-7.5v-22.064l21.181 12.809v28.872c0 4.142 3.358 7.5 7.5 7.5s7.5-3.358 7.5-7.5v-19.801l21.181 12.809v29.828c0 4.142 3.358 7.5 7.5 7.5s7.5-3.358 7.5-7.5v-20.757l21.18 12.808v25.223c0 4.142 3.358 7.5 7.5 7.5s7.5-3.358 7.5-7.5v-16.151l32.098 19.411c2.814 1.702 5.968 2.553 9.124 2.553 3.154 0 6.31-.851 9.123-2.552l33.098-20.016v16.756c0 4.142 3.358 7.5 7.5 7.5s7.5-3.358 7.5-7.5v-25.827l21.18-12.809v21.362c0 4.142 3.358 7.5 7.5 7.5s7.5-3.358 7.5-7.5v-30.433l21.181-12.809v20.405c0 4.142 3.358 7.5 7.5 7.5s7.5-3.358 7.5-7.5v-29.476l21.181-12.809v22.669c0 4.142 3.358 7.5 7.5 7.5s7.5-3.358 7.5-7.5v-31.74l4.53-2.739c5.248-3.173 8.507-8.954 8.507-15.086v-59.787c0-4.142-3.358-7.5-7.5-7.5s-7.5 3.358-7.5 7.5v59.787c0 .915-.487 1.777-1.27 2.251l-161.169 97.464c-.839.507-1.882.507-2.722 0l-161.169-97.465c-.783-.474-1.27-1.336-1.27-2.251v-326.111h327.6v234.362c0 4.142 3.358 7.5 7.5 7.5s7.5-3.358 7.5-7.5v-234.362h21.729c3.345 9.189 12.167 15.769 22.498 15.769h9.277c13.197 0 23.934-10.737 23.934-23.934v-37.056c.001-13.197-10.736-23.934-23.934-23.934zm-446.397 60.989c0 4.926-4.008 8.934-8.934 8.934h-9.277c-4.926 0-8.934-4.008-8.934-8.934v-37.055c0-4.926 4.008-8.934 8.934-8.934h9.277c4.926 0 8.934 4.008 8.934 8.934zm455.332 0c0 4.926-4.008 8.934-8.934 8.934h-9.277c-4.926 0-8.934-4.008-8.934-8.934v-37.055c0-4.926 4.008-8.934 8.934-8.934h9.277c4.926 0 8.934 4.008 8.934 8.934z"/><path d="m388.707 355.842c-1.932-2.534-4.868-3.988-8.055-3.988h-23.476v-13.808c0-6.638-5.401-12.039-12.039-12.039h-176.797c-6.638 0-12.039 5.401-12.039 12.039v13.808h-23.476c-3.187 0-6.123 1.454-8.055 3.988-1.933 2.534-2.557 5.75-1.713 8.825l3.993 14.537-3.993 14.538c-.844 3.073-.219 6.29 1.713 8.824s4.868 3.987 8.055 3.987h53.657c5.295 0 9.603-4.308 9.603-9.602v-15.233h121.308v15.233c0 5.294 4.308 9.602 9.603 9.602h53.657c3.187 0 6.123-1.454 8.055-3.987 1.932-2.534 2.557-5.75 1.712-8.825l-3.993-14.537 3.993-14.538c.844-3.073.22-6.29-1.713-8.824zm-217.406-14.835h170.875v25.71h-170.875zm9.784 50.545h-41.871l2.846-10.363c.357-1.3.357-2.673 0-3.973l-2.846-10.363h17.087v2.824c0 6.638 5.401 12.039 12.039 12.039h12.745zm190.332-10.362 2.846 10.363h-41.871v-9.835h12.745c6.638 0 12.039-5.4 12.039-12.039v-2.824h17.087l-2.846 10.363c-.357 1.299-.357 2.671 0 3.972z"/><path d="m200.196 112.455h24.081c4.142 0 7.5-3.358 7.5-7.5s-3.358-7.5-7.5-7.5h-24.081c-10.538 0-19.111 8.573-19.111 19.111v5.28h-21.321c-6.904 0-13.33 3.099-17.628 8.502s-5.873 12.36-4.32 19.088l7.501 32.505c6.015 26.061 28.854 44.279 55.582 44.368 8.644 12.253 19.862 22.759 33.154 30.668v18.912l-9.788 15.187c-2.593 4.024-2.78 9.134-.488 13.337s6.688 6.813 11.476 6.813h41.973c4.787 0 9.184-2.611 11.476-6.813s2.104-9.313-.489-13.337l-9.787-15.187v-18.912c13.292-7.91 24.511-18.415 33.154-30.668 26.728-.089 49.567-18.307 55.582-44.368l7.501-32.505c1.552-6.728-.022-13.685-4.32-19.088s-10.724-8.502-17.628-8.502h-21.321v-5.28c0-10.538-8.573-19.111-19.111-19.111h-56.043c-4.142 0-7.5 3.358-7.5 7.5s3.358 7.5 7.5 7.5h56.043c2.267 0 4.111 1.844 4.111 4.111v47.218c0 34.377-18.789 65.886-49.033 82.229-2.424 1.31-3.935 3.843-3.935 6.598v25.485c0 1.441.415 2.852 1.196 4.063l9.065 14.067h-34.895l9.065-14.067c.781-1.211 1.196-2.622 1.196-4.063v-25.485c0-2.755-1.511-5.289-3.935-6.598-30.245-16.343-49.033-47.852-49.033-82.229v-47.218c0-2.267 1.844-4.111 4.111-4.111zm152.518 24.391c2.307 0 4.453 1.035 5.889 2.84s1.962 4.129 1.443 6.376l-7.501 32.505c-3.711 16.079-16.103 28.107-31.592 31.659 6.756-14.265 10.439-30.071 10.439-46.443v-26.938h21.322zm-192.781 41.722-7.501-32.505c-.519-2.248.007-4.571 1.443-6.376s3.583-2.84 5.889-2.84h21.321v26.938c0 16.373 3.683 32.178 10.439 46.443-15.489-3.554-27.881-15.581-31.591-31.66z"/></g></svg>