<svg id="Capa_1" enable-background="new 0 0 511.313 511.313" height="512" viewBox="0 0 511.313 511.313" width="512" xmlns="http://www.w3.org/2000/svg"><g><path d="m180.508 187.757c2.514 13.17 14.07 22.729 27.478 22.729h7.969c3.528 6.357 8.089 12.166 13.59 17.125l4.48 4.039v7.558l-10.699 11.092c-1.776 1.843-2.755 4.267-2.755 6.826v11.772c0 5.422 4.412 9.834 9.834 9.834h50.502c5.422 0 9.834-4.412 9.834-9.834v-11.772c0-2.56-.978-4.984-2.756-6.827l-10.697-11.09v-7.558l4.479-4.039c5.501-4.96 10.062-10.768 13.59-17.125h9.97c13.408 0 24.964-9.559 27.478-22.729l3.203-16.785c1.074-5.626-.404-11.383-4.055-15.797-3.651-4.413-9.029-6.944-14.757-6.944h-13.446v-2.106c0-6.782-5.517-12.299-12.298-12.299h-22.439c-4.142 0-7.5 3.358-7.5 7.5s3.358 7.5 7.5 7.5h19.737v29.37c0 14.569-6.206 28.521-17.026 38.276l-6.958 6.273c-1.578 1.422-2.478 3.446-2.478 5.57v13.922c0 1.942.753 3.809 2.102 5.207l11.351 11.768v4.521h-40.17v-4.521l11.351-11.768c1.349-1.398 2.102-3.265 2.102-5.207v-13.922c0-2.124-.9-4.148-2.478-5.57l-6.958-6.273c-10.82-9.756-17.026-23.707-17.026-38.276v-29.37h14.489c4.142 0 7.5-3.358 7.5-7.5s-3.358-7.5-7.5-7.5h-17.19c-6.782 0-12.299 5.517-12.299 12.299v2.106h-11.446c-5.728 0-11.106 2.531-14.757 6.944-3.65 4.414-5.128 10.171-4.055 15.796zm136.689-24.527c1.7 0 2.733.943 3.199 1.505.465.562 1.197 1.754.878 3.424l-3.203 16.785c-1.166 6.108-6.525 10.542-12.743 10.542h-3.871c1.508-5.591 2.294-11.402 2.294-17.291v-14.965zm-124.28 1.506c.465-.562 1.499-1.505 3.199-1.505h11.446v14.965c0 5.889.786 11.7 2.294 17.291h-1.871c-6.218 0-11.578-4.433-12.743-10.541l-3.203-16.786c-.319-1.67.413-2.862.878-3.424z"/><path d="m361.746 186.858h17.751v85.676c0 6.146 5 11.145 11.146 11.145h39.519c4.142 0 7.5-3.358 7.5-7.5s-3.358-7.5-7.5-7.5h-35.664v-178.642h35.664c4.142 0 7.5-3.358 7.5-7.5s-3.358-7.5-7.5-7.5h-39.519c-6.146 0-11.146 5-11.146 11.145v85.676h-17.751c-4.142 0-7.5 3.358-7.5 7.5s3.358 7.5 7.5 7.5z"/><path d="m473.636 109.926c15.102 0 27.388-12.286 27.388-27.388s-12.286-27.388-27.388-27.388-27.388 12.286-27.388 27.388 12.286 27.388 27.388 27.388zm0-39.777c6.831 0 12.388 5.557 12.388 12.388s-5.557 12.388-12.388 12.388-12.388-5.557-12.388-12.388 5.557-12.388 12.388-12.388z"/><path d="m473.636 303.567c15.102 0 27.388-12.286 27.388-27.388s-12.286-27.388-27.388-27.388-27.388 12.286-27.388 27.388 12.286 27.388 27.388 27.388zm0-39.776c6.831 0 12.388 5.557 12.388 12.388s-5.557 12.388-12.388 12.388-12.388-5.557-12.388-12.388 5.557-12.388 12.388-12.388z"/><path d="m82.152 268.679c-4.142 0-7.5 3.358-7.5 7.5s3.358 7.5 7.5 7.5h39.519c6.146 0 11.146-5 11.146-11.145v-186.352c0-6.146-5-11.145-11.146-11.145h-39.519c-4.142 0-7.5 3.358-7.5 7.5s3.358 7.5 7.5 7.5h35.664v178.642z"/><path d="m38.676 109.926c15.102 0 27.388-12.286 27.388-27.388s-12.285-27.389-27.388-27.389-27.388 12.286-27.388 27.388 12.286 27.389 27.388 27.389zm0-39.777c6.831 0 12.388 5.557 12.388 12.388s-5.557 12.388-12.388 12.388-12.388-5.557-12.388-12.388 5.557-12.388 12.388-12.388z"/><path d="m38.676 303.567c15.102 0 27.388-12.286 27.388-27.388s-12.286-27.388-27.388-27.388-27.388 12.286-27.388 27.388 12.286 27.388 27.388 27.388zm0-39.776c6.831 0 12.388 5.557 12.388 12.388s-5.557 12.388-12.388 12.388-12.388-5.557-12.388-12.388 5.557-12.388 12.388-12.388z"/><path d="m495.929 418.185 13.836-22.266c1.969-3.169 2.066-7.164.252-10.425-1.813-3.261-5.257-5.287-8.988-5.287h-49.055v-21.211c0-8.246-6.708-14.955-14.955-14.955h-34.042c-4.142 0-7.5 3.358-7.5 7.5s3.358 7.5 7.5 7.5l33.996-.045.013 45.744h-268.734c-4.142 0-7.5 3.358-7.5 7.5s3.358 7.5 7.5 7.5h230.889v25.271c0 6.15 5.003 11.153 11.153 11.153h90.735c3.731 0 7.175-2.026 8.988-5.287s1.717-7.256-.253-10.426zm-69.873 1.555-11.915 11.632v-11.632zm56.952 6.071 9.54 15.353h-66.963l21.882-21.363c2.865-2.797 4.508-6.697 4.508-10.701v-13.892h40.573l-9.541 15.354c-2.922 4.702-2.922 10.545.001 15.249z"/><path d="m136.289 404.74h-61.955l-.041-45.699h296.723c4.142 0 7.5-3.358 7.5-7.5s-3.358-7.5-7.5-7.5h-296.723c-8.246 0-14.955 6.709-14.955 14.955v21.211h-49.054c-3.731 0-7.176 2.026-8.989 5.288-1.813 3.261-1.716 7.256.254 10.425l13.835 22.265-13.835 22.265c-1.97 3.169-2.067 7.165-.254 10.426 1.813 3.262 5.258 5.288 8.989 5.288h90.735c6.15 0 11.153-5.003 11.153-11.153v-25.271h24.117c4.142 0 7.5-3.358 7.5-7.5s-3.358-7.5-7.5-7.5zm-107.984 5.82-9.54-15.353h40.573v13.892c0 4.004 1.643 7.904 4.508 10.701l21.882 21.363h-66.963l9.541-15.354c2.922-4.702 2.922-10.545-.001-15.249zm68.867 20.817-11.928-11.637h11.928z"/></g></svg>