<svg id="Capa_1" enable-background="new 0 0 511.828 511.828" height="512" viewBox="0 0 511.828 511.828" width="512" xmlns="http://www.w3.org/2000/svg"><g><path d="m209.521 225.714v-120.18c0-10.985-8.937-19.921-19.921-19.921h-120.18c-10.985 0-19.921 8.937-19.921 19.921v120.18c0 10.985 8.937 19.921 19.921 19.921h120.18c10.985 0 19.921-8.936 19.921-19.921zm-145.022 0v-120.18c0-2.714 2.208-4.921 4.921-4.921h120.18c2.714 0 4.921 2.208 4.921 4.921v120.18c0 2.714-2.208 4.921-4.921 4.921h-120.18c-2.714 0-4.921-2.207-4.921-4.921z"/><path d="m463.329 225.714v-120.18c0-10.985-8.937-19.921-19.922-19.921h-17.237c-4.143 0-7.5 3.358-7.5 7.5s3.357 7.5 7.5 7.5h17.237c2.714 0 4.922 2.208 4.922 4.921v120.18c0 2.714-2.208 4.921-4.922 4.921h-120.18c-2.714 0-4.921-2.208-4.921-4.921v-120.18c0-2.714 2.207-4.921 4.921-4.921h70.979c4.143 0 7.5-3.358 7.5-7.5s-3.357-7.5-7.5-7.5h-70.979c-10.984 0-19.921 8.937-19.921 19.921v120.18c0 10.985 8.937 19.921 19.921 19.921h120.18c10.985 0 19.922-8.936 19.922-19.921z"/><path d="m273.087 173.124c4.143 0 7.5-3.358 7.5-7.5s-3.357-7.5-7.5-7.5h-34.092c-4.142 0-7.5 3.358-7.5 7.5s3.358 7.5 7.5 7.5z"/><path d="m255.914 364.527c4.143 0 7.5-3.358 7.5-7.5v-4.011c0-4.142-3.357-7.5-7.5-7.5-4.142 0-7.5 3.358-7.5 7.5v4.011c0 4.142 3.357 7.5 7.5 7.5z"/><path d="m248.414 389.525c0 4.142 3.358 7.5 7.5 7.5 4.143 0 7.5-3.358 7.5-7.5v-4.011c0-4.142-3.357-7.5-7.5-7.5-4.142 0-7.5 3.358-7.5 7.5z"/><path d="m135.467 386.973c-3.299 2.478-3.978 7.158-1.513 10.473 1.472 1.979 3.733 3.024 6.024 3.024 1.556 0 3.126-.482 4.47-1.482.782-.582 19.062-14.462 22.266-40.468.188-1.189.289-2.407.289-3.648 0-12.812-10.424-23.236-23.236-23.236s-23.236 10.424-23.236 23.236c0 12.724 10.28 23.086 22.97 23.23-3.992 5.705-7.885 8.756-8.034 8.871zm.063-32.101c0-4.542 3.694-8.236 8.236-8.236s8.236 3.695 8.236 8.236-3.695 8.236-8.236 8.236-8.236-3.694-8.236-8.236z"/><path d="m231.9 380.038v-25.166c0-12.812-10.424-23.236-23.236-23.236s-23.236 10.424-23.236 23.236v25.166c0 12.812 10.423 23.236 23.236 23.236s23.236-10.423 23.236-23.236zm-31.472 0v-25.166c0-4.542 3.695-8.236 8.236-8.236 4.542 0 8.236 3.695 8.236 8.236v25.166c0 4.542-3.695 8.236-8.236 8.236s-8.236-3.694-8.236-8.236z"/><path d="m329.739 380.038v-25.166c0-12.812-10.424-23.236-23.236-23.236s-23.236 10.424-23.236 23.236v25.166c0 12.812 10.424 23.236 23.236 23.236s23.236-10.423 23.236-23.236zm-31.473 0v-25.166c0-4.542 3.694-8.236 8.236-8.236s8.236 3.695 8.236 8.236v25.166c0 4.542-3.694 8.236-8.236 8.236s-8.236-3.694-8.236-8.236z"/><path d="m390.817 380.038v-25.166c0-12.812-10.424-23.236-23.236-23.236s-23.236 10.424-23.236 23.236v25.166c0 12.812 10.424 23.236 23.236 23.236s23.236-10.423 23.236-23.236zm-31.473 0v-25.166c0-4.542 3.694-8.236 8.236-8.236s8.236 3.695 8.236 8.236v25.166c0 4.542-3.694 8.236-8.236 8.236s-8.236-3.694-8.236-8.236z"/><path d="m131.086 115.921h-18.041c-4.142 0-7.5 3.358-7.5 7.5s3.358 7.5 7.5 7.5h10.541v76.907c0 4.142 3.358 7.5 7.5 7.5s7.5-3.358 7.5-7.5v-84.407c0-4.142-3.357-7.5-7.5-7.5z"/><path d="m383.317 215.328c4.143 0 7.5-3.358 7.5-7.5v-84.407c0-4.142-3.357-7.5-7.5-7.5h-18.041c-4.143 0-7.5 3.358-7.5 7.5s3.357 7.5 7.5 7.5h10.541v76.907c0 4.142 3.357 7.5 7.5 7.5z"/><path d="m98.726 436.78h314.375c6.258 0 11.35-5.091 11.35-11.349v-118.757c0-6.258-5.092-11.349-11.35-11.349h-237.618c-4.142 0-7.5 3.358-7.5 7.5s3.358 7.5 7.5 7.5h233.967v111.455h-307.074v-111.454h41.145c4.142 0 7.5-3.358 7.5-7.5s-3.358-7.5-7.5-7.5h-44.795c-6.258 0-11.349 5.091-11.349 11.349v118.757c-.001 6.257 5.091 11.348 11.349 11.348z"/><path d="m504.328 349.696c4.143 0 7.5-3.358 7.5-7.5v-255.8c0-22.8-18.55-41.349-41.35-41.349h-429.129c-22.8 0-41.349 18.549-41.349 41.349v339.035c0 22.8 18.549 41.349 41.349 41.349h429.129c22.8 0 41.35-18.549 41.35-41.349v-51.272c0-4.142-3.357-7.5-7.5-7.5s-7.5 3.358-7.5 7.5v51.272c0 14.529-11.82 26.349-26.35 26.349h-429.129c-14.529 0-26.349-11.82-26.349-26.349v-339.035c0-14.529 11.82-26.349 26.349-26.349h429.129c14.529 0 26.35 11.82 26.35 26.349v255.8c0 4.142 3.357 7.5 7.5 7.5z"/></g></svg>