<svg id="Capa_1" enable-background="new 0 0 513.638 513.638" height="512" viewBox="0 0 513.638 513.638" width="512" xmlns="http://www.w3.org/2000/svg"><g><path d="m402.486 268.607c-1.98-3.637-6.536-4.977-10.174-2.996-3.638 1.982-4.979 6.538-2.996 10.175 11.971 21.963 18.298 46.88 18.298 72.058 0 83.148-67.646 150.795-150.795 150.795s-150.795-67.646-150.795-150.795 67.646-150.795 150.795-150.795c44.484 0 86.485 19.516 115.233 53.543 2.675 3.164 7.406 3.562 10.569.889 3.164-2.673 3.562-7.405.89-10.569-13.917-16.473-30.663-29.847-49.221-39.663v-28.788c0-5.315-2.573-10.028-6.526-13l59.253-149.188c1.528-3.85-.353-8.21-4.202-9.739-3.848-1.529-8.209.353-9.739 4.202l-60.152 151.451h-20.442l57.952-145.914c1.528-3.85-.353-8.21-4.202-9.739-3.848-1.528-8.209.351-9.739 4.202l-60.151 151.451h-19.732l57.952-145.914c1.528-3.85-.353-8.21-4.202-9.739-3.848-1.528-8.209.351-9.739 4.202l-43.802 110.284-43.802-110.286c-1.53-3.85-5.889-5.731-9.739-4.202s-5.73 5.889-4.202 9.739l49.673 125.068-8.279 20.846h-3.174l-60.152-151.451c-1.53-3.85-5.89-5.731-9.739-4.202-3.85 1.529-5.73 5.889-4.202 9.739l57.952 145.914h-20.441l-28.45-71.63c-1.53-3.849-5.89-5.731-9.739-4.202-3.85 1.529-5.73 5.889-4.202 9.739l27.327 68.803c-4.395 2.917-7.302 7.905-7.302 13.564v29.37c-51.945 28.029-87.323 82.966-87.323 146.015 0 91.419 74.375 165.795 165.795 165.795s165.795-74.376 165.795-165.795c-.001-27.678-6.961-55.078-20.129-79.237zm-209.138-96.148c0-.703.571-1.274 1.274-1.274h123.395c.703 0 1.274.571 1.274 1.274v21.797c-19.597-7.972-40.763-12.208-62.472-12.208-22.473 0-43.911 4.503-63.472 12.64v-22.229z"/><path d="m256.819 217.115c-72.084 0-130.729 58.645-130.729 130.729 0 72.083 58.645 130.728 130.729 130.728s130.729-58.645 130.729-130.728c0-72.084-58.645-130.729-130.729-130.729zm0 246.457c-63.813 0-115.729-51.916-115.729-115.728 0-63.813 51.916-115.729 115.729-115.729s115.729 51.916 115.729 115.729c0 63.812-51.916 115.728-115.729 115.728z"/><path d="m146.519 60.373c1.169 2.941 3.989 4.733 6.973 4.733.921 0 1.858-.171 2.767-.532 3.85-1.529 5.73-5.889 4.202-9.739l-19.9-50.101c-1.53-3.85-5.89-5.731-9.739-4.202-3.85 1.529-5.73 5.889-4.202 9.739z"/><path d="m266.791 264.384h-47.048c-5.764 0-10.452 4.688-10.452 10.452v28.096c0 5.763 4.688 10.452 10.452 10.452h22.548v29.713c0 4.142 3.357 7.5 7.5 7.5s7.5-3.358 7.5-7.5v-37.213c0-4.142-3.357-7.5-7.5-7.5h-25.5v-19h42.5c5.238 0 9.5 4.262 9.5 9.5v129.239h-19v-43.063c0-4.142-3.357-7.5-7.5-7.5s-7.5 3.358-7.5 7.5v47.611c0 5.763 4.688 10.452 10.452 10.452h28.096c5.764 0 10.452-4.689 10.452-10.452v-133.787c0-13.51-10.99-24.5-24.5-24.5z"/></g></svg>