<svg id="Capa_1" enable-background="new 0 0 513.227 513.227" height="512" viewBox="0 0 513.227 513.227" width="512" xmlns="http://www.w3.org/2000/svg"><g><path d="m217.143 24.802c-4.692-9.172-15.302-13.83-25.229-11.075l-10.994 3.051c-36.865 10.23-75.837 10.23-112.702 0l-10.994-3.051c-9.927-2.755-20.537 1.903-25.229 11.075l-20.659 40.382c-7.416 14.498-11.336 30.768-11.336 47.052v47.61c0 17.028 4.265 33.955 12.333 48.951 11.155 20.734 17.018 44.138 16.953 67.682l-.321 118.298c-.011 4.142 3.337 7.509 7.479 7.521 4.168.053 7.509-3.338 7.521-7.479l.06-22.186 48.217-55.475c2.747-3.161 4.26-7.208 4.26-11.396v-101.717c0-4.393-1.645-8.586-4.63-11.809l-76.82-82.886c.43-12.949 3.738-25.799 9.639-37.335l8.51-16.635 26.076 7.236c21.357 5.926 43.324 8.89 65.292 8.89s43.935-2.963 65.292-8.89l26.076-7.236 8.51 16.635c5.745 11.231 9.026 23.706 9.593 36.307l-77.774 83.916c-2.986 3.222-4.63 7.416-4.63 11.808v101.716c0 4.188 1.513 8.235 4.26 11.396l49.22 56.629.229 84.319-27.023-7.355c-35.165-9.571-72.34-9.571-107.505 0l-27.023 7.356.085-31.325c.011-4.142-3.337-7.509-7.479-7.521-.007 0-.014 0-.021 0-4.132 0-7.488 3.345-7.5 7.479l-.118 43.203c-.026 9.519 4.293 18.299 11.849 24.089 5.368 4.113 11.767 6.256 18.316 6.256 2.669 0 5.364-.356 8.023-1.08 37.696-10.261 77.545-10.261 115.239 0 9.185 2.5 18.785.613 26.34-5.176 7.556-5.79 11.875-14.57 11.849-24.089l-.525-193.463c-.064-23.544 5.798-46.948 16.953-67.682 8.068-14.996 12.333-31.923 12.333-48.951v-47.61c0-16.284-3.92-32.555-11.336-47.052zm-135.641 179.243v101.716c0 .572-.207 1.124-.582 1.556l-36.833 42.378.199-73.175c.071-26.03-6.411-51.906-18.744-74.83-6.896-12.819-10.542-27.288-10.542-41.844v-28.484l65.87 71.071c.408.44.632 1.013.632 1.612zm104.348-155.883c-40.091 11.125-82.471 11.125-122.562 0l-23.114-6.414 5.175-10.115c1.462-2.859 4.768-4.312 7.864-3.452l10.994 3.051c39.489 10.958 81.234 10.958 120.724 0l10.994-3.051c3.095-.86 6.402.593 7.864 3.452l5.175 10.115zm13.555 433.962c-3.808 2.918-8.646 3.872-13.277 2.609-40.272-10.962-82.846-10.962-123.118 0-4.631 1.262-9.468.309-13.277-2.609-2.84-2.177-4.77-5.193-5.564-8.576l30.587-8.326c32.588-8.871 67.038-8.871 99.626 0l30.587 8.326c-.794 3.383-2.724 6.4-5.564 8.576zm24.191-280.434c-12.333 22.923-18.815 48.799-18.744 74.83l.202 74.329-37.837-43.532c-.375-.431-.582-.983-.582-1.555v-101.717c0-.6.225-1.172.632-1.612l66.87-72.15v29.563c.001 14.556-3.645 29.025-10.541 41.844z"/><path d="m63.314 432.42c3.126 2.718 7.864 2.385 10.581-.741l36.026-41.449h29.296l36.026 41.449c1.483 1.707 3.567 2.58 5.664 2.58 1.744 0 3.497-.605 4.917-1.839 3.126-2.717 3.458-7.455.741-10.581l-37.389-43.017c-1.985-2.283-4.858-3.592-7.883-3.592h-33.447c-3.025 0-5.898 1.309-7.884 3.593l-37.388 43.016c-2.718 3.126-2.386 7.864.74 10.581z"/><path d="m107.845 132.818h33.447c3.025 0 5.898-1.309 7.884-3.593l37.388-43.016c2.717-3.126 2.386-7.863-.741-10.581-3.126-2.718-7.864-2.386-10.581.741l-36.026 41.449h-29.296l-36.025-41.448c-2.718-3.126-7.454-3.458-10.581-.741-3.126 2.717-3.458 7.455-.741 10.581l37.389 43.017c1.985 2.282 4.858 3.591 7.883 3.591z"/><path d="m60.375 221.998c4.142 0 7.5-3.358 7.5-7.5v-5.304c0-4.142-3.358-7.5-7.5-7.5s-7.5 3.358-7.5 7.5v5.304c0 4.142 3.358 7.5 7.5 7.5z"/><path d="m60.375 263.176c4.142 0 7.5-3.358 7.5-7.5v-5.304c0-4.142-3.358-7.5-7.5-7.5s-7.5 3.358-7.5 7.5v5.304c0 4.142 3.358 7.5 7.5 7.5z"/><path d="m187.762 201.694c-4.142 0-7.5 3.358-7.5 7.5v5.304c0 4.142 3.358 7.5 7.5 7.5s7.5-3.358 7.5-7.5v-5.304c0-4.142-3.358-7.5-7.5-7.5z"/><path d="m187.762 242.872c-4.142 0-7.5 3.358-7.5 7.5v5.304c0 4.142 3.358 7.5 7.5 7.5s7.5-3.358 7.5-7.5v-5.304c0-4.142-3.358-7.5-7.5-7.5z"/><path d="m501.89 65.184-20.658-40.382c-4.692-9.172-15.303-13.83-25.229-11.075l-10.994 3.051c-19.154 5.315-38.959 7.901-58.866 7.652-.03 0-.061 0-.091 0-4.1 0-7.448 3.299-7.498 7.411-.049 4.142 3.268 7.54 7.41 7.589 21.324.259 42.538-2.504 63.055-8.197l10.994-3.051c3.095-.86 6.402.593 7.864 3.452l5.175 10.115-23.114 6.414c-40.091 11.125-82.471 11.125-122.562 0l-23.114-6.414 5.175-10.115c1.462-2.859 4.768-4.312 7.864-3.452l10.994 3.051c8.022 2.226 16.301 4.03 24.607 5.363 4.086.655 7.938-2.127 8.593-6.217.656-4.09-2.127-7.937-6.217-8.593-7.757-1.245-15.486-2.929-22.973-5.006l-10.994-3.051c-9.928-2.755-20.537 1.903-25.229 11.075l-20.658 40.382c-7.417 14.498-11.336 30.768-11.336 47.052v47.61c0 17.028 4.265 33.955 12.333 48.951 11.155 20.734 17.018 44.138 16.953 67.682l-.525 193.463c-.026 9.519 4.293 18.299 11.849 24.089 5.368 4.113 11.767 6.256 18.316 6.256 2.669 0 5.364-.356 8.023-1.08 37.695-10.261 77.544-10.261 115.239 0 9.186 2.5 18.785.613 26.34-5.176 7.556-5.79 11.875-14.57 11.849-24.089l-.525-193.463c-.064-23.544 5.798-46.948 16.953-67.682 8.068-14.996 12.333-31.923 12.333-48.951v-47.61c.001-16.286-3.919-32.556-11.336-47.054zm-212.259 136.505c-6.896-12.818-10.542-27.288-10.542-41.843v-29.563l66.87 72.15c.408.44.632 1.013.632 1.613v32.998c0 4.142 3.358 7.5 7.5 7.5s7.5-3.358 7.5-7.5v-32.998c0-4.393-1.645-8.586-4.63-11.809l-77.774-83.915c.567-12.601 3.848-25.076 9.593-36.307l8.51-16.635 26.076 7.236c21.357 5.926 43.324 8.89 65.292 8.89s43.935-2.963 65.292-8.89l26.076-7.236 8.51 16.635c5.902 11.536 9.21 24.386 9.639 37.335l-76.82 82.887c-2.986 3.222-4.63 7.416-4.63 11.808v101.716c0 4.188 1.513 8.235 4.26 11.396l48.217 55.475.232 85.473-27.023-7.355c-35.165-9.571-72.34-9.571-107.505 0l-27.023 7.355.229-84.319 49.221-56.629c2.747-3.161 4.26-7.208 4.26-11.396v-36.755c0-4.142-3.358-7.5-7.5-7.5s-7.5 3.358-7.5 7.5v36.755c0 .572-.207 1.125-.582 1.556l-37.837 43.532.202-74.33c.07-26.03-6.412-51.906-18.745-74.83zm173.863 280.435c-3.807 2.918-8.646 3.872-13.277 2.609-40.272-10.962-82.846-10.962-123.118 0-4.63 1.262-9.468.309-13.277-2.609-2.84-2.177-4.771-5.193-5.564-8.576l30.587-8.326c32.588-8.871 67.038-8.871 99.626 0l30.587 8.326c-.794 3.383-2.724 6.4-5.564 8.576zm24.191-280.434c-12.333 22.923-18.815 48.799-18.744 74.83l.199 73.175-36.833-42.378c-.375-.431-.582-.983-.582-1.555v-101.717c0-.6.225-1.172.632-1.612l65.87-71.071v28.484c0 14.556-3.646 29.025-10.542 41.844z"/><path d="m327.403 432.42c3.126 2.718 7.864 2.385 10.581-.741l36.026-41.449h29.296l36.026 41.449c1.483 1.707 3.567 2.581 5.664 2.58 1.744 0 3.497-.605 4.917-1.839 3.126-2.717 3.458-7.455.741-10.581l-37.389-43.017c-1.985-2.283-4.858-3.592-7.883-3.592h-33.447c-3.025 0-5.898 1.309-7.884 3.593l-37.388 43.016c-2.718 3.126-2.386 7.864.74 10.581z"/><path d="m371.934 132.818h33.447c3.025 0 5.898-1.309 7.884-3.593l37.388-43.016c2.717-3.126 2.386-7.863-.741-10.581-3.126-2.718-7.864-2.386-10.581.741l-36.026 41.449h-29.295l-36.026-41.448c-2.718-3.126-7.454-3.458-10.581-.741-3.126 2.717-3.458 7.455-.741 10.581l37.389 43.017c1.985 2.282 4.858 3.591 7.883 3.591z"/><path d="m452.851 201.694c-4.142 0-7.5 3.358-7.5 7.5v5.304c0 4.142 3.358 7.5 7.5 7.5s7.5-3.358 7.5-7.5v-5.304c0-4.142-3.358-7.5-7.5-7.5z"/><path d="m452.851 242.872c-4.142 0-7.5 3.358-7.5 7.5v5.304c0 4.142 3.358 7.5 7.5 7.5s7.5-3.358 7.5-7.5v-5.304c0-4.142-3.358-7.5-7.5-7.5z"/><path d="m325.464 221.998c4.142 0 7.5-3.358 7.5-7.5v-5.304c0-4.142-3.358-7.5-7.5-7.5s-7.5 3.358-7.5 7.5v5.304c0 4.142 3.358 7.5 7.5 7.5z"/><path d="m325.464 263.176c4.142 0 7.5-3.358 7.5-7.5v-5.304c0-4.142-3.358-7.5-7.5-7.5s-7.5 3.358-7.5 7.5v5.304c0 4.142 3.358 7.5 7.5 7.5z"/></g></svg>