<svg id="Capa_1" enable-background="new 0 0 512.362 512.362" height="512" viewBox="0 0 512.362 512.362" width="512" xmlns="http://www.w3.org/2000/svg"><g><path d="m401.076 167.556c-4.142 0-7.5 3.358-7.5 7.5v278.03c0 24.414-19.862 44.276-44.276 44.276h-186.237c-24.414 0-44.276-19.862-44.276-44.276v-393.81c0-24.414 19.862-44.276 44.276-44.276h14.841c4.142 0 7.5-3.358 7.5-7.5s-3.358-7.5-7.5-7.5h-14.841c-32.685 0-59.276 26.591-59.276 59.276v393.81c0 32.685 26.591 59.276 59.276 59.276h186.236c32.685 0 59.276-26.591 59.276-59.276v-278.03c.001-4.142-3.357-7.5-7.499-7.5z"/><path d="m349.299 0h-139.433c-4.142 0-7.5 3.358-7.5 7.5s3.358 7.5 7.5 7.5h139.433c24.414 0 44.276 19.862 44.276 44.276v83.816c0 4.142 3.358 7.5 7.5 7.5s7.5-3.358 7.5-7.5v-83.816c.001-32.685-26.591-59.276-59.276-59.276z"/><path d="m133.787 59.276v393.81c0 16.143 13.133 29.276 29.276 29.276h186.236c16.143 0 29.276-13.133 29.276-29.276v-393.81c0-16.143-13.133-29.276-29.276-29.276h-30.638c-3.794 0-7.421 1.621-9.95 4.445l-2.175 2.428c-4.303 4.805-10.47 7.56-16.919 7.56h-66.872c-6.45 0-12.617-2.756-16.92-7.56l-2.173-2.427c-2.53-2.826-6.157-4.447-9.951-4.447h-30.638c-16.143.001-29.276 13.134-29.276 29.277zm15 42.376h94.466c.307 0 .595.163.754.425l25.798 42.542c.073.121.268.441.014.891-.253.449-.627.449-.769.449h-120.263zm214.789 318.748h-117.264c-.141 0-.516 0-.769-.449-.253-.45-.059-.77.014-.891l25.798-42.543c.159-.262.448-.425.754-.425h91.466v44.308zm-168.925-373.519c7.145 7.978 17.385 12.553 28.094 12.553h66.872c10.709 0 20.949-4.576 28.093-12.552l1.685-1.882h29.904c7.872 0 14.276 6.404 14.276 14.276v301.816h-91.465c-5.517 0-10.721 2.93-13.581 7.647l-25.798 42.543c-3.014 4.971-3.111 10.963-.258 16.028s8.026 8.089 13.839 8.089h117.264v17.686c0 7.872-6.404 14.276-14.276 14.276h-186.237c-7.872 0-14.276-6.404-14.276-14.276v-292.126h120.264c5.813 0 10.986-3.024 13.839-8.089s2.756-11.057-.258-16.028l-25.799-42.542c-2.86-4.718-8.064-7.648-13.581-7.648h-94.466v-27.376c0-7.872 6.404-14.276 14.276-14.276h29.904z"/><path d="m241.355 194.029-42.929 20.375c-4.854 2.303-7.99 7.263-7.99 12.635v25.535c0 3.469.195 7.007.581 10.516.452 4.118 4.159 7.092 8.273 6.637 4.117-.452 7.089-4.156 6.637-8.273-.326-2.967-.491-5.955-.491-8.879v-24.895l42.35-20.1c5.335-2.531 11.455-2.531 16.789 0l42.35 20.101v24.893c0 30.867-17.124 58.671-44.689 72.561-3.791 1.911-8.318 1.912-12.111 0-15.507-7.814-27.884-20.132-35.794-35.622-1.884-3.689-6.402-5.152-10.09-3.269-3.689 1.884-5.153 6.401-3.269 10.09 9.369 18.348 24.032 32.939 42.403 42.196 4.01 2.021 8.407 3.031 12.806 3.031 4.398 0 8.797-1.011 12.806-3.031 32.654-16.455 52.939-49.391 52.939-85.957v-25.535c0-5.373-3.136-10.332-7.989-12.635l-42.929-20.375c-9.423-4.472-20.231-4.472-29.653.001z"/></g></svg>