<svg id="Capa_1" enable-background="new 0 0 511.718 511.718" height="512" viewBox="0 0 511.718 511.718" width="512" xmlns="http://www.w3.org/2000/svg"><g><path d="m313.055 445.826h-32.067c-3.235-10.818-13.273-18.728-25.129-18.728s-21.894 7.91-25.129 18.728h-33.067c-5.363 0-9.727 4.212-9.727 9.39v49.002c0 4.142 3.358 7.5 7.5 7.5s7.5-3.358 7.5-7.5v-43.392h27.794c3.235 10.818 13.273 18.728 25.129 18.728s21.894-7.91 25.129-18.728h26.795v43.392c0 4.142 3.357 7.5 7.5 7.5s7.5-3.358 7.5-7.5v-49.002c0-5.177-4.364-9.39-9.728-9.39zm-57.196 18.728c-6.191 0-11.228-5.037-11.228-11.228s5.037-11.228 11.228-11.228c6.19 0 11.228 5.037 11.228 11.228s-5.038 11.228-11.228 11.228z"/><path d="m255.859 266.077c14.462 0 26.228-11.766 26.228-26.228s-11.766-26.228-26.228-26.228-26.228 11.766-26.228 26.228 11.766 26.228 26.228 26.228zm0-37.455c6.19 0 11.228 5.037 11.228 11.228s-5.037 11.228-11.228 11.228-11.228-5.037-11.228-11.228 5.037-11.228 11.228-11.228z"/><path d="m255.859 157.266c14.462 0 26.228-11.766 26.228-26.228s-11.766-26.228-26.228-26.228-26.228 11.766-26.228 26.228 11.766 26.228 26.228 26.228zm0-37.455c6.19 0 11.228 5.037 11.228 11.228s-5.037 11.228-11.228 11.228-11.228-5.037-11.228-11.228 5.037-11.228 11.228-11.228z"/><path d="m255.859 52.455c14.462 0 26.228-11.766 26.228-26.228s-11.766-26.227-26.228-26.227-26.228 11.766-26.228 26.228 11.766 26.227 26.228 26.227zm0-37.455c6.19 0 11.228 5.037 11.228 11.228s-5.037 11.228-11.228 11.228-11.228-5.037-11.228-11.228 5.037-11.228 11.228-11.228z"/><path d="m165.653 221.94c14.462 0 26.228-11.766 26.228-26.228s-11.766-26.228-26.228-26.228-26.228 11.766-26.228 26.228 11.766 26.228 26.228 26.228zm0-37.455c6.191 0 11.228 5.037 11.228 11.228s-5.037 11.228-11.228 11.228-11.228-5.037-11.228-11.228 5.037-11.228 11.228-11.228z"/><path d="m82.402 104.816c-14.462 0-26.228 11.766-26.228 26.228s11.766 26.228 26.228 26.228 26.228-11.766 26.228-26.228-11.766-26.228-26.228-26.228zm0 37.455c-6.191 0-11.228-5.037-11.228-11.228s5.037-11.228 11.228-11.228 11.228 5.037 11.228 11.228-5.037 11.228-11.228 11.228z"/><path d="m372.293 195.712c0-14.462-11.766-26.228-26.228-26.228s-26.228 11.766-26.228 26.228 11.766 26.228 26.228 26.228 26.228-11.766 26.228-26.228zm-37.456 0c0-6.191 5.037-11.228 11.228-11.228s11.228 5.037 11.228 11.228-5.037 11.228-11.228 11.228-11.228-5.037-11.228-11.228z"/><path d="m455.543 131.043c0-14.462-11.766-26.228-26.228-26.228s-26.228 11.766-26.228 26.228 11.766 26.228 26.228 26.228 26.228-11.766 26.228-26.228zm-37.456 0c0-6.191 5.037-11.228 11.228-11.228s11.228 5.037 11.228 11.228-5.037 11.228-11.228 11.228-11.228-5.037-11.228-11.228z"/><path d="m161.426 325.814c0-14.462-11.766-26.228-26.228-26.228s-26.228 11.766-26.228 26.228 11.766 26.228 26.228 26.228 26.228-11.766 26.228-26.228zm-37.455 0c0-6.191 5.037-11.228 11.228-11.228s11.228 5.037 11.228 11.228-5.037 11.228-11.228 11.228-11.228-5.037-11.228-11.228z"/><path d="m376.52 299.586c-14.462 0-26.228 11.766-26.228 26.228s11.766 26.228 26.228 26.228 26.228-11.766 26.228-26.228-11.766-26.228-26.228-26.228zm0 37.456c-6.19 0-11.228-5.037-11.228-11.228s5.037-11.228 11.228-11.228 11.228 5.037 11.228 11.228-5.037 11.228-11.228 11.228z"/><path d="m255.359 279.1c-4.142 0-7.5 3.358-7.5 7.5v11.345l-2.355-2.066c-3.115-2.733-7.853-2.421-10.584.692-2.731 3.114-2.421 7.853.692 10.584l14.801 12.983c1.415 1.241 3.18 1.862 4.946 1.862s3.531-.621 4.945-1.862l14.802-12.983c3.114-2.731 3.425-7.47.693-10.584-2.733-3.113-7.472-3.425-10.584-.692l-2.356 2.067v-11.346c0-4.142-3.357-7.5-7.5-7.5z"/><path d="m336.209 100.124 2.356-2.067v32.986c0 4.142 3.357 7.5 7.5 7.5s7.5-3.358 7.5-7.5v-32.986l2.356 2.067c1.424 1.249 3.187 1.862 4.942 1.862 2.084 0 4.158-.864 5.642-2.554 2.731-3.114 2.421-7.853-.693-10.584l-14.802-12.984c-2.83-2.482-7.061-2.482-9.891 0l-14.802 12.983c-3.114 2.731-3.425 7.47-.693 10.584 2.734 3.115 7.472 3.425 10.585.693z"/><path d="m155.797 100.124 2.356-2.066v32.986c0 4.142 3.358 7.5 7.5 7.5s7.5-3.358 7.5-7.5v-32.986l2.355 2.066c1.424 1.249 3.187 1.862 4.943 1.862 2.084 0 4.159-.864 5.641-2.554 2.731-3.114 2.421-7.853-.692-10.584l-14.801-12.983c-2.83-2.482-7.061-2.482-9.892 0l-14.802 12.983c-3.114 2.731-3.424 7.47-.692 10.584 2.73 3.113 7.469 3.423 10.584.692z"/><path d="m67.604 43.605c1.756 0 3.519-.613 4.943-1.862l2.355-2.066v32.986c0 4.142 3.358 7.5 7.5 7.5s7.5-3.358 7.5-7.5v-32.986l2.356 2.066c3.114 2.731 7.853 2.421 10.584-.692 2.731-3.114 2.421-7.853-.692-10.584l-14.802-12.984c-2.83-2.482-7.062-2.482-9.892 0l-14.801 12.984c-3.114 2.731-3.424 7.47-.692 10.584 1.483 1.69 3.557 2.554 5.641 2.554z"/><path d="m419.461 41.743 2.354-2.065v32.985c0 4.142 3.357 7.5 7.5 7.5s7.5-3.358 7.5-7.5v-32.987l2.356 2.067c1.424 1.249 3.187 1.862 4.942 1.862 2.084 0 4.158-.864 5.642-2.554 2.731-3.114 2.421-7.853-.693-10.584l-14.802-12.984c-2.83-2.482-7.062-2.482-9.892 0l-14.801 12.983c-3.113 2.731-3.424 7.47-.691 10.584 2.731 3.115 7.47 3.424 10.585.693z"/><path d="m462.384 269.793-1.285-19.647c-.246-3.756-3.238-6.749-6.995-6.994l-19.647-1.286c-4.107-.277-7.703 2.861-7.974 6.994s2.861 7.703 6.995 7.974l3.126.205-23.324 23.325c-2.929 2.929-2.929 7.678 0 10.606 1.465 1.464 3.385 2.197 5.304 2.197s3.839-.732 5.304-2.197l23.324-23.324.204 3.127c.26 3.967 3.558 7.011 7.477 7.011.165 0 .331-.005.497-.017 4.133-.27 7.264-3.841 6.994-7.974z"/><path d="m75.113 257.039 3.128-.205c4.133-.271 7.265-3.84 6.994-7.974-.27-4.133-3.833-7.267-7.974-6.994l-19.647 1.286c-3.756.246-6.749 3.238-6.994 6.994l-1.286 19.647c-.271 4.133 2.861 7.703 6.994 7.974.167.011.333.017.497.017 3.918 0 7.217-3.044 7.477-7.011l.205-3.127 23.324 23.324c1.464 1.465 3.384 2.197 5.303 2.197s3.839-.732 5.303-2.197c2.929-2.929 2.929-7.678 0-10.606z"/><path d="m385.306 480.535c-4.143 0-7.5 3.358-7.5 7.5v16.183c0 4.142 3.357 7.5 7.5 7.5s7.5-3.358 7.5-7.5v-16.183c0-4.142-3.357-7.5-7.5-7.5z"/><path d="m125.412 464.554c-4.142 0-7.5 3.358-7.5 7.5v32.165c0 4.142 3.358 7.5 7.5 7.5s7.5-3.358 7.5-7.5v-32.165c0-4.142-3.358-7.5-7.5-7.5z"/><path d="m319.717 393.934h-15.277c-1.884-14.48-10.005-27.288-22.362-35.179.001-.11.008-.218.008-.328 0-14.462-11.766-26.228-26.228-26.228-14.365 0-26.064 11.61-26.22 25.939-12.756 7.783-21.369 21.029-23.346 35.796h-75.174c-7.282 0-13.207 5.924-13.207 13.207v32.951c0 4.142 3.358 7.5 7.5 7.5s7.5-3.358 7.5-7.5v-31.157h186.806c4.143 0 7.5-3.358 7.5-7.5s-3.357-7.501-7.5-7.501zm-63.858-46.734c6.19 0 11.228 5.037 11.228 11.228s-5.037 11.228-11.228 11.228-11.228-5.037-11.228-11.228 5.037-11.228 11.228-11.228zm-21.658 26c4.728 6.91 12.671 11.455 21.657 11.455 8.77 0 16.542-4.331 21.307-10.962 6.3 5.112 10.563 12.25 12.075 20.241h-67.744c1.592-8.205 6.127-15.6 12.705-20.734z"/><path d="m379.599 393.934h-27.919c-4.143 0-7.5 3.358-7.5 7.5s3.357 7.5 7.5 7.5h26.126v47.138c0 4.142 3.357 7.5 7.5 7.5s7.5-3.358 7.5-7.5v-48.932c0-7.282-5.925-13.206-13.207-13.206z"/></g></svg>