<svg id="Capa_1" enable-background="new 0 0 513.843 513.843" height="512" viewBox="0 0 513.843 513.843" width="512" xmlns="http://www.w3.org/2000/svg"><path d="m489.371 221.564c15.444-22.643 24.472-49.929 24.472-79.268 0-42.057-18.658-81.688-51.191-108.73-3.185-2.648-7.913-2.212-10.562.973-2.647 3.186-2.212 7.914.974 10.562 1.242 1.033 2.453 2.093 3.65 3.166l-8.747 8.747-12.672-6.815-19.446-25.139.663-1.267c3.579 1.358 7.112 2.875 10.591 4.564 3.73 1.81 8.214.253 10.022-3.472 1.809-3.726.254-8.213-3.472-10.022-19.632-9.529-40.735-14.361-62.723-14.361-26.152 0-50.681 7.012-71.791 19.23l-24.921 11.433c-53.055 24.338-103.632 54.501-150.326 89.654-3.31 2.491-3.973 7.193-1.481 10.502.663.88 1.487 1.562 2.395 2.059 2.243 3.077 6.498 4.011 9.85 2.044l21.661-12.703c25.029-14.678 51.738-22.801 78.646-24.096-4.501 13.763-6.945 28.438-6.945 43.67 0 9.966 1.067 19.778 3.1 29.31.061.534.18 1.05.347 1.545 5.534 24.594 17.578 47.232 34.759 65.607l-30.671 30.671c-22.593-21.67-48.026-39.471-75.307-52.966 13.464-11.889 27.082-23.52 40.815-34.839 3.196-2.635 3.651-7.362 1.017-10.558-2.635-3.198-7.361-3.65-10.558-1.017-15.547 12.814-30.948 26.022-46.145 39.551-25.08-10.72-51.511-17.879-78.572-21.176 13.187-12.365 26.821-24.333 40.751-35.728 3.206-2.623 3.679-7.348 1.057-10.554-2.625-3.208-7.35-3.678-10.555-1.057-18.229 14.911-35.978 30.771-52.876 47.239-.557.415-1.057.904-1.481 1.458-1.981 1.941-3.958 3.885-5.915 5.841l-35.587 35.587c-2.929 2.929-2.929 7.678 0 10.606 1.465 1.465 3.384 2.197 5.304 2.197 1.919 0 3.839-.732 5.304-2.197l35.585-35.584c1.386-1.386 2.792-2.76 4.191-4.138 27.636 2.071 54.718 8.405 80.417 18.632-19.183 17.434-38 35.369-56.31 53.68l-17.439 17.233c-12.73-5.295-25.869-9.715-39.342-13.166-4.016-1.028-8.098 1.393-9.126 5.405-1.027 4.013 1.393 8.099 5.405 9.126 10.717 2.745 21.212 6.135 31.443 10.117l-45.008 44.476c-2.946 2.911-2.975 7.66-.063 10.606 1.468 1.484 3.4 2.228 5.335 2.228 1.904 0 3.811-.721 5.271-2.166l49.402-48.819c29.243 13.389 55.998 31.723 79.121 53.848l-137.243 137.244c-2.929 2.929-2.929 7.678 0 10.606 1.465 1.464 3.385 2.197 5.304 2.197s3.839-.732 5.304-2.197l137.205-137.205c21.977 23.302 40.136 50.216 53.317 79.592l-46.598 47.031c-2.915 2.942-2.893 7.691.05 10.606 1.462 1.449 3.37 2.172 5.278 2.172 1.931 0 3.861-.741 5.328-2.221l42.162-42.554c3.787 9.959 7.02 20.161 9.639 30.571.856 3.403 3.912 5.672 7.268 5.672.606 0 1.222-.074 1.836-.229 4.017-1.011 6.454-5.086 5.443-9.104-3.319-13.19-7.562-26.067-12.648-38.556l17.82-17.986c18.114-18.114 35.85-36.714 53.096-55.669 9.536 24.535 15.534 50.308 17.681 76.602-2.068 2.113-4.146 4.217-6.239 6.31l-34.36 34.36c-2.929 2.929-2.929 7.678 0 10.606 1.465 1.464 3.385 2.197 5.304 2.197s3.839-.732 5.304-2.197l34.36-34.36c2.641-2.642 5.256-5.305 7.858-7.979.659-.49 1.233-1.083 1.699-1.756 64.236-66.399 116.32-142.599 154.902-226.703zm-246.353-79.268c0-15.33 2.76-30.032 7.811-43.646 1.894.099 3.786.237 5.678.404v31.441l-9.942 32.758h-1.782c-1.161-6.861-1.765-13.866-1.765-20.957zm160.275-108.951 16.933 21.89-29.97 28.028h-38.136l-30.454-28.067 16.902-21.851zm23.235 223.127c-.354-5.395-.956-10.788-1.818-16.168-.455-2.84-.991-5.67-1.589-8.491l31.677-4.673 1.777 9.25c-8.961 8.022-19.068 14.808-30.047 20.082zm-73.286-73.954-3.787-5.778 19.547-19.547c6.963 7.912 13.178 16.405 18.573 25.325zm-40.171-50.33-41.563-6.932v-24.162c17.361 3.221 34.322 9.381 50.103 18.067zm12.94-107.128-19.445 25.138-41.394 22.26-.586-.543c14.647-21.675 35.853-38.64 60.779-48.092zm-15.641 40.125 29.062 26.785-9.583 14.621c-18.198-10.161-37.884-17.23-58.036-20.671zm24.065 61.771c8.562 5.715 16.672 12.206 24.185 19.405l-17.564 17.564-15.426-23.535zm71.427 57.451 24.361-37.166 42.37-7.141 8.994 29.635-25.373 42.032-34.17 5.041-5.073-6.955c-3.046-8.703-6.766-17.215-11.109-25.446zm63.458 38.82-.604-3.144 24.511-40.605c-5.022 16.197-13.233 31.021-23.907 43.749zm1.034-97.961-41.021 6.914-13.984-21.334 35.339-35.339 19.667 10.576v39.183zm-53.575 15.124-19.374 29.557c-5.294-8.197-11.237-16.026-17.775-23.383l24.884-24.885zm-47.55-4.639c-8.242-7.923-17.156-15.06-26.574-21.336l10.588-16.153h35.923l6.95 10.603zm-96.085 84.333-.613 3.19c-10.759-12.855-18.882-27.716-23.854-43.724zm12.501-8.316-25.372-42.032 8.997-29.646 42.918 7.158 18.033 27.511-37.982 37.982zm52.976-24.195 1.422 2.169-20.174 27.075-9.142-1.349zm14.334 9.945h36.449l14.127 19.367c.942 2.813 1.803 5.647 2.59 8.497l-35.192 28.463-37.404-30.253zm25.475 69.553 31.311-25.324c.052.31.109.62.159.931 1.054 6.575 1.68 13.174 1.902 19.774-10.576 3.544-21.77 5.745-33.372 6.414zm78.471-11.582c-12.279 24.819-25.781 48.9-40.475 72.186 6.377-17.935 9.871-36.364 10.401-54.886 10.763-4.556 20.851-10.388 30.074-17.3zm40.185-92.236h-1.791l-9.942-32.758v-44.917c8.779 17.388 13.489 36.748 13.489 56.718.001 7.138-.607 14.137-1.756 20.957zm-29.807-104.338c3.636 4.123 6.983 8.456 10.029 12.97l-.619.573-14.927-8.027zm-60.33 39.117-3.999-6.101 28.578-26.726 5.364 2.885zm-8.942-79.687h-54.032c8.694-1.856 17.711-2.842 26.956-2.842 9.219 0 18.261.96 27.076 2.842zm-201.552 71.258c19.991-12.237 40.517-23.589 61.479-34.014-6.69 8.562-12.416 17.9-17.012 27.856-14.932.139-29.825 2.204-44.467 6.158zm-122.531 208.619 13.337-13.179c19.76-19.76 40.107-39.065 60.862-57.768 27.902 13.06 53.891 30.814 76.822 52.761l-72.671 72.671c-23.025-22.081-49.483-40.585-78.35-54.485zm156.596 130.13-13.683 13.811c-13.707-29.001-32.047-55.615-53.991-78.813l72.662-72.663c21.81 23.114 39.422 49.275 52.292 77.346-18.547 20.561-37.685 40.724-57.28 60.319zm74.89-57.49c13.732-15.408 27.133-31.025 40.129-46.792 2.635-3.196 2.18-7.923-1.017-10.558-3.196-2.634-7.923-2.179-10.558 1.017-11.47 13.915-23.259 27.712-35.314 41.353-13.323-27.443-30.99-53.04-52.532-75.805l30.913-30.913c7.557 6.543 15.857 12.362 24.84 17.29 1.145.628 2.381.926 3.601.926 2.649 0 5.218-1.407 6.582-3.894 1.992-3.631.664-8.19-2.968-10.183-7.719-4.235-14.882-9.198-21.427-14.768l9.853-9.853 22.57 3.329 43.347 35.061v1.788c-8.896-.513-17.704-1.927-26.273-4.246-3.996-1.081-8.116 1.282-9.198 5.281-1.082 3.998 1.281 8.117 5.28 9.199 12.249 3.315 24.931 4.996 37.692 4.996 14.109 0 27.742-2.049 40.625-5.845-1.727 26.176-9.924 52.098-24.317 76.4l-30.632 51.719c-.928 1.567-1.219 3.335-.952 5.003-9.703 11.684-19.753 23.107-30.143 34.26-3.298-25.718-10.092-50.843-20.101-74.765z"/></svg>