<svg id="Capa_1" enable-background="new 0 0 512.143 512.143" height="512" viewBox="0 0 512.143 512.143" width="512" xmlns="http://www.w3.org/2000/svg"><g><path d="m461.089 42.5h-452.486c-4.143 0-7.5 3.358-7.5 7.5s3.357 7.5 7.5 7.5h42.788v42.826h-43.327c-4.143 0-7.5 3.358-7.5 7.5s3.357 7.5 7.5 7.5h43.326v52.698h-43.326c-4.143 0-7.5 3.358-7.5 7.5s3.357 7.5 7.5 7.5h43.326v52.699h-43.326c-4.143 0-7.5 3.358-7.5 7.5s3.357 7.5 7.5 7.5h43.326v52.698h-43.326c-4.143 0-7.5 3.358-7.5 7.5s3.357 7.5 7.5 7.5h43.326v52.699h-43.326c-4.143 0-7.5 3.358-7.5 7.5s3.357 7.5 7.5 7.5h43.326v52.698h-43.326c-4.143 0-7.5 3.358-7.5 7.5s3.357 7.5 7.5 7.5h43.326v50.326c0 4.142 3.357 7.5 7.5 7.5s7.5-3.358 7.5-7.5v-50.326h52.698v50.326c0 4.142 3.357 7.5 7.5 7.5s7.5-3.358 7.5-7.5v-50.326h52.698v50.326c0 4.142 3.357 7.5 7.5 7.5s7.5-3.358 7.5-7.5v-50.326h52.699v50.326c0 4.142 3.357 7.5 7.5 7.5s7.5-3.358 7.5-7.5v-50.326h52.698v50.326c0 4.142 3.357 7.5 7.5 7.5s7.5-3.358 7.5-7.5v-50.326h52.698v50.326c0 4.142 3.357 7.5 7.5 7.5s7.5-3.358 7.5-7.5v-50.326h50.261v50.326c0 4.142 3.357 7.5 7.5 7.5s7.5-3.358 7.5-7.5v-452.59c.002-4.992-4.06-9.054-9.053-9.054zm-147.025 356.275 10.632-37.981 40.044-1.652c-13.25 17.092-30.65 30.809-50.676 39.633zm-52.376 10.999c-12.143 0-23.902-1.675-35.062-4.796l-13.897-49.643 19.241-22.712h59.437l19.24 22.712-13.896 49.643c-11.161 3.122-22.919 4.796-35.063 4.796zm-103.051-50.632 40.043 1.652 10.632 37.98c-20.026-8.823-37.425-22.54-50.675-39.632zm216.409-15.438-52.75 2.176-18.988-22.415 17.969-55.303 28.477-7.713 41.73 30.838c-1.715 18.92-7.484 36.686-16.438 52.417zm-173.966 2.176-52.749-2.176c-8.954-15.731-14.723-33.497-16.437-52.417l41.729-30.838 28.477 7.713 17.969 55.302zm-50.538-134.453 12.702 38.042-31.731 23.45c1.111-22.45 7.93-43.419 19.029-61.492zm83.401 106.197-17.148-52.774 10.046-7.298c3.352-2.435 4.094-7.125 1.659-10.476-2.436-3.351-7.124-4.093-10.476-1.66l-11.55 8.392-28.55-7.733-16.597-49.709c13.644-16.455 31.251-29.507 51.341-37.691l42.607 30.957v28.72l-11.332 8.233c-3.352 2.435-4.094 7.125-1.659 10.476 2.436 3.351 7.126 4.094 10.476 1.66l8.928-6.486 44.893 32.616-17.147 52.774h-55.491zm221.201-81.902h-50.261v-52.699h50.261zm-63.28 37.196-31.732-23.45 12.702-38.042c11.1 18.073 17.919 39.043 19.03 61.492zm-1.981-61.902c-5.413-10.102-11.986-19.49-19.539-27.993h19.539zm-27.835-14.652-16.597 49.71-28.55 7.733-46.625-33.875v-30.302l41.823-30.386c19.512 8.214 36.62 21.046 49.949 37.12zm-100.36-47.267c11.405 0 22.469 1.477 33.019 4.242l-31.931 23.2-32.493-23.607c10.063-2.5 20.581-3.835 31.405-3.835zm7.798-14.79v-18.982h52.698v31.976c-16.194-7.444-33.981-11.999-52.698-12.994zm-15-.031c-18.705.917-36.492 5.386-52.699 12.747v-31.698h52.699zm149.687 116.446h50.97v52.698h-50.106c1.302-7.805 1.99-15.816 1.99-23.985 0-9.827-.986-19.427-2.854-28.713zm50.971-82.699h-50.261v-52.698h50.261zm-65.261 0h-34.84c-.043 0-.085.005-.128.006-5.573-4.671-11.496-8.938-17.73-12.743v-39.961h52.698zm-52.698-67.698v-42.825h52.698v42.826h-52.698zm-15 0h-52.698v-42.825h52.698zm-67.699 0h-52.699v-42.825h52.699zm-67.699 0h-52.698v-42.825h52.698zm0 15v39.603c-6.467 3.905-12.603 8.302-18.364 13.134-.226-.021-.453-.039-.685-.039h-33.649v-52.698zm-33.754 67.698c-7.277 8.191-13.648 17.203-18.944 26.885v-26.885zm-4.027 188.096h-14.917v-22.156c4.296 7.852 9.298 15.264 14.917 22.156zm240.877-23.264v23.264h-15.511c5.88-7.214 11.083-15.001 15.511-23.264zm15-29.435h50.261v52.699h-50.261zm50.261-218.095h-50.261v-42.825h50.261zm-388.753-42.825h52.698v42.826h-52.698zm0 57.825h52.698v52.698h-52.698zm0 67.698h52.698v52.699h-52.698zm0 67.699h52.813c-1.868 9.285-2.854 18.886-2.854 28.713 0 8.169.688 16.179 1.99 23.985h-51.949zm0 67.698h52.698v52.699h-52.698zm0 120.397v-52.698h52.698v52.698zm67.698 0v-52.698h29.011c7.253 6.708 15.186 12.69 23.687 17.824v34.875h-52.698zm67.698 0v-26.969c16.207 7.361 33.994 11.83 52.699 12.747v14.222zm67.699 0v-14.253c18.717-.994 36.503-5.55 52.698-12.994v27.247zm67.699 0v-35.233c8.278-5.052 16.008-10.914 23.093-17.466h29.606v52.698h-52.699zm67.698 0v-52.698h50.261v52.698z"/><path d="m468.358.5h-341.189c-4.143 0-7.5 3.358-7.5 7.5s3.357 7.5 7.5 7.5h341.189c15.872 0 28.784 12.913 28.784 28.785v367.128c0 4.142 3.357 7.5 7.5 7.5s7.5-3.358 7.5-7.5v-367.129c.001-24.143-19.641-43.784-43.784-43.784z"/><path d="m504.643 435.875c-4.143 0-7.5 3.358-7.5 7.5v60.769c0 4.142 3.357 7.5 7.5 7.5s7.5-3.358 7.5-7.5v-60.769c0-4.143-3.358-7.5-7.5-7.5z"/><path d="m7.5 15.5h87.707c4.143 0 7.5-3.358 7.5-7.5s-3.357-7.5-7.5-7.5h-87.707c-4.143 0-7.5 3.357-7.5 7.5s3.357 7.5 7.5 7.5z"/></g></svg>