<svg id="Capa_1" enable-background="new 0 0 513.514 513.514" height="512" viewBox="0 0 513.514 513.514" width="512" xmlns="http://www.w3.org/2000/svg"><g><path d="m417.344 245.345c2.193-2.487 3.213-5.8 2.798-9.089-10.242-81.252-79.772-142.523-161.732-142.523s-151.49 61.271-161.732 142.523c-.415 3.289.605 6.602 2.798 9.089 2.192 2.486 5.35 3.912 8.663 3.912h42.08c-.193 2.648-.292 5.313-.292 7.992 0 2.355.084 4.69.233 7.008h-42.021c-3.313 0-6.471 1.426-8.663 3.912-2.193 2.487-3.213 5.8-2.798 9.089 10.242 81.252 79.772 142.523 161.732 142.523s151.49-61.271 161.733-142.523c.415-3.289-.605-6.602-2.798-9.089-2.192-2.486-5.35-3.912-8.663-3.912h-42.022c.149-2.318.233-4.653.233-7.008 0-2.688-.102-5.353-.295-7.992h42.084c3.313 0 6.47-1.426 8.662-3.912zm-206.633 73.453 6.217 22.209c-11.393-5.665-21.473-13.586-29.653-23.176zm23.635 28.788-9.587-34.246 12.807-15.119h41.686l12.807 15.119-9.587 34.246c-7.681 2.048-15.746 3.146-24.064 3.146s-16.38-1.098-24.062-3.146zm71.763-28.788 23.436-.968c-8.18 9.591-18.26 17.511-29.653 23.177zm34.146-16.421-36.546 1.508-12.556-14.822 12.483-38.42 18.878-5.113 28.886 21.346c-1.312 12.764-5.206 24.773-11.145 35.501zm-7.36-67.828 7.44-22.284c5.993 10.871 9.884 23.055 11.125 36.002zm-14.68-3.395-18.953 5.133-32.555-23.653v-20.156l28.888-20.988c13.224 5.756 24.866 14.483 34.081 25.334zm-59.008-51.768-19.016-13.816c5.984-1.187 12.091-1.803 18.22-1.803 6.678 0 13.193.709 19.478 2.047zm-.797 45.761 30.531 22.183-11.662 35.892h-37.739l-11.662-35.892zm-45.226 25.495 12.483 38.42-12.556 14.822-36.546-1.508c-5.939-10.728-9.833-22.737-11.145-35.501l28.886-21.346zm-36.707-38.403 7.449 22.31-18.572 13.724c1.213-12.737 5.022-24.956 11.123-36.034zm228.243 67.018c-10.983 71.835-73.199 125.524-146.31 125.524-73.11 0-135.327-53.688-146.31-125.524h40.073c10.199 49.302 53.958 86.475 106.237 86.475s96.038-37.173 106.237-86.475zm-40.287-45c-10.576-48.81-54.092-85.49-106.023-85.49-17.796 0-35.453 4.41-51.063 12.754-3.653 1.952-5.032 6.496-3.079 10.149 1.952 3.652 6.497 5.032 10.149 3.079 2.538-1.356 5.139-2.591 7.792-3.703l29.498 21.432v18.999l-34.149 24.81-18.953-5.133-11.474-34.364c1.188-1.398 2.405-2.775 3.681-4.111 2.862-2.995 2.754-7.742-.241-10.604-2.994-2.859-7.742-2.753-10.604.241-13.977 14.628-23.421 32.556-27.599 51.941h-40.268c10.983-71.835 73.2-125.524 146.31-125.524 73.111 0 135.327 53.688 146.31 125.524z"/><path d="m435.85 242.359c.313 3.896 3.567 6.898 7.476 6.898h62.688c4.142 0 7.5-3.357 7.5-7.5s-3.358-7.5-7.5-7.5h-55.89c-2.915-25.096-10.642-49.019-23.012-71.205-2.017-3.618-6.585-4.916-10.203-2.898s-4.916 6.585-2.898 10.203c12.445 22.32 19.792 46.545 21.839 72.002z"/><path d="m506.014 264.257h-62.688c-3.909 0-7.163 3.003-7.476 6.899-3.569 44.394-23.63 85.627-56.488 116.105-33.035 30.644-75.99 47.52-120.952 47.52-40.328 0-79.864-13.925-111.325-39.21-3.228-2.595-7.949-2.081-10.544 1.147-2.595 3.229-2.081 7.949 1.148 10.544 34.115 27.419 76.988 42.519 120.722 42.519 48.757 0 95.335-18.298 131.153-51.522 33.913-31.457 55.251-73.492 60.559-119.002h55.892c4.142 0 7.5-3.357 7.5-7.5s-3.359-7.5-7.501-7.5z"/><path d="m7.5 249.257h65.994c3.909 0 7.163-3.003 7.476-6.899 3.569-44.394 23.63-85.627 56.488-116.105 33.035-30.644 75.99-47.52 120.952-47.52 53.9 0 104.346 24.13 138.403 66.201 2.607 3.22 7.33 3.716 10.548 1.11 3.22-2.605 3.717-7.328 1.111-10.548-36.919-45.606-91.614-71.763-150.062-71.763-48.757 0-95.335 18.298-131.153 51.522-33.913 31.457-55.251 73.492-60.559 119.002h-59.198c-4.142 0-7.5 3.357-7.5 7.5s3.358 7.5 7.5 7.5z"/><path d="m80.97 271.156c-.313-3.896-3.567-6.899-7.476-6.899h-65.994c-4.142 0-7.5 3.357-7.5 7.5s3.358 7.5 7.5 7.5h59.196c4.533 39.061 20.684 75.245 46.953 105.031 1.482 1.681 3.55 2.539 5.628 2.539 1.762 0 3.532-.617 4.958-1.875 3.106-2.739 3.404-7.479.664-10.586-25.649-29.082-40.839-64.772-43.929-103.21z"/></g></svg>