<svg id="Capa_1" enable-background="new 0 0 512.006 512.006" height="512" viewBox="0 0 512.006 512.006" width="512" xmlns="http://www.w3.org/2000/svg"><g><path d="m115.582 140.347h41.964c-5.799 13.27-9.025 27.912-9.025 43.295 0 5.252.386 10.56 1.146 15.775.598 4.099 4.399 6.933 8.503 6.34 4.099-.598 6.937-4.405 6.339-8.504-.193-1.325-.349-2.658-.486-3.993l28.875-21.338 18.878 5.114 12.484 38.42-12.556 14.821-36.581-1.509c-.592-1.075-1.17-2.161-1.724-3.265-1.858-3.702-6.364-5.2-10.067-3.34-3.702 1.857-5.197 6.364-3.34 10.066 18.538 36.945 55.71 59.896 97.011 59.896 59.817 0 108.482-48.665 108.482-108.483 0-15.383-3.226-30.025-9.025-43.295h41.964c14.714 0 26.685-11.971 26.685-26.685v-98.356c0-4.143-3.358-7.5-7.5-7.5s-7.5 3.357-7.5 7.5v98.356c0 6.443-5.242 11.685-11.685 11.685h-49.97c-3.413-5.336-7.283-10.353-11.549-15h50.704c4.142 0 7.5-3.357 7.5-7.5v-87.541c0-4.143-3.358-7.5-7.5-7.5s-7.5 3.357-7.5 7.5v80.041h-60.148c-17.764-12.703-39.503-20.188-62.958-20.188s-45.194 7.484-62.958 20.188h-60.148v-80.041c0-4.143-3.358-7.5-7.5-7.5s-7.5 3.357-7.5 7.5v87.541c0 4.143 3.358 7.5 7.5 7.5h50.704c-4.266 4.647-8.136 9.664-11.549 15h-49.97c-6.443 0-11.685-5.241-11.685-11.685v-98.356c0-4.143-3.358-7.5-7.5-7.5s-7.5 3.357-7.5 7.5v98.356c0 14.715 11.971 26.685 26.685 26.685zm105.234-42.897 29.484 21.422v18.998l-34.149 24.811-18.953-5.134-11.462-34.329c9.447-11.125 21.442-20.021 35.08-25.768zm107.454 25.768-11.462 34.329-18.952 5.134-32.556-23.654v-20.155l28.888-20.989c13.225 5.756 24.867 14.482 34.082 25.335zm21.782 51.442-18.564-13.718 7.44-22.284c5.993 10.872 9.884 23.055 11.124 36.002zm-11.204 54.11-36.546 1.508-12.556-14.821 12.484-38.42 18.878-5.114 28.885 21.345c-1.312 12.765-5.206 24.774-11.145 35.502zm-100.714-19.155-11.662-35.893 30.532-22.183 30.531 22.183-11.662 35.893zm-74.18-34.955c1.24-12.947 5.131-25.13 11.124-36.001l7.44 22.284zm21.8 69.559 23.55.972 6.248 22.319c-11.357-5.599-21.504-13.493-29.798-23.291zm47.194 29.791-9.595-34.277 12.808-15.118h41.686l12.808 15.118-9.587 34.247c-7.681 2.048-15.746 3.146-24.064 3.146-8.265 0-16.332-1.08-24.056-3.116zm65.537-6.609 6.217-22.21 23.436-.967c-8.18 9.591-18.26 17.512-29.653 23.177zm-22.004-175.194-18.681 13.573-19.034-13.829c5.901-1.172 11.997-1.792 18.237-1.792 6.679.001 13.193.71 19.478 2.048z"/><path d="m475.454 330.012h29.052c4.142 0 7.5-3.357 7.5-7.5s-3.358-7.5-7.5-7.5h-29.052c-4.142 0-7.5 3.357-7.5 7.5s3.358 7.5 7.5 7.5z"/><path d="m504.506 345.012h-89.032c-3.871 0-7.105 2.945-7.467 6.799-3.51 37.379-20.792 72.023-48.662 97.553-28.045 25.688-64.393 39.836-102.347 39.836-37.225 0-73.054-13.683-100.886-38.528-3.09-2.759-7.831-2.49-10.59.601-2.758 3.09-2.489 7.831.601 10.589 30.584 27.303 69.96 42.339 110.875 42.339 41.715 0 81.66-15.547 112.479-43.775 28.923-26.493 47.468-61.933 52.685-100.412h82.345c4.142 0 7.5-3.357 7.5-7.5s-3.359-7.502-7.501-7.502z"/><path d="m380.354 345.012h-246.712c-3.461 0-6.739 1.509-8.991 4.14-2.246 2.623-3.23 6.081-2.699 9.488 4.964 31.845 21.218 61.07 45.77 82.295 24.813 21.451 56.52 33.265 89.277 33.265s64.464-11.813 89.277-33.265c24.551-21.225 40.806-50.45 45.77-82.295 0 0 0 0 0-.001.531-3.406-.453-6.864-2.699-9.487-2.254-2.631-5.531-4.14-8.993-4.14zm-43.888 84.576c-22.089 19.096-50.312 29.612-79.468 29.612s-57.378-10.517-79.468-29.612c-20.916-18.081-35.068-42.671-40.125-69.575h239.186c-5.057 26.904-19.209 51.494-40.125 69.575z"/><path d="m105.989 351.811c-.362-3.854-3.597-6.799-7.467-6.799h-91.022c-4.142 0-7.5 3.357-7.5 7.5s3.358 7.5 7.5 7.5h84.335c3.793 27.924 14.67 54.486 31.67 77.196 1.473 1.969 3.728 3.007 6.01 3.006 1.563 0 3.141-.487 4.489-1.496 3.316-2.481 3.992-7.183 1.51-10.498-16.719-22.335-26.929-48.757-29.525-76.409z"/><path d="m7.5 330.012h435.992c4.142 0 7.5-3.357 7.5-7.5s-3.358-7.5-7.5-7.5h-435.992c-4.142 0-7.5 3.357-7.5 7.5s3.358 7.5 7.5 7.5z"/></g></svg>