<svg id="Capa_1" enable-background="new 0 0 512.446 512.446" height="512" viewBox="0 0 512.446 512.446" width="512" xmlns="http://www.w3.org/2000/svg"><g><path d="m474.362 419.46c-4.143 0-7.5 3.357-7.5 7.5v77.986c0 4.143 3.357 7.5 7.5 7.5s7.5-3.357 7.5-7.5v-77.986c0-4.143-3.358-7.5-7.5-7.5z"/><path d="m474.362 30h-34.48c-4.143 0-7.5 3.357-7.5 7.5s3.357 7.5 7.5 7.5h26.98v117.666c-15.273-.896-30.044-4.536-44.01-10.855-.22-.099-.442-.185-.665-.262-12.283-22.112-32.067-39.504-55.893-48.717-.037-1.181-.338-2.37-.964-3.468-9.463-16.608-14.98-35.263-16.127-54.364h58.717c4.143 0 7.5-3.357 7.5-7.5s-3.357-7.5-7.5-7.5h-66.442c-4.143 0-7.5 3.357-7.5 7.5 0 20.774 4.649 41.298 13.486 59.963-5.598-1.057-11.345-1.689-17.208-1.847-7.481-18.479-11.278-38.03-11.278-58.116 0-4.143-3.357-7.5-7.5-7.5h-273.444-.01-.01-29.93c-4.142 0-7.5 3.357-7.5 7.5s3.358 7.5 7.5 7.5h29.93 266.125c.762 17.639 4.229 34.856 10.323 51.347-14.081 1.676-27.756 6.085-40.125 13.015-3.613 2.024-4.901 6.596-2.877 10.209 2.025 3.615 6.596 4.9 10.209 2.877 3.055-1.711 6.207-3.234 9.429-4.585l29.486 21.423v18.998l-34.149 24.811-18.951-5.134-11.474-34.364c.799-.941 1.607-1.875 2.446-2.788 2.803-3.05 2.604-7.794-.445-10.598-3.05-2.803-7.794-2.604-10.597.445-18.448 20.065-28.608 46.133-28.608 73.399 0 59.818 48.665 108.483 108.482 108.483 59.818 0 108.483-48.665 108.483-108.483 0-.202-.007-.403-.008-.605 10.185 2.369 20.594 3.811 31.099 4.269v186.332c0 4.143 3.357 7.5 7.5 7.5s7.5-3.357 7.5-7.5v-193.666c0-4.143-3.357-7.5-7.5-7.5-13.502 0-26.889-1.758-39.825-5.189-.875-5.761-2.211-11.373-3.958-16.801 14.064 4.64 28.732 6.99 43.782 6.99 4.143 0 7.5-3.357 7.5-7.5v-132.885c.001-4.143-3.357-7.5-7.499-7.5zm-65.23 219.184-36.547 1.508-12.556-14.821 12.484-38.42 18.879-5.114 28.884 21.346c-1.311 12.765-5.205 24.774-11.144 35.501zm-7.36-67.828 7.44-22.284c5.993 10.872 9.885 23.055 11.125 36.003zm-3.219-37.725-11.462 34.33-18.952 5.134-32.555-23.653v-20.156l28.889-20.989c13.223 5.756 24.865 14.482 34.08 25.334zm-71.266-33.057c6.678 0 13.193.71 19.479 2.047l-18.682 13.573-19.024-13.822c5.981-1.186 12.088-1.798 18.227-1.798zm0 61.38 30.532 22.183-11.663 35.893h-37.738l-11.663-35.893zm-45.299 78.738-36.546-1.508c-5.938-10.728-9.833-22.737-11.145-35.501l28.885-21.345 18.877 5.114 12.484 38.42zm-29.186-69.336-18.564 13.718c1.218-12.709 5.017-24.943 11.116-36.026zm3.35 83.282 23.436.967 6.217 22.209c-11.394-5.665-21.473-13.585-29.653-23.176zm47.071 29.756-9.586-34.248 12.807-15.117h41.686l12.807 15.117-9.587 34.248c-7.681 2.048-15.746 3.146-24.063 3.146s-16.383-1.098-24.064-3.146zm65.546-6.579 6.217-22.21 23.436-.967c-8.18 9.591-18.26 17.512-29.653 23.177z"/><path d="m489.362 0h-481.278c-4.142 0-7.5 3.357-7.5 7.5s3.358 7.5 7.5 7.5h481.277c4.136 0 7.5 3.364 7.5 7.5v482.446c0 4.143 3.357 7.5 7.5 7.5s7.5-3.357 7.5-7.5v-482.446c.001-12.406-10.093-22.5-22.499-22.5z"/></g></svg>