<svg id="Capa_1" enable-background="new 0 0 510.039 510.039" height="512" viewBox="0 0 510.039 510.039" width="512" xmlns="http://www.w3.org/2000/svg"><g><path d="m76.35 109.652v17.48c0 31.956 17.467 61.195 45.585 76.308 1.108.596 2.33.894 3.551.894s2.442-.298 3.551-.894c28.118-15.113 45.585-44.353 45.585-76.308v-17.48c0-2.896-1.668-5.533-4.284-6.775l-40.226-19.093c-2.919-1.382-6.345-1.38-9.258.004l-40.22 19.089c-2.616 1.241-4.284 3.879-4.284 6.775zm49.135 78.535c-16.069-9.852-27.413-25.509-31.943-43.444h63.886c-4.53 17.935-15.874 33.592-31.943 43.444zm-34.135-73.793 34.137-16.201 34.135 16.201v12.738c0 .873-.02 1.743-.051 2.61h-68.171c-.031-.868-.051-1.737-.051-2.61v-12.738z"/><path d="m380.922 83.788-40.22 19.089c-2.616 1.241-4.284 3.879-4.284 6.775v17.48c0 31.956 17.467 61.195 45.585 76.308 1.108.596 2.33.894 3.551.894s2.442-.298 3.551-.894c28.118-15.113 45.585-44.353 45.585-76.308v-17.48c0-2.896-1.668-5.533-4.284-6.775l-40.226-19.093c-2.92-1.382-6.345-1.38-9.258.004zm-29.504 43.345v-12.738l26.636-12.641v81.146c-16.683-13.441-26.636-33.829-26.636-55.767zm68.271 0c0 21.938-9.953 42.326-26.636 55.767v-81.147l26.636 12.642z"/><path d="m496.703 167.508h-39.234c4.749-12.869 7.221-26.525 7.221-40.375v-31.407c0-5.944-3.47-11.432-8.841-13.981l-17.504-8.308c-3.739-1.776-8.215-.183-9.991 3.56s-.183 8.216 3.56 9.991l17.503 8.308c.166.079.273.248.273.431v31.406c0 38.619-21.424 73.405-55.913 90.784-5.148 2.596-11.296 2.594-16.446 0-34.488-17.379-55.912-52.165-55.912-90.784v-31.407c0-.183.107-.352.272-.431l52.799-25.06c7.031-3.336 15.097-3.336 22.13 0l6.326 3.002c3.74 1.775 8.216.183 9.99-3.561 1.776-3.742.182-8.215-3.561-9.99l-6.325-3.002c-11.117-5.276-23.871-5.277-34.992 0l-52.8 25.06c-5.37 2.55-8.84 8.037-8.84 13.981v31.406c0 13.85 2.472 27.506 7.221 40.375h-116.239c4.749-12.869 7.221-26.525 7.221-40.375v-31.405c0-5.944-3.47-11.432-8.841-13.981l-52.799-25.06c-11.118-5.276-23.871-5.277-34.993 0l-10.393 4.934c-3.741 1.776-5.335 6.25-3.559 9.992 1.775 3.741 6.249 5.336 9.992 3.559l10.392-4.934c7.033-3.338 15.098-3.336 22.129 0l52.798 25.06c.166.079.273.248.273.431v31.406c0 38.619-21.424 73.405-55.913 90.784-5.148 2.596-11.296 2.594-16.446 0-34.488-17.379-55.912-52.165-55.912-90.784v-31.407c0-.183.107-.352.272-.431l13.528-6.421c3.742-1.776 5.336-6.249 3.56-9.991-1.776-3.743-6.252-5.337-9.991-3.56l-13.529 6.421c-5.37 2.55-8.84 8.037-8.84 13.981v31.406c0 13.85 2.472 27.506 7.221 40.375h-40.234c-7.354.002-13.336 5.985-13.336 13.34v17.887c0 3.03 1.045 5.999 2.941 8.357l31.824 39.584v29.776c0 5.231 3.034 9.755 7.428 11.939v68.763c0 4.143 3.357 7.5 7.5 7.5s7.5-3.357 7.5-7.5v-67.365h395.55v144.256c0 4.56-3.709 8.269-8.269 8.269h-379.012c-4.56 0-8.269-3.709-8.269-8.269v-44.929c0-4.143-3.357-7.5-7.5-7.5s-7.5 3.357-7.5 7.5v44.929c0 12.83 10.438 23.269 23.269 23.269h379.013c12.83 0 23.269-10.438 23.269-23.269v-145.605c4.449-2.164 7.53-6.717 7.53-11.988v-29.776l31.823-39.583c1.897-2.359 2.942-5.328 2.942-8.358v-17.887c0-7.355-5.982-13.338-13.336-13.338zm-481.703 30.64v-15.641h45.347c1.057 1.959 2.158 3.898 3.33 5.801 11.336 18.406 27.531 33.276 46.834 43.003 4.689 2.363 9.831 3.545 14.975 3.545 5.143-.001 10.286-1.182 14.974-3.545 19.304-9.727 35.499-24.597 46.835-43.003 1.172-1.903 2.272-3.842 3.33-5.801h56.896v92.279h-197.755v-28.699c0-3.026-1.044-5.993-2.942-8.356zm480.039 0-31.825 39.586c-1.896 2.36-2.94 5.327-2.94 8.354v28.699h-197.754v-92.279h57.896c1.057 1.959 2.158 3.898 3.33 5.801 11.336 18.406 27.531 33.276 46.834 43.003 4.689 2.363 9.831 3.545 14.975 3.545 5.143-.001 10.286-1.182 14.974-3.545 19.304-9.727 35.499-24.597 46.835-43.003 1.172-1.903 2.272-3.842 3.33-5.801h44.347v15.64z"/><path d="m272.193 374.251c4.143 0 7.5-3.357 7.5-7.5s-3.357-7.5-7.5-7.5h-34.092c-4.143 0-7.5 3.357-7.5 7.5s3.357 7.5 7.5 7.5z"/><path d="m170.357 417.956c4.143 0 7.5-3.357 7.5-7.5v-86.569c0-4.143-3.357-7.5-7.5-7.5h-18.503c-4.143 0-7.5 3.357-7.5 7.5s3.357 7.5 7.5 7.5h11.003v79.069c0 4.142 3.358 7.5 7.5 7.5z"/><path d="m362.213 349.814c.058-.245.102-.494.134-.744l.428-3.349c.04-.315.061-.633.061-.95 0-16.35-13.302-29.651-29.651-29.651-14.138 0-26.374 10.057-29.095 23.912-.798 4.064 1.85 8.007 5.914 8.805 4.066.798 8.007-1.85 8.805-5.914 1.343-6.839 7.389-11.803 14.376-11.803 7.936 0 14.417 6.342 14.646 14.223l-.311 2.427c-1.132 4.584-3.809 9.912-7.96 15.843-.022.033-.046.065-.067.099l-28.211 41.707c-1.86 2.75-2.049 6.279-.492 9.211 1.557 2.933 4.586 4.754 7.905 4.754h40.491c4.143 0 7.5-3.357 7.5-7.5s-3.357-7.5-7.5-7.5h-29.096l21.794-32.219c5.34-7.643 8.816-14.825 10.329-21.351z"/></g></svg>