<svg id="Capa_1" enable-background="new 0 0 512.006 512.006" height="512" viewBox="0 0 512.006 512.006" width="512" xmlns="http://www.w3.org/2000/svg"><g><path d="m497.05 281.543c-1.811-3.725-6.299-5.278-10.024-3.466-3.726 1.811-5.277 6.299-3.466 10.024l10.723 22.058-46.273 24.135v-46.086c0-4.143-3.358-7.5-7.5-7.5s-7.5 3.357-7.5 7.5v109.123c0 4.143 3.358 7.5 7.5 7.5s7.5-3.357 7.5-7.5v-46.12l56.765-29.606c5.255-2.743 7.342-9.067 4.751-14.399z"/><path d="m163.471 303.468h-85.843v-59.724c0-4.143-3.358-7.5-7.5-7.5s-7.5 3.357-7.5 7.5v61.715c0 7.173 5.836 13.009 13.009 13.009h87.834c4.142 0 7.5-3.357 7.5-7.5s-3.358-7.5-7.5-7.5z"/><path d="m223.616 27.863 40.185 14.798c3.83 1.41 6.922 4.209 8.706 7.879l35.798 73.643-46.273 24.135v-46.086c0-4.143-3.358-7.5-7.5-7.5s-7.5 3.357-7.5 7.5v83.609c0 4.143 3.358 7.5 7.5 7.5s7.5-3.357 7.5-7.5v-20.607l56.762-29.606c5.258-2.74 7.347-9.065 4.754-14.399l-37.551-77.248c-3.487-7.172-9.528-12.64-17.012-15.396l-55.837-20.562c-.83-.306-1.708-.462-2.592-.462h-96.452c-.884 0-1.762.156-2.592.462l-55.838 20.562c-7.483 2.757-13.525 8.225-17.012 15.396l-37.551 77.249c-2.592 5.333-.504 11.658 4.753 14.397l56.764 29.607v46.546c0 4.143 3.358 7.5 7.5 7.5s7.5-3.357 7.5-7.5v-109.548c0-4.143-3.358-7.5-7.5-7.5s-7.5 3.357-7.5 7.5v46.086l-46.273-24.135 35.798-73.643c1.784-3.67 4.876-6.469 8.706-7.879l40.185-14.798c.238.247.488.485.765.702l43.051 33.802c5.143 4.038 11.307 6.057 17.47 6.057 6.164 0 12.327-2.019 17.469-6.057l43.052-33.802c.277-.217.527-.455.765-.702zm-53.08 22.706c-4.831 3.792-11.58 3.795-16.413-.001l-35.671-28.007h87.755z"/><path d="m455.21 103.874h-75.933c-4.142 0-7.5 3.357-7.5 7.5s3.358 7.5 7.5 7.5h68.433v17.187c0 3.711 2.185 7.098 5.566 8.626 1.246.563 2.573.838 3.893.838 2.262 0 4.5-.808 6.26-2.355l43.987-38.687c2.917-2.566 4.59-6.267 4.59-10.152s-1.674-7.585-4.591-10.15l-43.987-38.687c-2.787-2.45-6.772-3.045-10.153-1.516-3.38 1.53-5.565 4.916-5.565 8.626v17.187h-68.433c-4.142 0-7.5 3.357-7.5 7.5s3.358 7.5 7.5 7.5h75.933c4.142 0 7.5-3.357 7.5-7.5v-12.454l33.535 29.495-33.535 29.493v-12.451c0-4.143-3.358-7.5-7.5-7.5z"/><path d="m56.809 409.06h75.933c4.142 0 7.5-3.357 7.5-7.5s-3.358-7.5-7.5-7.5h-68.433v-17.187c0-3.712-2.186-7.098-5.567-8.627-3.381-1.526-7.367-.933-10.152 1.519l-43.986 38.685c-2.918 2.567-4.591 6.268-4.59 10.153 0 3.886 1.674 7.586 4.591 10.15l43.986 38.687c1.76 1.548 3.997 2.355 6.259 2.355 1.32 0 2.648-.275 3.894-.839 3.381-1.529 5.566-4.915 5.566-8.626v-17.187h68.433c4.142 0 7.5-3.357 7.5-7.5s-3.358-7.5-7.5-7.5h-75.934c-4.142 0-7.5 3.357-7.5 7.5v12.452l-33.535-29.495 33.535-29.493v12.451c0 4.144 3.358 7.502 7.5 7.502z"/><path d="m440.509 421.794c-4.142 0-7.5 3.357-7.5 7.5v60.15h-169.404v-201.235c0-4.143-3.358-7.5-7.5-7.5s-7.5 3.357-7.5 7.5v46.086l-46.273-24.135 35.798-73.642c1.785-3.671 4.876-6.469 8.706-7.879l40.181-14.797c.238.247.492.483.769.7l43.052 33.803c5.143 4.037 11.307 6.057 17.47 6.057s12.327-2.02 17.47-6.057l43.052-33.803c.277-.218.528-.455.766-.702l40.185 14.798c3.829 1.41 6.92 4.208 8.705 7.879l11.095 22.824c1.811 3.726 6.3 5.279 10.024 3.466 3.726-1.811 5.277-6.299 3.466-10.024l-11.095-22.824c-3.487-7.173-9.529-12.642-17.012-15.396l-55.839-20.563c-.83-.306-1.708-.462-2.592-.462h-96.452c-.884 0-1.762.156-2.592.462l-55.837 20.562c-7.483 2.755-13.525 8.224-17.013 15.396l-37.551 77.248c-2.591 5.331-.504 11.655 4.753 14.398l56.764 29.606v140.224c0 7.173 5.836 13.009 13.009 13.009h173.386c7.173 0 13.009-5.836 13.009-13.009v-62.142c0-4.141-3.358-7.498-7.5-7.498zm-83.995-185.248c-4.833 3.794-11.581 3.796-16.413 0l-35.671-28.008h87.755z"/></g></svg>