<svg id="Capa_1" enable-background="new 0 0 511.892 511.892" height="512" viewBox="0 0 511.892 511.892" width="512" xmlns="http://www.w3.org/2000/svg"><g><g><path d="m296.077 511.892h-80.263c-84.951 0-154.063-69.112-154.063-154.063v-73.605c0-4.143 3.358-7.5 7.5-7.5s7.5 3.357 7.5 7.5v73.605c0 76.68 62.383 139.063 139.063 139.063h80.263c76.68 0 139.063-62.384 139.063-139.063v-124.429c0-23.232-14.799-43.88-36.825-51.378-5.99-2.038-10.015-7.655-10.015-13.978v-96.264c0-30.843-24.65-56.311-54.95-56.773-15.054-.201-29.264 5.475-40.013 16.06-10.753 10.591-16.675 24.708-16.675 39.752v42.866c0 5.965-4.854 10.818-10.819 10.818-13.3 0-26.191 4.778-36.299 13.456-4.221 3.621-9.964 4.887-15.372 3.377-4.851-1.353-9.887-2.038-14.967-2.038-12.831 0-25.375 4.493-35.32 12.652-4.296 3.523-10.032 4.676-15.342 3.079-6.164-1.852-12.57-2.615-19.041-2.262-29.581 1.605-52.753 26.518-52.753 56.714v42.779c0 4.143-3.358 7.5-7.5 7.5s-7.5-3.357-7.5-7.5v-42.779c0-38.163 29.404-69.654 66.941-71.692 8.211-.438 16.339.523 24.169 2.875.52.154 1.084.04 1.512-.311 12.621-10.354 28.543-16.056 44.834-16.056 6.441 0 12.832.871 18.995 2.589.573.158 1.161.043 1.574-.311 11.763-10.098 26.502-16.035 41.888-16.949v-38.808c0-19.094 7.511-37.007 21.15-50.439 13.635-13.428 31.656-20.655 50.767-20.37 38.444.587 69.721 32.783 69.721 71.771v96.095c28.022 9.611 46.839 35.924 46.839 65.525v124.429c.002 84.951-69.111 154.063-154.062 154.063z"/></g><g><path d="m380.879 194.138c-2.592 0-5.124.259-7.577.741v-45.637c0-4.143-3.358-7.5-7.5-7.5s-7.5 3.357-7.5 7.5v52.067c-10.082 7.114-16.685 18.843-16.685 32.092v65.246c-28.075 1.801-52.232 20.447-60.945 47.535l-4.461 13.869c-1.269 3.943.9 8.168 4.843 9.437 3.944 1.27 8.168-.9 9.437-4.843l4.461-13.87c7.17-22.292 27.721-37.271 51.139-37.271h.124c5.736 0 10.402-4.666 10.402-10.402v-69.701c0-13.379 10.884-24.263 24.262-24.263s24.262 10.884 24.262 24.263v124.428c0 16.732-3.692 32.79-10.974 47.727-1.815 3.723-.268 8.213 3.455 10.027 1.058.517 2.178.761 3.281.761 2.778 0 5.448-1.551 6.747-4.216 8.288-17 12.49-35.269 12.49-54.299v-124.428c.001-21.65-17.612-39.263-39.261-39.263z"/><path d="m388.08 429.785c-3.091-2.758-7.831-2.486-10.589.604-20.691 23.197-50.365 36.502-81.414 36.502h-80.263c-60.138 0-109.063-48.926-109.063-109.063v-97.978c7.04 5.764 16.031 9.23 25.819 9.23 13.748 0 25.92-6.839 33.318-17.288 7.398 10.449 19.571 17.288 33.32 17.288 13.75 0 25.925-6.838 33.321-17.289 7.397 10.449 19.568 17.289 33.317 17.289 22.508 0 40.819-18.311 40.819-40.818v-157.444c0-14.236 11.582-25.818 25.819-25.818s25.819 11.582 25.819 25.818v46.462c0 4.143 3.358 7.5 7.5 7.5s7.5-3.357 7.5-7.5v-46.462c0-22.508-18.311-40.818-40.819-40.818s-40.819 18.311-40.819 40.818v77.914c-7.04-5.764-16.031-9.229-25.819-9.229-17.434 0-32.334 10.992-38.169 26.405-7.356-7.178-17.401-11.61-28.468-11.61-17.053 0-31.688 10.515-37.783 25.399-7.392-7.407-17.588-12.012-28.855-12.012-22.507 0-40.818 18.312-40.818 40.819v149.325c0 68.409 55.654 124.063 124.063 124.063h80.263c35.319 0 69.074-15.133 92.608-41.518 2.755-3.09 2.485-7.832-.607-10.589zm-148.054-249.464c0-14.236 11.583-25.818 25.819-25.818s25.819 11.582 25.819 25.818v47.941c0 14.236-11.583 25.818-25.819 25.818s-25.819-11.582-25.819-25.818zm-66.638 14.796c0-14.237 11.583-25.819 25.819-25.819s25.819 11.582 25.819 25.819v33.146c0 14.236-11.583 25.818-25.819 25.818s-25.819-11.582-25.819-25.818zm-66.637 13.386c0-14.237 11.583-25.819 25.819-25.819s25.818 11.582 25.818 25.819v19.759c0 14.236-11.582 25.818-25.818 25.818-14.236 0-25.818-11.582-25.818-25.818v-19.759z"/></g></g></svg>