<svg id="Capa_1" enable-background="new 0 0 512.191 512.191" height="512" viewBox="0 0 512.191 512.191" width="512" xmlns="http://www.w3.org/2000/svg"><g><path d="m266.469 36.022c-4.143 0-7.5 3.357-7.5 7.5v59.446c0 3.654 2.634 6.777 6.236 7.393.531.091.939.161 7.583.161 3.185 0 7.804-.017 14.557-.054 4.142-.023 7.48-3.399 7.458-7.542-.023-4.128-3.376-7.458-7.499-7.458-.015 0-.028 0-.043 0-4.56.025-9.443.044-13.292.049v-51.995c0-4.142-3.358-7.5-7.5-7.5z"/><path d="m310.273 43.522v59.496c0 4.143 3.357 7.5 7.5 7.5s7.5-3.357 7.5-7.5v-59.496c0-4.143-3.357-7.5-7.5-7.5s-7.5 3.358-7.5 7.5z"/><path d="m445.859 51.565c4.143 0 7.5-3.357 7.5-7.5s-3.357-7.5-7.5-7.5h-24.841c-4.143 0-7.5 3.357-7.5 7.5v58.953c0 4.143 3.357 7.5 7.5 7.5h24.841c4.143 0 7.5-3.357 7.5-7.5s-3.357-7.5-7.5-7.5h-17.341v-14.476h15.509c4.143 0 7.5-3.357 7.5-7.5s-3.357-7.5-7.5-7.5h-15.509v-14.477z"/><path d="m383.432 41.268-13.709 41.264-14.394-41.468c-1.357-3.913-5.633-5.988-9.544-4.626-3.913 1.357-5.984 5.631-4.626 9.544l20.359 58.656c1.253 3.524 4.596 5.881 8.332 5.881h.061c3.761-.026 7.101-2.436 8.328-6.047l19.427-58.476c1.307-3.931-.821-8.176-4.753-9.481-3.928-1.306-8.176.821-9.481 4.753z"/><path d="m483.711.058h-34.827c-4.143 0-7.5 3.357-7.5 7.5s3.357 7.5 7.5 7.5h34.827c7.434 0 13.48 6.047 13.48 13.48v89.465c0 7.433-6.047 13.479-13.48 13.479h-255.094c-7.434 0-13.48-6.047-13.48-13.479v-89.465c0-7.434 6.047-13.48 13.48-13.48h188.304c4.143 0 7.5-3.357 7.5-7.5s-3.357-7.5-7.5-7.5h-188.304c-15.704 0-28.48 12.776-28.48 28.48v55.239c-38.78 2.557-75.955 15.536-107.93 37.754-3.402 2.364-4.243 7.037-1.88 10.438 1.457 2.098 3.792 3.222 6.166 3.222 1.477 0 2.969-.436 4.272-1.342 14.303-9.938 29.727-17.881 45.896-23.72l3.827 7.374-31.827 41.486-66.458 36.036-5.541-5.172c8.538-13.259 18.636-25.483 30.228-36.527 2.999-2.857 3.114-7.604.258-10.604-2.858-3-7.605-3.114-10.604-.258-20.804 19.818-37.168 43.153-48.641 69.356-11.879 27.136-17.903 56.034-17.903 85.892 0 57.274 22.304 111.12 62.803 151.619s94.345 62.803 151.619 62.803c57.273 0 111.12-22.304 151.618-62.803 40.499-40.499 62.803-94.345 62.803-151.619 0-57.073-22.557-111.172-62.456-151.229h117.324c15.704 0 28.48-12.775 28.48-28.479v-89.466c0-15.704-12.776-28.48-28.48-28.48zm-113.402 274.853-18.827 3.2c-4.083.693-6.831 4.566-6.137 8.65.621 3.658 3.794 6.244 7.385 6.244.417 0 .84-.035 1.266-.107l18.541-3.151 15.29 50.801-40.677 67.949-56.394 8.388-33.186-45.87 45.112-69.397 19.799-3.365c4.083-.693 6.831-4.566 6.137-8.65-.693-4.083-4.556-6.829-8.65-6.137l-18.18 3.089-43.61-67.086 48.219-45.469 63.912 34.656zm-247.827-100.931 48.994 45.529-43.59 67.054-69.353-11.663v-66.243zm121.924 51.829 44.833 68.967-44.833 68.967h-59.134l-44.834-68.967 44.834-68.967zm-29.985 248.964-62.647-51.092 33.21-44.939h59.661l32.478 44.894zm-158.112-185.036 70.692 11.888 45.078 69.344-33.939 45.925-56.447-8.396-40.677-67.948zm26.791 134.134 55.25 8.218 68.572 55.924v8.966c-49.168-1.828-93.838-21.535-127.688-52.804zm138.821 64.142 68.573-55.924 55.25-8.218 3.867 20.304c-33.851 31.269-78.521 50.976-127.689 52.804v-8.966zm6.696-341.531h53.062l13.447 17.528-49.629 46.798h-61.348l-50.403-46.837 29.297-38.189h38.182c3.395 11.933 14.385 20.7 27.392 20.7zm-28.48-47.661v11.961h-36.235l-2.738-5.275c12.673-3.503 25.72-5.746 38.973-6.686zm-168.491 119.016c2.205-5.036 4.616-9.952 7.206-14.756l4.681 4.37v72.689l-16.228 53.92h-8.975c-2.18-11.79-3.33-23.937-3.33-36.348 0-27.774 5.601-54.649 16.646-79.875zm-9.932 131.223h6.915l40.549 67.736-2.749 14.438c-20.897-23.139-36.45-51.184-44.715-82.174zm340.701 82.174-2.75-14.438 40.548-67.736h6.916c-8.266 30.99-23.819 59.036-44.714 82.174zm48.098-97.174h-8.976l-16.228-53.919v-72.689l4.679-4.368c15.495 28.718 23.855 61.123 23.855 94.628 0 12.411-1.15 24.558-3.33 36.348zm-28.334-144.207-5.542 5.173-66.457-36.036-9.595-12.507h43.788c14.799 12.726 27.489 27.346 37.806 43.37z"/></g></svg>