<svg id="Capa_1" enable-background="new 0 0 512.647 512.647" height="512" viewBox="0 0 512.647 512.647" width="512" xmlns="http://www.w3.org/2000/svg"><path d="m359.997 152.22c3.758 7.584 11.578 12.812 20.599 12.812 12.67 0 22.978-10.308 22.978-22.978v-1.785c17.19-2.152 30.537-16.848 30.537-34.612s-13.347-32.46-30.537-34.612v-1.785c0-12.67-10.308-22.978-22.978-22.978-9.022 0-16.842 5.229-20.599 12.812h-15.67v-9.783c0-6.713-3.907-12.516-9.559-15.298v-13.932c.001-11.072-9.008-20.081-20.08-20.081h-15.449c-11.072 0-20.081 9.009-20.081 20.081v13.935c-5.651 2.782-9.559 8.585-9.559 15.298v19.463h-43.49c-41.786 0-81.896-17.714-110.043-48.601l-4.297-4.715c-2.668-2.931-6.473-4.611-10.437-4.611h-8.677c-7.785 0-14.119 6.333-14.119 14.118v78.205c0 4.143 3.357 7.5 7.5 7.5s7.5-3.357 7.5-7.5v-77.323h7.405l4.038 4.43c30.982 33.998 75.133 53.497 121.129 53.497h43.49v32.648h-43.49c-45.997 0-90.147 19.499-121.129 53.497l-4.037 4.429h-7.406v-39.215c0-4.143-3.357-7.5-7.5-7.5s-7.5 3.357-7.5 7.5v40.097c0 7.785 6.334 14.118 14.119 14.118h8.677c3.963 0 7.767-1.68 10.435-4.608l4.3-4.717c28.146-30.887 68.255-48.601 110.042-48.601h43.49v46.752l-43.84 34.016c-5.666 4.395-8.915 11.028-8.915 18.199v231.854c-8.034 2.591-13.866 10.133-13.866 19.018v11.399c0 11.02 8.965 19.984 19.983 19.984h168.004c11.02 0 19.984-8.965 19.984-19.984v-11.399c0-8.885-5.832-16.427-13.866-19.018v-29.215c0-4.143-3.357-7.5-7.5-7.5s-7.5 3.357-7.5 7.5v28.248h-150.239v-223.387h45.255c4.143 0 7.5-3.357 7.5-7.5s-3.357-7.5-7.5-7.5h-40.66l43.229-33.541h54.591l43.23 33.541h-68.427c-4.143 0-7.5 3.357-7.5 7.5s3.357 7.5 7.5 7.5h73.021v163.178c0 4.143 3.357 7.5 7.5 7.5s7.5-3.357 7.5-7.5v-170.678c0-7.17-3.249-13.803-8.914-18.199l-43.842-34.016v-25.957zm59.114-46.562c0 9.474-6.655 17.422-15.537 19.413v-38.826c8.882 1.991 15.537 9.94 15.537 19.413zm-46.492-36.396c0-4.398 3.579-7.978 7.978-7.978s7.978 3.579 7.978 7.978v72.793c0 4.398-3.579 7.978-7.978 7.978s-7.978-3.579-7.978-7.978zm-78.462-49.181c0-2.802 2.279-5.081 5.081-5.081h15.449c2.802 0 5.081 2.279 5.081 5.081v12.174h-25.611zm101.792 472.582c0 2.748-2.236 4.984-4.984 4.984h-168.004c-2.748 0-4.983-2.236-4.983-4.984v-11.399c0-2.748 2.235-4.984 4.983-4.984h168.004c2.748 0 4.984 2.236 4.984 4.984zm-55.687-355.443c-6.029 0-10.935 4.905-10.935 10.935v26.196h-44.729v-125.038c0-1.135.924-2.059 2.059-2.059h40.611c1.135 0 2.059.924 2.059 2.059v13.849c0 6.029 4.905 10.935 10.935 10.935h17.357v63.123z"/></svg>