<svg id="Capa_1" enable-background="new 0 0 511.796 511.796" height="512" viewBox="0 0 511.796 511.796" width="512" xmlns="http://www.w3.org/2000/svg"><g><path d="m464.028 166.042-15.522-17.056 17.16-15.868c7.787-7.202 8.264-19.396 1.063-27.183l-15.402-16.657c-3.489-3.772-8.237-5.961-13.372-6.161-5.142-.211-10.04 1.609-13.812 5.098l-16.802 15.537-25.876-28.434v-31.872c.001-23.956-19.488-43.446-43.445-43.446h-164.244c-23.957 0-43.446 19.49-43.446 43.446v31.871l-25.876 28.434-16.803-15.536c-3.772-3.487-8.669-5.31-13.812-5.098-5.134.2-9.883 2.389-13.371 6.161l-15.403 16.657c-7.2 7.787-6.723 19.981 1.064 27.184l17.159 15.867-15.521 17.056c-11.495 12.632-17.826 28.994-17.826 46.072v95.836c0 112.401 91.445 203.846 203.846 203.846h44.221c50.648 0 99.21-18.705 136.738-52.669 3.071-2.779 3.308-7.522.528-10.593-2.78-3.072-7.522-3.308-10.594-.528-34.765 31.463-79.751 48.79-126.672 48.79h-44.221c-104.13 0-188.846-84.716-188.846-188.846v-95.836c0-13.336 4.943-26.112 13.919-35.977l84.515-92.871c1.257-1.381 1.953-3.181 1.953-5.048v-34.772c.002-15.685 12.762-28.446 28.448-28.446h164.244c15.686 0 28.446 12.761 28.446 28.446v34.772c0 1.867.696 3.667 1.953 5.048l84.515 92.871c8.976 9.864 13.919 22.641 13.919 35.977v95.836c0 43.198-14.205 83.857-41.078 117.583-2.581 3.239-2.047 7.958 1.192 10.539 3.238 2.581 7.958 2.048 10.54-1.191 29.012-36.409 44.347-80.301 44.347-126.931v-95.836c0-17.078-6.331-33.44-17.826-46.072zm-407.715-43.936c-1.715-1.587-1.82-4.272-.234-5.987l15.403-16.657c.768-.83 1.813-1.312 2.944-1.356 1.134-.045 2.211.354 3.042 1.123l16.89 15.617-20.972 23.046zm378.015-22.877c.831-.769 1.905-1.17 3.042-1.123 1.13.044 2.176.526 2.944 1.356l15.403 16.657c1.586 1.715 1.48 4.4-.234 5.986l-17.072 15.786-20.972-23.046z"/><path d="m255.898 290.104c4.142 0 7.5-3.357 7.5-7.5v-4.011c0-4.143-3.358-7.5-7.5-7.5s-7.5 3.357-7.5 7.5v4.011c0 4.142 3.358 7.5 7.5 7.5z"/><path d="m255.898 322.603c4.142 0 7.5-3.357 7.5-7.5v-4.012c0-4.143-3.358-7.5-7.5-7.5s-7.5 3.357-7.5 7.5v4.012c0 4.142 3.358 7.5 7.5 7.5z"/><path d="m143.49 303.679c-3.993 5.705-7.89 8.758-8.039 8.872-3.298 2.478-3.978 7.158-1.513 10.472 1.472 1.979 3.733 3.024 6.024 3.024 1.556 0 3.125-.482 4.47-1.482.782-.581 19.061-14.462 22.265-40.466.188-1.189.289-2.408.289-3.649 0-12.812-10.424-23.236-23.236-23.236s-23.236 10.424-23.236 23.236c0 12.724 10.283 23.088 22.976 23.229zm.26-31.466c4.542 0 8.236 3.694 8.236 8.236s-3.695 8.236-8.236 8.236-8.236-3.694-8.236-8.236 3.694-8.236 8.236-8.236z"/><path d="m208.648 328.852c12.812 0 23.236-10.424 23.236-23.236v-25.166c0-12.812-10.424-23.236-23.236-23.236s-23.236 10.424-23.236 23.236v25.166c0 12.812 10.423 23.236 23.236 23.236zm-8.236-48.403c0-4.542 3.695-8.236 8.236-8.236 4.542 0 8.236 3.694 8.236 8.236v25.166c0 4.542-3.695 8.236-8.236 8.236s-8.236-3.694-8.236-8.236z"/><path d="m306.487 328.852c12.812 0 23.236-10.424 23.236-23.236v-25.166c0-12.812-10.423-23.236-23.236-23.236s-23.236 10.424-23.236 23.236v25.166c-.001 12.812 10.423 23.236 23.236 23.236zm-8.237-48.403c0-4.542 3.695-8.236 8.236-8.236s8.236 3.694 8.236 8.236v25.166c0 4.542-3.695 8.236-8.236 8.236-4.542 0-8.236-3.694-8.236-8.236z"/><path d="m367.565 328.852c12.812 0 23.236-10.424 23.236-23.236v-25.166c0-12.812-10.423-23.236-23.236-23.236s-23.236 10.424-23.236 23.236v25.166c0 12.812 10.424 23.236 23.236 23.236zm-8.236-48.403c0-4.542 3.695-8.236 8.236-8.236s8.236 3.694 8.236 8.236v25.166c0 4.542-3.694 8.236-8.236 8.236s-8.236-3.694-8.236-8.236z"/><path d="m278.377 53.297c4.142 0 7.5-3.357 7.5-7.5s-3.358-7.5-7.5-7.5h-98.847c-6.575 0-11.924 5.349-11.924 11.924v34.832c0 6.575 5.349 11.924 11.924 11.924h152.734c6.575 0 11.924-5.349 11.924-11.924v-34.832c0-6.575-5.349-11.924-11.924-11.924h-21.924c-4.142 0-7.5 3.357-7.5 7.5s3.358 7.5 7.5 7.5h18.849v28.68h-146.582v-28.68z"/><path d="m122.847 142.971-45.495 49.993c-4.778 5.25-7.409 12.051-7.409 19.15v95.836c0 90.345 73.501 163.846 163.846 163.846h44.22c90.345 0 163.846-73.501 163.846-163.846v-95.836c0-7.1-2.631-13.9-7.409-19.15l-45.495-49.993c-5.371-5.902-13.028-9.287-21.009-9.287h-167.585c-4.142 0-7.5 3.357-7.5 7.5s3.358 7.5 7.5 7.5h167.584c3.766 0 7.38 1.598 9.915 4.383l45.495 49.993c2.259 2.482 3.503 5.698 3.503 9.055v2.79h-28.078l-27.044-20.126c-4.527-3.369-10.129-5.225-15.773-5.225h-200.122c-5.644 0-11.246 1.855-15.772 5.225l-27.044 20.126h-28.079v-2.79c0-3.356 1.244-6.572 3.503-9.055l45.496-49.993c2.534-2.785 6.148-4.383 9.914-4.383h24.54c4.142 0 7.5-3.357 7.5-7.5s-3.358-7.5-7.5-7.5h-24.54c-7.98 0-15.638 3.384-21.008 9.287zm155.161 313.825h-44.22c-57.701 0-107.839-33.003-132.529-81.124h11.76l27.045 20.127c4.528 3.368 10.129 5.224 15.771 5.224h200.122c5.643 0 11.244-1.855 15.772-5.225l27.044-20.126h11.76c-24.686 48.121-74.824 81.124-132.525 81.124zm-162.504-226.892c1.613 0 3.184-.521 4.478-1.483l29.038-21.609c1.957-1.456 4.377-2.258 6.817-2.258h200.122c2.44 0 4.861.802 6.817 2.258l29.038 21.609c1.294.963 2.864 1.483 4.478 1.483h30.562v78.046c0 18.556-3.423 36.325-9.655 52.722h-20.907c-1.613 0-3.184.521-4.478 1.483l-29.037 21.608c-1.958 1.457-4.379 2.259-6.818 2.259h-200.122c-2.439 0-4.86-.802-6.817-2.258l-29.038-21.609c-1.294-.963-2.864-1.483-4.478-1.483h-20.907c-6.231-16.397-9.655-34.166-9.655-52.722v-78.046z"/></g></svg>