<svg id="Capa_1" enable-background="new 0 0 511.796 511.796" height="512" viewBox="0 0 511.796 511.796" width="512" xmlns="http://www.w3.org/2000/svg"><g><path d="m443.187 121.735h-36.525c-4.142 0-7.5 3.357-7.5 7.5s3.358 7.5 7.5 7.5h36.525c13.748 0 24.932 11.185 24.932 24.932v197.614c0 4.143 3.358 7.5 7.5 7.5s7.5-3.357 7.5-7.5v-197.614c0-22.019-17.913-39.932-39.932-39.932z"/><path d="m475.619 383.744c-4.142 0-7.5 3.357-7.5 7.5v37.411c0 13.747-11.184 24.932-24.932 24.932h-374.579c-13.747 0-24.931-11.185-24.931-24.932v-266.988c0-13.747 11.184-24.932 24.931-24.932h306.091c4.142 0 7.5-3.357 7.5-7.5s-3.358-7.5-7.5-7.5h-69.175v-.198c0-13.017-4.924-24.902-13.001-33.902l64.308-42.672c4.367 3.57 9.942 5.715 16.01 5.715 13.972 0 25.339-11.367 25.339-25.34 0-13.971-11.367-25.338-25.339-25.338s-25.339 11.367-25.339 25.339c0 2.476.363 4.868 1.028 7.131l-68.164 45.23c-7.537-4.429-16.304-6.981-25.66-6.981s-18.123 2.552-25.66 6.981l-68.164-45.23c.665-2.263 1.028-4.655 1.028-7.131 0-13.972-11.367-25.339-25.339-25.339s-25.339 11.367-25.339 25.339c0 13.973 11.367 25.34 25.339 25.34 6.068 0 11.642-2.146 16.01-5.716l64.308 42.672c-8.077 9.001-13.001 20.885-13.001 33.902v.198h-135.28c-22.018 0-39.931 17.913-39.931 39.932v266.988c0 21.098 16.45 38.416 37.195 39.827v20.175c0 12.759 10.38 23.139 23.138 23.139 6.605 0 12.909-2.832 17.298-7.771l31.486-35.438h234.823l31.486 35.438c4.388 4.938 10.692 7.771 17.297 7.771 12.758 0 23.138-10.38 23.138-23.139v-20.104c21.394-.717 38.579-18.333 38.579-39.897v-37.411c.002-4.143-3.356-7.501-7.498-7.501zm-102.778-368.744c5.701 0 10.339 4.638 10.339 10.339s-4.638 10.34-10.339 10.34-10.339-4.639-10.339-10.34 4.638-10.339 10.339-10.339zm-236.27 20.679c-5.701 0-10.339-4.639-10.339-10.34s4.638-10.339 10.339-10.339 10.339 4.638 10.339 10.339-4.638 10.34-10.339 10.34zm82.317 85.858c0-19.75 16.068-35.818 35.818-35.818s35.818 16.068 35.818 35.818v.198h-71.637v-.198zm-123.793 372.525c-1.544 1.737-3.761 2.733-6.084 2.733-4.487 0-8.138-3.651-8.138-8.139v-20.07h36.857zm326.306 2.734c-2.323 0-4.541-.996-6.084-2.733l-22.634-25.476h36.856v20.07c.001 4.488-3.65 8.139-8.138 8.139z"/><path d="m68.177 246.866c-4.142 0-7.5 3.357-7.5 7.5v166.279c0 8.79 7.151 15.941 15.941 15.941h245.156c8.79 0 15.941-7.151 15.941-15.941v-250.967c0-8.79-7.151-15.941-15.941-15.941h-245.156c-8.79 0-15.941 7.15-15.941 15.94v52.728c0 4.143 3.358 7.5 7.5 7.5s7.5-3.357 7.5-7.5v-52.728c0-.501.439-.94.941-.94h245.157c.501 0 .941.439.941.941v250.968c0 .52-.422.941-.941.941h-245.156c-.519 0-.941-.422-.941-.941v-166.28c-.001-4.142-3.359-7.5-7.501-7.5z"/><path d="m402.101 153.736c-23.578 0-42.76 19.183-42.76 42.761s19.182 42.76 42.76 42.76 42.761-19.182 42.761-42.76-19.183-42.761-42.761-42.761zm0 70.521c-15.307 0-27.76-12.453-27.76-27.76 0-15.308 12.453-27.761 27.76-27.761s27.761 12.453 27.761 27.761c0 15.307-12.454 27.76-27.761 27.76z"/><path d="m394.564 282.6c0-13.081-10.642-23.723-23.723-23.723s-23.723 10.642-23.723 23.723 10.642 23.724 23.723 23.724c13.081-.001 23.723-10.643 23.723-23.724zm-32.446 0c0-4.81 3.913-8.723 8.723-8.723s8.723 3.913 8.723 8.723c0 4.811-3.913 8.724-8.723 8.724-4.81-.001-8.723-3.914-8.723-8.724z"/><path d="m457.084 282.6c0-13.081-10.642-23.723-23.723-23.723s-23.723 10.642-23.723 23.723 10.642 23.724 23.723 23.724c13.081-.001 23.723-10.643 23.723-23.724zm-23.722 8.723c-4.81 0-8.723-3.913-8.723-8.724 0-4.81 3.913-8.723 8.723-8.723s8.723 3.913 8.723 8.723c-.001 4.811-3.914 8.724-8.723 8.724z"/><path d="m433.362 322.13h-62.521c-4.142 0-7.5 3.357-7.5 7.5s3.358 7.5 7.5 7.5h62.521c4.142 0 7.5-3.357 7.5-7.5s-3.358-7.5-7.5-7.5z"/><path d="m433.362 352.937h-62.521c-4.142 0-7.5 3.357-7.5 7.5s3.358 7.5 7.5 7.5h62.521c4.142 0 7.5-3.357 7.5-7.5s-3.358-7.5-7.5-7.5z"/><path d="m433.362 383.744h-62.521c-4.142 0-7.5 3.357-7.5 7.5s3.358 7.5 7.5 7.5h62.521c4.142 0 7.5-3.357 7.5-7.5s-3.358-7.5-7.5-7.5z"/><path d="m433.362 414.551h-62.521c-4.142 0-7.5 3.357-7.5 7.5s3.358 7.5 7.5 7.5h62.521c4.142 0 7.5-3.357 7.5-7.5s-3.358-7.5-7.5-7.5z"/><path d="m109.501 257.913c-4.142 0-7.5 3.357-7.5 7.5v59.446c0 3.651 2.629 6.771 6.227 7.392.534.092.944.162 7.605.162 3.186 0 7.802-.016 14.544-.054 4.142-.023 7.481-3.4 7.458-7.542-.023-4.128-3.376-7.458-7.499-7.458-.014 0-.029 0-.043 0-4.068.023-9.194.043-13.292.049v-51.995c0-4.142-3.357-7.5-7.5-7.5z"/><path d="m168.306 324.91v-59.497c0-4.143-3.358-7.5-7.5-7.5s-7.5 3.357-7.5 7.5v59.497c0 4.143 3.358 7.5 7.5 7.5s7.5-3.357 7.5-7.5z"/><path d="m288.892 273.457c4.142 0 7.5-3.357 7.5-7.5s-3.358-7.5-7.5-7.5h-24.84c-4.142 0-7.5 3.357-7.5 7.5v58.953c0 4.143 3.358 7.5 7.5 7.5h24.84c4.142 0 7.5-3.357 7.5-7.5s-3.358-7.5-7.5-7.5h-17.34v-14.477h15.509c4.142 0 7.5-3.357 7.5-7.5s-3.358-7.5-7.5-7.5h-15.509v-14.477h17.34z"/><path d="m212.883 332.409h.061c3.761-.026 7.101-2.436 8.328-6.046l19.426-58.477c1.306-3.931-.822-8.176-4.753-9.481-3.931-1.308-8.176.821-9.482 4.753l-13.708 41.264-14.394-41.468c-1.358-3.914-5.632-5.988-9.545-4.626-3.913 1.358-5.984 5.631-4.626 9.544l20.36 58.656c1.254 3.525 4.597 5.881 8.333 5.881z"/></g></svg>