<svg id="Capa_1" enable-background="new 0 0 512.025 512.025" height="512" viewBox="0 0 512.025 512.025" width="512" xmlns="http://www.w3.org/2000/svg"><g><path d="m491.005 364.112h-9.383v-40.577c0-4.143-3.357-7.5-7.5-7.5s-7.5 3.357-7.5 7.5v128.754c0 15.32-12.465 27.785-27.785 27.785h-365.649c-15.32 0-27.785-12.465-27.785-27.785v-199.81c0-15.32 12.464-27.785 27.785-27.785h365.648c15.32 0 27.785 12.465 27.785 27.785v39.095c0 4.143 3.357 7.5 7.5 7.5s7.5-3.357 7.5-7.5v-39.095c0-23.592-19.193-42.785-42.785-42.785h-13.356v-5.949c0-12.049-9.802-21.851-21.851-21.851h-7.646c-12.049 0-21.851 9.802-21.851 21.851v5.949h-13.739v-5.949c0-12.049-9.802-21.851-21.851-21.851h-7.646c-12.049 0-21.851 9.802-21.851 21.851v5.949h-13.739v-5.949c0-12.049-9.802-21.851-21.851-21.851h-7.646c-12.048 0-21.851 9.802-21.851 21.851v5.949h-119.811v-10.789c0-11.039-6.152-20.666-15.207-25.638l94.523-99.907c3.26 1.229 6.691 1.866 10.164 1.866 2.293 0 4.603-.272 6.889-.824 7.563-1.826 13.963-6.487 18.021-13.127 4.058-6.639 5.287-14.461 3.461-22.024-3.769-15.613-19.542-25.251-35.151-21.482-15.614 3.769-25.25 19.538-21.482 35.152 1.047 4.336 3.029 8.287 5.778 11.636l-99.65 105.327c-14.508 1.702-25.804 14.064-25.804 29.022v11.461c-20.026 3.558-35.285 21.081-35.285 42.114v111.634h-9.383c-11.591-.003-21.021 9.427-21.021 21.018v22.066c0 11.591 9.43 21.021 21.021 21.021h9.383v24.069c0 23.592 19.193 42.785 42.785 42.785h365.648c23.592 0 42.785-19.193 42.785-42.785v-24.069h9.383c11.591 0 21.021-9.43 21.021-21.021v-22.066c-.001-11.591-9.43-21.021-21.021-21.021zm-101.871-160.368c0-3.777 3.073-6.851 6.851-6.851h7.646c3.777 0 6.851 3.073 6.851 6.851v5.949h-21.347v-5.949zm-65.087 0c0-3.777 3.073-6.851 6.851-6.851h7.646c3.777 0 6.851 3.073 6.851 6.851v5.949h-21.348zm-65.086 0c0-3.777 3.073-6.851 6.851-6.851h7.646c3.777 0 6.851 3.073 6.851 6.851v5.949h-21.347v-5.949zm-48.595-171.394c1.11-.269 2.22-.396 3.315-.396 6.375 0 12.175 4.353 13.736 10.816 1.828 7.573-2.847 15.223-10.421 17.051-3.668.885-7.462.29-10.683-1.679-3.22-1.968-5.481-5.072-6.367-8.741-1.828-7.575 2.846-15.224 10.42-17.051zm-129.678 166.554c0-7.846 6.383-14.229 14.229-14.229s14.229 6.384 14.229 14.229v10.789h-28.458zm-59.667 214.316c-3.32 0-6.021-2.701-6.021-6.021v-22.066c0-3.319 2.701-6.021 6.021-6.021h9.383v34.107h-9.383zm476.004-6.021c0 3.319-2.701 6.021-6.021 6.021h-9.383v-34.107h9.383c3.319 0 6.021 2.701 6.021 6.021z"/><path d="m67.904 399.189c-4.142 0-7.5 3.357-7.5 7.5v45.6c0 7.05 5.735 12.785 12.785 12.785h176.757c7.856 0 14.249-6.392 14.249-14.248v-196.884c0-7.857-6.393-14.249-14.249-14.249h-176.758c-7.049 0-12.785 5.735-12.785 12.785v122.248c0 4.143 3.358 7.5 7.5 7.5s7.5-3.357 7.5-7.5v-120.033h173.792v195.381h-173.791v-43.385c0-4.142-3.358-7.5-7.5-7.5z"/><path d="m451.621 252.478c0-7.049-5.735-12.784-12.784-12.784h-133.465c-7.679 0-13.926 6.247-13.926 13.926v31.416c0 7.679 6.247 13.926 13.926 13.926h132.323c7.679 0 13.926-6.247 13.926-13.926zm-15 31.483h-130.175v-29.268h20.774v5.24c0 4.143 3.357 7.5 7.5 7.5s7.5-3.357 7.5-7.5v-5.24h21.813v5.24c0 4.143 3.357 7.5 7.5 7.5s7.5-3.357 7.5-7.5v-5.24h21.812v5.24c0 4.143 3.357 7.5 7.5 7.5s7.5-3.357 7.5-7.5v-5.24h20.774v29.268z"/><path d="m238.135 352.384c0-41.816-34.02-75.836-75.836-75.836s-75.835 34.02-75.835 75.836 34.02 75.836 75.835 75.836 75.836-34.02 75.836-75.836zm-136.671 0c0-33.545 27.291-60.836 60.835-60.836s60.836 27.291 60.836 60.836-27.291 60.836-60.836 60.836-60.835-27.291-60.835-60.836z"/><path d="m323.582 373.507c15.48 0 28.074-12.594 28.074-28.074s-12.594-28.074-28.074-28.074c-15.479 0-28.073 12.594-28.073 28.074s12.594 28.074 28.073 28.074zm0-41.149c7.209 0 13.074 5.865 13.074 13.074s-5.865 13.074-13.074 13.074-13.073-5.865-13.073-13.074 5.864-13.074 13.073-13.074z"/><path d="m419.485 373.507c15.48 0 28.074-12.594 28.074-28.074s-12.594-28.074-28.074-28.074-28.074 12.594-28.074 28.074 12.594 28.074 28.074 28.074zm0-41.149c7.209 0 13.074 5.865 13.074 13.074s-5.865 13.074-13.074 13.074-13.074-5.865-13.074-13.074 5.865-13.074 13.074-13.074z"/><path d="m291.446 429.09c0 8.371 6.811 15.182 15.182 15.182h40.162c8.371 0 15.181-6.811 15.181-15.182v-13.485c0-8.371-6.81-15.181-15.181-15.181h-40.162c-8.371 0-15.182 6.81-15.182 15.181zm15-13.485c0-.1.081-.181.182-.181h40.162c.1 0 .181.081.181.181v13.485c0 .101-.081.182-.181.182h-40.162c-.101 0-.182-.081-.182-.182z"/><path d="m381.097 415.605v13.485c0 8.371 6.811 15.182 15.182 15.182h40.161c8.371 0 15.182-6.811 15.182-15.182v-13.485c0-8.371-6.811-15.181-15.182-15.181h-40.161c-8.372 0-15.182 6.809-15.182 15.181zm15 0c0-.1.081-.181.182-.181h40.161c.101 0 .182.081.182.181v13.485c0 .101-.081.182-.182.182h-40.161c-.101 0-.182-.081-.182-.182z"/><path d="m319.31 60.677c-4.143 0-7.5 3.357-7.5 7.5v45.921c0 3.654 2.633 6.776 6.234 7.393.537.092.877.15 6.063.15 2.483 0 6.078-.014 11.338-.043 4.142-.023 7.481-3.399 7.458-7.542-.023-4.128-3.376-7.458-7.499-7.458-.015 0-.028 0-.043 0-2.89.017-5.927.028-8.552.034v-38.455c.001-4.143-3.357-7.5-7.499-7.5z"/><path d="m351.44 68.177v45.959c0 4.143 3.357 7.5 7.5 7.5s7.5-3.357 7.5-7.5v-45.959c0-4.143-3.357-7.5-7.5-7.5s-7.5 3.357-7.5 7.5z"/><path d="m457.884 76.097c4.143 0 7.5-3.357 7.5-7.5s-3.357-7.5-7.5-7.5h-19.188c-4.143 0-7.5 3.357-7.5 7.5v45.539c0 4.143 3.357 7.5 7.5 7.5h19.188c4.143 0 7.5-3.357 7.5-7.5s-3.357-7.5-7.5-7.5h-11.688v-7.77h10.273c4.143 0 7.5-3.357 7.5-7.5s-3.357-7.5-7.5-7.5h-10.273v-7.77h11.688z"/><path d="m408.04 65.897-9.005 27.106-9.472-27.286c-1.357-3.914-5.635-5.99-9.544-4.626-3.913 1.357-5.984 5.631-4.626 9.544l15.732 45.327c1.211 3.4 4.438 5.674 8.043 5.674.021 0 .042 0 .063-.001 3.63-.026 6.854-2.354 8.036-5.839l15.006-45.171c1.307-3.931-.822-8.176-4.753-9.481-3.926-1.305-8.174.822-9.48 4.753z"/><path d="m294.844 149.418h46.281l9.91 9.911c2.18 2.179 5.042 3.269 7.904 3.268 2.863 0 5.727-1.089 7.907-3.268l9.91-9.911h105.594c15.704 0 28.48-12.776 28.48-28.48v-59.562c0-15.704-12.776-28.479-28.48-28.479h-19.542c-4.143 0-7.5 3.357-7.5 7.5s3.357 7.5 7.5 7.5h19.542c7.434 0 13.48 6.047 13.48 13.479v59.562c0 7.434-6.047 13.48-13.48 13.48h-108.7c-1.989 0-3.896.79-5.304 2.196l-9.405 9.406-9.406-9.406c-1.407-1.406-3.314-2.196-5.304-2.196h-49.388c-7.434 0-13.48-6.047-13.48-13.48v-59.562c0-7.433 6.047-13.479 13.48-13.479h136.002c4.143 0 7.5-3.357 7.5-7.5s-3.357-7.5-7.5-7.5h-136.001c-15.704 0-28.48 12.775-28.48 28.479v59.562c-.001 15.704 12.776 28.48 28.48 28.48z"/></g></svg>