<svg id="Capa_1" enable-background="new 0 0 515.398 515.398" height="512" viewBox="0 0 515.398 515.398" width="512" xmlns="http://www.w3.org/2000/svg"><g><path d="m460.348 51.152c-33.312-33.28-78.039-51.462-125.94-51.148-47.742.295-92.428 18.851-125.826 52.248l-141.928 141.927c-2.929 2.93-2.929 7.678 0 10.607 2.929 2.928 7.677 2.928 10.607 0l141.928-141.927c30.589-30.59 71.541-47.586 115.312-47.856.354-.002.703-.003 1.056-.003 43.463 0 83.981 16.584 114.19 46.764 30.637 30.607 47.515 71.38 47.525 114.809.01 43.427-16.849 84.206-47.469 114.826l-37.871 37.871c-2.929 2.93-2.929 7.678 0 10.607 1.465 1.464 3.385 2.196 5.304 2.196 1.92 0 3.839-.732 5.304-2.196l37.871-37.871c33.454-33.454 51.872-78.002 51.861-125.437-.011-47.437-18.451-91.977-51.924-125.417z"/><path d="m389.332 351.87-84.779 84.78c-.54.316-1.048.706-1.512 1.169l-57.683 57.684c-6.537 6.535-17.169 6.534-23.702.001-3.166-3.165-4.909-7.374-4.909-11.852 0-4.477 1.743-8.686 4.909-11.851l64.294-64.294c5.979-5.979 9.271-13.929 9.271-22.385s-3.293-16.405-9.271-22.385c-5.979-5.979-13.929-9.271-22.385-9.271s-16.405 3.293-22.385 9.271l-43.516 43.517c-6.536 6.535-17.168 6.534-23.702 0-6.535-6.534-6.535-17.167 0-23.701l13.829-13.829c5.998-5.999 9.303-13.975 9.303-22.458s-3.305-16.459-9.303-22.457c-5.999-5.999-13.975-9.304-22.458-9.304s-16.459 3.305-22.458 9.303l-96.32 96.321c-3.228 3.227-7.515 4.965-12.082 4.907-4.562-.062-8.807-1.927-11.952-5.249-6.175-6.522-5.866-17.162.689-23.717l120.313-120.313c12.382-12.383 12.382-32.531 0-44.916-5.999-5.998-13.975-9.302-22.458-9.302s-16.459 3.304-22.458 9.302l-49.438 49.439c-3.227 3.228-7.549 4.941-12.082 4.908-4.562-.062-8.807-1.927-11.951-5.248-6.175-6.523-5.865-17.164.689-23.719l28.81-28.811c2.929-2.929 2.929-7.678 0-10.606-2.93-2.928-7.678-2.929-10.607.001l-28.81 28.81c-12.244 12.245-12.683 32.269-.976 44.637 5.952 6.288 13.993 9.816 22.639 9.935.15.003.3.004.449.004 8.48 0 16.437-3.294 22.446-9.303l49.438-49.438c3.165-3.166 7.374-4.909 11.851-4.909s8.686 1.743 11.851 4.908c6.534 6.535 6.535 17.168 0 23.702l-120.313 120.313c-12.245 12.246-12.683 32.27-.975 44.637 5.953 6.288 13.993 9.816 22.64 9.935.15.002.3.004.449.004 8.48-.001 16.437-3.294 22.445-9.303l96.32-96.32c3.165-3.166 7.374-4.91 11.851-4.91s8.686 1.744 11.852 4.91c3.165 3.165 4.909 7.374 4.909 11.851s-1.744 8.686-4.91 11.851l-13.829 13.829c-5.998 5.999-9.302 13.975-9.302 22.458s3.304 16.459 9.303 22.458c12.383 12.381 32.53 12.381 44.915 0l43.517-43.517c3.146-3.146 7.328-4.879 11.777-4.879s8.632 1.732 11.777 4.879c3.146 3.146 4.879 7.328 4.879 11.777s-1.732 8.632-4.879 11.777l-64.293 64.294c-5.999 5.999-9.303 13.975-9.303 22.458s3.304 16.46 9.302 22.459c6.191 6.19 14.323 9.286 22.457 9.286 8.133 0 16.267-3.096 22.459-9.287l56.343-56.344c.54-.316 1.048-.706 1.512-1.169l86.12-86.12c2.929-2.93 2.929-7.678 0-10.607-2.93-2.929-7.678-2.929-10.607-.001z"/><path d="m244.489 76.307c-2.979-2.879-7.727-2.798-10.605.18-26.108 27.009-40.486 62.567-40.486 100.126 0 79.448 64.636 144.084 144.084 144.084 79.447 0 144.083-64.636 144.083-144.084 0-79.447-64.636-144.083-144.083-144.083-27.575 0-54.378 7.817-77.511 22.607-3.49 2.231-4.51 6.869-2.278 10.359 2.229 3.489 6.869 4.511 10.358 2.278 6.86-4.386 14.086-8.071 21.573-11.06l5.751 11.081-17.678 23.043-37.684 20.433-8.691-8.112c3.97-5.718 8.422-11.155 13.346-16.248 2.879-2.977 2.798-7.725-.179-10.604zm-31.469 134.562h10.612l23.033 38.477-3.013 15.82c-14.281-15.123-24.952-33.685-30.632-54.297zm94.909-134.794h59.103l15.179 19.786-27.15 25.601h-34.688l-27.593-25.64zm-63.811 99.374 38.806 6.526 25.379 39.041-18.203 24.631-30.919-4.599-23.161-38.689zm77.379-38.987h32.473l25.135 38.663-25.135 38.664h-32.473l-25.135-38.664zm15.984 143.494-33.746-27.522 17.474-23.645h33l17.074 23.6zm-76.894-23.535 29.723 4.421 39.671 32.354v12.277c-27.669-1.593-53.027-11.941-73.345-28.309zm84.394 36.775 39.671-32.354 29.722-4.421 3.951 20.742c-20.318 16.368-45.675 26.716-73.345 28.31v-12.277zm70.799-52.149-30.867 4.591-17.781-24.576 25.414-39.094 38.299-6.509 8.095 26.899zm12.839-80.424-36.967 6.283-23.911-36.782 25.741-24.272 35.138 19.052v35.719zm-147.103-54.792 26.184 24.332-23.891 36.75-37.467-6.301v-35.708zm149.794 159.335-3.013-15.82 23.032-38.477h10.613c-5.681 20.612-16.352 39.174-30.632 54.297zm33.816-69.297h-12.474l-9.034-30.016v-42.155l7.948-7.418c9.567 18.017 14.997 38.551 14.997 60.333.001 6.542-.492 12.972-1.437 19.256zm-21.531-92.667-8.647 8.07-37.684-20.433-17.678-23.044 5.745-11.067c23.678 9.485 43.911 25.791 58.264 46.474zm-106.114-55.673c11.562 0 22.77 1.537 33.44 4.401l-4.747 9.145h-57.386l-4.746-9.145c10.831-2.897 22.058-4.401 33.439-4.401zm-106.139 76.17v42.154l-9.034 30.016h-12.474c-.944-6.284-1.438-12.714-1.438-19.257 0-21.346 5.191-41.968 14.954-60.373z"/></g></svg>