<svg id="Capa_1" enable-background="new 0 0 513.142 513.142" height="512" viewBox="0 0 513.142 513.142" width="512" xmlns="http://www.w3.org/2000/svg"><g><path d="m257.128 18.803c0-10.245-8.335-18.58-18.58-18.58h-125.311c-10.244 0-18.579 8.335-18.579 18.58v191.189c0 4.143 3.357 7.5 7.5 7.5s7.5-3.357 7.5-7.5v-38.218h132.47v125.579c-20.15 10.029-36.818 26.318-47.257 46.319-11.204 21.464-14.809 46.37-10.15 70.13l1.328 6.774-57.979 57.979c-12.51 12.51-29.143 19.399-46.835 19.399-17.691 0-34.325-6.889-46.835-19.399-12.51-12.508-19.4-29.14-19.4-46.833 0-17.691 6.89-34.325 19.4-46.835l73.062-73.062c1.406-1.407 2.196-3.314 2.196-5.304v-64.565c0-4.143-3.357-7.5-7.5-7.5s-7.5 3.357-7.5 7.5v61.459l-70.865 70.865c-15.343 15.344-23.793 35.744-23.793 57.442 0 21.699 8.45 42.099 23.793 57.442 15.838 15.836 36.64 23.755 57.442 23.754 20.803 0 41.605-7.918 57.442-23.755l94.657-94.658c15.343-15.344 23.793-35.744 23.793-57.442v-318.26zm-15 71.88h-132.47v-18.045h132.47zm-132.47 15h132.47v18.046h-132.47zm3.579-90.46h125.311c1.974 0 3.58 1.606 3.58 3.58v38.835h-132.47v-38.835c0-1.973 1.606-3.58 3.579-3.58zm-3.579 141.552v-18.046h132.47v18.046zm113.07 227.123-23.839 23.84c-3.103-19.46.145-39.622 9.28-57.124 7.796-14.936 19.633-27.461 33.96-36.147v22.596c-.001 17.692-6.891 34.325-19.401 46.835z"/><path d="m494.562.223h-59.219c-4.143 0-7.5 3.357-7.5 7.5s3.357 7.5 7.5 7.5h59.219c1.974 0 3.579 1.606 3.579 3.58v38.835h-132.468v-38.835c0-1.974 1.605-3.58 3.579-3.58h34.13c4.143 0 7.5-3.357 7.5-7.5s-3.357-7.5-7.5-7.5h-34.13c-10.244 0-18.579 8.335-18.579 18.58v284.611l-70.866 70.866c-15.343 15.343-23.793 35.743-23.792 57.441 0 21.699 8.45 42.099 23.794 57.442 15.837 15.836 36.639 23.754 57.44 23.754 20.803 0 41.605-7.918 57.441-23.755l14.628-14.627c2.93-2.929 2.93-7.678.001-10.606s-7.678-2.93-10.606-.001l-14.629 14.628c-25.823 25.823-67.843 25.825-93.67 0-25.825-25.824-25.825-67.845 0-93.67l73.062-73.062c1.406-1.407 2.196-3.314 2.196-5.304v-134.745h132.469v125.579c-20.149 10.029-36.817 26.318-47.257 46.319-11.203 21.464-14.808 46.37-10.149 70.13l1.328 6.773-20.663 20.664c-2.929 2.93-2.929 7.678 0 10.607 1.465 1.464 3.385 2.196 5.304 2.196s3.839-.732 5.304-2.196l57.342-57.342c15.343-15.343 23.792-35.743 23.792-57.442v-318.26c0-10.245-8.335-18.58-18.58-18.58zm-128.889 105.46h132.469v18.046h-132.469zm132.469-33.045v18.045h-132.469v-18.045zm-132.469 84.137v-18.046h132.469v18.046zm113.069 227.123-23.84 23.84c-3.103-19.46.145-39.622 9.281-57.124 7.796-14.937 19.631-27.467 33.959-36.154v22.603c0 17.692-6.89 34.326-19.4 46.835z"/></g></svg>