<svg id="Capa_1" enable-background="new 0 0 514.165 514.165" height="512" viewBox="0 0 514.165 514.165" width="512" xmlns="http://www.w3.org/2000/svg"><path d="m483.603 118.708c-.96-4.029-5.008-6.512-9.034-5.558-4.03.96-6.518 5.005-5.558 9.034 2.527 10.605 3.809 21.54 3.809 32.5v62.063h-24.038v-62.063c0-57.737-31.803-108.176-78.807-134.745 13.444 3.667 26.315 9.325 38.181 16.896 21.805 13.913 39.308 33.532 50.618 56.737 1.814 3.723 6.306 5.272 10.027 3.456 3.724-1.814 5.271-6.305 3.457-10.028-12.521-25.69-31.897-47.409-56.033-62.811-24.805-15.824-53.537-24.189-83.09-24.189h-152.105c-85.293 0-154.685 69.392-154.685 154.685v103.374c0 4.143 3.358 7.5 7.5 7.5s7.5-3.357 7.5-7.5v-26.311h132.65v85.47h-132.65v-4.316-22.88c0-4.143-3.358-7.5-7.5-7.5s-7.5 3.357-7.5 7.5v149.146c0 8.748 6.727 15.944 15.278 16.71v50.787c0 4.143 3.358 7.5 7.5 7.5s7.5-3.357 7.5-7.5v-50.71h14.964v50.71c0 4.143 3.358 7.5 7.5 7.5s7.5-3.357 7.5-7.5v-50.71h14.963v50.71c0 4.143 3.358 7.5 7.5 7.5s7.5-3.357 7.5-7.5v-50.71h14.963v50.71c0 4.143 3.358 7.5 7.5 7.5s7.5-3.357 7.5-7.5v-50.71h14.963v50.71c0 4.143 3.358 7.5 7.5 7.5s7.5-3.357 7.5-7.5v-51.281c7.192-1.896 12.518-8.437 12.518-16.216v-46.137c0-4.143-3.358-7.5-7.5-7.5s-7.5 3.357-7.5 7.5v46.137c0 .985-.801 1.787-1.787 1.787h-25.695v-108.737h27.481v28.851c0 4.143 3.358 7.5 7.5 7.5s7.5-3.357 7.5-7.5v-165.757c0-37.754 30.715-68.469 68.469-68.469 37.753 0 68.468 30.715 68.468 68.469v243.855c0 7.865 5.443 14.464 12.755 16.277v51.22c0 4.143 3.358 7.5 7.5 7.5s7.5-3.357 7.5-7.5v-50.71h14.963v50.71c0 4.143 3.358 7.5 7.5 7.5s7.5-3.357 7.5-7.5v-50.71h14.963v50.71c0 4.143 3.358 7.5 7.5 7.5s7.5-3.357 7.5-7.5v-50.71h14.963v50.71c0 4.143 3.358 7.5 7.5 7.5s7.5-3.357 7.5-7.5v-50.71h14.964v50.71c0 4.143 3.358 7.5 7.5 7.5s7.5-3.357 7.5-7.5v-50.918c8.067-1.217 14.278-8.176 14.278-16.579v-284.482c.004-12.13-1.415-24.235-4.213-35.977zm-442.258 213.51h24.801v108.737h-23.014c-.985 0-1.787-.802-1.787-1.787zm90.169 108.737h-50.368v-108.737h50.368zm339.519 0h-22.251v-108.737h24.038v106.95c0 .985-.802 1.787-1.787 1.787zm-87.619 0v-108.737h50.368v108.737zm-251.9-224.207h-50.368v-62.063c0-61.21 39.577-113.346 94.483-132.175-26.777 20.285-44.115 52.404-44.115 88.512zm236.9 0h-27.481v-131.28c0-23.84-10.062-45.36-26.144-60.584 31.741 15.687 53.625 48.402 53.625 86.139zm-25.694 224.207c-.985 0-1.787-.802-1.787-1.787v-106.95h27.481v108.737zm130.1-123.737h-131.887v-85.47h131.887zm-39.038-162.533v62.063h-50.368v-105.726c0-36.086-17.307-68.204-44.057-88.492 54.876 18.846 94.425 70.967 94.425 132.155zm-392.437 0c0-64.8 44.355-119.43 104.296-135.138-47.381 26.465-79.495 77.118-79.495 135.138v62.063h-24.801zm105.169 62.063v-105.727c0-37.736 21.884-70.452 53.625-86.138-16.081 15.224-26.144 36.744-26.144 60.584v131.28h-27.481zm110.95-104.904c-28.317 0-53.375 14.18-68.469 35.809v-62.185c.001-37.753 30.715-68.468 68.469-68.468 37.753 0 68.468 30.715 68.468 68.468v62.19c-15.093-21.631-40.149-35.814-68.468-35.814z"/></svg>