<svg id="Capa_1" enable-background="new 0 0 512.079 512.079" height="512" viewBox="0 0 512.079 512.079" width="512" xmlns="http://www.w3.org/2000/svg"><g><path d="m473.957 0h-435.834c-21.016 0-38.112 17.097-38.112 38.111v217.261c0 4.143 3.358 7.5 7.5 7.5s7.5-3.357 7.5-7.5v-217.261c0-12.743 10.367-23.111 23.112-23.111h435.834c12.744 0 23.112 10.368 23.112 23.111v309.785c0 12.743-10.368 23.111-23.112 23.111h-435.834c-12.744 0-23.112-10.368-23.112-23.111v-60.562c0-4.143-3.358-7.5-7.5-7.5s-7.5 3.357-7.5 7.5v60.562c0 21.015 17.097 38.111 38.112 38.111h15.477v76.861h-14.409c-9.677 0-17.55 7.873-17.55 17.551v14.108c0 9.678 7.873 17.551 17.55 17.551h82.789c9.677 0 17.55-7.873 17.55-17.551v-14.107c0-9.678-7.873-17.551-17.55-17.551h-14.408v-76.861h297.936v22.449c0 4.143 3.358 7.5 7.5 7.5s7.5-3.357 7.5-7.5v-22.449h23.973v76.861h-23.973v-22.449c0-4.143-3.358-7.5-7.5-7.5s-7.5 3.357-7.5 7.5v22.449h-14.408c-9.677 0-17.55 7.873-17.55 17.551v14.108c0 9.678 7.873 17.551 17.55 17.551h82.789c9.677 0 17.55-7.873 17.55-17.551v-14.108c0-9.678-7.873-17.551-17.55-17.551h-14.409v-76.861h14.477c21.015 0 38.112-17.097 38.112-38.111v-309.786c-.001-21.014-17.097-38.111-38.112-38.111zm2.481 480.42v14.108c0 1.406-1.144 2.551-2.55 2.551h-82.789c-1.406 0-2.55-1.145-2.55-2.551v-14.108c0-1.406 1.144-2.551 2.55-2.551h82.789c1.406 0 2.55 1.145 2.55 2.551zm-351.908 0v14.108c0 1.406-1.144 2.551-2.55 2.551h-82.789c-1.406 0-2.55-1.145-2.55-2.551v-14.108c0-1.406 1.144-2.551 2.55-2.551h82.789c1.406 0 2.55 1.145 2.55 2.551zm-31.958-17.551h-23.973v-76.861h23.973z"/><path d="m381.76 30h-343.637c-4.473 0-8.112 3.639-8.112 8.111v309.784c0 4.473 3.639 8.112 8.112 8.112h435.834c4.473 0 8.112-3.64 8.112-8.112v-309.784c0-4.473-3.639-8.111-8.112-8.111h-60.234c-4.142 0-7.5 3.357-7.5 7.5s3.358 7.5 7.5 7.5h53.346v296.008h-422.058v-296.008h336.75c4.142 0 7.5-3.357 7.5-7.5s-3.359-7.5-7.501-7.5z"/><path d="m324.538 161.134c1.396 1.092 3.027 1.609 4.635 1.609 2.485 0 4.917-1.234 6.344-3.489l11.036-17.43c2.849-4.497 2.071-10.374-1.85-13.973l-15.906-14.607c-3.108-2.852-7.968-2.592-10.748.621-2.688 3.107-2.192 7.862.834 10.641l6.414 5.89-11.517 1.019c-51.625 4.565-100.772 23.645-141.829 54.153-14.925-12.118-28.59-25.889-40.637-41.164-2.551-3.234-7.241-4.132-10.559-1.691-3.428 2.523-4.065 7.36-1.455 10.68 12.086 15.368 25.715 29.305 40.571 41.667-12.909 10.742-24.893 22.674-35.743 35.701-2.694 3.235-2.155 8.068 1.155 10.671 3.201 2.517 7.807 2.006 10.414-1.122 10.944-13.133 23.11-25.087 36.254-35.757 41.056 30.508 90.204 49.588 141.829 54.154l11.518 1.018-6.426 5.901c-2.986 2.742-3.509 7.415-.911 10.527 1.496 1.791 3.627 2.7 5.765 2.7 1.812 0 3.631-.653 5.071-1.976l15.906-14.608c3.918-3.6 4.697-9.476 1.85-13.97l-11.037-17.432c-2.256-3.564-7.019-4.578-10.54-2.2-3.403 2.299-4.162 7.017-1.965 10.487l3.561 5.624-11.471-1.014c-47.409-4.193-92.618-21.31-130.755-48.705 38.137-27.396 83.346-44.512 130.755-48.705l11.47-1.015-3.596 5.68c-2.08 3.289-1.5 7.718 1.563 10.115z"/><path d="m390.241 253.116c0 14.191 11.545 25.737 25.737 25.737s25.737-11.546 25.737-25.737-11.545-25.736-25.737-25.736-25.737 11.545-25.737 25.736zm36.474 0c0 5.921-4.816 10.737-10.737 10.737s-10.737-4.816-10.737-10.737c0-5.92 4.816-10.736 10.737-10.736s10.737 4.816 10.737 10.736z"/><path d="m95.835 137.649c14.191 0 25.737-11.546 25.737-25.737s-11.545-25.736-25.737-25.736-25.737 11.545-25.737 25.736 11.546 25.737 25.737 25.737zm0-36.473c5.92 0 10.737 4.816 10.737 10.736 0 5.921-4.816 10.737-10.737 10.737s-10.737-4.816-10.737-10.737c0-5.92 4.817-10.736 10.737-10.736z"/><path d="m422.967 113.785c-2.929-2.928-7.678-2.928-10.606 0l-9.919 9.918-10.239-10.239c-2.929-2.928-7.678-2.928-10.606 0-2.929 2.93-2.929 7.678 0 10.607l10.238 10.238-10.238 10.238c-2.929 2.93-2.929 7.678 0 10.607 1.464 1.464 3.384 2.196 5.303 2.196s3.839-.732 5.303-2.196l10.239-10.239 9.919 9.918c1.464 1.464 3.384 2.196 5.303 2.196s3.839-.732 5.303-2.196c2.929-2.93 2.929-7.678 0-10.607l-9.918-9.918 9.918-9.918c2.929-2.927 2.929-7.675 0-10.605z"/><path d="m116.521 267.598c-2.929-2.928-7.678-2.928-10.606 0l-9.919 9.919-10.239-10.239c-2.929-2.928-7.678-2.929-10.606.001-2.929 2.929-2.929 7.677 0 10.606l10.238 10.238-10.238 10.238c-2.929 2.93-2.929 7.678 0 10.607 1.464 1.464 3.384 2.196 5.303 2.196s3.839-.732 5.303-2.196l10.239-10.239 9.919 9.919c1.464 1.464 3.384 2.196 5.303 2.196s3.839-.732 5.303-2.197c2.929-2.929 2.929-7.677 0-10.606l-9.919-9.918 9.919-9.918c2.929-2.93 2.929-7.678 0-10.607z"/></g></svg>