<svg id="Capa_1" enable-background="new 0 0 511.753 511.753" height="512" viewBox="0 0 511.753 511.753" width="512" xmlns="http://www.w3.org/2000/svg"><g><path d="m502.725 433.743v-64.07c0-4.143-3.357-7.5-7.5-7.5s-7.5 3.357-7.5 7.5v63.054h-144.581v-392.381c0-12.265-9.979-22.243-22.244-22.243h-64.364c-4.142 0-7.5 3.357-7.5 7.5s3.358 7.5 7.5 7.5h64.364c3.994 0 7.244 3.249 7.244 7.243v392.38h-144.582v-392.38c0-.002 0-.004 0-.006.004-3.991 3.251-7.237 7.243-7.237h33.767c4.142 0 7.5-3.357 7.5-7.5s-3.358-7.5-7.5-7.5h-33.767c-5.652 0-10.815 2.123-14.743 5.608-3.928-3.485-9.091-5.608-14.743-5.608h-130.095c-12.265 0-22.243 9.979-22.243 22.243v393.414c-5.256 2.113-8.981 7.253-8.981 13.256v32.345c0 7.879 6.411 14.289 14.29 14.289h483.173c7.88 0 14.29-6.41 14.29-14.289v-32.345c0-6.02-3.748-11.173-9.028-13.273zm-5.972 44.907h-481.753v-30.924h44.58c4.142 0 7.5-3.357 7.5-7.5s-3.358-7.5-7.5-7.5h-35.6v-392.38c0-3.994 3.25-7.243 7.243-7.243h130.095c3.992 0 7.24 3.246 7.243 7.237v.006 392.38h-77.019c-4.142 0-7.5 3.357-7.5 7.5s3.358 7.5 7.5 7.5h405.21v30.924z"/><path d="m310.193 86.503c0-7.498-6.101-13.599-13.599-13.599h-81.484c-7.499 0-13.599 6.101-13.599 13.599v23.44c0 7.498 6.1 13.599 13.599 13.599h81.484c7.498 0 13.599-6.101 13.599-13.599zm-15 22.039h-78.681v-20.637h78.681z"/><path d="m226.907 278.33c8.677 0 15.736-7.059 15.736-15.735v-61.188c0-8.677-7.059-15.736-15.736-15.736h-15.226c-8.677 0-15.736 7.06-15.736 15.736v61.188c0 8.677 7.059 15.735 15.736 15.735zm-15.962-15.736v-61.188c0-.406.33-.736.736-.736h15.226c.406 0 .736.33.736.736v61.188c0 .405-.33.735-.736.735h-15.226c-.406.001-.736-.329-.736-.735z"/><path d="m299.388 337.636h-86.071c-4.142 0-7.5 3.357-7.5 7.5s3.358 7.5 7.5 7.5h86.071c4.143 0 7.5-3.357 7.5-7.5s-3.358-7.5-7.5-7.5z"/><path d="m299.388 368.544h-86.071c-4.142 0-7.5 3.357-7.5 7.5s3.358 7.5 7.5 7.5h86.071c4.143 0 7.5-3.357 7.5-7.5s-3.358-7.5-7.5-7.5z"/><path d="m299.388 399.453h-86.071c-4.142 0-7.5 3.357-7.5 7.5s3.358 7.5 7.5 7.5h86.071c4.143 0 7.5-3.357 7.5-7.5s-3.358-7.5-7.5-7.5z"/><path d="m55.529 123.542h81.483c7.499 0 13.599-6.101 13.599-13.599v-23.44c0-7.498-6.1-13.599-13.599-13.599h-81.483c-7.499 0-13.599 6.101-13.599 13.599v23.44c.001 7.499 6.101 13.599 13.599 13.599zm1.402-35.637h78.681v20.638h-78.681z"/><path d="m67.325 278.33c8.677 0 15.736-7.059 15.736-15.735v-61.188c0-8.677-7.059-15.736-15.736-15.736h-15.225c-8.677 0-15.736 7.06-15.736 15.736v61.188c0 8.677 7.059 15.735 15.736 15.735zm-15.962-15.736v-61.188c0-.406.331-.736.736-.736h15.226c.406 0 .736.33.736.736v61.188c0 .405-.33.735-.736.735h-15.225c-.406.001-.737-.329-.737-.735z"/><path d="m139.807 337.636h-86.072c-4.142 0-7.5 3.357-7.5 7.5s3.358 7.5 7.5 7.5h86.071c4.142 0 7.5-3.357 7.5-7.5s-3.357-7.5-7.499-7.5z"/><path d="m139.807 368.544h-86.072c-4.142 0-7.5 3.357-7.5 7.5s3.358 7.5 7.5 7.5h86.071c4.142 0 7.5-3.357 7.5-7.5s-3.357-7.5-7.499-7.5z"/><path d="m147.307 406.953c0-4.143-3.358-7.5-7.5-7.5h-86.072c-4.142 0-7.5 3.357-7.5 7.5s3.358 7.5 7.5 7.5h86.071c4.143 0 7.501-3.358 7.501-7.5z"/><path d="m374.692 123.542h81.483c7.498 0 13.599-6.101 13.599-13.599v-23.44c0-7.498-6.101-13.599-13.599-13.599h-81.483c-7.498 0-13.599 6.101-13.599 13.599v23.44c.001 7.499 6.101 13.599 13.599 13.599zm1.402-35.637h78.681v20.638h-78.681z"/><path d="m371.263 278.33h15.226c8.677 0 15.736-7.059 15.736-15.735v-61.188c0-8.677-7.06-15.736-15.736-15.736h-15.226c-8.677 0-15.736 7.06-15.736 15.736v61.188c-.001 8.676 7.059 15.735 15.736 15.735zm-.737-76.923c0-.406.33-.736.736-.736h15.226c.406 0 .736.33.736.736v61.188c0 .405-.33.735-.736.735h-15.226c-.406 0-.736-.33-.736-.735z"/><path d="m458.97 337.636h-86.071c-4.143 0-7.5 3.357-7.5 7.5s3.357 7.5 7.5 7.5h86.071c4.143 0 7.5-3.357 7.5-7.5s-3.358-7.5-7.5-7.5z"/><path d="m458.97 368.544h-86.071c-4.143 0-7.5 3.357-7.5 7.5s3.357 7.5 7.5 7.5h86.071c4.143 0 7.5-3.357 7.5-7.5s-3.358-7.5-7.5-7.5z"/><path d="m458.97 399.453h-86.071c-4.143 0-7.5 3.357-7.5 7.5s3.357 7.5 7.5 7.5h86.071c4.143 0 7.5-3.357 7.5-7.5s-3.358-7.5-7.5-7.5z"/></g><path d="m480.481 18.103h-130.094c-12.265 0-22.243 9.979-22.243 22.243v398.948h15v-398.948c0-3.994 3.249-7.243 7.243-7.243h130.095c3.994 0 7.243 3.249 7.243 7.243v297.364c0 4.143 3.357 7.5 7.5 7.5s7.5-3.357 7.5-7.5v-297.364c0-12.264-9.979-22.243-22.244-22.243z"/></svg>