<svg id="Capa_1" enable-background="new 0 0 511.921 511.921" height="512" viewBox="0 0 511.921 511.921" width="512" xmlns="http://www.w3.org/2000/svg"><path d="m496.681 340.784c-.156-.38-.156-.798-.001-1.177l14.381-34.979c1.45-3.525 1.048-7.521-1.074-10.688s-5.665-5.058-9.478-5.058h-36.341v-60.752c0-3.488-1.549-6.757-4.249-8.966-2.699-2.209-6.209-3.078-9.626-2.391l-4.92.992c-7.108-35.32-23.949-67.774-48.915-94.13-2.851-3.007-7.598-3.135-10.604-.287-3.007 2.849-3.136 7.596-.287 10.604 10.774 11.373 19.903 23.979 27.244 37.506l-34.17-10.466-52.671-58.748 1-9.312c12.532 5.415 24.487 12.312 35.668 20.643 1.346 1.003 2.917 1.486 4.476 1.486 2.288 0 4.548-1.043 6.021-3.019 2.475-3.322 1.788-8.021-1.533-10.496-33.395-24.881-73.117-38.032-114.873-38.032-34.745 0-68.81 9.373-98.511 27.106-3.557 2.123-4.718 6.728-2.595 10.284s6.731 4.719 10.284 2.595c7.755-4.63 15.841-8.618 24.165-11.99.288.237.592.462.923.659l39.34 23.477-20.189 54.442-64.294 30.934-18.556-10.274v-56.158c4.313-4.598 8.887-8.991 13.718-13.15 3.139-2.702 3.492-7.438.79-10.577-2.703-3.14-7.439-3.49-10.577-.79-42.544 36.631-66.944 89.806-66.944 145.89 0 12.761 1.256 25.485 3.735 37.902-7.867 1.683-13.559 8.692-13.559 16.754v27.532h-43.047c-3.813 0-7.356 1.892-9.479 5.059-2.122 3.168-2.523 7.163-1.073 10.688l14.38 34.978c.156.381.156.799.001 1.178l-14.381 34.977c-1.45 3.525-1.048 7.521 1.074 10.688s5.665 5.058 9.478 5.058h90.329c7.075 0 12.832-5.757 12.832-12.832v-33.328l7.602-1.08c36.167 35.409 83.792 54.87 134.554 54.87 61.956 0 119.393-29.648 155.357-78.825v9.86c0 6.654 5.413 12.067 12.067 12.067h76.356c3.812 0 7.355-1.891 9.478-5.058 2.122-3.167 2.524-7.163 1.074-10.688zm-57.623 7.743-11.972 15.037v-13.336zm-8.387-127.797-66.929 13.496-4.846-7.593 19.956-49.889 42.58 13.042c4.002 9.964 7.099 20.313 9.239 30.944zm-185.735-101.317 70.169-6.817 50.651 56.494-20.496 51.24-72.215 5.968-48.29-52.463zm29.806 121.796 71.871-5.939 1.363 2.135-79.642 16.059zm-18.014-162.694c19.215 0 37.962 3.021 55.749 8.897l-1.125 10.479-70.088 6.809-32.714-19.523c15.593-4.391 31.801-6.662 48.178-6.662zm-42.357 106.186 46.548 50.571-11.508 22.006-40.074 8.081c-4.061.818-6.688 4.773-5.869 8.834.818 4.062 4.773 6.696 8.834 5.869l236.867-47.76v99.637l-379.71 53.934v-75.256c0-1.015.723-1.897 1.718-2.099l109.163-22.012c4.061-.818 6.688-4.773 5.869-8.834-.818-4.061-4.771-6.694-8.834-5.869l-19.395 3.911-4.516-61.709zm63.562 247.418-20.311-24.605 29.363-37.387 53.62-7.616 14.636 41.059c-22.926 15.301-49.35 25.197-77.308 28.549zm-33.934-31.544-63.511 8.004-6.395-22.417 91.424-12.986zm-164.716-144.614c0-7.046.432-14.039 1.253-20.953.168-.109.343-.201.504-.326l39.445-30.561 17.942 9.935 4.731 64.647-60.439 12.187c-2.281-11.44-3.436-23.166-3.436-34.929zm33.013-64.471-27.732 21.485c5.387-21.585 14.795-41.967 27.732-60.087zm-83.182 191.682-12.343-30.022h37.688v36.408c0 5.304 2.282 10.355 6.26 13.859l25.367 22.359h-69.315l12.344-30.023c1.666-4.056 1.666-8.523-.001-12.581zm70.459 34.499-20.444-18.021 20.444-2.904zm59.53-29.38 5.544 19.435c-8.14-4.962-15.912-10.615-23.254-16.919zm34.777 33.72 50.958-6.422 14.67 17.772c-.927.014-1.85.046-2.779.046-21.84-.001-43.049-3.912-62.849-11.396zm173.985-27.703-12.103-33.951 49.293-7.001c-10.312 15.699-22.893 29.467-37.19 40.952zm114.942-47.822 12.343 30.022h-59.198l25.694-32.271c1.627-2.043 2.522-4.605 2.522-7.216v-33.14h30.981l-12.344 30.023c-1.665 4.059-1.665 8.526.002 12.582z"/></svg>