<svg id="Capa_1" enable-background="new 0 0 511.772 511.772" height="512" viewBox="0 0 511.772 511.772" width="512" xmlns="http://www.w3.org/2000/svg"><g><path d="m414.47 195.26c-6.496-7.574-15.94-12.144-25.91-12.536-9.972-.401-19.745 3.42-26.815 10.459l-16.085 16.012 16.819-139.844c1.819-15.121-7.433-29.328-22-33.781-8.563-2.617-17.865-1.444-25.513 3.215s-12.954 12.385-14.557 21.195l-12.826 70.488c-1.048-36.497-2.234-78.185-2.888-102.419-.422-15.729-13.126-28.049-28.921-28.049-15.131 0-27.76 11.827-28.751 26.924l-4.304 65.505-2.64-36.791c-1.11-15.489-14.146-27.622-29.674-27.622-8.102 0-15.674 3.198-21.323 9.005-5.649 5.806-8.639 13.464-8.416 21.561l2.547 92.948-11.571-35.828c-2.66-8.234-8.373-14.931-16.086-18.854-7.711-3.923-16.486-4.598-24.706-1.899-16.626 5.457-25.947 23.497-20.777 40.215l10.003 32.352c1.224 3.957 5.419 6.175 9.381 4.949 3.957-1.224 6.173-5.423 4.949-9.381l-10.003-32.352c-2.768-8.951 2.223-18.609 11.125-21.531 4.4-1.443 9.099-1.084 13.228 1.017 4.13 2.101 7.188 5.687 8.613 10.095l24.231 75.026c1.404 4.342 5.684 6.933 10.189 6.161 4.499-.773 7.673-4.646 7.547-9.208l-3.676-134.122c-.11-4.015 1.372-7.811 4.173-10.689s6.556-4.465 10.572-4.465c7.699 0 14.162 6.016 14.713 13.694l8.805 122.74c.345 4.81 4.234 8.428 9.053 8.428h.028c4.832-.014 8.716-3.661 9.032-8.482l9.954-151.488c.476-7.238 6.53-12.908 13.784-12.908 7.607 0 13.725 5.908 13.928 13.452 1.058 39.227 3.509 124.139 4.514 158.823.134 4.664 3.743 8.447 8.396 8.8 4.646.343 8.798-2.845 9.634-7.438l22.923-125.973c.85-4.669 3.55-8.601 7.603-11.07 4.054-2.468 8.784-3.065 13.326-1.678 7.607 2.324 12.44 9.745 11.49 17.644l-18.854 156.756c-.461 3.842 1.566 7.561 5.045 9.255 3.477 1.696 7.656.999 10.394-1.729l28.155-28.027c4.186-4.168 9.733-6.321 15.643-6.102 5.901.232 11.27 2.83 15.114 7.313 5.759 6.715 6.685 16.389 2.303 24.072l-20.768 36.425c-2.052 3.599-.798 8.179 2.801 10.23 1.173.668 2.448.985 3.708.985 2.606 0 5.139-1.36 6.522-3.786l20.768-36.425c7.509-13.172 5.923-29.756-3.949-41.267z"/><path d="m378.985 290.547c-3.599-2.051-8.178-.797-10.23 2.801l-36.524 64.061c-.646 1.132-.984 2.412-.984 3.715v30.545h-152.019v-17.807c0-.751-.113-1.498-.335-2.216l-55.013-177.92c-1.223-3.957-5.418-6.177-9.381-4.949-3.957 1.224-6.173 5.423-4.949 9.381l54.678 176.837v18.448c-9.817 3.809-16.798 13.349-16.798 24.496v2.816c-6.676 2.406-11.47 8.785-11.47 16.28v29.371c0 7.495 4.794 13.874 11.47 16.28v2.817c0 14.485 11.784 26.27 26.27 26.27h163.338c14.485 0 26.271-11.784 26.271-26.27v-21.474c0-4.143-3.357-7.5-7.5-7.5s-7.5 3.357-7.5 7.5v21.474c0 6.214-5.056 11.27-11.271 11.27h-163.338c-6.214 0-11.27-5.056-11.27-11.27v-1.779h100.835c17.359 0 31.481-14.122 31.481-31.481v-1.045c0-17.359-14.122-31.481-31.481-31.481h-100.835v-1.778c0-6.214 5.056-11.27 11.27-11.27h163.338c6.215 0 11.271 5.056 11.271 11.27v14.129c0 4.143 3.357 7.5 7.5 7.5s7.5-3.357 7.5-7.5v-14.129c0-11.247-7.106-20.861-17.062-24.6v-30.226l35.54-62.334c2.05-3.6.796-8.18-2.802-10.232zm-99.239 160.65v1.045c0 9.088-7.394 16.481-16.481 16.481h-109.986c-1.278 0-2.318-1.04-2.318-2.318v-29.371c0-1.278 1.04-2.318 2.318-2.318h109.986c9.088 0 16.481 7.393 16.481 16.481z"/></g></svg>