<svg id="Capa_1" enable-background="new 0 0 511.972 511.972" height="512" viewBox="0 0 511.972 511.972" width="512" xmlns="http://www.w3.org/2000/svg"><g><path d="m222.226 294.711c9.94 7.58 21.848 11.368 33.76 11.368 11.909 0 23.823-3.79 33.76-11.368 3.293-2.512 3.928-7.218 1.416-10.512s-7.218-3.929-10.512-1.416c-14.521 11.076-34.807 11.074-49.329 0-3.292-2.511-7.999-1.878-10.512 1.416-2.511 3.294-1.877 8.001 1.417 10.512z"/><path d="m224.305 225.244v-4.138c0-4.143-3.358-7.5-7.5-7.5s-7.5 3.357-7.5 7.5v4.138c0 4.143 3.358 7.5 7.5 7.5s7.5-3.357 7.5-7.5z"/><path d="m303.682 225.244v-4.138c0-4.143-3.358-7.5-7.5-7.5s-7.5 3.357-7.5 7.5v4.138c0 4.143 3.358 7.5 7.5 7.5s7.5-3.357 7.5-7.5z"/><path d="m95.793 460.455c-3.884-1.437-8.199.552-9.634 4.437-4.359 11.805-6.57 24.162-6.57 36.729 0 4.143 3.358 7.5 7.5 7.5s7.5-3.357 7.5-7.5c0-10.788 1.898-21.397 5.641-31.532 1.435-3.886-.551-8.199-4.437-9.634z"/><path d="m369.903 404.925-71.868-32.393v-23.348c20.723-9.111 38.321-24.86 49.612-45.396 1.996-3.629.671-8.189-2.958-10.186-3.631-1.996-8.19-.671-10.186 2.959-15.761 28.663-45.847 46.469-78.518 46.469-49.374 0-89.542-40.169-89.542-89.543v-80.181c14.064-2.217 27.818-6.706 40.766-13.44l7.337-3.816c.469 3.375 2.356 6.405 5.246 8.319 3.356 2.222 7.573 2.611 11.28 1.04l46.465-19.704 26.753 13.914c13.099 6.813 27.011 11.353 41.238 13.588v80.28c0 5.037-.428 10.114-1.272 15.09-.692 4.084 2.057 7.956 6.141 8.648.424.072.846.106 1.263.106 3.591 0 6.765-2.588 7.386-6.247.798-4.708 1.26-9.493 1.413-14.27h8.355c16.041 0 29.091-13.05 29.091-29.091 0-9.221-4.317-17.447-11.031-22.781l8.691-33.377c2.861-.641 5.713-1.368 8.549-2.199 4.188-1.227 7.517-4.256 9.132-8.311s1.28-8.543-.919-12.315l-8.773-15.038v-11.862c0-35.345-15.316-68.896-42.022-92.05-26.708-23.153-62.093-33.562-97.078-28.547l-8.467 1.213-8.468-1.213c-35.95-5.153-72.031 5.876-98.986 30.247-3.073 2.778-3.312 7.521-.534 10.594 2.778 3.072 7.521 3.312 10.593.533 23.639-21.372 55.274-31.043 86.8-26.526l9.297 1.332c.861.127 1.733.128 2.572.003l9.319-1.335c27.879-3.995 56.04 3.179 78.522 19.755l-3.989 20.367c-5.718 29.191-25.109 54.37-51.871 67.353l-14.479 7.025-45.33 19.223v-3.014c0-3.295-1.682-6.283-4.499-7.992-2.816-1.708-6.244-1.819-9.162-.301l-15.483 8.053c-26.983 14.035-57.888 17.13-87.1 8.739l9.21-15.787c.669-1.147 1.021-2.451 1.021-3.779v-13.893c0-19.986 5.533-39.449 16-56.284 2.187-3.518 1.109-8.142-2.409-10.329-3.517-2.188-8.143-1.108-10.329 2.409-11.947 19.214-18.262 41.415-18.262 64.204v11.864l-8.505 14.579c-2.264 3.882-2.609 8.503-.947 12.678s5.088 7.294 9.4 8.557c2.986.875 5.989 1.638 9.002 2.299l7.761 30.632c-6.724 5.333-11.049 13.566-11.049 22.795 0 16.041 13.05 29.092 29.091 29.092h8.281c.339 42.333 25.962 78.747 62.482 94.855v23.341l-71.868 32.394c-15.062 6.788-28.51 17.163-38.891 30.005-2.604 3.221-2.104 7.943 1.118 10.548 1.388 1.122 3.054 1.667 4.71 1.667 2.187 0 4.355-.952 5.837-2.785 3.848-4.761 8.19-9.124 12.92-13.017v70.278c0 4.143 3.358 7.5 7.5 7.5s7.5-3.357 7.5-7.5v-80.319c1.794-.959 3.615-1.865 5.47-2.701l10.501-4.733c3.022 2.605 6.131 5.082 9.327 7.42v80.333c0 4.143 3.358 7.5 7.5 7.5s7.5-3.357 7.5-7.5v-70.675c8.074 4.534 16.542 8.294 25.298 11.241v59.434c0 4.143 3.358 7.5 7.5 7.5s7.5-3.357 7.5-7.5v-55.255c8.268 1.847 16.727 3.001 25.298 3.418v51.837c0 4.143 3.358 7.5 7.5 7.5s7.5-3.357 7.5-7.5v-51.856c8.573-.438 17.031-1.608 25.298-3.476v29.83c-3.513 1.84-5.92 5.516-5.92 9.75v18.603c0 4.143 3.358 7.5 7.5 7.5s7.5-3.357 7.5-7.5v-14.607h44.41v14.607c0 4.143 3.358 7.5 7.5 7.5s7.5-3.357 7.5-7.5v-18.603c0-6.068-4.937-11.005-11.004-11.005h-2.188v-53.83c3.076-2.264 6.073-4.655 8.987-7.167l10.5 4.732c1.981.893 3.918 1.855 5.812 2.877v80.144c0 4.143 3.358 7.5 7.5 7.5s7.5-3.357 7.5-7.5v-69.979c20.451 17.05 32.832 42.582 32.832 69.979 0 4.143 3.358 7.5 7.5 7.5s7.5-3.357 7.5-7.5c0-41.631-24.525-79.587-62.48-96.696zm-1.09-163.108h-8.285v-28.182h8.285c7.77 0 14.091 6.321 14.091 14.091s-6.322 14.091-14.091 14.091zm4.125-42.884c-1.349-.192-2.725-.298-4.125-.298h-8.285v-23.932c6.272.267 12.571.093 18.857-.529zm-17.105-139.838 2.327-11.883c19.411 19.874 30.391 46.607 30.391 74.628v13.892c0 1.328.353 2.632 1.021 3.779l9.208 15.783c-29.389 8.305-60.441 5.13-87.569-8.981l-16.647-8.658 1.224-.594c30.98-15.029 53.426-44.175 60.045-77.966zm-222.354 115.229c4.139.39 8.284.604 12.423.604 1.849 0 3.696-.053 5.542-.131v21.357h-8.271c-1.388 0-2.752.104-4.089.293zm-4.397 50.92c0-7.77 6.321-14.091 14.091-14.091h8.271v28.183h-8.271c-7.769 0-14.091-6.321-14.091-14.092zm91.793 160.615c4.897-2.207 8.062-7.105 8.062-12.478v-18.905c8.632 2.314 17.698 3.556 27.049 3.556 9.261 0 18.34-1.235 27.049-3.569v18.919c0 5.372 3.165 10.271 8.062 12.479l14.518 6.544c-15.131 8.246-32.052 12.562-49.63 12.562-17.577 0-34.495-4.322-49.627-12.564zm108.378 89.006h-25.298v-32.793c8.759-2.972 17.226-6.761 25.298-11.322zm-73.267-39.899c-29.887 0-58.58-9.871-81.974-27.984l15.755-7.102c19.583 13.152 42.381 20.085 66.22 20.085s46.637-6.934 66.22-20.085l15.762 7.104c-23.397 18.115-52.094 27.982-81.983 27.982z"/></g></svg>