<svg id="Capa_1" enable-background="new 0 0 511.981 511.981" height="512" viewBox="0 0 511.981 511.981" width="512" xmlns="http://www.w3.org/2000/svg"><g><path d="m289.751 293.721c3.293-2.512 3.928-7.218 1.416-10.512s-7.218-3.929-10.512-1.416c-14.521 11.075-34.807 11.074-49.329 0-3.292-2.512-7.999-1.877-10.512 1.416-2.512 3.294-1.878 8 1.416 10.512 9.94 7.58 21.848 11.368 33.76 11.368 11.91 0 23.823-3.79 33.761-11.368z"/><path d="m224.309 225.254v-4.138c0-4.143-3.358-7.5-7.5-7.5s-7.5 3.357-7.5 7.5v4.138c0 4.143 3.358 7.5 7.5 7.5s7.5-3.358 7.5-7.5z"/><path d="m296.186 232.754c4.142 0 7.5-3.357 7.5-7.5v-4.138c0-4.143-3.358-7.5-7.5-7.5s-7.5 3.357-7.5 7.5v4.138c0 4.142 3.358 7.5 7.5 7.5z"/><path d="m421.694 455.25c-1.812-3.725-6.3-5.273-10.025-3.463-3.725 1.812-5.275 6.301-3.463 10.025 6.007 12.347 9.182 26.115 9.182 39.818 0 4.143 3.358 7.5 7.5 7.5s7.5-3.357 7.5-7.5c-.001-15.963-3.698-32.001-10.694-46.38z"/><path d="m369.908 404.936-71.868-32.394v-23.341c10.99-4.848 20.994-11.532 29.619-19.667.174.012.346.035.523.035.074 0 .15-.001.225-.003l19.391-.571c23.896-.705 44.301-13.915 54.583-35.338 10.033-20.903 8.066-45.039-5.052-63.39.38-1.872.581-3.809.581-5.791 0-7.954-3.211-15.169-8.401-20.426v-71.042c-.002-73.341-59.669-133.008-133.011-133.008-28.686 0-56.009 8.994-79.016 26.011-3.33 2.464-4.033 7.16-1.57 10.49 2.462 3.329 7.159 4.031 10.49 1.57 20.406-15.093 44.645-23.071 70.096-23.071 65.07 0 118.009 52.938 118.009 118.009v62.939c-1.841-.367-3.742-.562-5.689-.562h-8.285v-24.18c0-2.903-1.197-5.726-3.284-7.743-2.087-2.019-4.935-3.109-7.852-3.021l-31.957 1.088c-25.309.873-49.321-9.647-65.86-28.833-4.319-5.011-11.736-5.685-16.885-1.535l-13.975 11.258c-16.336 13.16-36.856 19.652-57.794 18.275-2.963-.203-5.902.856-8.068 2.885-2.167 2.028-3.409 4.894-3.409 7.861v27.945h-8.271c-1.597 0-3.162.135-4.689.383v-66.76c0-26.912 9.305-53.24 26.2-74.135 2.604-3.221 2.104-7.943-1.116-10.548-3.221-2.603-7.943-2.105-10.548 1.116-19.046 23.556-29.536 53.233-29.536 83.566v74.076c-5.775 5.32-9.401 12.939-9.401 21.392 0 .825.043 1.64.111 2.448-8.925 12.826-12.562 28.375-10.254 44.144.546 3.73 3.75 6.415 7.412 6.415.361 0 .728-.026 1.095-.08 4.099-.6 6.935-4.408 6.335-8.507-1.255-8.573-.183-17.045 3.004-24.728 5.32 5.774 12.938 9.399 21.389 9.399h8.357c.81 21.052 7.869 40.529 19.379 56.618l-6.273-.185c-17.111-.505-27.934-8.732-34-15.545-2.755-3.094-7.496-3.368-10.589-.614-3.094 2.755-3.369 7.495-.614 10.589 11.347 12.744 27.244 20.047 44.761 20.564l19.39.571c.075.002.15.003.225.003.175 0 .346-.014.518-.026 8.623 8.13 18.623 14.812 29.61 19.658v23.341l-71.868 32.393c-37.955 17.108-62.479 55.064-62.479 96.696 0 4.143 3.358 7.5 7.5 7.5s7.5-3.357 7.5-7.5c0-27.55 12.518-53.215 33.174-70.265v70.265c0 4.143 3.358 7.5 7.5 7.5s7.5-3.357 7.5-7.5v-80.32c1.786-.954 3.607-1.859 5.47-2.699l10.5-4.733c3.022 2.605 6.132 5.082 9.328 7.42v80.333c0 4.143 3.358 7.5 7.5 7.5s7.5-3.357 7.5-7.5v-70.675c8.074 4.534 16.542 8.294 25.298 11.241v59.434c0 4.143 3.358 7.5 7.5 7.5s7.5-3.357 7.5-7.5v-55.255c8.268 1.847 16.727 3.001 25.298 3.418v51.837c0 4.143 3.358 7.5 7.5 7.5s7.5-3.357 7.5-7.5v-51.856c8.573-.438 17.031-1.608 25.298-3.476v29.83c-3.513 1.84-5.92 5.516-5.92 9.75v18.603c0 4.143 3.358 7.5 7.5 7.5s7.5-3.357 7.5-7.5v-14.607h44.41v14.607c0 4.143 3.358 7.5 7.5 7.5s7.5-3.357 7.5-7.5v-18.603c0-6.068-4.937-11.005-11.004-11.005h-2.188v-53.83c3.076-2.264 6.073-4.655 8.986-7.166l10.5 4.733c1.981.893 3.911 1.873 5.812 2.898v80.122c0 4.143 3.358 7.5 7.5 7.5s7.5-3.357 7.5-7.5v-69.999c2.256 1.88 4.433 3.867 6.514 5.972 1.467 1.484 3.4 2.228 5.334 2.228 1.904 0 3.811-.722 5.272-2.166 2.946-2.912 2.974-7.66.062-10.606-9.202-9.307-19.911-16.75-31.833-22.124zm-240.821-176.459c0-7.77 6.321-14.091 14.091-14.091h8.271v28.182h-8.271c-7.77-.001-14.091-6.322-14.091-14.091zm239.731-18.091c7.77 0 14.091 6.321 14.091 14.091s-6.321 14.091-14.091 14.091h-8.285v-28.182zm-8.286 43.181h8.286c7.814 0 14.912-3.103 20.144-8.133 6.312 12.831 6.414 28.151-.105 41.732-7.808 16.267-23.323 26.299-41.502 26.834l-6.289.185c12.237-17.103 19.451-38.034 19.466-60.618zm-194.084-.068v-77.644c23.122.48 45.582-7.175 63.681-21.755l11.89-9.578c19.439 21.352 46.95 32.974 75.931 31.999l27.583-.939v77.917c0 49.374-40.168 89.542-89.542 89.542s-89.543-40.168-89.543-89.542zm53.788 132.66c5.289-2.386 8.706-7.676 8.706-13.477v-18.197c8.632 2.314 17.698 3.556 27.049 3.556 9.352 0 18.417-1.241 27.049-3.556v18.197c0 5.801 3.417 11.091 8.708 13.478l13.858 6.247c-15.129 8.243-32.041 12.569-49.615 12.569s-34.486-4.328-49.614-12.57zm109.022 88.715h-25.298v-32.793c8.759-2.972 17.226-6.761 25.298-11.322zm-73.267-39.898c-29.887 0-58.58-9.871-81.975-27.984l15.755-7.101c19.583 13.152 42.381 20.085 66.22 20.085s46.636-6.934 66.22-20.084l15.762 7.104c-23.396 18.112-52.093 27.98-81.982 27.98z"/></g></svg>