<svg id="Capa_1" enable-background="new 0 0 510.663 510.663" height="512" viewBox="0 0 510.663 510.663" width="512" xmlns="http://www.w3.org/2000/svg"><g><path d="m220.878 286.274c10.143 7.734 22.298 11.603 34.453 11.603s24.31-3.868 34.453-11.603c3.294-2.512 3.928-7.218 1.416-10.512-2.513-3.293-7.216-3.927-10.512-1.416-14.93 11.387-35.784 11.387-50.714 0-3.293-2.512-7.999-1.878-10.512 1.416-2.512 3.295-1.878 8.001 1.416 10.512z"/><path d="m222.72 217.017v-4.236c0-4.143-3.358-7.5-7.5-7.5s-7.5 3.357-7.5 7.5v4.236c0 4.143 3.358 7.5 7.5 7.5s7.5-3.358 7.5-7.5z"/><path d="m303.98 217.017v-4.236c0-4.143-3.357-7.5-7.5-7.5s-7.5 3.357-7.5 7.5v4.236c0 4.143 3.357 7.5 7.5 7.5s7.5-3.358 7.5-7.5z"/><path d="m107.838 427.772c-3.144-2.697-7.878-2.334-10.576.809-14.402 16.788-22.334 38.205-22.334 60.304v14.278c0 4.143 3.358 7.5 7.5 7.5s7.5-3.357 7.5-7.5v-14.278c0-18.519 6.648-36.466 18.719-50.536 2.697-3.145 2.335-7.879-.809-10.577z"/><path d="m368.855 431.808-30.341-13.675c-3.776-1.7-8.218-.021-9.92 3.756-1.702 3.776-.021 8.218 3.756 9.92l30.341 13.675c17.036 7.68 28.045 24.716 28.045 43.402v14.277c0 4.143 3.357 7.5 7.5 7.5s7.5-3.357 7.5-7.5v-14.277c0-24.574-14.477-46.979-36.881-57.078z"/><path d="m172.147 418.133-30.34 13.675c-22.404 10.1-36.881 32.504-36.881 57.078v14.277c0 4.143 3.358 7.5 7.5 7.5s7.5-3.357 7.5-7.5v-14.277c0-18.687 11.008-35.723 28.044-43.402l30.34-13.675c3.776-1.702 5.458-6.144 3.756-9.92-1.701-3.778-6.142-5.455-9.919-3.756z"/><path d="m381.183 404.458-82.983-37.402v-24.144c13.872-6.082 26.458-15.097 36.77-26.62 2.763-3.086 2.499-7.828-.588-10.59-3.086-2.764-7.828-2.498-10.59.588-17.419 19.464-42.372 30.628-68.461 30.628-50.643 0-91.844-41.201-91.844-91.845v-70.614c6.134 2.263 12.577 3.408 19.195 3.408 22.39 0 42.16-13.14 50.931-33.262 6.524 3.907 14.047 6.014 21.719 6.014 7.673 0 15.194-2.106 21.719-6.014 8.77 20.122 28.539 33.262 50.93 33.262 6.618 0 13.062-1.146 19.195-3.408v70.614c0 12.608-2.512 24.828-7.465 36.319-1.64 3.804.115 8.217 3.919 9.856 3.806 1.641 8.217-.116 9.856-3.919 4.37-10.138 7.103-20.759 8.173-31.69h4.769c15.296 0 27.74-12.443 27.74-27.739v-23.203c17.197-10.431 28.713-29.331 28.713-50.872 0-21.909-11.997-41.976-31.309-52.369-3.407-1.833-5.517-5.542-5.507-9.697v-.125c0-7.53-1.406-14.896-4.18-21.891-1.526-3.852-5.89-5.737-9.735-4.208-3.851 1.526-5.735 5.885-4.208 9.735 2.072 5.229 3.123 10.733 3.123 16.363v.106c-.023 9.68 5.109 18.464 13.397 22.925 14.445 7.773 23.418 22.779 23.418 39.16 0 24.512-19.942 44.454-44.454 44.454-.415 0-.833-.011-1.251-.024v-26.959c0-4.338-2.161-8.346-5.781-10.722-3.659-2.4-8.255-2.79-12.289-1.04-5.097 2.211-10.521 3.332-16.125 3.332-17.854 0-33.426-11.438-38.747-28.463-1.046-3.343-3.674-5.935-7.029-6.933-3.316-.985-6.889-.266-9.556 1.933-4.858 4.008-11.008 6.215-17.316 6.215-6.309 0-12.459-2.207-17.319-6.217-2.664-2.195-6.234-2.918-9.554-1.931-3.356.998-5.983 3.591-7.028 6.934-5.322 17.024-20.894 28.462-38.748 28.462-5.604 0-11.028-1.121-16.125-3.332-4.034-1.749-8.629-1.361-12.29 1.041-3.62 2.375-5.781 6.383-5.781 10.721v26.979c-.071 0-.141.004-.212.004-24.513 0-44.455-19.942-44.455-44.454 0-16.381 8.974-31.387 23.419-39.16 8.287-4.461 13.42-13.245 13.397-22.906v-.125c0-24.513 19.942-44.455 44.454-44.455 2.371 0 4.754.19 7.083.564 10.281 1.657 20.44-2.942 25.889-11.712 8.182-13.168 22.308-21.03 37.788-21.03s29.606 7.862 37.788 21.032c5.448 8.771 15.61 13.37 25.889 11.712 2.329-.374 4.712-.564 7.083-.564 8.5 0 16.77 2.418 23.915 6.992 3.488 2.232 8.127 1.216 10.36-2.272 2.233-3.489 1.216-8.127-2.272-10.36-9.565-6.123-20.632-9.359-32.003-9.359-3.166 0-6.352.254-9.467.756-4.293.688-8.516-1.201-10.763-4.819-10.938-17.607-29.828-28.118-50.53-28.118s-39.592 10.511-50.528 28.116c-2.249 3.618-6.472 5.507-10.765 4.819-3.115-.502-6.3-.756-9.467-.756-32.783 0-59.454 26.672-59.454 59.455v.143c.01 4.138-2.1 7.847-5.506 9.68-19.313 10.394-31.31 30.46-31.31 52.369 0 21.101 11.059 39.656 27.676 50.21v23.864c0 15.296 12.444 27.739 27.74 27.739h4.774c3.858 39.112 28.895 72.092 63.453 87.29v24.126l-82.98 37.403c-1.575.709-3.209 1.51-4.995 2.447-3.667 1.926-5.08 6.46-3.154 10.127 1.342 2.555 3.949 4.016 6.647 4.016 1.175 0 2.368-.277 3.48-.861 1.517-.797 2.885-1.468 4.185-2.053l41.881-18.878 64.064 49.417c3.916 3.021 8.796 4.685 13.742 4.685s9.826-1.664 13.743-4.685l64.064-49.417 41.881 18.877c27.771 12.519 45.717 40.29 45.717 70.752v14.277c0 4.143 3.357 7.5 7.5 7.5s7.5-3.357 7.5-7.5v-14.277c-.002-36.349-21.415-69.489-54.555-84.427zm-17.757-191.178c5.449 0 10.724-.752 15.741-2.131v16.751c0 7.024-5.715 12.739-12.74 12.739h-4.252v-27.381c.418.01.835.022 1.251.022zm-231.931 14.62v-17.047c5.325 1.57 10.953 2.427 16.779 2.427.071 0 .141-.003.212-.004v27.363h-4.251c-7.025.001-12.74-5.714-12.74-12.739zm123.836 124.018c9.495 0 18.861-1.271 27.869-3.711v19.131c0 3.929 1.591 7.62 4.278 10.307l-32.148 24.798-32.148-24.797c2.688-2.687 4.279-6.377 4.279-10.307v-19.115c8.89 2.403 18.232 3.694 27.87 3.694zm4.58 84.879c-1.324 1.021-2.908 1.562-4.581 1.562s-3.256-.54-4.581-1.562l-57.724-44.527 15.5-6.987 42.224 32.569c1.349 1.041 2.965 1.562 4.581 1.562s3.231-.521 4.581-1.562l42.224-32.57 15.501 6.987z"/></g></svg>