<svg id="Capa_1" enable-background="new 0 0 511.862 511.862" height="512" viewBox="0 0 511.862 511.862" width="512" xmlns="http://www.w3.org/2000/svg"><g><path d="m289.691 293.721c3.294-2.512 3.928-7.218 1.416-10.512-2.511-3.294-7.216-3.93-10.512-1.416-14.522 11.075-34.808 11.073-49.328 0-3.294-2.513-8.001-1.878-10.512 1.416-2.512 3.294-1.878 8 1.416 10.512 9.939 7.58 21.848 11.368 33.76 11.368 11.91 0 23.823-3.79 33.76-11.368z"/><path d="m224.25 226.254v-4.138c0-4.143-3.357-7.5-7.5-7.5s-7.5 3.357-7.5 7.5v4.138c0 4.143 3.357 7.5 7.5 7.5s7.5-3.358 7.5-7.5z"/><path d="m296.127 233.754c4.143 0 7.5-3.357 7.5-7.5v-4.138c0-4.143-3.357-7.5-7.5-7.5s-7.5 3.357-7.5 7.5v4.138c0 4.142 3.357 7.5 7.5 7.5z"/><path d="m369.455 433.007-30.341-13.675c-3.776-1.7-8.218-.021-9.92 3.756-1.702 3.776-.021 8.218 3.756 9.92l30.341 13.675c17.036 7.68 28.045 24.716 28.045 43.402v14.277c0 4.143 3.357 7.5 7.5 7.5s7.5-3.357 7.5-7.5v-14.277c0-24.574-14.477-46.979-36.881-57.078z"/><path d="m172.748 419.332-30.341 13.675c-22.404 10.1-36.881 32.504-36.881 57.078v14.277c0 4.143 3.357 7.5 7.5 7.5s7.5-3.357 7.5-7.5v-14.277c0-18.687 11.009-35.723 28.045-43.402l30.341-13.675c3.776-1.702 5.458-6.144 3.756-9.92-1.703-3.777-6.145-5.455-9.92-3.756z"/><path d="m419.786 437.256c-2.362-3.4-7.033-4.243-10.438-1.882-3.402 2.362-4.244 7.036-1.882 10.438 9.073 13.065 13.869 28.374 13.869 44.271v14.278c0 4.143 3.357 7.5 7.5 7.5s7.5-3.357 7.5-7.5v-14.278c0-18.97-5.723-37.237-16.549-52.827z"/><path d="m375.62 419.334c3.774 1.7 7.479 3.751 11.012 6.096 1.275.846 2.715 1.251 4.14 1.251 2.429 0 4.812-1.179 6.256-3.354 2.291-3.451 1.349-8.105-2.103-10.396-4.208-2.791-8.63-5.238-13.142-7.271l-82.982-37.403v-19.413c17.956-8.105 33.225-21.14 44.08-37.366 10.807 17.765 30.151 28.973 51.754 28.973h15.604c8.165 0 14.809-6.644 14.809-14.809v-90.867c0-18.248-14.846-33.094-33.094-33.094h-2.506v-68.67c0-29.274-9.334-57.05-26.993-80.323-2.502-3.299-7.206-3.945-10.508-1.441-3.3 2.504-3.945 7.208-1.441 10.508 15.663 20.645 23.942 45.284 23.942 71.257v70.939c-1.841-.367-3.743-.562-5.69-.562h-8.284v-32.18c0-2.903-1.197-5.726-3.284-7.743-2.087-2.019-4.947-3.109-7.852-3.021l-31.958 1.088c-25.327.872-49.32-9.648-65.86-28.833-4.317-5.011-11.735-5.683-16.885-1.535l-13.975 11.258c-16.338 13.161-36.872 19.655-57.794 18.275-2.967-.198-5.901.856-8.068 2.885-2.166 2.028-3.408 4.894-3.408 7.861v31.945h-8.271c-1.597 0-3.163.135-4.69.383v-70.76c0-65.074 52.939-118.012 118.009-118.012 26.749 0 51.971 8.726 72.938 25.234 3.254 2.563 7.97 2.002 10.532-1.253 2.562-3.254 2.002-7.97-1.253-10.532-23.637-18.611-52.067-28.449-82.217-28.449-73.342 0-133.01 59.667-133.01 133.009v68.673c-17.307.076-36.6 14.2-36.6 33.089v23.057c0 4.143 3.357 7.5 7.5 7.5s7.5-3.357 7.5-7.5v-23.057c0-6.957 6.99-15.138 16.47-17.452-2.707 4.417-4.271 9.607-4.271 15.157 0 16.041 13.051 29.091 29.092 29.091h8.579c.916 11.942 3.853 23.326 8.46 33.817-6.532 18.068-23.517 30.064-42.916 30.064h-15.413v-35.657c0-4.143-3.357-7.5-7.5-7.5s-7.5 3.357-7.5 7.5v35.849c0 8.165 6.644 14.809 14.809 14.809h15.604c21.6 0 40.939-11.204 51.745-28.965 10.855 16.223 26.122 29.255 44.075 37.359v19.413l-82.982 37.402c-33.14 14.938-54.553 48.078-54.553 84.428v14.277c0 4.143 3.357 7.5 7.5 7.5s7.5-3.357 7.5-7.5v-14.277c0-30.462 17.945-58.233 45.717-70.752l41.88-18.877 64.064 49.417c3.917 3.021 8.797 4.685 13.742 4.685 4.946 0 9.826-1.664 13.743-4.685l64.064-49.417zm34.428-184.562v90.676h-15.413c-19.405 0-36.395-12.004-42.922-30.081 4.602-10.487 7.537-21.864 8.452-33.8h8.593c16.041 0 29.092-13.05 29.092-29.091 0-5.795-1.71-11.194-4.642-15.734 9.391.649 16.84 8.477 16.84 18.03zm-41.29-16.386c7.771 0 14.092 6.321 14.092 14.091s-6.321 14.091-14.092 14.091h-8.284v-28.182zm-239.731 14.091c0-7.77 6.321-14.091 14.092-14.091h8.271v28.182h-8.271c-7.77-.001-14.092-6.322-14.092-14.091zm37.363 21.022v-77.644c23.103.461 45.58-7.176 63.681-21.755l11.889-9.578c19.441 21.352 46.976 32.987 75.931 31.999l27.584-.939v77.917c0 49.374-40.168 89.542-89.542 89.542s-89.543-40.168-89.543-89.542zm89.542 104.542c9.648 0 18.993-1.32 27.869-3.778v14.274c0 3.929 1.591 7.62 4.278 10.307l-32.148 24.798-32.147-24.797c2.688-2.687 4.279-6.378 4.279-10.307v-14.274c8.876 2.457 18.22 3.777 27.869 3.777zm4.58 79.955c-1.324 1.021-2.908 1.562-4.581 1.562-1.672 0-3.256-.54-4.58-1.562l-57.725-44.527 15.5-6.986 42.224 32.569c1.35 1.041 2.966 1.562 4.581 1.562s3.231-.521 4.581-1.562l42.224-32.569 15.501 6.986z"/></g></svg>