<svg id="Capa_1" enable-background="new 0 0 511.862 511.862" height="512" viewBox="0 0 511.862 511.862" width="512" xmlns="http://www.w3.org/2000/svg"><g><path d="m105.312 432.196c-3.281-2.526-7.99-1.918-10.52 1.363-12.424 16.124-19.266 36.198-19.266 56.524v14.278c0 4.143 3.357 7.5 7.5 7.5s7.5-3.357 7.5-7.5v-14.278c0-17.032 5.734-33.854 16.148-47.368 2.529-3.28 1.919-7.99-1.362-10.519z"/><path d="m369.454 433.007-30.341-13.675c-3.776-1.7-8.219-.021-9.92 3.756-1.702 3.776-.021 8.218 3.756 9.92l30.341 13.675c17.036 7.68 28.045 24.716 28.045 43.402v14.277c0 4.143 3.357 7.5 7.5 7.5s7.5-3.357 7.5-7.5v-14.277c0-24.574-14.477-46.979-36.881-57.078z"/><path d="m172.747 419.332-30.341 13.675c-22.404 10.1-36.881 32.504-36.881 57.078v14.277c0 4.143 3.357 7.5 7.5 7.5s7.5-3.357 7.5-7.5v-14.277c0-18.687 11.009-35.723 28.045-43.402l30.341-13.675c3.776-1.702 5.458-6.144 3.756-9.92-1.703-3.777-6.145-5.455-9.92-3.756z"/><path d="m381.782 405.657-82.982-37.402v-22.66c13.785-6.075 26.271-15.095 36.472-26.633 2.743-3.104 2.452-7.843-.651-10.587-3.104-2.745-7.843-2.453-10.587.651-17.146 19.396-41.811 30.52-67.668 30.52-49.785 0-90.289-40.504-90.289-90.29v-71.737c13.19-7.097 24.159-17.553 31.911-30.472l1.027-1.714c.127-.214.392-.293.62-.188l6.602 3.118c31.857 15.049 68.402 15.049 100.26 0l6.604-3.118c.222-.108.49-.026.618.188l1.028 1.714c7.749 12.917 18.719 23.374 31.91 30.471v71.737c0 11.97-2.308 23.603-6.86 34.573-1.587 3.825.228 8.214 4.054 9.802 3.822 1.584 8.213-.227 9.802-4.054 4.176-10.065 6.726-20.605 7.629-31.433h2.358c17.286 0 31.349-14.062 31.349-31.349 0-9.422-4.184-17.881-10.785-23.633l7.456-51.578c.01-.068.019-.137.026-.204 3.192-27.376-1.885-54.659-14.683-78.902-1.935-3.662-6.469-5.064-10.135-3.131-3.662 1.935-5.064 6.472-3.131 10.135 11.36 21.519 15.876 45.743 13.062 70.06l-6.732 46.569c-2.075-.434-4.224-.665-6.427-.665h-1.982v-22.554c0-2.916-1.689-5.566-4.332-6.798-12.403-5.779-22.679-15.034-29.716-26.765l-1.029-1.715c-4.113-6.854-12.663-9.447-19.888-6.032l-6.602 3.118c-27.788 13.122-59.661 13.124-87.447 0l-6.601-3.118c-7.225-3.411-15.777-.821-19.892 6.034l-1.027 1.714c-7.037 11.729-17.312 20.984-29.715 26.764-2.643 1.231-4.332 3.882-4.332 6.798v22.554h-1.84c-1.847 0-3.654.17-5.414.478l-6.76-46.385c-3.95-34.138 6.885-68.433 29.736-94.104 22.875-25.696 55.726-40.434 90.131-40.434 34.075 0 66.717 14.509 89.556 39.807 2.778 3.074 7.52 3.315 10.594.541 3.074-2.776 3.316-7.519.541-10.594-25.68-28.442-62.38-44.754-100.691-44.754-38.681 0-75.616 16.57-101.335 45.462-25.719 28.893-37.899 67.498-33.419 105.919.008.07.018.142.027.213l7.401 50.786c-7.138 5.751-11.717 14.557-11.717 24.416 0 17.286 14.062 31.349 31.349 31.349h2.219c3.26 38.808 27.652 71.698 61.606 87.08v23.031l-82.981 37.403c-2.994 1.349-5.961 2.884-8.82 4.561-3.572 2.096-4.769 6.691-2.673 10.265 1.396 2.38 3.902 3.705 6.476 3.705 1.289 0 2.597-.333 3.789-1.032 2.397-1.407 4.884-2.692 7.392-3.822l41.881-18.878 64.063 49.417c3.917 3.021 8.797 4.685 13.742 4.685 4.946 0 9.826-1.664 13.743-4.685l64.064-49.417 41.881 18.877c27.771 12.519 45.717 40.29 45.717 70.752v14.277c0 4.143 3.357 7.5 7.5 7.5s7.5-3.357 7.5-7.5v-14.277c0-36.352-21.413-69.491-54.553-84.43zm-18.143-195.211c9.015 0 16.349 7.334 16.349 16.35 0 9.015-7.334 16.349-16.349 16.349h-1.982v-32.698h1.982zm-230.751 16.35c0-9.016 7.334-16.35 16.349-16.35h1.84v32.698h-1.84c-9.015.001-16.349-7.333-16.349-16.348zm123.478 127.75c9.352 0 18.569-1.25 27.434-3.646v17.638c0 3.929 1.591 7.62 4.278 10.306l-32.148 24.798-32.147-24.797c2.688-2.687 4.279-6.377 4.279-10.307v-17.86c9.01 2.517 18.502 3.868 28.304 3.868zm4.145 83.45c-1.324 1.021-2.908 1.562-4.581 1.562-1.672 0-3.256-.54-4.58-1.562l-57.724-44.527 15.5-6.986 42.224 32.569c1.35 1.041 2.966 1.562 4.581 1.562s3.231-.521 4.581-1.562l42.224-32.57 15.5 6.987z"/><path d="m221.478 287.474c10.143 7.734 22.298 11.602 34.453 11.602s24.31-3.867 34.452-11.602c3.294-2.512 3.928-7.218 1.416-10.512-2.512-3.293-7.216-3.927-10.512-1.416-14.93 11.387-35.784 11.385-50.714 0-3.294-2.513-8-1.878-10.512 1.416s-1.877 8 1.417 10.512z"/><path d="m223.319 218.216v-4.236c0-4.143-3.357-7.5-7.5-7.5s-7.5 3.357-7.5 7.5v4.236c0 4.143 3.357 7.5 7.5 7.5s7.5-3.358 7.5-7.5z"/><path d="m304.579 218.216v-4.236c0-4.143-3.357-7.5-7.5-7.5s-7.5 3.357-7.5 7.5v4.236c0 4.143 3.357 7.5 7.5 7.5s7.5-3.358 7.5-7.5z"/></g></svg>