<?xml version="1.0" encoding="iso-8859-1"?>
<!-- Generator: Adobe Illustrator 19.0.0, SVG Export Plug-In . SVG Version: 6.00 Build 0)  -->
<svg version="1.1" id="Capa_1" xmlns="http://www.w3.org/2000/svg" xmlns:xlink="http://www.w3.org/1999/xlink" x="0px" y="0px"
	 viewBox="0 0 512 512" style="enable-background:new 0 0 512 512;" xml:space="preserve">
<g>
	<g>
		<path d="M343.69,270.845l-9.717-4.623c-2.365-1.126-3.894-3.544-3.894-6.163v-18.196c0-2.619,1.529-5.038,3.894-6.164l9.164-4.36
			c8.082-3.846,12.958-12.103,12.421-21.037l-1.886-31.444c-0.248-4.14-3.764-7.311-7.948-7.048
			c-4.141,0.248-7.296,3.807-7.048,7.948l1.886,31.444c0.167,2.79-1.356,5.37-3.881,6.571l-9.164,4.36
			c-7.57,3.602-12.461,11.346-12.461,19.729v18.196c0,8.383,4.891,16.126,12.461,19.728l9.717,4.623
			c2.365,1.126,3.894,3.544,3.894,6.164v11.496H170.871v-11.496c0-2.619,1.529-5.038,3.894-6.164l9.717-4.623
			c7.57-3.602,12.461-11.345,12.461-19.728v-18.196c0-8.383-4.891-16.127-12.461-19.729l-9.164-4.36
			c-2.525-1.201-4.048-3.781-3.881-6.571l5.827-97.152c0.173-2.886,2.574-5.147,5.466-5.147h146.54c2.892,0,5.293,2.261,5.466,5.148
			l1.845,30.746c0.247,4.141,3.81,7.317,7.948,7.048c4.141-0.248,7.296-3.807,7.048-7.948l-1.845-30.745
			c-0.644-10.745-9.533-19.166-20.276-19.263v-8.331c0-7.66-6.232-13.891-13.892-13.891h-26.898v-7.053
			c5.162-1.413,8.972-6.132,8.972-11.735V12.178C297.637,5.462,292.175,0,285.46,0h-58.92c-6.715,0-12.178,5.462-12.178,12.178
			v40.701c0,5.603,3.809,10.323,8.972,11.735v7.053h-26.898c-7.66,0-13.892,6.231-13.892,13.891v8.331
			c-10.743,0.097-19.632,8.519-20.276,19.262l-5.827,97.151c-0.537,8.933,4.34,17.191,12.421,21.037l9.164,4.36
			c2.365,1.126,3.894,3.544,3.894,6.164v18.196c0,2.618-1.529,5.037-3.894,6.163l-9.717,4.623
			c-7.57,3.602-12.461,11.346-12.461,19.729v192.169c0,16.133,13.124,29.257,29.257,29.257h141.789
			c16.133,0,29.257-13.124,29.257-29.257V290.574C356.152,282.191,351.26,274.447,343.69,270.845z M229.385,15.023h53.229v35.011
			h-53.229V15.023z M273.643,65.057v6.611h-35.286v-6.611H273.643z M197.567,86.69h116.866v7.191H197.567V86.69z M341.13,435.299
			L341.13,435.299H230.835c-4.149,0-7.511,3.363-7.511,7.511c0,4.149,3.363,7.511,7.511,7.511h110.294v32.421
			c0,7.849-6.386,14.234-14.234,14.234H185.106c-7.849,0-14.234-6.386-14.234-14.234v-32.421h25.014
			c4.149,0,7.511-3.363,7.511-7.511c0-4.149-3.363-7.511-7.511-7.511h-25.014V317.093H341.13V435.299z"/>
	</g>
</g>
<g>
	<g>
		<path d="M282.487,358.432c-6.607-11.069-14.396-20.517-18.45-25.163c0-0.001-0.001-0.001-0.001-0.001
			c-2.027-2.323-4.957-3.656-8.038-3.656s-6.01,1.333-8.039,3.657c-4.054,4.646-11.843,14.094-18.45,25.163
			c-8.674,14.533-12.543,27.236-11.499,37.754c2.447,24.632,25.162,31.034,37.448,31.034c0.189,0,0.378-0.002,0.562-0.005
			c1.443,0.004,9.032-0.094,17.128-3.368c12.156-4.917,19.557-14.74,20.838-27.661C295.031,385.667,291.161,372.964,282.487,358.432
			z M279.039,394.703c-1.671,16.831-19.903,17.49-22.716,17.49c-0.125-0.001-0.209-0.003-0.32-0.002
			c-0.043,0-0.085,0.001-0.12,0.001c-2.152,0.019-21.212-0.269-22.921-17.489c-1.293-13.029,10.516-32.483,23.038-47.687
			C268.522,362.222,280.331,381.674,279.039,394.703z"/>
	</g>
</g>
<g>
</g>
<g>
</g>
<g>
</g>
<g>
</g>
<g>
</g>
<g>
</g>
<g>
</g>
<g>
</g>
<g>
</g>
<g>
</g>
<g>
</g>
<g>
</g>
<g>
</g>
<g>
</g>
<g>
</g>
</svg>
