<?xml version="1.0" encoding="iso-8859-1"?>
<!-- Generator: Adobe Illustrator 19.0.0, SVG Export Plug-In . SVG Version: 6.00 Build 0)  -->
<svg version="1.1" id="Capa_1" xmlns="http://www.w3.org/2000/svg" xmlns:xlink="http://www.w3.org/1999/xlink" x="0px" y="0px"
	 viewBox="0 0 512.001 512.001" style="enable-background:new 0 0 512.001 512.001;" xml:space="preserve">
<g>
	<g>
		<path d="M119.034,99.911c-0.929,0-1.689,0.337-2.28,0.844l-9.965,7.6c-1.351,0.845-2.111,2.449-2.111,3.97
			c0,2.194,1.435,4.39,3.546,4.39c0.591,0,1.351-0.168,2.026-0.76l2.702-2.702h0.001v45.095c0,2.28,2.703,3.462,5.49,3.462
			c2.703,0,5.489-1.182,5.489-3.462v-54.891C123.932,101.263,121.315,99.911,119.034,99.911z"/>
	</g>
</g>
<g>
	<g>
		<path d="M152.387,100.08c-11.147,0-19.76,5.236-19.76,19.338v23.561c0,14.103,8.613,19.339,19.76,19.339
			c11.146,0,19.845-5.236,19.845-19.339v-23.561C172.232,105.315,163.534,100.08,152.387,100.08z M161.254,142.979
			c0,6.672-3.378,9.712-8.867,9.712c-5.574,0-8.783-3.04-8.783-9.712v-23.561c0-6.671,3.209-9.711,8.783-9.711
			c5.489,0,8.867,3.04,8.867,9.711V142.979z"/>
	</g>
</g>
<g>
	<g>
		<path d="M384.696,361.606h-24.114c-1.97,0-3.872,1.426-3.872,2.784v10.461c0,1.63,1.969,2.853,4.347,2.853
			c2.309,0,4.483-1.223,4.483-2.853v-5.502h14.197v4.483l-17.73,31.79c-0.34,0.544-0.407,1.019-0.407,1.563
			c0,2.514,2.785,4.415,5.57,4.415c1.155,0,2.038-0.407,2.513-1.29l17.186-33.013c0.816-1.629,1.698-3.735,1.698-5.162h0v-7.745
			C388.567,363.031,386.394,361.606,384.696,361.606z"/>
	</g>
</g>
<g>
	<g>
		<path d="M287.579,165.128c-1.952,0-3.56,0.688-4.135,2.526l-18.834,65.459l-18.948-65.459c-0.575-1.837-2.182-2.526-4.25-2.526
			c-3.33,0-7.58,2.066-7.58,5.052c0,0.345,0,0.69,0.115,1.034l22.969,74.417c0.918,2.756,4.249,4.135,7.694,4.135
			s6.891-1.379,7.695-4.135l22.738-74.417c0.116-0.344,0.23-0.69,0.23-1.034C295.273,167.31,291.024,165.128,287.579,165.128z"/>
	</g>
</g>
<g>
	<g>
		<path d="M314.335,185.682c0-7.234,5.971-10.45,14.355-10.45c9.761,0,12.747,4.364,15.848,4.364c3.444,0,5.052-4.25,5.052-6.546
			c0-6.316-13.436-8.269-20.9-8.269c-12.289,0-26.529,5.054-26.529,22.05c0,27.563,37.323,19.638,37.323,39.965
			c0,8.269-6.201,12.174-14.47,12.172c-12.748,0-15.504-9.072-19.638-9.072c-2.871,0-5.283,3.789-5.283,6.546
			c0,5.742,10.451,13.551,25.381,13.551c15.159,0,26.184-8.038,26.184-24.46C351.658,194.984,314.335,202.68,314.335,185.682z"/>
	</g>
</g>
<g>
	<g>
		<path d="M278.942,73.679c-0.703-4.182-3.003-7.829-6.473-10.268l-59.586-41.877c-8.219-5.777-17.874-8.831-27.923-8.831h-2.199
			H96.404h-2.199c-10.047,0-19.702,3.053-27.923,8.831L6.697,63.409c-3.471,2.439-5.769,6.086-6.474,10.269
			c-0.705,4.183,0.275,8.382,2.756,11.823l23.949,33.204c0.356,0.493,0.739,0.952,1.137,1.392c0.126,0.14,0.261,0.267,0.391,0.402
			c0.283,0.291,0.572,0.573,0.872,0.838c0.158,0.139,0.318,0.273,0.48,0.405c0.299,0.244,0.605,0.473,0.918,0.691
			c0.163,0.114,0.323,0.23,0.489,0.337c0.374,0.241,0.757,0.46,1.147,0.667c0.11,0.058,0.215,0.126,0.327,0.181
			c0.501,0.251,1.014,0.472,1.537,0.666c0.145,0.054,0.293,0.094,0.439,0.144c0.386,0.131,0.775,0.251,1.169,0.351
			c0.194,0.049,0.389,0.089,0.585,0.131c0.36,0.077,0.723,0.141,1.088,0.192c0.2,0.028,0.4,0.056,0.601,0.076
			c0.392,0.04,0.786,0.059,1.181,0.069c0.128,0.003,0.255,0.022,0.383,0.022c0.052,0,0.105-0.005,0.157-0.006
			c0.122-0.001,0.244-0.009,0.365-0.013c0.335-0.011,0.67-0.032,1.005-0.065c0.144-0.014,0.288-0.03,0.432-0.048
			c0.344-0.044,0.687-0.1,1.029-0.167c0.11-0.022,0.22-0.038,0.33-0.062c0.447-0.097,0.892-0.213,1.334-0.351
			c0.084-0.026,0.167-0.059,0.25-0.087c0.358-0.118,0.714-0.25,1.066-0.395c0.134-0.056,0.267-0.115,0.401-0.175
			c0.316-0.141,0.629-0.293,0.939-0.456c0.121-0.064,0.242-0.124,0.362-0.191c0.42-0.235,0.836-0.484,1.241-0.761l9.176-6.272
			l6.991-4.777v36.976c0,4.149,3.362,7.511,7.511,7.511s7.511-3.362,7.511-7.511V97.214c0-2.785-1.541-5.342-4.005-6.643
			c-2.466-1.301-5.447-1.131-7.744,0.441l-6.802,4.649L36.232,61.013l38.689-27.19c5.677-3.99,12.346-6.099,19.285-6.099h0.778
			c8.268,17.011,25.619,27.925,44.601,27.925c18.983,0,36.333-10.913,44.6-27.925h0.778c6.94,0,13.608,2.109,19.285,6.098
			l38.689,27.191l-24.989,34.649l-6.802-4.649c-2.297-1.572-5.278-1.742-7.744-0.441c-2.464,1.3-4.005,3.857-4.005,6.643v129.584
			H79.772V183.37c0-4.149-3.362-7.511-7.511-7.511s-7.511,3.362-7.511,7.511v43.94c0,8.002,6.51,14.512,14.511,14.512h120.644
			c8.002,0,14.512-6.51,14.512-14.512V111.447l1.092,0.746c0.002,0.001,0.004,0.003,0.007,0.005l15.068,10.298
			c0.403,0.275,0.816,0.523,1.233,0.757c0.127,0.071,0.255,0.135,0.383,0.202c0.303,0.159,0.608,0.308,0.917,0.446
			c0.138,0.061,0.276,0.123,0.415,0.18c0.346,0.143,0.696,0.271,1.047,0.388c0.089,0.029,0.177,0.065,0.267,0.093
			c0.439,0.137,0.881,0.252,1.326,0.349c0.116,0.025,0.232,0.043,0.348,0.065c0.335,0.065,0.671,0.121,1.009,0.164
			c0.149,0.019,0.298,0.035,0.448,0.05c0.327,0.032,0.653,0.053,0.98,0.064c0.13,0.004,0.26,0.013,0.39,0.014
			c0.05,0,0.1,0.005,0.15,0.005c0.121,0,0.241-0.018,0.362-0.021c0.405-0.009,0.809-0.03,1.212-0.071
			c0.193-0.02,0.384-0.046,0.576-0.073c0.376-0.052,0.748-0.119,1.12-0.198c0.186-0.04,0.372-0.078,0.556-0.125
			c0.41-0.104,0.814-0.228,1.216-0.365c0.131-0.045,0.265-0.081,0.395-0.129c0.528-0.196,1.047-0.42,1.554-0.673
			c0.095-0.048,0.186-0.106,0.28-0.156c0.406-0.214,0.805-0.443,1.193-0.694c0.159-0.103,0.312-0.214,0.467-0.323
			c0.32-0.223,0.632-0.457,0.937-0.706c0.158-0.129,0.315-0.26,0.468-0.396c0.304-0.268,0.596-0.553,0.882-0.848
			c0.128-0.132,0.26-0.258,0.384-0.395c0.398-0.44,0.782-0.9,1.138-1.393l23.949-33.205
			C278.667,82.061,279.646,77.863,278.942,73.679z M48.814,104.14l-8.707,5.951c-0.321,0.219-0.767,0.142-0.994-0.174L15.164,76.714
			c-0.116-0.162-0.159-0.345-0.126-0.543c0.033-0.198,0.133-0.357,0.297-0.472l8.606-6.047L48.814,104.14z M139.584,40.627
			c-10.584,0-20.424-4.884-26.895-12.902h53.789C160.007,35.742,150.167,40.627,139.584,40.627z M264.003,76.713l-23.949,33.204
			c-0.228,0.316-0.673,0.393-0.994,0.174l-8.707-5.95l24.874-34.489l8.606,6.047c0.163,0.115,0.263,0.274,0.296,0.471
			C264.162,76.367,264.12,76.549,264.003,76.713z"/>
	</g>
</g>
<g>
	<g>
		<path d="M511.778,331.154c-0.337-2.003-1.049-3.877-2.071-5.56c-0.045-0.074-0.082-0.154-0.128-0.227
			c-0.174-0.277-0.372-0.538-0.564-0.803c-0.11-0.152-0.207-0.312-0.323-0.459c-0.059-0.076-0.128-0.144-0.188-0.218
			c-0.913-1.128-1.979-2.142-3.2-3l-25.209-17.716l-34.376-24.161c-8.221-5.777-17.876-8.831-27.923-8.831h-2.199h-86.359h-2.199
			c-10.047,0-19.702,3.053-27.923,8.832l-59.585,41.876c-3.471,2.438-5.769,6.085-6.474,10.267
			c-0.704,4.184,0.274,8.383,2.756,11.825l23.949,33.203c5.035,6.984,14.55,8.649,21.654,3.79l16.167-11.049v115.864
			c0,8.002,6.51,14.512,14.512,14.512h120.643c8.002,0,14.512-6.51,14.512-14.512v-42.257c0-4.149-3.362-7.511-7.511-7.511
			s-7.511,3.362-7.511,7.511v41.746H312.607v-37.699l24.318-24.317c9.266,8.77,21.758,14.166,35.493,14.166
			c28.502,0,51.689-23.187,51.689-51.688c0-13.736-5.396-26.227-14.167-35.494l45.231-45.232l41.497,29.165
			c0.082,0.057,0.147,0.125,0.197,0.204c0.049,0.079,0.083,0.167,0.1,0.267c0.033,0.197-0.01,0.379-0.127,0.542l-23.947,33.204
			c-0.233,0.32-0.667,0.397-0.995,0.174l-27.917-19.078c-0.263-0.18-0.535-0.334-0.811-0.476c-0.07-0.036-0.14-0.068-0.211-0.101
			c-0.231-0.11-0.464-0.207-0.702-0.292c-0.056-0.02-0.111-0.042-0.168-0.061c-0.302-0.1-0.606-0.182-0.914-0.242
			c-0.008-0.001-0.015-0.002-0.023-0.003c-0.293-0.056-0.587-0.089-0.882-0.11c-0.069-0.005-0.138-0.008-0.208-0.011
			c-0.268-0.011-0.536-0.01-0.803,0.008c-0.041,0.003-0.083,0.002-0.124,0.005c-0.303,0.025-0.603,0.07-0.901,0.131
			c-0.068,0.014-0.134,0.032-0.201,0.048c-0.245,0.057-0.486,0.127-0.724,0.208c-0.064,0.022-0.128,0.042-0.192,0.066
			c-0.295,0.11-0.583,0.235-0.864,0.382c-0.005,0.003-0.011,0.004-0.016,0.007c-0.017,0.009-0.032,0.021-0.049,0.03
			c-0.254,0.137-0.5,0.291-0.739,0.457c-0.057,0.04-0.114,0.08-0.169,0.121c-0.227,0.168-0.446,0.347-0.655,0.542
			c-0.021,0.02-0.044,0.037-0.065,0.057c-0.219,0.209-0.425,0.435-0.621,0.674c-0.054,0.066-0.102,0.134-0.153,0.201
			c-0.082,0.107-0.167,0.209-0.244,0.321c-0.051,0.075-0.093,0.154-0.141,0.23c-0.051,0.081-0.101,0.161-0.149,0.244
			c-0.132,0.227-0.252,0.458-0.357,0.694c-0.017,0.037-0.037,0.072-0.053,0.11c-0.124,0.289-0.227,0.583-0.312,0.88
			c-0.015,0.053-0.027,0.107-0.041,0.161c-0.067,0.254-0.12,0.51-0.16,0.768c-0.01,0.067-0.022,0.133-0.03,0.201
			c-0.039,0.312-0.064,0.625-0.065,0.938c0,0.004-0.001,0.008-0.001,0.012v52.703c0,4.149,3.362,7.511,7.511,7.511
			s7.511-3.362,7.511-7.511v-38.472l16.167,11.048c6.66,4.555,15.437,3.376,20.659-2.541c0.348-0.395,0.68-0.81,0.995-1.246
			l23.949-33.205C511.504,339.536,512.483,335.336,511.778,331.154z M399.313,285.2c-6.471,8.018-16.311,12.902-26.895,12.902
			c-10.584,0-20.424-4.884-26.894-12.902H399.313z M372.418,421.403c-20.218,0-36.665-16.447-36.665-36.665
			s16.447-36.665,36.665-36.665s36.666,16.447,36.666,36.665S392.636,421.403,372.418,421.403z M398.054,339.883
			c-7.562-4.339-16.31-6.834-25.636-6.834c-28.501,0-51.688,23.187-51.688,51.688c0,9.326,2.495,18.075,6.835,25.637l-14.958,14.958
			v-70.641c0-2.785-1.541-5.343-4.005-6.643c-2.466-1.301-5.446-1.131-7.744,0.441l-27.917,19.079
			c-0.327,0.224-0.762,0.146-0.993-0.175l-23.949-33.203c-0.117-0.162-0.159-0.346-0.126-0.544c0.033-0.197,0.132-0.355,0.296-0.47
			l59.586-41.877c5.677-3.99,12.346-6.099,19.285-6.099h0.778c8.266,17.011,25.617,27.925,44.6,27.925
			c18.983,0,36.333-10.913,44.601-27.925h0.778c6.938,0,13.606,2.11,19.285,6.099l5.613,3.945L398.054,339.883z"/>
	</g>
</g>
<g>
</g>
<g>
</g>
<g>
</g>
<g>
</g>
<g>
</g>
<g>
</g>
<g>
</g>
<g>
</g>
<g>
</g>
<g>
</g>
<g>
</g>
<g>
</g>
<g>
</g>
<g>
</g>
<g>
</g>
</svg>
