<?xml version="1.0" encoding="iso-8859-1"?>
<!-- Generator: Adobe Illustrator 19.0.0, SVG Export Plug-In . SVG Version: 6.00 Build 0)  -->
<svg version="1.1" id="Capa_1" xmlns="http://www.w3.org/2000/svg" xmlns:xlink="http://www.w3.org/1999/xlink" x="0px" y="0px"
	 viewBox="0 0 511.999 511.999" style="enable-background:new 0 0 511.999 511.999;" xml:space="preserve">
<g>
	<g>
		<path d="M116.077,53.064c-3.195,0-6.293,1.161-6.293,3.873v38.922L91.097,59.744c-3.002-5.713-4.841-6.681-9.392-6.681
			c-3.195,0-6.293,1.258-6.293,3.97v62.838c0,2.614,3.098,3.97,6.293,3.97c3.098,0,6.293-1.356,6.293-3.97V80.948l20.817,38.924
			c1.646,3.002,4.26,3.97,7.262,3.97c3.098,0,6.293-1.356,6.293-3.97V56.936C122.37,54.225,119.175,53.064,116.077,53.064z"/>
	</g>
</g>
<g>
	<g>
		<path d="M187.048,112.804h-27.401V93.342h14.717c2.711,0,3.97-2.614,3.97-4.841c0-2.614-1.453-5.035-3.97-5.035h-14.717V64.101
			h27.401c2.518,0,3.97-2.614,3.97-5.616c0-2.614-1.259-5.422-3.97-5.422h-34.469c-2.808,0-5.519,1.355-5.519,3.97v62.838
			c0,2.614,2.711,3.97,5.519,3.97h34.469c2.711,0,3.97-2.807,3.97-5.422C191.018,115.418,189.566,112.804,187.048,112.804z"/>
	</g>
</g>
<g>
	<g>
		<path d="M282.224,53.064c-1.936,0-3.679,0.677-4.163,2.517l-15.298,52.478l-8.23-33.694c-0.581-2.42-3.389-3.486-6.1-3.486
			c-2.808,0-5.616,1.066-6.197,3.486l-8.23,33.694l-15.298-52.478c-0.484-1.84-2.227-2.517-4.163-2.517
			c-3.582,0-8.036,2.226-8.036,5.034c0,0.387,0.097,0.872,0.194,1.162l19.171,60.902c0.871,2.905,4.55,4.26,8.23,4.26
			c3.582,0,7.359-1.355,8.036-4.26l6.294-26.142l6.197,26.142c0.677,2.905,4.454,4.26,8.036,4.26c3.679,0,7.262-1.355,8.23-4.26
			l19.169-60.902c0.097-0.29,0.194-0.775,0.194-1.162C290.26,55.291,285.807,53.064,282.224,53.064z"/>
	</g>
</g>
<g>
	<g>
		<path d="M320.858,70.782c0-4.647,3.97-7.455,10.941-7.455c8.134,0,10.36,3.679,13.362,3.679c3.486,0,5.035-4.454,5.035-6.681
			c0-6.39-12.685-7.746-18.397-7.746c-11.135,0-23.528,4.938-23.528,19.365c0,22.947,31.08,18.493,31.08,33.017
			c0,5.81-5.035,8.424-10.844,8.425c-9.876,0-12.491-7.456-16.46-7.456c-3.001,0-5.519,4.066-5.519,6.778
			c0,5.615,9.682,12.005,22.366,12.005c13.362,0,23.044-7.165,23.044-21.011C351.938,78.625,320.858,82.788,320.858,70.782z"/>
	</g>
</g>
<g>
	<g>
		<path d="M222.948,264.01c-0.006-0.155-0.011-0.311-0.018-0.466c-0.056-1.255-0.139-2.504-0.245-3.746
			c-0.004-0.042-0.007-0.084-0.011-0.125c-0.931-10.716-3.701-20.913-7.997-30.271c-0.068-0.149-0.139-0.296-0.208-0.445
			c-0.427-0.918-0.868-1.829-1.324-2.73c-0.248-0.493-0.506-0.981-0.763-1.469c-0.251-0.474-0.504-0.946-0.763-1.415
			c-2.748-5.008-5.953-9.78-9.619-14.225c-0.157-0.19-0.331-0.36-0.504-0.531c-9.899-11.803-22.695-21.097-37.284-26.776
			c-0.084-0.036-0.162-0.082-0.247-0.115c-0.313-0.12-0.632-0.222-0.946-0.339c-0.784-0.293-1.573-0.577-2.367-0.849
			c-0.516-0.176-1.035-0.345-1.553-0.512c-0.806-0.26-1.616-0.51-2.431-0.747c-0.503-0.147-1.007-0.288-1.511-0.426
			c-0.852-0.233-1.71-0.454-2.572-0.663c-0.404-0.098-0.808-0.197-1.213-0.289c-0.987-0.225-1.982-0.43-2.981-0.623
			c-0.339-0.065-0.677-0.134-1.016-0.195c-1.084-0.197-2.176-0.37-3.273-0.528c-0.319-0.046-0.638-0.092-0.958-0.134
			c-1.129-0.151-2.264-0.281-3.406-0.39c-0.269-0.026-0.537-0.049-0.806-0.072c-1.196-0.104-2.396-0.189-3.604-0.246
			c-0.178-0.009-0.357-0.013-0.536-0.021c-1.295-0.054-2.595-0.088-3.903-0.088c-1.308,0-2.608,0.034-3.903,0.088
			c-0.179,0.007-0.358,0.012-0.537,0.021c-1.208,0.057-2.408,0.142-3.603,0.246c-0.27,0.023-0.539,0.046-0.808,0.072
			c-1.141,0.109-2.275,0.239-3.403,0.39c-0.321,0.043-0.642,0.089-0.962,0.135c-1.095,0.158-2.186,0.331-3.268,0.528
			c-0.342,0.062-0.683,0.131-1.024,0.197c-0.994,0.192-1.983,0.396-2.965,0.62c-0.412,0.094-0.823,0.194-1.233,0.294
			c-0.856,0.207-1.707,0.427-2.553,0.658c-0.513,0.14-1.024,0.283-1.534,0.432c-0.808,0.236-1.61,0.483-2.408,0.741
			c-0.531,0.171-1.06,0.344-1.588,0.524c-0.783,0.268-1.561,0.548-2.334,0.837c-0.316,0.118-0.637,0.22-0.953,0.342
			c-0.086,0.033-0.164,0.08-0.249,0.116c-14.587,5.679-27.381,14.971-37.28,26.772c-0.173,0.173-0.348,0.343-0.506,0.534
			c-3.668,4.446-6.873,9.221-9.622,14.231c-0.256,0.463-0.506,0.929-0.753,1.397c-0.261,0.495-0.522,0.99-0.774,1.49
			c-0.454,0.897-0.893,1.804-1.318,2.718c-0.07,0.15-0.142,0.3-0.211,0.45c-4.295,9.358-7.065,19.554-7.996,30.269
			c-0.004,0.042-0.008,0.083-0.011,0.125c-0.106,1.242-0.189,2.49-0.245,3.746c-0.007,0.155-0.011,0.311-0.018,0.466
			c-0.049,1.229-0.081,2.462-0.081,3.703c0,0.283,0.004,0.565,0.009,0.848l0.003,0.348c0,0.005,0.001,0.01,0.001,0.015
			c0.227,17.509,5.36,33.854,14.088,47.723c0.092,0.174,0.176,0.351,0.283,0.519c10.08,15.819,24.646,28.082,41.687,35.332
			c0.218,0.093,0.436,0.184,0.655,0.275c0.985,0.41,1.977,0.805,2.977,1.181c0.502,0.19,1.006,0.375,1.513,0.556
			c0.628,0.224,1.257,0.444,1.89,0.654c0.806,0.268,1.618,0.524,2.434,0.771c0.248,0.075,0.491,0.162,0.74,0.234
			c0.055,0.016,0.112,0.021,0.167,0.036c8.158,2.373,16.778,3.649,25.692,3.649c8.918,0,17.542-1.278,25.704-3.653
			c0.052-0.014,0.104-0.019,0.156-0.034c0.231-0.067,0.457-0.149,0.688-0.218c0.87-0.262,1.736-0.535,2.596-0.822
			c0.576-0.192,1.147-0.393,1.717-0.596c0.55-0.196,1.097-0.397,1.642-0.604c0.951-0.358,1.893-0.734,2.83-1.123
			c0.261-0.109,0.522-0.217,0.782-0.328c17.022-7.253,31.571-19.508,41.641-35.312c0.107-0.167,0.19-0.344,0.282-0.518
			c8.728-13.869,13.862-30.215,14.088-47.725c0-0.005,0.001-0.01,0.001-0.015l0.005-0.348c0.004-0.283,0.009-0.564,0.009-0.848
			C223.029,266.473,222.997,265.239,222.948,264.01z M198.961,231.512c0.484,0.907,0.961,1.819,1.409,2.748
			c0.049,0.102,0.094,0.205,0.142,0.307c0.412,0.861,0.803,1.734,1.183,2.613c0.192,0.446,0.378,0.894,0.562,1.343
			c0.216,0.526,0.422,1.056,0.627,1.587c0.216,0.564,0.435,1.127,0.637,1.695c0.103,0.287,0.195,0.579,0.294,0.868
			c0.462,1.345,0.888,2.702,1.275,4.072c0.073,0.259,0.15,0.516,0.221,0.776c0.197,0.724,0.38,1.452,0.555,2.182
			c0.078,0.323,0.151,0.648,0.225,0.973c0.164,0.724,0.326,1.45,0.47,2.179c0.002,0.011,0.004,0.023,0.006,0.034l-11.341-8.374
			L198.961,231.512z M162.149,197.236c9.813,4.37,18.559,10.713,25.707,18.548l-7.382,25.707l-15.04,5.859l-27.039-18.785v-14.826
			L162.149,197.236z M155.259,258.564l-9.207,27.094h-30.331l-9.205-27.094l24.371-16.932L155.259,258.564z M118.793,191.547
			c0.314-0.05,0.629-0.094,0.944-0.139c0.869-0.126,1.744-0.237,2.622-0.334c0.397-0.044,0.793-0.087,1.191-0.124
			c0.821-0.078,1.648-0.137,2.476-0.189c0.414-0.026,0.827-0.058,1.241-0.077c1.048-0.049,2.101-0.074,3.159-0.08
			c0.314-0.002,0.628-0.001,0.942,0c1.047,0.006,2.089,0.031,3.126,0.079c0.432,0.02,0.863,0.054,1.295,0.081
			c0.807,0.051,1.612,0.108,2.411,0.184c0.415,0.039,0.829,0.084,1.244,0.13c0.862,0.096,1.72,0.204,2.573,0.328
			c0.324,0.047,0.649,0.092,0.972,0.143c0.275,0.044,0.545,0.1,0.819,0.147l-12.922,8.977l-12.921-8.977
			C118.242,191.647,118.515,191.59,118.793,191.547z M99.626,197.236l23.754,16.503v14.825l-27.01,18.765l-15.079-5.874
			l-7.371-25.671C81.067,207.949,89.814,201.605,99.626,197.236z M55.213,252.855c0.143-0.729,0.305-1.454,0.469-2.178
			c0.074-0.326,0.148-0.652,0.226-0.976c0.175-0.729,0.358-1.456,0.554-2.179c0.071-0.263,0.149-0.523,0.223-0.784
			c0.385-1.363,0.809-2.713,1.269-4.052c0.101-0.294,0.195-0.591,0.299-0.883c0.202-0.567,0.42-1.128,0.635-1.691
			c0.205-0.533,0.413-1.066,0.629-1.593c0.183-0.448,0.369-0.894,0.56-1.338c0.382-0.882,0.774-1.757,1.187-2.621
			c0.047-0.1,0.091-0.201,0.139-0.3c0.449-0.929,0.925-1.841,1.41-2.749l3.734,13.004l-11.341,8.374
			C55.209,252.879,55.211,252.866,55.213,252.855z M75.306,321.103l14.573,0.421l4.857,14.293
			C87.494,331.957,80.946,326.973,75.306,321.103z M91.394,306.546l-27.56-0.796c-5.653-9.926-9.168-21.215-9.908-33.249
			l22.688-16.754l15.083,5.876l10.233,30.114L91.394,306.546z M148.839,342.71c-5.764,1.38-11.77,2.131-17.951,2.131
			c-6.181,0-12.187-0.751-17.952-2.132l-9.323-27.437l10.387-14.6h33.77l10.391,14.605L148.839,342.71z M167.039,335.816
			l4.857-14.293l14.573-0.421C180.829,326.973,174.281,331.957,167.039,335.816z M197.941,305.749l-27.566,0.796l-10.532-14.804
			l10.223-30.082l15.123-5.891l22.661,16.733C207.109,284.535,203.594,295.824,197.941,305.749z"/>
	</g>
</g>
<g>
	<g>
		<path d="M373.882,206.199h-18.594c-4.146,0-7.508,3.361-7.508,7.508c0,4.147,3.361,7.508,7.508,7.508h18.594
			c4.146,0,7.508-3.361,7.508-7.508C381.389,209.561,378.028,206.199,373.882,206.199z"/>
	</g>
</g>
<g>
	<g>
		<path d="M320.317,206.199h-53.566c-4.146,0-7.508,3.361-7.508,7.508c0.001,4.147,3.362,7.508,7.508,7.508h53.566
			c4.146,0,7.508-3.361,7.508-7.508C327.825,209.561,324.464,206.199,320.317,206.199z"/>
	</g>
</g>
<g>
	<g>
		<path d="M373.882,255.613H266.751c-4.146,0-7.508,3.361-7.508,7.508c0,4.147,3.361,7.508,7.508,7.508h107.131
			c4.146,0,7.508-3.361,7.508-7.508C381.39,258.973,378.028,255.613,373.882,255.613z"/>
	</g>
</g>
<g>
	<g>
		<path d="M373.882,305.025H266.751c-4.146,0-7.508,3.361-7.508,7.508c0,4.147,3.361,7.508,7.508,7.508h107.131
			c4.146,0,7.508-3.361,7.508-7.508C381.39,308.385,378.028,305.025,373.882,305.025z"/>
	</g>
</g>
<g>
	<g>
		<path d="M373.882,381.001H46.254c-4.146,0-7.508,3.361-7.508,7.508c0,4.147,3.361,7.508,7.508,7.508h327.627
			c4.146,0,7.508-3.361,7.508-7.508C381.389,384.361,378.028,381.001,373.882,381.001z"/>
	</g>
</g>
<g>
	<g>
		<path d="M373.882,425.86H108.611c-4.146,0-7.508,3.361-7.508,7.508c0,4.147,3.361,7.508,7.508,7.508h265.271
			c4.146,0,7.508-3.361,7.508-7.508C381.389,429.22,378.028,425.86,373.882,425.86z"/>
	</g>
</g>
<g>
	<g>
		<path d="M73.679,425.86H46.254c-4.146,0-7.508,3.361-7.508,7.508c0,4.147,3.361,7.508,7.508,7.508h27.425
			c4.146,0,7.508-3.361,7.508-7.508C81.187,429.22,77.826,425.86,73.679,425.86z"/>
	</g>
</g>
<g>
	<g>
		<path d="M486.418,121.441h-57.186V43.576c0-14.106-11.476-25.583-25.582-25.583H25.582C11.476,17.994,0,29.47,0,43.576v398.667
			c0,28.543,23.221,51.764,51.764,51.764h405.628h2.843c28.543,0,51.764-23.222,51.764-51.764v-295.22
			C512,132.917,500.524,121.441,486.418,121.441z M15.015,43.576c0-5.827,4.74-10.567,10.566-10.567H403.65
			c5.826,0,10.566,4.74,10.566,10.567v98.146H15.015V43.576z M51.764,478.993c-20.264,0-36.749-16.485-36.749-36.749V156.738
			h399.201v288.379c0,12.98,5.082,24.973,13.431,33.876H51.764z M460.236,478.993h-2.249c-16.423-2.492-28.755-16.973-28.755-33.876
			V136.456h57.186c5.826,0,10.566,4.74,10.566,10.567v295.221h0.001C496.985,462.508,480.5,478.993,460.236,478.993z"/>
	</g>
</g>
<g>
</g>
<g>
</g>
<g>
</g>
<g>
</g>
<g>
</g>
<g>
</g>
<g>
</g>
<g>
</g>
<g>
</g>
<g>
</g>
<g>
</g>
<g>
</g>
<g>
</g>
<g>
</g>
<g>
</g>
</svg>
