<?xml version="1.0" encoding="iso-8859-1"?>
<!-- Generator: Adobe Illustrator 19.0.0, SVG Export Plug-In . SVG Version: 6.00 Build 0)  -->
<svg version="1.1" id="Capa_1" xmlns="http://www.w3.org/2000/svg" xmlns:xlink="http://www.w3.org/1999/xlink" x="0px" y="0px"
	 viewBox="0 0 512.001 512.001" style="enable-background:new 0 0 512.001 512.001;" xml:space="preserve">
<g>
	<g>
		<path d="M483.028,43.698H28.972C12.997,43.698,0,56.693,0,72.669v139.709c0,4.135,3.352,7.486,7.486,7.486
			c4.134,0,7.486-3.351,7.486-7.486V72.669c0-7.719,6.28-14,14-14h454.055c7.72,0,14,6.28,14,14v140.337
			c0,4.135,3.352,7.486,7.486,7.486c4.134,0,7.486-3.351,7.486-7.486V72.669C512,56.693,499.003,43.698,483.028,43.698z"/>
	</g>
</g>
<g>
	<g>
		<path d="M504.514,240.353c-4.135,0-7.486,3.351-7.486,7.486v154.369h-12.129V82.276c0-2.43-0.764-4.681-2.057-6.538
			c-0.152-0.227-0.315-0.449-0.495-0.662c0,0-0.001-0.001-0.002-0.002c-2.106-2.603-5.321-4.274-8.922-4.274H38.578
			c-3.601,0-6.816,1.67-8.922,4.274c0,0.001-0.001,0.001-0.002,0.002c-0.18,0.214-0.343,0.436-0.495,0.662
			c-1.293,1.857-2.057,4.109-2.057,6.538v319.934H14.973V247.854c0-4.135-3.352-7.486-7.486-7.486S0,243.719,0,247.854v155.183
			c0,7.799,6.345,14.144,14.144,14.144h13.787c7.799,0,14.144-6.345,14.144-14.144v-23.095l31.548-27.778
			c1.052,0.253,2.145,0.401,3.273,0.401h73.078c0,0.005-0.001,0.011-0.001,0.016c-0.004,0.047-0.009,0.094-0.013,0.142
			c-0.123,1.435-0.218,2.877-0.283,4.327c-0.008,0.18-0.013,0.36-0.021,0.54c-0.056,1.42-0.093,2.844-0.093,4.277
			c0,0.328,0.005,0.653,0.011,0.979l0.006,0.408c0,0.003,0.001,0.005,0.001,0.008c0.262,20.228,6.191,39.111,16.275,55.133
			c0.104,0.201,0.202,0.404,0.325,0.597c11.641,18.268,28.46,32.43,48.137,40.806c0.268,0.115,0.538,0.227,0.808,0.339
			c1.117,0.465,2.241,0.913,3.376,1.34c0.6,0.227,1.203,0.448,1.808,0.664c0.697,0.248,1.394,0.493,2.097,0.726
			c0.958,0.319,1.923,0.623,2.892,0.916c0.278,0.084,0.55,0.181,0.829,0.263c0.062,0.018,0.125,0.024,0.188,0.04
			c9.426,2.742,19.386,4.217,29.684,4.217c10.299,0,20.258-1.476,29.684-4.217c0.062-0.016,0.126-0.022,0.188-0.04
			c0.279-0.081,0.551-0.179,0.829-0.263c0.971-0.293,1.937-0.597,2.896-0.917c0.701-0.233,1.396-0.477,2.09-0.724
			c0.607-0.217,1.212-0.439,1.814-0.667c1.132-0.426,2.253-0.872,3.367-1.336c0.273-0.114,0.546-0.227,0.818-0.343
			c19.675-8.376,36.493-22.538,48.133-40.805c0.123-0.193,0.221-0.396,0.325-0.597c10.083-16.022,16.013-34.905,16.275-55.133
			c0-0.003,0.001-0.005,0.001-0.008l0.006-0.408c0.005-0.326,0.011-0.651,0.011-0.979c0-1.433-0.037-2.857-0.093-4.277
			c-0.007-0.18-0.012-0.36-0.021-0.54c-0.065-1.45-0.16-2.892-0.283-4.327c-0.004-0.047-0.008-0.094-0.013-0.142l73.077-0.016
			c1.117,0,2.199-0.145,3.242-0.393l31.58,27.806v23.058c0,7.799,6.345,14.144,14.144,14.144h13.787
			c7.799,0,14.144-6.345,14.144-14.144V247.839C512,243.704,508.648,240.353,504.514,240.353z M42.075,359.993V95.323l21.067,17.744
			c-0.188,0.915-0.287,1.862-0.287,2.832v222.626c-0.001,0-0.001,0-0.001,0c0,0.995,0.108,1.966,0.306,2.903L42.075,359.993z
			 M101.274,337.594H77.827v-22.89l9.392-9.392l23.169,23.168L101.274,337.594z M342.091,299.313
			c-1.267-1.744-2.569-3.465-3.945-5.133c-0.181-0.22-0.38-0.419-0.582-0.615c-5.479-6.532-11.726-12.399-18.602-17.46l4.551-4.551
			l23.169,23.169L342.091,299.313z M346.324,347.495l-16.588-12.249l5.476-19.07c0.242,0.417,0.477,0.839,0.712,1.26
			c0.28,0.505,0.559,1.01,0.83,1.519c0.222,0.416,0.445,0.831,0.661,1.251c0.514,1.005,1.01,2.019,1.486,3.042
			c0.081,0.174,0.163,0.347,0.243,0.521C342.59,331.302,345.015,339.288,346.324,347.495z M174.433,293.569
			c-0.201,0.194-0.399,0.392-0.579,0.611c-1.376,1.669-2.678,3.39-3.945,5.133l-4.59-4.59l23.168-23.169l4.551,4.551
			C186.162,281.168,179.913,287.035,174.433,293.569z M182.264,335.246l-16.588,12.249c1.309-8.207,3.734-16.193,7.181-23.726
			c0.08-0.174,0.162-0.347,0.243-0.521c0.476-1.023,0.972-2.037,1.486-3.042c0.216-0.42,0.439-0.835,0.661-1.251
			c0.27-0.51,0.55-1.014,0.83-1.519c0.235-0.421,0.47-0.843,0.712-1.26L182.264,335.246z M346.682,227.211l-23.169,23.169
			l-23.169-23.169l23.169-23.169L346.682,227.211z M334.101,193.454l23.169-23.169l23.169,23.169l-23.169,23.169L334.101,193.454z
			 M246.089,270.941c0.205-0.022,0.409-0.049,0.614-0.069c0.128-0.013,0.258-0.022,0.386-0.034c5.915-0.569,11.905-0.569,17.82,0
			c0.129,0.013,0.26,0.022,0.389,0.035c0.204,0.02,0.407,0.047,0.611,0.069c2.874,0.311,5.71,0.75,8.499,1.322L256,285.051
			l-18.407-12.788C240.381,271.691,243.216,271.253,246.089,270.941z M236.979,257.134c-0.418,0.076-0.834,0.16-1.25,0.24
			c-1.098,0.212-2.192,0.439-3.277,0.685c-0.535,0.121-1.068,0.25-1.6,0.379c-0.94,0.229-1.875,0.47-2.806,0.723
			c-0.65,0.177-1.298,0.359-1.945,0.549c-0.882,0.259-1.759,0.529-2.631,0.809c-0.671,0.215-1.34,0.436-2.007,0.665
			c-0.855,0.294-1.706,0.6-2.551,0.915c-0.372,0.139-0.75,0.259-1.121,0.402c-0.101,0.039-0.193,0.093-0.291,0.136
			c-3.944,1.536-7.774,3.301-11.474,5.278l-6.95-6.95l23.169-23.169l18.697,18.698c-0.078,0.011-0.156,0.026-0.234,0.038
			C239.458,256.714,238.214,256.911,236.979,257.134z M271.293,256.533c-0.078-0.011-0.156-0.027-0.234-0.038l18.697-18.698
			l23.169,23.169l-6.95,6.95c-3.701-1.977-7.53-3.742-11.474-5.278c-0.099-0.043-0.19-0.097-0.291-0.136
			c-0.371-0.143-0.748-0.263-1.121-0.402c-0.845-0.315-1.696-0.621-2.551-0.915c-0.667-0.229-1.336-0.45-2.007-0.665
			c-0.872-0.281-1.749-0.551-2.631-0.809c-0.647-0.189-1.295-0.372-1.945-0.549c-0.93-0.254-1.866-0.494-2.806-0.723
			c-0.533-0.129-1.066-0.258-1.6-0.379c-1.086-0.246-2.179-0.473-3.278-0.685c-0.417-0.081-0.833-0.165-1.25-0.24
			C273.786,256.911,272.542,256.714,271.293,256.533z M289.757,216.623l-23.169-23.169l23.169-23.169l23.169,23.169L289.757,216.623
			z M279.169,227.211L256,250.379l-23.169-23.169L256,204.042L279.169,227.211z M222.244,216.623l-23.169-23.169l23.169-23.169
			l23.169,23.169L222.244,216.623z M211.656,227.211l-23.169,23.169l-23.169-23.169l23.168-23.169L211.656,227.211z
			 M154.731,216.623l-23.169-23.169l23.169-23.169l23.169,23.169L154.731,216.623z M144.144,227.211l-23.169,23.169l-23.169-23.169
			l23.169-23.169L144.144,227.211z M154.731,237.797l11.583,11.583l0.001,0.001l11.584,11.585l-23.169,23.169l-23.169-23.169
			L154.731,237.797z M219.575,277.977l28.939,20.105v18.684l-32.7,22.717l-18.866-7.349l-8.993-31.318
			C196.679,291.103,207.447,283.263,219.575,277.977z M256,329.796l30.031,20.863l-11.375,33.475h-37.312l-11.375-33.475
			L256,329.796z M263.486,316.766v-18.684l28.939-20.105c12.128,5.286,22.895,13.126,31.619,22.839l-9.005,31.36l-18.82,7.332
			L263.486,316.766z M334.101,260.967l23.169-23.169l23.169,23.169l-23.169,23.169L334.101,260.967z M367.857,227.211l23.169-23.169
			l23.169,23.169l-23.169,23.169L367.857,227.211z M391.025,182.866l-23.168-23.169l23.169-23.168l23.168,23.168L391.025,182.866z
			 M357.269,149.11L334.1,125.941l9.113-9.114h28.111l9.113,9.114L357.269,149.11z M346.682,159.698l-23.169,23.169l-23.169-23.169
			l23.169-23.168L346.682,159.698z M289.756,149.11l-23.169-23.168l9.114-9.114h28.111l9.113,9.113L289.756,149.11z
			 M279.169,159.698L256,182.866l-23.168-23.169L256,136.529L279.169,159.698z M222.244,149.11l-23.169-23.169l9.113-9.113h28.111
			l9.113,9.113L222.244,149.11z M211.656,159.698l-23.169,23.169l-23.169-23.169l23.169-23.168L211.656,159.698z M154.731,149.11
			l-23.169-23.168l9.113-9.114h28.111l9.113,9.114L154.731,149.11z M144.144,159.698l-23.169,23.169l-23.169-23.169l23.169-23.168
			L144.144,159.698z M87.219,149.11l-9.392-9.392v-22.89h23.447l9.114,9.114L87.219,149.11z M87.219,170.285l23.169,23.169
			l-23.169,23.169l-9.392-9.392v-27.554L87.219,170.285z M87.219,237.798l23.169,23.169l-23.169,23.169l-9.392-9.392V247.19
			L87.219,237.798z M97.806,294.723l23.169-23.169l23.169,23.169l-23.169,23.168L97.806,294.723z M160.997,313.909
			c-0.538,1.061-1.055,2.133-1.558,3.213c-0.074,0.16-0.151,0.318-0.224,0.478c-2.918,6.355-5.23,13.043-6.857,19.992h-11.682
			l-9.113-9.114l23.169-23.168l7.063,7.063C161.526,312.884,161.257,313.394,160.997,313.909z M187.944,422.904l21.044,0.608
			l6.995,20.587C205.311,438.885,195.799,431.654,187.944,422.904z M210.477,408.577l-33.661-0.973
			c-7.023-12.111-11.346-25.971-12.144-40.755l27.678-20.438l18.858,7.346l12.37,36.404L210.477,408.577z M277.976,450.655
			c-7.043,1.744-14.402,2.675-21.976,2.675c-7.574,0-14.933-0.932-21.976-2.675l-11.348-33.397l12.913-18.151h40.815l12.917,18.157
			L277.976,450.655z M296.017,444.1l6.995-20.586l21.044-0.609C316.201,431.654,306.689,438.885,296.017,444.1z M335.184,407.604
			l-33.667,0.973l-13.098-18.41l12.357-36.366l18.906-7.365l27.645,20.414C346.53,381.632,342.206,395.493,335.184,407.604z
			 M371.324,337.593h-11.682c-1.627-6.949-3.939-13.637-6.857-19.992c-0.073-0.16-0.15-0.319-0.224-0.478
			c-0.503-1.081-1.021-2.153-1.558-3.213c-0.26-0.515-0.529-1.025-0.797-1.536l7.063-7.063l23.169,23.169L371.324,337.593z
			 M367.857,294.723l23.169-23.169l23.169,23.169l-23.169,23.168L367.857,294.723z M434.173,337.593h-23.447l-9.114-9.114
			l23.169-23.168l9.392,9.392V337.593z M434.173,274.744l-9.392,9.392l-23.169-23.169l23.169-23.169l9.392,9.392V274.744z
			 M434.173,207.232l-9.392,9.392l-23.169-23.169l23.169-23.169l9.392,9.392V207.232z M426.821,147.07l-2.04,2.04l-23.169-23.168
			l9.113-9.114h23.447v22.891h0.001L426.821,147.07z M435.104,101.855H76.896c-1.149,0-2.26,0.154-3.33,0.416l-19.59-16.499h404.047
			l-19.59,16.499C437.364,102.009,436.253,101.855,435.104,101.855z M469.926,360.029l-21.093-18.573
			c0.202-0.947,0.313-1.927,0.313-2.933V115.897c0-0.97-0.099-1.917-0.287-2.832l21.067-17.744V360.029z"/>
	</g>
</g>
<g>
</g>
<g>
</g>
<g>
</g>
<g>
</g>
<g>
</g>
<g>
</g>
<g>
</g>
<g>
</g>
<g>
</g>
<g>
</g>
<g>
</g>
<g>
</g>
<g>
</g>
<g>
</g>
<g>
</g>
</svg>
