<?xml version="1.0" encoding="iso-8859-1"?>
<!-- Generator: Adobe Illustrator 19.0.0, SVG Export Plug-In . SVG Version: 6.00 Build 0)  -->
<svg version="1.1" id="Capa_1" xmlns="http://www.w3.org/2000/svg" xmlns:xlink="http://www.w3.org/1999/xlink" x="0px" y="0px"
	 viewBox="0 0 512.003 512.003" style="enable-background:new 0 0 512.003 512.003;" xml:space="preserve">
<g>
	<g>
		<path d="M366.474,20.911c2.597-4.234,2.704-9.557,0.276-13.89C364.324,2.689,359.734,0,354.771,0c-0.004,0-0.007,0-0.011,0
			L166.792,0.154c-5.978,0.007-11.225,3.834-13.057,9.524L88.44,212.592c-0.591,0.191-1.174,0.414-1.736,0.705
			c-9.218,4.782-30.554,16.48-41.999,27.842c-0.014,0.014-0.03,0.025-0.044,0.039c-0.147,0.147-0.285,0.289-0.427,0.433
			c-0.197,0.2-0.391,0.399-0.581,0.599c-0.235,0.247-0.464,0.49-0.685,0.731c-0.103,0.113-0.205,0.225-0.306,0.338
			c-0.298,0.332-0.588,0.662-0.862,0.988c-6.976,8.312-17.484,25.616-25.257,39.004c-0.204,0.27-0.396,0.552-0.565,0.852
			L7.484,299.24l-5.029,7.62c-4.327,6.557-2.762,15.199,3.53,19.822l-3.838,9.286c-2.375,5.743-0.524,12.308,4.5,15.966l5.419,3.944
			c5.025,3.66,11.84,3.403,16.575-0.62l8.043-6.832c3.493,2.495,7.16,5.12,10.959,7.849l-4.263,10.317
			c-2.375,5.743-0.524,12.308,4.499,15.964l5.42,3.946c5.025,3.658,11.839,3.4,16.574-0.621l8.565-7.275
			c25.771,18.877,47.201,35.104,63.73,48.257c9.705,7.722,21.746,15.95,35.824,24.482l-1.945,6.771
			c-1.557,5.417,0.777,11.146,5.676,13.932l4.594,2.613c4.9,2.787,11.017,1.866,14.878-2.241l4.814-5.122
			c3.727,2.006,7.592,4.046,11.548,6.094l-1.341,5.932c-1.242,5.497,1.418,11.081,6.469,13.581l4.739,2.346
			c5.052,2.499,11.105,1.228,14.721-3.094l3.909-4.669c2,0.861,3.522,1.403,4.916,1.899c0.772,0.275,1.496,0.533,2.276,0.834
			l-1.105,4.889c-1.222,5.418,1.4,10.921,6.376,13.383l4.562,2.259c1.706,0.844,3.527,1.251,5.328,1.251
			c3.457,0,6.838-1.502,9.181-4.302l4.066-4.857c5.673,2.455,10.233,4.374,13.212,5.613c6.769,2.819,14.639,0.434,18.707-5.67
			l6.158-9.244c0.017-0.026,0.03-0.053,0.047-0.08c6.887-10.412,6.102-24.321-1.92-33.887l-50.901-62.593l-59.973-102.105
			c-0.468-0.797-0.99-1.552-1.55-2.274l22.023-45.157L366.474,20.911z M167.731,15.152l184.772-0.151l-81.977,133.586
			l-133.189-38.982L167.731,15.152z M32.402,285.867c0.173-0.294,0.345-0.583,0.517-0.874c0.381-0.643,0.758-1.28,1.132-1.908
			c0.182-0.305,0.364-0.61,0.544-0.912c0.391-0.654,0.777-1.297,1.16-1.934c0.14-0.232,0.282-0.469,0.42-0.699
			c0.509-0.842,1.011-1.67,1.506-2.481c0.124-0.203,0.245-0.399,0.368-0.6c0.374-0.611,0.745-1.215,1.111-1.807
			c0.175-0.283,0.348-0.561,0.52-0.84c0.323-0.521,0.643-1.034,0.96-1.54c0.163-0.261,0.327-0.524,0.489-0.781
			c0.374-0.594,0.741-1.175,1.104-1.746c0.092-0.145,0.186-0.295,0.278-0.438c0.439-0.688,0.868-1.356,1.291-2.01
			c0.145-0.224,0.286-0.439,0.429-0.659c0.29-0.446,0.577-0.885,0.859-1.314c0.154-0.234,0.307-0.466,0.459-0.695
			c0.284-0.429,0.563-0.847,0.839-1.258c0.127-0.188,0.255-0.381,0.38-0.566c0.387-0.572,0.766-1.129,1.135-1.665
			c0.076-0.111,0.149-0.213,0.225-0.323c0.297-0.428,0.589-0.846,0.874-1.25c0.127-0.18,0.252-0.354,0.377-0.529
			s0.246-0.342,0.369-0.512c10.657,15.019,24.091,41.165,14.144,68.228c-0.093-0.068-0.185-0.135-0.278-0.203
			c-5.498-4.014-10.151-7.495-14.007-10.48c-0.01-0.008-0.02-0.015-0.03-0.023c-1.495-1.158-2.864-2.237-4.124-3.25
			c-0.116-0.093-0.232-0.187-0.346-0.279c-0.593-0.478-1.167-0.945-1.707-1.391c-4.492-3.708-7.884-8.622-9.81-14.212l-2.84-8.243
			C31.309,287.724,31.858,286.79,32.402,285.867z M208.524,327.119l4.832,8.227l-4.949,0.246c-4.136,0.206-7.324,3.726-7.119,7.863
			c0.199,4.01,3.513,7.127,7.485,7.127c0.125,0,0.252-0.003,0.378-0.009l12.776-0.635l5.647,9.614l-4.921,0.245
			c-4.136,0.206-7.324,3.726-7.119,7.863c0.2,4.01,3.513,7.127,7.485,7.127c0.125,0,0.252-0.003,0.378-0.009l12.748-0.633
			l6.051,10.301l-4.917,0.244c-4.136,0.206-7.324,3.726-7.119,7.863c0.2,4.01,3.513,7.127,7.485,7.127
			c0.125,0,0.252-0.003,0.378-0.009l12.743-0.633l3.545,6.036c0.192,0.327,0.409,0.639,0.648,0.934l51.299,63.076
			c0.027,0.034,0.056,0.067,0.084,0.102c2.439,2.888,3.47,6.626,3.04,10.235c-19.476-8.583-75.6-34.163-119.497-62.53
			c-3.477-2.249-8.12-1.251-10.368,2.228c-2.248,3.478-1.251,8.12,2.228,10.368c43.975,28.419,99.758,54.001,120.537,63.192
			l-1.191,1.788c-0.101,0.149-0.295,0.209-0.463,0.139c-3.412-1.42-8.93-3.745-15.84-6.757c-4.38-1.908-9.572-0.685-12.634,2.973
			l-4.547,5.432l-0.313-0.155l1.35-5.971c1.12-4.954-1.41-10.089-6.014-12.211c-2.884-1.329-4.874-2.037-6.628-2.662
			c-1.895-0.675-3.532-1.258-6.399-2.637c-4.475-2.153-9.824-1-13.009,2.802l-4.516,5.396l-0.739-0.365l1.56-6.906
			c1.09-4.82-1.219-9.76-5.613-12.014c-5.876-3.017-11.575-6.026-16.939-8.942c-4.322-2.351-9.695-1.492-13.063,2.091l-5.488,5.838
			l-0.718-0.408l2.214-7.703c1.356-4.715-0.643-9.769-4.859-12.287c-14.691-8.782-27.115-17.192-36.926-24.998
			c-17.253-13.729-39.755-30.746-66.881-50.578c-4.055-2.961-9.558-2.757-13.39,0.496l-10.12,8.596l-3.397-2.473l5.048-12.216
			c1.926-4.661,0.41-9.975-3.686-12.924c-5.768-4.15-11.256-8.077-16.338-11.701c-4.042-2.885-9.506-2.65-13.291,0.565l-9.569,8.128
			l-3.398-2.473l4.635-11.217c1.949-4.714,0.394-10.058-3.779-12.993l-2.165-1.52l4.973-7.534c0.098-0.149,0.19-0.302,0.278-0.457
			l0.569-1.013c0.199,0.442,0.421,0.872,0.633,1.307c0.137,0.282,0.267,0.568,0.41,0.847c0.454,0.887,0.928,1.761,1.436,2.615
			c0.001,0.002,0.003,0.004,0.004,0.007c0.505,0.85,1.043,1.678,1.6,2.493c0.177,0.259,0.366,0.51,0.549,0.766
			c0.395,0.553,0.798,1.101,1.216,1.637c0.225,0.288,0.457,0.571,0.689,0.853c0.405,0.494,0.821,0.979,1.246,1.457
			c0.246,0.276,0.491,0.55,0.744,0.82c0.457,0.489,0.929,0.963,1.408,1.432c0.234,0.229,0.462,0.464,0.701,0.689
			c0.69,0.648,1.398,1.278,2.129,1.885c0.032,0.027,0.062,0.057,0.094,0.083c0.413,0.341,0.84,0.69,1.278,1.045
			c0.047,0.038,0.096,0.078,0.144,0.116c6.235,5.055,14.965,11.596,27.268,20.433c0.007,0.005,0.014,0.008,0.021,0.012
			c10.809,7.764,22.857,16.21,34.714,24.522c21.002,14.722,42.72,29.946,55.495,39.982c3.257,2.558,7.971,1.993,10.53-1.264
			c2.559-3.258,1.993-7.972-1.264-10.53c-13.098-10.289-34.011-24.949-56.153-40.47c-9.977-6.994-20.091-14.084-29.451-20.755
			c15.85-36.324-3.081-70.684-16.231-88.381c8.263-6.633,20.43-13.937,31.202-19.643c0.041,0.042,0.087,0.08,0.127,0.122
			c0.082,0.087,0.16,0.177,0.239,0.267c0.171,0.194,0.335,0.393,0.491,0.599c0.074,0.097,0.148,0.195,0.218,0.294
			c0.166,0.236,0.32,0.479,0.466,0.728c0.041,0.07,0.087,0.137,0.126,0.208c0.177,0.321,0.337,0.651,0.479,0.99
			c0.035,0.083,0.063,0.17,0.096,0.254c0.102,0.261,0.195,0.526,0.275,0.795c0.035,0.117,0.067,0.236,0.097,0.354
			c0.066,0.256,0.122,0.514,0.169,0.776c0.02,0.112,0.043,0.222,0.059,0.335c0.053,0.369,0.093,0.742,0.105,1.12l0.617,18.448
			c0.379,11.268,6.206,21.726,15.587,27.974c3.84,2.558,8.08,4.31,12.603,5.207l34.308,6.805l32.329,6.413
			c0.206,0.041,0.409,0.094,0.609,0.155c0.593,0.184,1.164,0.459,1.704,0.823c0.04,0.027,0.083,0.044,0.123,0.07
			c0.731,0.517,1.353,1.186,1.816,1.974l5.902,10.049l-4.911,0.244c-4.136,0.206-7.324,3.725-7.119,7.863
			c0.199,4.009,3.513,7.127,7.485,7.127c0.125,0,0.251-0.003,0.378-0.009L208.524,327.119z M192.594,284.715l-23.155-4.592
			l1.723-4.06c0.213-0.502,0.436-0.997,0.667-1.487c0.079-0.168,0.164-0.332,0.245-0.498c0.156-0.319,0.311-0.639,0.473-0.953
			c0.102-0.197,0.209-0.389,0.314-0.583c0.15-0.278,0.299-0.557,0.455-0.831c0.116-0.204,0.237-0.405,0.356-0.606
			c0.153-0.259,0.306-0.518,0.463-0.772c0.126-0.203,0.255-0.403,0.384-0.603c0.159-0.248,0.32-0.495,0.484-0.738
			c0.134-0.199,0.271-0.395,0.408-0.592c0.167-0.238,0.335-0.476,0.506-0.71c0.141-0.193,0.284-0.384,0.428-0.574
			c0.177-0.233,0.356-0.465,0.538-0.695c0.144-0.182,0.289-0.363,0.436-0.543c0.19-0.232,0.383-0.461,0.577-0.688
			c0.146-0.171,0.292-0.342,0.441-0.51c0.206-0.232,0.415-0.461,0.625-0.689c0.143-0.155,0.286-0.311,0.431-0.463
			c0.228-0.239,0.46-0.473,0.693-0.706c0.135-0.135,0.268-0.271,0.405-0.404c0.263-0.256,0.532-0.507,0.801-0.756
			c0.111-0.103,0.22-0.207,0.332-0.309c0.342-0.309,0.69-0.612,1.042-0.909c0.043-0.037,0.085-0.075,0.129-0.112
			c1.226-1.027,2.508-1.982,3.84-2.86c0.039-0.026,0.078-0.05,0.117-0.075c0.401-0.263,0.807-0.519,1.217-0.768
			c0.064-0.039,0.129-0.076,0.193-0.114c0.389-0.233,0.78-0.461,1.176-0.681c0.074-0.041,0.15-0.081,0.224-0.122
			c0.391-0.214,0.784-0.423,1.182-0.624c0.076-0.039,0.152-0.076,0.228-0.114c0.401-0.2,0.805-0.395,1.213-0.582
			c0.072-0.033,0.145-0.066,0.218-0.099c0.418-0.189,0.839-0.372,1.263-0.547c0.063-0.026,0.125-0.052,0.187-0.077
			c0.441-0.18,0.885-0.353,1.333-0.518c0.047-0.017,0.094-0.035,0.142-0.052c0.473-0.172,0.95-0.337,1.43-0.492
			c0.022-0.007,0.043-0.015,0.065-0.021c3.571-1.151,7.324-1.828,11.171-1.981c0.09-0.003,0.18-0.004,0.269-0.007
			c0.326-0.011,0.653-0.015,0.98-0.018L192.594,284.715z M214.321,235.761c-24.478-2.005-47.368,11.836-56.966,34.44l-2.947,6.941
			l-28.33-5.619c-2.585-0.513-5.009-1.515-7.205-2.977c-5.364-3.573-8.696-9.553-8.911-15.995l-0.617-18.447
			c-0.023-0.685-0.084-1.364-0.162-2.039c-0.019-0.167-0.04-0.334-0.063-0.501c-0.091-0.669-0.199-1.335-0.342-1.99
			c-0.005-0.021-0.011-0.041-0.015-0.062c-0.142-0.641-0.315-1.272-0.506-1.897c-0.047-0.155-0.095-0.31-0.146-0.464
			c-0.207-0.637-0.432-1.269-0.689-1.886c-0.011-0.027-0.025-0.053-0.036-0.081c-0.25-0.596-0.529-1.178-0.823-1.752
			c-0.071-0.138-0.141-0.275-0.215-0.412c-0.317-0.592-0.651-1.174-1.014-1.738c-0.021-0.032-0.044-0.063-0.065-0.095
			c-0.348-0.536-0.721-1.056-1.11-1.565c-0.091-0.119-0.182-0.238-0.275-0.356c-0.418-0.529-0.853-1.045-1.313-1.54
			c-0.008-0.008-0.014-0.017-0.021-0.025l19.896-61.822l12.594,3.819c0.726,0.22,1.459,0.324,2.18,0.324
			c3.217,0,6.192-2.087,7.174-5.325c1.201-3.965-1.037-8.152-5.001-9.354l-12.352-3.745l2.104-6.538l3.596-11.173l129.655,37.948
			l-6.94,11.309l-3.828,6.237l-78.843-23.91c-3.965-1.205-8.152,1.036-9.353,5c-1.202,3.964,1.036,8.152,5,9.353l75.087,22.771
			l-26.622,43.381L214.321,235.761z"/>
	</g>
</g>
<g>
	<g>
		<path d="M135.358,291.493c-19.941,0-36.163,16.223-36.163,36.164c0,19.941,16.222,36.163,36.163,36.163
			c19.941,0,36.164-16.222,36.164-36.163C171.522,307.716,155.299,291.493,135.358,291.493z M135.358,348.822
			c-11.67,0-21.164-9.494-21.164-21.164c0-11.671,9.494-21.165,21.164-21.165c11.671,0,21.165,9.494,21.165,21.165
			C156.524,339.327,147.029,348.822,135.358,348.822z"/>
	</g>
</g>
<g>
	<g>
		<path d="M511.958,304.313c-0.01-0.421-0.027-0.84-0.041-1.26c-0.018-0.531-0.036-1.063-0.061-1.593
			c-0.026-0.572-0.059-1.142-0.094-1.712c-0.02-0.336-0.041-0.673-0.064-1.009c-0.048-0.711-0.103-1.421-0.163-2.128
			c-0.01-0.114-0.021-0.229-0.031-0.343c-1.19-13.562-4.557-26.507-9.752-38.485c-0.072-0.165-0.145-0.33-0.217-0.495
			c-0.262-0.597-0.525-1.194-0.796-1.786c-0.301-0.661-0.611-1.319-0.923-1.975c-0.057-0.118-0.111-0.237-0.167-0.355
			c-4.319-8.989-9.719-17.48-16.126-25.249c-0.214-0.259-0.444-0.499-0.686-0.724c-13.404-15.98-30.728-28.563-50.482-36.252
			c-0.113-0.05-0.219-0.112-0.335-0.156c-8.34-3.209-16.943-5.488-25.723-6.836c-0.084-0.013-0.168-0.025-0.252-0.038
			c-0.9-0.136-1.801-0.263-2.705-0.379c-0.178-0.023-0.357-0.045-0.536-0.068c-0.811-0.101-1.623-0.194-2.436-0.28
			c-0.246-0.026-0.491-0.051-0.737-0.076c-0.751-0.074-1.504-0.141-2.257-0.201c-0.292-0.023-0.583-0.048-0.876-0.07
			c-0.72-0.053-1.441-0.097-2.163-0.137c-0.314-0.018-0.627-0.038-0.942-0.053c-0.738-0.036-1.477-0.062-2.217-0.085
			c-0.29-0.009-0.58-0.022-0.87-0.03c-1.024-0.025-2.048-0.039-3.075-0.039c-1.027,0-2.052,0.014-3.075,0.039
			c-0.29,0.007-0.578,0.021-0.868,0.03c-0.741,0.023-1.481,0.049-2.22,0.085c-0.313,0.015-0.624,0.036-0.937,0.053
			c-0.724,0.041-1.447,0.085-2.169,0.138c-0.29,0.021-0.579,0.046-0.868,0.069c-0.757,0.061-1.513,0.127-2.267,0.202
			c-0.242,0.024-0.484,0.049-0.727,0.075c-0.818,0.085-1.635,0.179-2.451,0.281c-0.173,0.022-0.347,0.043-0.52,0.066
			c-0.911,0.117-1.82,0.245-2.728,0.383c-0.076,0.011-0.152,0.022-0.228,0.034c-8.784,1.348-17.39,3.628-25.732,6.838
			c-0.116,0.045-0.222,0.106-0.334,0.156c-19.756,7.691-37.083,20.276-50.488,36.259c-0.24,0.223-0.468,0.461-0.68,0.718
			c-6.405,7.766-11.803,16.253-16.122,25.238c-0.07,0.145-0.136,0.291-0.206,0.436c-0.299,0.629-0.596,1.258-0.884,1.892
			c-0.278,0.607-0.548,1.219-0.817,1.832c-0.065,0.15-0.132,0.299-0.197,0.449c-5.198,11.982-8.568,24.932-9.758,38.499
			c-0.01,0.114-0.021,0.229-0.031,0.343c-0.06,0.709-0.115,1.42-0.163,2.132c-0.023,0.333-0.043,0.666-0.064,0.999
			c-0.034,0.572-0.067,1.144-0.094,1.718c-0.025,0.529-0.042,1.058-0.061,1.588c-0.014,0.423-0.031,0.844-0.042,1.268
			c-0.023,0.981-0.037,1.963-0.037,2.946c0,0.369,0.006,0.735,0.012,1.103l0.008,0.516c0,0.005,0.001,0.01,0.001,0.015
			c0.306,23.711,7.257,45.846,19.077,64.627c0.117,0.237,0.237,0.473,0.38,0.698c16.307,25.591,41.263,44.347,70.271,52.813
			c0.073,0.021,0.148,0.029,0.221,0.048c11.049,3.214,22.723,4.943,34.794,4.943c12.072,0,23.745-1.729,34.794-4.943
			c0.074-0.019,0.149-0.026,0.222-0.048c29.009-8.468,53.964-27.224,70.27-52.813c0.143-0.225,0.262-0.46,0.379-0.696
			c11.82-18.781,18.771-40.915,19.078-64.626c0-0.001,0-0.002,0-0.003l0.008-0.458c0.007-0.392,0.013-0.782,0.013-1.176
			C511.995,306.278,511.981,305.295,511.958,304.313z M480.655,249.702c2.223,3.595,4.243,7.328,6.047,11.182
			c0.243,0.522,0.489,1.043,0.724,1.568c0.046,0.104,0.09,0.208,0.136,0.311c4.289,9.683,7.177,19.971,8.536,30.522l-23.068-17.034
			L480.655,249.702z M469.397,234.565l-11.068,38.543l-23.617,9.2l-39.981-27.777v-23.578l35.516-24.673
			C445.324,212.727,458.673,222.458,469.397,234.565z M424.453,293.442l-14.13,41.581H364.14l-14.13-41.581l37.221-25.858
			L424.453,293.442z M370.144,198.828c0.175-0.027,0.35-0.057,0.525-0.084c0.668-0.102,1.339-0.193,2.012-0.282
			c0.327-0.043,0.654-0.087,0.982-0.128c0.594-0.073,1.189-0.141,1.786-0.205c0.419-0.045,0.838-0.087,1.258-0.127
			c0.535-0.051,1.072-0.1,1.609-0.143c0.502-0.041,1.004-0.075,1.507-0.108c0.473-0.032,0.947-0.065,1.422-0.091
			c0.614-0.033,1.23-0.056,1.846-0.079c0.376-0.014,0.751-0.033,1.128-0.043c1.003-0.027,2.007-0.043,3.013-0.043
			c1.006,0,2.01,0.016,3.013,0.043c0.377,0.01,0.752,0.029,1.128,0.043c0.616,0.023,1.231,0.046,1.846,0.079
			c0.475,0.026,0.948,0.059,1.422,0.09c0.503,0.034,1.006,0.068,1.507,0.108c0.537,0.043,1.073,0.092,1.608,0.143
			c0.421,0.04,0.841,0.083,1.26,0.127c0.596,0.064,1.191,0.131,1.784,0.204c0.329,0.041,0.657,0.085,0.986,0.128
			c0.671,0.089,1.341,0.18,2.008,0.282c0.177,0.027,0.353,0.057,0.53,0.085c2.728,0.428,5.423,0.958,8.081,1.584l-25.172,17.488
			l-25.173-17.488C364.719,199.786,367.415,199.257,370.144,198.828z M344.217,206.28l35.516,24.674v23.577l-39.941,27.749
			l-23.672-9.221l-11.053-38.493C315.791,222.458,329.139,212.727,344.217,206.28z M286.937,262.679
			c0.029-0.065,0.057-0.13,0.085-0.195c0.258-0.577,0.527-1.149,0.795-1.722c1.79-3.811,3.791-7.503,5.991-11.06l7.623,26.551
			l-23.068,17.034C279.727,282.704,282.627,272.387,286.937,262.679z M292.597,362.813c-8.776-14.893-14.14-32.023-15.003-50.314
			l34-25.107l23.649,9.213l15.092,44.411l-16.359,22.993L292.597,362.813z M303.486,378.133l29.026,0.839l9.639,28.364
			C327.176,400.564,313.987,390.522,303.486,378.133z M414.331,413.638c-8.671,2.21-17.75,3.388-27.099,3.388
			s-18.428-1.178-27.099-3.388l-13.917-40.957l16.121-22.659h49.785l16.126,22.666L414.331,413.638z M432.315,407.336l9.637-28.363
			l29.025-0.839C460.477,390.522,447.289,400.564,432.315,407.336z M481.865,362.813l-41.386,1.196l-16.354-22.987l15.076-44.367
			l23.706-9.235l33.961,25.078C496.005,330.79,490.641,347.921,481.865,362.813z"/>
	</g>
</g>
<g>
</g>
<g>
</g>
<g>
</g>
<g>
</g>
<g>
</g>
<g>
</g>
<g>
</g>
<g>
</g>
<g>
</g>
<g>
</g>
<g>
</g>
<g>
</g>
<g>
</g>
<g>
</g>
<g>
</g>
</svg>
