<?xml version="1.0" encoding="iso-8859-1"?>
<!-- Generator: Adobe Illustrator 19.0.0, SVG Export Plug-In . SVG Version: 6.00 Build 0)  -->
<svg version="1.1" id="Capa_1" xmlns="http://www.w3.org/2000/svg" xmlns:xlink="http://www.w3.org/1999/xlink" x="0px" y="0px"
	 viewBox="0 0 512.002 512.002" style="enable-background:new 0 0 512.002 512.002;" xml:space="preserve">
<g>
	<g>
		<path d="M497.475,237.115h-4.254v-41.994c0-4.143-3.358-7.501-7.501-7.501s-7.501,3.358-7.501,7.501v41.994h-67.836v-13.14
			c0-23.281-18.941-42.222-42.223-42.222h-3.074v-48.935c0-15.009,12.211-27.22,27.221-27.22h58.692
			c15.009,0,27.22,12.211,27.22,27.22v27.091c0,4.143,3.358,7.501,7.501,7.501s7.501-3.358,7.501-7.501v-27.091
			c0-23.281-18.94-42.222-42.222-42.222h-58.692c-23.281,0-42.223,18.94-42.223,42.222v48.935h-22.54v-48.935
			c0-23.281-18.94-42.222-42.222-42.222H226.63c-23.281,0-42.223,18.94-42.223,42.222v48.935h-22.492v-48.935
			c0-23.281-18.941-42.222-42.223-42.222H61c-23.281,0-42.222,18.94-42.222,42.222v27.46c0,4.143,3.358,7.501,7.501,7.501
			s7.501-3.358,7.501-7.501v-27.46c0-15.009,12.211-27.22,27.22-27.22h58.693c15.01,0,27.221,12.211,27.221,27.22v48.935h-3.122
			c-23.281,0-42.222,18.94-42.222,42.222v13.14H33.78v-41.937c0-4.143-3.358-7.501-7.501-7.501s-7.501,3.358-7.501,7.501v41.937
			h-4.253C6.516,237.115,0,243.631,0,251.639v20.274c0,8.009,6.516,14.525,14.525,14.525h8.149v29.291
			c-2.845,1.065-4.874,3.801-4.874,7.019c0,4.143,3.358,7.501,7.501,7.501h4.874h23.753h5.12c4.143,0,7.501-3.358,7.501-7.501
			c0-3.31-2.145-6.112-5.12-7.109v-29.201h40.141v41.833h-4.253c-8.01,0-14.526,6.516-14.526,14.525v20.274
			c0,8.009,6.516,14.525,14.526,14.525h8.148v29.291c-2.845,1.065-4.874,3.801-4.874,7.019c0,4.143,3.358,7.501,7.501,7.501h4.874
			h23.754h5.12c4.143,0,7.501-3.358,7.501-7.501c0-3.31-2.145-6.112-5.12-7.109v-29.201h57.59v29.291
			c-2.845,1.065-4.874,3.801-4.874,7.019c0,4.143,3.358,7.501,7.501,7.501h4.874h23.753h5.121c4.143,0,7.501-3.358,7.501-7.501
			c0-3.31-2.146-6.113-5.121-7.109v-29.201h8.394c2.544,0,4.935-0.662,7.017-1.816c2.082,1.154,4.473,1.816,7.017,1.816h8.149
			v29.291c-2.845,1.065-4.874,3.801-4.874,7.019c0,4.143,3.358,7.501,7.501,7.501h4.874h23.754h5.12
			c4.143,0,7.501-3.358,7.501-7.501c0-3.31-2.145-6.112-5.12-7.109v-29.201h57.59v29.291c-2.846,1.065-4.875,3.801-4.875,7.019
			c0,4.143,3.358,7.501,7.501,7.501h4.875h23.753h5.12c4.143,0,7.501-3.358,7.501-7.501c0-3.31-2.145-6.112-5.12-7.109v-29.201
			h8.394c8.009,0,14.525-6.516,14.525-14.525v-20.274c0-8.009-6.516-14.525-14.525-14.525h-4.253v-41.833h39.942v29.291
			c-2.845,1.065-4.874,3.801-4.874,7.019c0,4.143,3.358,7.501,7.501,7.501h4.874h23.754h5.12c4.143,0,7.501-3.358,7.501-7.501
			c0-3.31-2.145-6.112-5.12-7.109v-29.201h8.394c8.009,0,14.525-6.516,14.525-14.525v-20.274
			C512,243.631,505.484,237.115,497.475,237.115z M368.161,196.755L368.161,196.755c15.01-0.001,27.221,12.21,27.221,27.219v104.297
			H282.248V223.975c0-15.009,12.211-27.22,27.221-27.22H368.161z M199.408,132.818L199.408,132.818
			c0.001-15.009,12.212-27.22,27.222-27.22h58.693c15.009,0,27.22,12.211,27.22,27.22v48.935h-3.075
			c-23.281,0-42.223,18.94-42.223,42.222v13.14h-22.54v-13.14c0-23.281-18.94-42.222-42.222-42.222h-3.075V132.818z
			 M267.246,252.116v19.321h-22.54v-19.321H267.246z M116.571,223.975c0-15.009,12.211-27.22,27.22-27.22h58.693
			c15.009,0,27.22,12.211,27.22,27.22v104.296H116.571V223.975z M46.427,315.248h-8.752v-28.809h8.752V315.248z M15.001,271.437
			v-19.321h86.568v19.321H15.001z M129.219,406.404h-8.753v-28.809h8.753V406.404z M225.564,406.404h-8.752v-28.809h8.752V406.404z
			 M248.468,362.594H97.792v-19.321h150.676V362.594z M262.993,328.271c-2.544,0-4.935,0.662-7.017,1.816
			c-2.082-1.154-4.473-1.816-7.017-1.816h-4.253v-41.833h22.54v41.833H262.993z M294.896,406.404h-8.753v-28.809h8.753V406.404z
			 M391.241,406.404h-8.752v-28.809h8.752V406.404z M414.16,343.273v19.321H264.5h-1.016v-19.321H414.16z M474.08,315.248h-8.753
			v-28.809h8.753V315.248z M496.999,271.437h-86.615v-19.321h86.615V271.437z"/>
	</g>
</g>
<g>
</g>
<g>
</g>
<g>
</g>
<g>
</g>
<g>
</g>
<g>
</g>
<g>
</g>
<g>
</g>
<g>
</g>
<g>
</g>
<g>
</g>
<g>
</g>
<g>
</g>
<g>
</g>
<g>
</g>
</svg>
