<?xml version="1.0" encoding="iso-8859-1"?>
<!-- Generator: Adobe Illustrator 19.0.0, SVG Export Plug-In . SVG Version: 6.00 Build 0)  -->
<svg version="1.1" id="Capa_1" xmlns="http://www.w3.org/2000/svg" xmlns:xlink="http://www.w3.org/1999/xlink" x="0px" y="0px"
	 viewBox="0 0 512 512" style="enable-background:new 0 0 512 512;" xml:space="preserve">
<g>
	<g>
		<path d="M354.97,169.414l-31.056-38.936c-1.18-1.704-3.037-2.884-5.157-3.17c-0.014-0.002-0.028-0.005-0.042-0.007
			c-0.124-0.016-0.252-0.02-0.378-0.03c-0.147-0.012-0.293-0.032-0.442-0.035c-0.144-0.002-0.286,0.011-0.429,0.018
			c-0.095,0.003-0.19,0-0.286,0.007c-0.018,0.001-0.036,0.005-0.054,0.007c-0.103,0.009-0.204,0.026-0.306,0.039
			c-0.167,0.021-0.333,0.042-0.496,0.073c-0.099,0.019-0.197,0.045-0.295,0.068c-0.15,0.035-0.301,0.07-0.448,0.114
			c-0.138,0.041-0.273,0.09-0.409,0.139c-0.09,0.032-0.18,0.064-0.268,0.099c-0.193,0.077-0.38,0.164-0.566,0.257
			c-0.014,0.007-0.028,0.014-0.042,0.021c-0.829,0.421-1.587,0.986-2.216,1.701l-33.273,37.779c-2.74,3.11-2.439,7.851,0.671,10.59
			c3.111,2.741,7.852,2.438,10.59-0.671l20.201-22.937c-0.802,18.449-4.09,48.07-15.622,79.461
			c-11.046,30.066-27.401,55.746-48.611,76.325c-26.536,25.746-60.903,43.634-102.148,53.166c-4.035,0.929-6.552,4.959-5.619,8.996
			c0.802,3.469,3.889,5.816,7.304,5.816c0.559,0,1.128-0.064,1.697-0.194c43.946-10.157,80.693-29.34,109.219-57.017
			c22.84-22.16,40.418-49.722,52.247-81.92c12.035-32.76,15.616-63.318,16.525-82.94l17.977,22.538
			c1.482,1.857,3.666,2.825,5.871,2.825c1.64,0,3.292-0.535,4.674-1.637C357.023,177.375,357.554,172.654,354.97,169.414z"/>
	</g>
</g>
<g>
	<g>
		<path d="M339.722,328.099c-18.858,0-34.201,15.342-34.201,34.2c0,18.858,15.343,34.201,34.201,34.201
			c18.858,0,34.201-15.343,34.201-34.201C373.923,343.441,358.58,328.099,339.722,328.099z M339.723,381.493
			c-10.584,0-19.194-8.61-19.194-19.194c0-10.583,8.61-19.193,19.194-19.193c10.584,0,19.194,8.61,19.194,19.193
			C358.917,372.883,350.307,381.493,339.723,381.493z"/>
	</g>
</g>
<g>
	<g>
		<path d="M180.062,189.874l22.289-22.289c2.931-2.931,2.931-7.681,0-10.612c-2.93-2.929-7.681-2.929-10.611,0l-22.289,22.289
			l-22.289-22.289c-2.93-2.929-7.681-2.929-10.611,0c-2.931,2.931-2.931,7.681,0,10.612l22.289,22.289l-22.289,22.289
			c-2.932,2.931-2.932,7.681-0.002,10.612c1.465,1.465,3.385,2.197,5.306,2.197c1.921,0,3.841-0.733,5.306-2.197l22.289-22.289
			l22.289,22.289c1.465,1.465,3.385,2.197,5.306,2.197c1.92,0,3.841-0.733,5.306-2.197c2.931-2.931,2.931-7.681,0-10.612
			L180.062,189.874z"/>
	</g>
</g>
<g>
	<g>
		<path d="M407.934,394.722c-4.144,0-7.503,3.359-7.503,7.503v45.319c0,0.44-0.359,0.797-0.798,0.797H112.368
			c-0.44,0-0.798-0.358-0.798-0.797V144.826c0-4.144-3.359-7.503-7.503-7.503s-7.503,3.359-7.503,7.503v302.719
			c0,8.714,7.09,15.804,15.805,15.804h287.264c8.715,0,15.805-7.09,15.805-15.804v-45.319
			C415.437,398.081,412.078,394.722,407.934,394.722z"/>
	</g>
</g>
<g>
	<g>
		<path d="M425.814,49.201h-75.761v-9.2c0-7.763-6.315-14.079-14.078-14.079h-44.749V17.46C291.227,7.833,283.393,0,273.765,0
			h-35.53c-9.628,0-17.462,7.833-17.462,17.461v8.462h-44.748c-7.763,0-14.078,6.315-14.078,14.079v9.2H86.186
			c-11.379,0-20.637,9.258-20.637,20.637v421.524c0,11.379,9.258,20.637,20.637,20.637h339.628c11.379,0,20.636-9.258,20.636-20.637
			V69.838C446.451,58.459,437.194,49.201,425.814,49.201z M176.953,40.93h51.323c4.144,0,7.503-3.359,7.503-7.503V17.461
			c0-1.353,1.101-2.454,2.455-2.454h35.53c1.354,0,2.455,1.101,2.455,2.454v15.965c0,4.144,3.359,7.503,7.503,7.503h51.323V72.48
			H176.953V40.93z M425.814,496.993H86.186c-3.104,0-5.63-2.526-5.63-5.63V69.838c0-3.105,2.526-5.631,5.63-5.631h10.377v45.705
			c0,4.144,3.359,7.503,7.503,7.503c4.144,0,7.503-3.359,7.503-7.503V64.208h50.376v9.201c0,7.762,6.315,14.078,14.078,14.078
			h159.951c7.762,0,14.078-6.315,14.078-14.078v-9.201h50.376v303.105c0,4.144,3.359,7.503,7.503,7.503s7.503-3.359,7.503-7.503
			V64.208h10.378c3.104,0,5.63,2.526,5.63,5.631v421.524h0.002C431.444,494.468,428.918,496.993,425.814,496.993z"/>
	</g>
</g>
<g>
</g>
<g>
</g>
<g>
</g>
<g>
</g>
<g>
</g>
<g>
</g>
<g>
</g>
<g>
</g>
<g>
</g>
<g>
</g>
<g>
</g>
<g>
</g>
<g>
</g>
<g>
</g>
<g>
</g>
</svg>
