<?xml version="1.0" encoding="iso-8859-1"?>
<!-- Generator: Adobe Illustrator 19.0.0, SVG Export Plug-In . SVG Version: 6.00 Build 0)  -->
<svg version="1.1" id="Capa_1" xmlns="http://www.w3.org/2000/svg" xmlns:xlink="http://www.w3.org/1999/xlink" x="0px" y="0px"
	 viewBox="0 0 512 512" style="enable-background:new 0 0 512 512;" xml:space="preserve">
<g>
	<g>
		<path d="M487.601,483.257l-41.017-41.017V384.9c0-16.332-4.274-32.416-12.35-46.6c-4.407-14.734-12.422-28.234-23.602-39.415
			c-17.762-17.762-41.377-27.543-66.496-27.543c-12.396,0-24.424,2.387-35.565,6.934c-0.883-0.862-1.976-1.51-3.203-1.856
			l-7.769-2.193c-0.185-0.053-0.372-0.098-0.56-0.135c-5.339-1.073-10.387-8.544-10.387-15.372v-21.08
			c3.516-2.357,6.941-4.961,10.266-7.824c16.357-14.083,26.674-34.394,28.938-56.56c12.037-0.648,21.631-10.646,21.631-22.842
			v-17.029c0-6.915-3.086-13.313-8.28-17.604V90.37c0-4.147-3.362-7.509-7.509-7.509c-4.147,0-7.509,3.361-7.509,7.509v22.575
			c-3.236,0.592-7.132,1.675-11.007,3.642V74.728c0-15.635-12.72-28.355-28.355-28.355h-18.942c-6.681,0-13.209,2.329-18.381,6.557
			l-1.859,1.519c-3.3,2.697-7.464,4.183-11.726,4.183c-0.932,0-1.858-0.084-2.773-0.223c-3.267-0.498-6.375-1.853-8.953-3.96
			l-1.859-1.52c-5.173-4.228-11.701-6.557-18.382-6.557h-18.941c-15.635,0-28.355,12.72-28.355,28.355v41.858
			c-3.875-1.967-7.772-3.049-11.007-3.642V54.672c0-21.866,17.789-39.655,39.655-39.655h101.231
			c21.866,0,39.655,17.789,39.655,39.655c0,4.147,3.362,7.509,7.509,7.509c4.147,0,7.509-3.361,7.509-7.509
			C339.206,24.526,314.681,0,284.535,0H183.303c-30.146,0-54.672,24.526-54.672,54.672v61.108c-5.195,4.291-8.28,10.69-8.28,17.605
			v17.029c0,12.196,9.593,22.193,21.631,22.842c2.264,22.166,12.581,42.476,28.938,56.56c3.326,2.864,6.751,5.468,10.267,7.824
			v21.081c0,6.828-5.048,14.299-10.387,15.372c-0.188,0.037-0.375,0.082-0.56,0.135l-4.246,1.198
			c-3.603-1.951-7.949-2.489-12.066-1.204l-65.117,20.302c-36.439,10.752-62.721,42.069-66.966,79.798
			c-0.463,4.121,2.501,7.838,6.622,8.301c4.121,0.463,7.838-2.501,8.301-6.622c3.57-31.729,25.685-58.062,56.34-67.089
			c0.038-0.011,0.076-0.022,0.114-0.034l65.175-20.32c0.227-0.073,0.487,0.004,0.58,0.167c9.836,17.488,38.737,35.192,74.942,35.192
			c9.429,0,18.752-1.217,27.599-3.546c-0.054,0.099-0.103,0.199-0.157,0.298c-7.356,13.573-11.265,28.842-11.265,44.712
			c0,7.401,0.856,14.669,2.508,21.697c0-0.001,0-0.002-0.001-0.002c-0.81-0.037-1.63-0.062-2.47-0.062
			c-21.272,0-32.987,11.874-32.987,33.434v32.644h-15.995V392.33c0-3.42-3.307-5.464-6.505-5.464c-2.167,0-3.449,1.1-4.633,2.29
			l-13.623,16.14c-1.448,1.18-2.978,3.74-2.978,5.929c0,3.423,2.518,6.208,5.613,6.208c1.364,0,2.777-0.722,3.877-1.979l0.042-0.048
			l3.708-5.512v43.199H94.587v-64.936c0-4.147-3.362-7.509-7.509-7.509c-4.147,0-7.509,3.361-7.509,7.509v33.398H36.27v-10.611
			c0-4.147-3.362-7.509-7.509-7.509c-4.147,0-7.509,3.361-7.509,7.509v32.496c0,13.602,11.066,24.669,24.669,24.669h375.352
			l40.737,40.737c2.033,2.034,4.737,3.154,7.613,3.154c2.876,0,5.58-1.12,7.612-3.153l10.365-10.364c0-0.001,0-0.001,0.001-0.001
			C491.798,494.284,491.798,487.455,487.601,483.257z M45.922,453.092c-5.322,0-9.652-4.33-9.652-9.652v-6.868h43.299v16.52H45.922z
			 M180.718,218.435c-14.918-12.844-23.729-32.094-24.174-52.816c-0.087-4.083-3.422-7.347-7.507-7.347h-5.812
			c-4.333,0-7.858-3.525-7.858-7.858v-17.029c0-2.353,1.045-4.533,2.807-6.008c2.638,0.254,7.59,1.07,11.651,3.763
			c0.039,0.026,0.077,0.054,0.116,0.08c0.26,0.175,0.515,0.361,0.767,0.552c0.17,0.13,0.339,0.262,0.504,0.399
			c0.085,0.07,0.168,0.141,0.252,0.213c0.246,0.214,0.49,0.433,0.725,0.665c2.947,2.918,7.327,3.77,11.156,2.172
			c3.843-1.603,6.327-5.328,6.327-9.489V74.728c0-7.354,5.983-13.338,13.338-13.338h18.942c3.226,0,6.379,1.124,8.876,3.166
			l1.859,1.52c5.451,4.457,12.207,7.079,19.211,7.505c0.671,0.041,1.344,0.069,2.019,0.069c7.717,0,15.257-2.69,21.23-7.574
			l1.859-1.519c2.498-2.042,5.65-3.167,8.877-3.167h18.942c7.355,0,13.338,5.983,13.338,13.338v51.005
			c0,4.161,2.483,7.886,6.327,9.489c0.288,0.12,0.58,0.222,0.874,0.314c0.089,0.028,0.178,0.052,0.267,0.078
			c0.215,0.061,0.431,0.116,0.648,0.163c0.092,0.02,0.183,0.041,0.274,0.058c0.294,0.055,0.588,0.102,0.884,0.131
			c0.027,0.003,0.055,0.003,0.082,0.005c0.274,0.025,0.548,0.037,0.822,0.04c0.036,0,0.072,0.005,0.108,0.005
			c0.056,0,0.111-0.007,0.166-0.008c0.218-0.004,0.436-0.014,0.653-0.032c0.088-0.007,0.176-0.013,0.263-0.022
			c0.294-0.031,0.586-0.072,0.876-0.128c0.016-0.003,0.031-0.008,0.047-0.011c0.275-0.055,0.548-0.124,0.818-0.202
			c0.085-0.024,0.169-0.052,0.254-0.079c0.21-0.066,0.418-0.14,0.624-0.22c0.08-0.031,0.161-0.061,0.241-0.094
			c0.276-0.115,0.548-0.24,0.814-0.379c0.002-0.001,0.003-0.002,0.005-0.003c0.263-0.139,0.52-0.293,0.772-0.456
			c0.073-0.047,0.144-0.097,0.216-0.146c0.188-0.128,0.372-0.263,0.553-0.405c0.068-0.054,0.137-0.106,0.204-0.161
			c0.237-0.196,0.47-0.4,0.692-0.62c0.241-0.239,0.491-0.464,0.745-0.684c0.067-0.058,0.135-0.115,0.203-0.172
			c0.221-0.185,0.446-0.363,0.674-0.535c0.039-0.03,0.078-0.061,0.118-0.09c0.254-0.186,0.513-0.362,0.774-0.533
			c0.093-0.061,0.186-0.12,0.28-0.178c0.19-0.119,0.381-0.234,0.574-0.345c0.091-0.053,0.181-0.107,0.273-0.158
			c0.246-0.137,0.494-0.266,0.743-0.391c0.13-0.066,0.261-0.128,0.392-0.19c0.141-0.067,0.282-0.132,0.423-0.196
			c0.547-0.245,1.095-0.466,1.64-0.662c0.073-0.026,0.145-0.052,0.217-0.077c2.704-0.945,5.281-1.324,6.946-1.477
			c1.771,1.475,2.822,3.663,2.822,6.022v17.029c0,4.333-3.525,7.858-7.858,7.858h-5.812c-4.084,0-7.419,3.264-7.507,7.347
			c-0.445,20.722-9.256,39.972-24.175,52.816c-15.475,13.327-33.374,20.205-53.2,20.444
			C214.093,238.64,196.194,231.762,180.718,218.435z M233.919,308.9c-24.344,0-46.005-9.852-56.852-21.017
			c11.906-4.309,19.136-17.871,19.136-29.163v-12.806c11.724,5.155,24.303,7.834,37.632,7.983c0.028,0,0.056,0,0.084,0
			c0.028,0,0.056,0,0.084,0c13.33-0.149,25.908-2.828,37.632-7.983v12.805c0,11.304,7.246,24.887,19.176,29.179
			c-3.493,2.415-6.844,5.078-10.025,7.984C267.831,304.158,250.798,308.9,233.919,308.9z M268.77,421.649v31.443h-37.124v-32.644
			c0-13.354,6.22-20.125,18.487-20.125c2.619,0,4.956,0.341,7.038,0.976v-0.001c2.977,7.208,6.865,14.039,11.601,20.353
			C268.772,421.651,268.771,421.65,268.77,421.649z M283.269,453.092v-16.024c-0.001,0-0.001-0.001-0.002-0.002
			c8.068,6.874,17.119,12.264,26.819,16.026H283.269z M288.259,421.258c-14.925-14.924-23.145-34.768-23.145-55.876
			c0-21.107,8.22-40.951,23.145-55.876c0.773-0.773,1.566-1.516,2.365-2.253c-0.031,0.03-0.058,0.062-0.089,0.091
			c-0.101,0.094-0.2,0.192-0.301,0.286c3.692-2.475,6.992-5.125,9.852-7.874c12.918-8.71,28.123-13.396,44.051-13.396
			c21.108,0,40.952,8.219,55.877,23.146c14.925,14.925,23.145,34.769,23.145,55.876c0,21.108-8.219,40.952-23.145,55.876
			c-14.925,14.926-34.77,23.146-55.877,23.146C323.028,444.403,303.184,436.184,288.259,421.258z M413.951,453.092h-35.765
			c9.743-3.779,18.831-9.199,26.926-16.117l11.483,11.483C415.319,449.777,414.422,451.364,413.951,453.092z M431.567,435.266
			c-1.621,0.489-3.107,1.366-4.354,2.574l-11.483-11.483c6.751-7.901,12.073-16.75,15.837-26.228V435.266z M469.624,495.221
			L433.1,458.697c0.964-0.365,1.869-0.93,2.645-1.705c0.777-0.776,1.341-1.682,1.707-2.647l36.524,36.524L469.624,495.221z"/>
	</g>
</g>
<g>
	<g>
		<path d="M393.702,315.815c-13.24-13.24-30.842-20.531-49.566-20.531s-36.327,7.292-49.566,20.531
			c-13.24,13.24-20.531,30.843-20.531,49.566s7.292,36.327,20.531,49.566c13.24,13.24,30.842,20.531,49.566,20.531
			s36.326-7.292,49.566-20.531c13.24-13.24,20.531-30.843,20.531-49.566S406.942,329.055,393.702,315.815z M383.084,404.328
			c-10.404,10.404-24.235,16.134-38.947,16.134c-14.713,0-28.544-5.73-38.948-16.134c-10.403-10.402-16.133-24.235-16.133-38.947
			c0-14.712,5.73-28.544,16.133-38.947c10.404-10.404,24.235-16.134,38.948-16.134c14.712,0,28.544,5.73,38.947,16.134
			C404.559,347.909,404.559,382.853,383.084,404.328z"/>
	</g>
</g>
<g>
</g>
<g>
</g>
<g>
</g>
<g>
</g>
<g>
</g>
<g>
</g>
<g>
</g>
<g>
</g>
<g>
</g>
<g>
</g>
<g>
</g>
<g>
</g>
<g>
</g>
<g>
</g>
<g>
</g>
</svg>
