<?xml version="1.0" encoding="iso-8859-1"?>
<!-- Generator: Adobe Illustrator 19.0.0, SVG Export Plug-In . SVG Version: 6.00 Build 0)  -->
<svg version="1.1" id="Capa_1" xmlns="http://www.w3.org/2000/svg" xmlns:xlink="http://www.w3.org/1999/xlink" x="0px" y="0px"
	 viewBox="0 0 512.001 512.001" style="enable-background:new 0 0 512.001 512.001;" xml:space="preserve">
<g>
	<g>
		<path d="M378.351,328.646v-32.52c11.214,0.801,15.379,5.928,19.224,5.928c4.806,0,7.049-6.088,7.049-9.132
			c0-7.85-15.379-11.213-26.272-11.534v-4.325c0-1.923-2.403-3.685-4.806-3.685c-2.723,0-4.646,1.762-4.646,3.685v4.646
			c-15.219,1.602-30.438,9.612-30.438,29.797c0,20.506,16.02,26.273,30.438,31.399v37.647c-16.34-1.281-20.666-12.495-25.952-12.495
			c-4.005,0-7.369,5.287-7.369,9.131c0,7.85,13.457,18.583,33.321,18.904v4.966c-0.001,1.921,1.922,3.684,4.645,3.684
			c2.403,0,4.806-1.763,4.806-3.685v-5.447c17.301-2.403,29.156-13.297,29.156-33.001
			C407.507,340.822,392.288,333.773,378.351,328.646z M369.86,325.604c-8.49-3.204-15.379-6.569-15.379-15.7
			c0-8.331,6.408-12.335,15.379-13.457V325.604z M377.389,380.231v-33.802c7.85,3.365,14.098,7.85,14.098,17.943
			C391.487,373.503,386.04,378.629,377.389,380.231z"/>
	</g>
</g>
<g>
	<g>
		<path d="M436.533,214.431c-9.38-49.035-35.466-93.773-73.758-126.318c-39.718-33.757-90.34-52.349-142.539-52.349
			c-41.568,0-82.052,11.641-117.078,33.664c-3.509,2.207-4.565,6.839-2.358,10.349c2.206,3.509,6.839,4.565,10.348,2.359
			c10.131-6.37,20.753-11.806,31.743-16.276l68.721,47.743c0.364,0.253,0.739,0.483,1.119,0.701v49.264
			c-0.213,0.132-0.427,0.261-0.634,0.405l-75.662,52.565c-0.468,0.325-0.903,0.683-1.321,1.055l-48.942-19.066
			c-0.049-0.201-0.09-0.403-0.148-0.602l-21.652-75.406c6.05-7.071,12.602-13.767,19.643-20.02c3.099-2.752,3.38-7.495,0.628-10.595
			c-2.753-3.099-7.495-3.38-10.595-0.627C26.989,133.069,0,193.109,0,256.001c0,52.46,18.231,102.11,51.674,141.745
			c0.252,0.299,0.502,0.599,0.755,0.896c0.663,0.778,1.334,1.55,2.008,2.319c0.608,0.696,1.22,1.388,1.837,2.076
			c0.418,0.466,0.838,0.93,1.261,1.392c0.912,1,1.834,1.991,2.763,2.973c0.202,0.213,0.402,0.426,0.605,0.638
			c1.185,1.242,2.382,2.47,3.594,3.683c0.003,0.003,0.006,0.006,0.009,0.009c0.001,0.001,0.003,0.002,0.004,0.004
			c5.082,5.085,10.396,9.919,15.934,14.472c0.91,0.75,1.832,1.482,2.752,2.216c0.338,0.268,0.671,0.543,1.01,0.809
			c38.643,30.469,86.064,47.004,136.031,47.004c25.997,0,51.276-4.464,75.36-13.256c0.387-0.141,0.774-0.285,1.16-0.428
			c1.518-0.564,3.03-1.145,4.538-1.743c0.668-0.265,1.337-0.528,2.003-0.8c0.78-0.319,1.559-0.643,2.337-0.97
			c0.207-0.087,0.417-0.171,0.624-0.259c19.924,11.112,42.854,17.456,67.242,17.456c76.37,0,138.5-62.131,138.5-138.5
			C512,284.055,481.299,237.408,436.533,214.431z M387.515,137.156c14.967,21.053,25.91,44.801,32.075,69.976
			c-14.426-5.106-29.937-7.895-46.09-7.895c-1.28,0-2.555,0.021-3.827,0.055L387.515,137.156z M353.055,99.55
			c8.32,7.071,16.014,14.765,23.044,22.977l-21.65,75.399c-0.257,0.893-0.425,1.797-0.514,2.701
			c-17.549,2.493-34.05,8.281-48.852,16.726c-0.336-0.284-0.68-0.56-1.045-0.814l-75.662-52.565
			c-0.207-0.144-0.421-0.273-0.634-0.405v-49.264c0.38-0.217,0.754-0.447,1.117-0.7l68.664-47.704
			C317.57,74.045,336.35,85.351,353.055,99.55z M160.309,59.685c19.293-5.879,39.467-8.911,59.927-8.911
			c20.433,0,40.602,3.071,59.87,8.949l-59.813,41.555c-0.034,0.023-0.08,0.024-0.116-0.001L160.309,59.685z M220.236,176.595
			l71.328,49.553c-27.809,20.474-47.72,51.074-54.245,86.316h-63.343l-28.516-83.919L220.236,176.595z M58.358,129.898
			c-1.85,2.381-3.648,4.798-5.389,7.251C54.71,134.696,56.506,132.278,58.358,129.898z M52.96,137.161l18.637,64.906
			c0.012,0.041-0.002,0.086-0.037,0.111l-56.156,41.467C17.731,205.155,30.869,168.279,52.96,137.161z M45.04,362.781
			c-17.981-29.392-28.769-63.636-29.916-100.27l65.351-48.257c0.527-0.389,1.015-0.815,1.479-1.262l48.875,19.04
			c0.074,0.271,0.147,0.542,0.238,0.81l28.868,84.957c0.048,0.141,0.107,0.275,0.159,0.413l-33.412,46.964
			c-0.312-0.029-0.624-0.055-0.94-0.064L45.04,362.781z M55.383,378.096l69.925,2.02c0.043,0.001,0.081,0.029,0.095,0.07
			l23.144,68.112C111.114,434.298,78.828,409.669,55.383,378.096z M274.107,454.085c-17.439,4.742-35.461,7.143-53.871,7.143
			c-18.643,0-36.707-2.513-53.888-7.193l-26.734-78.678c-0.183-0.538-0.404-1.055-0.643-1.562l33.015-46.405
			c0.481,0.049,0.965,0.083,1.456,0.083h61.939c-0.25,3.39-0.381,6.812-0.381,10.264c0,39.974,17.029,76.04,44.206,101.343
			L274.107,454.085z M373.5,461.228c-68.093,0-123.49-55.397-123.49-123.49s55.397-123.49,123.49-123.49
			s123.49,55.397,123.49,123.49S441.593,461.228,373.5,461.228z"/>
	</g>
</g>
<g>
	<g>
		<path d="M470.599,349.305c-4.067-0.804-8.013,1.847-8.813,5.914c-8.267,42.01-45.397,72.5-88.286,72.5
			c-49.616,0-89.982-40.365-89.982-89.981c0-49.616,40.366-89.982,89.982-89.982c21.444,0,42.211,7.667,58.478,21.59
			c16.093,13.775,26.851,32.8,30.291,53.572c0.678,4.09,4.543,6.85,8.631,6.178c4.089-0.677,6.855-4.541,6.178-8.631
			c-4.016-24.251-16.566-46.455-35.339-62.523c-18.983-16.248-43.217-25.196-68.237-25.196
			c-57.893,0-104.992,47.099-104.992,104.992c0,57.892,47.099,104.991,104.992,104.991c50.042,0,93.365-35.585,103.014-84.612
			C477.314,354.05,474.666,350.105,470.599,349.305z"/>
	</g>
</g>
<g>
</g>
<g>
</g>
<g>
</g>
<g>
</g>
<g>
</g>
<g>
</g>
<g>
</g>
<g>
</g>
<g>
</g>
<g>
</g>
<g>
</g>
<g>
</g>
<g>
</g>
<g>
</g>
<g>
</g>
</svg>
