<?xml version="1.0" encoding="iso-8859-1"?>
<!-- Generator: Adobe Illustrator 19.0.0, SVG Export Plug-In . SVG Version: 6.00 Build 0)  -->
<svg version="1.1" id="Capa_1" xmlns="http://www.w3.org/2000/svg" xmlns:xlink="http://www.w3.org/1999/xlink" x="0px" y="0px"
	 viewBox="0 0 512.001 512.001" style="enable-background:new 0 0 512.001 512.001;" xml:space="preserve">
<g>
	<g>
		<path d="M279.092,212.491h-45.366c-3.705,0-7.283,2.683-7.283,5.239v19.679c0,3.067,3.705,5.367,8.178,5.367
			c4.345,0,8.435-2.3,8.435-5.367v-10.35h26.707v8.433l-33.353,59.807c-0.639,1.022-0.766,1.917-0.766,2.938
			c0,4.729,5.238,8.307,10.478,8.307c2.171,0,3.833-0.767,4.728-2.428l32.332-62.106c1.533-3.067,3.193-7.028,3.193-9.712h0V217.73
			C286.375,215.175,282.287,212.491,279.092,212.491z"/>
	</g>
</g>
<g>
	<g>
		<path d="M511.678,156.282c-0.144-0.855-0.345-1.691-0.578-2.513c-1.434-5.049-4.517-9.423-8.876-12.485l-8.899-6.254
			c-0.001-0.001-0.003-0.002-0.004-0.003c-0.002-0.002-0.005-0.003-0.007-0.005L390.108,62.487
			c-14.345-10.081-31.194-15.409-48.725-15.409h-4.137H174.755h-4.137c-17.532,0-34.381,5.329-48.725,15.41L9.777,141.284
			c-5.068,3.562-8.426,8.889-9.453,14.998c-1.027,6.108,0.403,12.239,4.026,17.262l45.061,62.478
			c7.351,10.193,21.24,12.624,31.621,5.532l40.796-27.879V444.25c0,11.398,9.273,20.672,20.672,20.672h227.001h0.001
			c9.973,0,18.32-7.1,20.251-16.511c0.276-1.344,0.421-2.736,0.421-4.161V213.674l40.795,27.879
			c1.297,0.886,2.649,1.624,4.037,2.216c9.713,4.147,21.151,1.17,27.584-7.748l45.062-62.478c1.784-2.474,3.034-5.217,3.723-8.092
			c0.01-0.044,0.024-0.088,0.034-0.132c0.027-0.114,0.046-0.229,0.071-0.343C512.092,162.157,512.172,159.217,511.678,156.282z
			 M319.013,62.078c-12.449,22.968-36.642,37.543-63.012,37.543s-50.563-14.576-63.012-37.543H319.013z M72.569,229.169
			c-3.606,2.466-8.436,1.622-10.992-1.922l-45.061-62.479c-1.26-1.746-1.757-3.877-1.399-6c0.356-2.124,1.523-3.976,3.285-5.214
			l1.671-1.175l54.431,75.466L72.569,229.169z M423.852,218.522l-36.946-25.249c-2.294-1.569-5.27-1.739-7.732-0.44
			c-2.46,1.299-3.999,3.852-3.999,6.633V444.25c0,0.196-0.01,0.389-0.029,0.579c-0.291,2.857-2.711,5.093-5.643,5.093H142.5
			c-3.128,0-5.672-2.544-5.672-5.672v-74.642l33.392-33.391c2.929-2.93,2.929-7.678,0-10.607c-2.929-2.927-7.677-2.929-10.607,0
			l-22.785,22.785v-148.93c0-2.781-1.539-5.334-3.999-6.633c-1.1-0.58-2.302-0.867-3.5-0.867c-1.484,0-2.963,0.439-4.232,1.308
			l-38.204,26.108l-54.546-75.626l98.172-68.995c11.804-8.296,25.671-12.681,40.1-12.681h4.137c0.953,0,1.83,0.579,2.235,1.478
			c13.988,31.021,45.001,51.066,79.01,51.066c34.009,0,65.022-20.045,79.009-51.066c0.405-0.897,1.282-1.478,2.236-1.478h4.137
			c14.428,0,28.294,4.386,40.1,12.681l17.018,11.961l-73.009,73.009c-2.929,2.93-2.929,7.678,0,10.607
			c2.93,2.928,7.678,2.928,10.607,0l74.859-74.86l67.449,47.404L423.852,218.522z M496.286,163.393
			c-0.218,0.479-0.485,0.939-0.8,1.376l-45.062,62.478c-2.395,3.321-6.789,4.271-10.302,2.347c-0.234-0.128-0.465-0.27-0.69-0.424
			l-3.192-2.181l54.442-75.483l2.918,2.051c0.084,0.059,0.161,0.126,0.242,0.189c1.409,1.073,2.412,2.546,2.872,4.241
			c0.009,0.032,0.013,0.065,0.021,0.097c0.058,0.226,0.111,0.453,0.15,0.686c0.089,0.531,0.125,1.062,0.109,1.587
			C496.963,161.408,496.723,162.437,496.286,163.393z"/>
	</g>
</g>
<g>
	<g>
		<path d="M256.001,165.378c-49.97,0-90.623,40.653-90.623,90.622c0,49.97,40.653,90.623,90.623,90.623
			c49.969,0,90.622-40.653,90.622-90.623C346.623,206.031,305.97,165.378,256.001,165.378z M256.001,331.623
			c-41.699,0-75.623-33.924-75.623-75.623c0-41.698,33.924-75.622,75.623-75.622c41.698,0,75.622,33.924,75.622,75.622
			C331.623,297.699,297.699,331.623,256.001,331.623z"/>
	</g>
</g>
<g>
</g>
<g>
</g>
<g>
</g>
<g>
</g>
<g>
</g>
<g>
</g>
<g>
</g>
<g>
</g>
<g>
</g>
<g>
</g>
<g>
</g>
<g>
</g>
<g>
</g>
<g>
</g>
<g>
</g>
</svg>
