<?xml version="1.0" encoding="iso-8859-1"?>
<!-- Generator: Adobe Illustrator 19.0.0, SVG Export Plug-In . SVG Version: 6.00 Build 0)  -->
<svg version="1.1" id="Capa_1" xmlns="http://www.w3.org/2000/svg" xmlns:xlink="http://www.w3.org/1999/xlink" x="0px" y="0px"
	 viewBox="0 0 512 512" style="enable-background:new 0 0 512 512;" xml:space="preserve">
<g>
	<g>
		<path d="M468.382,359.782c-13.383-17.891-31.781-30.688-53.208-37.011l-91.349-28.483c-1.652-0.515-3.351-0.742-5.032-0.704
			c-3.36-3.556-5.634-8.925-5.634-13.747V259.22c3.962-2.634,7.816-5.562,11.558-8.784c17.98-15.481,29.263-37.872,31.598-62.277
			c13.128-0.372,23.693-11.167,23.693-24.383v-18.704c0-7.269-3.218-14.033-8.636-18.613v-24.197c0-4.15-3.363-7.513-7.513-7.513
			c-4.149,0-7.513,3.363-7.513,7.513l-0.001,16.137c-0.629-0.213-1.261-0.411-1.89-0.62c-0.954-0.317-1.909-0.631-2.864-0.939
			c-1.247-0.401-2.494-0.792-3.743-1.177c-0.939-0.29-1.878-0.582-2.819-0.863c-1.288-0.385-2.578-0.756-3.868-1.125
			c-0.9-0.257-1.8-0.52-2.701-0.769c-1.39-0.384-2.781-0.75-4.173-1.115c-0.802-0.21-1.603-0.429-2.405-0.633
			c-1.774-0.451-3.549-0.878-5.325-1.297c-0.421-0.099-0.841-0.208-1.262-0.305c-2.193-0.508-4.389-0.99-6.586-1.45
			c-0.666-0.139-1.333-0.264-2-0.399c-1.538-0.311-3.076-0.621-4.615-0.909c-0.852-0.159-1.704-0.304-2.556-0.456
			c-1.358-0.242-2.715-0.483-4.074-0.707c-0.917-0.151-1.834-0.29-2.752-0.433c-1.299-0.202-2.597-0.401-3.897-0.586
			c-0.942-0.134-1.884-0.26-2.827-0.386c-1.28-0.17-2.559-0.335-3.839-0.489c-0.952-0.115-1.904-0.224-2.856-0.33
			c-1.278-0.142-2.555-0.274-3.834-0.399c-0.946-0.093-1.893-0.184-2.839-0.268c-1.298-0.115-2.596-0.217-3.894-0.316
			c-0.924-0.07-1.847-0.142-2.771-0.203c-1.35-0.09-2.7-0.163-4.05-0.234c-0.869-0.046-1.738-0.098-2.607-0.137
			c-1.488-0.066-2.975-0.111-4.463-0.155c-0.73-0.022-1.46-0.053-2.19-0.069c-2.216-0.049-4.432-0.077-6.648-0.077
			c-2.215,0-4.431,0.028-6.646,0.077c-0.732,0.016-1.464,0.048-2.196,0.069c-1.485,0.044-2.971,0.089-4.456,0.155
			c-0.872,0.039-1.745,0.091-2.617,0.137c-1.347,0.071-2.693,0.144-4.04,0.234c-0.925,0.062-1.85,0.134-2.775,0.204
			c-1.296,0.098-2.593,0.2-3.889,0.315c-0.949,0.084-1.898,0.176-2.847,0.269c-1.275,0.125-2.549,0.257-3.824,0.398
			c-0.956,0.106-1.912,0.216-2.867,0.331c-1.274,0.153-2.548,0.317-3.822,0.486c-0.948,0.126-1.896,0.253-2.843,0.388
			c-1.294,0.185-2.588,0.383-3.881,0.584c-0.922,0.143-1.844,0.283-2.766,0.435c-1.35,0.223-2.7,0.462-4.049,0.703
			c-0.861,0.154-1.722,0.3-2.582,0.461c-1.526,0.285-3.05,0.592-4.574,0.901c-0.679,0.138-1.359,0.265-2.038,0.407
			c-2.194,0.459-4.386,0.941-6.577,1.448c-0.446,0.103-0.892,0.218-1.338,0.324c-1.75,0.413-3.499,0.834-5.247,1.278
			c-0.82,0.208-1.639,0.432-2.459,0.647c-1.372,0.36-2.744,0.72-4.115,1.099c-0.918,0.254-1.835,0.521-2.752,0.784
			c-1.271,0.364-2.541,0.728-3.811,1.108c-0.959,0.287-1.917,0.584-2.875,0.88c-1.227,0.379-2.453,0.763-3.677,1.157
			c-0.977,0.315-1.953,0.636-2.928,0.96c-0.618,0.205-1.237,0.399-1.854,0.608V67.108c0-17.862,12.135-33.226,29.511-37.362
			l54.849-13.056c9.164-2.181,18.862-2.222,28.044-0.115l58.468,13.409c17.558,4.027,29.821,19.42,29.821,37.432
			c0,4.15,3.363,7.513,7.513,7.513c4.15,0,7.513-3.363,7.513-7.513c0-25.062-17.061-46.477-41.488-52.08L271.414,1.928
			c-11.422-2.618-23.485-2.569-34.883,0.145l-54.848,13.056c-24.175,5.754-41.059,27.129-41.059,51.98l0.002,59.35
			c-5.419,4.58-8.638,11.344-8.638,18.614v18.704c0,13.216,10.565,24.011,23.693,24.383c2.334,24.405,13.618,46.796,31.598,62.277
			c3.742,3.222,7.596,6.15,11.558,8.784v20.618c0,4.822-2.273,10.191-5.633,13.747c-1.681-0.039-3.38,0.188-5.032,0.704
			l-91.349,28.483c-21.427,6.323-39.824,19.119-53.208,37.011c-13.394,17.907-20.474,39.192-20.474,61.555v5.602
			c0,4.15,3.363,7.513,7.513,7.513c4.15,0,7.513-3.363,7.513-7.513v-5.602c0-19.093,6.045-37.266,17.481-52.554
			c11.437-15.289,27.162-26.221,45.477-31.613c0.038-0.011,0.076-0.022,0.114-0.034l48.649-15.169l40.642,46.383
			c5.848,6.674,14.126,10.303,22.654,10.303c3.262,0,6.562-0.531,9.774-1.626l9.185-3.129l12.941,27.326
			c-3.975,1.515-7.649,3.855-10.816,6.961c-6.143,6.028-9.666,14.393-9.666,22.949v45.88c0,6.034,4.909,10.943,10.943,10.943h18.825
			c6.033,0,10.942-4.909,10.942-10.943v-16.447c12.816-4.006,22.08-16.049,22.08-29.972c0-13.363-8.551-24.924-20.465-29.407
			l12.925-27.292l9.184,3.129c3.214,1.095,6.513,1.626,9.775,1.626c8.528,0,16.806-3.63,22.654-10.304l40.642-46.382l48.649,15.169
			c0.038,0.012,0.076,0.023,0.114,0.034c18.315,5.392,34.041,16.324,45.477,31.613c11.436,15.288,17.481,33.461,17.481,52.554
			v64.301c0,6.25-5.085,11.336-11.336,11.336h-37.693V425.03c0-4.15-3.363-7.513-7.513-7.513c-4.15,0-7.513,3.363-7.513,7.513
			v71.943H102.222V425.03c0-4.15-3.363-7.513-7.513-7.513s-7.513,3.363-7.513,7.513v71.943H49.503
			c-6.25,0-11.336-5.085-11.336-11.336v-23.74c0-4.15-3.363-7.513-7.513-7.513s-7.513,3.363-7.513,7.513v23.74
			c0,14.537,11.826,26.363,26.363,26.363h412.991c14.537,0,26.363-11.826,26.363-26.363v-64.301
			C488.856,398.974,481.776,377.689,468.382,359.782z M163.579,131.601c0.617-0.202,1.236-0.39,1.854-0.588
			c1.488-0.477,2.976-0.952,4.466-1.405c0.791-0.241,1.585-0.467,2.377-0.701c1.322-0.391,2.644-0.782,3.968-1.154
			c0.863-0.243,1.727-0.472,2.591-0.706c1.255-0.341,2.509-0.682,3.765-1.006c0.905-0.234,1.812-0.456,2.718-0.681
			c1.218-0.303,2.435-0.604,3.654-0.891c0.931-0.219,1.863-0.429,2.795-0.639c1.195-0.27,2.391-0.536,3.587-0.791
			c0.948-0.202,1.897-0.396,2.846-0.588c1.185-0.24,2.369-0.475,3.554-0.7c0.956-0.182,1.913-0.358,2.869-0.53
			c1.181-0.213,2.362-0.418,3.543-0.616c0.96-0.161,1.919-0.318,2.879-0.47c1.183-0.186,2.366-0.363,3.549-0.535
			c0.957-0.139,1.915-0.276,2.873-0.406c1.192-0.161,2.384-0.31,3.576-0.456c0.949-0.116,1.897-0.234,2.846-0.34
			c1.209-0.136,2.418-0.257,3.627-0.378c0.931-0.093,1.863-0.19,2.795-0.274c1.24-0.112,2.48-0.206,3.72-0.302
			c0.901-0.069,1.803-0.145,2.704-0.206c1.298-0.088,2.595-0.156,3.893-0.226c0.843-0.045,1.686-0.1,2.528-0.138
			c1.434-0.065,2.869-0.107,4.303-0.15c0.707-0.021,1.414-0.053,2.121-0.069c2.139-0.048,4.279-0.075,6.417-0.075
			c0.005,0,0.01,0,0.015,0c2.134,0,4.269,0.026,6.404,0.074c0.712,0.016,1.424,0.048,2.135,0.07
			c1.427,0.043,2.854,0.085,4.281,0.149c0.857,0.039,1.713,0.094,2.57,0.14c1.284,0.069,2.568,0.137,3.852,0.223
			c0.914,0.062,1.828,0.138,2.742,0.209c1.226,0.094,2.452,0.188,3.677,0.298c0.946,0.085,1.891,0.183,2.837,0.278
			c1.195,0.119,2.39,0.239,3.584,0.374c0.962,0.108,1.923,0.227,2.885,0.345c1.178,0.144,2.356,0.291,3.533,0.45
			c0.972,0.131,1.945,0.271,2.917,0.412c1.167,0.169,2.335,0.344,3.502,0.528c0.975,0.153,1.949,0.313,2.923,0.476
			c1.165,0.195,2.33,0.398,3.495,0.608c0.974,0.175,1.947,0.355,2.92,0.54c1.166,0.222,2.332,0.453,3.497,0.689
			c0.967,0.196,1.934,0.394,2.9,0.599c1.176,0.251,2.352,0.512,3.527,0.777c0.953,0.215,1.905,0.429,2.857,0.653
			c1.192,0.281,2.383,0.575,3.573,0.871c0.933,0.232,1.867,0.461,2.799,0.702c1.221,0.316,2.441,0.647,3.66,0.978
			c0.899,0.244,1.798,0.483,2.697,0.735c1.277,0.359,2.553,0.737,3.829,1.114c0.838,0.247,1.677,0.487,2.514,0.741
			c1.41,0.429,2.819,0.88,4.227,1.33c0.699,0.224,1.399,0.437,2.098,0.665c1.955,0.64,3.907,1.303,5.857,1.983
			c0.15,0.052,0.301,0.101,0.452,0.153c0.019,0.007,0.038,0.014,0.057,0.021l-1.93,7.176c-0.713,2.648-2.426,4.838-4.826,6.164
			c-2.369,1.309-5.089,1.594-7.663,0.805c-3.5-1.075-7.003-2.083-10.509-3.024c-52.586-14.111-105.777-13.104-158.28,3.024
			c-2.572,0.789-5.294,0.504-7.661-0.805c-0.6-0.332-1.157-0.717-1.666-1.15c-1.528-1.299-2.626-3.028-3.161-5.014l-0.943-3.507
			l-0.986-3.669C159.314,133.021,161.445,132.299,163.579,131.601z M197.084,239.048c-16.544-14.244-26.315-35.587-26.808-58.554
			c-0.087-4.085-3.425-7.352-7.512-7.352h-6.384c-5.165,0-9.365-4.201-9.365-9.365v-13.034c0.023,0.04,0.05,0.079,0.073,0.119
			c0.227,0.395,0.465,0.782,0.713,1.163c0.084,0.128,0.169,0.255,0.255,0.382c0.219,0.324,0.446,0.642,0.68,0.954
			c0.077,0.103,0.151,0.208,0.23,0.31c0.307,0.396,0.624,0.784,0.955,1.161c0.076,0.087,0.156,0.17,0.233,0.256
			c0.267,0.297,0.541,0.587,0.824,0.871c0.111,0.112,0.223,0.223,0.337,0.333c0.302,0.293,0.611,0.578,0.928,0.855
			c0.07,0.061,0.137,0.126,0.208,0.186c0.386,0.33,0.784,0.647,1.191,0.955c0.109,0.082,0.22,0.16,0.33,0.241
			c0.322,0.235,0.649,0.463,0.984,0.683c0.121,0.08,0.242,0.161,0.365,0.239c0.441,0.28,0.889,0.553,1.35,0.808
			c0.021,0.011,0.042,0.021,0.063,0.032c0.406,0.223,0.816,0.432,1.23,0.631c0.144,0.069,0.289,0.133,0.434,0.199
			c0.3,0.138,0.602,0.27,0.906,0.395c0.16,0.066,0.32,0.13,0.481,0.193c0.31,0.12,0.623,0.233,0.936,0.34
			c0.143,0.049,0.285,0.101,0.429,0.147c0.45,0.145,0.902,0.28,1.357,0.398c0.055,0.014,0.111,0.025,0.166,0.039
			c0.405,0.103,0.812,0.194,1.221,0.276c0.156,0.031,0.312,0.057,0.469,0.085c0.316,0.057,0.632,0.108,0.949,0.152
			c0.169,0.024,0.339,0.046,0.508,0.066c0.327,0.039,0.655,0.069,0.983,0.094c0.147,0.011,0.294,0.026,0.441,0.035
			c0.465,0.027,0.93,0.044,1.397,0.044c0.014,0,0.028,0.001,0.042,0.001c0.049,0,0.097-0.005,0.146-0.006
			c0.489-0.003,0.978-0.023,1.468-0.055c0.142-0.009,0.283-0.019,0.425-0.031c0.54-0.045,1.081-0.102,1.62-0.183
			c0.037-0.006,0.074-0.014,0.111-0.019c0.505-0.078,1.009-0.176,1.512-0.286c0.15-0.033,0.3-0.067,0.45-0.102
			c0.51-0.121,1.019-0.254,1.526-0.408c0.025-0.007,0.05-0.012,0.075-0.02c13.268-4.076,26.583-7.133,39.922-9.171
			c31.678-4.839,63.488-3.932,95.115,2.722c8.323,1.751,16.633,3.9,24.926,6.447c6.503,2.001,13.376,1.283,19.345-2.017
			c0.459-0.254,0.904-0.524,1.343-0.803c0.129-0.082,0.256-0.167,0.383-0.251c0.328-0.217,0.651-0.441,0.967-0.672
			c0.113-0.083,0.228-0.163,0.339-0.247c0.406-0.307,0.804-0.624,1.189-0.953c0.07-0.06,0.136-0.123,0.205-0.184
			c0.319-0.279,0.63-0.566,0.934-0.86c0.111-0.108,0.221-0.217,0.33-0.327c0.286-0.288,0.565-0.583,0.836-0.884
			c0.073-0.081,0.149-0.16,0.221-0.242c0.332-0.379,0.652-0.768,0.959-1.167c0.077-0.1,0.15-0.202,0.225-0.303
			c0.235-0.314,0.463-0.634,0.683-0.959c0.086-0.127,0.171-0.253,0.255-0.382c0.245-0.378,0.482-0.761,0.707-1.152
			c0.025-0.044,0.054-0.085,0.079-0.129v13.034c0,5.165-4.201,9.365-9.365,9.365h-6.384c-4.086,0-7.424,3.267-7.512,7.352
			c-0.493,22.967-10.264,44.31-26.808,58.554c-4.204,3.62-8.573,6.805-13.092,9.562c-0.025,0.015-0.052,0.025-0.077,0.04
			c-0.697,0.423-1.4,0.829-2.104,1.232c-0.22,0.126-0.44,0.257-0.661,0.381c-0.742,0.417-1.489,0.82-2.24,1.214
			c-0.202,0.106-0.405,0.211-0.608,0.316c-3.423,1.765-6.927,3.299-10.509,4.594c-0.089,0.032-0.179,0.064-0.268,0.096
			c-2.697,0.965-5.438,1.797-8.219,2.494c-0.079,0.02-0.157,0.042-0.236,0.061c-0.795,0.197-1.596,0.378-2.398,0.553
			c-0.335,0.073-0.67,0.144-1.006,0.213c-0.736,0.152-1.473,0.299-2.214,0.432c-0.46,0.082-0.924,0.154-1.387,0.229
			c-1.018,0.167-2.041,0.316-3.068,0.449c-0.699,0.09-1.398,0.179-2.102,0.252c-0.506,0.053-1.014,0.097-1.522,0.142
			c-0.756,0.066-1.514,0.125-2.275,0.173c-0.44,0.028-0.88,0.058-1.321,0.08c-1.133,0.056-2.271,0.097-3.417,0.113
			c-0.064,0.001-0.128,0.005-0.192,0.005c-0.064-0.001-0.128-0.004-0.192-0.005c-1.145-0.016-2.283-0.057-3.417-0.113
			c-0.442-0.022-0.881-0.052-1.321-0.08c-0.761-0.048-1.519-0.107-2.275-0.173c-0.508-0.045-1.016-0.089-1.522-0.142
			c-0.704-0.074-1.403-0.163-2.102-0.252c-1.027-0.132-2.05-0.282-3.068-0.449c-0.462-0.075-0.926-0.147-1.387-0.229
			c-0.741-0.134-1.478-0.281-2.214-0.432c-0.336-0.069-0.672-0.14-1.006-0.213c-0.802-0.175-1.602-0.356-2.398-0.553
			c-0.079-0.02-0.157-0.041-0.236-0.061c-2.781-0.698-5.522-1.529-8.219-2.494c-0.09-0.032-0.179-0.064-0.268-0.096
			c-3.582-1.295-7.086-2.829-10.509-4.594c-0.203-0.105-0.406-0.209-0.608-0.316c-0.75-0.394-1.497-0.797-2.24-1.214
			c-0.221-0.124-0.44-0.254-0.661-0.381c-0.704-0.403-1.407-0.809-2.104-1.232c-0.025-0.015-0.052-0.025-0.077-0.04
			C205.656,245.853,201.288,242.669,197.084,239.048z M218.113,362.801c-5.831,1.987-12.222,0.277-16.281-4.355l-36.251-41.372
			l27.065-8.439c0.033-0.01,0.067,0.001,0.101-0.004c0.085-0.013,0.17-0.027,0.252-0.009c0.013,0.005,0.026,0.012,0.039,0.017
			c0.074,0.021,0.139,0.064,0.203,0.109c0.028,0.019,0.062,0.023,0.087,0.047l-0.001-0.001l48.475,45.939L218.113,362.801z
			 M272.366,430.595c0,8.515-6.644,15.68-15.126,16.313c-3.921,0.293-6.954,3.56-6.954,7.493v18.528h-10.657v-41.797
			c0-4.548,1.882-9.003,5.164-12.223c3.159-3.098,7.272-4.77,11.524-4.68C265.167,414.397,272.366,421.739,272.366,430.595z
			 M246.46,369.02l9.538-3.25l9.538,3.249l-9.538,20.141L246.46,369.02z M255.998,347.481l-49.273-46.695
			c4.44-6.01,7.139-13.632,7.139-20.949v-12.299c6.55,2.964,13.348,5.211,20.377,6.738c0.023,0.005,0.047,0.01,0.07,0.015
			c1.489,0.322,2.989,0.613,4.5,0.87c0.523,0.09,1.048,0.176,1.574,0.258c0.743,0.115,1.486,0.229,2.234,0.328
			c1.013,0.136,2.03,0.255,3.05,0.363c0.456,0.047,0.912,0.094,1.37,0.136c1.254,0.116,2.513,0.211,3.779,0.284
			c0.283,0.016,0.567,0.027,0.85,0.041c1.41,0.07,2.824,0.121,4.248,0.137h0.001c0.028,0,0.056,0,0.083,0c0.028,0,0.055,0,0.083,0
			h0.001c1.423-0.016,2.838-0.067,4.248-0.137c0.283-0.014,0.567-0.025,0.85-0.041c1.265-0.072,2.525-0.168,3.779-0.284
			c0.458-0.042,0.914-0.089,1.37-0.136c1.021-0.107,2.038-0.227,3.05-0.363c0.748-0.1,1.491-0.213,2.234-0.328
			c0.526-0.082,1.05-0.168,1.573-0.258c1.51-0.258,3.01-0.548,4.5-0.87c0.023-0.005,0.047-0.01,0.07-0.015
			c7.029-1.527,13.827-3.774,20.377-6.738v12.299c0,7.317,2.699,14.939,7.139,20.949L255.998,347.481z M310.165,358.444
			c-4.06,4.634-10.446,6.345-16.282,4.356l-23.689-8.069l40.143-38.043l8.33-7.894c0.012-0.011,0.028-0.013,0.041-0.022
			c0.072-0.059,0.152-0.102,0.239-0.129c0.018-0.006,0.034-0.016,0.052-0.022c0.115-0.025,0.237-0.023,0.355,0.014l27.063,8.438
			L310.165,358.444z"/>
	</g>
</g>
<g>
</g>
<g>
</g>
<g>
</g>
<g>
</g>
<g>
</g>
<g>
</g>
<g>
</g>
<g>
</g>
<g>
</g>
<g>
</g>
<g>
</g>
<g>
</g>
<g>
</g>
<g>
</g>
<g>
</g>
</svg>
