<?xml version="1.0" encoding="iso-8859-1"?>
<!-- Generator: Adobe Illustrator 19.0.0, SVG Export Plug-In . SVG Version: 6.00 Build 0)  -->
<svg version="1.1" id="Capa_1" xmlns="http://www.w3.org/2000/svg" xmlns:xlink="http://www.w3.org/1999/xlink" x="0px" y="0px"
	 viewBox="0 0 511.998 511.998" style="enable-background:new 0 0 511.998 511.998;" xml:space="preserve">
<g>
	<g>
		<path d="M291.175,362.171c-1.042-3.217-3.769-5.518-7.115-6.004l-17.698-2.571l-7.914-16.037c-1.496-3.03-4.524-4.913-7.904-4.913
			s-6.408,1.883-7.904,4.913l-7.914,16.037l-17.697,2.571c-3.345,0.486-6.072,2.785-7.116,6c-1.044,3.215-0.189,6.677,2.23,9.033
			l12.806,12.484l-3.024,17.626c-0.571,3.332,0.773,6.635,3.507,8.621c1.545,1.122,3.353,1.692,5.172,1.692
			c1.401,0,2.81-0.337,4.11-1.022l15.829-8.322l15.827,8.321c2.992,1.573,6.55,1.317,9.285-0.67s4.078-5.291,3.505-8.62
			l-3.023-17.626l12.8-12.477C291.361,368.849,292.218,365.387,291.175,362.171z M263.365,375.221
			c-2.074,2.022-3.023,4.935-2.534,7.801l1.46,8.512l-7.651-4.022c-2.564-1.346-5.625-1.346-8.198,0.003l-7.644,4.019l1.461-8.514
			c0.49-2.864-0.461-5.783-2.536-7.799l-6.185-6.029l8.557-1.243c2.867-0.421,5.343-2.222,6.626-4.821l3.822-7.745l3.823,7.746
			c1.283,2.597,3.759,4.398,6.637,4.821l8.546,1.242L263.365,375.221z"/>
	</g>
</g>
<g>
	<g>
		<path d="M511.399,396.156c-6.003-31.097-53.117-34.642-73.236-36.155c-4.132-0.319-7.718,2.781-8.028,6.905
			c-0.311,4.123,2.781,7.718,6.905,8.028c13.806,1.039,55.82,4.199,59.654,24.061c4.065,21.056-31.295,43.096-61.675,57.879
			c-51.518,25.071-111.749,37.782-179.021,37.782c-67.271,0-127.503-12.711-179.021-37.782
			c-55.039-26.782-63.918-46.257-61.674-57.879c0.946-4.903,3.826-19.822,58.387-23.978c4.123-0.314,7.212-3.912,6.898-8.035
			c-0.314-4.123-3.922-7.22-8.035-6.898c-18.04,1.374-65.961,5.024-71.954,36.072c-7.095,36.755,50.801,64.927,69.826,74.185
			c53.577,26.072,116.013,39.292,185.574,39.292s131.998-13.219,185.574-39.292C460.597,461.083,518.494,432.911,511.399,396.156z"
			/>
	</g>
</g>
<g>
	<g>
		<path d="M399.049,14.162C360.762,6.555,309.96,2.365,255.998,2.365c-53.961,0-104.764,4.19-143.05,11.796
			c-43.522,8.648-64.679,20.253-64.679,35.478c0,3.484,1.122,6.777,3.353,9.89c-0.001-0.001-0.001-0.002-0.002-0.002
			c3.257,9.297,9.385,27.839,16.175,53.712c1.05,4.001,5.141,6.395,9.144,5.341c4-1.049,6.392-5.143,5.342-9.144
			c-3.734-14.226-7.279-26.302-10.277-35.901c10.261,4.341,23.874,8.189,40.942,11.58c18.114,3.599,39.032,6.431,61.758,8.418
			c5.702,30.465,10.306,60.459,14.003,91.226c-34.204-2.047-65.673-5.651-91.813-10.523c-2.056-10.793-4.141-20.811-6.177-29.958
			c-0.898-4.038-4.899-6.581-8.936-5.683c-4.037,0.899-6.581,4.9-5.682,8.937c12.43,55.849,26.74,144.181,24.394,248.076
			c-0.09,0.602-0.134,1.184-0.134,1.761c0,12.015,15.276,20.143,49.531,26.352c28.401,5.149,66.067,7.984,106.06,7.984
			c39.993,0,77.659-2.835,106.06-7.984c34.255-6.209,49.53-14.337,49.53-26.352c0-0.06-0.001-0.121-0.002-0.181
			c-0.727-30.095-0.101-60.293,1.822-90.457c0.006-0.067,0.025-0.13,0.029-0.198c2.115-32.966,5.809-65.98,10.997-98.475
			c0.189-1.181,0.373-2.363,0.567-3.543c0.33-2.019,0.667-4.036,1.008-6.051c0.529-3.117,1.067-6.232,1.625-9.345
			c0.25-1.396,0.507-2.789,0.762-4.182c0.61-3.328,1.231-6.655,1.874-9.977c5.168-26.722,10.739-49.789,15.804-68.489
			c0.005-0.019,0.01-0.038,0.016-0.058c0.353-1.304,0.704-2.585,1.052-3.846c0.022-0.078,0.043-0.156,0.065-0.234
			c0.333-1.207,0.664-2.393,0.992-3.56c0.03-0.106,0.06-0.213,0.089-0.318c0.319-1.132,0.634-2.244,0.947-3.338
			c0.036-0.127,0.073-0.256,0.109-0.382c0.309-1.079,0.615-2.138,0.918-3.179c0.035-0.121,0.071-0.245,0.106-0.366
			c0.304-1.044,0.605-2.066,0.903-3.072c0.032-0.108,0.065-0.219,0.096-0.327c0.313-1.056,0.622-2.09,0.927-3.102
			c0.013-0.042,0.026-0.087,0.039-0.129c0.963-3.196,1.884-6.173,2.753-8.925c0.026-0.082,0.05-0.158,0.076-0.24
			c0.252-0.798,0.501-1.579,0.744-2.338c0.087-0.27,0.17-0.526,0.255-0.791c0.18-0.56,0.36-1.118,0.535-1.657
			c0.104-0.32,0.204-0.627,0.307-0.938c0.149-0.456,0.298-0.911,0.443-1.351c0.117-0.354,0.23-0.695,0.343-1.038
			c0.121-0.366,0.242-0.73,0.36-1.084c0.129-0.385,0.254-0.759,0.378-1.128c0.092-0.274,0.184-0.547,0.274-0.813
			c0.144-0.425,0.285-0.84,0.422-1.243c0.058-0.17,0.115-0.338,0.172-0.504c0.162-0.472,0.32-0.934,0.473-1.375
			c0.019-0.055,0.038-0.108,0.056-0.163c0.175-0.505,0.345-0.993,0.507-1.455c2.225-3.109,3.344-6.398,3.344-9.878
			C463.727,34.414,442.571,22.809,399.049,14.162z M99.787,189.98c0.17,0.03,0.345,0.058,0.515,0.088
			c0.462,0.08,0.933,0.158,1.398,0.238c1.39,0.238,2.79,0.473,4.206,0.704c0.626,0.102,1.257,0.203,1.888,0.303
			c1.296,0.207,2.602,0.412,3.919,0.614c0.66,0.101,1.321,0.202,1.987,0.302c1.38,0.207,2.773,0.41,4.174,0.61
			c0.583,0.083,1.161,0.168,1.747,0.251c1.915,0.269,3.845,0.533,5.796,0.79c0.072,0.01,0.141,0.019,0.213,0.029
			c2.034,0.268,4.092,0.528,6.165,0.783c0.598,0.073,1.205,0.144,1.806,0.217c1.475,0.178,2.955,0.353,4.448,0.524
			c0.75,0.086,1.504,0.17,2.258,0.254c1.382,0.154,2.771,0.306,4.168,0.455c0.781,0.083,1.562,0.166,2.347,0.248
			c1.46,0.151,2.929,0.299,4.404,0.444c0.705,0.069,1.406,0.14,2.115,0.209c2.076,0.199,4.164,0.394,6.268,0.581
			c0.098,0.009,0.195,0.018,0.293,0.027c2.193,0.194,4.404,0.381,6.626,0.561c0.736,0.06,1.478,0.117,2.217,0.175
			c1.511,0.12,3.025,0.237,4.548,0.351c0.864,0.064,1.731,0.127,2.598,0.189c1.442,0.103,2.889,0.204,4.341,0.302
			c0.871,0.059,1.742,0.117,2.616,0.174c1.551,0.1,3.109,0.196,4.671,0.29c0.763,0.046,1.522,0.094,2.287,0.138
			c0.216,0.013,0.429,0.027,0.645,0.039c3.743,34.179,6.501,70.451,8.398,110.45c-32.232-1.945-62.158-5.536-85.666-10.281
			C110.626,263.114,106.127,226.166,99.787,189.98z M296.385,186.023c-0.64,0.022-1.278,0.045-1.919,0.067
			c-3.727,0.123-7.472,0.227-11.231,0.314c-0.691,0.016-1.384,0.031-2.076,0.045c-3.801,0.081-7.614,0.146-11.438,0.191
			c-0.534,0.006-1.069,0.01-1.603,0.015c-4.032,0.041-8.072,0.067-12.119,0.067s-8.087-0.026-12.119-0.067
			c-0.534-0.005-1.069-0.009-1.603-0.015c-3.824-0.044-7.637-0.11-11.438-0.191c-0.692-0.015-1.385-0.029-2.076-0.045
			c-3.759-0.087-7.504-0.191-11.23-0.314c-0.642-0.021-1.281-0.045-1.921-0.067c-3.831-0.133-7.646-0.28-11.433-0.451
			c-0.093-0.004-0.185-0.009-0.279-0.013c-3.628-30.674-8.139-60.535-13.721-90.824c20.915,1.43,43.086,2.177,65.822,2.177
			c22.736,0,44.907-0.747,65.822-2.176c-5.583,30.29-10.094,60.155-13.722,90.825c-0.092,0.004-0.183,0.009-0.275,0.013
			C304.034,185.743,300.217,185.89,296.385,186.023z M306.394,200.627c-3.689,34.211-6.41,70.505-8.28,110.467
			c-27.684,1.219-56.427,1.201-84.235-0.012c-1.87-39.958-4.591-76.253-8.281-110.458c16.487,0.712,33.396,1.075,50.4,1.075
			c3.844,0,7.681-0.024,11.512-0.061c0.658-0.006,1.316-0.011,1.974-0.019c3.666-0.041,7.322-0.1,10.967-0.175
			c0.714-0.014,1.425-0.031,2.138-0.047c3.724-0.083,7.439-0.179,11.133-0.297c0.299-0.01,0.596-0.021,0.895-0.031
			c3.612-0.118,7.204-0.254,10.78-0.405C305.727,200.651,306.063,200.642,306.394,200.627z M396.546,396.713
			c-1.216,1.342-8.535,7.614-42.483,13.182c-26.872,4.407-61.716,6.834-98.113,6.834c-36.398,0-71.242-2.427-98.114-6.834
			c-33.221-5.448-40.941-11.572-42.396-13.09c0.006-0.098,0.01-0.194,0.013-0.292c0.654-28.258,0.083-55.371-1.333-81.037
			c25.639,4.9,57.908,8.506,92.209,10.257c16.31,0.833,33.021,1.255,49.669,1.255c16.694,0,33.407-0.424,49.673-1.262h0.001
			c34.741-1.786,66.327-5.347,92.139-10.353C396.41,341.203,395.884,368.389,396.546,396.713z M398.767,299.916
			c-23.558,4.802-53.472,8.428-85.622,10.386c1.897-39.99,4.657-76.261,8.399-110.436c0.275-0.016,0.548-0.032,0.823-0.048
			c0.725-0.042,1.444-0.088,2.167-0.132c1.654-0.099,3.304-0.2,4.945-0.307c0.856-0.056,1.707-0.115,2.559-0.172
			c1.504-0.102,3.006-0.205,4.499-0.313c0.888-0.064,1.772-0.13,2.656-0.196c1.45-0.109,2.894-0.22,4.332-0.334
			c0.886-0.07,1.771-0.142,2.652-0.214c1.446-0.119,2.885-0.241,4.319-0.366c0.844-0.073,1.689-0.146,2.529-0.221
			c1.505-0.135,2.998-0.275,4.488-0.416c0.746-0.071,1.497-0.14,2.24-0.212c1.755-0.171,3.494-0.347,5.228-0.527
			c0.461-0.048,0.927-0.093,1.386-0.141c2.21-0.232,4.402-0.472,6.575-0.718c0.353-0.04,0.699-0.082,1.05-0.123
			c1.786-0.205,3.563-0.413,5.323-0.628c0.708-0.086,1.405-0.176,2.109-0.263c1.395-0.174,2.786-0.349,4.164-0.528
			c0.792-0.103,1.576-0.209,2.362-0.315c1.273-0.17,2.541-0.342,3.799-0.518c0.815-0.114,1.624-0.229,2.432-0.345
			c1.22-0.175,2.431-0.352,3.635-0.532c0.8-0.119,1.599-0.239,2.391-0.36c1.207-0.185,2.402-0.373,3.592-0.562
			c0.761-0.121,1.525-0.241,2.279-0.365c1.254-0.205,2.491-0.414,3.726-0.624c0.658-0.112,1.324-0.222,1.977-0.335
			c0.113-0.02,0.23-0.038,0.343-0.058C406.441,222.427,401.56,259.368,398.767,299.916z M415.006,174.255
			c-0.085,0.016-0.167,0.032-0.252,0.048c-0.652,0.121-1.32,0.238-1.978,0.357c-1.191,0.216-2.381,0.432-3.593,0.643
			c-0.75,0.131-1.516,0.257-2.275,0.386c-1.144,0.194-2.288,0.388-3.45,0.577c-0.814,0.133-1.642,0.262-2.465,0.392
			c-1.129,0.179-2.259,0.358-3.404,0.532c-0.863,0.132-1.737,0.26-2.609,0.389c-1.126,0.167-2.254,0.333-3.394,0.496
			c-0.906,0.129-1.821,0.255-2.736,0.382c-1.132,0.157-2.267,0.312-3.412,0.465c-0.936,0.125-1.88,0.247-2.825,0.369
			c-1.141,0.147-2.287,0.293-3.441,0.436c-0.974,0.121-1.953,0.24-2.936,0.358c-1.145,0.137-2.295,0.273-3.451,0.406
			c-1.003,0.116-2.01,0.23-3.021,0.343c-1.16,0.129-2.327,0.256-3.497,0.381c-1.027,0.11-2.057,0.219-3.092,0.326
			c-1.17,0.121-2.348,0.238-3.529,0.355c-1.051,0.104-2.102,0.208-3.161,0.309c-1.195,0.114-2.399,0.224-3.604,0.333
			c-1.058,0.096-2.115,0.193-3.181,0.286c-1.221,0.107-2.453,0.209-3.684,0.312c-1.068,0.089-2.133,0.179-3.208,0.265
			c-1.259,0.101-2.53,0.196-3.798,0.292c-1.057,0.08-2.111,0.162-3.174,0.239c-1.33,0.096-2.671,0.187-4.01,0.278
			c-1.018,0.07-2.03,0.142-3.053,0.209c-1.476,0.096-2.964,0.186-4.45,0.276c-0.345,0.021-0.689,0.043-1.035,0.064
			c3.697-30.766,8.3-60.759,14.001-91.225c-0.008,0.001-0.017,0.001-0.025,0.002c22.735-1.987,43.662-4.821,61.783-8.42
			c17.059-3.389,30.667-7.235,40.926-11.573C432.919,96.057,423.376,130.489,415.006,174.255z M448.249,50.847
			c-0.134,0.142-0.266,0.287-0.39,0.44c-0.652,0.807-1.54,1.632-2.62,2.469c-3.757,2.818-11.079,6.652-24.386,10.654
			c-0.346,0.103-0.681,0.207-1.032,0.31c-0.339,0.1-0.696,0.2-1.042,0.3c-0.857,0.246-1.72,0.491-2.612,0.735
			c-0.071,0.02-0.145,0.039-0.216,0.059C396.156,71.2,367.6,76.084,330.38,79.073c-0.09,0.007-0.176,0.024-0.265,0.035
			c-23.229,1.854-48.284,2.827-74.115,2.827c-25.832,0-50.887-0.973-74.117-2.827c-0.088-0.01-0.174-0.027-0.264-0.035
			c-37.187-2.986-65.725-7.864-85.519-13.245c-0.099-0.027-0.2-0.054-0.298-0.081c-0.863-0.236-1.697-0.473-2.526-0.711
			c-0.373-0.107-0.756-0.215-1.12-0.322c-0.32-0.094-0.624-0.188-0.938-0.282c-13.358-4.011-20.7-7.855-24.463-10.678
			c-1.078-0.835-1.964-1.659-2.615-2.464c-0.117-0.145-0.243-0.277-0.368-0.411c-0.365-0.532-0.525-0.955-0.525-1.241
			c-0.001-2.182,8.93-12.107,52.619-20.787c37.354-7.422,87.121-11.509,140.132-11.509s102.777,4.087,140.132,11.509
			c43.69,8.68,52.62,18.604,52.62,20.788C448.75,49.92,448.599,50.33,448.249,50.847z"/>
	</g>
</g>
<g>
</g>
<g>
</g>
<g>
</g>
<g>
</g>
<g>
</g>
<g>
</g>
<g>
</g>
<g>
</g>
<g>
</g>
<g>
</g>
<g>
</g>
<g>
</g>
<g>
</g>
<g>
</g>
<g>
</g>
</svg>
