<?xml version="1.0" encoding="iso-8859-1"?>
<!-- Generator: Adobe Illustrator 19.0.0, SVG Export Plug-In . SVG Version: 6.00 Build 0)  -->
<svg version="1.1" id="Capa_1" xmlns="http://www.w3.org/2000/svg" xmlns:xlink="http://www.w3.org/1999/xlink" x="0px" y="0px"
	 viewBox="0 0 512 512" style="enable-background:new 0 0 512 512;" xml:space="preserve">
<g>
	<g>
		<path d="M368.858,386.66c-4.066-0.773-7.998,1.886-8.778,5.954c-0.78,4.068,1.886,7.998,5.954,8.778
			c60.314,11.562,87.784,30.397,87.784,43.003c0,11.408-21.239,25.112-54.109,34.913C361.448,490.717,310.411,497,256,497
			s-105.448-6.283-143.709-17.692c-32.869-9.801-54.108-23.505-54.108-34.913c0-6.752,7.766-14.773,21.307-22.007
			c15.768-8.422,38.755-15.683,66.476-20.997c4.068-0.78,6.734-4.71,5.954-8.778c-0.78-4.068-4.714-6.727-8.778-5.954
			c-29.183,5.595-53.638,13.375-70.72,22.499c-13.338,7.126-29.239,19.023-29.239,35.237c0,26.068,40.613,42.069,64.822,49.288
			C147.619,505.495,200.178,512,256,512c55.822,0,108.381-6.505,147.994-18.316c24.209-7.219,64.823-23.221,64.823-49.288
			C468.817,419.882,432.384,398.839,368.858,386.66z"/>
	</g>
</g>
<g>
	<g>
		<path d="M385.788,167.751c-0.009-0.132-0.037-0.258-0.052-0.388c-1.539-22.055-8.708-43.207-20.477-61.503
			c-0.284-0.591-0.644-1.138-1.067-1.631c-15.961-24.02-39.943-42.922-69.563-52.136c-0.024-0.008-0.049-0.014-0.074-0.022
			c-0.352-0.109-0.704-0.213-1.056-0.316l-0.496-0.146c-0.001,0-0.002,0-0.002,0c-23.667-7.029-47.822-6.973-70.153-1.044
			c-0.592,0.086-1.168,0.243-1.718,0.465c-29.519,8.269-55.706,26.829-73.152,52.828c-0.2,0.255-0.376,0.527-0.542,0.807
			c-6.58,9.968-11.886,21.009-15.607,32.972c-10.318,33.168-7.102,68.367,9.055,99.117c15.893,30.246,42.44,52.614,74.87,63.158
			c0.001,0,0.003,0.001,0.004,0.002l0.475,0.155c0.378,0.125,0.757,0.249,1.138,0.368c0.002,0.001,0.005,0.001,0.007,0.002
			c12.75,3.967,25.798,5.932,38.781,5.932c20.788,0,41.404-5.042,60.331-14.987c30.749-16.157,53.366-43.322,63.684-76.489
			c0.318-1.021,0.62-2.044,0.912-3.069c0.085-0.3,0.164-0.6,0.247-0.9c0.203-0.734,0.404-1.469,0.595-2.205
			c0.084-0.326,0.163-0.651,0.244-0.977c0.181-0.723,0.359-1.447,0.527-2.171c0.07-0.303,0.137-0.607,0.205-0.91
			c0.172-0.763,0.338-1.528,0.495-2.293c0.052-0.255,0.104-0.51,0.154-0.766c0.167-0.834,0.325-1.669,0.475-2.505
			c0.033-0.186,0.067-0.371,0.099-0.557c0.164-0.937,0.317-1.875,0.461-2.815c0.013-0.084,0.026-0.168,0.039-0.253
			C386.004,186.314,386.4,177.045,385.788,167.751z M354.236,116.509c8.865,14.593,14.492,31.104,16.235,48.33l-35.932,28.003
			l-23.862-7.423l-15.397-48.807l16.766-21.03L354.236,116.509z M295.983,188.703l-37.742,29.414l-37.505-27.298l14.48-46.544
			l46.372-1.204L295.983,188.703z M343.183,101.263l-29.849-0.656l-10.173-29.275C318.912,78.398,332.44,88.734,343.183,101.263z
			 M229.684,64.31c8.57-2.03,17.418-3.098,26.385-3.098c9.599,0,19.333,1.226,29,3.756l14.615,42.056l-16.748,21.007l-49.328,1.281
			l-18.08-23.741L229.684,64.31z M211.843,70.09l-10.17,29.643l-32.278,0.838C181.089,87.23,195.667,76.833,211.843,70.09z
			 M146.151,142.091c2.93-9.419,6.975-18.189,11.931-26.222l45.535-1.182l17.817,23.396l-15.558,50.009l-27.953,9.163l-36.86-26.827
			C141.563,160.923,143.25,151.416,146.151,142.091z M159.385,238.721c-1.86-2.888-3.608-5.868-5.225-8.945
			c-6.718-12.785-10.906-26.44-12.511-40.37l26.196,19.065L159.385,238.721z M216.793,284.418
			c-17.836-6.444-33.521-17.005-46-30.798l11.776-42.103l28.348-9.292l39.858,29.01l1.88,26.863L216.793,284.418z M235.299,289.442
			l24.998-18.346l25.038,16.447C269.042,291.871,252.024,292.535,235.299,289.442z M309.511,278.104
			c-2.127,1.117-4.28,2.157-6.453,3.134l-35.373-23.236l-1.873-26.768l40.409-31.492l23.862,7.423l13.726,43.51
			C334.38,261.798,322.808,271.117,309.511,278.104z M370.741,184.764c-0.002,0.02-0.003,0.041-0.005,0.061
			c-0.265,3.552-0.705,7.115-1.312,10.678c-0.052,0.306-0.102,0.613-0.156,0.919c-0.111,0.623-0.232,1.246-0.354,1.869
			c-0.086,0.44-0.174,0.88-0.265,1.32c-0.114,0.55-0.234,1.101-0.357,1.651c-0.119,0.531-0.243,1.061-0.369,1.59
			c-0.115,0.481-0.229,0.963-0.35,1.444c-0.162,0.641-0.333,1.28-0.505,1.919c-0.103,0.381-0.201,0.763-0.309,1.144
			c-0.289,1.029-0.59,2.056-0.909,3.08c-2.752,8.847-6.5,17.206-11.129,24.967l-9.945-31.523l26.038-20.292
			C370.788,183.981,370.77,184.372,370.741,184.764z"/>
	</g>
</g>
<g>
	<g>
		<path d="M256,0C159.444,0,80.891,78.554,80.891,175.109c0,56.142,23.565,117.337,70.04,181.883
			c36.716,50.993,77.458,89.332,93.27,103.449c3.363,3.003,7.581,4.504,11.799,4.504s8.435-1.502,11.799-4.504
			c15.812-14.117,56.554-52.456,93.27-103.449c46.475-64.546,70.04-125.741,70.04-181.883C431.109,78.554,352.556,0,256,0z
			 M348.896,348.227c-35.851,49.79-75.643,87.236-91.087,101.024c-1.031,0.92-2.588,0.92-3.619,0
			c-15.445-13.788-55.237-51.234-91.087-101.024c-44.6-61.942-67.213-120.186-67.213-173.118C95.891,86.824,167.715,15,256,15
			c88.284,0,160.109,71.824,160.109,160.109C416.109,228.041,393.495,286.286,348.896,348.227z"/>
	</g>
</g>
<g>
</g>
<g>
</g>
<g>
</g>
<g>
</g>
<g>
</g>
<g>
</g>
<g>
</g>
<g>
</g>
<g>
</g>
<g>
</g>
<g>
</g>
<g>
</g>
<g>
</g>
<g>
</g>
<g>
</g>
</svg>
