<?xml version="1.0" encoding="iso-8859-1"?>
<!-- Generator: Adobe Illustrator 19.0.0, SVG Export Plug-In . SVG Version: 6.00 Build 0)  -->
<svg version="1.1" id="Capa_1" xmlns="http://www.w3.org/2000/svg" xmlns:xlink="http://www.w3.org/1999/xlink" x="0px" y="0px"
	 viewBox="0 0 512 512" style="enable-background:new 0 0 512 512;" xml:space="preserve">
<g>
	<g>
		<path d="M511.99,336.439c0.022-6.382-0.353-12.765-1.141-19.102c-0.511-4.106-4.259-7.018-8.359-6.509
			c-4.106,0.51-7.02,4.253-6.51,8.359c0.1,0.807,0.177,1.616,0.263,2.424l-0.034,0.011c0.391,3.65,0.626,7.325,0.723,11.016
			l-45.978,30.985l-28.951-11.25l-14.552-60.366l22.498-24.536l51.221,4.674c2.619,5.002,4.938,10.158,6.93,15.441l0.179-0.06
			c1.831,3.094,5.675,4.509,9.14,3.168c3.228-1.249,5.089-4.491,4.739-7.776l0.164-0.054c-0.097-0.261-0.203-0.52-0.302-0.78
			c-0.081-0.362-0.18-0.722-0.318-1.078c-2.576-6.658-5.615-13.083-9.058-19.25c-0.058-0.118-0.104-0.241-0.169-0.357
			c-7.032-12.557-15.793-23.986-25.938-33.989c-0.695-0.688-1.401-1.365-2.11-2.04c-0.063-0.06-0.126-0.121-0.189-0.181
			c-11.173-10.603-24.101-19.64-38.573-26.612c-0.111-0.054-0.224-0.105-0.336-0.158c-0.287-0.137-0.576-0.272-0.865-0.408
			c-0.334-0.158-0.666-0.317-1.001-0.473c-0.432-0.2-0.864-0.4-1.299-0.596c-0.251-0.114-0.505-0.222-0.757-0.335
			c-0.539-0.24-1.081-0.476-1.624-0.711c-0.413-0.178-0.824-0.36-1.24-0.535c-0.181-0.076-0.363-0.151-0.545-0.227
			c-0.768-0.32-1.541-0.629-2.315-0.937c-0.252-0.1-0.5-0.208-0.753-0.307L72.839,23.998c-3.705-1.843-8.202-0.328-10.042,3.377
			c-1.84,3.706-0.328,8.202,3.378,10.041l81.675,40.562c2.198,24.977,2.64,50.393,1.411,75.855L10.448,94.264
			c-3.801-1.627-8.207,0.128-9.839,3.93s0.128,8.208,3.93,9.84l143.734,61.682c-5.358,71.186-23.559,142.063-52.462,203.947
			l-86.609-8.588c-4.118-0.411-7.786,2.598-8.194,6.715s2.598,7.786,6.716,8.195l81.105,8.042
			c-9.845,19.463-20.779,37.924-32.737,55.088c-8.101,11.628-16.668,21.853-23.648,29.839c-15.149-0.043-24.384-0.069-24.928-0.07
			c-0.007,0-0.014,0-0.021,0c-4.127,0-7.479,3.341-7.491,7.471c-0.011,4.137,3.333,7.5,7.471,7.512
			c0.584,0.001,11.165,0.031,28.328,0.078c0.007,0,0.015,0.001,0.022,0.001c0.006,0,0.011-0.001,0.017-0.001
			c76.95,0.211,285.999,0.778,319.944,0.798c1.194,0.028,2.389,0.043,3.583,0.043c11.233,0,22.455-1.27,33.493-3.779
			c0.26-0.059,0.52-0.115,0.779-0.175c1.571-0.366,3.14-0.75,4.703-1.167c0.72-0.191,1.434-0.401,2.151-0.602
			c0.731-0.206,1.461-0.413,2.19-0.63c0.989-0.293,1.974-0.597,2.956-0.91c0.255-0.082,0.509-0.168,0.763-0.25
			c3.604-1.171,7.164-2.477,10.678-3.917c0.038-0.015,0.075-0.031,0.113-0.046c3.23-1.327,6.418-2.763,9.561-4.314
			c0.714-0.351,1.424-0.707,2.131-1.068c0.595-0.305,1.191-0.605,1.782-0.918c1.477-0.778,2.938-1.58,4.384-2.403
			c0.044-0.025,0.087-0.05,0.13-0.075c24.194-13.794,43.909-33.733,57.4-57.985c0.063-0.112,0.124-0.225,0.187-0.338
			c0.48-0.868,0.953-1.74,1.417-2.618c0.046-0.086,0.094-0.171,0.139-0.258c0.063-0.119,0.122-0.241,0.184-0.36
			c0.029-0.056,0.057-0.114,0.087-0.17c0.396-0.76,0.789-1.522,1.172-2.29c0.193-0.385,0.38-0.774,0.57-1.161
			c0.148-0.302,0.298-0.602,0.444-0.905c0.015-0.032,0.031-0.064,0.047-0.096c0.03-0.063,0.063-0.126,0.093-0.189
			c0.021-0.043,0.043-0.085,0.063-0.129c0.111-0.232,0.219-0.466,0.328-0.699c0.236-0.499,0.463-1.003,0.693-1.505
			c0.268-0.585,0.539-1.168,0.801-1.758c0.126-0.283,0.247-0.569,0.371-0.853c0.051-0.118,0.106-0.233,0.157-0.35
			c0.097-0.225,0.187-0.453,0.283-0.678c0.001-0.002,0.002-0.004,0.003-0.006c0.207-0.485,0.42-0.966,0.622-1.453
			c0.399-0.959,0.785-1.925,1.165-2.894c0.065-0.165,0.134-0.327,0.198-0.492c0.013-0.033,0.024-0.067,0.037-0.1
			c0.51-1.314,0.995-2.634,1.467-3.957c0.05-0.142,0.106-0.282,0.156-0.424c0.091-0.259,0.175-0.518,0.265-0.777
			c0.396-1.138,0.778-2.279,1.146-3.423c0.027-0.086,0.058-0.17,0.085-0.256c0.055-0.173,0.112-0.347,0.167-0.52
			c0.46-1.454,0.897-2.913,1.312-4.377c0.023-0.08,0.044-0.161,0.066-0.241c0.397-1.411,0.771-2.826,1.127-4.245
			c0.037-0.15,0.075-0.299,0.112-0.449c2.914-11.766,4.413-23.805,4.453-35.983C512,336.539,511.991,336.49,511.99,336.439z
			 M421.914,213.448c0.679,0.347,1.352,0.706,2.025,1.064c0.485,0.258,0.974,0.511,1.455,0.775c0.811,0.444,1.612,0.903,2.412,1.363
			c0.899,0.517,1.791,1.045,2.678,1.582c0.45,0.272,0.902,0.54,1.349,0.817c0.689,0.428,1.369,0.866,2.049,1.305
			c0.371,0.239,0.743,0.477,1.111,0.72c0.724,0.477,1.442,0.963,2.157,1.454c0.294,0.201,0.587,0.404,0.879,0.608
			c0.776,0.542,1.547,1.089,2.311,1.646c0.17,0.124,0.339,0.25,0.509,0.375c8.384,6.173,16.041,13.276,22.822,21.155
			c0.208,0.243,0.416,0.486,0.623,0.73c0.442,0.521,0.878,1.048,1.313,1.576c0.465,0.568,0.929,1.137,1.385,1.712
			c0.164,0.206,0.327,0.412,0.489,0.619c1.352,1.725,2.663,3.479,3.929,5.262l-39.244-3.581l-10.713-39.409
			C421.607,213.296,421.761,213.371,421.914,213.448z M403.915,205.817l14.213,52.283c0.006,0.024,0.015,0.046,0.022,0.07
			l-22.467,24.501l-59.761-2.575l-20.225-30.75l20.689-48.999c7.338-1.253,14.803-1.924,22.329-1.966
			c14.559-0.081,29.335,2.161,43.812,6.956C402.989,205.491,403.452,205.658,403.915,205.817z M222.529,320.371
			c1.341-11.623,4.166-23.102,8.471-34.181c1.289-3.317,2.693-6.555,4.206-9.713c2.017-4.21,4.228-8.276,6.617-12.192
			c1.792-2.937,3.684-5.789,5.671-8.554c0.115-0.16,0.234-0.315,0.349-0.474l55.378,2.387l19.929,30.299l-22.99,59.164l-35.17,8.896
			L222.529,320.371z M254.149,366.466l-13.815,38.837c-0.023-0.04-0.047-0.079-0.07-0.119c-0.565-0.974-1.111-1.958-1.651-2.944
			c-0.199-0.364-0.402-0.726-0.598-1.092c-0.473-0.881-0.93-1.769-1.383-2.659c-0.252-0.496-0.504-0.991-0.75-1.49
			c-0.395-0.8-0.78-1.604-1.159-2.41c-0.291-0.62-0.578-1.242-0.86-1.866c-0.323-0.714-0.64-1.429-0.951-2.147
			c-0.328-0.761-0.646-1.526-0.961-2.293c-0.248-0.605-0.497-1.209-0.737-1.817c-0.377-0.958-0.739-1.922-1.094-2.889
			c-0.161-0.437-0.328-0.872-0.484-1.31c-0.476-1.337-0.934-2.681-1.369-4.034c-0.027-0.084-0.057-0.168-0.084-0.252
			c-1.444-4.514-2.657-9.115-3.637-13.786c-0.054-0.257-0.101-0.515-0.154-0.771c-0.258-1.266-0.499-2.535-0.721-3.805
			c-0.077-0.441-0.149-0.884-0.221-1.326c-0.179-1.086-0.344-2.173-0.496-3.26c-0.075-0.537-0.148-1.075-0.217-1.614
			c-0.128-0.997-0.24-1.994-0.346-2.992c-0.063-0.594-0.128-1.187-0.182-1.782c-0.088-0.953-0.158-1.907-0.226-2.861
			c-0.044-0.621-0.096-1.24-0.131-1.862c-0.056-0.972-0.09-1.944-0.125-2.916c-0.021-0.592-0.055-1.183-0.069-1.775
			c0-0.01,0-0.02,0-0.03L254.149,366.466z M259.952,240.782c16.187-16.839,36.342-29.175,58.327-36.069l-15.999,37.894
			L259.952,240.782z M336.437,295.116l56.942,2.453l13.756,57.063l-48.676,32.803L314.8,350.797L336.437,295.116z M277.504,464.959
			c5.036,3.19,10.292,6.09,15.707,8.686c-70.809-0.166-180.306-0.467-241.131-0.637c5.239-6.329,10.855-13.506,16.305-21.329
			c13.406-19.242,25.562-40.064,36.378-62.072l79.97,7.93c0.251,0.024,0.5,0.037,0.748,0.037c3.805,0,7.063-2.887,7.446-6.753
			c0.408-4.117-2.599-7.786-6.716-8.195l-74.649-7.402c27.687-60.882,45.392-129.859,51.223-199.282l72.412,31.075
			c0.963,0.413,1.965,0.609,2.951,0.609c2.905,0,5.669-1.7,6.888-4.539c1.632-3.802-0.128-8.208-3.93-9.84l-77.193-33.126
			c1.441-24.926,1.332-49.834-0.412-74.37l196.638,97.657c-9.973-0.042-19.86,0.9-29.529,2.768
			c-0.331,0.021-0.663,0.063-0.994,0.129c-36.411,7.257-68.861,27.405-91.373,56.734c-0.061,0.079-0.107,0.166-0.164,0.247
			c-8.556,11.172-15.698,23.714-21.045,37.475c-5.288,13.609-8.565,27.765-9.816,42.079c-0.002,0.023-0.009,0.045-0.011,0.068
			c-0.004,0.048-0.007,0.095-0.011,0.143c-0.039,0.456-0.068,0.912-0.103,1.368c-0.089,1.152-0.164,2.305-0.226,3.456
			c-0.028,0.519-0.059,1.037-0.082,1.556c-0.063,1.439-0.104,2.878-0.126,4.315c-0.008,0.511-0.008,1.023-0.011,1.534
			c-0.006,1.233,0.001,2.464,0.025,3.695c0.007,0.364,0.007,0.728,0.017,1.092c0.04,1.514,0.109,3.025,0.194,4.535
			c0.025,0.439,0.051,0.878,0.08,1.317c0.101,1.563,0.221,3.123,0.37,4.68c0.016,0.169,0.037,0.338,0.054,0.507
			c0.153,1.544,0.333,3.084,0.534,4.621c0.031,0.239,0.06,0.478,0.092,0.716c0.227,1.678,0.482,3.352,0.765,5.021
			c0.023,0.134,0.047,0.267,0.07,0.401c0.597,3.47,1.314,6.917,2.149,10.335c0.014,0.056,0.028,0.112,0.041,0.169
			c0.826,3.364,1.766,6.699,2.819,10.001c0.041,0.127,0.08,0.255,0.121,0.382c0.515,1.6,1.054,3.194,1.622,4.777
			c0.048,0.133,0.098,0.264,0.146,0.397c0.502,1.387,1.026,2.767,1.568,4.14c0.114,0.29,0.226,0.581,0.342,0.871
			c0.556,1.382,1.131,2.756,1.728,4.123c0.194,0.446,0.396,0.89,0.595,1.334c0.44,0.983,0.891,1.961,1.352,2.935
			c0.229,0.485,0.454,0.973,0.688,1.456c0.572,1.176,1.163,2.344,1.765,3.507c0.336,0.649,0.68,1.294,1.025,1.938
			c0.363,0.677,0.734,1.35,1.107,2.022c0.605,1.089,1.224,2.169,1.856,3.243c0.351,0.596,0.7,1.192,1.059,1.783
			c0.444,0.733,0.896,1.461,1.352,2.186c0.33,0.524,0.668,1.044,1.004,1.564c0.753,1.164,1.521,2.317,2.306,3.461
			c0.369,0.538,0.738,1.076,1.115,1.61c0.473,0.671,0.949,1.338,1.433,2.001c0.085,0.117,0.167,0.236,0.252,0.352
			c0.032,0.043,0.069,0.08,0.102,0.122c3.873,5.265,8.078,10.305,12.628,15.065c1.472,1.538,3.442,2.314,5.416,2.314
			c1.861,0,3.725-0.69,5.176-2.077c2.99-2.859,3.097-7.602,0.238-10.592c-3.224-3.372-6.258-6.898-9.107-10.556l17.85-50.184
			l35.672-9.023l45.775,38.414l0.028,33.316c-0.004,0.002-0.008,0.004-0.011,0.007l-45.788,28.969
			c-6.514-2.837-12.805-6.16-18.755-9.927c-3.495-2.215-8.123-1.173-10.338,2.321C272.97,458.118,274.009,462.745,277.504,464.959z
			 M373.6,472.958c-0.191,0.02-0.381,0.041-0.572,0.06c-0.802,0.082-1.607,0.153-2.411,0.22c-0.713,0.058-1.426,0.112-2.139,0.159
			c-0.42,0.029-0.839,0.059-1.259,0.084c-15.119,0.861-30.35-0.763-45.018-4.864l34.524-21.843l31.363,23.855
			C383.315,471.658,378.48,472.441,373.6,472.958z M406.058,465.473l-40.999-31.183l-0.028-33.217c0.001,0,0.001-0.001,0.002-0.001
			l51.542-34.734l28.951,11.25l12.996,53.91C443.774,446.787,425.75,458.348,406.058,465.473z M496.029,352.269
			c-0.035,0.293-0.064,0.587-0.101,0.88c-1.053,8.354-2.868,16.623-5.433,24.678c-0.097,0.302-0.203,0.603-0.302,0.905
			c-0.339,1.039-0.681,2.077-1.044,3.109c-0.482,1.363-0.983,2.723-1.509,4.076c-0.02,0.051-0.042,0.101-0.062,0.152
			c-0.546,1.4-1.119,2.785-1.707,4.161c-0.099,0.232-0.2,0.462-0.3,0.693c-0.152,0.351-0.312,0.699-0.467,1.049
			c-0.444,1.001-0.893,1.999-1.36,2.988c-0.272,0.577-0.554,1.149-0.834,1.721c-0.439,0.898-0.885,1.792-1.343,2.678
			c-0.311,0.602-0.625,1.201-0.944,1.797c-0.428,0.801-0.868,1.594-1.311,2.385c-0.046,0.081-0.091,0.163-0.137,0.245
			c-0.267,0.473-0.532,0.948-0.805,1.418c-0.262,0.452-0.531,0.898-0.798,1.346c-0.25,0.42-0.501,0.84-0.755,1.257
			c-0.121,0.199-0.243,0.399-0.365,0.597c-0.443,0.719-0.889,1.435-1.345,2.143c-0.139,0.217-0.282,0.431-0.422,0.647
			c-1.344,2.065-2.742,4.084-4.185,6.059l-10.106-41.924l35.748-24.09C496.104,351.581,496.07,351.925,496.029,352.269z"/>
	</g>
</g>
<g>
</g>
<g>
</g>
<g>
</g>
<g>
</g>
<g>
</g>
<g>
</g>
<g>
</g>
<g>
</g>
<g>
</g>
<g>
</g>
<g>
</g>
<g>
</g>
<g>
</g>
<g>
</g>
<g>
</g>
</svg>
