<?xml version="1.0" encoding="iso-8859-1"?>
<!-- Generator: Adobe Illustrator 19.0.0, SVG Export Plug-In . SVG Version: 6.00 Build 0)  -->
<svg version="1.1" id="Capa_1" xmlns="http://www.w3.org/2000/svg" xmlns:xlink="http://www.w3.org/1999/xlink" x="0px" y="0px"
	 viewBox="0 0 512 512" style="enable-background:new 0 0 512 512;" xml:space="preserve">
<g>
	<g>
		<path d="M256,221.819c-53.282,0-96.631,43.349-96.631,96.631c0,53.283,43.349,96.632,96.631,96.632s96.631-43.349,96.631-96.632
			C352.631,265.168,309.282,221.819,256,221.819z M256,400.082c-45.012,0-81.631-36.621-81.631-81.632
			c0-45.012,36.619-81.631,81.631-81.631c45.012,0,81.631,36.619,81.631,81.631C337.631,363.462,301.012,400.082,256,400.082z"/>
	</g>
</g>
<g>
	<g>
		<path d="M495.829,148.167h-45.098c-0.301-6.651-5.792-11.975-12.516-11.975h-29.096c-6.726,0-12.216,5.323-12.517,11.975h-18.563
			V96.819c0-16.958-13.796-30.755-30.754-30.755H164.716c-16.958,0-30.755,13.797-30.755,30.755v51.349h-18.563
			c-0.301-6.651-5.792-11.975-12.517-11.975H73.785c-6.724,0-12.215,5.323-12.516,11.975H16.171C7.254,148.167,0,155.421,0,164.338
			v24.025c0,8.916,7.254,16.17,16.171,16.17h11.271l8.1,84.638c0.371,3.88,3.637,6.786,7.457,6.786c0.239,0,0.48-0.012,0.724-0.035
			c4.123-0.395,7.146-4.057,6.751-8.181l-7.963-83.208h18.758c0.301,6.652,5.792,11.976,12.516,11.976h29.096
			c6.725,0,12.216-5.323,12.517-11.976h281.204c0.301,6.652,5.792,11.976,12.517,11.976h29.096c6.725,0,12.215-5.323,12.516-11.976
			h18.758l-7.979,83.385c-0.395,4.124,2.628,7.786,6.751,8.181c0.243,0.023,0.484,0.035,0.724,0.035c3.82,0,7.086-2.906,7.457-6.786
			l8.116-84.814h11.271c8.917,0,16.171-7.254,16.171-16.17v-24.025C512,155.421,504.746,148.167,495.829,148.167z M16.171,189.534
			c-0.646,0-1.171-0.524-1.171-1.17v-24.025c0-0.646,0.525-1.171,1.171-1.171H61.24v26.366H16.171z M100.427,201.509H76.24v-50.316
			h24.187V201.509z M148.961,96.819c0-8.688,7.067-15.755,15.755-15.755h182.569c8.687,0,15.754,7.067,15.754,15.755v51.349h-11
			v-43.821c0-6.772-5.51-12.282-12.282-12.282H172.243c-6.772,0-12.282,5.51-12.282,12.282v43.821h-11V96.819z M337.039,107.064
			v41.104H174.961v-41.104C174.961,107.064,337.039,107.064,337.039,107.064z M396.573,189.533H115.427v-26.366h281.146V189.533z
			 M435.76,201.509h-24.187v-50.316h24.187V201.509z M497,188.364c0,0.646-0.525,1.17-1.171,1.17H450.76v-26.366h45.069
			c0.646,0,1.171,0.525,1.171,1.171V188.364z"/>
	</g>
</g>
<g>
	<g>
		<path d="M466.366,315.91c-4.125-0.387-7.786,2.628-8.181,6.751l-9.003,94.081c-0.774,8.092-7.488,14.194-15.616,14.194H78.434
			c-8.128,0-14.842-6.103-15.616-14.194l-8.996-94.015c-0.395-4.123-4.056-7.145-8.181-6.751c-4.123,0.395-7.146,4.057-6.751,8.181
			l8.996,94.015C49.4,434,62.533,445.936,78.434,445.936h355.133c15.9,0,29.033-11.937,30.548-27.765l9.003-94.081
			C473.512,319.966,470.489,316.304,466.366,315.91z"/>
	</g>
</g>
<g>
	<g>
		<path d="M304.098,296.819h-26.467v-26.468c0-5.451-4.436-9.886-9.887-9.886h-23.488c-5.451,0-9.887,4.435-9.887,9.886v26.468
			h-26.467c-5.451,0-9.887,4.435-9.887,9.886v23.488c0,5.451,4.436,9.887,9.887,9.887h26.467v26.468
			c0,5.451,4.436,9.886,9.887,9.886h23.488c5.451,0,9.887-4.434,9.887-9.886V340.08h26.467c5.451,0,9.887-4.436,9.887-9.887v-23.488
			C313.985,301.254,309.549,296.819,304.098,296.819z M298.985,325.081h-26.468c-5.452,0-9.886,4.434-9.886,9.885v26.468h-13.262
			v-26.468c0-5.451-4.435-9.886-9.886-9.886h-26.468v-13.26h26.468c5.451,0,9.886-4.436,9.886-9.887v-26.467h13.262v26.467
			c0,5.451,4.435,9.887,9.886,9.887h26.468V325.081z"/>
	</g>
</g>
<g>
</g>
<g>
</g>
<g>
</g>
<g>
</g>
<g>
</g>
<g>
</g>
<g>
</g>
<g>
</g>
<g>
</g>
<g>
</g>
<g>
</g>
<g>
</g>
<g>
</g>
<g>
</g>
<g>
</g>
</svg>
