<?xml version="1.0" encoding="iso-8859-1"?>
<!-- Generator: Adobe Illustrator 19.0.0, SVG Export Plug-In . SVG Version: 6.00 Build 0)  -->
<svg version="1.1" id="Capa_1" xmlns="http://www.w3.org/2000/svg" xmlns:xlink="http://www.w3.org/1999/xlink" x="0px" y="0px"
	 viewBox="0 0 512 512" style="enable-background:new 0 0 512 512;" xml:space="preserve">
<g>
	<g>
		<path d="M165.698,312.674l-8-18.577c-1.16-2.695-4.042-4.312-7.163-2.968l-24.391,10.503c-3.119,1.344-3.478,5.197-2.256,8.032
			c1.343,3.12,4.327,5.367,7.447,4.023l14.324-6.167l5.007,11.628c5.374,12.479,1.497,21.043-8.998,25.561
			c-10.635,4.581-19.238,1.392-24.611-11.088l-17.771-41.267c-5.376-12.48-1.782-20.921,8.854-25.502
			c12.338-5.313,19.018,0.049,23.411,7.909c1.73,3.625,5.683,3.436,9.654,1.727c4.963-2.138,6.904-4.655,4.402-10.469
			c-6.901-16.026-24.628-20.495-43.631-12.311c-17.301,7.45-27.615,22.145-17.723,45.119l17.771,41.267
			c9.893,22.974,27.374,25.702,45.384,17.946C165.277,350.346,175.591,335.648,165.698,312.674z"/>
	</g>
</g>
<g>
	<g>
		<path d="M244.545,278.72l-17.771-41.267c-9.894-22.974-27.657-25.578-45.526-17.883c-18.01,7.756-28.041,22.329-18.149,45.303
			l17.771,41.267c9.893,22.974,27.374,25.702,45.384,17.946C244.125,316.392,254.438,301.694,244.545,278.72z M220.514,310.754
			c-10.636,4.581-19.238,1.392-24.611-11.088L178.133,258.4c-5.375-12.48-1.78-20.921,8.855-25.502
			c10.495-4.519,19.38-1.452,24.754,11.028l17.771,41.267C234.886,297.673,231.009,306.236,220.514,310.754z"/>
	</g>
</g>
<g>
	<g>
		<path d="M341.19,266.188c-0.183-0.427-0.508-0.79-0.834-1.155l-67.651-79.803c-2.6-2.916-7.588-2.785-11.841-0.952
			c-4.255,1.832-7.635,5.304-7.304,9.197l11.351,104.048c0.042,0.486,0.225,0.911,0.408,1.337c1.588,3.687,7.934,3.981,12.047,2.209
			c2.553-1.099,4.172-2.805,3.903-5.379l-2.857-22.641l35.028-15.084l14.487,17.632c1.685,1.963,4.038,1.961,6.448,0.922
			C338.63,274.686,342.716,269.733,341.19,266.188z M276.484,259.589l-6.765-54.749l35.129,42.535L276.484,259.589z"/>
	</g>
</g>
<g>
	<g>
		<path d="M408.651,236.632c-1.465-3.403-4.431-5.994-7.408-4.712l-36.872,15.878l-36.824-85.513
			c-1.465-3.403-5.763-3.233-9.592-1.584c-3.687,1.588-6.905,4.654-5.44,8.057l40.427,93.881c1.405,3.262,5.54,3.498,8.803,2.093
			l45.237-19.481C409.961,243.968,410.055,239.892,408.651,236.632z"/>
	</g>
</g>
<g>
	<g>
		<path d="M420.492,202.449c-8.855-20.563-18.004-46.884-26.858-67.446c-1.894-4.397-6.336-5.34-10.448-3.57
			c-4.256,1.832-6.479,5.647-4.585,10.043c8.854,20.562,21.548,45.356,30.403,65.919c1.344,3.121,4.65,3.379,7.77,2.035
			C419.044,208.454,421.835,205.569,420.492,202.449z"/>
	</g>
</g>
<g>
	<g>
		<path d="M433.464,224.77c-2.014-4.679-7.492-6.859-12.03-4.905c-4.822,2.076-6.86,7.493-4.846,12.171
			c1.956,4.539,7.353,6.923,12.174,4.847C433.3,234.928,435.42,229.306,433.464,224.77z"/>
	</g>
</g>
<g>
	<g>
		<path d="M505.536,148.548c-1.456-3.384-4.314-5.939-7.838-7.012l-49.11-14.935l-12.712-50.172
			c-0.853-3.368-3.095-6.25-6.148-7.908c-3.051-1.657-6.688-1.968-9.976-0.85l-48.865,16.59l-35.074-38.312
			c-4.581-5.005-12.433-5.409-17.508-0.903l-38.722,34.399L233.89,54.829c-5.86-3.155-13.158-1.17-16.609,4.529l-26.856,44.363
			L139.74,92.748c-6.512-1.41-12.971,2.524-14.702,8.955l-13.514,50.112l-51.597,4.494c-6.759,0.588-11.862,6.573-11.375,13.341
			l3.734,51.806l-6.045,3.193c-3.671,1.938-5.076,6.486-3.137,10.157c1.348,2.551,3.955,4.008,6.654,4.008
			c1.183,0,2.384-0.281,3.503-0.872l7.517-3.969c4.379-2.315,6.979-7.003,6.622-11.942l-3.673-50.962l50.873-4.431
			c5.203-0.453,9.615-4.146,10.976-9.191l13.348-49.493l50.095,10.844c5.208,1.129,10.568-1.178,13.327-5.74l26.543-43.847
			l45.129,24.313c4.599,2.477,10.312,1.81,14.22-1.658l38.178-33.917l34.504,37.689c3.344,3.653,8.535,4.985,13.227,3.391
			l47.83-16.24l12.387,48.893c1.068,4.216,4.315,7.619,8.473,8.882l47.605,14.477l-22.192,44.534
			c-1.939,3.889-1.699,8.586,0.629,12.262l4.173,6.58c2.224,3.506,6.867,4.545,10.374,2.323c3.506-2.223,4.545-6.868,2.323-10.374
			l-3.403-5.366l22.894-45.942C506.884,155.762,506.992,151.931,505.536,148.548z"/>
	</g>
</g>
<g>
	<g>
		<path d="M510.062,248.714l-5.402-8.52c-2.223-3.508-6.869-4.546-10.373-2.324c-3.507,2.223-4.546,6.867-2.324,10.373l3.927,6.195
			l-44.667,23.59c-4.379,2.315-6.979,7.003-6.622,11.942l3.673,50.962l-50.873,4.431c-5.204,0.453-9.615,4.146-10.976,9.191
			l-13.347,49.493l-50.095-10.844c-5.21-1.13-10.566,1.178-13.328,5.74l-26.543,43.846l-45.128-24.311
			c-4.598-2.477-10.313-1.812-14.22,1.657l-38.179,33.917l-34.502-37.687c-3.344-3.655-8.535-4.986-13.229-3.393l-47.829,16.239
			l-12.388-48.892c-1.068-4.216-4.315-7.619-8.473-8.882L21.559,356.96l22.192-44.534c1.94-3.891,1.699-8.59-0.629-12.261
			l-27.009-42.599l6.026-3.183c3.67-1.939,5.075-6.486,3.136-10.157c-1.939-3.672-6.484-5.076-10.158-3.137l-8.461,4.468
			c-3.071,1.623-5.345,4.478-6.238,7.834c-0.893,3.356-0.339,6.964,1.522,9.898l27.714,43.712L6.759,352.944
			c-1.642,3.298-1.749,7.128-0.293,10.511s4.313,5.937,7.837,7.01l49.11,14.935l12.712,50.17c0.854,3.368,3.094,6.25,6.147,7.909
			c3.053,1.659,6.69,1.968,9.977,0.851l48.865-16.59l35.074,38.311c2.449,2.674,5.832,4.036,9.225,4.036
			c2.956,0,5.922-1.034,8.283-3.132l38.722-34.399l45.693,24.615c5.862,3.159,13.158,1.171,16.609-4.528l26.856-44.362
			l50.685,10.971c6.513,1.409,12.968-2.524,14.702-8.955l13.513-50.112l51.598-4.494c6.758-0.589,11.86-6.573,11.373-13.341
			l-3.734-51.806l45.631-24.099c3.071-1.623,5.345-4.478,6.238-7.834C512.475,255.256,511.922,251.647,510.062,248.714z"/>
	</g>
</g>
<g>
</g>
<g>
</g>
<g>
</g>
<g>
</g>
<g>
</g>
<g>
</g>
<g>
</g>
<g>
</g>
<g>
</g>
<g>
</g>
<g>
</g>
<g>
</g>
<g>
</g>
<g>
</g>
<g>
</g>
</svg>
