<?xml version="1.0" encoding="iso-8859-1"?>
<!-- Generator: Adobe Illustrator 19.0.0, SVG Export Plug-In . SVG Version: 6.00 Build 0)  -->
<svg version="1.1" id="Capa_1" xmlns="http://www.w3.org/2000/svg" xmlns:xlink="http://www.w3.org/1999/xlink" x="0px" y="0px"
	 viewBox="0 0 511.998 511.998" style="enable-background:new 0 0 511.998 511.998;" xml:space="preserve">
<g>
	<g>
		<path d="M119.289,446.199c4.902-2.301,7.803-8.703,7.803-16.606c0-13.305-9.003-17.907-21.108-17.907
			c-16.906,0-21.908,10.304-21.908,17.407c0,4.202,0.901,5.601,6.703,5.601c4.802,0,6.202-2.001,6.202-5.002
			c0-4.001,2.401-6.702,8.903-6.702c5.402,0,8.804,2.201,8.804,8.804c0,8.603-4.202,9.803-9.204,9.803
			c-2.901,0-3.902,2.601-3.902,5.102c0,2.601,1.001,5.102,3.902,5.102c6.402,0,11.004,2.1,11.004,9.504v1.9
			c-0.001,7.603-3.202,10.804-10.704,10.804c-6.402,0-10.404-2.801-10.404-7.303c0-3.201-1.4-4.601-6.702-4.601
			c-4.502,0-6.203,1.1-6.203,5.101c0,8.103,6.603,18.207,23.009,18.207c13.205,0,24.009-6.102,24.009-22.208v-1.9
			C129.493,453.002,125.191,448.5,119.289,446.199z"/>
	</g>
</g>
<g>
	<g>
		<path d="M428.089,473.409h-27.81v-2.401c0-10.404,31.712-17.407,31.712-39.015c0-12.705-10.804-20.308-22.409-20.308
			c-11.104,0-21.508,7.002-21.508,18.407c0,5.402,2.501,7.002,5.902,7.002c4.302,0,6.803-2.401,6.803-4.801
			c0-6.202,4.001-8.804,8.903-8.804c6.603,0,9.304,4.801,9.304,8.903c0,14.107-32.213,22.61-32.213,38.616v9.703
			c0,2.502,3.402,4.102,5.702,4.102h35.614c2.2,0,4.101-2.801,4.101-5.803C432.19,476.009,430.289,473.409,428.089,473.409z"/>
	</g>
</g>
<g>
	<g>
		<path d="M258.282,303.45c-1.1,0-2.001,0.401-2.701,1l-11.805,9.004c-1.601,1-2.501,2.901-2.501,4.702
			c0,2.6,1.701,5.202,4.202,5.202c0.7,0,1.601-0.2,2.401-0.901l3.201-3.201v53.421c-0.001,2.701,3.2,4.102,6.502,4.102
			c3.201,0,6.503-1.401,6.503-4.102v-65.025C264.084,305.052,260.982,303.45,258.282,303.45z"/>
	</g>
</g>
<g>
	<g>
		<path d="M478.556,387.321H339.292v-30.185c0-4.144-3.359-7.502-7.502-7.502s-7.502,3.359-7.502,7.502v31.178
			c0,7.726,6.286,14.011,14.012,14.011h137.569v94.669H36.13v-94.669h137.569c7.726,0,14.012-6.285,14.012-14.011V292.65h136.576
			v29.641c0,4.144,3.359,7.502,7.502,7.502s7.502-3.359,7.502-7.502v-32.33c0-6.791-5.525-12.316-12.316-12.316h-8.107v-6.814
			c0-7.549-6.143-13.692-13.692-13.692c-6.387,0-14.21-5.56-19.873-13.467c3.036-1.987,5.05-5.412,5.05-9.303v-13.421
			c0-3.831-1.948-7.215-4.906-9.215c6.767-9.094,16.12-21.595,23.07-30.61c4.075-5.286,7.777-10.835,11.104-16.592
			c24.856-16.695,40.393-39.581,49.316-56.747c11.648-22.409,16.367-43.061,16.697-51.475c0.111-2.816-0.951-5.601-2.912-7.642
			c-1.993-2.073-4.796-3.262-7.689-3.262h-34.9v-6.201c7.084-0.365,12.739-6.227,12.739-13.4V13.435
			C352.872,6.027,346.845,0,339.437,0H172.561c-7.408,0-13.435,6.027-13.435,13.435v12.369c0,7.16,5.634,13.013,12.7,13.398v6.204
			h-34.86c-2.894,0-5.696,1.189-7.689,3.262c-1.962,2.041-3.023,4.826-2.912,7.641c0.568,14.48,14.479,77.911,67.508,110.816
			c2.922,4.832,6.111,9.511,9.57,13.998c6.988,9.065,16.467,21.736,23.259,30.865c-2.761,2.024-4.565,5.282-4.565,8.96v13.421
			c0,3.735,1.858,7.039,4.692,9.056c-5.676,8.037-13.593,13.714-20.046,13.714c-7.55,0-13.692,6.143-13.692,13.692v6.814h-8.068
			c-6.791,0-12.316,5.525-12.316,12.316v97.359H33.442c-6.791,0-12.316,5.525-12.316,12.316v100.046
			c0,6.791,5.525,12.316,12.316,12.316h445.114c6.791,0,12.316-5.525,12.316-12.316V399.637
			C490.873,392.846,485.347,387.321,478.556,387.321z M340.133,88.349V60.41h29.935c-1.442,8.313-5.712,23.652-14.445,40.454
			c-4.976,9.572-12.212,21.098-22.223,32.035C337.819,118.513,340.133,103.476,340.133,88.349z M155.194,101.021
			c-7.9-16.112-12.005-31.657-13.348-40.611h29.979v27.939c0,16.351,2.701,32.597,7.847,48.028
			C168.244,124.503,160.369,111.576,155.194,101.021z M215.326,171.962c-18.376-23.837-28.496-53.532-28.496-83.613v-49.11h13.775
			c4.143,0,7.502-3.359,7.502-7.502s-3.359-7.502-7.502-7.502H174.13v-9.23h163.737v9.23h-102.25c-4.143,0-7.502,3.359-7.502,7.502
			s3.359,7.502,7.502,7.502h89.51v49.11c0,30.081-10.12,59.776-28.496,83.613c-9.092,11.794-22.229,29.459-28.464,37.871h-24.378
			C237.544,201.406,224.38,183.708,215.326,171.962z M275.347,224.838v5.643h-38.206v-5.643H275.347z M208.095,272.113
			c14.539-0.712,27.878-13.14,35.033-26.627h25.702c7.156,13.487,20.494,25.915,35.033,26.627v5.533h-95.768V272.113z"/>
	</g>
</g>
<g>
</g>
<g>
</g>
<g>
</g>
<g>
</g>
<g>
</g>
<g>
</g>
<g>
</g>
<g>
</g>
<g>
</g>
<g>
</g>
<g>
</g>
<g>
</g>
<g>
</g>
<g>
</g>
<g>
</g>
</svg>
