<?xml version="1.0" encoding="iso-8859-1"?>
<!-- Generator: Adobe Illustrator 19.0.0, SVG Export Plug-In . SVG Version: 6.00 Build 0)  -->
<svg version="1.1" id="Capa_1" xmlns="http://www.w3.org/2000/svg" xmlns:xlink="http://www.w3.org/1999/xlink" x="0px" y="0px"
	 viewBox="0 0 512 512" style="enable-background:new 0 0 512 512;" xml:space="preserve">
<g>
	<g>
		<path d="M467.816,78.648c-1.302-3.356-3.833-6.004-7.127-7.455L301.811,1.145c-6.799-2.999-14.769,0.097-17.766,6.895
			l-45.76,103.792c-19.42,5.11-38.677,10.058-44.366,11.517c-10.771,2.761-20.059,9.913-25.483,19.621l-40.708,72.866
			c-6.624,11.856-9.416,25.267-8.079,38.792c0.219,3.574,4.374,72.227,2.45,92.849l-14.628,34.314l-6.037-2.362
			c-2.651-1.039-5.546-0.982-8.153,0.159c-2.607,1.14-4.613,3.227-5.65,5.877L43.997,496.969c-0.16,0.409-0.294,0.825-0.401,1.245
			c-0.215,0.84-0.325,1.696-0.332,2.551c-0.017,2.136,0.609,4.26,1.845,6.077c1.978,2.908,5.258,4.65,8.774,4.661L209.573,512
			c0.013,0,0.026,0,0.039,0c4.074,0,7.827-2.384,9.588-6.016c0.002-0.003,0.004-0.006,0.005-0.01
			c0.023-0.048,0.042-0.098,0.064-0.146c0.092-0.197,0.182-0.394,0.261-0.598l23.127-59.099c0.267-0.684,0.459-1.378,0.579-2.075
			c0.841-4.878-1.83-9.852-6.615-11.726c-0.001,0-0.001-0.001-0.002-0.001l-3.769-1.475c1.938-3.591,4.621-6.759,7.87-9.24
			c0.085-0.064,0.168-0.131,0.25-0.199l39.067-32.571c13.355-11.262,23.133-26.04,28.278-42.737l3.648-11.839l27.413,12.086
			c1.741,0.768,3.585,1.153,5.432,1.153c1.647,0,3.298-0.306,4.879-0.92c3.355-1.301,6.003-3.833,7.456-7.127l76.021-172.431
			c1.672-3.792-0.047-8.221-3.839-9.893c-3.79-1.673-8.221,0.046-9.893,3.839l-75.403,171.029l-27.617-12.175l3.348-10.866
			l40.48-91.817c7.036-15.959,3.306-29.51-9.723-35.467c-6.542-3.601-15.029-3.856-24.578-0.73
			c-21.432,7.017-45.91,29.954-55.726,52.218c-6.199,14.063-13.239,30.034-17.119,38.841c-1.103,2.503-3.133,4.434-5.718,5.436
			l-0.229,0.089c-3.811,1.479-10.915-0.664-14.018-4.071l-23.269-59.955l40.699-92.314L297.16,15.496l156.074,68.811l-19.626,44.514
			c-1.672,3.792,0.047,8.221,3.839,9.893c0.985,0.435,2.012,0.64,3.024,0.64c2.883,0,5.632-1.671,6.87-4.479l20.244-45.917
			C469.036,85.665,469.118,82.003,467.816,78.648z M92.611,496.619l10.308-26.224c1.516-3.857-0.382-8.213-4.239-9.73
			c-3.858-1.514-8.213,0.382-9.729,4.238l-12.446,31.664l-16.215-0.052l39.729-101.525l14.226,5.568l-12.441,31.65
			c-1.516,3.857,0.382,8.213,4.239,9.73c3.855,1.513,8.212-0.381,9.729-4.239l12.449-31.672l13.546,5.301l-33.546,85.34
			L92.611,496.619z M124.326,496.72l31.416-79.923l15.965,6.247l-28.984,73.734L124.326,496.72z M158.829,496.83l26.854-68.316
			l13.545,5.3l-24.79,63.066L158.829,496.83z M206.642,496.982l-16.099-0.051l22.66-57.648l13.891,5.436L206.642,496.982z
			 M328.426,252.103l-7.144-3.149c-2.504-1.104-3.643-4.04-2.54-6.544l6.139-13.923c1.801-4.085,5.085-7.224,9.247-8.84
			c1.962-0.761,4.008-1.141,6.051-1.141c0.984,0,1.968,0.088,2.942,0.265L328.426,252.103z M195.692,208.443l-0.568,1.01
			c-1.1,1.956-1.266,4.301-0.454,6.393l24.889,64.128c0.236,0.609,0.551,1.184,0.936,1.711c6.757,9.252,21.747,13.851,32.082,9.841
			l0.229-0.089c6.323-2.453,11.303-7.204,14.023-13.378c3.879-8.805,10.918-24.776,17.117-38.837
			c8.163-18.515,29.096-38.258,46.663-44.01c5.485-1.797,10.023-1.912,12.779-0.323c0.233,0.134,0.473,0.255,0.719,0.363
			c1.706,0.753,5.652,2.5,4.473,9.384c-6.533-1.81-13.446-1.477-19.881,1.019c-7.899,3.066-14.132,9.024-17.55,16.777l-6.139,13.923
			c-4.442,10.076,0.142,21.888,10.218,26.33l7.145,3.15l-16.521,37.472c-0.117,0.266-0.219,0.539-0.305,0.818l-11.573,37.561
			c-4.296,13.942-12.46,26.28-23.578,35.656l-38.918,32.446c-5.363,4.13-9.72,9.484-12.681,15.565l-97.341-38.092
			c-0.003-0.001,0,0-0.003-0.001l14.896-34.943c0.285-0.668,0.471-1.375,0.553-2.097c2.374-20.917-2.092-93.579-2.283-96.663
			c-0.006-0.097-0.014-0.193-0.024-0.29c-1.062-10.5,1.094-20.913,6.234-30.113l40.708-72.866c3.429-6.138,9.3-10.659,16.109-12.404
			c4.56-1.169,17.82-4.576,32.906-8.513L195.692,208.443z"/>
	</g>
</g>
<g>
</g>
<g>
</g>
<g>
</g>
<g>
</g>
<g>
</g>
<g>
</g>
<g>
</g>
<g>
</g>
<g>
</g>
<g>
</g>
<g>
</g>
<g>
</g>
<g>
</g>
<g>
</g>
<g>
</g>
</svg>
