<?xml version="1.0" encoding="iso-8859-1"?>
<!-- Generator: Adobe Illustrator 19.0.0, SVG Export Plug-In . SVG Version: 6.00 Build 0)  -->
<svg version="1.1" id="Capa_1" xmlns="http://www.w3.org/2000/svg" xmlns:xlink="http://www.w3.org/1999/xlink" x="0px" y="0px"
	 viewBox="0 0 512.002 512.002" style="enable-background:new 0 0 512.002 512.002;" xml:space="preserve">
<g>
	<g>
		<path d="M460.688,71.193L301.81,1.147c-6.799-3.001-14.77,0.094-17.767,6.894l-45.759,103.792
			c-19.435,5.114-38.681,10.059-44.366,11.517c-10.771,2.761-20.06,9.913-25.484,19.621l-40.709,72.866
			c-6.623,11.856-9.415,25.267-8.078,38.792c0.219,3.574,4.374,72.227,2.45,92.849l-14.628,34.314l-6.038-2.363
			c-2.648-1.036-5.545-0.981-8.152,0.16c-2.608,1.14-4.615,3.228-5.65,5.877L43.995,496.968c-0.7,1.789-0.876,3.699-0.586,5.54
			c0.241,1.53,0.799,3.014,1.697,4.334c1.978,2.908,5.259,4.651,8.774,4.662l27.706,0.089c0.009,0,0.017,0,0.024,0
			c0.001,0,0.003,0,0.004,0l97.9,0.313c0.001,0,0.003,0,0.004,0l29.34,0.094l0.717,0.002c0.001,0,0.001,0,0.002,0
			c0.014,0,0.022,0,0.033,0c4.417,0,8.308-2.655,9.919-6.77l23.126-59.098c1.037-2.65,0.98-5.545-0.16-8.152
			c-0.143-0.326-0.3-0.643-0.471-0.949c-0.238-0.425-0.511-0.822-0.801-1.206c-0.964-1.279-2.196-2.328-3.639-3.062
			c-0.313-0.159-0.636-0.304-0.968-0.434l-3.768-1.474c1.937-3.59,4.62-6.758,7.871-9.242c0.084-0.064,0.167-0.13,0.249-0.198
			l39.067-32.57c13.355-11.264,23.133-26.042,28.276-42.736l3.649-11.841l27.415,12.088c1.763,0.777,3.603,1.144,5.416,1.144
			c5.18,0,10.13-3.004,12.349-8.039l76.58-173.699c1.672-3.792-0.047-8.221-3.839-9.893c-3.79-1.675-8.222,0.046-9.893,3.839
			l-75.963,172.297l-27.616-12.176l3.348-10.865l25.597-58.06c1.152,2.908,3.94,4.749,6.951,4.749c0.762,0,1.538-0.117,2.302-0.363
			c3.945-1.27,6.113-5.498,4.842-9.442l-5.009-15.553l2.814-6.384l2.811-6.376c0-0.001,0-0.002,0.001-0.002l0.169-0.384
			c7.037-15.959,3.307-29.51-9.722-35.467c-3.663-2.017-7.936-2.984-12.663-2.896l-3.854-11.965l75.54-34.453
			c3.77-1.721,5.433-6.171,3.714-9.942c-1.721-3.77-6.17-5.432-9.942-3.714l-73.945,33.725l-24.912-77.36
			c-1.27-3.944-5.499-6.113-9.442-4.842c-3.945,1.27-6.113,5.498-4.842,9.442l25.452,79.028l-75.54,34.452
			c-3.77,1.721-5.433,6.171-3.714,9.942c1.259,2.761,3.983,4.392,6.833,4.392c1.042,0,2.1-0.218,3.109-0.678l73.944-33.725
			l2.86,8.88c-20.719,8.011-43.513,29.907-52.899,51.199c-6.2,14.063-13.24,30.034-17.119,38.839
			c-1.103,2.504-3.134,4.436-5.724,5.44l-0.223,0.087c-3.81,1.478-10.915-0.666-14.019-4.072l-23.27-59.953l87.3-198.013
			l156.074,68.81l-19.13,43.394c-1.672,3.792,0.047,8.221,3.839,9.893c0.985,0.435,2.012,0.64,3.023,0.64
			c2.883,0,5.633-1.671,6.87-4.479l19.748-44.795C470.579,82.162,467.487,74.192,460.688,71.193z M92.61,496.62l10.757-27.365
			c1.515-3.857-0.382-8.213-4.239-9.73c-3.858-1.513-8.214,0.381-9.73,4.239l-12.895,32.805l-16.214-0.052l39.728-101.525
			l14.226,5.567l-12.07,30.705c-1.515,3.857,0.382,8.213,4.239,9.73c3.857,1.512,8.213-0.382,9.73-4.238l12.078-30.727l13.545,5.3
			l-33.546,85.341L92.61,496.62z M124.325,496.721l31.416-79.923l15.965,6.247l-28.985,73.734L124.325,496.721z M174.435,496.881
			l-15.608-0.05l26.855-68.317l13.544,5.3L174.435,496.881z M206.641,496.984l-16.1-0.051l22.66-57.648l13.892,5.435
			L206.641,496.984z M338.46,229.342l-10.036,22.762l-7.144-3.149c-1.213-0.535-2.145-1.511-2.624-2.747
			c-0.48-1.236-0.449-2.584,0.085-3.798l6.139-13.923c1.802-4.085,5.086-7.224,9.248-8.84c1.962-0.762,4.008-1.141,6.052-1.141
			c0.984,0,1.969,0.088,2.941,0.264L338.46,229.342z M195.69,208.442l-0.569,1.011c-1.1,1.956-1.267,4.302-0.455,6.394l24.89,64.128
			c0.236,0.609,0.552,1.184,0.937,1.712c6.759,9.251,21.749,13.847,32.088,9.838l0.224-0.087
			c6.322-2.454,11.302-7.205,14.022-13.379c3.879-8.804,10.919-24.775,17.117-38.836c8.162-18.514,29.095-38.257,46.663-44.01
			c5.486-1.796,10.024-1.913,12.779-0.324c0.233,0.134,0.473,0.255,0.718,0.363c1.707,0.753,5.655,2.502,4.474,9.391
			c-14.906-4.108-31.012,3.231-37.43,17.791l-6.139,13.923c-4.443,10.076,0.141,21.887,10.217,26.33l7.145,3.15l-16.521,37.472
			c-0.118,0.266-0.22,0.539-0.305,0.817l-11.575,37.563c-4.294,13.939-12.459,26.278-23.577,35.655l-38.918,32.446
			c-5.364,4.132-9.722,9.486-12.68,15.565l-34.618-13.547c-0.001,0-0.002-0.001-0.003-0.001l-5.92-2.316l-56.803-22.228
			l14.896-34.943c0.284-0.668,0.471-1.375,0.553-2.097c2.374-20.917-2.092-93.579-2.283-96.663c-0.006-0.097-0.014-0.193-0.023-0.29
			c-1.062-10.501,1.093-20.913,6.234-30.113l40.709-72.867c3.428-6.137,9.299-10.657,16.108-12.403
			c4.558-1.169,17.812-4.574,32.906-8.513L195.69,208.442z"/>
	</g>
</g>
<g>
</g>
<g>
</g>
<g>
</g>
<g>
</g>
<g>
</g>
<g>
</g>
<g>
</g>
<g>
</g>
<g>
</g>
<g>
</g>
<g>
</g>
<g>
</g>
<g>
</g>
<g>
</g>
<g>
</g>
</svg>
