<?xml version="1.0" encoding="iso-8859-1"?>
<!-- Generator: Adobe Illustrator 19.0.0, SVG Export Plug-In . SVG Version: 6.00 Build 0)  -->
<svg version="1.1" id="Capa_1" xmlns="http://www.w3.org/2000/svg" xmlns:xlink="http://www.w3.org/1999/xlink" x="0px" y="0px"
	 viewBox="0 0 512 512" style="enable-background:new 0 0 512 512;" xml:space="preserve">
<g>
	<g>
		<path d="M417.202,78.925c-6.374-6.872-15.041-10.656-24.403-10.656c-4.525,0-9.045,0.9-13.436,2.676
			c-3.888,1.571-7.335,3.86-10.218,6.682l0.712-30.504c0.003-0.126,0.003-0.253-0.001-0.379
			c-0.477-17.55-14.606-31.297-32.165-31.297h-0.501c-9.241,0-18.021,3.719-24.087,10.202c-5.768,6.163-8.841,14.195-8.664,22.636
			l-1.981,80.19l-4.629-99.349c-0.008-0.158-0.02-0.315-0.037-0.472C295.994,12.318,282.243,0,265.808,0
			c-9.144,0-17.884,3.908-23.981,10.722c-6.038,6.748-8.955,15.749-8.028,24.736l3.501,75.878l-3.805-34.297
			c-0.018-0.156-0.039-0.311-0.066-0.467c-2.702-15.427-16.021-26.624-31.67-26.624c-0.005,0-0.103,0-0.107,0
			c-7.797,0.015-15.188,2.72-20.809,7.619c-8.704,7.583-12.765,18.739-10.89,29.883l19.661,165.72l-29.402-48.914
			c-8.899-16.753-21.945-25.978-36.753-25.978c-6.645,0-13.355,1.866-19.943,5.545c-16.437,9.179-22.174,28.681-13.642,46.371
			c0.069,0.145,0.145,0.289,0.225,0.43l70.161,124.244c1.103,2.515,5.097,8.629,37.731,37.385c1.419,1.251,2.236,3.053,2.243,4.946
			c0,0.088,0.001,0.188,0.001,0.277c0.002,0.481,0.004,0.989,0.005,1.513c0.001,0.473,0.003,0.959,0.005,1.466
			c0,0.031,0,0.06,0,0.091c0.02,6.46,0.041,15.54,0.063,25.527c0.007,3.144,0.014,6.372,0.021,9.643
			c0.071,32.98,0.127,56.505,0.194,58.819c0.086,2.963,0.892,5.728,2.248,8.13c2.985,5.284,8.635,8.812,15.155,8.832h0.001
			L383.145,512c0.019,0,0.036,0,0.054,0c0.581,0,1.158-0.028,1.728-0.084c3.996-0.39,7.704-2.13,10.589-5
			c2.895-2.882,4.657-6.599,5.058-10.613c0.057-0.573,0.087-1.153,0.088-1.737l0.021-14.293c0.053-0.36,0.09-0.726,0.09-1.101
			v-58.359l0.045-29.76c0.001-0.848,0.158-1.667,0.467-2.437c0.284-0.709,0.622-1.54,1.006-2.484
			c6.196-15.255,22.655-55.779,22.655-90.436l0.003-63.698c0.006-0.127,0.009-0.243,0.009-0.332l1.094-129.333
			C426.125,93.468,422.983,85.155,417.202,78.925z M385.787,413.28H263.394c-20.234,0-36.696,16.462-36.696,36.696
			s16.462,36.696,36.696,36.696h46.039c4.142,0,7.499-3.357,7.499-7.499c0-4.142-3.357-7.499-7.499-7.499h-46.039
			c-11.965,0-21.698-9.734-21.698-21.698c0-11.965,9.734-21.698,21.698-21.698h122.37l-0.065,43.397H344.67
			c-4.142,0-7.499,3.357-7.499,7.499c0,4.142,3.357,7.499,7.499,7.499h41.006l-0.012,7.87c-0.002,0.889-0.456,1.475-0.727,1.745
			c-0.27,0.269-0.853,0.718-1.739,0.718c-0.002,0-0.005,0-0.008,0l-165.217-0.504c-0.335-0.001-0.654-0.068-0.944-0.188
			c-0.871-0.364-1.486-1.209-1.515-2.216c-0.013-5.737-0.247-84.664-0.26-89.15h170.545L385.787,413.28z M409.962,231.385
			c-0.007,0.133-0.011,0.266-0.011,0.398l-0.003,63.911c0,31.728-15.658,70.279-21.553,84.792c-0.394,0.97-0.741,1.823-1.033,2.551
			c-0.885,2.21-1.368,4.533-1.49,6.912H213.961c-1.22-3.412-3.283-6.504-6.056-8.949c-24.018-21.164-32.655-30.324-34.055-32.507
			c-0.092-0.202-0.192-0.401-0.303-0.595l-70.264-124.426c-4.918-10.423-1.835-21.319,7.546-26.558
			c4.325-2.416,8.575-3.641,12.63-3.641c9.032,0,17.409,6.452,23.589,18.168c0.065,0.124,0.134,0.245,0.206,0.365l40.926,68.086
			c1.598,3.643,5.09,5.954,9.114,5.954c2.779-0.004,5.455-1.141,7.346-3.126c1.834-1.927,2.792-4.492,2.7-7.221
			c-0.008-0.21-0.023-0.419-0.048-0.627L184.823,85.491c-0.017-0.138-0.037-0.274-0.061-0.41
			c-1.066-6.086,1.096-11.993,5.932-16.207c2.899-2.525,6.8-3.92,11.064-3.928c8.278,0,15.333,5.876,16.859,14.002l14.3,128.888
			c0.017,0.147,0.037,0.295,0.062,0.441c0.972,5.66,5.845,9.831,11.589,9.918c0.038,0.001,0.075,0.001,0.113,0.001
			c3.436,0,6.704-1.45,8.966-3.978c2.197-2.454,3.281-5.712,2.999-8.984L248.77,34.54c-0.008-0.162-0.021-0.324-0.038-0.485
			c-0.539-4.837,1.017-9.697,4.271-13.333c3.255-3.638,7.923-5.725,12.805-5.725c8.703,0,15.995,6.469,17.052,15.082l8.159,175.112
			c0.008,0.158,0.02,0.315,0.037,0.472c0.686,6.237,5.941,10.941,12.222,10.941c0.346,0,0.694-0.015,1.049-0.045
			c6.411-0.546,11.313-5.949,11.262-12.355l3.848-155.73c0.003-0.13,0.003-0.26-0.001-0.389c-0.123-4.546,1.516-8.875,4.618-12.189
			c3.242-3.465,8.031-5.452,13.137-5.452h0.501c9.318,0,16.826,7.249,17.168,16.535l-3.73,159.954
			c-0.003,0.126-0.003,0.251,0.001,0.377c0.166,6.158,5.123,10.982,11.285,10.982c6.173,0,11.236-5.022,11.289-11.196l0.855-106.595
			c0.059-6.972,4.151-13.116,10.425-15.652c2.597-1.051,5.227-1.583,7.815-1.583c5.142,0,9.903,2.081,13.409,5.859
			c3.166,3.412,4.888,8.058,4.845,13.08L409.962,231.385z"/>
	</g>
</g>
<g>
	<g>
		<path d="M367.543,253.308h-84.648c-4.142,0-7.499,3.357-7.499,7.499c0,4.142,3.357,7.499,7.499,7.499h82.858v42.473
			c0,16.2-13.179,29.38-29.38,29.38h-67.742c-16.2,0-29.38-13.179-29.38-29.38v-42.473h8.751c4.142,0,7.499-3.357,7.499-7.499
			c0-4.142-3.357-7.499-7.499-7.499h-10.541c-7.283,0-13.208,5.926-13.208,13.209v44.262c0,24.469,19.908,44.377,44.377,44.377
			h67.742c24.469,0,44.377-19.908,44.377-44.377v-44.262C380.751,259.234,374.826,253.308,367.543,253.308z"/>
	</g>
</g>
<g>
</g>
<g>
</g>
<g>
</g>
<g>
</g>
<g>
</g>
<g>
</g>
<g>
</g>
<g>
</g>
<g>
</g>
<g>
</g>
<g>
</g>
<g>
</g>
<g>
</g>
<g>
</g>
<g>
</g>
</svg>
