<?xml version="1.0" encoding="iso-8859-1"?>
<!-- Generator: Adobe Illustrator 19.0.0, SVG Export Plug-In . SVG Version: 6.00 Build 0)  -->
<svg version="1.1" id="Capa_1" xmlns="http://www.w3.org/2000/svg" xmlns:xlink="http://www.w3.org/1999/xlink" x="0px" y="0px"
	 viewBox="0 0 512 512" style="enable-background:new 0 0 512 512;" xml:space="preserve">
<g>
	<g>
		<path d="M497.72,38.955l-0.015-0.012c-0.002-0.001-0.003-0.003-0.005-0.004l-0.065-0.053L452.904,1.731
			c-1.391-1.155-3.145-1.766-4.937-1.729c-0.01,0-0.02-0.002-0.031-0.002H64.095c-0.015,0-0.029,0.002-0.044,0.002
			c-1.795-0.04-3.553,0.571-4.946,1.727l-44.728,37.14c-0.002,0.002-0.005,0.003-0.007,0.005l-0.042,0.035l-0.042,0.035
			C-1.272,51.862-3.961,74.658,8.163,90.843l178.533,238.315c-7.042,0.632-12.582,6.56-12.582,13.764v42.76
			c-5.021,11.185-7.817,23.577-7.817,36.611c0,49.465,40.242,89.707,89.707,89.707c49.465,0,89.707-40.242,89.707-89.707
			c0-13.034-2.797-25.425-7.817-36.611v-42.76c0-7.204-5.539-13.132-12.581-13.764L503.838,90.85
			C515.959,74.669,513.273,51.874,497.72,38.955z M482.555,45.858l-212.19,283.237h-17.493L471.77,36.901L482.555,45.858z
			 M449.387,18.309l10.83,8.996l-226.088,301.79h-17.568l9.239-12.333c0.006-0.009,0.013-0.018,0.02-0.026l18.101-24.162
			c0.005-0.007,0.011-0.014,0.016-0.021l18.069-24.12c0.001-0.001,0.001-0.002,0.002-0.003L392.133,94.733
			c0.002-0.002,0.004-0.004,0.006-0.007L449.387,18.309z M371.146,97.729L256.004,251.426L140.862,97.729H371.146z M129.625,82.729
			l-8.888-11.864h270.535l-8.888,11.864H129.625z M433.122,15l-8.888,11.864h-50.242c-4.143,0-7.5,3.357-7.5,7.5s3.357,7.5,7.5,7.5
			h39.005l-9.161,12.228l-1.328,1.772H109.499l-10.488-14h240.084c4.143,0,7.5-3.357,7.5-7.5s-3.357-7.5-7.5-7.5H87.774L78.886,15
			H433.122z M62.621,18.308l184.012,245.628l-8.78,11.72L51.794,27.298L62.621,18.308z M18.738,56.561l81.734,109.101
			c1.473,1.967,3.727,3.003,6.008,3.003c1.564,0,3.143-0.487,4.491-1.497c3.315-2.484,3.989-7.185,1.506-10.5L29.454,45.847
			l10.784-8.954L228.48,288.166l-8.746,11.675l-86.336-115.244c-2.483-3.315-7.185-3.989-10.499-1.505
			c-3.315,2.483-3.989,7.184-1.506,10.499l88.969,118.76l-8.759,11.691L20.168,81.849C14.49,74.27,14.21,64.302,18.738,56.561z
			 M212.091,344.095c-8.646,4.875-16.407,11.14-22.977,18.493v-18.493h12.458H212.091z M330.709,422.293
			c0,41.193-33.514,74.707-74.707,74.707s-74.707-33.514-74.707-74.707s33.513-74.706,74.707-74.706
			C297.196,347.587,330.709,381.1,330.709,422.293z M299.915,344.095h10.453h12.524v18.493
			C316.322,355.235,308.561,348.969,299.915,344.095z M491.832,81.856L306.615,329.095h-17.507l204.16-272.519
			C497.79,64.316,497.508,74.28,491.832,81.856z"/>
	</g>
</g>
<g>
	<g>
		<path d="M312.412,406.707c-1.02-3.14-3.683-5.384-6.948-5.858l-28.845-4.191L263.72,370.52c-1.461-2.959-4.419-4.798-7.719-4.798
			c-3.3,0-6.258,1.839-7.718,4.798l-12.899,26.138l-28.844,4.191c-3.265,0.474-5.928,2.718-6.948,5.855
			c-1.021,3.139-0.187,6.52,2.177,8.826l20.872,20.345l-4.928,28.73c-0.557,3.252,0.756,6.477,3.424,8.416
			c2.669,1.938,6.14,2.188,9.065,0.655L256,460.113l25.799,13.563c1.271,0.669,2.646,0.999,4.014,0.999
			c1.777,0,3.543-0.558,5.052-1.653c2.67-1.94,3.981-5.167,3.423-8.418l-4.927-28.729l20.873-20.345
			C312.597,413.226,313.431,409.845,312.412,406.707z M276.487,427.479c-2.03,1.977-2.957,4.824-2.478,7.62l3.305,19.273
			l-17.32-9.105c-2.5-1.31-5.486-1.31-7.999,0.006l-17.309,9.101l3.306-19.276c0.479-2.797-0.45-5.646-2.476-7.616l-14.003-13.649
			l19.34-2.811c2.812-0.404,5.24-2.167,6.493-4.71L256,388.775l8.651,17.529c1.256,2.549,3.684,4.312,6.483,4.714l19.353,2.813
			L276.487,427.479z"/>
	</g>
</g>
<g>
</g>
<g>
</g>
<g>
</g>
<g>
</g>
<g>
</g>
<g>
</g>
<g>
</g>
<g>
</g>
<g>
</g>
<g>
</g>
<g>
</g>
<g>
</g>
<g>
</g>
<g>
</g>
<g>
</g>
</svg>
