<?xml version="1.0" encoding="iso-8859-1"?>
<!-- Generator: Adobe Illustrator 19.0.0, SVG Export Plug-In . SVG Version: 6.00 Build 0)  -->
<svg version="1.1" id="Capa_1" xmlns="http://www.w3.org/2000/svg" xmlns:xlink="http://www.w3.org/1999/xlink" x="0px" y="0px"
	 viewBox="0 0 511.997 511.997" style="enable-background:new 0 0 511.997 511.997;" xml:space="preserve">
<g>
	<g>
		<path d="M370.59,341.969c-3-2.934-7.812-2.884-10.748,0.116l-16.869,17.235c-2.936,3-2.884,7.812,0.115,10.748
			c1.479,1.447,3.398,2.168,5.316,2.168c1.972,0,3.944-0.763,5.432-2.284l16.869-17.235
			C373.641,349.717,373.589,344.905,370.59,341.969z"/>
	</g>
</g>
<g>
	<g>
		<path d="M325.606,387.929c-3-2.935-7.813-2.883-10.748,0.116l-16.869,17.235c-2.936,2.999-2.884,7.812,0.115,10.748
			c1.479,1.447,3.398,2.168,5.316,2.168c1.972,0,3.944-0.763,5.432-2.284l16.869-17.235
			C328.657,395.677,328.605,390.865,325.606,387.929z"/>
	</g>
</g>
<g>
	<g>
		<path d="M415.575,296.01c-3-2.936-7.811-2.886-10.748,0.115l-16.869,17.235c-2.937,2.999-2.885,7.811,0.115,10.747
			c1.479,1.448,3.398,2.169,5.316,2.169c1.972,0,3.943-0.763,5.432-2.284l16.869-17.235
			C418.626,303.757,418.575,298.945,415.575,296.01z"/>
	</g>
</g>
<g>
	<g>
		<path d="M283.258,191.244c-20.458-20.022-50.724-24.014-75.109-12.162c-0.069,0.029-0.139,0.051-0.208,0.082
			c-0.287,0.13-0.559,0.28-0.822,0.44c-6.239,3.17-12.08,7.373-17.24,12.644c-14.953,15.277-20.959,36.022-18.115,55.704
			c0.017,0.312,0.047,0.625,0.103,0.94c0.042,0.232,0.094,0.46,0.155,0.683c2.252,13.257,8.535,25.948,18.858,36.052
			c10.262,10.045,23.21,16.333,37.184,18.227c0.011,0.002,0.022,0.005,0.033,0.007c0.019,0.003,0.037,0.001,0.056,0.004
			c2.926,0.392,5.895,0.605,8.896,0.605c0.242,0,0.486-0.001,0.728-0.004c17.637-0.189,34.145-7.235,46.482-19.841
			c5.19-5.303,9.285-11.272,12.326-17.62c0.089-0.165,0.189-0.32,0.267-0.494c0.049-0.109,0.085-0.22,0.129-0.331
			C308.368,241.528,303.746,211.298,283.258,191.244z M237.076,187.629c10.432,0,20.871,3.183,29.716,9.565l-14.13,14.436
			l-23.496-3.972l-7.916-17.506C226.381,188.481,231.726,187.629,237.076,187.629z M200.742,202.881
			c2.161-2.208,4.483-4.162,6.918-5.891l8.195,18.124l-9.525,19.865l-20.061,3.604C186.231,225.699,191.039,212.794,200.742,202.881
			z M222.879,287.259c-7.955-2.302-15.281-6.538-21.366-12.495c-6.213-6.081-10.528-13.379-12.946-21.151l20-3.593l17.321,16.954
			L222.879,287.259z M235.37,254.985l-14.819-14.505l8.366-17.449l19.923,3.369l3.795,19.847L235.37,254.985z M273.398,273.994
			c-9.419,9.624-21.997,15.031-35.448,15.262l2.975-20.046l20.383-10.317l17.862,8.015
			C277.486,269.395,275.572,271.773,273.398,273.994z M285.699,253.177l-17.79-7.983l-4.385-22.931l14.13-14.437
			C287.594,220.987,290.289,237.943,285.699,253.177z"/>
	</g>
</g>
<g>
	<g>
		<path d="M507.271,309.663L362.929,168.386c-3-2.937-7.811-2.885-10.748,0.115c-2.936,2.999-2.884,7.812,0.115,10.747
			l85.253,83.444l-4.608,4.708c-2.936,3-2.884,7.812,0.115,10.748c1.479,1.447,3.398,2.168,5.316,2.168
			c1.972,0,3.944-0.763,5.432-2.284l4.608-4.708l48.226,47.203c0.039,0.038,0.158,0.154,0.16,0.373
			c0.002,0.216-0.111,0.332-0.148,0.369c-23.953,24.402-41.173,41.93-49.071,49.95c-20.592-15.01-49.702-13.043-68.042,5.693
			c-18.344,18.743-19.681,47.899-4.233,68.151c-9.281,9.538-30.415,31.203-48.886,50.129c-0.037,0.039-0.151,0.154-0.365,0.157
			c-0.002,0-0.005,0-0.007,0c-0.215,0-0.332-0.115-0.371-0.153l-48.226-47.202l3.286-3.357c2.936-2.999,2.885-7.811-0.115-10.747
			c-3-2.937-7.811-2.886-10.748,0.115l-3.286,3.357l-87.244-85.392c-3-2.935-7.811-2.885-10.748,0.116
			c-2.936,3-2.884,7.812,0.115,10.748l146.333,143.227c2.963,2.9,6.862,4.49,10.998,4.49c0.062,0,0.124-0.001,0.186-0.001
			c4.202-0.048,8.134-1.732,11.069-4.74c7.439-7.621,20.895-21.411,32.488-33.3c5.798-5.946,11.129-11.416,15.009-15.402
			c1.944-1.996,3.523-3.621,4.616-4.747l1.274-1.317c4.471-4.64,2.149-9.318,0.278-11.163c-14.583-14.273-14.835-37.75-0.562-52.334
			c14.274-14.582,37.752-14.835,52.335-0.561c1.436,1.405,3.388,2.16,5.379,2.168c3.151-0.027,4.545-1.437,7.074-3.998
			c1.105-1.119,2.697-2.735,4.652-4.722c3.904-3.966,9.258-9.413,15.076-15.336c11.634-11.841,25.124-25.581,32.581-33.178
			c2.945-3,4.543-6.966,4.501-11.169C511.957,316.543,510.278,312.606,507.271,309.663z"/>
	</g>
</g>
<g>
	<g>
		<path d="M337.657,143.651L196.956,5.935c-2.963-2.9-6.862-4.49-10.999-4.49c-0.061,0-0.124,0.001-0.186,0.001
			c-4.202,0.048-8.134,1.732-11.069,4.74c-7.439,7.621-20.895,21.411-32.488,33.3c-5.798,5.946-11.129,11.416-15.009,15.402
			c-1.944,1.996-3.523,3.621-4.616,4.747l-1.274,1.317c-4.471,4.64-2.149,9.318-0.278,11.162
			c14.583,14.274,14.835,37.751,0.562,52.335s-37.752,14.837-52.355,0.541c-1.865-1.812-6.591-4.031-11.134,0.537l-1.289,1.302
			c-1.103,1.117-2.694,2.731-4.648,4.716c-3.902,3.964-9.257,9.412-15.077,15.336c-11.636,11.848-25.133,25.597-32.594,33.197
			c-2.945,2.999-4.543,6.966-4.501,11.169c0.042,4.206,1.721,8.142,4.728,11.086l138.222,135.288
			c1.479,1.447,3.398,2.168,5.316,2.168c1.972,0,3.943-0.763,5.432-2.284c2.936-3,2.884-7.812-0.115-10.747L15.361,191.469
			c-0.039-0.038-0.158-0.154-0.16-0.373c-0.002-0.216,0.111-0.332,0.148-0.369c23.954-24.402,41.174-41.93,49.071-49.951
			c20.592,15.012,49.702,13.046,68.042-5.692c18.344-18.742,19.681-47.899,4.233-68.151c9.281-9.538,30.415-31.203,48.886-50.128
			c0.037-0.039,0.151-0.154,0.365-0.157c0.002,0,0.005,0,0.007,0c0.215,0,0.332,0.115,0.371,0.152l140.7,137.715
			c2.999,2.934,7.811,2.884,10.748-0.116C340.708,151.4,340.656,146.587,337.657,143.651z"/>
	</g>
</g>
<g>
	<g>
		<path d="M385.385,244.75L230.486,93.635c-6.996-6.825-18.248-6.694-25.083,0.29L91.629,210.164
			c-3.321,3.393-5.119,7.876-5.064,12.623c0.055,4.746,1.957,9.187,5.355,12.501l154.899,151.115
			c3.444,3.361,7.921,5.035,12.394,5.035c4.611,0,9.219-1.779,12.689-5.324l113.773-116.24c3.321-3.392,5.119-7.875,5.065-12.622
			C390.685,252.506,388.784,248.065,385.385,244.75z M374.812,259.242l-113.773,116.24c-0.982,1.004-2.599,1.023-3.606,0.042
			L102.535,224.408c-0.659-0.642-0.765-1.401-0.77-1.796c-0.004-0.396,0.084-1.157,0.728-1.815l113.773-116.239
			c0.982-1.004,2.6-1.024,3.605-0.043L374.77,255.63c0.659,0.643,0.765,1.402,0.77,1.797
			C375.544,257.823,375.456,258.584,374.812,259.242z"/>
	</g>
</g>
<g>
</g>
<g>
</g>
<g>
</g>
<g>
</g>
<g>
</g>
<g>
</g>
<g>
</g>
<g>
</g>
<g>
</g>
<g>
</g>
<g>
</g>
<g>
</g>
<g>
</g>
<g>
</g>
<g>
</g>
</svg>
