<?xml version="1.0" encoding="iso-8859-1"?>
<!-- Generator: Adobe Illustrator 19.0.0, SVG Export Plug-In . SVG Version: 6.00 Build 0)  -->
<svg version="1.1" id="Capa_1" xmlns="http://www.w3.org/2000/svg" xmlns:xlink="http://www.w3.org/1999/xlink" x="0px" y="0px"
	 viewBox="0 0 512 512" style="enable-background:new 0 0 512 512;" xml:space="preserve">
<g>
	<g>
		<path d="M442.746,307.855c-4.027,0-7.291,3.264-7.291,7.291v138.112c0,0.476-0.387,0.863-0.863,0.863H77.408
			c-0.476,0-0.863-0.387-0.863-0.863V315.146c0-4.027-3.264-7.291-7.291-7.291c-4.027,0-7.291,3.264-7.291,7.291v138.112
			c0,8.517,6.928,15.445,15.445,15.445h357.184c8.517,0,15.445-6.928,15.445-15.445V315.146
			C450.037,311.119,446.773,307.855,442.746,307.855z"/>
	</g>
</g>
<g>
	<g>
		<path d="M469.317,37.609h-14.615V26.856C454.702,12.047,442.655,0,427.847,0c-14.808,0-26.855,12.047-26.855,26.856v10.753
			h-32.214V26.856C368.779,12.047,356.731,0,341.923,0c-14.808,0-26.855,12.047-26.855,26.856v10.753h-32.214V26.856
			C282.855,12.047,270.808,0,256,0c-14.808,0-26.855,12.047-26.855,26.856v10.753h-32.214V26.856
			C196.931,12.047,184.884,0,170.076,0c-14.808,0-26.855,12.047-26.855,26.856v10.753h-32.214V26.856
			C111.008,12.047,98.961,0,84.153,0S57.298,12.047,57.298,26.856v10.753H42.683c-13.166,0-23.878,10.712-23.878,23.879v426.634
			c0,13.166,10.712,23.878,23.878,23.878h426.634c13.166,0,23.878-10.711,23.878-23.878V61.488
			C493.195,48.321,482.484,37.609,469.317,37.609z M415.574,26.856c0-6.768,5.506-12.274,12.273-12.274
			c6.768,0,12.274,5.506,12.274,12.274v36.089c0,6.768-5.506,12.273-12.274,12.273c-6.767,0-12.273-5.505-12.273-12.273V26.856z
			 M329.65,26.856c0-6.768,5.506-12.274,12.273-12.274c6.767,0,12.273,5.506,12.273,12.274v36.089
			c0,6.768-5.506,12.273-12.273,12.273c-6.767,0-12.273-5.505-12.273-12.273V26.856z M243.727,26.856
			c0-6.768,5.506-12.274,12.273-12.274c6.767,0,12.273,5.506,12.273,12.274v36.089c0,6.768-5.506,12.273-12.273,12.273
			c-6.767,0-12.273-5.505-12.273-12.273V26.856z M157.803,26.856c0-6.768,5.506-12.274,12.273-12.274
			c6.767,0,12.273,5.506,12.273,12.274v36.089c0,6.768-5.506,12.273-12.273,12.273c-6.767,0-12.273-5.505-12.273-12.273V26.856z
			 M71.879,26.856c0-6.768,5.506-12.274,12.274-12.274c6.767,0,12.273,5.506,12.273,12.274v36.089
			c0,6.768-5.506,12.273-12.273,12.273c-6.768,0-12.274-5.505-12.274-12.273V26.856z M33.386,61.488c0-5.126,4.17-9.297,9.296-9.297
			h14.615v10.754c0,14.808,12.047,26.855,26.855,26.855c14.808,0,26.855-12.047,26.855-26.855V52.191h32.214v10.754
			c0,14.808,12.047,26.855,26.855,26.855s26.855-12.047,26.855-26.855V52.191h32.214v10.754c0,14.808,12.047,26.855,26.855,26.855
			s26.855-12.047,26.855-26.855V52.191h32.214v10.754c0,14.808,12.047,26.855,26.855,26.855c14.808,0,26.855-12.047,26.855-26.855
			V52.191h32.214v10.754c0,14.808,12.047,26.855,26.855,26.855c14.808,0,26.855-12.047,26.855-26.855V52.191h14.615
			c5.126,0,9.296,4.17,9.296,9.297v62.093H33.386V61.488z M478.615,488.122L478.615,488.122c-0.001,5.125-4.171,9.296-9.297,9.296
			H42.683c-5.126,0-9.296-4.17-9.296-9.296v-349.96h28.577v143.06c0,4.027,3.264,7.291,7.291,7.291s7.291-3.264,7.291-7.291v-143.06
			h358.91v143.033c0,4.027,3.264,7.291,7.291,7.291s7.291-3.264,7.291-7.291V138.162h28.577V488.122z"/>
	</g>
</g>
<g>
	<g>
		<path d="M387.116,291.677c-0.01-0.444-0.029-0.887-0.043-1.33c-0.019-0.558-0.038-1.116-0.064-1.674
			c-0.028-0.601-0.062-1.2-0.098-1.799c-0.021-0.354-0.043-0.707-0.067-1.061c-0.051-0.745-0.107-1.488-0.17-2.23
			c-0.011-0.126-0.022-0.252-0.034-0.377c-1.251-14.249-4.788-27.85-10.246-40.436c-0.08-0.186-0.163-0.372-0.244-0.558
			c-0.27-0.616-0.541-1.231-0.821-1.841c-0.326-0.717-0.661-1.429-1.001-2.14c-0.049-0.103-0.097-0.208-0.146-0.311
			c-4.541-9.453-10.219-18.382-16.957-26.551c-0.218-0.265-0.453-0.51-0.701-0.738c-14.09-16.806-32.304-30.04-53.074-38.128
			c-0.123-0.055-0.239-0.122-0.366-0.17c-8.772-3.375-17.821-5.771-27.058-7.188c-0.072-0.011-0.145-0.021-0.217-0.032
			c-0.962-0.146-1.927-0.281-2.893-0.406c-0.173-0.022-0.347-0.044-0.521-0.066c-0.866-0.108-1.733-0.207-2.601-0.298
			c-0.248-0.026-0.495-0.052-0.744-0.077c-0.799-0.079-1.6-0.149-2.401-0.214c-0.3-0.024-0.599-0.05-0.899-0.072
			c-0.762-0.056-1.526-0.103-2.29-0.146c-0.326-0.018-0.651-0.04-0.978-0.056c-0.775-0.038-1.551-0.065-2.328-0.089
			c-0.308-0.01-0.614-0.024-0.922-0.031c-1.075-0.026-2.152-0.041-3.231-0.041c-1.079,0-2.155,0.015-3.231,0.041
			c-0.308,0.007-0.614,0.022-0.922,0.031c-0.777,0.024-1.553,0.051-2.328,0.089c-0.327,0.016-0.652,0.037-0.978,0.056
			c-0.764,0.043-1.528,0.09-2.29,0.146c-0.3,0.022-0.599,0.048-0.899,0.072c-0.801,0.064-1.602,0.135-2.401,0.214
			c-0.248,0.025-0.496,0.05-0.744,0.077c-0.869,0.091-1.736,0.19-2.601,0.298c-0.174,0.022-0.347,0.043-0.521,0.066
			c-0.966,0.125-1.931,0.26-2.893,0.406c-0.072,0.011-0.145,0.021-0.217,0.032c-9.237,1.417-18.286,3.813-27.058,7.188
			c-0.127,0.049-0.243,0.115-0.366,0.17c-20.77,8.088-38.985,21.323-53.075,38.13c-0.248,0.227-0.482,0.472-0.7,0.736
			c-6.738,8.169-12.416,17.098-16.957,26.551c-0.05,0.103-0.097,0.207-0.146,0.311c-0.339,0.711-0.674,1.423-1.001,2.14
			c-0.279,0.611-0.551,1.226-0.821,1.841c-0.081,0.186-0.164,0.371-0.244,0.558c-5.457,12.586-8.995,26.187-10.246,40.436
			c-0.011,0.126-0.023,0.251-0.034,0.377c-0.063,0.742-0.12,1.485-0.17,2.23c-0.024,0.353-0.046,0.707-0.067,1.061
			c-0.036,0.599-0.07,1.198-0.098,1.799c-0.026,0.557-0.045,1.115-0.064,1.674c-0.015,0.443-0.033,0.886-0.043,1.33
			c-0.025,1.031-0.039,2.064-0.039,3.097c0,0.41,0.007,0.819,0.013,1.228l0.006,0.487c0,0.004,0.001,0.008,0.001,0.013
			c0.324,24.916,7.627,48.176,20.046,67.914c0.123,0.254,0.253,0.506,0.407,0.748c17.142,26.902,43.376,46.618,73.87,55.518
			c0.079,0.023,0.16,0.031,0.24,0.052c11.613,3.377,23.882,5.194,36.57,5.194c12.687,0,24.956-1.817,36.568-5.194
			c0.08-0.021,0.162-0.029,0.242-0.052c30.494-8.9,56.727-28.618,73.87-55.518c0.154-0.242,0.284-0.494,0.407-0.748
			c12.418-19.737,19.722-42.998,20.046-67.914c0-0.004,0.001-0.008,0.001-0.013l0.008-0.487c0.007-0.409,0.013-0.818,0.013-1.228
			C387.155,293.741,387.14,292.708,387.116,291.677z M354.466,232.441c2.406,3.787,4.603,7.72,6.568,11.785
			c5.608,11.67,9.265,24.241,10.764,37.162l-25.896-19.123L354.466,232.441z M343.491,217.828l-11.872,41.344l-25.551,9.953
			l-42.778-29.72v-25.563l38.074-26.451C317.616,194.281,331.988,204.763,343.491,217.828z M296.066,279.93l-15.223,44.798h-49.686
			l-15.223-44.798L256,252.095L296.066,279.93z M229.532,181.233c0.112-0.026,0.223-0.052,0.335-0.078
			c0.843-0.194,1.69-0.379,2.54-0.554c0.144-0.03,0.289-0.057,0.433-0.087c2.506-0.507,5.042-0.93,7.603-1.273
			c0.28-0.037,0.558-0.08,0.838-0.115c0.609-0.077,1.222-0.143,1.834-0.21c0.491-0.054,0.982-0.109,1.474-0.156
			c0.544-0.053,1.091-0.1,1.637-0.146c0.582-0.048,1.164-0.092,1.747-0.132c0.486-0.033,0.973-0.066,1.461-0.093
			c0.696-0.038,1.393-0.068,2.091-0.094c0.39-0.015,0.78-0.034,1.171-0.045c1.1-0.031,2.201-0.05,3.304-0.05
			c1.103,0,2.205,0.019,3.304,0.05c0.391,0.011,0.781,0.03,1.171,0.045c0.698,0.026,1.395,0.056,2.091,0.094
			c0.488,0.027,0.974,0.06,1.461,0.093c0.583,0.04,1.165,0.084,1.747,0.132c0.547,0.046,1.093,0.093,1.637,0.146
			c0.492,0.048,0.983,0.102,1.474,0.156c0.612,0.068,1.225,0.133,1.834,0.21c0.28,0.035,0.559,0.078,0.838,0.115
			c2.561,0.343,5.097,0.766,7.603,1.273c0.144,0.029,0.289,0.057,0.433,0.087c0.85,0.175,1.697,0.36,2.54,0.554
			c0.112,0.026,0.223,0.052,0.335,0.078c0.545,0.127,1.087,0.264,1.629,0.399L256,201.151l-28.097-19.52
			C228.445,181.497,228.987,181.36,229.532,181.233z M210.635,187.39l38.074,26.452v25.563l-42.736,29.69l-25.608-9.976
			l-11.856-41.292C180.012,204.763,194.384,194.281,210.635,187.39z M150.966,244.226c1.964-4.065,4.162-7.998,6.568-11.785
			l8.564,29.825l-25.896,19.123C141.701,268.467,145.358,255.896,150.966,244.226z M155.676,354.072
			c-9.48-15.978-15.253-34.4-16.126-54.076l36.462-26.924l25.578,9.964l16.139,47.494l-17.662,24.825L155.676,354.072z
			 M166.149,368.964l32.506,0.939l10.781,31.729C192.557,394.247,177.746,382.983,166.149,368.964z M285.112,407.666
			c-9.308,2.402-19.064,3.68-29.112,3.68c-10.048,0-19.803-1.278-29.111-3.68l-14.915-43.894l17.404-24.464h53.236l17.41,24.471
			L285.112,407.666z M302.563,401.631l10.781-31.729l32.506-0.939C334.254,382.983,319.444,394.247,302.563,401.631z
			 M356.325,354.073l-44.398,1.283l-17.657-24.818l16.124-47.448l25.637-9.987l36.42,26.894
			C371.578,319.673,365.805,338.095,356.325,354.073z"/>
	</g>
</g>
<g>
</g>
<g>
</g>
<g>
</g>
<g>
</g>
<g>
</g>
<g>
</g>
<g>
</g>
<g>
</g>
<g>
</g>
<g>
</g>
<g>
</g>
<g>
</g>
<g>
</g>
<g>
</g>
<g>
</g>
</svg>
