<?xml version="1.0" encoding="iso-8859-1"?>
<!-- Generator: Adobe Illustrator 19.0.0, SVG Export Plug-In . SVG Version: 6.00 Build 0)  -->
<svg version="1.1" id="Capa_1" xmlns="http://www.w3.org/2000/svg" xmlns:xlink="http://www.w3.org/1999/xlink" x="0px" y="0px"
	 viewBox="0 0 512 512" style="enable-background:new 0 0 512 512;" xml:space="preserve">
<g>
	<g>
		<path d="M400.815,313.018c-3.148,0-6.261,0.154-9.335,0.441l-68.827-21.46c-4.318-1.345-8.878-0.749-12.626,1.347l-4.729-1.336
			c-0.185-0.052-0.37-0.097-0.557-0.134c-6.016-1.209-11.494-9.263-11.494-16.897v-22.73c3.81-2.539,7.519-5.358,11.12-8.458
			c17.429-15.006,28.379-36.695,30.679-60.342c12.75-0.442,22.987-10.952,22.987-23.807v-18.134c0-7.286-3.29-14.023-8.818-18.493
			V95.991c0-4.119-3.339-7.458-7.458-7.458c-4.119,0-7.458,3.339-7.458,7.458v24.22c-3.701,0.645-8.294,1.891-12.798,4.307V79.041
			c0-16.353-13.304-29.658-29.658-29.658h-20.172c-1.748,0-3.486,0.152-5.194,0.45c-5.124,0.893-9.981,3.093-14.04,6.411
			l-1.981,1.619c-3.157,2.582-7.04,4.149-11.085,4.5c-0.578,0.05-1.159,0.076-1.742,0.076s-1.164-0.025-1.742-0.076
			c-0.635-0.055-1.264-0.147-1.889-0.261c-3.355-0.614-6.535-2.063-9.198-4.241l-1.141-0.933l-0.837-0.684
			c-1.66-1.357-3.455-2.525-5.346-3.495c-0.035-0.018-0.07-0.038-0.105-0.056c-0.059-0.03-0.119-0.056-0.178-0.086
			c-4.2-2.101-8.865-3.224-13.604-3.224h-0.001h-20.171h-0.001c-12.264,0-22.814,7.484-27.323,18.125
			c-0.188,0.443-0.365,0.892-0.532,1.346c-0.333,0.908-0.623,1.837-0.867,2.784c-0.611,2.367-0.935,4.848-0.935,7.403v45.476
			c-4.505-2.416-9.098-3.663-12.799-4.309V57.683c0-23.582,19.185-42.767,42.767-42.767h107.803
			c23.582,0,42.767,19.185,42.767,42.767v3.506c0,4.119,3.339,7.458,7.458,7.458s7.458-3.339,7.458-7.458v-3.506
			C349.214,25.876,323.336,0,291.531,0H183.727c-31.806,0-57.683,25.876-57.683,57.683v65.33c-5.528,4.47-8.818,11.207-8.818,18.493
			v18.134c0,12.856,10.236,23.366,22.986,23.807c2.3,23.647,13.251,45.336,30.679,60.342c3.601,3.101,7.31,5.919,11.121,8.459v22.73
			c0,7.634-5.479,15.688-11.494,16.897c-0.187,0.038-0.373,0.083-0.557,0.134l-4.73,1.336c-3.748-2.096-8.308-2.692-12.626-1.346
			l-69.348,21.622c-19.246,5.679-36.147,16.873-48.877,32.375c-12.669,15.426-20.358,34.064-22.237,53.897
			c-0.388,4.1,2.621,7.739,6.722,8.128c0.239,0.022,0.476,0.034,0.712,0.034c3.802,0,7.05-2.894,7.416-6.755
			c3.289-34.722,27.05-63.528,60.535-73.387c0.038-0.011,0.076-0.023,0.114-0.034l69.405-21.64c0.486-0.151,1.023,0.032,1.247,0.429
			c10.399,18.487,40.989,37.202,79.337,37.202c38.348,0,68.939-18.715,79.338-37.202c0.222-0.396,0.757-0.581,1.248-0.428
			l45.185,14.089c-36.37,14.816-62.076,50.551-62.076,92.181c0,27.269,11.031,52.008,28.861,69.998H290.11v-35.302
			c0-22.913-12.506-35.532-35.214-35.532c-22.607,0-35.057,12.619-35.057,35.532v35.302h-17.177v-65.245
			c0-3.597-3.486-5.747-6.856-5.747c-2.281,0-3.633,1.161-4.88,2.413l-14.511,17.194c-1.531,1.243-3.15,3.949-3.15,6.262
			c0,3.606,2.649,6.539,5.906,6.539c1.432,0,2.917-0.759,4.076-2.082l0.041-0.048l4.078-6.062v46.777H88.712v-69.69
			c0-4.119-3.338-7.458-7.458-7.458c-4.119,0-7.458,3.339-7.458,7.458v36.105H26.609v-13.44c0-4.119-3.338-7.458-7.458-7.458
			s-7.458,3.339-7.458,7.458v36.208c0,14.189,11.544,25.733,25.733,25.733h311.591C364.115,506.666,381.854,512,400.815,512
			c54.86,0,99.491-44.632,99.491-99.491S455.674,313.018,400.815,313.018z M180.622,232.486
			c-16.002-13.779-25.453-34.424-25.93-56.642c-0.086-4.055-3.4-7.297-7.456-7.297h-6.189c-4.911,0-8.907-3.995-8.907-8.907v-18.134
			c0-2.753,1.261-5.3,3.377-6.972c1.906,0.161,5.027,0.603,8.252,1.806c0.005,0.002,0.01,0.004,0.015,0.006
			c0.696,0.26,1.397,0.557,2.091,0.893c0.035,0.017,0.071,0.034,0.107,0.052c0.666,0.327,1.325,0.692,1.968,1.098
			c0.06,0.038,0.119,0.076,0.179,0.114c0.619,0.4,1.221,0.841,1.799,1.324c0.071,0.06,0.142,0.12,0.213,0.181
			c0.277,0.239,0.549,0.485,0.813,0.745c0.006,0.006,0.012,0.011,0.017,0.016c2.984,2.952,7.418,3.816,11.295,2.197
			c3.891-1.623,6.405-5.395,6.405-9.608V79.041c0-8.129,6.614-14.742,14.743-14.742h20.171c1.146,0,2.281,0.142,3.389,0.392
			c2.333,0.526,4.537,1.575,6.406,3.103l1.978,1.616c6.266,5.123,14.174,7.944,22.268,7.944c1.012,0,2.021-0.044,3.024-0.131
			c1.423-0.124,2.832-0.338,4.224-0.632c0.14-0.029,0.279-0.059,0.418-0.09c4.833-1.082,9.417-3.173,13.409-6.157
			c0.404-0.302,0.803-0.614,1.195-0.934l1.978-1.617c2.756-2.253,6.234-3.494,9.794-3.494h20.172
			c8.129,0,14.743,6.613,14.743,14.742v54.316c0,4.213,2.514,7.985,6.405,9.608c0.011,0.005,0.023,0.008,0.034,0.012
			c0.278,0.115,0.559,0.214,0.842,0.303c0.097,0.031,0.194,0.057,0.292,0.085c0.21,0.06,0.421,0.113,0.633,0.159
			c0.098,0.021,0.196,0.044,0.294,0.063c0.294,0.055,0.588,0.102,0.883,0.131c0.039,0.004,0.077,0.004,0.116,0.007
			c0.265,0.024,0.53,0.036,0.795,0.039c0.04,0,0.08,0.006,0.12,0.006c0.062,0,0.123-0.008,0.185-0.009
			c0.209-0.004,0.417-0.014,0.625-0.03c0.098-0.008,0.196-0.014,0.294-0.024c0.292-0.031,0.582-0.071,0.87-0.127
			c0.034-0.007,0.067-0.016,0.1-0.023c0.26-0.053,0.517-0.117,0.772-0.191c0.095-0.027,0.188-0.058,0.282-0.088
			c0.202-0.064,0.402-0.134,0.599-0.211c0.09-0.035,0.181-0.068,0.27-0.106c0.273-0.114,0.542-0.237,0.805-0.375
			c0.02-0.011,0.04-0.023,0.06-0.034c0.248-0.132,0.489-0.277,0.727-0.43c0.081-0.052,0.16-0.108,0.24-0.162
			c0.182-0.124,0.36-0.255,0.535-0.392c0.076-0.059,0.151-0.117,0.226-0.178c0.238-0.197,0.471-0.402,0.693-0.622
			c0.269-0.266,0.548-0.517,0.831-0.762c0.071-0.061,0.142-0.122,0.214-0.182c0.276-0.23,0.555-0.454,0.841-0.664
			c0.01-0.007,0.02-0.016,0.03-0.023c0.293-0.215,0.592-0.416,0.893-0.612c0.084-0.055,0.169-0.109,0.255-0.162
			c0.272-0.171,0.547-0.336,0.825-0.492c0.045-0.025,0.09-0.052,0.135-0.077c0.289-0.16,0.58-0.31,0.872-0.455
			c0.104-0.052,0.209-0.102,0.314-0.152c0.25-0.119,0.5-0.233,0.75-0.342c0.093-0.04,0.185-0.081,0.278-0.12
			c0.264-0.111,0.527-0.215,0.79-0.316c0.122-0.046,0.244-0.092,0.366-0.136c0.216-0.079,0.431-0.153,0.645-0.225
			c0.144-0.048,0.288-0.096,0.432-0.142c0.225-0.072,0.449-0.14,0.671-0.205c0.131-0.038,0.262-0.075,0.392-0.111
			c0.185-0.051,0.369-0.1,0.551-0.146c0.173-0.044,0.344-0.087,0.514-0.127c0.19-0.045,0.378-0.089,0.564-0.13
			c0.132-0.029,0.263-0.057,0.392-0.083c0.163-0.034,0.323-0.065,0.482-0.095c0.156-0.03,0.31-0.058,0.462-0.085
			c0.183-0.032,0.363-0.063,0.539-0.091c0.109-0.017,0.215-0.034,0.321-0.049c0.165-0.025,0.326-0.048,0.483-0.069
			c0.09-0.012,0.18-0.025,0.267-0.036c0.197-0.025,0.386-0.047,0.569-0.067c0.073-0.008,0.144-0.015,0.215-0.023
			c0.179-0.018,0.354-0.035,0.517-0.049c0.015-0.001,0.031-0.003,0.046-0.004c2.116,1.672,3.377,4.219,3.377,6.972v18.134
			c0,4.911-3.996,8.907-8.907,8.907h-6.19c-4.056,0-7.369,3.242-7.456,7.298c-0.476,22.218-9.927,42.863-25.93,56.642
			c-16.582,14.278-35.76,21.646-57.006,21.902C216.383,254.133,197.204,246.764,180.622,232.486z M237.628,328.953
			c-27.438,0-50.328-11.023-61.533-23.143c12.939-4.169,20.832-18.743,20.832-30.832v-14.479
			c12.636,5.681,26.211,8.644,40.618,8.804c0.028,0,0.055,0,0.084,0c0.028,0,0.055,0,0.084,0
			c14.408-0.161,27.985-3.124,40.621-8.806c0,0-0.001,0.001-0.002,0.001v14.48c0,12.089,7.892,26.663,20.832,30.832
			C287.958,317.93,265.067,328.953,237.628,328.953z M37.427,482.507c-5.965,0-10.818-4.852-10.818-10.817v-7.852h47.187v18.669
			H37.427z M235.136,482.507v-35.302c0-14.268,6.648-21.503,19.76-21.503c13.031,0,19.918,7.435,19.918,21.503v35.302H235.136z
			 M400.815,497.085c-46.635,0-84.576-37.941-84.576-84.576c0-46.635,37.941-84.576,84.576-84.576
			c46.635,0,84.576,37.941,84.576,84.576C485.391,459.144,447.451,497.085,400.815,497.085z"/>
	</g>
</g>
<g>
	<g>
		<path d="M452.456,389.932h-29.065v-29.065c0-5.422-4.412-9.833-9.833-9.833H388.07c-5.421,0-9.833,4.411-9.833,9.833v29.065
			h-29.065c-5.421,0-9.833,4.411-9.833,9.833v25.488c0,5.422,4.412,9.833,9.833,9.833h29.065v29.065
			c0,5.422,4.411,9.833,9.833,9.833h25.488c5.421,0,9.833-4.411,9.833-9.833v-29.065h29.065c5.421,0,9.833-4.411,9.833-9.833
			v-25.488C462.289,394.343,457.878,389.932,452.456,389.932z M447.375,420.171H418.31c-5.421,0-9.833,4.411-9.833,9.833v29.065
			h-15.323v-29.065c0-5.422-4.411-9.833-9.833-9.833h-29.065v-15.323h29.065c5.421,0,9.833-4.411,9.833-9.833V365.95h15.323v29.065
			c0,5.422,4.411,9.833,9.833,9.833h29.065V420.171z"/>
	</g>
</g>
<g>
</g>
<g>
</g>
<g>
</g>
<g>
</g>
<g>
</g>
<g>
</g>
<g>
</g>
<g>
</g>
<g>
</g>
<g>
</g>
<g>
</g>
<g>
</g>
<g>
</g>
<g>
</g>
<g>
</g>
</svg>
