<?xml version="1.0" encoding="iso-8859-1"?>
<!-- Generator: Adobe Illustrator 19.0.0, SVG Export Plug-In . SVG Version: 6.00 Build 0)  -->
<svg version="1.1" id="Capa_1" xmlns="http://www.w3.org/2000/svg" xmlns:xlink="http://www.w3.org/1999/xlink" x="0px" y="0px"
	 viewBox="0 0 512 512" style="enable-background:new 0 0 512 512;" xml:space="preserve">
<g>
	<g>
		<path d="M470.09,390.929c0-4.147-3.36-7.507-7.505-7.507c-4.146,0-7.506,3.36-7.506,7.506c0,36.787-29.897,66.719-66.67,66.78
			l17.117-15.635c3.06-2.796,3.275-7.543,0.48-10.604c-2.797-3.061-7.543-3.275-10.605-0.48l-32.662,29.835
			c-1.685,1.54-2.578,3.763-2.427,6.041c0.151,2.278,1.332,4.363,3.207,5.665l36.332,25.238c1.305,0.907,2.797,1.342,4.275,1.342
			c2.376,0,4.714-1.125,6.172-3.224c2.364-3.404,1.522-8.081-1.883-10.446l-18.371-12.761
			C434.339,471.742,470.09,435.444,470.09,390.929z"/>
	</g>
</g>
<g>
	<g>
		<path d="M313.824,385.927c-9.602-12.837-22.802-22.02-38.175-26.56l-30.335-9.459v-38.671c0-4.145-3.36-7.506-7.506-7.506
			s-7.506,3.36-7.506,7.506v33.99l-4.396-1.371c-3.364-1.05-6.903-0.714-9.929,0.719l-2.579-0.728
			c-0.185-0.052-0.372-0.097-0.561-0.135c-3.289-0.661-6.517-5.62-6.517-10.011v-15.183c2.468-1.698,4.883-3.542,7.23-5.562
			c12.484-10.75,20.486-26.112,22.553-42.929c9.412-1.25,16.699-9.33,16.699-19.079v-13.011c0-5.527-2.347-10.658-6.327-14.253
			v-48.006c0-22.842-18.583-41.426-41.426-41.426H123.47c-22.842,0-41.427,18.583-41.427,41.426v48.006
			c-3.98,3.596-6.327,8.726-6.327,14.253v13.011c0,9.75,7.287,17.829,16.7,19.079c2.067,16.818,10.069,32.181,22.553,42.93
			c2.347,2.021,4.762,3.864,7.23,5.562v15.183c0,4.391-3.228,9.35-6.518,10.011c-0.188,0.038-0.375,0.083-0.56,0.135l-2.579,0.728
			c-3.024-1.432-6.563-1.768-9.929-0.719l-49.742,15.51C37.5,363.907,24.3,373.09,14.697,385.928C5.082,398.782,0,414.06,0,430.112
			v44.729c0,11.368,9.249,20.618,20.618,20.618h287.285c11.369,0,20.618-9.249,20.618-20.618v-44.729
			C328.521,414.06,323.439,398.781,313.824,385.927z M97.055,175.678h0.001c0-14.565,11.85-26.414,26.415-26.414h81.579
			c14.565,0,26.414,11.849,26.414,26.414v45.041c-1.843,0.34-3.889,0.856-5.981,1.592c-0.128,0.045-0.255,0.092-0.383,0.138
			c-0.258,0.094-0.514,0.177-0.772,0.278v-31.724c0-11.755-9.563-21.318-21.318-21.318h-10.551c-5.024,0-9.933,1.751-13.827,4.933
			l-2,1.635c-1.487,1.171-7.999,2.799-12.372,2.799c-4.372,0-10.884-1.629-12.368-2.796l-2.005-1.64
			c-3.892-3.18-8.801-4.931-13.825-4.931h-10.551c-11.755,0-21.318,9.563-21.318,21.318v31.724c-0.18-0.071-0.358-0.127-0.538-0.194
			c-0.258-0.096-0.516-0.189-0.773-0.278c-0.429-0.149-0.853-0.287-1.277-0.417c-0.131-0.04-0.262-0.08-0.393-0.118
			c-0.52-0.153-1.03-0.293-1.535-0.42c-0.022-0.005-0.043-0.011-0.065-0.016c-0.88-0.22-1.742-0.414-2.557-0.564V175.678z
			 M106.909,262.528c-0.087-4.082-3.422-7.345-7.504-7.345h-4.441c-2.336,0-4.236-1.9-4.236-4.236v-13.011
			c0-1.174,0.457-2.116,1.069-2.8c0.089,0.009,0.173,0.015,0.265,0.025c0.071,0.007,0.147,0.018,0.219,0.026
			c0.359,0.041,0.736,0.091,1.128,0.151c0.176,0.027,0.354,0.055,0.535,0.086c0.184,0.031,0.369,0.063,0.558,0.099
			c0.346,0.066,0.698,0.14,1.055,0.222c0.137,0.032,0.276,0.068,0.414,0.102c0.313,0.078,0.627,0.162,0.942,0.254
			c0.108,0.031,0.216,0.06,0.324,0.093c0.408,0.125,0.815,0.264,1.218,0.415c0.098,0.037,0.196,0.076,0.293,0.115
			c0.383,0.15,0.761,0.311,1.131,0.487c0.043,0.02,0.087,0.038,0.129,0.059c0.401,0.195,0.787,0.411,1.163,0.639
			c0.083,0.05,0.164,0.102,0.246,0.155c0.376,0.241,0.742,0.494,1.08,0.772c0.02,0.016,0.041,0.029,0.061,0.046
			c1.868,1.515,4.121,2.298,6.408,2.298c1.48,0,2.974-0.327,4.384-0.993c3.611-1.705,5.854-5.245,5.854-9.239v-39.946
			c0-3.478,2.829-6.307,6.307-6.307h10.551c1.572,0,3.108,0.548,4.324,1.542l2.004,1.639c6.178,5.05,18.159,6.186,21.87,6.186
			s15.693-1.137,21.871-6.187l2.002-1.637c1.218-0.995,2.754-1.543,4.326-1.543h10.551c3.477,0,6.307,2.829,6.307,6.307v39.946
			c0,3.994,2.243,7.534,5.853,9.239c3.32,1.568,7.093,1.235,10.08-0.799c0.257-0.162,0.509-0.336,0.75-0.533
			c0.008-0.006,0.016-0.011,0.024-0.017c0.006-0.005,0.014-0.01,0.02-0.015c0.326-0.267,0.677-0.51,1.038-0.742
			c0.098-0.063,0.196-0.126,0.297-0.186c0.357-0.216,0.724-0.421,1.104-0.607c0.097-0.047,0.198-0.089,0.296-0.134
			c0.296-0.138,0.597-0.267,0.902-0.389c0.158-0.063,0.315-0.126,0.474-0.184c0.351-0.129,0.704-0.25,1.058-0.36
			c0.208-0.064,0.415-0.121,0.622-0.179c0.185-0.052,0.369-0.102,0.553-0.149c0.799-0.204,1.583-0.366,2.324-0.489
			c0.099-0.017,0.197-0.032,0.295-0.048c0.454-0.071,0.889-0.129,1.298-0.175c0.055-0.006,0.113-0.014,0.167-0.02
			c0.087-0.009,0.166-0.016,0.251-0.024c0.612,0.684,1.069,1.626,1.069,2.801v13.011c0,2.336-1.9,4.236-4.235,4.236h-4.441
			c-4.082,0-7.417,3.263-7.504,7.345c-0.329,15.33-6.837,29.565-17.856,39.053c-2.785,2.398-5.678,4.509-8.668,6.343
			c-0.057,0.033-0.118,0.057-0.175,0.091c-5.764,3.508-11.906,5.97-18.358,7.374c-0.156,0.034-0.313,0.067-0.47,0.1
			c-0.539,0.113-1.079,0.22-1.622,0.318c-0.239,0.043-0.479,0.079-0.719,0.119c-0.744,0.125-1.492,0.235-2.244,0.332
			c-0.466,0.06-0.932,0.12-1.402,0.169c-0.329,0.035-0.659,0.063-0.989,0.093c-0.525,0.047-1.052,0.088-1.581,0.121
			c-0.275,0.018-0.55,0.036-0.827,0.05c-0.81,0.041-1.622,0.072-2.441,0.082c-0.818-0.01-1.631-0.041-2.441-0.082
			c-0.276-0.014-0.551-0.033-0.827-0.05c-0.529-0.033-1.056-0.075-1.581-0.121c-0.33-0.03-0.661-0.058-0.989-0.093
			c-0.469-0.049-0.935-0.109-1.402-0.169c-0.752-0.097-1.5-0.207-2.244-0.332c-0.239-0.04-0.48-0.076-0.719-0.119
			c-0.543-0.098-1.083-0.205-1.622-0.318c-0.157-0.033-0.314-0.066-0.47-0.1c-6.452-1.404-12.594-3.866-18.358-7.374
			c-0.057-0.035-0.118-0.058-0.175-0.091c-2.99-1.834-5.883-3.945-8.668-6.343C113.746,292.094,107.238,277.859,106.909,262.528z
			 M204.593,356.537c-0.005,0.004-0.01,0.009-0.015,0.013c-0.466,0.413-0.959,0.821-1.466,1.225
			c-0.116,0.093-0.233,0.186-0.352,0.278c-0.512,0.4-1.039,0.797-1.588,1.188c-0.058,0.041-0.119,0.081-0.177,0.122
			c-0.512,0.36-1.042,0.714-1.584,1.063c-0.128,0.082-0.254,0.165-0.384,0.247c-0.588,0.371-1.191,0.737-1.812,1.094
			c-0.116,0.067-0.235,0.131-0.352,0.198c-0.562,0.318-1.138,0.631-1.725,0.936c-0.119,0.062-0.236,0.125-0.356,0.187
			c-0.661,0.338-1.338,0.666-2.028,0.987c-0.153,0.071-0.309,0.141-0.464,0.211c-0.653,0.297-1.316,0.586-1.994,0.866
			c-0.074,0.031-0.146,0.063-0.22,0.093c-0.73,0.298-1.478,0.583-2.235,0.86c-0.178,0.065-0.356,0.129-0.535,0.193
			c-0.767,0.273-1.544,0.539-2.336,0.788c-0.053,0.017-0.107,0.032-0.159,0.048c-0.753,0.235-1.519,0.456-2.292,0.668
			c-0.186,0.051-0.372,0.102-0.559,0.152c-0.81,0.215-1.628,0.418-2.458,0.606c-0.138,0.031-0.278,0.059-0.416,0.089
			c-0.749,0.165-1.505,0.317-2.269,0.459c-0.171,0.032-0.341,0.065-0.512,0.096c-0.852,0.151-1.712,0.287-2.581,0.407
			c-0.185,0.026-0.371,0.048-0.557,0.073c-0.799,0.104-1.605,0.197-2.417,0.274c-0.121,0.012-0.242,0.026-0.363,0.037
			c-0.893,0.08-1.795,0.14-2.701,0.185c-0.21,0.01-0.42,0.019-0.63,0.028c-0.927,0.038-1.858,0.064-2.797,0.064
			c-0.939,0-1.87-0.026-2.797-0.064c-0.21-0.009-0.42-0.017-0.63-0.028c-0.906-0.046-1.808-0.105-2.701-0.185
			c-0.123-0.011-0.244-0.026-0.367-0.037c-0.811-0.077-1.616-0.169-2.415-0.274c-0.184-0.024-0.37-0.047-0.553-0.072
			c-0.87-0.121-1.732-0.257-2.585-0.408c-0.17-0.03-0.337-0.063-0.506-0.095c-0.767-0.142-1.528-0.295-2.28-0.461
			c-0.134-0.03-0.271-0.057-0.404-0.087c-0.833-0.188-1.655-0.393-2.468-0.608c-0.183-0.048-0.364-0.099-0.546-0.149
			c-0.781-0.214-1.555-0.437-2.316-0.675c-0.046-0.014-0.092-0.027-0.138-0.041c-0.797-0.251-1.579-0.518-2.351-0.794
			c-0.172-0.061-0.343-0.123-0.514-0.185c-0.763-0.279-1.517-0.566-2.253-0.867c-0.062-0.025-0.122-0.052-0.184-0.078
			c-0.693-0.286-1.372-0.582-2.039-0.886c-0.145-0.066-0.291-0.131-0.434-0.198c-0.698-0.324-1.384-0.657-2.052-0.999
			c-0.107-0.055-0.211-0.111-0.317-0.166c-0.608-0.316-1.202-0.639-1.783-0.968c-0.101-0.058-0.205-0.114-0.306-0.172
			c-0.633-0.364-1.247-0.736-1.846-1.114c-0.114-0.072-0.226-0.145-0.338-0.218c-0.567-0.365-1.12-0.734-1.654-1.11
			c-0.04-0.028-0.082-0.055-0.121-0.084c-0.562-0.399-1.101-0.805-1.624-1.214c-0.103-0.081-0.204-0.161-0.306-0.242
			c-0.519-0.415-1.024-0.833-1.502-1.256c-0.001-0.001-0.001-0.001-0.002-0.002c8.325-4.402,13.283-14.397,13.283-22.835v-7.136
			c7.371,2.924,15.157,4.633,23.322,5.092c0.045,0.003,0.089,0.008,0.134,0.01c1.162,0.063,2.332,0.103,3.509,0.117
			c0.028,0,0.056,0,0.084,0c0.028,0,0.056,0,0.084,0c1.177-0.013,2.347-0.053,3.509-0.117c0.045-0.002,0.089-0.007,0.134-0.01
			c8.165-0.459,15.951-2.169,23.322-5.092v7.136C191.31,342.141,196.269,352.135,204.593,356.537z M313.51,474.841L313.51,474.841
			c0,3.091-2.516,5.606-5.607,5.606h-26.204V432.6c0-4.145-3.36-7.506-7.506-7.506c-4.146,0-7.506,3.36-7.506,7.506v47.847H61.834
			V432.6c0-4.145-3.36-7.506-7.506-7.506s-7.506,3.36-7.506,7.506v47.847H20.618c-3.091,0-5.607-2.515-5.607-5.606v-44.729
			c0-25.877,17.336-49.054,42.16-56.362c0.038-0.011,0.076-0.023,0.114-0.035l48.768-15.206c0.081,0.133,0.172,0.264,0.256,0.397
			c0.19,0.304,0.384,0.605,0.583,0.904c0.077,0.115,0.156,0.228,0.235,0.342c4.779,6.987,12.09,12.561,20.487,16.666
			c0.027,0.013,0.055,0.026,0.082,0.04c0.456,0.222,0.912,0.443,1.374,0.657c9.828,4.611,21.401,7.444,33.134,7.742
			c0.69,0.019,1.376,0.029,2.056,0.029s1.366-0.01,2.056-0.029c11.729-0.298,23.298-3.129,33.124-7.737
			c0.482-0.223,0.959-0.454,1.435-0.686c0.006-0.003,0.012-0.006,0.018-0.009c8.412-4.11,15.736-9.693,20.516-16.695
			c0.07-0.102,0.141-0.203,0.21-0.305c0.206-0.308,0.406-0.619,0.602-0.933c0.081-0.128,0.168-0.254,0.247-0.382l7.834,2.443v5.639
			h15.011v-0.958l25.923,8.083c0.038,0.012,0.076,0.023,0.114,0.035c24.823,7.308,42.16,30.485,42.16,56.362V474.841z"/>
	</g>
</g>
<g>
	<g>
		<path d="M497.303,264.566c-9.603-12.837-22.803-22.021-38.177-26.561l-49.741-15.509c-3.363-1.048-6.902-0.713-9.928,0.72
			l-2.582-0.729c-0.185-0.052-0.371-0.097-0.559-0.135c-3.29-0.661-6.518-5.62-6.518-10.011v-15.182
			c2.468-1.698,4.883-3.542,7.23-5.563c12.484-10.749,20.486-26.112,22.553-42.93c9.413-1.25,16.7-9.33,16.7-19.079v-13.011
			c0-5.526-2.347-10.657-6.327-14.253V65.731c0-29.137-23.704-52.841-52.842-52.841h-58.749c-29.136,0-52.841,23.704-52.841,52.841
			v36.59c-3.98,3.596-6.327,8.726-6.327,14.253v13.011c0,9.75,7.286,17.829,16.699,19.079c2.068,16.819,10.07,32.181,22.553,42.93
			c2.347,2.021,4.762,3.864,7.23,5.562v15.183c0,4.391-3.228,9.35-6.517,10.011c-0.189,0.038-0.375,0.083-0.56,0.135l-2.58,0.728
			c-3.025-1.432-6.564-1.768-9.929-0.72l-10.243,3.194c-3.957,1.234-6.165,5.443-4.931,9.4c1.233,3.957,5.442,6.163,9.4,4.931
			l9.212-2.873c0.092,0.151,0.194,0.297,0.289,0.448c0.166,0.265,0.335,0.528,0.508,0.789c0.187,0.282,0.379,0.561,0.574,0.838
			c0.179,0.254,0.361,0.508,0.547,0.758c0.204,0.275,0.413,0.547,0.625,0.818c0.192,0.244,0.385,0.487,0.582,0.728
			c0.221,0.269,0.447,0.534,0.676,0.798c0.203,0.234,0.407,0.467,0.615,0.697c0.237,0.262,0.48,0.521,0.724,0.778
			c0.213,0.224,0.428,0.448,0.646,0.669c0.252,0.254,0.51,0.505,0.769,0.755c0.223,0.215,0.447,0.429,0.676,0.641
			c0.268,0.248,0.541,0.491,0.816,0.734c0.232,0.205,0.464,0.41,0.701,0.611c0.282,0.24,0.568,0.475,0.857,0.709
			c0.241,0.196,0.482,0.393,0.728,0.585c0.296,0.232,0.596,0.46,0.898,0.686c0.248,0.186,0.496,0.373,0.748,0.556
			c0.309,0.225,0.624,0.444,0.939,0.664c0.255,0.178,0.51,0.355,0.769,0.53c0.32,0.215,0.646,0.426,0.971,0.636
			c0.263,0.17,0.525,0.34,0.792,0.506c0.332,0.207,0.669,0.409,1.006,0.611c0.268,0.16,0.535,0.321,0.806,0.478
			c0.344,0.199,0.691,0.392,1.04,0.586c0.274,0.152,0.546,0.305,0.823,0.454c0.353,0.19,0.71,0.374,1.067,0.558
			c0.279,0.144,0.557,0.289,0.838,0.429c0.362,0.18,0.727,0.355,1.093,0.53c0.284,0.136,0.566,0.273,0.852,0.405
			c0.37,0.171,0.744,0.337,1.117,0.502c0.287,0.127,0.573,0.256,0.862,0.381c0.378,0.162,0.758,0.318,1.139,0.474
			c0.29,0.119,0.58,0.241,0.872,0.357c0.383,0.152,0.769,0.298,1.155,0.444c0.295,0.112,0.589,0.226,0.886,0.335
			c0.388,0.142,0.779,0.278,1.169,0.414c0.297,0.104,0.593,0.21,0.892,0.311c0.393,0.132,0.788,0.258,1.183,0.385
			c0.301,0.097,0.6,0.195,0.902,0.289c0.395,0.122,0.791,0.237,1.188,0.353c0.303,0.089,0.606,0.181,0.91,0.267
			c0.399,0.113,0.8,0.218,1.201,0.325c0.302,0.081,0.604,0.164,0.907,0.242c0.403,0.103,0.807,0.199,1.212,0.296
			c0.302,0.073,0.604,0.148,0.906,0.218c0.401,0.092,0.803,0.177,1.205,0.263c0.306,0.066,0.612,0.135,0.919,0.198
			c0.403,0.082,0.805,0.157,1.207,0.233c0.304,0.058,0.607,0.119,0.91,0.173c0.404,0.072,0.807,0.137,1.211,0.203
			c0.302,0.05,0.605,0.103,0.907,0.15c0.4,0.062,0.799,0.115,1.198,0.171c0.303,0.042,0.607,0.089,0.909,0.128
			c0.407,0.053,0.811,0.097,1.216,0.143c0.292,0.034,0.585,0.071,0.877,0.102c0.41,0.043,0.816,0.077,1.224,0.113
			c0.285,0.026,0.572,0.055,0.856,0.078c0.425,0.034,0.845,0.058,1.267,0.085c0.262,0.017,0.527,0.038,0.788,0.052
			c0.478,0.025,0.95,0.041,1.424,0.058c0.203,0.007,0.407,0.019,0.609,0.024c0.673,0.018,1.342,0.028,2.006,0.028
			c0.663,0,1.331-0.009,2.003-0.027c0.225-0.006,0.453-0.019,0.679-0.027c0.451-0.016,0.901-0.031,1.356-0.055
			c0.262-0.014,0.527-0.035,0.79-0.052c0.421-0.027,0.841-0.051,1.266-0.084c0.292-0.023,0.587-0.054,0.881-0.08
			c0.398-0.036,0.796-0.069,1.196-0.111c0.306-0.032,0.614-0.071,0.921-0.107c0.391-0.045,0.78-0.087,1.172-0.138
			c0.313-0.04,0.628-0.088,0.942-0.132c0.388-0.055,0.776-0.106,1.165-0.166c0.319-0.049,0.638-0.106,0.957-0.158
			c0.385-0.064,0.77-0.125,1.156-0.194c0.327-0.059,0.654-0.124,0.981-0.187c0.379-0.072,0.757-0.142,1.136-0.219
			c0.33-0.067,0.66-0.142,0.99-0.213c0.377-0.081,0.754-0.16,1.13-0.247c0.332-0.076,0.664-0.159,0.995-0.239
			c0.373-0.09,0.746-0.178,1.118-0.273c0.335-0.086,0.669-0.178,1.003-0.267c0.369-0.099,0.737-0.195,1.105-0.299
			c0.335-0.094,0.669-0.195,1.003-0.294c0.364-0.107,0.729-0.213,1.092-0.325c0.335-0.104,0.669-0.214,1.003-0.321
			c0.359-0.116,0.719-0.23,1.077-0.35c0.335-0.113,0.667-0.232,1-0.348c0.354-0.124,0.709-0.247,1.061-0.376
			c0.333-0.122,0.663-0.25,0.994-0.376c0.348-0.133,0.697-0.264,1.043-0.401c0.331-0.131,0.658-0.268,0.987-0.403
			c0.342-0.141,0.684-0.28,1.023-0.426c0.328-0.141,0.653-0.287,0.978-0.432c0.334-0.149,0.669-0.296,1-0.449
			c0.323-0.15,0.643-0.304,0.964-0.458c0.328-0.158,0.657-0.314,0.982-0.476c0.317-0.158,0.63-0.321,0.944-0.483
			c0.321-0.166,0.642-0.331,0.96-0.502c0.312-0.168,0.62-0.34,0.928-0.512c0.312-0.174,0.624-0.347,0.932-0.525
			c0.306-0.177,0.608-0.359,0.91-0.54c0.303-0.182,0.606-0.363,0.904-0.549c0.3-0.187,0.595-0.378,0.89-0.569
			c0.291-0.188,0.583-0.377,0.87-0.569c0.293-0.197,0.581-0.398,0.869-0.598c0.282-0.197,0.563-0.393,0.84-0.594
			c0.283-0.205,0.56-0.414,0.837-0.623c0.273-0.205,0.545-0.411,0.812-0.621c0.271-0.213,0.538-0.429,0.804-0.646
			c0.263-0.214,0.525-0.429,0.782-0.648c0.261-0.222,0.517-0.447,0.772-0.673c0.25-0.222,0.5-0.444,0.745-0.67
			c0.25-0.231,0.494-0.465,0.738-0.699c0.24-0.231,0.478-0.463,0.712-0.698c0.237-0.238,0.468-0.48,0.698-0.722
			c0.228-0.24,0.454-0.481,0.675-0.725c0.223-0.246,0.441-0.495,0.657-0.745s0.43-0.501,0.639-0.755
			c0.208-0.252,0.41-0.507,0.611-0.763c0.204-0.26,0.405-0.522,0.601-0.786c0.193-0.26,0.381-0.522,0.566-0.785
			c0.189-0.269,0.376-0.54,0.558-0.813c0.177-0.266,0.35-0.535,0.519-0.805c0.093-0.148,0.194-0.293,0.285-0.442l48.766,15.206
			c0.038,0.012,0.076,0.023,0.114,0.035c24.823,7.308,42.16,30.485,42.16,56.362v44.729c0,3.091-2.515,5.606-5.606,5.606h-26.205
			v-47.847c0-4.145-3.36-7.506-7.506-7.506c-4.146,0-7.506,3.36-7.506,7.506v47.847H318.687c-4.146,0-7.506,3.36-7.506,7.506
			c0,4.145,3.36,7.506,7.506,7.506h172.696c11.368,0,20.617-9.249,20.617-20.618V308.75
			C512,292.698,506.918,277.419,497.303,264.566z M280.534,65.731h0.001c0-20.86,16.97-37.83,37.829-37.83h58.749
			c20.859,0,37.83,16.97,37.83,37.83v33.79c-1.524,0.346-3.178,0.827-4.874,1.495V85.772c0-20.649-16.8-37.449-37.449-37.449
			c-3.293,0-6.202,2.147-7.172,5.293c-0.908,2.943-4.014,10.544-13.225,17.557c-12.207,9.293-30.202,14.076-53.487,14.214
			c-7.35,0.044-13.329,6.055-13.329,13.399v2.23c-1.695-0.668-3.349-1.149-4.873-1.494V65.731z M388.051,235.194
			c-0.462,0.409-0.95,0.813-1.451,1.213c-0.122,0.097-0.244,0.195-0.368,0.292c-0.508,0.397-1.03,0.791-1.575,1.177
			c-0.065,0.046-0.134,0.091-0.2,0.138c-0.504,0.354-1.025,0.702-1.558,1.046c-0.133,0.086-0.264,0.172-0.399,0.257
			c-0.585,0.369-1.184,0.732-1.802,1.088c-0.12,0.069-0.244,0.137-0.366,0.205c-0.556,0.315-1.125,0.623-1.705,0.926
			c-0.124,0.065-0.246,0.131-0.371,0.195c-0.658,0.336-1.332,0.663-2.019,0.983c-0.157,0.073-0.316,0.144-0.474,0.216
			c-0.648,0.294-1.306,0.582-1.977,0.859c-0.079,0.032-0.155,0.067-0.234,0.099c-0.729,0.298-1.474,0.582-2.229,0.858
			c-0.179,0.066-0.359,0.13-0.54,0.195c-0.767,0.273-1.542,0.538-2.333,0.788c-0.053,0.017-0.107,0.032-0.159,0.048
			c-0.753,0.235-1.519,0.456-2.292,0.668c-0.186,0.051-0.371,0.102-0.559,0.152c-0.81,0.215-1.628,0.418-2.458,0.606
			c-0.138,0.031-0.278,0.059-0.416,0.089c-0.749,0.165-1.505,0.317-2.269,0.459c-0.171,0.032-0.341,0.065-0.512,0.096
			c-0.852,0.151-1.712,0.287-2.581,0.407c-0.185,0.026-0.371,0.048-0.557,0.073c-0.799,0.104-1.605,0.197-2.417,0.274
			c-0.121,0.012-0.242,0.026-0.363,0.037c-0.893,0.08-1.795,0.14-2.701,0.185c-0.21,0.01-0.42,0.019-0.63,0.028
			c-0.927,0.038-1.858,0.064-2.797,0.064c-0.939,0-1.87-0.026-2.797-0.064c-0.21-0.009-0.421-0.017-0.63-0.028
			c-0.906-0.046-1.807-0.105-2.699-0.185c-0.124-0.011-0.246-0.026-0.37-0.038c-0.81-0.077-1.614-0.169-2.411-0.273
			c-0.186-0.024-0.372-0.047-0.557-0.073c-0.868-0.121-1.728-0.256-2.579-0.407c-0.174-0.031-0.345-0.065-0.518-0.097
			c-0.759-0.141-1.512-0.292-2.256-0.456c-0.142-0.031-0.287-0.06-0.429-0.092c-0.828-0.187-1.644-0.39-2.451-0.604
			c-0.19-0.05-0.378-0.103-0.567-0.154c-0.767-0.21-1.527-0.43-2.274-0.663c-0.058-0.018-0.118-0.035-0.176-0.053
			c-0.788-0.248-1.561-0.513-2.325-0.785c-0.184-0.066-0.368-0.132-0.55-0.198c-0.752-0.275-1.496-0.559-2.222-0.855
			c-0.081-0.033-0.16-0.068-0.241-0.102c-0.668-0.276-1.322-0.562-1.966-0.854c-0.161-0.073-0.324-0.146-0.484-0.22
			c-0.685-0.318-1.357-0.645-2.013-0.98c-0.126-0.065-0.249-0.131-0.374-0.196c-0.58-0.302-1.148-0.61-1.703-0.925
			c-0.121-0.069-0.245-0.136-0.366-0.205c-0.618-0.356-1.219-0.719-1.804-1.089c-0.133-0.084-0.263-0.169-0.394-0.253
			c-0.537-0.346-1.061-0.696-1.568-1.053c-0.063-0.044-0.129-0.087-0.191-0.131c-0.548-0.389-1.072-0.784-1.582-1.183
			c-0.12-0.094-0.239-0.188-0.357-0.283c-0.505-0.404-0.997-0.811-1.462-1.223c-0.005-0.005-0.01-0.009-0.015-0.014
			c8.325-4.402,13.283-14.396,13.283-22.835v-7.136c7.384,2.929,15.183,4.639,23.363,5.095c0.03,0.002,0.06,0.005,0.09,0.007
			c1.163,0.064,2.334,0.104,3.512,0.117c0.028,0,0.056,0,0.084,0s0.056,0,0.084,0c1.178-0.013,2.349-0.053,3.512-0.117
			c0.031-0.002,0.062-0.005,0.093-0.007c8.179-0.456,15.977-2.167,23.359-5.094v7.135c0,8.438,4.959,18.433,13.283,22.835
			C388.064,235.181,388.058,235.187,388.051,235.194z M387.235,180.22c-2.783,2.396-5.673,4.506-8.661,6.339
			c-0.06,0.034-0.123,0.059-0.182,0.095c-5.775,3.515-11.931,5.98-18.398,7.383c-0.127,0.027-0.255,0.054-0.382,0.081
			c-0.562,0.118-1.125,0.23-1.692,0.332c-0.181,0.032-0.364,0.06-0.546,0.09c-0.819,0.14-1.642,0.26-2.47,0.366
			c-0.436,0.055-0.871,0.112-1.31,0.158c-0.341,0.036-0.684,0.066-1.026,0.096c-0.513,0.045-1.027,0.085-1.543,0.118
			c-0.284,0.018-0.567,0.038-0.852,0.052c-0.807,0.04-1.617,0.072-2.433,0.082c-0.816-0.01-1.626-0.041-2.433-0.082
			c-0.285-0.014-0.568-0.034-0.852-0.052c-0.516-0.033-1.03-0.073-1.542-0.118c-0.343-0.031-0.686-0.06-1.027-0.096
			c-0.438-0.046-0.872-0.102-1.307-0.158c-0.827-0.106-1.65-0.226-2.468-0.366c-0.183-0.031-0.368-0.059-0.551-0.091
			c-0.565-0.102-1.127-0.213-1.688-0.331c-0.129-0.027-0.258-0.054-0.387-0.082c-6.466-1.402-12.622-3.868-18.398-7.383
			c-0.057-0.035-0.118-0.058-0.176-0.091c-2.99-1.834-5.882-3.944-8.667-6.342c-11.018-9.488-17.526-23.723-17.856-39.054
			c-0.088-4.082-3.422-7.344-7.504-7.344h-4.44c-2.336,0-4.236-1.9-4.236-4.236v-13.011c0-1.146,0.436-2.069,1.025-2.748
			c0.378,0.048,0.789,0.11,1.235,0.193c0.289,0.056,0.581,0.113,0.884,0.185c0.001,0,0.003,0.001,0.005,0.001
			c1.503,0.357,3.151,0.925,4.627,1.8c0.01,0.006,0.02,0.012,0.03,0.018c0.324,0.193,0.636,0.406,0.94,0.63
			c0.056,0.042,0.114,0.081,0.17,0.124c0.324,0.248,0.635,0.512,0.926,0.8c1.379,1.366,3.094,2.249,4.913,2.602
			c1.819,0.354,3.741,0.18,5.536-0.569c3.596-1.501,5.92-4.987,5.92-8.882v-10.346c52.332-0.766,70.803-23.618,77.056-36.519
			c10.047,2.224,17.584,11.203,17.584,21.909v24.956c0,3.895,2.324,7.382,5.92,8.882c0.4,0.167,0.808,0.295,1.218,0.405
			c0.102,0.027,0.203,0.053,0.305,0.077c0.404,0.095,0.81,0.172,1.218,0.213c0.007,0.001,0.014,0.002,0.021,0.003
			c0.315,0.031,0.631,0.047,0.946,0.047c0.099,0,0.198-0.011,0.297-0.014c0.103-0.003,0.205-0.008,0.308-0.015
			c0.398-0.025,0.794-0.067,1.185-0.142c0.015-0.003,0.03-0.004,0.046-0.007c0.4-0.078,0.792-0.191,1.179-0.32
			c0.103-0.034,0.204-0.07,0.306-0.108c0.371-0.138,0.737-0.291,1.091-0.475c0.017-0.009,0.034-0.015,0.05-0.024
			c0.361-0.191,0.707-0.414,1.045-0.652c0.09-0.064,0.179-0.129,0.267-0.196c0.332-0.251,0.655-0.518,0.957-0.816
			c0.004-0.003,0.008-0.006,0.011-0.01c0.275-0.272,0.572-0.52,0.877-0.758c0.073-0.057,0.147-0.113,0.222-0.168
			c0.307-0.226,0.622-0.442,0.95-0.637c0.006-0.004,0.013-0.007,0.019-0.01c0.327-0.194,0.664-0.368,1.004-0.532
			c0.082-0.04,0.165-0.079,0.248-0.118c0.345-0.159,0.693-0.309,1.043-0.441c0.003-0.001,0.006-0.002,0.01-0.003
			c0.357-0.134,0.714-0.252,1.068-0.361c0.068-0.021,0.136-0.042,0.204-0.062c0.732-0.216,1.447-0.382,2.113-0.505
			c0.024-0.004,0.048-0.009,0.072-0.013c0.341-0.062,0.67-0.113,0.979-0.155c0.594,0.68,1.034,1.609,1.034,2.76v13.011
			c0,2.336-1.9,4.236-4.236,4.236h-4.441c-4.082,0-7.417,3.263-7.504,7.345C404.762,156.497,398.254,170.731,387.235,180.22z"/>
	</g>
</g>
<g>
</g>
<g>
</g>
<g>
</g>
<g>
</g>
<g>
</g>
<g>
</g>
<g>
</g>
<g>
</g>
<g>
</g>
<g>
</g>
<g>
</g>
<g>
</g>
<g>
</g>
<g>
</g>
<g>
</g>
</svg>
