<?xml version="1.0" encoding="iso-8859-1"?>
<!-- Generator: Adobe Illustrator 19.0.0, SVG Export Plug-In . SVG Version: 6.00 Build 0)  -->
<svg version="1.1" id="Capa_1" xmlns="http://www.w3.org/2000/svg" xmlns:xlink="http://www.w3.org/1999/xlink" x="0px" y="0px"
	 viewBox="0 0 511.999 511.999" style="enable-background:new 0 0 511.999 511.999;" xml:space="preserve">
<g>
	<g>
		<path d="M468.251,359.875c-13.375-17.88-31.761-30.669-53.174-36.987l-77.847-24.273c-0.002-0.001-0.004-0.001-0.006-0.002
			l-13.439-4.19c-0.932-0.29-1.88-0.487-2.83-0.599c-0.037-0.004-0.073-0.012-0.11-0.016c-0.105-0.012-0.21-0.015-0.316-0.025
			c-0.591-0.053-1.183-0.077-1.772-0.063c-3.359-3.554-5.631-8.92-5.631-13.739v-20.605c-1.232,0.819-2.476,1.607-3.73,2.367
			c5.279-3.21,10.378-6.923,15.281-11.145c8.191-7.053,14.985-15.544,20.182-25.004l17.839-3.178
			c7.666-1.366,13.23-8.009,13.23-15.796v-19.31c11.099-3.217,19.239-13.468,19.239-25.59v-29.79
			c0-13.91-10.715-25.357-24.324-26.538v-5.588c0-4.147-3.361-7.509-7.509-7.509s-7.509,3.362-7.509,7.509v12.99v11.095
			c-0.047,0.008-0.101,0.021-0.149,0.029c-0.532,0.094-1.087,0.203-1.658,0.324c-0.243,0.051-0.487,0.107-0.737,0.164
			c-0.432,0.099-0.873,0.207-1.322,0.323c-0.267,0.068-0.526,0.131-0.798,0.206c-0.616,0.171-1.246,0.361-1.884,0.568
			c-0.334,0.108-0.669,0.228-1.008,0.346c-0.399,0.14-0.799,0.288-1.202,0.442c-0.234,0.09-0.462,0.162-0.697,0.257
			c-0.004,0.001-0.007,0.002-0.011,0.004c-0.134,0.054-0.26,0.117-0.393,0.172c-0.146,0.061-0.294,0.13-0.44,0.193
			c-1.121,0.483-2.213,0.997-3.253,1.565v-27.049c0-27.861-22.667-50.528-50.528-50.528c-3.294,0-6.204,2.147-7.175,5.295
			c-1.397,4.53-6.159,16.215-20.146,26.864c-18.113,13.791-44.627,20.886-78.805,21.09c-8.765,0.052-15.896,7.219-15.896,15.975
			v8.353c-1.05-0.574-2.154-1.093-3.286-1.58c-0.133-0.057-0.266-0.119-0.398-0.174c-0.134-0.056-0.262-0.119-0.397-0.174
			c-0.005-0.002-0.01-0.003-0.015-0.005c-0.236-0.095-0.465-0.168-0.699-0.257c-0.401-0.154-0.799-0.301-1.195-0.44
			c-0.34-0.119-0.677-0.239-1.012-0.347c-0.638-0.206-1.267-0.397-1.883-0.568c-0.271-0.075-0.529-0.137-0.794-0.205
			c-0.451-0.116-0.893-0.226-1.328-0.325c-0.248-0.056-0.491-0.112-0.733-0.163c-0.572-0.121-1.129-0.231-1.662-0.325
			c-0.047-0.008-0.101-0.021-0.148-0.029v-11.095V72.641c0-31.773,25.85-57.623,57.623-57.623h84.403
			c29.179,0,53.776,21.812,57.216,50.736c0.49,4.118,4.225,7.061,8.343,6.569c4.118-0.489,7.059-4.225,6.569-8.343
			C365.992,27.505,334.984,0,298.202,0h-84.403c-40.054,0-72.641,32.586-72.641,72.641v32.752
			c-13.607,1.182-24.32,12.629-24.32,26.537v29.791c0,14.692,11.953,26.645,26.645,26.645h12.268
			c2.335,24.388,13.607,46.763,31.574,62.233c3.74,3.22,7.592,6.146,11.551,8.778v20.605c0,4.819-2.272,10.185-5.631,13.739
			c-1.023-0.023-2.053,0.05-3.075,0.229c-0.656,0.115-1.309,0.273-1.954,0.474l-13.404,4.179c-0.001,0-0.002,0.001-0.003,0.001
			l-0.024,0.008c-0.007,0.002-0.014,0.004-0.021,0.007L96.919,322.89c-41.436,12.228-70.951,49.394-73.457,92.505
			c-0.241,4.14,2.92,7.691,7.06,7.932c4.157,0.246,7.692-2.921,7.932-7.061c2.141-36.821,27.366-68.565,62.77-78.988
			c0.038-0.011,0.076-0.023,0.114-0.035l70.043-21.84l13.673,65.719c0,0.001,0.001,0.002,0.001,0.003l24.104,115.856H102.321v-71.63
			c0-4.147-3.362-7.509-7.509-7.509c-4.147,0-7.509,3.362-7.509,7.509v71.63H49.634c-6.247,0-11.329-5.082-11.329-11.328v-34.894
			c0-4.147-3.362-7.509-7.509-7.509c-4.147,0-7.509,3.362-7.509,7.509v34.894c0,14.527,11.819,26.346,26.346,26.346h412.722h0.011
			c14.528,0,26.346-11.819,26.346-26.346v-64.261C488.713,399.044,481.637,377.771,468.251,359.875z M356.715,139.016
			c0.319-0.071,0.628-0.135,0.931-0.194c0.053-0.01,0.107-0.021,0.16-0.031c0.255-0.048,0.501-0.091,0.743-0.131
			c0.083-0.014,0.168-0.029,0.249-0.042c0.197-0.031,0.384-0.058,0.57-0.084c0.105-0.015,0.216-0.032,0.318-0.045
			c0.126-0.017,0.24-0.029,0.36-0.044c0.133-0.016,0.271-0.034,0.397-0.048c2.514-0.275,4.761-1.338,6.521-2.919
			c0.056-0.05,0.116-0.095,0.171-0.146c0.156-0.146,0.3-0.304,0.448-0.458c0.093-0.097,0.193-0.188,0.283-0.289
			c0.116-0.13,0.221-0.27,0.332-0.405c0.11-0.135,0.226-0.264,0.33-0.404c0.085-0.114,0.158-0.235,0.239-0.352
			c0.118-0.171,0.24-0.338,0.349-0.514c0.042-0.068,0.076-0.141,0.116-0.209c0.668-1.138,1.155-2.394,1.408-3.732
			c0.134-0.709,0.204-1.441,0.204-2.187v-6.246c5.303,1.078,9.307,5.778,9.307,11.395v29.791c0,6.411-5.216,11.627-11.627,11.627
			H356.69v-34.327h-0.002C356.697,139.02,356.706,139.018,356.715,139.016z M356.249,188.366h4.661v18.255
			c0,0.499-0.356,0.923-0.847,1.011l-8.087,1.441C354.124,202.422,355.567,195.48,356.249,188.366z M155.316,173.348h-11.834
			c-6.411,0-11.627-5.216-11.627-11.627V131.93c0-5.615,4.002-10.314,9.303-11.394v6.246c0,4.853,2.952,9.059,7.239,10.814
			c0.989,0.405,2.05,0.68,3.162,0.801c0.074,0.008,0.157,0.019,0.234,0.028c0.172,0.02,0.345,0.04,0.53,0.064
			c0.091,0.012,0.19,0.027,0.284,0.041c0.194,0.027,0.39,0.055,0.596,0.088c0.082,0.013,0.169,0.028,0.253,0.042
			c0.238,0.04,0.48,0.082,0.73,0.129c0.061,0.011,0.123,0.024,0.184,0.036c0.293,0.057,0.593,0.119,0.901,0.187
			c0.015,0.003,0.03,0.007,0.045,0.01V173.348z M317.526,309.786c0.394-0.254,0.764-0.544,1.105-0.866
			c0.083-0.079,0.186-0.127,0.293-0.157c0.01-0.003,0.017-0.012,0.027-0.014c0.118-0.028,0.244-0.024,0.364,0.013l6.9,2.151
			l-10.764,51.739l-44.458-22.954L317.526,309.786z M304.708,300.173l-4.128,2.653L256,331.481l-28.586-18.374l-20.122-12.934
			c4.118-5.884,6.6-13.177,6.6-20.191V267.69c13.067,5.913,27.112,8.998,42.024,9.164c0.028,0,0.056,0,0.084,0s0.056,0,0.084,0
			c14.912-0.166,28.957-3.251,42.024-9.164v12.292C298.108,286.996,300.591,294.289,304.708,300.173z M256.326,349.026l9.779,5.049
			l15.535,8.021l-9.493,13.364h-32.294l-8.046-11.326L256.326,349.026z M315.648,238.518c0.603-0.649,1.18-1.329,1.697-2.069
			c1.386-1.987,2.349-4.179,2.89-6.468l4.212-0.75C321.787,232.568,318.851,235.679,315.648,238.518z M197.122,239.218
			c-16.514-14.219-26.275-35.516-26.789-58.439v-33.672c0.151,0.06,0.307,0.104,0.46,0.157c0.147,0.05,0.292,0.107,0.441,0.151
			c0.181,0.053,0.365,0.092,0.548,0.135c0.143,0.034,0.285,0.074,0.43,0.102c0.189,0.036,0.38,0.058,0.57,0.083
			c0.143,0.019,0.284,0.046,0.427,0.059c0.193,0.018,0.388,0.021,0.583,0.028c0.132,0.005,0.263,0.019,0.395,0.019
			c0.01,0,0.021-0.001,0.031-0.002c0.217-0.001,0.435-0.018,0.653-0.032c0.121-0.008,0.242-0.008,0.363-0.02
			c0.237-0.024,0.473-0.065,0.709-0.105c0.102-0.017,0.205-0.027,0.307-0.047c0.254-0.051,0.505-0.12,0.757-0.19
			c0.084-0.023,0.168-0.039,0.252-0.064c0.334-0.102,0.665-0.22,0.992-0.357c3.451-1.44,5.834-4.547,6.375-8.162
			c0.077-0.516,0.117-1.043,0.117-1.577v-17.157c0-0.394,0.244-0.734,0.592-0.881c0.116-0.049,0.243-0.076,0.376-0.077
			c78.499-0.469,103.528-35.505,111.1-52.889c17.191,2.465,30.447,17.289,30.447,35.15v35.853c0,4.27,2.548,8.093,6.492,9.738
			c0.293,0.122,0.589,0.226,0.887,0.32c0.089,0.028,0.179,0.053,0.268,0.078c0.218,0.063,0.436,0.118,0.656,0.167
			c0.094,0.021,0.188,0.042,0.282,0.06c0.265,0.051,0.53,0.092,0.796,0.122c0.039,0.004,0.077,0.012,0.115,0.016
			c0.3,0.031,0.6,0.045,0.9,0.049c0.093,0.001,0.186-0.002,0.279-0.003c0.215-0.002,0.43-0.011,0.644-0.027
			c0.101-0.007,0.202-0.015,0.303-0.025c0.239-0.024,0.476-0.058,0.712-0.099c0.062-0.011,0.124-0.017,0.186-0.029
			c0.291-0.056,0.58-0.125,0.866-0.206c0.084-0.024,0.167-0.052,0.251-0.078c0.21-0.065,0.419-0.136,0.625-0.214
			c0.05-0.019,0.101-0.032,0.15-0.051v33.514c-0.001,0.027-0.002,0.054-0.002,0.081c-0.238,11.065-2.65,21.743-6.916,31.441
			l-17.158,3.056c-4.041-6.085-11.437-9.541-19.075-8.181l-17.234,3.07c-4.974,0.885-9.303,3.655-12.193,7.798
			c-2.889,4.143-3.992,9.162-3.106,14.134c1.609,9.036,9.432,15.594,18.601,15.594c1.107,0,2.226-0.099,3.33-0.295l17.234-3.07
			c2.505-0.446,4.845-1.372,6.922-2.708c-16.473,13.218-35.317,20.05-56.073,20.299
			C234.057,261.574,214.247,253.964,197.122,239.218z M305.027,227.858c-0.594,0.852-1.485,1.422-2.509,1.604l-17.232,3.07
			c-2.171,0.388-4.144-1.06-4.515-3.148c-0.183-1.024,0.044-2.057,0.638-2.909c0.594-0.852,1.485-1.422,2.509-1.604l17.235-3.07
			c0.23-0.041,0.459-0.061,0.683-0.061c1.849,0,3.493,1.327,3.829,3.209C305.849,225.973,305.622,227.006,305.027,227.858z
			 M188.09,321.988l-2.304-11.076l6.899-2.151c0.121-0.037,0.246-0.04,0.365-0.013c0.118,0.027,0.23,0.085,0.321,0.172
			c0.34,0.323,0.71,0.613,1.104,0.866l47.429,30.486l-3.728,2.297l-21.072,12.984c-0.002,0.001-0.003,0.003-0.005,0.004
			l-19.522,12.029L188.09,321.988z M200.83,383.222l18.165-11.193l9.12,12.838l-11.053,76.375L200.83,383.222z M227.064,496.981
			l15.414-106.504h27.046l15.415,106.504H227.064z M283.886,384.866l11.233-15.812l17.157,8.858l-17.337,83.329L283.886,384.866z
			 M473.695,485.653c0,6.247-5.082,11.328-11.329,11.328h-37.669v-71.63c0-4.147-3.361-7.509-7.509-7.509
			c-4.147,0-7.509,3.362-7.509,7.509v71.63H302.842l25.297-121.59c0-0.001,0.001-0.003,0.001-0.004l12.479-59.984l70.043,21.839
			c0.038,0.012,0.076,0.023,0.114,0.035c18.304,5.389,34.019,16.314,45.449,31.593c11.428,15.279,17.47,33.44,17.47,52.521V485.653z
			"/>
	</g>
</g>
<g>
</g>
<g>
</g>
<g>
</g>
<g>
</g>
<g>
</g>
<g>
</g>
<g>
</g>
<g>
</g>
<g>
</g>
<g>
</g>
<g>
</g>
<g>
</g>
<g>
</g>
<g>
</g>
<g>
</g>
</svg>
