<?xml version="1.0" encoding="iso-8859-1"?>
<!-- Generator: Adobe Illustrator 19.0.0, SVG Export Plug-In . SVG Version: 6.00 Build 0)  -->
<svg version="1.1" id="Capa_1" xmlns="http://www.w3.org/2000/svg" xmlns:xlink="http://www.w3.org/1999/xlink" x="0px" y="0px"
	 viewBox="0 0 512 512" style="enable-background:new 0 0 512 512;" xml:space="preserve">
<g>
	<g>
		<path d="M468.091,359.991c-13.365-17.867-31.738-30.647-53.137-36.96l-71.431-22.271c-4.424-1.38-9.098-0.759-12.93,1.407
			l-4.943-1.396c-0.185-0.052-0.372-0.097-0.56-0.135c-6.272-1.26-11.983-9.639-11.983-17.58V259.55
			c3.947-2.626,7.788-5.545,11.516-8.755c17.955-15.46,29.222-37.819,31.553-62.191c13.11-0.371,23.661-11.151,23.661-24.349
			v-18.679c0-7.479-3.392-14.39-9.083-18.959V99.73c0-4.144-3.359-7.503-7.503-7.503c-4.144,0-7.503,3.359-7.503,7.503v24.057
			c-3.893,0.666-8.777,1.986-13.54,4.592V81.236c0-16.746-13.624-30.369-30.37-30.369h-20.777c-7.16,0-14.156,2.496-19.699,7.028
			l-2.038,1.666c-3.75,3.066-8.483,4.754-13.326,4.754c-4.843,0-9.576-1.688-13.326-4.754l-2.038-1.667
			c-5.543-4.532-12.539-7.027-19.699-7.027h-20.776c-16.746,0-30.37,13.623-30.37,30.369v47.141
			c-4.763-2.607-9.647-3.927-13.54-4.593V59.236c0-24.389,19.841-44.23,44.23-44.23h111.04c24.389,0,44.23,19.841,44.23,44.23v5.582
			c0,4.144,3.359,7.503,7.503,7.503s7.503-3.359,7.503-7.503v-5.582C370.755,26.573,344.182,0,311.519,0h-111.04
			c-32.663,0-59.236,26.573-59.236,59.236v67.381c-5.691,4.57-9.083,11.481-9.083,18.959v18.679
			c0,13.197,10.551,23.977,23.661,24.349c2.332,24.372,13.598,46.732,31.553,62.191c3.729,3.211,7.569,6.13,11.517,8.755v23.505
			c0,7.94-5.711,16.319-11.983,17.58c-0.188,0.038-0.375,0.083-0.56,0.135l-4.942,1.395c-3.831-2.166-8.506-2.787-12.93-1.408
			L97.044,323.03c-41.227,12.163-70.713,49.133-73.384,92.013c-0.258,4.136,2.886,7.698,7.022,7.955
			c4.139,0.27,7.697-2.886,7.955-7.022c2.282-36.623,27.479-68.197,62.701-78.567c0.038-0.011,0.076-0.023,0.114-0.035l71.49-22.29
			c0.579-0.181,1.216,0.043,1.488,0.518c0.001,0.001,0.004,0.005,0.004,0.007c0.004,0.006,0.008,0.012,0.012,0.018
			c10.695,18.991,42.135,38.209,81.552,38.209c39.426,0,70.872-19.227,81.561-38.222c0.001-0.002,0.002-0.003,0.003-0.005
			l0.001-0.002c0.271-0.479,0.914-0.703,1.492-0.523l71.489,22.29c0.038,0.012,0.076,0.023,0.114,0.035
			c18.29,5.385,33.994,16.302,45.414,31.569c11.42,15.268,17.457,33.416,17.457,52.483V462.4h-48.961v-37.367
			c0-4.144-3.359-7.503-7.503-7.503s-7.503,3.359-7.503,7.503v71.961h-99.53v-36.54c0-23.586-12.873-36.575-36.248-36.575
			c-23.27,0-36.086,12.989-36.086,36.575v36.54h-17.74v-67.382c0-3.691-3.579-5.896-7.038-5.896c-2.339,0-3.728,1.193-5.007,2.477
			l-14.949,17.712c-1.573,1.276-3.237,4.056-3.237,6.432c0,3.701,2.718,6.712,6.059,6.712c1.468,0,2.991-0.779,4.179-2.136
			l0.042-0.048l4.243-6.307v48.437H102.434v-71.961c0-4.144-3.359-7.503-7.503-7.503s-7.503,3.359-7.503,7.503V462.4H38.467v-11.979
			c0-4.144-3.359-7.503-7.503-7.503c-4.144,0-7.503,3.359-7.503,7.503v35.252c0,14.516,11.81,26.327,26.327,26.327h412.424
			c14.516,0,26.327-11.81,26.327-26.327v-64.212C488.537,399.129,481.467,377.873,468.091,359.991z M197.165,239.423
			c-16.521-14.225-26.278-35.538-26.771-58.474c-0.087-4.08-3.42-7.342-7.501-7.342h-6.375c-5.157,0-9.353-4.195-9.353-9.352
			v-18.679c0-2.916,1.347-5.61,3.602-7.365c1.958,0.162,5.206,0.611,8.57,1.859c0.009,0.003,0.018,0.007,0.028,0.01
			c0.719,0.267,1.442,0.573,2.16,0.918c0.051,0.025,0.102,0.049,0.153,0.074c0.685,0.336,1.363,0.711,2.025,1.127
			c0.069,0.044,0.138,0.088,0.207,0.132c0.645,0.416,1.272,0.875,1.873,1.377c0.071,0.06,0.142,0.12,0.213,0.181
			c0.297,0.256,0.59,0.52,0.872,0.799c0,0,0.001,0.001,0.002,0.001c3.021,2.989,7.511,3.862,11.438,2.223
			c3.941-1.645,6.488-5.464,6.488-9.732V81.236c0-8.471,6.892-15.363,15.363-15.363h20.777c3.708,0,7.331,1.293,10.201,3.639
			l2.038,1.667c6.423,5.251,14.529,8.143,22.824,8.143c8.296,0,16.401-2.892,22.824-8.143l2.038-1.666
			c2.87-2.347,6.493-3.639,10.201-3.639h20.777c8.471,0,15.363,6.892,15.363,15.363v55.947c0,4.267,2.546,8.087,6.488,9.732
			c1.316,0.549,2.695,0.816,4.061,0.816c2.711,0,5.37-1.053,7.379-3.041c0.28-0.277,0.571-0.539,0.866-0.793
			c0.076-0.065,0.151-0.13,0.228-0.194c0.292-0.243,0.587-0.48,0.89-0.703c0.018-0.014,0.037-0.026,0.056-0.04
			c0.291-0.212,0.588-0.413,0.887-0.607c0.092-0.06,0.185-0.119,0.278-0.177c0.288-0.18,0.578-0.354,0.871-0.518
			c0.072-0.04,0.145-0.079,0.217-0.119c0.265-0.145,0.532-0.283,0.799-0.415c0.119-0.059,0.239-0.118,0.359-0.175
			c0.249-0.118,0.498-0.231,0.748-0.34c0.156-0.068,0.311-0.133,0.467-0.197c0.209-0.086,0.417-0.169,0.626-0.249
			c0.153-0.058,0.306-0.115,0.458-0.17c0.176-0.064,0.351-0.124,0.526-0.183c0.265-0.09,0.528-0.175,0.79-0.255
			c0.129-0.04,0.257-0.079,0.385-0.117c0.189-0.055,0.377-0.109,0.563-0.16c0.079-0.022,0.157-0.041,0.236-0.062
			c0.386-0.102,0.765-0.195,1.136-0.279c0.038-0.008,0.075-0.017,0.113-0.026c1.829-0.406,3.445-0.603,4.602-0.699
			c2.254,1.755,3.599,4.448,3.599,7.363v18.679c0,5.157-4.196,9.352-9.353,9.352h-6.375c-4.081,0-7.414,3.262-7.501,7.342
			c-0.492,22.936-10.25,44.249-26.771,58.474c-4.226,3.639-8.617,6.839-13.162,9.605c-0.09,0.056-0.183,0.106-0.27,0.166
			c-13.787,8.326-28.996,12.634-45.401,12.832c-16.404-0.197-31.613-4.505-45.4-12.831c-0.089-0.06-0.184-0.112-0.275-0.169
			C205.78,246.26,201.39,243.061,197.165,239.423z M255.999,338.83c-21.995,0-49.918-8.394-63.804-24.081
			c13.468-4.109,21.702-19.193,21.702-31.693v-15.193c13.065,5.917,27.108,9.004,42.019,9.17c0.028,0,0.056,0,0.084,0
			s0.056,0,0.084,0c14.911-0.166,28.955-3.253,42.019-9.17v15.193c0,12.5,8.234,27.584,21.702,31.694
			C305.917,330.437,277.993,338.83,255.999,338.83z M87.428,496.994H49.787c-6.242,0-11.32-5.078-11.32-11.32v-8.267h48.961V496.994
			z M294.326,496.994h-0.001h-40.916v-36.54c0-14.712,6.856-22.172,20.377-22.172c13.437,0,20.54,7.667,20.54,22.172V496.994z
			 M473.531,485.673c0,6.242-5.078,11.32-11.32,11.32H424.57v-19.587h48.961V485.673z"/>
	</g>
</g>
<g>
</g>
<g>
</g>
<g>
</g>
<g>
</g>
<g>
</g>
<g>
</g>
<g>
</g>
<g>
</g>
<g>
</g>
<g>
</g>
<g>
</g>
<g>
</g>
<g>
</g>
<g>
</g>
<g>
</g>
</svg>
