<?xml version="1.0" encoding="iso-8859-1"?>
<!-- Generator: Adobe Illustrator 19.0.0, SVG Export Plug-In . SVG Version: 6.00 Build 0)  -->
<svg version="1.1" id="Capa_1" xmlns="http://www.w3.org/2000/svg" xmlns:xlink="http://www.w3.org/1999/xlink" x="0px" y="0px"
	 viewBox="0 0 512.001 512.001" style="enable-background:new 0 0 512.001 512.001;" xml:space="preserve">
<g>
	<g>
		<path d="M476.422,299.477h-40.395c-4.143,0-7.501,3.358-7.501,7.501s3.358,7.501,7.501,7.501h40.395
			c4.143,0,7.501-3.358,7.501-7.501S480.565,299.477,476.422,299.477z"/>
	</g>
</g>
<g>
	<g>
		<path d="M476.422,336.105h-40.395c-4.143,0-7.501,3.358-7.501,7.501s3.358,7.501,7.501,7.501h40.395
			c4.143,0,7.501-3.358,7.501-7.501S480.565,336.105,476.422,336.105z"/>
	</g>
</g>
<g>
	<g>
		<path d="M476.422,372.733h-40.395c-4.143,0-7.501,3.358-7.501,7.501s3.358,7.501,7.501,7.501h40.395
			c4.143,0,7.501-3.358,7.501-7.501S480.565,372.733,476.422,372.733z"/>
	</g>
</g>
<g>
	<g>
		<path d="M163.659,297.143H133.9v-70.37c0-3.414-4.025-4.877-7.927-4.877c-4.025,0-7.927,1.464-7.927,4.878v79.273
			c0,3.293,3.415,5,6.952,5h38.661c3.17,0,4.756-3.537,4.756-6.952C168.415,300.559,166.829,297.143,163.659,297.143z"/>
	</g>
</g>
<g>
	<g>
		<path d="M185,221.896c-4.024,0-7.926,1.464-7.926,4.878v79.273c0,3.293,3.903,5,7.926,5c3.903,0,7.927-1.707,7.927-5v-79.273
			C192.927,223.359,188.902,221.896,185,221.896z"/>
	</g>
</g>
<g>
	<g>
		<path d="M259.273,221.896c-2.684,0-4.757,0.854-5.367,3.171l-18.538,66.102l-18.66-66.102c-0.609-2.317-2.683-3.171-5.366-3.171
			c-4.269,0-10.001,2.683-10.001,6.585c0,0.244,0.122,0.732,0.244,1.22l23.537,76.712c1.222,3.658,5.613,5.366,10.247,5.366
			c4.634,0,9.147-1.707,10.245-5.366l23.416-76.712c0.121-0.488,0.243-0.854,0.243-1.22
			C269.273,224.7,263.541,221.896,259.273,221.896z"/>
	</g>
</g>
<g>
	<g>
		<path d="M328.058,297.143h-34.515V272.63h18.538c3.415,0,5-3.293,5-6.098c0-3.293-1.829-6.342-5-6.342h-18.538v-24.392h34.515
			v0.001c3.171,0,5-3.293,5-7.073c0-3.293-1.586-6.83-5-6.83H284.64c-3.536,0-6.951,1.707-6.951,5v79.151c0,3.293,3.414,5,6.951,5
			h43.418c3.414,0,5-3.537,5-6.83C333.058,300.436,331.229,297.143,328.058,297.143z"/>
	</g>
</g>
<g>
	<g>
		<path d="M489.688,102.841H310.691l90.037-90.037c2.929-2.929,2.929-7.678,0-10.607c-2.93-2.929-7.678-2.929-10.608,0
			L289.475,102.841h-66.951L121.881,2.197c-2.93-2.929-7.678-2.929-10.608,0c-2.929,2.929-2.929,7.678,0,10.607l90.037,90.037
			H22.312c-12.102,0-21.946,9.845-21.946,21.946v290.324c0,12.101,9.845,21.946,21.946,21.946H57.56l-19.703,49.741
			c-1.557,3.929-1.49,8.229,0.188,12.107c1.678,3.879,4.766,6.872,8.694,8.428l8.944,3.543c1.919,0.76,3.903,1.124,5.857,1.124
			c5.412,0,10.595-2.792,13.536-7.694l40.341-67.249h281.166l40.342,67.25c2.941,4.902,8.124,7.694,13.535,7.694
			c1.954,0,3.939-0.364,5.857-1.124l8.944-3.542c3.929-1.556,7.017-4.55,8.694-8.429c1.678-3.879,1.744-8.178,0.188-12.107
			l-19.703-49.741h35.248c12.102,0,21.946-9.845,21.946-21.946V124.786C511.634,112.685,501.79,102.841,489.688,102.841z
			 M62.213,496.588c-0.209,0.346-0.635,0.489-1.005,0.341l-8.944-3.543c-0.21-0.083-0.361-0.229-0.45-0.436
			c-0.09-0.207-0.093-0.418-0.01-0.628l21.891-55.266h24.229L62.213,496.588z M460.196,492.323c0.083,0.21,0.08,0.421-0.01,0.628
			c-0.089,0.207-0.24,0.353-0.449,0.436l-8.944,3.543c-0.375,0.148-0.798,0.005-1.005-0.34l-35.712-59.533h24.229L460.196,492.323z
			 M496.633,415.11c0,3.83-3.116,6.945-6.945,6.945H22.312c-3.829,0-6.945-3.115-6.945-6.944V124.786
			c0-3.829,3.115-6.944,6.945-6.944h467.376c3.829,0,6.945,3.115,6.945,6.944V415.11z"/>
	</g>
</g>
<g>
	<g>
		<path d="M410.346,357.581c-4.143,0-7.501,3.358-7.501,7.501v22.972H49.37v-183.86c0-4.142-3.358-7.501-7.501-7.501
			s-7.501,3.358-7.501,7.501v186.864c0,6.615,5.382,11.997,11.997,11.997H405.85c6.615,0,11.996-5.382,11.996-11.997v-25.976
			C417.846,360.939,414.488,357.581,410.346,357.581z"/>
	</g>
</g>
<g>
	<g>
		<path d="M405.85,136.843H46.366c-6.615,0-11.997,5.382-11.997,11.997v20.489c0,4.142,3.358,7.501,7.501,7.501
			s7.501-3.358,7.501-7.501v-17.484h353.475v178.296c0,4.142,3.358,7.501,7.501,7.501s7.501-3.358,7.501-7.501V148.84
			C417.846,142.225,412.465,136.843,405.85,136.843z"/>
	</g>
</g>
<g>
	<g>
		<path d="M456.224,152.163c-15.273,0-27.698,12.425-27.698,27.698c0,15.273,12.425,27.698,27.698,27.698
			s27.699-12.425,27.699-27.698C483.923,164.588,471.497,152.163,456.224,152.163z M456.224,192.558
			c-7.001,0-12.696-5.696-12.696-12.697c0-7.001,5.696-12.697,12.696-12.697c7.002,0,12.697,5.696,12.697,12.697
			C468.922,186.862,463.226,192.558,456.224,192.558z"/>
	</g>
</g>
<g>
	<g>
		<path d="M456.224,220.567c-15.273,0-27.698,12.425-27.698,27.699c0,15.273,12.425,27.698,27.698,27.698
			s27.699-12.425,27.699-27.698C483.923,232.992,471.497,220.567,456.224,220.567z M456.224,260.962
			c-7.001,0-12.696-5.696-12.696-12.697c0-7.002,5.696-12.697,12.696-12.697c7.002,0,12.697,5.696,12.697,12.697
			C468.922,255.266,463.226,260.962,456.224,260.962z"/>
	</g>
</g>
<g>
</g>
<g>
</g>
<g>
</g>
<g>
</g>
<g>
</g>
<g>
</g>
<g>
</g>
<g>
</g>
<g>
</g>
<g>
</g>
<g>
</g>
<g>
</g>
<g>
</g>
<g>
</g>
<g>
</g>
</svg>
