<?xml version="1.0" encoding="iso-8859-1"?>
<!-- Generator: Adobe Illustrator 19.0.0, SVG Export Plug-In . SVG Version: 6.00 Build 0)  -->
<svg version="1.1" id="Capa_1" xmlns="http://www.w3.org/2000/svg" xmlns:xlink="http://www.w3.org/1999/xlink" x="0px" y="0px"
	 viewBox="0 0 512.003 512.003" style="enable-background:new 0 0 512.003 512.003;" xml:space="preserve">
<g>
	<g>
		<path d="M208.952,148.544c-32.24,0-58.469,26.229-58.469,58.469c0,32.24,26.229,58.47,58.469,58.47s58.47-26.23,58.47-58.47
			C267.422,174.773,241.192,148.544,208.952,148.544z M208.952,250.416c-23.932,0-43.402-19.471-43.402-43.403
			s19.47-43.402,43.402-43.402s43.403,19.47,43.403,43.402S232.884,250.416,208.952,250.416z"/>
	</g>
</g>
<g>
	<g>
		<path d="M502.429,415.534l-28.955-35.602c-2.625-3.227-7.371-3.717-10.598-1.092s-3.717,7.37-1.091,10.598l28.995,35.653
			c0.027,0.034,0.056,0.068,0.084,0.102c7.407,8.787,8.13,21.603,1.759,31.167l-1.107,1.662c-0.028-0.013-0.057-0.026-0.085-0.039
			c-0.324-0.146-0.663-0.299-1.012-0.457c-0.09-0.041-0.18-0.081-0.272-0.123c-0.388-0.176-0.79-0.358-1.208-0.547
			c-0.073-0.033-0.15-0.068-0.224-0.102c-0.388-0.176-0.789-0.358-1.201-0.546c-0.073-0.033-0.143-0.065-0.217-0.099
			c-0.477-0.217-0.969-0.441-1.477-0.673c-0.054-0.025-0.11-0.05-0.164-0.075c-1.029-0.47-2.122-0.97-3.271-1.499
			c-0.118-0.054-0.238-0.109-0.358-0.164c-1.114-0.512-2.284-1.052-3.503-1.616c-0.157-0.073-0.315-0.146-0.474-0.219
			c-0.588-0.272-1.185-0.549-1.796-0.832c-0.148-0.069-0.301-0.14-0.451-0.21c-0.509-0.236-1.025-0.477-1.549-0.721
			c-0.183-0.085-0.365-0.17-0.55-0.256c-0.633-0.295-1.277-0.596-1.932-0.902c-0.168-0.079-0.34-0.159-0.51-0.239
			c-0.585-0.274-1.177-0.551-1.778-0.833c-0.137-0.064-0.271-0.127-0.409-0.192c-0.694-0.326-1.401-0.658-2.116-0.995
			c-0.197-0.093-0.395-0.186-0.593-0.28c-0.661-0.311-1.328-0.627-2.006-0.947c-0.104-0.049-0.205-0.097-0.309-0.146
			c-0.739-0.35-1.491-0.706-2.25-1.066c-0.231-0.11-0.463-0.22-0.696-0.33c-0.762-0.362-1.529-0.727-2.309-1.099
			c-0.12-0.057-0.242-0.115-0.362-0.173c-0.682-0.325-1.372-0.655-2.068-0.988c-0.259-0.124-0.519-0.248-0.78-0.373
			c-0.791-0.379-1.59-0.762-2.398-1.15c-0.193-0.093-0.388-0.187-0.582-0.28c-0.691-0.332-1.388-0.668-2.091-1.007
			c-0.236-0.114-0.471-0.227-0.709-0.342c-0.831-0.401-1.67-0.807-2.517-1.218c-0.234-0.114-0.471-0.228-0.707-0.343
			c-0.754-0.366-1.514-0.735-2.28-1.108c-0.173-0.084-0.344-0.167-0.517-0.251c-0.891-0.434-1.79-0.873-2.696-1.316
			c-0.246-0.121-0.494-0.242-0.742-0.363c-0.84-0.411-1.686-0.825-2.538-1.244c-0.114-0.056-0.226-0.111-0.34-0.167
			c-0.922-0.453-1.853-0.912-2.789-1.373c-0.278-0.137-0.556-0.274-0.835-0.412c-0.934-0.462-1.874-0.926-2.821-1.396
			c-0.153-0.076-0.308-0.153-0.461-0.229c-0.852-0.423-1.71-0.849-2.572-1.279c-0.264-0.132-0.528-0.263-0.794-0.395
			c-0.963-0.48-1.93-0.963-2.905-1.451c-0.23-0.115-0.462-0.232-0.693-0.348c-0.845-0.423-1.694-0.85-2.547-1.279
			c-0.231-0.116-0.461-0.232-0.692-0.348c-1.012-0.51-2.03-1.023-3.053-1.541c-0.225-0.114-0.45-0.228-0.676-0.342
			c-0.945-0.478-1.894-0.96-2.848-1.445c-0.145-0.074-0.29-0.147-0.436-0.221c-1.048-0.533-2.102-1.071-3.16-1.612
			c-0.248-0.127-0.497-0.254-0.746-0.382c-1.085-0.555-2.173-1.113-3.268-1.677c-66.423-34.169-120.022-66.943-155.003-94.778
			c-4.814-3.831-9.799-7.75-14.922-11.735c-38.508-29.961-84.789-63.697-124.915-92.338c9.8-19.541,13.653-40.465,11.416-62.308
			c-0.424-4.139-4.114-7.152-8.262-6.727c-4.139,0.424-7.15,4.123-6.727,8.262c1.858,18.145-1.119,35.574-8.854,51.925
			c-5.283-3.752-10.427-7.395-15.389-10.899c-1.611-1.138-3.203-2.261-4.776-3.37c-16.564-11.676-30.647-27.151-40.729-44.753
			l-2.592-4.525c0.354-0.617,0.716-1.245,1.083-1.883c0.084-0.145,0.17-0.295,0.255-0.442c0.289-0.501,0.579-1.004,0.875-1.516
			c0.099-0.171,0.2-0.346,0.3-0.518c0.282-0.488,0.566-0.977,0.854-1.474c0.122-0.211,0.248-0.426,0.371-0.639
			c0.272-0.468,0.544-0.937,0.821-1.412c0.133-0.228,0.267-0.458,0.401-0.687c0.274-0.469,0.548-0.94,0.827-1.416
			c0.137-0.235,0.276-0.471,0.414-0.707c0.277-0.473,0.556-0.948,0.837-1.427c0.147-0.251,0.296-0.503,0.444-0.755
			c0.272-0.463,0.546-0.928,0.821-1.395c0.159-0.27,0.319-0.54,0.479-0.811c0.282-0.478,0.566-0.958,0.852-1.439
			c0.145-0.245,0.291-0.491,0.437-0.738c0.291-0.49,0.583-0.981,0.876-1.474c0.161-0.27,0.321-0.539,0.483-0.81
			c0.28-0.47,0.562-0.941,0.845-1.413c0.167-0.28,0.335-0.559,0.503-0.84c0.3-0.5,0.602-1.001,0.904-1.503
			c0.147-0.244,0.293-0.487,0.44-0.731c0.332-0.551,0.666-1.103,1.001-1.655c0.122-0.201,0.244-0.403,0.366-0.604
			c0.354-0.583,0.708-1.166,1.064-1.748c0.11-0.18,0.219-0.36,0.329-0.54c0.398-0.651,0.797-1.302,1.196-1.953
			c0.065-0.106,0.13-0.212,0.195-0.318c0.945-1.537,1.893-3.07,2.842-4.589c0.01-0.016,0.02-0.032,0.03-0.048
			c0.455-0.728,0.909-1.454,1.363-2.176c0.104-0.165,0.207-0.328,0.311-0.492c0.359-0.569,0.717-1.137,1.075-1.701
			c0.148-0.234,0.296-0.465,0.444-0.698c0.312-0.49,0.623-0.979,0.934-1.464c0.172-0.269,0.344-0.535,0.516-0.803
			c0.286-0.444,0.571-0.887,0.855-1.327c0.186-0.288,0.371-0.572,0.557-0.858c0.27-0.415,0.539-0.829,0.807-1.239
			c0.19-0.291,0.38-0.579,0.57-0.868c0.263-0.4,0.526-0.799,0.787-1.193c0.191-0.288,0.381-0.574,0.57-0.859
			c0.257-0.386,0.513-0.769,0.768-1.149c0.193-0.288,0.386-0.575,0.578-0.859c0.246-0.364,0.49-0.725,0.734-1.084
			c0.197-0.29,0.394-0.578,0.589-0.864c0.238-0.347,0.474-0.689,0.709-1.03c0.196-0.284,0.392-0.567,0.586-0.846
			c0.236-0.339,0.47-0.672,0.704-1.005c0.188-0.267,0.376-0.535,0.562-0.798c0.232-0.327,0.461-0.647,0.69-0.966
			c0.186-0.26,0.373-0.522,0.558-0.777c0.228-0.316,0.453-0.622,0.678-0.929c0.178-0.243,0.357-0.489,0.533-0.727
			c0.233-0.315,0.461-0.618,0.69-0.923c0.164-0.218,0.329-0.442,0.491-0.655c0.252-0.333,0.499-0.651,0.747-0.972
			c0.133-0.172,0.268-0.351,0.4-0.519c0.007-0.009,0.013-0.016,0.02-0.025c8.081,10.651,17.472,25.208,24.181,42.262
			c1.524,3.873,5.901,5.776,9.769,4.253c3.872-1.523,5.776-5.897,4.253-9.769c-7.713-19.604-18.601-36.07-27.633-47.712
			c14.215-12.202,37.35-26.063,56.928-36.269c5.195,3.791,8.393,9.799,8.61,16.259l0.992,29.624
			c0.557,16.643,9.163,32.092,23.022,41.324c5.669,3.777,11.932,6.364,18.616,7.69l68.518,13.591l100.938,171.507
			c10.699,18.179,30.356,28.961,50.85,28.96c3.217,0,6.456-0.273,9.684-0.818l15.375,18.905c2.626,3.227,7.371,3.717,10.598,1.091
			c3.227-2.625,3.717-7.37,1.091-10.598l-30.731-37.786L331.64,163.532c-0.009-0.017-0.02-0.033-0.03-0.05l-7.64-13.007
			c-2.065-3.516-4.813-6.524-8.029-8.892l-14.07-37.787c-2.336-6.273-7.345-10.999-13.745-12.965
			c-6.4-1.967-13.196-0.869-18.652,3.01l-39.181,27.86l-33.233-6.592c-4.737-0.94-9.176-2.774-13.194-5.451
			c-9.823-6.544-15.923-17.492-16.318-29.289l-0.992-29.624c-0.39-11.652-6.429-22.447-16.154-28.877
			c-4.052-2.679-9.271-2.942-13.621-0.685c-14.638,7.592-48.559,26.175-66.4,43.955c-0.004,0.004-0.008,0.007-0.012,0.011
			c-0.033,0.033-0.062,0.064-0.095,0.096c-0.548,0.548-1.08,1.095-1.596,1.641c-0.273,0.288-0.543,0.574-0.802,0.855
			c-0.17,0.186-0.337,0.371-0.503,0.556c-0.461,0.513-0.907,1.02-1.325,1.517c-12.374,14.742-31.765,47.274-45.854,71.97
			c-0.004,0.007-0.007,0.015-0.011,0.022c-0.004,0.007-0.009,0.013-0.013,0.02l-8.835,15.717l-8.163,12.37
			c-5.693,8.627-3.528,20.034,4.93,25.97l2.519,1.769l-7.539,18.246c-3.013,7.29-0.664,15.625,5.714,20.268l8.703,6.335
			c6.377,4.642,15.03,4.318,21.042-0.788l15.595-13.247c7.819,5.579,15.668,11.2,23.372,16.739l-8.211,19.867
			c-3.013,7.29-0.664,15.625,5.714,20.267l8.703,6.335c6.378,4.644,15.03,4.319,21.042-0.788l16.465-13.986
			c42.711,31.245,78.153,58.057,105.358,79.705c16.113,12.822,36.295,26.533,60.01,40.768l-4.079,14.195
			c-1.924,6.69,0.959,13.766,7.011,17.207l7.382,4.199c6.047,3.441,13.605,2.304,18.373-2.768l10.108-10.753
			c7.892,4.276,16.16,8.641,24.619,12.995l-2.92,12.927c-1.534,6.789,1.751,13.687,7.989,16.774l7.613,3.768
			c6.238,3.086,13.713,1.515,18.182-3.823l8.466-10.115c4.661,2.174,7.714,3.261,10.675,4.315c2.268,0.807,4.428,1.576,7.379,2.873
			l-2.611,11.554c-1.506,6.662,1.718,13.431,7.839,16.46l7.327,3.626c2.096,1.038,4.336,1.539,6.551,1.539
			c4.25,0,8.409-1.846,11.29-5.289l8.693-10.386c10.486,4.56,18.923,8.114,24.245,10.33c8.887,3.7,19.217,0.57,24.557-7.445
			l5.252-7.884c0.001-0.001,0.001-0.002,0.002-0.004c0.005-0.007,0.01-0.015,0.015-0.022l4.62-6.936
			C515.215,449.625,514.088,429.412,502.429,415.534z M301.186,151.123c0.452,0.091,0.896,0.207,1.333,0.339
			c0.168,0.051,0.333,0.112,0.499,0.169c0.275,0.094,0.547,0.193,0.815,0.302c0.205,0.084,0.408,0.173,0.609,0.267
			c0.215,0.099,0.425,0.206,0.634,0.315c0.219,0.114,0.438,0.229,0.652,0.354c1.7,0.999,3.2,2.325,4.386,3.925
			c0.31,0.418,0.599,0.854,0.865,1.307l1.628,2.771l-1.55,0.161c-4.139,0.431-7.144,4.135-6.714,8.273
			c0.403,3.874,3.674,6.754,7.484,6.754c0.26,0,0.524-0.013,0.789-0.041l8.375-0.872l13.137,22.366l-1.608,0.167
			c-4.139,0.431-7.144,4.134-6.714,8.273c0.403,3.873,3.674,6.754,7.485,6.754c0.26,0,0.524-0.013,0.789-0.041l8.433-0.878
			l14.449,24.599l-1.564,0.163c-4.139,0.431-7.144,4.135-6.714,8.273c0.403,3.873,3.674,6.754,7.484,6.754
			c0.26,0,0.524-0.013,0.789-0.041l8.389-0.873l15.096,25.701l-1.558,0.162c-4.139,0.431-7.144,4.135-6.714,8.273
			c0.403,3.873,3.674,6.754,7.484,6.754c0.26,0,0.524-0.013,0.789-0.041l8.382-0.873l18.924,32.219
			c0.193,0.329,0.411,0.642,0.651,0.938l4.099,5.04c-14.55-0.633-28.302-8.539-35.93-21.499l-94.13-159.938l18.699,3.709
			C301.156,151.115,301.171,151.12,301.186,151.123z M278.207,106.118c1.605-1.142,3.608-1.466,5.495-0.887
			c1.885,0.58,3.362,1.972,4.05,3.82l9.667,25.962l-46.796-9.282L278.207,106.118z M482.735,471.204
			c-0.001,0.001-0.001,0.003-0.002,0.004c-1.356,2.029-3.968,2.823-6.225,1.884c-5.52-2.297-14.426-6.05-25.511-10.883
			c-5.207-2.269-11.384-0.815-15.025,3.536l-9.58,11.445l-6.864-3.397l2.949-13.052c1.331-5.893-1.683-12.003-7.166-14.528
			c-4.436-2.043-7.392-3.095-10.251-4.113c-3.038-1.081-5.908-2.103-10.738-4.428c-5.316-2.558-11.67-1.185-15.458,3.341
			l-9.497,11.402l-7.588-3.718l3.295-14.585c1.295-5.729-1.451-11.605-6.679-14.29c-9.414-4.832-18.597-9.68-27.294-14.408
			c-5.138-2.797-11.528-1.775-15.535,2.486l-11.214,11.979l-7.361-4.147l4.545-15.815c1.613-5.607-0.764-11.616-5.78-14.614
			c-23.763-14.201-43.881-27.823-59.796-40.486c-27.662-22.012-63.746-49.299-107.248-81.102c-4.822-3.526-11.373-3.287-15.93,0.585
			L95,279.405c-0.692,0.587-1.686,0.625-2.42,0.09l-8.703-6.336c-0.733-0.534-1.003-1.492-0.657-2.331l8.874-21.47
			c2.292-5.545,0.49-11.866-4.383-15.373c-8.627-6.206-17.45-12.526-26.223-18.781c-4.806-3.427-11.306-3.15-15.807,0.673
			l-16.895,14.352c-0.693,0.587-1.687,0.624-2.42,0.091l-8.703-6.336c-0.733-0.534-1.003-1.492-0.657-2.331l8.212-19.867
			c2.318-5.607,0.469-11.962-4.495-15.452l-3.963-2.784c-1.737-1.219-2.181-3.563-1.01-5.337l8.311-12.594
			c0.099-0.149,0.192-0.302,0.28-0.458l2.487-4.424c0.044,0.072,0.09,0.142,0.134,0.214c0.289,0.475,0.589,0.943,0.883,1.415
			c0.43,0.691,0.859,1.382,1.3,2.066c0.318,0.493,0.647,0.98,0.971,1.469c0.432,0.653,0.863,1.306,1.305,1.953
			c0.342,0.499,0.692,0.993,1.04,1.488c0.44,0.627,0.88,1.255,1.33,1.876c0.36,0.498,0.727,0.99,1.094,1.483
			c0.452,0.609,0.905,1.217,1.365,1.819c0.377,0.493,0.76,0.981,1.143,1.47c0.465,0.592,0.931,1.183,1.404,1.769
			c0.391,0.485,0.787,0.965,1.185,1.445c0.48,0.58,0.963,1.157,1.451,1.73c0.404,0.474,0.811,0.945,1.221,1.415
			c0.494,0.566,0.992,1.128,1.494,1.687c0.417,0.465,0.837,0.927,1.26,1.387c0.509,0.553,1.023,1.101,1.54,1.647
			c0.428,0.452,0.857,0.903,1.291,1.35c0.526,0.542,1.057,1.077,1.59,1.611c0.28,0.281,0.554,0.569,0.836,0.847
			c0.158,0.156,0.321,0.306,0.48,0.461c0.544,0.532,1.096,1.057,1.647,1.581c0.443,0.421,0.884,0.843,1.332,1.258
			c0.567,0.526,1.142,1.044,1.717,1.561c0.444,0.4,0.886,0.803,1.335,1.197c0.594,0.522,1.196,1.034,1.798,1.547
			c0.442,0.377,0.88,0.758,1.326,1.129c0.634,0.528,1.278,1.045,1.92,1.563c0.423,0.341,0.842,0.688,1.268,1.024
			c0.719,0.567,1.448,1.12,2.176,1.674c0.36,0.274,0.716,0.555,1.079,0.826c1.096,0.818,2.201,1.621,3.317,2.408
			c8.974,6.327,18.049,12.757,26.979,19.115c46.451,33.082,102.307,73.779,144.75,107.551
			c45.178,35.949,110.63,72.282,157.581,96.432c2.335,1.201,4.649,2.385,6.938,3.55c1.145,0.583,2.284,1.161,3.416,1.734
			c2.831,1.434,5.617,2.835,8.362,4.208c1.666,0.833,3.319,1.659,4.95,2.469c1.573,0.781,3.122,1.548,4.66,2.306
			c3.229,1.594,6.377,3.136,9.436,4.626c3.215,1.566,6.332,3.073,9.335,4.517c3.627,1.743,7.088,3.393,10.366,4.946
			c1.353,0.641,2.675,1.265,3.963,1.871c2.758,1.299,5.364,2.518,7.804,3.653c1.255,0.584,2.462,1.144,3.626,1.682
			c1.436,0.664,2.803,1.294,4.095,1.888c0.551,0.253,1.086,0.499,1.61,0.738c1.888,0.865,3.607,1.648,5.122,2.334L482.735,471.204z"
			/>
	</g>
</g>
<g>
</g>
<g>
</g>
<g>
</g>
<g>
</g>
<g>
</g>
<g>
</g>
<g>
</g>
<g>
</g>
<g>
</g>
<g>
</g>
<g>
</g>
<g>
</g>
<g>
</g>
<g>
</g>
<g>
</g>
</svg>
