<?xml version="1.0" encoding="iso-8859-1"?>
<!-- Generator: Adobe Illustrator 19.0.0, SVG Export Plug-In . SVG Version: 6.00 Build 0)  -->
<svg version="1.1" id="Capa_1" xmlns="http://www.w3.org/2000/svg" xmlns:xlink="http://www.w3.org/1999/xlink" x="0px" y="0px"
	 viewBox="0 0 512 512" style="enable-background:new 0 0 512 512;" xml:space="preserve">
<g>
	<g>
		<path d="M445.733,388.121c-3.577-1.971-8.075-0.671-10.047,2.905c-36.118,65.496-104.969,106.182-179.685,106.182
			c-113.064,0-205.048-91.984-205.048-205.048c0-23.489,3.937-46.519,11.7-68.449c1.363-3.851-0.653-8.077-4.503-9.44
			c-3.85-1.363-8.076,0.653-9.44,4.503c-8.327,23.52-12.549,48.21-12.549,73.386c0,58.721,22.867,113.927,64.39,155.45
			C142.074,489.133,197.28,512,256.001,512c80.104,0,153.918-43.618,192.636-113.831
			C450.611,394.592,449.311,390.094,445.733,388.121z"/>
	</g>
</g>
<g>
	<g>
		<path d="M414.673,140.012l6.283-8.018l1.86,1.457c2.755,2.159,6.08,3.301,9.526,3.301c0.629,0,1.263-0.038,1.897-0.115
			c4.109-0.498,7.777-2.567,10.33-5.825l10.978-14.009c2.553-3.258,3.684-7.314,3.186-11.424c-0.498-4.109-2.567-7.777-5.825-10.33
			l-38.212-29.944c-3.258-2.553-7.318-3.685-11.423-3.186c-4.109,0.498-7.777,2.567-10.33,5.825l-10.978,14.009
			c-5.269,6.725-4.085,16.484,2.64,21.753l1.859,1.457l-5.119,6.532c-28.746-20.034-61.716-32.787-96.617-37.314v-9.434h6.944
			c10.641,0,19.298-8.656,19.298-19.297V19.298C310.97,8.657,302.313,0,291.672,0h-71.34c-10.641,0-19.298,8.657-19.298,19.298
			v26.154c0,10.641,8.657,19.297,19.298,19.297h6.944v9.461c-35.019,4.614-68.073,17.57-96.578,37.337l-5.157-6.582l1.86-1.457
			c6.725-5.27,7.909-15.028,2.639-21.754l-10.978-14.009c-5.27-6.725-15.029-7.909-21.754-2.639L59.095,95.05
			c-3.258,2.553-5.326,6.221-5.825,10.33c-0.499,4.109,0.633,8.166,3.186,11.424l10.978,14.009c2.553,3.258,6.221,5.326,10.33,5.825
			c0.635,0.077,1.268,0.115,1.897,0.115c3.446,0,6.772-1.142,9.526-3.301l1.859-1.457l6.278,8.011
			c-13.111,13.659-24.572,29.121-33.964,46.154c-1.972,3.577-0.671,8.076,2.905,10.048c3.579,1.973,8.076,0.671,10.048-2.905
			c9.738-17.66,21.859-33.513,35.829-47.254c0.07-0.063,0.143-0.121,0.211-0.188c3.319-3.259,6.754-6.411,10.281-9.437
			c0.075-0.064,0.151-0.129,0.226-0.193c0.678-0.58,1.36-1.152,2.045-1.723c0.401-0.333,0.803-0.666,1.206-0.996
			c0.34-0.279,0.68-0.555,1.021-0.831c31.173-25.171,69.401-40.968,110.124-44.702c0.73-0.066,1.461-0.132,2.192-0.191
			c0.623-0.05,1.247-0.098,1.871-0.143c1.443-0.102,2.886-0.197,4.331-0.268c0.047-0.002,0.094-0.004,0.141-0.006
			c1.571-0.077,3.144-0.134,4.717-0.175c0.206-0.006,0.412-0.011,0.618-0.016c6.353-0.148,12.715,0.002,19.047,0.434
			c0.459,0.031,0.921,0.053,1.379,0.088c0.819,0.061,1.635,0.142,2.452,0.213c104.661,9.15,187.041,97.252,187.041,204.248
			c0,23.534-3.951,46.604-11.744,68.572c-1.366,3.849,0.648,8.077,4.498,9.443c0.818,0.29,1.652,0.428,2.473,0.428
			c3.043,0,5.895-1.893,6.97-4.925c8.358-23.559,12.596-48.294,12.596-73.517C475.84,234.98,454.15,181.137,414.673,140.012z
			 M80.064,121.809c-0.153,0.119-0.33,0.169-0.518,0.144c-0.192-0.023-0.35-0.112-0.469-0.264L68.1,107.68
			c-0.119-0.152-0.168-0.326-0.144-0.519c0.023-0.192,0.112-0.35,0.264-0.469l38.211-29.943c0.129-0.101,0.282-0.15,0.433-0.15
			c0.209,0,0.416,0.092,0.555,0.269l10.977,14.008c0.239,0.306,0.186,0.749-0.119,0.988l-7.68,6.018c0,0-0.001,0-0.001,0.001
			l-11.425,8.953L80.064,121.809z M118.275,120.825c-1.632,1.311-3.245,2.646-4.841,4.004c-0.063,0.053-0.125,0.107-0.188,0.16
			c-1.778,1.517-3.532,3.062-5.263,4.637l-5.294-6.755l5.604-4.391l5.604-4.391l4.924,6.284
			C118.637,120.52,118.459,120.676,118.275,120.825z M263.967,72.479c-0.508-0.018-1.016-0.041-1.524-0.056
			c-2.099-0.06-4.202-0.099-6.31-0.1c-0.044,0-0.088-0.002-0.132-0.002c-0.022,0-0.044,0.001-0.066,0.001
			c-2.164,0.001-4.322,0.039-6.475,0.103c-0.201,0.006-0.401,0.009-0.602,0.015c-2.038,0.066-4.07,0.165-6.097,0.288
			c-0.231,0.014-0.462,0.018-0.694,0.033V64.75h27.868v8.01c-0.226-0.014-0.452-0.019-0.678-0.032
			C267.496,72.624,265.733,72.541,263.967,72.479z M220.332,49.957c-2.485,0-4.506-2.021-4.506-4.505V19.298
			c0-2.485,2.021-4.506,4.506-4.506h71.34c2.485,0,4.506,2.021,4.506,4.506v26.154c0,2.484-2.021,4.505-4.506,4.505H220.332z
			 M393.607,90.877l10.978-14.009c0.119-0.152,0.277-0.241,0.469-0.264c0.031-0.004,0.062-0.006,0.092-0.006
			c0.156,0,0.299,0.051,0.426,0.15l38.212,29.944c0.152,0.119,0.241,0.277,0.264,0.469s-0.026,0.366-0.144,0.519l-10.978,14.009
			c-0.119,0.152-0.277,0.241-0.469,0.264c-0.19,0.024-0.366-0.026-0.518-0.144l-27.652-21.669l-2.879-2.256c0,0-0.001,0-0.001-0.001
			l-7.68-6.018C393.422,91.626,393.368,91.183,393.607,90.877z M404.022,129.623c-3.524-3.216-7.14-6.298-10.834-9.259l4.917-6.275
			l11.207,8.783L404.022,129.623z"/>
	</g>
</g>
<g>
	<g>
		<path d="M256.001,109.978c-100.456,0-182.183,81.727-182.183,182.183s81.727,182.182,182.183,182.182
			s182.183-81.727,182.183-182.183S356.457,109.978,256.001,109.978z M379.535,404.997l-6.516-6.517
			c-2.954-2.955-7.744-2.954-10.698,0c-2.955,2.954-2.955,7.744,0,10.698l6.516,6.517c-28.042,25.636-64.81,41.87-105.271,43.678
			V435.29c0-4.178-3.387-7.565-7.565-7.565c-4.178,0-7.565,3.387-7.565,7.565v24.083c-40.46-1.809-77.228-18.043-105.271-43.678
			l6.516-6.517c2.955-2.955,2.955-7.744,0-10.698c-2.954-2.955-7.744-2.954-10.698,0l-6.516,6.517
			c-25.636-28.042-41.869-64.81-43.678-105.27h24.083c4.178,0,7.565-3.387,7.565-7.565c0-4.179-3.387-7.566-7.565-7.566H88.79
			c1.809-40.46,18.043-77.228,43.678-105.271l6.516,6.516c1.477,1.477,3.413,2.216,5.349,2.216c1.936,0,3.872-0.739,5.349-2.216
			c2.955-2.954,2.955-7.744,0-10.698l-6.516-6.516c28.042-25.636,64.81-41.87,105.271-43.679v24.083
			c0,4.178,3.387,7.565,7.565,7.565c4.178,0,7.565-3.387,7.565-7.565v-24.083c40.46,1.809,77.228,18.043,105.271,43.679
			l-6.516,6.517c-2.955,2.955-2.955,7.744,0,10.698c1.477,1.477,3.413,2.216,5.349,2.216c1.936,0,3.872-0.739,5.349-2.216
			l6.516-6.516c25.636,28.042,41.87,64.811,43.678,105.271h-24.083c-4.178,0-7.565,3.387-7.565,7.565
			c0,4.178,3.387,7.565,7.565,7.565h24.083C421.405,340.187,405.171,376.955,379.535,404.997z"/>
	</g>
</g>
<g>
	<g>
		<path d="M371.638,236.597c-1.81-3.766-6.33-5.351-10.095-3.543l-73.409,35.274c0.002,0.002,0.003,0.005,0.005,0.007
			c-7.3-9.821-18.986-16.197-32.136-16.197c-22.069,0-40.022,17.954-40.022,40.022c-0.001,22.069,17.952,40.023,40.021,40.023
			c22.069,0,40.022-17.954,40.022-40.022c0-3.526-0.463-6.945-1.323-10.205c0,0.001,0,0.001,0.001,0.002l73.393-35.266
			C371.861,244.883,373.447,240.363,371.638,236.597z M256.001,317.391c-13.912,0-25.231-11.318-25.231-25.23
			c0-13.912,11.319-25.231,25.231-25.231s25.231,11.319,25.231,25.231S269.913,317.391,256.001,317.391z"/>
	</g>
</g>
<g>
</g>
<g>
</g>
<g>
</g>
<g>
</g>
<g>
</g>
<g>
</g>
<g>
</g>
<g>
</g>
<g>
</g>
<g>
</g>
<g>
</g>
<g>
</g>
<g>
</g>
<g>
</g>
<g>
</g>
</svg>
