<?xml version="1.0" encoding="iso-8859-1"?>
<!-- Generator: Adobe Illustrator 19.0.0, SVG Export Plug-In . SVG Version: 6.00 Build 0)  -->
<svg version="1.1" id="Capa_1" xmlns="http://www.w3.org/2000/svg" xmlns:xlink="http://www.w3.org/1999/xlink" x="0px" y="0px"
	 viewBox="0 0 511.999 511.999" style="enable-background:new 0 0 511.999 511.999;" xml:space="preserve">
<g>
	<g>
		<path d="M228.577,304.977c-2.814-1.409-6.126-1.113-8.651,0.776l-36.654,27.475h-19.528c-6.645,0-12.051,5.406-12.051,12.05
			v30.771c0,6.645,5.406,12.05,12.051,12.05h19.528l36.655,27.475c0,0,0.001,0.001,0.002,0.001c1.464,1.097,3.196,1.656,4.943,1.656
			c1.258,0,2.525-0.291,3.703-0.88c2.814-1.408,4.562-4.238,4.562-7.385v-96.605C233.137,309.215,231.389,306.385,228.577,304.977z
			 M178.267,373.087h-11.561V348.24h11.561V373.087z M218.126,395.463l-24.846-18.624v-32.35l24.846-18.625V395.463z"/>
	</g>
</g>
<g>
	<g>
		<path d="M434.293,0h-7.123c-4.685,0-9.13,1.734-12.515,4.885c-38.391,35.74-88.405,56.373-140.83,58.1l-134.452,4.429
			c-2.386-6.518-8.634-11.192-15.968-11.192h-7.041v-8.438c0-6.629-5.393-12.022-12.021-12.022H83.791
			c-11.314,0-20.518,9.204-20.518,20.518v68.573c0,11.313,9.204,20.518,20.518,20.518h20.551c6.628,0,12.021-5.393,12.021-12.021
			v-8.438h7.041c7.335,0,13.582-4.674,15.968-11.193l30.035,0.99v13.925h-9.842c-8.051,0-14.602,6.55-14.602,14.601v23.699h-11.032
			c-7.671,0-13.912,6.24-13.912,13.911v19.003c0,3.774,1.516,7.197,3.964,9.706l-10.528,18.981
			c-8.239,14.855-12.593,31.684-12.593,48.668v198.854c0,19.818,16.123,35.942,35.941,35.942h111.224
			c19.819,0,35.942-16.123,35.942-35.942V435.04c0-4.145-3.36-7.506-7.506-7.506s-7.506,3.361-7.506,7.506v41.017
			c0,11.541-9.389,20.93-20.93,20.93H136.803c-11.541,0-20.929-9.389-20.929-20.93V277.204c0-14.443,3.703-28.755,10.709-41.387
			l12.235-22.057h12.693c4.146,0,7.506-3.361,7.506-7.506c0-4.145-3.36-7.506-7.506-7.506h-16.48v-16.801h97.331h17.437v16.801
			h-63.363c-4.146,0-7.506,3.361-7.506,7.506c0,4.145,3.36,7.506,7.506,7.506h59.578l12.234,22.057
			c7.007,12.632,10.71,26.943,10.71,41.387v122.802c0,4.145,3.36,7.506,7.506,7.506s7.506-3.361,7.506-7.506V277.204
			c0-16.986-4.355-33.815-12.594-48.668l-10.528-18.981c2.448-2.509,3.964-5.932,3.964-9.706v-19.003
			c0-7.671-6.24-13.911-13.911-13.911H239.87v-23.699c0-8.051-6.55-14.601-14.602-14.601h-9.842v-12.409l58.399,1.924
			c52.425,1.727,102.44,22.361,140.831,58.102c3.384,3.149,7.829,4.883,12.514,4.883h7.123c7.959,0,14.434-6.475,14.434-14.433
			V14.434C448.726,6.475,442.251,0,434.293,0z M101.351,130.359h-17.56c-3.036,0-5.505-2.47-5.505-5.505V56.281
			c0-3.036,2.47-5.506,5.505-5.506h17.56V130.359z M125.408,75.138v30.859v1.899c0,1.105-0.899,2.004-2.005,2.004h-7.041V71.235
			h7.041c1.105,0,2.005,0.899,2.005,2.004V75.138z M224.856,143.647v23.288h-64.881v-23.288H224.856z M184.419,128.635v-13.431
			l15.993,0.527v12.904H184.419z M433.713,166.122h-6.544c-0.879,0-1.691-0.306-2.286-0.86
			c-41.044-38.21-94.515-60.271-150.565-62.117l-66.15-2.179c-0.001,0-0.001,0-0.002,0l-20.044-0.66l-47.702-1.572V82.401
			l133.898-4.411c56.049-1.847,109.521-23.907,150.564-62.116c0.597-0.556,1.409-0.862,2.287-0.862h6.544V166.122z"/>
	</g>
</g>
<g>
</g>
<g>
</g>
<g>
</g>
<g>
</g>
<g>
</g>
<g>
</g>
<g>
</g>
<g>
</g>
<g>
</g>
<g>
</g>
<g>
</g>
<g>
</g>
<g>
</g>
<g>
</g>
<g>
</g>
</svg>
