<?xml version="1.0" encoding="iso-8859-1"?>
<!-- Generator: Adobe Illustrator 19.0.0, SVG Export Plug-In . SVG Version: 6.00 Build 0)  -->
<svg version="1.1" id="Capa_1" xmlns="http://www.w3.org/2000/svg" xmlns:xlink="http://www.w3.org/1999/xlink" x="0px" y="0px"
	 viewBox="0 0 512.001 512.001" style="enable-background:new 0 0 512.001 512.001;" xml:space="preserve">
<g>
	<g>
		<path d="M288.878,101.604H166.141c-26.252,0-51.086,6.201-73.094,17.19c-6.875-18.156-24.436-31.102-44.972-31.102
			C21.566,87.691,0,109.257,0,135.766c0,18.963,11.039,35.392,27.025,43.212c0.016-0.025,0.032-0.05,0.047-0.075
			c-15.093,24.349-23.847,52.934-23.953,83.483c-0.07,20.165,3.534,39.848,10.713,58.502c1.147,2.98,3.988,4.808,7.002,4.808
			c0.896,0,1.806-0.162,2.691-0.502c3.866-1.488,5.794-5.828,4.307-9.693c-6.509-16.912-9.776-34.765-9.713-53.063
			c0.278-80.414,66.68-145.834,148.021-145.834h122.738c4.143,0,7.5-3.358,7.5-7.5C296.378,104.962,293.021,101.604,288.878,101.604
			z M35.649,166.411C23.553,161.488,15,149.61,15,135.766c0-18.238,14.838-33.075,33.075-33.075
			c14.923,0,27.565,9.937,31.668,23.541C62.674,136.845,47.711,150.492,35.649,166.411z"/>
	</g>
</g>
<g>
	<g>
		<path d="M490.863,101.604H323.775c-4.143,0-7.5,3.358-7.5,7.5c0,4.142,3.357,7.5,7.5,7.5H361.5v6.959
			c0,12.033,9.789,21.823,21.822,21.823h41.182c12.033,0,21.822-9.79,21.822-21.823v-6.959h44.537c3.384,0,6.137,2.753,6.137,6.137
			V200.8c0,2.682-1.717,5.031-4.271,5.846L316.277,262.96c-2.8,0.894-4.82,3.34-5.167,6.259l-1.18,9.917
			c-3.913,35.585-20.778,68.45-47.489,92.541c-26.908,24.268-61.701,37.632-97.97,37.632c-48.554,0-93.85-24.015-121.166-64.24
			c-2.325-3.427-6.989-4.317-10.418-1.991c-3.426,2.327-4.317,6.991-1.99,10.418c30.11,44.341,80.045,70.813,133.574,70.813
			c39.986,0,78.347-14.736,108.016-41.493c29.445-26.557,48.038-62.795,52.346-101.974l0.603-5.06l171.854-54.847
			c8.799-2.808,14.711-10.9,14.711-20.136V122.74C512,111.085,502.519,101.604,490.863,101.604z M431.326,123.563
			c0,3.762-3.061,6.823-6.822,6.823h-41.182c-3.762,0-6.822-3.061-6.822-6.823v-6.959h54.826V123.563z"/>
	</g>
</g>
<g>
	<g>
		<path d="M262.419,234.736c-0.012-0.047-0.018-0.094-0.03-0.14c-0.04-0.143-0.091-0.282-0.139-0.423
			c-0.269-0.911-0.55-1.817-0.843-2.717c-0.02-0.062-0.04-0.124-0.061-0.186c-0.213-0.651-0.433-1.298-0.659-1.943
			c-0.078-0.223-0.157-0.446-0.236-0.669c-0.174-0.484-0.351-0.967-0.531-1.447c-0.141-0.377-0.284-0.754-0.43-1.13
			c-0.126-0.322-0.253-0.644-0.382-0.965c-0.21-0.524-0.423-1.047-0.642-1.569c-0.07-0.166-0.14-0.331-0.211-0.496
			c-0.282-0.663-0.571-1.323-0.869-1.982c-0.007-0.016-0.015-0.032-0.022-0.048c-2.651-5.867-5.892-11.566-9.752-17.01
			c-8.83-12.455-19.969-22.32-32.425-29.442c-0.031-0.018-0.061-0.035-0.092-0.052c-0.554-0.316-1.11-0.629-1.67-0.935
			c-0.534-0.294-1.072-0.58-1.611-0.864c-0.056-0.029-0.111-0.059-0.167-0.088c-13.485-7.072-28.737-11.214-44.907-11.57
			c-0.003,0-0.005,0-0.008,0c-0.019,0-0.038,0-0.057,0c-0.734-0.016-1.468-0.028-2.205-0.028c-11.011,0-21.617,1.762-31.558,5.007
			c-0.023,0.007-0.046,0.015-0.068,0.022c-0.689,0.225-1.375,0.458-2.058,0.698c-0.187,0.065-0.373,0.131-0.56,0.197
			c-0.521,0.186-1.04,0.377-1.557,0.571c-0.341,0.128-0.682,0.258-1.023,0.39c-0.358,0.139-0.716,0.281-1.072,0.424
			c-0.489,0.196-0.976,0.395-1.463,0.599c-0.202,0.085-0.404,0.171-0.605,0.257c-0.628,0.268-1.254,0.542-1.878,0.823
			c-0.051,0.023-0.102,0.046-0.152,0.069c-5.846,2.646-11.525,5.878-16.951,9.725c-12.453,8.828-22.317,19.964-29.439,32.417
			c-0.023,0.039-0.044,0.079-0.067,0.118c-0.311,0.545-0.619,1.092-0.919,1.643c-0.299,0.544-0.591,1.092-0.881,1.642
			c-0.024,0.046-0.048,0.091-0.072,0.136c-7.405,14.117-11.603,30.169-11.603,47.186c0,11.018,1.764,21.63,5.013,31.577
			c0.003,0.011,0.007,0.022,0.01,0.032c0.23,0.703,0.467,1.402,0.712,2.098c0.06,0.172,0.12,0.343,0.181,0.514
			c0.192,0.536,0.388,1.071,0.589,1.603c0.122,0.326,0.246,0.651,0.372,0.976c0.145,0.374,0.293,0.747,0.443,1.119
			c0.19,0.473,0.383,0.946,0.58,1.417c0.091,0.217,0.184,0.434,0.276,0.65c0.261,0.612,0.529,1.223,0.803,1.832
			c0.031,0.068,0.061,0.135,0.092,0.203c2.644,5.836,5.871,11.505,9.712,16.922c12.618,17.799,30.19,30.799,50.484,37.615
			c0.002,0.001,0.004,0.001,0.005,0.002c0.594,0.2,1.191,0.393,1.79,0.582c0.364,0.116,0.729,0.231,1.095,0.343
			c0.251,0.076,0.503,0.151,0.756,0.225c6.556,1.95,13.386,3.257,20.417,3.847c0.09,0.008,0.179,0.016,0.269,0.024
			c1.194,0.097,2.394,0.173,3.6,0.229c0.519,0.025,1.037,0.042,1.555,0.059c0.545,0.017,1.091,0.026,1.638,0.035
			c0.583,0.01,1.168,0.037,1.751,0.037c20.923,0,41.294-6.446,58.712-18.79c0.001-0.001,0.003-0.001,0.004-0.002
			c0.001-0.001,0.002-0.002,0.003-0.002c0.003-0.002,0.006-0.004,0.009-0.006c13.051-9.252,23.261-21.038,30.448-34.22
			c0.269-0.49,0.532-0.984,0.793-1.479c0.053-0.1,0.107-0.2,0.159-0.301c7.391-14.107,11.58-30.144,11.58-47.143
			C266.395,253.168,265.005,243.701,262.419,234.736z M174.068,176.616c11.805,1.319,23.316,5.035,33.741,11.011
			c11.325,6.541,21.042,15.563,28.411,26.316c0.279,0.409,0.555,0.818,0.826,1.23c0.481,0.728,0.952,1.463,1.411,2.206
			c0.436,0.706,0.865,1.415,1.278,2.129c0.28,0.483,0.552,0.97,0.823,1.458c0.481,0.871,0.952,1.745,1.401,2.626
			c0.178,0.349,0.351,0.702,0.525,1.054c0.486,0.988,0.956,1.98,1.401,2.979c0.113,0.253,0.223,0.508,0.334,0.763
			c0.433,0.999,0.844,2.005,1.237,3.014l-38.063,10.283l-33.756-24.433L174.068,176.616z M165.993,230.238l31.02,22.452
			l-13.454,37.214l-39.569,0.377l-10.92-36.701L165.993,230.238z M88.361,221.006c0.085-0.153,0.171-0.306,0.257-0.459
			c0.526-0.944,1.076-1.877,1.638-2.803c0.288-0.47,0.58-0.938,0.876-1.402c0.222-0.351,0.453-0.696,0.681-1.044
			c5.518-8.385,12.444-15.763,20.444-21.793c0.165-0.124,0.33-0.248,0.497-0.371c2.654-1.971,5.423-3.795,8.296-5.459
			c0.2-0.115,0.4-0.229,0.601-0.342c0.829-0.472,1.668-0.928,2.515-1.373c0.371-0.195,0.743-0.39,1.116-0.579
			c0.431-0.218,0.863-0.434,1.298-0.646c0.74-0.359,1.482-0.711,2.228-1.047c0.279-0.126,0.562-0.246,0.843-0.369
			c0.715-0.313,1.432-0.618,2.153-0.911c0.18-0.073,0.359-0.149,0.54-0.221c0.957-0.381,1.918-0.745,2.884-1.089
			c0.064-0.023,0.129-0.045,0.194-0.068c7.705-2.729,15.669-4.303,23.652-4.787l-0.434,40.824l-35.948,25.486L84.422,229.2
			C85.589,226.411,86.896,223.673,88.361,221.006z M94.894,315.006c-0.042-0.056-0.084-0.113-0.126-0.169
			c-0.691-0.926-1.361-1.869-2.016-2.823c-0.307-0.449-0.61-0.899-0.907-1.351c-0.455-0.69-0.9-1.386-1.336-2.09
			c-0.468-0.758-0.93-1.519-1.372-2.286c-0.249-0.432-0.491-0.868-0.733-1.304c-0.494-0.892-0.976-1.787-1.435-2.691
			c-0.167-0.329-0.33-0.66-0.493-0.991c-0.497-1.009-0.978-2.024-1.432-3.046c-0.103-0.232-0.204-0.465-0.306-0.698
			c-0.497-1.144-0.972-2.294-1.417-3.453c-0.043-0.113-0.086-0.226-0.129-0.339c-6.167-16.279-7.154-33.802-3.372-50.283
			l38.605,13.47l11.483,38.599l-21.985,33.366C103.092,324.771,98.719,320.106,94.894,315.006z M206.274,339.148
			c-0.384,0.211-0.769,0.418-1.156,0.623c-0.896,0.476-1.8,0.94-2.715,1.385c-0.283,0.138-0.567,0.272-0.851,0.406
			c-1.038,0.492-2.086,0.967-3.146,1.418c-0.139,0.059-0.278,0.116-0.417,0.174c-8.908,3.737-18.564,6.03-28.676,6.588
			c-0.236,0.013-0.471,0.026-0.707,0.037c-0.997,0.047-1.998,0.073-3.003,0.086c-0.63,0.007-1.259,0.012-1.89,0.005
			c-0.471-0.004-0.942-0.006-1.411-0.018c-1.181-0.032-2.364-0.085-3.548-0.165c-0.15-0.01-0.301-0.018-0.451-0.029
			c-2.806-0.205-5.617-0.541-8.426-1.02c-4.171-0.71-8.244-1.717-12.201-2.99c-0.22-0.072-0.442-0.142-0.661-0.215
			c-0.964-0.319-1.916-0.662-2.865-1.013c-4.904-1.831-9.599-4.094-14.04-6.74l21.332-32.375l43.546-0.415l23.422,33.037
			C207.706,338.344,206.993,338.752,206.274,339.148z M240.596,304.878c-0.098,0.177-0.198,0.354-0.297,0.53
			c-0.513,0.92-1.049,1.829-1.597,2.732c-0.301,0.493-0.607,0.983-0.918,1.469c-0.178,0.281-0.364,0.557-0.545,0.836
			c-4.608,7.037-10.208,13.368-16.601,18.793l-23.411-33.022l14.522-40.17l37.903-10.239
			C253.672,265.928,250.442,286.931,240.596,304.878z"/>
	</g>
</g>
<g>
</g>
<g>
</g>
<g>
</g>
<g>
</g>
<g>
</g>
<g>
</g>
<g>
</g>
<g>
</g>
<g>
</g>
<g>
</g>
<g>
</g>
<g>
</g>
<g>
</g>
<g>
</g>
<g>
</g>
</svg>
