<?xml version="1.0" encoding="iso-8859-1"?>
<!-- Generator: Adobe Illustrator 19.0.0, SVG Export Plug-In . SVG Version: 6.00 Build 0)  -->
<svg version="1.1" id="Capa_1" xmlns="http://www.w3.org/2000/svg" xmlns:xlink="http://www.w3.org/1999/xlink" x="0px" y="0px"
	 viewBox="0 0 512 512" style="enable-background:new 0 0 512 512;" xml:space="preserve">
<g>
	<g>
		<path d="M347.479,320.973c-3.783-1.68-8.216,0.022-9.899,3.808l-20,45c-1.682,3.785,0.023,8.217,3.808,9.899
			c0.99,0.44,2.023,0.648,3.042,0.648c2.873,0,5.616-1.661,6.857-4.456l20-45C352.969,327.087,351.264,322.655,347.479,320.973z"/>
	</g>
</g>
<g>
	<g>
		<path d="M375.609,320.973c-3.784-1.68-8.216,0.022-9.899,3.808l-20,45c-1.682,3.785,0.023,8.217,3.808,9.899
			c0.99,0.44,2.023,0.648,3.042,0.648c2.873,0,5.616-1.661,6.857-4.456l20-45C381.099,327.087,379.394,322.655,375.609,320.973z"/>
	</g>
</g>
<g>
	<g>
		<path d="M403.74,320.973c-3.784-1.68-8.216,0.022-9.899,3.808l-20,45c-1.682,3.785,0.023,8.217,3.808,9.899
			c0.99,0.44,2.023,0.648,3.042,0.648c2.873,0,5.615-1.661,6.857-4.456l20-45C409.23,327.087,407.525,322.655,403.74,320.973z"/>
	</g>
</g>
<g>
	<g>
		<path d="M431.87,320.973c-3.782-1.68-8.216,0.022-9.899,3.808l-20,45c-1.682,3.785,0.023,8.217,3.808,9.899
			c0.99,0.44,2.023,0.648,3.042,0.648c2.873,0,5.615-1.661,6.857-4.456l20-45C437.36,327.087,435.655,322.655,431.87,320.973z"/>
	</g>
</g>
<g>
	<g>
		<path d="M511.631,422.671l-1.043-5.874l-1.448-8.151c0-0.001,0-0.002,0-0.002l-46.421-261.319
			c-0.439-2.469-1.143-4.897-2.09-7.218l-28.111-68.809V35.594c0-6.972-5.672-12.643-12.644-12.643H92.127
			c-6.972,0-12.644,5.671-12.644,12.643v35.704l-28.11,68.808c-0.949,2.323-1.653,4.753-2.091,7.222L1.189,418.053l-0.82,4.617
			c-2.202,12.398,5.667,24.402,17.915,27.328l160.917,38.43c0.618,0.148,1.237,0.258,1.855,0.353
			c0.133,0.02,0.266,0.041,0.399,0.059c0.609,0.082,1.217,0.142,1.824,0.174c0.077,0.004,0.154,0.004,0.231,0.007
			c0.311,0.013,0.622,0.027,0.932,0.027c0.198,0,0.394-0.017,0.592-0.023c0.224-0.006,0.446-0.013,0.669-0.026
			c0.442-0.025,0.88-0.066,1.318-0.116c0.193-0.022,0.386-0.039,0.578-0.067c0.547-0.078,1.089-0.176,1.627-0.292
			c0.075-0.016,0.151-0.026,0.226-0.044c0.625-0.142,1.241-0.312,1.849-0.506c0.117-0.037,0.231-0.083,0.347-0.123
			c0.478-0.161,0.95-0.333,1.415-0.525c0.18-0.074,0.357-0.156,0.535-0.235c0.398-0.176,0.792-0.361,1.179-0.56
			c0.188-0.096,0.373-0.195,0.558-0.296c0.379-0.207,0.75-0.427,1.117-0.655c0.17-0.106,0.341-0.209,0.507-0.319
			c0.406-0.268,0.801-0.553,1.19-0.847c0.112-0.084,0.228-0.162,0.338-0.249c0.498-0.392,0.982-0.803,1.448-1.236
			c0.061-0.057,0.117-0.119,0.177-0.177c0.393-0.374,0.774-0.761,1.14-1.164c0.137-0.151,0.266-0.309,0.399-0.464
			c0.28-0.325,0.554-0.656,0.816-0.999c0.141-0.184,0.277-0.372,0.413-0.561c0.241-0.336,0.473-0.68,0.696-1.031
			c0.126-0.197,0.252-0.394,0.372-0.596c0.226-0.38,0.436-0.772,0.641-1.168c0.094-0.182,0.194-0.36,0.284-0.546
			c0.283-0.586,0.547-1.185,0.782-1.803L256,341.628l44.498,117.368c0.001,0.003,0.002,0.006,0.003,0.01l5.845,15.415
			c0.424,1.118,0.929,2.185,1.506,3.197c4.043,7.08,11.631,11.431,19.706,11.43c1.734,0,3.492-0.201,5.241-0.619l160.916-38.43
			C505.964,447.073,513.833,435.069,511.631,422.671z M191.629,469.102c-1.362,3.593-5.207,5.629-8.944,4.736l-160.917-38.43
			c-1.983-0.474-3.656-1.59-4.843-3.081c-1.186-1.491-1.886-3.356-1.923-5.326c-0.01-0.563,0.033-1.134,0.135-1.708l1.101-6.195
			l178.212,42.561L191.629,469.102z M490.231,435.408l-160.916,38.43c-0.701,0.168-1.406,0.232-2.097,0.203
			s-1.369-0.153-2.017-0.361c-0.216-0.069-0.428-0.148-0.637-0.236c-1.876-0.792-3.427-2.321-4.194-4.342l-2.821-7.442l25.033-5.979
			c4.029-0.962,6.515-5.008,5.553-9.037c-0.962-4.028-5.009-6.516-9.037-5.553l-26.911,6.427l-49.175-129.706
			c-1.104-2.914-3.896-4.841-7.013-4.841c-3.116,0-5.908,1.927-7.013,4.841l-49.174,129.707L18.866,404.305L64.051,149.95
			c0.253-1.426,0.66-2.83,1.208-4.172L92.021,80.27h23.412c4.142,0,7.5-3.358,7.5-7.5c0-4.142-3.358-7.5-7.5-7.5h-20.95V37.95
			h323.033v27.32H150.329c-4.142,0-7.5,3.358-7.5,7.5c0,4.142,3.358,7.5,7.5,7.5h75.097c-5.078,9.087-10.309,21.185-14.365,36.936
			c-1.033,4.011,1.382,8.101,5.393,9.133c4.012,1.032,8.1-1.381,9.133-5.393c5.008-19.449,11.888-32.52,17.448-40.676h25.927
			c5.566,8.162,12.444,21.231,17.451,40.676c0.871,3.384,3.917,5.632,7.258,5.632c0.618,0,1.248-0.078,1.875-0.239
			c4.012-1.033,6.426-5.122,5.393-9.133c-4.055-15.751-9.287-27.849-14.365-36.936h133.405l26.763,65.507
			c0.548,1.342,0.954,2.748,1.208,4.174l45.184,254.354l-120.06,28.673c-4.028,0.962-6.515,5.008-5.553,9.037
			c0.962,4.028,5.002,6.514,9.037,5.553l119.203-28.469l1.1,6.195C497.677,429.883,494.764,434.326,490.231,435.408z"/>
	</g>
</g>
<g>
</g>
<g>
</g>
<g>
</g>
<g>
</g>
<g>
</g>
<g>
</g>
<g>
</g>
<g>
</g>
<g>
</g>
<g>
</g>
<g>
</g>
<g>
</g>
<g>
</g>
<g>
</g>
<g>
</g>
</svg>
