<?xml version="1.0" encoding="iso-8859-1"?>
<!-- Generator: Adobe Illustrator 19.0.0, SVG Export Plug-In . SVG Version: 6.00 Build 0)  -->
<svg version="1.1" id="Capa_1" xmlns="http://www.w3.org/2000/svg" xmlns:xlink="http://www.w3.org/1999/xlink" x="0px" y="0px"
	 viewBox="0 0 512 512" style="enable-background:new 0 0 512 512;" xml:space="preserve">
<g>
	<g>
		<path d="M511.675,156.28c-1.028-6.109-4.385-11.435-9.453-14.997L390.107,62.488c-14.344-10.081-31.192-15.409-48.725-15.409
			H170.618c-17.532,0-34.381,5.328-48.725,15.409L9.778,141.283c-5.068,3.562-8.425,8.888-9.453,14.996
			c-1.028,6.109,0.402,12.24,4.025,17.264l45.062,62.477c0.291,0.404,0.61,0.774,0.921,1.154c0.07,0.09,0.139,0.18,0.212,0.266
			c7.578,8.973,20.615,10.859,30.487,4.113l13.519-9.239c0.006-0.004,0.013-0.009,0.019-0.013l27.257-18.628v230.575
			c0,0.013,0.002,0.026,0.002,0.039v0.006c0,0.26,0.013,0.518,0.039,0.771c0.433,11.019,9.507,19.856,20.63,19.856H369.5
			c11.045,0,20.068-8.714,20.619-19.624c0.024-0.236,0.035-0.477,0.036-0.719c0.002-0.11,0.017-0.218,0.017-0.329
			c0-0.095-0.011-0.187-0.014-0.281v-37.721c0-4.142-3.358-7.5-7.5-7.5c-4.142,0-7.5,3.358-7.5,7.5v38.281
			c-0.147,2.998-2.625,5.393-5.658,5.393h-13.452V63.636c6.677,1.43,13.102,3.835,19.11,7.171V371.33c0,4.142,3.358,7.5,7.5,7.5
			c4.142,0,7.5-3.358,7.5-7.5V213.663l27.259,18.629c0.006,0.004,0.012,0.009,0.019,0.013l13.532,9.248
			c9.866,6.742,22.896,4.862,30.476-4.099c0.073-0.085,0.141-0.174,0.21-0.263c0.316-0.385,0.639-0.761,0.935-1.171l45.061-62.476
			C511.273,168.519,512.703,162.388,511.675,156.28z M48.757,209.47l-32.241-44.701c-1.26-1.747-1.756-3.877-1.399-6.001
			c0.357-2.123,1.524-3.975,3.286-5.213l30.354-21.333V209.47z M72.568,229.169c-2.744,1.874-6.193,1.83-8.812,0.143V121.68
			l19.11-13.431v113.882h0.001L72.568,229.169z M121.83,195.503l-23.963,16.376V97.707l23.963-16.841V195.503z M170.94,449.92
			V193.702c0-4.142-3.358-7.5-7.5-7.5c-4.142,0-7.5,3.358-7.5,7.5V449.92h-13.441c-3.114,0-5.649-2.524-5.67-5.634V70.814
			c6.008-3.337,12.434-5.744,19.11-7.175v95.168c0,4.142,3.358,7.5,7.5,7.5c4.142,0,7.5-3.358,7.5-7.5V62.078h3.815
			c0.954,0,1.831,0.58,2.236,1.477c4.418,9.799,10.539,18.498,17.912,25.82V449.92H170.94z M192.988,62.078h126.023
			C306.561,85.046,282.37,99.621,256,99.621C229.631,99.621,205.438,85.046,192.988,62.078z M302.085,101.297v59.477h-19.11v-50.487
			C289.709,108.072,296.123,105.045,302.085,101.297z M229.013,449.92h-19.11V101.29c5.962,3.75,12.377,6.779,19.11,8.994V449.92z
			 M267.975,160.775h-3.567c-5.8,0-10.518,4.718-10.518,10.518v46.489c0,3.421,1.67,6.637,4.467,8.603l9.618,6.765v216.77h-23.963v0
			V113.776c3.938,0.552,7.941,0.845,11.988,0.845c4.043,0,8.041-0.292,11.975-0.843V160.775z M268.89,175.774h49.486v39.68
			l-24.743,17.403l-24.743-17.403V175.774z M302.085,449.92h-19.11v0V243.699l4.608,3.241c1.81,1.272,3.93,1.909,6.05,1.909
			s4.241-0.636,6.051-1.909l2.401-1.689V449.92z M317.085,449.92V234.701l11.822-8.315c2.798-1.967,4.469-5.183,4.469-8.604v-46.489
			c0-5.8-4.718-10.518-10.518-10.518h-5.773V89.387c7.379-7.325,13.504-16.029,17.924-25.833c0.404-0.897,1.282-1.477,2.236-1.477
			h3.803V449.92H317.085z M414.121,211.872l-23.963-16.376V80.858l23.963,16.841V211.872z M448.231,229.32
			c-2.618,1.679-6.061,1.72-8.8-0.151l-10.31-7.046V108.241l19.11,13.431V229.32z M495.484,164.769l-32.253,44.718v-77.273
			l30.367,21.342c1.762,1.238,2.929,3.089,3.286,5.213C497.24,160.891,496.743,163.022,495.484,164.769z"/>
	</g>
</g>
<g>
</g>
<g>
</g>
<g>
</g>
<g>
</g>
<g>
</g>
<g>
</g>
<g>
</g>
<g>
</g>
<g>
</g>
<g>
</g>
<g>
</g>
<g>
</g>
<g>
</g>
<g>
</g>
<g>
</g>
</svg>
