<?xml version="1.0" encoding="iso-8859-1"?>
<!-- Generator: Adobe Illustrator 19.0.0, SVG Export Plug-In . SVG Version: 6.00 Build 0)  -->
<svg version="1.1" id="Capa_1" xmlns="http://www.w3.org/2000/svg" xmlns:xlink="http://www.w3.org/1999/xlink" x="0px" y="0px"
	 viewBox="0 0 512 512" style="enable-background:new 0 0 512 512;" xml:space="preserve">
<g>
	<g>
		<path d="M215.107,204.702c-1.907,0-3.178,0.636-4.29,1.748l-16.525,15.889c-2.065,1.43-3.336,4.131-3.336,6.514
			c0,3.336,2.384,6.832,5.72,6.832c0.954,0,2.384-0.477,3.496-1.589l5.561-6.991v88.341c0,3.654,4.131,5.561,8.421,5.561
			c4.131,0,8.421-1.907,8.421-5.561V210.263C222.575,206.767,218.603,204.702,215.107,204.702z"/>
	</g>
</g>
<g>
	<g>
		<path d="M276.119,204.86c-20.179,0-35.591,9.692-35.591,35.432v46.236c0,25.74,15.412,35.432,35.591,35.431
			c20.02,0,35.75-9.691,35.75-35.431v-46.236C311.869,214.552,296.139,204.86,276.119,204.86z M295.026,286.529
			c0,13.982-7.149,20.496-18.907,20.496c-11.917,0-18.749-6.514-18.749-20.496v-46.236c0-13.982,6.833-20.497,18.749-20.497
			c11.757,0,18.907,6.515,18.907,20.497V286.529z"/>
	</g>
</g>
<g>
	<g>
		<path d="M382.673,391.132c-4.142,0-7.5,3.358-7.5,7.5v45.616c0,3.128-2.544,5.672-5.672,5.672H142.499
			c-3.128,0-5.672-2.544-5.672-5.672V199.463c0-2.781-1.539-5.334-3.999-6.633c-2.461-1.298-5.436-1.129-7.733,0.441l-38.202,26.108
			l-54.545-75.625l40.618-28.546c3.389-2.382,4.205-7.059,1.824-10.449c-2.381-3.389-7.059-4.205-10.449-1.824L9.777,141.283
			c-5.068,3.562-8.425,8.888-9.452,14.996c-1.028,6.109,0.402,12.24,4.025,17.264l45.062,62.477
			c0.412,0.572,0.852,1.111,1.304,1.633c0.09,0.104,0.179,0.21,0.271,0.312c0.445,0.497,0.906,0.972,1.384,1.422
			c0.086,0.081,0.174,0.157,0.261,0.236c0.462,0.422,0.935,0.824,1.424,1.202c0.055,0.042,0.107,0.088,0.162,0.13
			c0.522,0.397,1.06,0.763,1.609,1.11c0.115,0.073,0.23,0.144,0.346,0.215c0.551,0.335,1.111,0.65,1.683,0.936
			c0.073,0.036,0.148,0.068,0.221,0.104c0.539,0.261,1.088,0.5,1.643,0.717c0.098,0.038,0.195,0.08,0.294,0.117
			c0.591,0.222,1.19,0.415,1.795,0.587c0.128,0.036,0.257,0.07,0.386,0.104c0.621,0.164,1.245,0.31,1.877,0.421
			c0.028,0.005,0.056,0.007,0.083,0.012c0.613,0.105,1.231,0.179,1.852,0.234c0.129,0.011,0.257,0.025,0.386,0.034
			c0.541,0.039,1.082,0.065,1.625,0.065c0.074,0,0.148-0.007,0.222-0.008c0.189-0.002,0.377-0.014,0.566-0.021
			c0.478-0.017,0.955-0.046,1.432-0.093c0.219-0.021,0.436-0.045,0.655-0.073c0.491-0.063,0.98-0.144,1.469-0.238
			c0.171-0.033,0.342-0.059,0.513-0.096c0.648-0.141,1.292-0.309,1.931-0.509c0.136-0.042,0.269-0.096,0.404-0.141
			c0.509-0.169,1.014-0.355,1.515-0.561c0.205-0.085,0.408-0.175,0.612-0.266c0.45-0.201,0.895-0.418,1.337-0.65
			c0.186-0.098,0.373-0.191,0.558-0.295c0.609-0.341,1.212-0.703,1.801-1.106l40.796-27.88v230.575
			c0,11.399,9.273,20.672,20.672,20.672h227.001c11.399,0,20.672-9.273,20.672-20.672v-45.616
			C390.173,394.49,386.815,391.132,382.673,391.132z M72.569,229.168c-3.609,2.465-8.435,1.622-10.991-1.923l-45.062-62.476
			c-1.26-1.747-1.757-3.878-1.399-6.001c0.357-2.123,1.524-3.975,3.286-5.213l1.672-1.175l54.43,75.466L72.569,229.168z"/>
	</g>
</g>
<g>
	<g>
		<path d="M511.675,156.279c-1.028-6.109-4.385-11.434-9.453-14.996L390.107,62.488c-14.343-10.081-31.192-15.409-48.725-15.409
			H170.618c-17.532,0-34.381,5.329-48.725,15.409L92.896,82.866c-3.389,2.382-4.205,7.06-1.824,10.449
			c2.381,3.389,7.06,4.205,10.449,1.824l28.997-20.379c11.804-8.296,25.67-12.681,40.1-12.681h4.136c0.954,0,1.831,0.58,2.236,1.477
			c13.988,31.021,45.001,51.065,79.009,51.065c34.009,0,65.022-20.045,79.01-51.066c0.404-0.897,1.282-1.477,2.235-1.477h4.136
			c14.429,0,28.296,4.385,40.1,12.682l96.925,68.119l-54.557,75.641l-36.946-25.249c-2.296-1.568-5.273-1.738-7.733-0.44
			c-2.46,1.298-3.999,3.851-3.999,6.633v164.273c0,4.142,3.358,7.5,7.5,7.5c4.142,0,7.5-3.358,7.5-7.5V213.673l40.796,27.88
			c0.588,0.402,1.189,0.763,1.798,1.104c0.188,0.106,0.379,0.201,0.569,0.301c0.437,0.229,0.878,0.445,1.323,0.643
			c0.207,0.093,0.414,0.185,0.623,0.271c0.495,0.204,0.994,0.387,1.496,0.554c0.141,0.047,0.28,0.103,0.421,0.147
			c0.636,0.198,1.277,0.366,1.922,0.506c0.179,0.039,0.358,0.066,0.537,0.101c0.48,0.093,0.96,0.172,1.442,0.234
			c0.224,0.029,0.448,0.053,0.673,0.075c0.469,0.046,0.938,0.075,1.408,0.091c0.196,0.007,0.391,0.02,0.587,0.022
			c0.072,0.001,0.144,0.008,0.216,0.008c0.541,0,1.081-0.026,1.62-0.064c0.134-0.01,0.267-0.023,0.401-0.035
			c0.612-0.054,1.221-0.127,1.826-0.231c0.035-0.006,0.07-0.009,0.105-0.015c0.628-0.11,1.248-0.256,1.865-0.419
			c0.133-0.035,0.266-0.07,0.399-0.107c0.601-0.17,1.196-0.363,1.783-0.583c0.105-0.039,0.208-0.084,0.313-0.125
			c0.547-0.214,1.086-0.449,1.617-0.706c0.079-0.038,0.16-0.073,0.239-0.112c0.569-0.284,1.125-0.597,1.672-0.93
			c0.12-0.073,0.239-0.147,0.357-0.222c0.545-0.345,1.081-0.71,1.6-1.104c0.059-0.045,0.115-0.093,0.173-0.139
			c0.484-0.375,0.954-0.774,1.411-1.192c0.089-0.081,0.179-0.159,0.267-0.241c0.477-0.449,0.937-0.923,1.381-1.419
			c0.092-0.103,0.182-0.209,0.273-0.314c0.451-0.522,0.891-1.061,1.303-1.632l45.062-62.477
			C511.273,168.519,512.703,162.388,511.675,156.279z M256,99.621c-26.37,0-50.561-14.575-63.011-37.543h126.023
			C306.561,85.046,282.369,99.621,256,99.621z M495.484,164.769l-45.062,62.477c-2.556,3.543-7.384,4.387-10.991,1.923l-3.193-2.182
			l54.442-75.482l2.917,2.05c1.762,1.238,2.929,3.089,3.286,5.213C497.241,160.891,496.744,163.022,495.484,164.769z"/>
	</g>
</g>
<g>
</g>
<g>
</g>
<g>
</g>
<g>
</g>
<g>
</g>
<g>
</g>
<g>
</g>
<g>
</g>
<g>
</g>
<g>
</g>
<g>
</g>
<g>
</g>
<g>
</g>
<g>
</g>
<g>
</g>
</svg>
