<?xml version="1.0" encoding="iso-8859-1"?>
<!-- Generator: Adobe Illustrator 19.0.0, SVG Export Plug-In . SVG Version: 6.00 Build 0)  -->
<svg version="1.1" id="Capa_1" xmlns="http://www.w3.org/2000/svg" xmlns:xlink="http://www.w3.org/1999/xlink" x="0px" y="0px"
	 viewBox="0 0 512 512" style="enable-background:new 0 0 512 512;" xml:space="preserve">
<g>
	<g>
		<path d="M355.977,442.73c-1.643-3.806-6.06-5.558-9.866-3.916c-26.031,11.238-58.034,17.427-90.112,17.427
			c-32.382,0-64.627-6.294-90.794-17.724c-3.799-1.658-8.222,0.075-9.883,3.874c-1.659,3.799,0.075,8.223,3.874,9.883
			c28.019,12.239,62.398,18.979,96.803,18.979c34.079,0,68.195-6.626,96.062-18.657C355.867,450.953,357.62,446.536,355.977,442.73z
			"/>
	</g>
</g>
<g>
	<g>
		<path d="M506.396,485.76L277.393,364.63V201.277l120.621-46.795c3.864-1.499,5.782-5.848,4.283-9.712
			c-1.499-3.865-5.844-5.782-9.712-4.283l-115.192,44.689V45.641l179.836,69.767l-31.744,12.315
			c-3.864,1.499-5.782,5.848-4.283,9.712c1.499,3.864,5.844,5.781,9.712,4.283l33.759-13.097c5.496-2.132,9.047-7.318,9.047-13.213
			c0-5.895-3.551-11.081-9.046-13.213L277.393,29.54v-1.724c0-11.796-9.597-21.393-21.393-21.393s-21.393,9.597-21.393,21.393
			V364.63L5.604,485.76c-4.283,2.264-6.458,7.129-5.291,11.831c1.167,4.701,5.364,7.985,10.208,7.985H501.48
			c4.844,0,9.041-3.283,10.208-7.985C512.854,492.889,510.679,488.024,506.396,485.76z M256,21.434c3.519,0,6.382,2.863,6.382,6.382
			v6.863v161.459V356.69l-2.872-1.519c-2.195-1.161-4.824-1.161-7.019,0l-2.872,1.519V27.816h-0.001
			C249.618,24.297,252.481,21.434,256,21.434z M28.626,490.564L256,370.296l227.374,120.268H28.626z"/>
	</g>
</g>
<g>
</g>
<g>
</g>
<g>
</g>
<g>
</g>
<g>
</g>
<g>
</g>
<g>
</g>
<g>
</g>
<g>
</g>
<g>
</g>
<g>
</g>
<g>
</g>
<g>
</g>
<g>
</g>
<g>
</g>
</svg>
