<?xml version="1.0" encoding="iso-8859-1"?>
<!-- Generator: Adobe Illustrator 19.0.0, SVG Export Plug-In . SVG Version: 6.00 Build 0)  -->
<svg version="1.1" id="Capa_1" xmlns="http://www.w3.org/2000/svg" xmlns:xlink="http://www.w3.org/1999/xlink" x="0px" y="0px"
	 viewBox="0 0 512 512" style="enable-background:new 0 0 512 512;" xml:space="preserve">
<g>
	<g>
		<path d="M420.341,131.794l-30.282-118.67C388.089,5.408,381.141,0.011,373.163,0c-0.094,0-0.178,0-0.271,0
			c-52.429,0-99.062,21.189-144.155,41.678c-19.392,8.812-39.445,17.924-59.5,25.096c-3.893,1.392-5.92,5.676-4.529,9.569
			c1.391,3.894,5.676,5.919,9.569,4.529c20.641-7.38,40.982-16.623,60.653-25.562c45.65-20.744,88.768-40.337,137.953-40.337
			c0.085,0,0.174,0,0.258,0c1.141,0.001,2.131,0.764,2.409,1.854l30.282,118.671c0.864,3.386,3.909,5.637,7.249,5.637
			c0.613,0,1.236-0.076,1.857-0.235C418.944,139.877,421.363,135.8,420.341,131.794z"/>
	</g>
</g>
<g>
	<g>
		<path d="M434.196,186.098l-5.241-20.545c-1.021-4.008-5.103-6.426-9.104-5.404c-4.007,1.021-6.426,5.098-5.404,9.104l5.242,20.546
			c0.253,0.989-0.153,1.721-0.417,2.068c-0.273,0.359-0.89,0.965-1.956,0.987c-50.694,1.071-96.063,21.687-139.938,41.623
			c-45.591,20.716-88.774,40.341-137.826,40.34c-0.773,0-1.547-0.005-2.323-0.015L92.28,98.65c-0.135-0.53,0.056-0.927,0.239-1.167
			c0.181-0.236,0.508-0.519,1.043-0.526c15.17-0.211,30.384-2.134,46.512-5.882c4.028-0.936,6.533-4.959,5.597-8.986
			c-0.936-4.027-4.957-6.533-8.986-5.597c-15.071,3.501-29.244,5.299-43.331,5.494c-5.027,0.07-9.664,2.401-12.722,6.394
			c-3.062,3.999-4.104,9.091-2.86,13.972l60.637,237.358l-3.842,0.98c-3.518,0.897-6.477,3.112-8.331,6.235
			c-1.854,3.123-2.38,6.781-1.481,10.3l36.881,144.534c0.897,3.518,3.112,6.478,6.236,8.331c2.127,1.263,4.504,1.909,6.914,1.909
			c1.128,0,2.264-0.142,3.386-0.428l22.141-5.65c3.518-0.897,6.478-3.112,8.331-6.236c1.854-3.123,2.38-6.781,1.481-10.3
			l-36.881-144.533c-0.897-3.519-3.112-6.478-6.235-8.332c-3.122-1.853-6.78-2.379-10.3-1.481l-3.756,0.958l-11.803-46.235
			c51.76-0.473,97.807-21.38,142.423-41.654c44.454-20.2,86.443-39.279,134.061-40.284c5.373-0.114,10.315-2.627,13.56-6.896
			C434.421,196.678,435.517,191.273,434.196,186.098z M159.076,349.888l36.201,141.867l-19.474,4.969l-36.201-141.867
			L159.076,349.888z"/>
	</g>
</g>
<g>
</g>
<g>
</g>
<g>
</g>
<g>
</g>
<g>
</g>
<g>
</g>
<g>
</g>
<g>
</g>
<g>
</g>
<g>
</g>
<g>
</g>
<g>
</g>
<g>
</g>
<g>
</g>
<g>
</g>
</svg>
