<?xml version="1.0" encoding="iso-8859-1"?>
<!-- Generator: Adobe Illustrator 19.0.0, SVG Export Plug-In . SVG Version: 6.00 Build 0)  -->
<svg version="1.1" id="Capa_1" xmlns="http://www.w3.org/2000/svg" xmlns:xlink="http://www.w3.org/1999/xlink" x="0px" y="0px"
	 viewBox="0 0 511.999 511.999" style="enable-background:new 0 0 511.999 511.999;" xml:space="preserve">
<g>
	<g>
		<path d="M434.19,186.109l-5.273-20.664c-1.022-4.007-5.101-6.427-9.104-5.403c-4.006,1.022-6.425,5.098-5.403,9.104l5.273,20.665
			c0.252,0.989-0.153,1.72-0.417,2.067c-0.273,0.359-0.89,0.965-1.957,0.987c-47.468,1.003-90.266,19.142-131.542,37.814
			l-20.834-81.647c45.176-21.292,87.096-38.401,134.744-37.626l6.11,23.944c0.864,3.385,3.908,5.637,7.248,5.637
			c0.613,0,1.235-0.076,1.856-0.234c4.006-1.022,6.425-5.098,5.402-9.104l-30.24-118.511c-0.001-0.003-0.002-0.006-0.003-0.009
			l-0.001-0.005c-1.962-7.691-8.888-13.087-16.842-13.123C372.891,0,372.576,0,372.259,0c-51.385,0-95.34,18.806-143.274,41.581
			c-0.082,0.037-0.164,0.074-0.246,0.112c-19.648,8.928-39.963,18.159-60.292,25.377c-3.896,1.384-5.933,5.663-4.55,9.559
			c1.384,3.896,5.664,5.933,9.559,4.55c18.008-6.394,35.778-14.22,53.085-22.05l20.835,81.649
			c-45.177,21.292-87.098,38.405-134.744,37.626L92.284,98.663c-0.135-0.53,0.056-0.927,0.239-1.167
			c0.181-0.236,0.508-0.519,1.043-0.526c14.956-0.208,29.944-2.079,45.82-5.723c4.03-0.925,6.546-4.941,5.622-8.971
			c-0.925-4.03-4.941-6.546-8.971-5.622c-14.832,3.404-28.793,5.152-42.679,5.345c-5.027,0.07-9.664,2.4-12.722,6.393
			c-3.063,3.999-4.105,9.091-2.859,13.972l60.524,237.379l-3.731,0.952c-3.519,0.898-6.477,3.112-8.33,6.235
			c-1.853,3.123-2.38,6.781-1.482,10.3l36.88,144.529c0.898,3.519,3.112,6.478,6.236,8.331c2.127,1.262,4.503,1.909,6.914,1.909
			c1.128,0,2.264-0.142,3.385-0.428l22.14-5.649c3.519-0.898,6.478-3.112,8.331-6.236c1.853-3.123,2.379-6.781,1.482-10.3
			l-36.88-144.528c-0.897-3.519-3.112-6.478-6.235-8.331c-3.123-1.852-6.781-2.378-10.3-1.481l-3.907,0.997l-11.819-46.24
			c50.794-0.207,94.747-18.96,142.399-41.601c0.062-0.028,0.124-0.056,0.186-0.085c44.453-20.199,86.44-39.278,134.056-40.283
			c5.373-0.114,10.316-2.627,13.56-6.897C434.415,196.688,435.51,191.283,434.19,186.109z M240.389,52.846
			c43.645-19.798,85.273-37.858,132.492-37.858c0.084,0,0.173,0,0.258,0c1.139,0.001,2.129,0.763,2.408,1.852l20.301,79.56
			c-48.101,0.135-90.002,16.905-134.684,37.86L240.389,52.846z M159.078,349.893l36.199,141.863l-19.474,4.969l-36.199-141.863
			L159.078,349.893z M139.638,274.825c-0.15,0-0.299-0.001-0.449-0.001c-0.651-0.001-1.304-0.004-1.957-0.012l-20.771-81.4
			c48.101-0.135,90.002-16.906,134.684-37.86l20.774,81.413C228.351,256.728,186.692,274.805,139.638,274.825z"/>
	</g>
</g>
<g>
</g>
<g>
</g>
<g>
</g>
<g>
</g>
<g>
</g>
<g>
</g>
<g>
</g>
<g>
</g>
<g>
</g>
<g>
</g>
<g>
</g>
<g>
</g>
<g>
</g>
<g>
</g>
<g>
</g>
</svg>
