<?xml version="1.0" encoding="iso-8859-1"?>
<!-- Generator: Adobe Illustrator 19.0.0, SVG Export Plug-In . SVG Version: 6.00 Build 0)  -->
<svg version="1.1" id="Capa_1" xmlns="http://www.w3.org/2000/svg" xmlns:xlink="http://www.w3.org/1999/xlink" x="0px" y="0px"
	 viewBox="0 0 512 512" style="enable-background:new 0 0 512 512;" xml:space="preserve">
<g>
	<g>
		<path d="M483.028,69.258H28.972C12.997,69.258,0,82.255,0,98.229v128.685c0,4.135,3.352,7.486,7.486,7.486
			c4.134,0,7.486-3.352,7.486-7.486V98.229c0-7.72,6.28-14,14-14h454.055c7.72,0,14,6.28,14,14v128.67
			c0,4.135,3.352,7.486,7.486,7.486c4.134,0,7.486-3.352,7.486-7.486V98.229C512,82.255,499.003,69.258,483.028,69.258z"/>
	</g>
</g>
<g>
	<g>
		<path d="M504.514,254.247c-4.135,0-7.486,3.352-7.486,7.486v166.036h-12.129V107.835c0-2.428-0.763-4.678-2.054-6.534
			c-0.153-0.229-0.317-0.452-0.498-0.667c-0.002-0.002-0.003-0.003-0.005-0.005c-2.106-2.601-5.32-4.269-8.919-4.269H38.578
			c-3.599,0-6.813,1.668-8.919,4.269c-0.002,0.002-0.003,0.003-0.005,0.005c-0.181,0.215-0.345,0.439-0.498,0.667
			c-1.291,1.856-2.054,4.106-2.054,6.534v319.934H14.973V261.747c0-4.135-3.352-7.486-7.486-7.486S0,257.612,0,261.747v166.851
			c0,7.799,6.345,14.144,14.144,14.144h13.787c7.799,0,14.144-6.345,14.144-14.144v-23.095l31.548-27.778
			c1.052,0.253,2.145,0.401,3.273,0.401h358.208v-0.001c1.117,0,2.199-0.145,3.241-0.393l31.58,27.807v23.058
			c0,7.799,6.345,14.144,14.144,14.144h13.787c7.799,0,14.144-6.345,14.144-14.144V261.732
			C512,257.597,508.648,254.247,504.514,254.247z M42.075,385.554V120.883l21.067,17.744c-0.188,0.915-0.287,1.862-0.287,2.831
			v222.627h-0.001c0,0.995,0.108,1.966,0.306,2.903L42.075,385.554z M144.144,252.771l-11.584,11.585l-11.585,11.585l-23.169-23.169
			l11.585-11.584l11.585-11.584L144.144,252.771z M131.562,219.015l11.584-11.585l11.585-11.585l23.169,23.169l-23.169,23.169
			L131.562,219.015z M143.147,274.943l11.584-11.585l11.584,11.585l11.584,11.585l-23.169,23.169l-23.169-23.169L143.147,274.943z
			 M176.903,264.355l-11.584-11.585l23.169-23.169l23.169,23.169l-11.584,11.585l-11.584,11.585L176.903,264.355z M199.075,219.015
			l23.169-23.169l23.169,23.169l-23.169,23.169l-11.585-11.584L199.075,219.015z M222.244,263.357l11.585,11.585l11.584,11.585
			l-23.169,23.169l-11.585-11.584l-11.585-11.585L222.244,263.357z M244.416,264.355l-11.584-11.585L256,229.602l23.169,23.169
			l-11.584,11.585L256,275.94L244.416,264.355z M266.587,219.015l23.169-23.169l11.585,11.585l11.584,11.585l-23.169,23.169
			l-11.584-11.585L266.587,219.015z M289.756,263.357l11.585,11.585l11.584,11.585l-23.169,23.169l-11.585-11.584l-11.585-11.585
			L289.756,263.357z M300.344,252.771l11.585-11.584l11.585-11.584l23.169,23.169l-11.584,11.585l-11.585,11.585L300.344,252.771z
			 M334.1,219.015l11.584-11.585l11.585-11.585l11.584,11.585l11.584,11.585l-23.169,23.169L334.1,219.015z M345.684,274.943
			l11.585-11.585l11.584,11.585l11.584,11.585l-23.169,23.169L334.1,286.528L345.684,274.943z M379.44,264.355l-11.584-11.585
			l11.585-11.584l11.585-11.584l23.169,23.169l-23.169,23.169L379.44,264.355z M391.025,208.427l-23.169-23.169l23.169-23.169
			l11.585,11.585l11.584,11.585l-11.585,11.584L391.025,208.427z M368.853,163.086l-11.584,11.585l-11.585-11.585L334.1,151.502
			l9.113-9.113h28.112l9.113,9.113L368.853,163.086z M335.097,173.674l11.584,11.585l-23.169,23.169l-11.585-11.584l-11.585-11.584
			l23.169-23.169L335.097,173.674z M289.757,174.672l-23.169-23.169l6.444-6.444l2.669-2.669h28.112l9.113,9.113L289.757,174.672z
			 M279.169,185.258L256,208.427l-23.169-23.169l11.584-11.585L256,162.089L279.169,185.258z M233.828,163.086l-11.585,11.585
			l-23.169-23.169l9.113-9.113H236.3l9.113,9.113L233.828,163.086z M211.656,185.258l-23.169,23.169l-11.585-11.584l-11.585-11.584
			l23.169-23.169L211.656,185.258z M154.731,174.672l-11.585-11.585l-11.584-11.585l9.113-9.113h28.112l9.113,9.113L154.731,174.672
			z M132.56,173.674l11.584,11.585l-23.169,23.169l-11.585-11.584L97.805,185.26l23.169-23.169L132.56,173.674z M87.219,174.672
			l-9.392-9.392v-22.891h23.448l2.669,2.669l6.444,6.444L87.219,174.672z M87.219,195.846l23.169,23.169l-11.585,11.585
			l-11.585,11.584l-9.392-9.392v-27.554L87.219,195.846z M87.219,263.357l23.169,23.169l-11.585,11.585l-11.585,11.584l-9.392-9.392
			V272.75L87.219,263.357z M101.274,363.154H77.827v-22.891l9.392-9.392l23.169,23.169L101.274,363.154z M97.806,320.284
			l11.585-11.584l11.585-11.584l23.169,23.169l-11.584,11.585l-11.585,11.585L97.806,320.284z M171.456,360.484l-2.669,2.669
			h-28.111l-9.114-9.114l23.169-23.169l23.169,23.17L171.456,360.484z M176.903,331.867l-11.584-11.585l23.169-23.169l11.585,11.585
			l11.584,11.585l-23.169,23.169L176.903,331.867z M236.299,363.154h-28.111l-9.114-9.114l23.169-23.169l23.169,23.169
			L236.299,363.154z M232.831,320.284l11.584-11.585L256,297.115l11.584,11.585l11.584,11.585L256,343.453L232.831,320.284z
			 M303.812,363.154h-28.111l-9.114-9.114l23.169-23.169l23.169,23.169L303.812,363.154z M311.928,331.868l-11.585-11.584
			l23.169-23.169l11.585,11.585l11.584,11.585l-23.169,23.169L311.928,331.868z M373.994,360.484l-2.669,2.669h-28.111l-2.669-2.669
			l-6.444-6.444l23.169-23.169l23.169,23.169L373.994,360.484z M367.856,320.284l23.169-23.169l23.169,23.169l-11.584,11.585
			l-11.585,11.585L367.856,320.284z M410.726,363.154l-9.114-9.114l11.585-11.584l11.585-11.584l9.391,9.391v22.891H410.726z
			 M434.173,300.305l-9.391,9.391l-11.585-11.584l-11.585-11.585l23.169-23.169l6.641,6.641l2.751,2.751V300.305z M434.173,232.792
			l-9.392,9.392l-23.169-23.169l23.169-23.169l6.641,6.641l2.751,2.751V232.792z M434.173,165.279l-9.392,9.392l-11.585-11.585
			l-11.584-11.585l9.113-9.113h23.448V165.279z M435.104,127.417H76.896c-1.149,0-2.26,0.154-3.33,0.415l-19.59-16.5h404.047
			l-19.59,16.5C437.364,127.57,436.253,127.417,435.104,127.417z M469.926,385.589l-21.093-18.573
			c0.202-0.947,0.313-1.927,0.313-2.933V141.458c0-0.97-0.099-1.916-0.287-2.831l21.067-17.744V385.589z"/>
	</g>
</g>
<g>
</g>
<g>
</g>
<g>
</g>
<g>
</g>
<g>
</g>
<g>
</g>
<g>
</g>
<g>
</g>
<g>
</g>
<g>
</g>
<g>
</g>
<g>
</g>
<g>
</g>
<g>
</g>
<g>
</g>
</svg>
