<?xml version="1.0" encoding="iso-8859-1"?>
<!-- Generator: Adobe Illustrator 19.0.0, SVG Export Plug-In . SVG Version: 6.00 Build 0)  -->
<svg version="1.1" id="Capa_1" xmlns="http://www.w3.org/2000/svg" xmlns:xlink="http://www.w3.org/1999/xlink" x="0px" y="0px"
	 viewBox="0 0 512 512" style="enable-background:new 0 0 512 512;" xml:space="preserve">
<g>
	<g>
		<path d="M195.287,306.873c-9.387-0.59-18.735-1.328-27.785-2.193c-4.115-0.397-7.774,2.626-8.167,6.742
			c-0.394,4.117,2.625,7.773,6.742,8.167c9.21,0.881,18.721,1.631,28.27,2.232c0.16,0.01,0.319,0.015,0.477,0.015
			c3.921,0,7.217-3.052,7.467-7.019C202.55,310.689,199.414,307.133,195.287,306.873z"/>
	</g>
</g>
<g>
	<g>
		<path d="M352.666,311.422c-0.394-4.117-4.035-7.141-8.168-6.742c-9.049,0.864-18.398,1.603-27.786,2.193
			c-4.128,0.26-7.264,3.817-7.004,7.944c0.249,3.968,3.545,7.019,7.467,7.019c0.158,0,0.317-0.005,0.477-0.015
			c9.549-0.601,19.062-1.352,28.272-2.232C350.041,319.196,353.06,315.539,352.666,311.422z"/>
	</g>
</g>
<g>
	<g>
		<path d="M269.953,308.646c-9.241,0.129-18.668,0.129-27.908,0c-4.142-0.076-7.534,3.25-7.592,7.385
			c-0.057,4.135,3.249,7.534,7.385,7.592c4.689,0.065,9.454,0.098,14.162,0.098c4.707,0,9.471-0.033,14.159-0.098
			c4.135-0.058,7.442-3.456,7.385-7.592C277.487,311.895,274.081,308.562,269.953,308.646z"/>
	</g>
</g>
<g>
	<g>
		<path d="M426.933,299.372c-0.88-4.041-4.863-6.605-8.91-5.726c-8.564,1.862-17.728,3.591-27.239,5.138
			c-4.082,0.665-6.853,4.512-6.188,8.595c0.598,3.675,3.776,6.287,7.383,6.287c0.399,0,0.804-0.032,1.212-0.098
			c9.77-1.59,19.195-3.369,28.015-5.287C425.248,307.402,427.811,303.414,426.933,299.372z"/>
	</g>
</g>
<g>
	<g>
		<path d="M121.216,298.784c-9.517-1.548-18.68-3.277-27.237-5.138c-4.042-0.881-8.031,1.684-8.909,5.726
			c-0.88,4.042,1.685,8.031,5.726,8.91c8.812,1.917,18.238,3.695,28.014,5.286c0.407,0.066,0.812,0.098,1.212,0.098
			c3.606,0,6.784-2.612,7.383-6.287C128.069,303.297,125.298,299.449,121.216,298.784z"/>
	</g>
</g>
<g>
	<g>
		<path d="M361.652,367.595c-0.394-4.117-4.035-7.141-8.168-6.742c-9.049,0.864-18.398,1.603-27.786,2.193
			c-4.127,0.26-7.263,3.817-7.004,7.944c0.25,3.968,3.546,7.019,7.467,7.019c0.158,0,0.317-0.005,0.477-0.015
			c9.549-0.601,19.062-1.352,28.272-2.232C359.027,375.369,362.046,371.712,361.652,367.595z"/>
	</g>
</g>
<g>
	<g>
		<path d="M186.301,363.047c-9.387-0.59-18.735-1.328-27.785-2.193c-4.115-0.397-7.774,2.626-8.167,6.742
			c-0.394,4.117,2.624,7.773,6.742,8.167c9.21,0.881,18.721,1.631,28.27,2.232c0.16,0.01,0.319,0.015,0.477,0.015
			c3.921,0,7.217-3.052,7.467-7.019C193.564,366.863,190.428,363.307,186.301,363.047z"/>
	</g>
</g>
<g>
	<g>
		<path d="M435.92,355.546c-0.88-4.041-4.863-6.605-8.91-5.726c-8.563,1.862-17.727,3.59-27.239,5.138
			c-4.082,0.665-6.853,4.512-6.188,8.595c0.598,3.675,3.776,6.287,7.383,6.287c0.399,0,0.804-0.032,1.212-0.098
			c9.77-1.59,19.195-3.369,28.015-5.287C434.235,363.576,436.798,359.588,435.92,355.546z"/>
	</g>
</g>
<g>
	<g>
		<path d="M112.229,354.958c-9.517-1.548-18.68-3.277-27.237-5.138c-4.042-0.881-8.031,1.684-8.909,5.726
			c-0.879,4.042,1.685,8.031,5.726,8.91c8.812,1.917,18.238,3.695,28.014,5.286c0.407,0.066,0.812,0.098,1.212,0.098
			c3.606,0,6.784-2.612,7.383-6.287C119.082,359.471,116.311,355.623,112.229,354.958z"/>
	</g>
</g>
<g>
	<g>
		<path d="M481.829,358.67l28.548-137.794c1.071-2.8,1.623-5.666,1.623-8.597c0-11.177-7.815-21.434-23.226-30.484
			c-6.933-4.071-15.398-7.905-25.29-11.48c-0.087-0.03-0.171-0.066-0.258-0.093c-7.001-2.52-14.722-4.909-23.128-7.158
			c0.008,0.002,0.016,0.004,0.024,0.006v-29.322l51.685-18.344c3.916-1.39,6.547-5.115,6.547-9.27c0-4.155-2.631-7.88-6.546-9.269
			l-56.67-20.113c-2.293-0.816-4.839-0.463-6.825,0.94c-1.987,1.404-3.169,3.684-3.169,6.117v75.567
			c-44.581-10.121-101.333-15.843-161.655-16.281V115.46l51.686-18.344c3.916-1.39,6.547-5.115,6.547-9.27
			c0-4.155-2.631-7.88-6.547-9.27h0.001l-56.671-20.113c-2.293-0.815-4.839-0.463-6.825,0.94c-1.987,1.404-3.169,3.684-3.169,6.117
			v77.574c-60.315,0.438-117.059,6.158-161.638,16.277c0.021-0.005,0.042-0.01,0.064-0.015v-25.611l51.685-18.344
			c3.916-1.39,6.547-5.115,6.547-9.27c0-4.155-2.631-7.88-6.546-9.269l-56.67-20.113c-2.293-0.816-4.839-0.463-6.825,0.94
			c-1.987,1.404-3.169,3.684-3.169,6.117v79.24c-20.454,5.465-36.835,11.759-48.733,18.746C7.815,190.845,0,201.101,0,212.279
			c0,3.245,0.68,6.411,1.992,9.494l31.242,135.522c-21.548,9.411-32.47,20.453-32.47,32.87c0,19.445,26.375,35.299,78.392,47.124
			c47.322,10.757,110.126,16.68,176.843,16.68c66.718,0,129.521-5.924,176.844-16.68c52.017-11.824,78.392-27.679,78.392-47.124
			C511.236,378.343,501.345,367.764,481.829,358.67z M440.121,94.413l33.022,11.72l-33.022,11.72V94.413z M86.937,94.413
			l33.022,11.72l-33.022,11.72V94.413z M429.918,175.901c4.802,1.193,9.393,2.441,13.778,3.731l-25.529,16.516
			c-3.472,2.246-4.466,6.883-2.219,10.355c1.433,2.216,3.839,3.422,6.294,3.422c1.393,0,2.803-0.389,4.061-1.202l35.572-23.013
			c7.534,2.88,14.037,5.901,19.315,9c10.21,5.996,15.832,12.235,15.832,17.568c0,1.582-0.507,3.245-1.469,4.956
			c-1.842,3.175-6.702,8.827-19.386,15.348c-11.522,5.869-27.348,11.379-46.249,16.074c-1.256,0.312-2.529,0.618-3.807,0.923
			c-0.429,0.102-0.86,0.204-1.293,0.305c-0.807,0.189-1.622,0.376-2.437,0.563c-0.359,0.082-0.711,0.164-1.074,0.246
			c-11.39,2.568-23.634,4.844-36.556,6.815c-2.666-4.523-7.654-8.609-14.938-12.239l27.099-17.531
			c3.472-2.246,4.466-6.883,2.219-10.355c-2.247-3.473-6.881-4.468-10.356-2.22l-36.359,23.522
			c-2.301-0.675-4.711-1.327-7.239-1.954c-8.519-2.116-18.037-3.886-28.262-5.298l47.659-67.166
			C388.488,167.187,410.55,171.09,429.918,175.901z M263.488,76.126l33.023,11.72l-33.023,11.72V76.126z M263.488,158.074
			c29.248,0.215,57.601,1.688,84.055,4.312l-47.611,67.1c-11.601-1.075-23.85-1.721-36.444-1.905V158.074z M256,242.498
			c32.415,0,62.803,3.114,85.568,8.768c12.225,3.036,19.781,6.219,24.314,8.841c-0.102,0.013-0.202,0.026-0.304,0.038
			c-1.927,0.238-3.866,0.469-5.816,0.694c-0.412,0.048-0.828,0.093-1.241,0.14c-1.615,0.183-3.236,0.363-4.866,0.538
			c-0.506,0.054-1.014,0.107-1.521,0.161c-1.68,0.177-3.368,0.349-5.064,0.516c-0.335,0.033-0.669,0.067-1.004,0.099
			c-6.475,0.63-13.054,1.192-19.721,1.684c-0.04,0.003-0.08,0.006-0.12,0.009c-9.014,0.663-18.184,1.199-27.464,1.603
			c-0.092,0.004-0.184,0.008-0.276,0.012c-2.273,0.098-4.552,0.189-6.837,0.272c-0.024,0.001-0.047,0.002-0.071,0.003
			c-4.59,0.166-9.203,0.299-13.834,0.4c-0.358,0.008-0.718,0.014-1.077,0.021c-1.815,0.038-3.633,0.07-5.454,0.098
			c-0.614,0.009-1.228,0.018-1.843,0.026c-1.636,0.022-3.274,0.039-4.913,0.053c-0.623,0.005-1.246,0.012-1.87,0.016
			c-2.194,0.014-4.389,0.024-6.587,0.024c-2.193,0-4.383-0.009-6.571-0.024c-0.629-0.004-1.257-0.011-1.886-0.016
			c-1.62-0.014-3.24-0.031-4.857-0.052c-0.638-0.009-1.275-0.018-1.912-0.027c-1.782-0.027-3.562-0.059-5.339-0.096
			c-0.397-0.008-0.795-0.015-1.192-0.024c-4.545-0.1-9.073-0.23-13.579-0.392c-0.251-0.009-0.5-0.019-0.751-0.028
			c-2.032-0.074-4.059-0.155-6.082-0.242c-0.275-0.012-0.55-0.024-0.825-0.036c-6.777-0.297-13.496-0.664-20.137-1.099
			c-0.275-0.018-0.549-0.037-0.823-0.055c-1.907-0.127-3.808-0.26-5.702-0.398c-0.353-0.026-0.706-0.051-1.059-0.077
			c-2.052-0.152-4.097-0.31-6.133-0.476c-0.09-0.007-0.181-0.014-0.271-0.021c-2.117-0.173-4.224-0.354-6.321-0.541
			c-0.493-0.044-0.983-0.09-1.475-0.135c-1.495-0.136-2.985-0.275-4.468-0.418c-0.784-0.076-1.565-0.153-2.345-0.23
			c-1.183-0.118-2.362-0.238-3.538-0.361c-0.876-0.091-1.754-0.182-2.626-0.275c-1.117-0.12-2.225-0.244-3.334-0.368
			c-1.671-0.187-3.335-0.379-4.989-0.575c-0.889-0.106-1.78-0.21-2.665-0.318c-0.333-0.041-0.663-0.084-0.995-0.125
			c4.534-2.622,12.087-5.803,24.308-8.838C193.197,245.612,223.586,242.498,256,242.498z M248.511,158.074v69.507
			c-12.619,0.184-24.893,0.833-36.515,1.912l-47.611-67.1C190.859,159.764,219.237,158.289,248.511,158.074z M16.933,218.037
			c-0.133-0.21-0.274-0.421-0.395-0.631c-0.025-0.043-0.044-0.085-0.068-0.127c-0.196-0.349-0.378-0.698-0.539-1.047
			c-0.625-1.358-0.954-2.682-0.954-3.953c0-5.333,5.623-11.573,15.832-17.568c5.281-3.101,11.788-6.123,19.326-9.004l35.578,23.017
			c1.258,0.814,2.667,1.202,4.061,1.202c2.455,0,4.861-1.207,6.294-3.422c2.247-3.472,1.253-8.109-2.219-10.355l-25.535-16.52
			c4.382-1.289,8.969-2.536,13.766-3.728c19.349-4.806,41.388-8.707,65.274-11.626l47.659,67.167
			c-10.199,1.41-19.693,3.176-28.193,5.288c-2.523,0.627-4.929,1.277-7.226,1.951l-36.353-23.518
			c-3.472-2.246-8.108-1.254-10.356,2.22c-2.247,3.472-1.253,8.109,2.219,10.355l27.091,17.526
			c-7.287,3.63-12.278,7.717-14.946,12.241c-12.576-1.918-24.51-4.124-35.635-6.607c-1.285-0.287-2.557-0.577-3.817-0.871
			c-0.024-0.006-0.048-0.011-0.071-0.017c-1.253-0.292-2.493-0.588-3.72-0.887c-0.027-0.007-0.055-0.013-0.082-0.02
			c-19.597-4.778-35.823-10.373-47.619-16.285c-0.25-0.126-0.51-0.25-0.756-0.376c-0.118-0.061-0.23-0.122-0.347-0.182
			c-1.543-0.799-3.013-1.603-4.393-2.414C24.1,225.906,19.386,221.862,16.933,218.037z M33.127,290.153
			c3.496,1.637,7.276,3.241,11.292,4.785c0.883,0.34,1.792,0.501,2.685,0.501c3.009,0,5.848-1.827,6.992-4.803
			c1.485-3.861-0.442-8.193-4.302-9.678c-4.954-1.905-9.49-3.892-13.483-5.906c-2.178-1.099-4.637-1.025-6.671-0.028l-7.605-32.99
			c0.399,0.243,0.782,0.488,1.192,0.729c13.137,7.715,31.724,14.588,55.245,20.431c0.451,0.112,0.913,0.22,1.367,0.332
			c0.003,0.001,0.006,0.001,0.008,0.002c1.408,0.344,2.827,0.685,4.261,1.02c0.036,0.008,0.071,0.016,0.107,0.025
			c42.545,9.934,96.577,15.79,154.377,16.771c0.122,0.002,0.245,0.004,0.367,0.006c0.143,0.002,0.287,0.004,0.43,0.007
			c0.217,0.003,0.435,0.006,0.652,0.01c1.41,0.022,2.82,0.044,4.235,0.06c0.509,0.006,1.02,0.009,1.529,0.014
			c0.361,0.004,0.722,0.007,1.083,0.01c0.492,0.004,0.983,0.01,1.475,0.013c0.58,0.004,1.159,0.01,1.74,0.014
			c1.042,0.006,2.087,0.007,3.131,0.009c0.922,0.002,1.842,0.008,2.765,0.008c1.045,0,2.086-0.006,3.129-0.01
			c0.93-0.003,1.862-0.003,2.791-0.009c0.573-0.003,1.145-0.009,1.717-0.013c0.492-0.004,0.984-0.009,1.476-0.013
			c0.397-0.004,0.795-0.007,1.192-0.011c0.497-0.005,0.994-0.008,1.49-0.014c1.391-0.016,2.777-0.037,4.164-0.059
			c0.217-0.004,0.435-0.006,0.652-0.01c0.177-0.003,0.354-0.005,0.531-0.008c0.131-0.002,0.262-0.004,0.392-0.006
			c56.787-0.971,109.931-6.648,152.11-16.275c0.892-0.203,1.777-0.407,2.652-0.612c0.472-0.111,0.942-0.222,1.411-0.334
			c1.29-0.307,2.567-0.615,3.818-0.926c0.001,0,0.003-0.001,0.005-0.001c0.006-0.001,0.012-0.003,0.018-0.004
			c1.383-0.343,2.735-0.689,4.07-1.036c0.154-0.04,0.308-0.08,0.461-0.12c2.772-0.724,5.442-1.455,8.014-2.193
			c0.074-0.021,0.148-0.042,0.221-0.063c1.25-0.36,2.476-0.721,3.68-1.084c0.21-0.063,0.417-0.127,0.626-0.19
			c1.013-0.308,2.012-0.616,2.993-0.926c0.388-0.122,0.773-0.245,1.157-0.368c0.734-0.235,1.46-0.471,2.176-0.708
			c0.594-0.196,1.184-0.392,1.769-0.589c0.001,0,0.002-0.001,0.002-0.001c11.97-4.041,22.036-8.436,30.059-13.147
			c0.698-0.41,1.363-0.825,2.029-1.24l-7.114,34.336c-2.215-1.741-5.319-2.16-8-0.807c-3.997,2.016-8.534,4.003-13.484,5.906
			c-3.861,1.485-5.787,5.818-4.302,9.678c1.144,2.977,3.982,4.803,6.992,4.803c0.893,0,1.802-0.161,2.685-0.501
			c4.824-1.855,9.292-3.799,13.355-5.785l-15.002,72.412l-3.942,19.026c-0.078,0.2-0.147,0.404-0.207,0.612
			c-2.897,3.312-20.647,11.035-69.123,18.005c-24.996,3.594-53.137,6.251-81.577,7.793v-47.41c0-10.011-8.144-18.155-18.155-18.155
			h-73.862c-10.01,0-18.154,8.144-18.154,18.155v47.386c-27.969-1.547-55.471-4.196-79.74-7.774
			c-47.037-6.935-64.191-14.639-66.948-17.934c-0.08-0.284-0.175-0.561-0.286-0.83l-2.225-9.651L33.127,290.153z M296.107,359.593
			v48.116c-0.77,0.031-1.539,0.061-2.308,0.091c-1.662,0.063-3.322,0.124-4.978,0.179c-1.336,0.044-2.669,0.084-4.003,0.124
			c-1.593,0.047-3.183,0.091-4.769,0.131c-1.364,0.034-2.724,0.063-4.085,0.091c-1.556,0.032-3.109,0.062-4.656,0.087
			c-1.36,0.022-2.716,0.039-4.07,0.055c-1.254,0.015-2.503,0.026-3.75,0.037v-52.087h29.442
			C294.682,356.416,296.107,357.841,296.107,359.593z M248.511,356.417v52.086c-1.226-0.01-2.453-0.022-3.685-0.036
			c-1.398-0.017-2.797-0.035-4.199-0.058c-1.445-0.023-2.895-0.052-4.347-0.082c-1.498-0.031-2.997-0.064-4.499-0.101
			c-1.362-0.034-2.728-0.073-4.094-0.113c-1.598-0.047-3.196-0.095-4.796-0.149c-1.275-0.043-2.551-0.091-3.828-0.139
			c-1.056-0.04-2.113-0.083-3.169-0.126v-48.105c0-1.752,1.425-3.177,3.176-3.177H248.511z M480.732,405.487
			c-11.716,6.297-29.424,12.243-51.208,17.195C383.259,433.198,321.633,438.99,256,438.99s-127.258-5.792-173.523-16.308
			c-21.784-4.952-39.492-10.897-51.208-17.195c-9.867-5.302-15.526-10.888-15.526-15.324c0-6.895,11.9-13.758,20.926-17.97
			l2.948,12.785c0.061,0.266,0.138,0.524,0.225,0.776c0.023,0.066,0.052,0.128,0.077,0.193c0.069,0.183,0.141,0.365,0.223,0.54
			c0.008,0.016,0.013,0.034,0.021,0.051c2.265,6.304,9.935,11.289,24.424,15.966c12.198,3.937,28.798,7.554,49.341,10.752
			c37.384,5.818,82.617,9.421,126.28,10.132c0.154,0.002,0.308,0.005,0.462,0.008c3.47,0.055,6.931,0.093,10.376,0.111
			c0.006,0,0.013,0,0.019,0c0.005,0,0.01,0,0.015,0c1.644,0.009,3.285,0.014,4.921,0.014c1.655,0,3.299-0.006,4.948-0.014
			c0.557-0.003,1.125-0.014,1.683-0.018c2.275-0.016,4.557-0.041,6.845-0.073c1.006-0.014,2.006-0.025,3.016-0.043
			c3.055-0.051,6.118-0.117,9.188-0.196c0.225-0.006,0.449-0.01,0.674-0.016c40.693-1.073,82.406-4.547,117.688-9.902
			c20.798-3.157,38.322-6.869,50.678-10.736c15.165-4.746,22.869-9.617,25.127-16.015c0.017-0.036,0.028-0.074,0.044-0.11
			c0.076-0.168,0.144-0.34,0.208-0.515c0.032-0.086,0.067-0.17,0.096-0.257c0.086-0.264,0.161-0.533,0.219-0.811l2.287-11.036
			c16.147,8.141,17.558,14.454,17.558,16.384C496.258,394.6,490.599,400.185,480.732,405.487z"/>
	</g>
</g>
<g>
</g>
<g>
</g>
<g>
</g>
<g>
</g>
<g>
</g>
<g>
</g>
<g>
</g>
<g>
</g>
<g>
</g>
<g>
</g>
<g>
</g>
<g>
</g>
<g>
</g>
<g>
</g>
<g>
</g>
</svg>
