<?xml version="1.0" encoding="iso-8859-1"?>
<!-- Generator: Adobe Illustrator 19.0.0, SVG Export Plug-In . SVG Version: 6.00 Build 0)  -->
<svg version="1.1" id="Capa_1" xmlns="http://www.w3.org/2000/svg" xmlns:xlink="http://www.w3.org/1999/xlink" x="0px" y="0px"
	 viewBox="0 0 512.001 512.001" style="enable-background:new 0 0 512.001 512.001;" xml:space="preserve">
<g>
	<g>
		<path d="M319.623,451.137l-4.129-20.535c-0.82-4.065-4.423-7.015-8.569-7.015H205.074c-4.146,0-7.749,2.95-8.569,7.017
			l-4.129,20.532c-0.001,0.001-0.001,0.003-0.001,0.005c-0.517,2.579,0.143,5.225,1.81,7.259s4.132,3.201,6.761,3.201h110.107
			c2.63,0,5.094-1.167,6.761-3.201S320.141,453.72,319.623,451.137z M208.6,446.591l1.609-7.995h91.583l1.608,7.995H208.6z"/>
	</g>
</g>
<g>
	<g>
		<path d="M393.224,125.853c-2.606-2.848-6.316-4.481-10.177-4.481h-16.719c0.285-3.01,0.448-6.054,0.486-9.128l0.006-0.36
			c0.003-0.22,0.005-0.441,0.007-0.661c0-0.131,0.005-0.261,0.005-0.392c0-1.512-0.039-3.016-0.099-4.514
			c-0.006-0.155-0.011-0.311-0.018-0.466c-0.068-1.535-0.169-3.061-0.299-4.579c-0.002-0.022-0.004-0.045-0.006-0.067
			c-1.116-12.913-4.453-25.2-9.631-36.474c-0.074-0.161-0.151-0.321-0.225-0.481c-0.526-1.131-1.068-2.254-1.631-3.364
			c-0.283-0.561-0.577-1.117-0.87-1.673c-0.315-0.595-0.633-1.188-0.958-1.777c-3.303-6.014-7.152-11.746-11.556-17.085
			c-0.189-0.229-0.395-0.438-0.606-0.64c-11.908-14.198-27.3-25.377-44.851-32.208c-0.1-0.043-0.192-0.098-0.294-0.137
			c-7.41-2.851-15.054-4.876-22.856-6.074c-0.069-0.011-0.139-0.021-0.208-0.031c-0.804-0.122-1.609-0.235-2.417-0.339
			c-0.155-0.02-0.311-0.039-0.466-0.059c-0.725-0.09-1.451-0.174-2.178-0.25c-0.213-0.022-0.426-0.045-0.639-0.066
			c-0.673-0.066-1.348-0.126-2.024-0.18c-0.254-0.021-0.507-0.042-0.761-0.061c-0.643-0.047-1.288-0.087-1.933-0.123
			c-0.277-0.016-0.552-0.033-0.829-0.047c-0.656-0.032-1.314-0.055-1.971-0.075c-0.257-0.008-0.514-0.02-0.772-0.026
			C257.823,0.013,256.912,0,256,0s-1.823,0.013-2.732,0.035c-0.258,0.006-0.514,0.018-0.771,0.026
			c-0.658,0.02-1.316,0.043-1.972,0.075c-0.277,0.014-0.552,0.032-0.828,0.047c-0.646,0.036-1.291,0.076-1.935,0.123
			c-0.253,0.019-0.506,0.04-0.759,0.061c-0.676,0.054-1.352,0.114-2.026,0.18c-0.212,0.021-0.424,0.043-0.636,0.065
			c-0.729,0.076-1.456,0.16-2.182,0.25c-0.154,0.019-0.308,0.039-0.462,0.058c-0.809,0.104-1.616,0.218-2.422,0.34
			c-0.067,0.01-0.135,0.02-0.202,0.03c-7.803,1.198-15.448,3.223-22.858,6.074c-0.103,0.04-0.196,0.094-0.297,0.138
			c-17.545,6.83-32.933,18.005-44.84,32.198c-0.214,0.205-0.423,0.417-0.615,0.649c-4.415,5.353-8.273,11.1-11.581,17.132
			c-0.3,0.543-0.593,1.091-0.884,1.639c-0.322,0.612-0.645,1.223-0.956,1.841c-0.54,1.067-1.061,2.145-1.567,3.231
			c-0.087,0.189-0.178,0.376-0.265,0.566c-5.164,11.253-8.494,23.513-9.614,36.397c-0.005,0.052-0.009,0.105-0.014,0.157
			c-0.128,1.492-0.227,2.993-0.294,4.501c-0.009,0.187-0.014,0.375-0.021,0.562c-0.059,1.478-0.097,2.962-0.097,4.454
			c0,0.352,0.006,0.703,0.011,1.053l0.007,0.396c0,0.004,0.001,0.008,0.001,0.012c0.04,3.058,0.202,6.086,0.486,9.08h-16.72
			c-3.862,0-7.571,1.633-10.178,4.481c-2.598,2.839-3.894,6.663-3.555,10.493c0.809,9.12,2.655,23.634,9.318,44.298
			c1.025,3.18,3.97,5.205,7.14,5.204c0.763,0,1.54-0.117,2.305-0.364c3.945-1.272,6.111-5.501,4.839-9.446
			c-5.874-18.222-7.715-31.2-8.526-39.657h17.85c2.833,11.96,7.61,23.175,13.977,33.295c0.109,0.215,0.216,0.432,0.348,0.638
			c12.128,19.033,29.655,33.785,50.158,42.505c0.25,0.107,0.501,0.21,0.751,0.315c1.197,0.499,2.403,0.979,3.62,1.436
			c0.594,0.224,1.191,0.444,1.79,0.658c0.765,0.273,1.532,0.541,2.305,0.797c0.961,0.32,1.929,0.625,2.902,0.919
			c0.301,0.091,0.595,0.196,0.897,0.284c0.067,0.02,0.135,0.026,0.202,0.044c9.813,2.854,20.181,4.389,30.903,4.389
			c10.722,0,21.091-1.536,30.904-4.39c0.067-0.017,0.135-0.024,0.201-0.043c0.299-0.087,0.592-0.192,0.89-0.282
			c0.981-0.296,1.957-0.604,2.926-0.927c0.762-0.253,1.519-0.517,2.274-0.786c0.609-0.218,1.215-0.44,1.819-0.668
			c1.204-0.453,2.398-0.928,3.583-1.421c0.262-0.11,0.525-0.218,0.786-0.33c20.498-8.721,38.019-23.471,50.145-42.5
			c0.129-0.203,0.234-0.416,0.341-0.627c6.37-10.123,11.15-21.342,13.984-33.306h17.848c-0.823,8.585-2.702,21.773-8.742,40.321
			c-1.283,3.941,0.872,8.177,4.813,9.46c0.772,0.252,1.555,0.371,2.326,0.371c3.161,0,6.103-2.014,7.135-5.183
			c6.842-21.013,8.725-35.749,9.546-45.006C397.118,132.516,395.822,128.691,393.224,125.853z M338.614,62.339
			c0.176,0.299,0.356,0.595,0.529,0.896c0.437,0.764,0.866,1.533,1.281,2.308c0.24,0.445,0.476,0.892,0.709,1.341
			c0.541,1.05,1.068,2.107,1.569,3.176c0.095,0.202,0.19,0.404,0.284,0.607c3.779,8.195,6.401,16.906,7.757,25.861l-18.107-13.37
			L338.614,62.339z M327.401,47.002l-9.493,33.061l-19.951,7.772L263.505,63.9V44.063l30.497-21.187
			C306.826,28.438,318.203,36.724,327.401,47.002z M287.73,99.006l-12.025,35.39h-39.409l-12.024-35.39L256,76.962L287.73,99.006z
			 M241.354,16.128c0.173-0.026,0.346-0.049,0.519-0.075c0.596-0.089,1.193-0.174,1.793-0.252c0.487-0.063,0.975-0.117,1.463-0.171
			c0.294-0.033,0.586-0.07,0.881-0.101c6.625-0.683,13.344-0.684,19.969-0.001c0.335,0.035,0.668,0.077,1.002,0.115
			c0.448,0.051,0.896,0.1,1.343,0.158c0.626,0.081,1.249,0.17,1.871,0.263c0.147,0.022,0.295,0.041,0.441,0.064
			c1.802,0.278,3.586,0.61,5.354,0.987L256,31.001l-19.989-13.887C237.775,16.737,239.555,16.405,241.354,16.128z M217.999,22.876
			l30.497,21.188V63.9L214.08,87.81l-19.999-7.791L184.6,47.003C193.797,36.724,205.174,28.438,217.999,22.876z M167.311,74.569
			c0.533-1.305,1.102-2.596,1.692-3.877c0.102-0.221,0.205-0.442,0.31-0.662c0.494-1.051,1.011-2.09,1.543-3.123
			c0.242-0.467,0.487-0.932,0.737-1.394c0.382-0.713,0.777-1.419,1.178-2.123c0.202-0.353,0.409-0.702,0.615-1.051l5.978,20.818
			l-18.107,13.37C162.4,88.981,164.437,81.607,167.311,74.569z M184.222,174.235l22.913,0.662l7.616,22.412
			C203.077,191.718,192.707,183.83,184.222,174.235z M208.622,159.924l-35.487-1.025c-7.436-12.77-12.008-27.403-12.823-43.015
			l29.177-21.545l19.988,7.786l13.015,38.304L208.622,159.924z M279.187,203.81c-7.428,1.853-15.194,2.843-23.187,2.843
			c-7.993,0-15.76-0.99-23.188-2.843l-11.957-35.188l13.671-19.215h42.941l13.675,19.221L279.187,203.81z M297.249,197.309
			l7.616-22.412l22.914-0.662C319.294,183.83,308.923,191.718,297.249,197.309z M338.866,158.899l-35.495,1.025l-13.866-19.49
			l13.002-38.264l20.038-7.806l29.143,21.52C350.874,131.497,346.302,146.129,338.866,158.899z"/>
	</g>
</g>
<g>
	<g>
		<path d="M361.18,471.609h-10.704l-13.708-62.106c-1.317-6.339-6.954-10.931-13.435-10.931H297.92
			c2.704-34.545,11.061-79.68,34.58-113.15c17.075-24.301,31.049-48.107,41.535-70.757c1.74-3.761,0.103-8.222-3.659-9.963
			c-3.759-1.74-8.221-0.104-9.964,3.658c-10.108,21.839-23.632,44.862-40.193,68.431c-25.705,36.581-34.593,85.144-37.354,121.779
			h-19.36V289.709c0-4.145-3.36-7.505-7.505-7.505s-7.505,3.36-7.505,7.505V398.57h-19.359
			c-2.763-36.636-11.65-85.198-37.355-121.779c-16.639-23.68-30.208-46.803-40.331-68.728c-1.737-3.763-6.196-5.407-9.96-3.667
			c-3.763,1.737-5.406,6.196-3.668,9.96c10.5,22.74,24.522,46.65,41.677,71.066c23.519,33.47,31.875,78.604,34.58,113.15h-25.413
			c-6.481,0-12.117,4.592-13.435,10.931l-13.708,62.106h-10.704c-7.293,0-13.225,5.933-13.225,13.225v13.941
			c0,7.293,5.933,13.226,13.225,13.226H361.18c7.293,0,13.225-5.933,13.225-13.226v-13.941
			C374.405,477.542,368.472,471.609,361.18,471.609z M189.702,413.58h132.596l12.808,58.027H176.894L189.702,413.58z
			 M359.396,496.99H152.604v-10.373h206.792V496.99z"/>
	</g>
</g>
<g>
</g>
<g>
</g>
<g>
</g>
<g>
</g>
<g>
</g>
<g>
</g>
<g>
</g>
<g>
</g>
<g>
</g>
<g>
</g>
<g>
</g>
<g>
</g>
<g>
</g>
<g>
</g>
<g>
</g>
</svg>
