<?xml version="1.0" encoding="iso-8859-1"?>
<!-- Generator: Adobe Illustrator 19.0.0, SVG Export Plug-In . SVG Version: 6.00 Build 0)  -->
<svg version="1.1" id="Capa_1" xmlns="http://www.w3.org/2000/svg" xmlns:xlink="http://www.w3.org/1999/xlink" x="0px" y="0px"
	 viewBox="0 0 512 512" style="enable-background:new 0 0 512 512;" xml:space="preserve">
<g>
	<g>
		<path d="M511.913,249.62c-0.019-0.785-0.05-1.568-0.077-2.351c-0.044-1.295-0.096-2.59-0.16-3.883
			c-0.049-1.012-0.104-2.023-0.165-3.032c-0.059-0.95-0.127-1.898-0.196-2.847c-3.549-49.383-21.24-96.212-50.644-135.29
			c-0.105-0.139-0.207-0.28-0.312-0.419c-0.923-1.221-1.86-2.432-2.805-3.637c-0.344-0.44-0.691-0.878-1.038-1.315
			c-0.887-1.116-1.779-2.227-2.685-3.329c-0.084-0.102-0.165-0.207-0.249-0.309c-0.023-0.028-0.05-0.05-0.073-0.077
			c-9.937-12.033-21.023-23.252-33.213-33.463c-3.176-2.661-7.91-2.243-10.572,0.934s-2.244,7.91,0.933,10.572
			c10.482,8.781,20.103,18.348,28.821,28.571l-25.487,88.764c-0.133,0.462-0.238,0.926-0.329,1.392l-58.433,22.763
			c-0.628-0.626-1.312-1.207-2.057-1.725l-88.385-61.403c-0.415-0.289-0.845-0.546-1.281-0.789V89.726
			c0.633-0.325,1.253-0.685,1.848-1.098l80.836-56.16c12.833,5.176,25.241,11.472,37.08,18.849c3.518,2.192,8.146,1.117,10.339-2.4
			c2.192-3.517,1.118-8.146-2.4-10.338c-13.77-8.581-28.264-15.782-43.28-21.555c-0.01-0.004-0.018-0.009-0.028-0.013
			c-0.034-0.013-0.067-0.025-0.101-0.038c-1.662-0.638-3.33-1.257-5.004-1.86c-0.536-0.193-1.075-0.378-1.613-0.568
			c-1.057-0.373-2.115-0.74-3.177-1.098c-0.786-0.266-1.572-0.528-2.36-0.786c-0.755-0.247-1.513-0.487-2.271-0.727
			c-3.618-1.148-7.258-2.213-10.917-3.195c-0.163-0.044-0.325-0.088-0.488-0.132c-11.358-3.027-22.905-5.259-34.597-6.688
			c-0.059-0.007-0.118-0.015-0.176-0.022c-1.294-0.157-2.591-0.303-3.889-0.441c-0.411-0.044-0.822-0.085-1.234-0.127
			c-1.19-0.12-2.38-0.239-3.573-0.343c-0.534-0.047-1.07-0.085-1.605-0.128c-1.707-0.138-3.416-0.26-5.129-0.364
			c-1.006-0.062-2.011-0.122-3.018-0.171c-0.736-0.036-1.472-0.066-2.209-0.096c-1.142-0.047-2.284-0.085-3.428-0.117
			c-0.608-0.017-1.215-0.035-1.823-0.048C259.527,0.024,257.765,0,256,0c-2.056,0-4.109,0.027-6.159,0.075
			c-0.766,0.018-1.529,0.054-2.293,0.078c-1.269,0.041-2.538,0.08-3.804,0.139c-1.002,0.047-2,0.112-3,0.171
			c-1.005,0.059-2.011,0.113-3.014,0.184c-1.186,0.083-2.369,0.184-3.552,0.284c-0.787,0.066-1.574,0.128-2.36,0.202
			c-1.379,0.128-2.754,0.274-4.128,0.425c-0.549,0.06-1.099,0.118-1.648,0.182c-1.602,0.186-3.199,0.389-4.794,0.605
			c-0.271,0.037-0.543,0.072-0.814,0.11c-54.89,7.583-105.59,32.664-145.454,72.527C30.612,119.349,4.553,177.139,0.557,239.193
			c-0.013,0.196-0.023,0.393-0.036,0.589c-0.097,1.564-0.187,3.129-0.256,4.698c-0.036,0.8-0.059,1.601-0.088,2.402
			c-0.037,1.075-0.082,2.148-0.106,3.225C0.026,252.069,0,254.034,0,256c0,0.767,0.013,1.53,0.025,2.293l0.016,1.05
			c0,0.015,0.003,0.029,0.004,0.044c0.226,17.267,2.156,34.478,5.791,51.21c0.763,3.513,3.872,5.913,7.327,5.913
			c0.528,0,1.064-0.056,1.601-0.172c4.05-0.88,6.621-4.877,5.741-8.927c-3.156-14.525-4.959-29.437-5.388-44.423l76.878-56.768
			c0.789-0.582,1.506-1.235,2.164-1.934l58.465,22.775c0.114,0.497,0.246,0.991,0.412,1.481l33.721,99.238
			c0.124,0.364,0.263,0.719,0.411,1.069l-39.856,56.021c-0.57-0.078-1.145-0.137-1.729-0.154l-95.11-2.748
			c-8.113-13.238-14.974-27.302-20.455-42.06c-1.443-3.885-5.765-5.866-9.648-4.422c-3.886,1.443-5.866,5.763-4.422,9.649
			c14.469,38.95,37.928,73.378,68.574,100.97c0.039,0.035,0.078,0.071,0.118,0.107c1.251,1.125,2.514,2.24,3.789,3.342
			c0.198,0.172,0.394,0.346,0.592,0.517c1.215,1.044,2.44,2.077,3.677,3.099c1.135,0.941,2.282,1.866,3.433,2.787
			c0.199,0.159,0.396,0.321,0.596,0.48c1.151,0.916,2.313,1.818,3.48,2.714c0.128,0.098,0.256,0.198,0.384,0.296
			c1.219,0.932,2.446,1.852,3.681,2.762c0.047,0.035,0.095,0.07,0.142,0.105c5.113,3.761,10.361,7.335,15.741,10.706
			c0.189,0.119,0.377,0.242,0.567,0.36c0.718,0.447,1.442,0.883,2.164,1.323c0.899,0.549,1.798,1.097,2.703,1.634
			c0.472,0.279,0.946,0.554,1.42,0.831c1.235,0.723,2.475,1.436,3.721,2.137c0.229,0.129,0.458,0.257,0.687,0.385
			C169.35,500.892,211.917,512,256,512c58.074,0,113.189-19.216,158.105-54.624c0.438-0.344,0.867-0.697,1.303-1.044
			c1.028-0.821,2.058-1.639,3.076-2.477c6.44-5.295,12.62-10.915,18.531-16.829c0.002-0.002,0.004-0.004,0.006-0.005
			c0.004-0.004,0.008-0.008,0.012-0.012c1.408-1.409,2.799-2.835,4.174-4.277c0.236-0.247,0.471-0.497,0.706-0.745
			c1.08-1.142,2.152-2.293,3.212-3.456c0.49-0.536,0.977-1.075,1.462-1.614c0.718-0.801,1.431-1.607,2.14-2.418
			c0.783-0.893,1.561-1.789,2.331-2.692c0.295-0.348,0.588-0.698,0.882-1.047c38.237-45.319,59.347-101.904,60.026-161.779
			l0.011-0.686C511.988,257.53,512,256.767,512,256C512,253.871,511.966,251.745,511.913,249.62z M428.415,192.653
			c0.001,0,0.001-0.001,0.001-0.001l22.506-78.38c24.044,33.07,39.277,71.86,44.266,112.375c0.005,0.045,0.011,0.089,0.017,0.134
			c0.174,1.416,0.335,2.835,0.483,4.255c0.02,0.19,0.036,0.38,0.055,0.569c0.218,2.13,0.401,4.264,0.562,6.402
			c0.079,1.067,0.155,2.135,0.221,3.205c0.047,0.765,0.094,1.529,0.134,2.294c0.011,0.225,0.017,0.452,0.028,0.677l-67.764-50.039
			C428.461,193.804,428.257,193.205,428.415,192.653z M222.906,17.267c0.428-0.059,0.857-0.118,1.286-0.174
			c1.135-0.15,2.27-0.291,3.408-0.425c0.736-0.086,1.474-0.165,2.211-0.244c0.949-0.102,1.897-0.208,2.848-0.3
			c1.64-0.156,3.283-0.299,4.93-0.422c0.614-0.046,1.23-0.081,1.845-0.123c1.221-0.083,2.442-0.16,3.666-0.224
			c0.658-0.035,1.316-0.064,1.974-0.094c1.249-0.055,2.499-0.101,3.751-0.137c0.577-0.017,1.153-0.036,1.73-0.049
			c1.812-0.04,3.627-0.066,5.446-0.066c1.476,0,2.951,0.015,4.424,0.042c0.654,0.012,1.308,0.034,1.962,0.051
			c0.797,0.021,1.594,0.04,2.389,0.068c0.876,0.032,1.75,0.073,2.624,0.114c0.547,0.025,1.094,0.049,1.64,0.078
			c1.034,0.056,2.067,0.12,3.1,0.189c0.361,0.024,0.722,0.047,1.083,0.072c1.176,0.084,2.352,0.175,3.526,0.276
			c0.182,0.015,0.364,0.031,0.546,0.047c16.615,1.463,32.97,4.633,48.818,9.442c0.147,0.044,0.293,0.09,0.439,0.135
			c0.766,0.234,1.528,0.477,2.292,0.719L256.79,76.3c-0.47,0.328-1.105,0.329-1.577,0l-72.071-50.07
			C196.13,22.11,209.412,19.121,222.906,17.267z M83.078,194.145l-67.777,50.048c2.308-46.804,18.281-92.103,45.778-129.921
			l22.506,78.379C83.744,193.204,83.54,193.804,83.078,194.145z M156.837,212.595l-58.513-22.794
			c-0.087-0.432-0.189-0.863-0.312-1.292L72.524,99.746c4.151-4.859,8.503-9.584,13.07-14.152
			c23.287-23.287,50.507-41.206,80.155-53.17l80.899,56.203c0.594,0.413,1.214,0.773,1.847,1.098v59.021
			c-0.437,0.243-0.867,0.501-1.283,0.789l-88.383,61.403C158.111,211.438,157.447,211.994,156.837,212.595z M167.246,223.713
			c-0.009-0.026,0.003-0.051,0-0.078c0.02-0.081,0.038-0.163,0.055-0.244c0.028-0.045,0.048-0.094,0.093-0.125l88.382-61.403
			c0.067-0.046,0.145-0.07,0.224-0.07c0.078,0,0.156,0.023,0.223,0.07l88.383,61.402c0.143,0.099,0.204,0.283,0.148,0.448
			l-33.72,99.237c-0.026,0.075-0.075,0.136-0.135,0.182c-0.006,0.005-0.012,0.009-0.018,0.014c-0.063,0.043-0.138,0.07-0.219,0.07
			H201.338c-0.168,0-0.316-0.107-0.37-0.266L167.246,223.713z M137.999,466.174c-0.249-0.14-0.5-0.278-0.749-0.419
			c-0.776-0.44-1.546-0.891-2.317-1.339c-0.649-0.378-1.3-0.754-1.946-1.139c-0.433-0.258-0.863-0.521-1.295-0.781
			c-0.977-0.59-1.954-1.183-2.924-1.788c-0.153-0.095-0.305-0.192-0.458-0.288c-3.845-2.41-7.635-4.932-11.363-7.57
			c-4.902-3.469-9.653-7.103-14.251-10.89c-0.2-0.165-0.4-0.331-0.599-0.497c-0.841-0.697-1.676-1.402-2.507-2.109
			c-0.497-0.425-0.993-0.851-1.487-1.279c-0.509-0.441-1.016-0.885-1.522-1.33c-0.822-0.726-1.641-1.455-2.453-2.192
			c-0.158-0.143-0.316-0.286-0.473-0.429c-12.126-11.062-23.163-23.393-32.904-36.843l84.399,2.439
			c0.574,0.016,1.084,0.393,1.268,0.936l27.907,82.128C161.723,478.249,149.58,472.682,137.999,466.174z M256,496.99
			c-21.838,0-43.279-2.895-63.899-8.543l-31.472-92.62c-0.278-0.819-0.62-1.605-1.016-2.355l39.429-55.422
			c0.752,0.113,1.518,0.176,2.296,0.176h109.324c0.773,0,1.534-0.063,2.282-0.174l39.437,55.432
			c-0.394,0.747-0.733,1.529-1.009,2.343l-31.479,92.641C299.331,494.085,277.89,496.99,256,496.99z M440.69,410.814
			c-0.359,0.427-0.715,0.855-1.077,1.279c-0.581,0.684-1.168,1.362-1.756,2.038c-0.89,1.021-1.787,2.038-2.696,3.046
			c-0.198,0.22-0.393,0.443-0.592,0.662c-2.643,2.91-5.363,5.767-8.162,8.566c-4.204,4.204-8.538,8.231-12.989,12.083
			c-0.156,0.134-0.312,0.268-0.468,0.402c-1.202,1.035-2.416,2.053-3.636,3.063c-0.33,0.272-0.657,0.548-0.989,0.819
			c-1.115,0.913-2.24,1.809-3.369,2.699c-1.197,0.942-2.403,1.874-3.617,2.793c-0.204,0.155-0.407,0.311-0.611,0.466
			c-19.111,14.369-40.34,25.881-63.052,34.055l27.907-82.129c0.185-0.543,0.694-0.92,1.268-0.936l84.399-2.439
			C447.884,401.93,444.357,406.439,440.69,410.814z M461.535,381.968l-95.116,2.748c-0.589,0.017-1.169,0.077-1.744,0.156
			l-39.847-56.009c0.151-0.354,0.292-0.715,0.417-1.084l33.72-99.237c0.155-0.456,0.282-0.917,0.392-1.38l58.55-22.808
			c0.641,0.673,1.338,1.301,2.1,1.864l76.876,56.767C495.676,305.63,483.436,346.382,461.535,381.968z"/>
	</g>
</g>
<g>
</g>
<g>
</g>
<g>
</g>
<g>
</g>
<g>
</g>
<g>
</g>
<g>
</g>
<g>
</g>
<g>
</g>
<g>
</g>
<g>
</g>
<g>
</g>
<g>
</g>
<g>
</g>
<g>
</g>
</svg>
