<?xml version="1.0" encoding="iso-8859-1"?>
<!-- Generator: Adobe Illustrator 19.0.0, SVG Export Plug-In . SVG Version: 6.00 Build 0)  -->
<svg version="1.1" id="Capa_1" xmlns="http://www.w3.org/2000/svg" xmlns:xlink="http://www.w3.org/1999/xlink" x="0px" y="0px"
	 viewBox="0 0 512.001 512.001" style="enable-background:new 0 0 512.001 512.001;" xml:space="preserve">
<g>
	<g>
		<circle cx="256" cy="214.161" r="7.756"/>
	</g>
</g>
<g>
	<g>
		<circle cx="256" cy="266.201" r="7.756"/>
	</g>
</g>
<g>
	<g>
		<path d="M504.494,252.17c-4.145,0-7.506,3.36-7.506,7.506v137.49H15.011V259.662c0-4.145-3.36-7.506-7.506-7.506
			S0,255.517,0,259.662v139.417c0,7.222,5.876,13.097,13.097,13.097h14.654v17.899c0,8.932,7.267,16.199,16.199,16.199h424.1
			c8.933,0,16.199-7.267,16.199-16.199v-17.899h14.654c7.222,0,13.097-5.876,13.097-13.097V259.676
			C512,255.531,508.64,252.17,504.494,252.17z M468.05,431.264H43.95c-0.655,0-1.188-0.533-1.188-1.188v-17.899h426.475v17.899
			h0.001C469.238,430.731,468.705,431.264,468.05,431.264z"/>
	</g>
</g>
<g>
	<g>
		<path d="M498.903,65.727H13.097C5.876,65.727,0,71.602,0,78.824V224.74c0,4.145,3.36,7.506,7.506,7.506s7.506-3.36,7.506-7.506
			V80.738h481.977v143.974c0,4.145,3.36,7.506,7.506,7.506c4.145,0,7.506-3.36,7.506-7.506V78.824
			C512,71.602,506.124,65.727,498.903,65.727z"/>
	</g>
</g>
<g>
	<g>
		<path d="M221.254,114.837H57.57c-7.539,0-13.672,6.133-13.672,13.672v220.886c0,7.539,6.133,13.672,13.672,13.672h163.684
			c7.539,0,13.672-6.133,13.672-13.672V128.509C234.926,120.97,228.793,114.837,221.254,114.837z M219.914,348.056H58.91V246.458
			h67.369c-17.727,12.906-34.529,26.029-34.529,43.543v21.923c0,4.069,4.973,6.781,8.589,6.781H180.8
			c3.617,0,6.555-4.294,6.555-8.589c0-4.746-2.938-8.589-6.555-8.589h-69.387v-11.526c0-15.811,23.357-27.659,43.931-43.543h64.57
			V348.056z M219.914,231.447h-48.035c8.339-9.397,14.12-20.362,14.12-33.887c0-25.54-20.342-44.073-46.56-44.073
			c-24.184,0-44.073,15.821-44.073,38.648c0,8.363,3.164,11.075,8.589,11.075c6.329,0,9.945-3.617,9.945-7.459
			c0-16.725,11.075-24.636,25.54-24.636c18.986,0,27.574,14.239,27.574,27.122c0,12.905-9.015,23.428-20.803,33.208H58.91V129.849
			h161.004V231.447z"/>
	</g>
</g>
<g>
	<g>
		<path d="M454.43,114.837H290.746c-7.539,0-13.672,6.133-13.672,13.672v220.886c0,7.539,6.133,13.672,13.672,13.672H454.43
			c7.539,0,13.672-6.133,13.672-13.672V128.509C468.102,120.97,461.969,114.837,454.43,114.837z M292.085,129.849L292.085,129.849
			H453.09v101.598h-31.796v-29.366c0-35.936-21.471-49.271-48.82-49.271c-27.348,0-48.593,13.335-48.593,49.271v29.366h-31.796
			V129.849z M342.867,231.446V202.08c0-21.923,11.075-32.094,29.608-32.094c18.534,0,29.835,10.171,29.835,32.094v29.366H342.867z
			 M402.309,246.458v23.653c0,21.924-11.301,32.095-29.835,32.095c-18.533,0-29.608-10.171-29.608-32.095v-23.653H402.309z
			 M453.091,348.056H292.086V246.458h31.796v23.653c0,35.937,21.246,49.272,48.593,49.272c27.348,0,48.82-13.335,48.82-49.272
			v-23.653h31.796V348.056z"/>
	</g>
</g>
<g>
</g>
<g>
</g>
<g>
</g>
<g>
</g>
<g>
</g>
<g>
</g>
<g>
</g>
<g>
</g>
<g>
</g>
<g>
</g>
<g>
</g>
<g>
</g>
<g>
</g>
<g>
</g>
<g>
</g>
</svg>
