<?xml version="1.0" encoding="iso-8859-1"?>
<!-- Generator: Adobe Illustrator 19.0.0, SVG Export Plug-In . SVG Version: 6.00 Build 0)  -->
<svg version="1.1" id="Capa_1" xmlns="http://www.w3.org/2000/svg" xmlns:xlink="http://www.w3.org/1999/xlink" x="0px" y="0px"
	 viewBox="0 0 512 512" style="enable-background:new 0 0 512 512;" xml:space="preserve">
<g>
	<g>
		<path d="M432.896,104.677c-4.143,0-7.502,3.359-7.502,7.502v136.319H323.319c-3.746-33.836-32.501-60.242-67.319-60.242
			s-63.573,26.407-67.319,60.242H86.606V20.201c0-2.866,2.332-5.198,5.197-5.198h59.505v60.592c0,9.342,7.6,16.942,16.941,16.942
			h19.111c14.431,24.125,40.32,38.932,68.641,38.932s54.21-14.808,68.641-38.932h19.111c9.341,0,16.941-7.6,16.941-16.942V15.004
			h59.505c2.865,0,5.197,2.332,5.197,5.198v57.073c-0.002,4.142,3.357,7.501,7.5,7.501s7.502-3.359,7.502-7.502V20.201
			C440.398,9.062,431.336,0,420.197,0H91.802C80.664,0,71.601,9.062,71.601,20.201v379.62c0,4.143,3.359,7.502,7.502,7.502
			s7.502-3.359,7.502-7.502V263.502h102.075c3.746,33.836,32.501,60.242,67.319,60.242s63.573-26.407,67.319-60.242h102.075v228.297
			c0,2.866-2.332,5.198-5.197,5.198h-59.505v-60.508c0-9.342-7.6-16.942-16.941-16.942H324.64
			c-14.431-24.125-40.32-38.932-68.641-38.932s-54.21,14.808-68.641,38.932h-19.111c-9.341,0-16.941,7.6-16.941,16.942v60.508
			H91.802c-2.865,0-5.197-2.332-5.197-5.198v-57.073c0-4.143-3.359-7.502-7.502-7.502s-7.502,3.359-7.502,7.502v57.073
			c0,11.139,9.062,20.201,20.201,20.201h328.395c11.138,0,20.201-9.062,20.201-20.201v-379.62
			C440.398,108.036,437.039,104.677,432.896,104.677z M256,116.466c-19.818,0-38.173-8.926-50.378-23.929h100.756
			C294.173,107.539,275.818,116.466,256,116.466z M166.312,15.004H345.69v60.592h-0.001c0,1.069-0.869,1.938-1.938,1.938h-23.569
			c-0.016,0-0.032,0-0.047,0H191.864c-0.016,0-0.032,0-0.047,0h-23.568c-1.068,0-1.937-0.869-1.937-1.938V15.004z M256,308.74
			c-29.081,0-52.74-23.659-52.74-52.74c0-29.081,23.659-52.74,52.74-52.74s52.74,23.659,52.74,52.74S285.081,308.74,256,308.74z
			 M256,395.618c19.818,0,38.173,8.926,50.378,23.929H205.622C217.827,404.544,236.182,395.618,256,395.618z M166.311,496.996
			v-60.508c0-1.069,0.869-1.938,1.937-1.938h23.594c0.003,0,0.006,0,0.008,0h128.394c0.007,0,0.014,0.001,0.022,0.001
			s0.017-0.001,0.025-0.001h23.46c1.068,0,1.938,0.869,1.938,1.938v60.508H166.311z"/>
	</g>
</g>
<g>
</g>
<g>
</g>
<g>
</g>
<g>
</g>
<g>
</g>
<g>
</g>
<g>
</g>
<g>
</g>
<g>
</g>
<g>
</g>
<g>
</g>
<g>
</g>
<g>
</g>
<g>
</g>
<g>
</g>
</svg>
